<svg width="54" height="54" viewBox="0 0 54 54" fill="none" xmlns="http://www.w3.org/2000/svg">
    <mask id="mask0" mask-type="alpha" maskUnits="userSpaceOnUse" x="0" y="0" width="54" height="54">
        <circle cx="27" cy="27" r="26.5" fill="white" stroke="white"/>
    </mask>
    <g mask="url(#mask0)">
        <path d="M17.0814 35.2521C16.0486 35.6584 14.5586 36.4203 13.2888 37.8595C12.8824 38.3336 11.748 39.705 10.749 44.5135C9.73316 49.3898 9.1575 53.9274 9.1575 53.9274C8.95432 55.5528 8.76807 57.1613 7.56594 57.8555C6.71937 58.3296 5.61884 58.2449 4.83999 57.9063C4.02729 57.5676 3.63786 56.9412 2.82515 55.7052C2.23255 54.7909 1.84313 54.1814 1.75848 53.3348C1.69075 52.6406 1.877 52.2173 2.23255 51.2015C2.9606 49.0681 3.38389 47.7813 3.35002 46.2913C3.33309 45.6987 3.29923 44.1241 2.40187 43.6839C2.13097 43.5485 1.70769 43.4977 1.45371 43.6839C1.18281 43.8871 1.25053 44.2596 1.21667 45.0723C1.18281 46.1898 1.14895 46.7485 0.861115 47.0363C0.387036 47.5104 -0.578057 47.2903 -1.15372 47.1548C-1.59394 47.0533 -3.21935 46.6638 -3.9982 45.3093C-4.25217 44.8522 -4.15058 44.7845 -4.5908 41.9569C-4.76011 40.8394 -4.92942 39.959 -5.35271 39.8743C-5.70827 39.8066 -6.01304 40.2976 -6.35167 40.1622C-6.69029 40.0267 -6.5887 39.4511 -6.87653 39.3495C-7.1813 39.2479 -7.41834 39.8066 -7.94321 39.8066C-8.36649 39.8066 -8.48502 39.468 -8.77285 39.5188C-9.17921 39.6034 -9.34852 40.3484 -9.48397 40.958C-9.58556 41.4151 -9.68715 42.1093 -9.65329 42.9728C-9.92419 43.0236 -10.2797 43.1421 -10.4152 43.4299C-10.5845 43.7516 -10.3813 44.0564 -10.1782 44.7675C-9.89032 45.7157 -10.0596 45.7665 -9.8226 46.4437C-9.75488 46.63 -9.56862 47.1718 -8.87444 48.0691C-8.3157 48.8141 -7.58765 49.7454 -6.33473 50.5581C-4.69238 51.6078 -3.05004 51.8279 -2.13574 51.8956C-1.9495 52.2681 -1.67859 52.8438 -1.42462 53.5718C-0.848955 55.2311 -0.865895 56.3147 -0.713512 57.2629C-0.222502 60.4799 1.99551 62.6979 2.4188 63.1042C3.14685 63.8153 4.31512 64.9159 6.21143 65.3053C6.60085 65.39 8.98818 65.8302 11.0538 64.4418C11.6972 64.0185 12.3575 63.3751 13.4242 61.3264C14.9311 58.4312 15.5406 55.9422 15.7269 55.1973C16.3025 52.8777 17.0137 49.8808 17.3184 45.6649C17.5216 42.9728 17.5724 39.4341 17.0814 35.2521Z" fill="white"/>
        <path d="M15.761 35.4383C13.1536 36.8436 11.6297 39.4849 10.8509 42.2786C9.86888 45.7834 9.56411 49.5252 9.0223 53.1147C8.78526 54.6555 8.58209 57.2121 6.83816 57.8724C5.19581 58.4989 3.43495 56.3655 2.80849 55.0787C1.99578 53.4195 2.18203 51.7263 2.72383 50.0163C3.18098 48.5771 3.73972 47.121 3.5704 45.5633C3.48574 44.886 2.927 42.8373 1.89419 43.0575C1.38625 43.159 1.14921 43.9379 1.04762 44.3612C0.895237 44.9538 1.04762 47.5612 -0.052921 47.2564C-0.374617 47.1718 -0.510067 47.6628 -0.18837 47.7475C1.09842 48.1199 1.33545 46.6469 1.40317 45.7157C1.43704 45.2247 1.45397 44.7167 1.60635 44.2596C1.86032 43.5146 2.40213 43.8363 2.68997 44.3612C3.13018 45.1569 3.16404 46.139 3.04552 47.0194C2.80848 48.7464 1.92805 50.3041 1.75874 52.0311C1.62329 53.3687 1.97884 54.7232 2.67303 55.8745C3.33335 56.9581 4.40003 58.0248 5.63602 58.4481C6.90588 58.8883 8.05721 57.8216 8.63288 56.7719C9.44559 55.2989 9.51332 53.4533 9.75036 51.8279C10.0382 49.9147 10.3091 48.0014 10.6139 46.0882C11.2234 42.2109 12.2901 37.9103 16.0319 35.8955C16.3197 35.7262 16.0488 35.2859 15.761 35.4383Z" fill="#161616"/>
        <path d="M16.5904 49.339C16.1841 52.6576 15.4391 55.9592 14.2708 59.1084C13.238 61.9021 11.3417 64.9159 8.05701 65.1699C4.9247 65.4069 2.33419 63.1889 0.928886 60.5645C0.166973 59.1592 -0.290169 57.6184 -0.662659 56.0777C-1.00129 54.6385 -1.13675 53.0808 -1.89866 51.7941C-2.06797 51.5062 -2.50819 51.7602 -2.33887 52.048C-1.61082 53.284 -1.4923 54.8248 -1.15367 56.2131C-0.848909 57.4999 -0.476416 58.7698 0.0653887 59.9719C1.03048 62.1391 2.62203 64.137 4.85697 65.0852C6.9226 65.9656 9.25913 65.864 11.1216 64.5434C13.0687 63.1719 14.1354 61.0047 14.9142 58.8206C15.9978 55.756 16.7089 52.556 17.0984 49.3221C17.1322 49.0173 16.6243 49.0173 16.5904 49.339Z" fill="#161616"/>
        <path d="M0.217916 47.2734C-0.967282 47.358 -2.67735 46.5284 -3.47313 45.6649C-4.5398 44.5135 -4.11652 43.1929 -4.20117 41.7876C-4.28583 40.5685 -5.26785 38.2997 -6.45305 40.0775C-6.63929 40.3484 -6.19908 40.6024 -6.01284 40.3315C-5.40331 39.4172 -5.01388 40.5516 -4.91229 40.8225C-4.8615 40.9918 -4.81071 41.1611 -4.77685 41.3304C-4.65833 41.9569 -4.74298 42.5664 -4.75991 43.1929C-4.79377 44.0564 -4.67526 44.8522 -4.18425 45.5802C-3.76096 46.2067 -3.13449 46.6638 -2.47417 47.0025C-1.67839 47.4088 -0.69638 47.849 0.217916 47.7813C0.539612 47.7644 0.539612 47.2564 0.217916 47.2734Z" fill="#161616"/>
        <path opacity="0.11" d="M-10.1442 43.5823C-9.90717 43.4977 -9.50082 45.1062 -8.18017 46.8162C-7.62144 47.5443 -5.99602 49.593 -3.20234 50.3549C-1.7801 50.7443 -0.544109 50.6766 0.183941 50.5919C0.0484896 51.3538 -0.882739 57.1105 2.77444 60.4629C3.19773 60.8524 5.95754 63.2905 8.44646 62.427C9.56393 62.0375 10.1904 61.1402 10.6475 60.4291C13.1873 56.3994 13.5767 52.2343 14.8127 46.4437C15.5746 42.8881 16.218 39.8405 16.709 39.8913C17.3185 39.9421 17.5555 45.0554 17.0137 49.6438C16.7428 51.9803 16.4042 54.7401 14.965 58.0925C13.4243 61.682 12.8486 63.5444 10.9523 64.5603C8.51418 65.881 5.26336 65.39 3.16386 63.8323C1.87708 62.8672 1.33527 61.7328 0.31939 59.5148C-0.52718 57.6862 -1.45841 55.1803 -2.00021 52.0311C-2.44043 51.9634 -3.0161 51.8618 -3.69335 51.6417C-4.50606 51.3877 -5.82671 50.9644 -7.13042 49.9147C-7.55371 49.576 -9.04367 48.2893 -9.78866 46.1051C-10.1781 44.9538 -10.3474 43.65 -10.1442 43.5823Z" fill="#3D3D3D"/>
        <path d="M36.6882 35.3706C37.7041 35.7769 39.1602 36.5389 40.3793 37.978C40.7856 38.4521 41.8861 39.8235 42.8682 44.6321C43.8502 49.5083 44.4259 54.0459 44.4259 54.0459C44.629 55.6713 44.7984 57.2798 45.9836 57.974C46.8132 58.4481 47.8968 58.3634 48.6418 58.0248C49.4206 57.6862 49.827 57.0597 50.6058 55.8237C51.1984 54.9094 51.5709 54.2999 51.6386 53.4533C51.7064 52.7591 51.5201 52.3358 51.1815 51.32C50.4704 49.1866 50.0471 47.8998 50.0809 46.4099C50.0979 45.8173 50.1317 44.2426 51.0122 43.8024C51.2831 43.667 51.6894 43.6162 51.9434 43.8024C52.2143 44.0056 52.1466 44.3781 52.1804 45.1908C52.2143 46.3083 52.2482 46.867 52.5191 47.1548C52.9762 47.6289 53.9244 47.4088 54.4831 47.2734C54.9064 47.1718 56.4979 46.7823 57.2599 45.4278C57.5138 44.9707 57.4122 44.903 57.8355 42.0754C58.0048 40.958 58.1572 40.0775 58.5805 39.9929C58.9361 39.9251 59.2239 40.4161 59.5625 40.2807C59.8842 40.1452 59.7826 39.5696 60.0874 39.468C60.3922 39.3664 60.6123 39.9251 61.1202 39.9251C61.5266 39.9251 61.6451 39.5865 61.9329 39.6373C62.3223 39.722 62.4916 40.4669 62.6271 41.0765C62.7287 41.5336 62.8303 42.2278 62.7964 43.0913C63.0673 43.1421 63.4059 43.2606 63.5414 43.5485C63.6938 43.8701 63.5245 44.1749 63.3044 44.886C63.0335 45.8342 63.1858 45.885 62.9657 46.5622C62.898 46.7485 62.7118 47.2903 62.0345 48.1877C61.4758 48.9326 60.7816 49.8639 59.5456 50.6766C57.9371 51.7263 56.3286 51.9464 55.4482 52.0141C55.262 52.3866 54.9911 52.9623 54.754 53.6904C54.1953 55.3496 54.1953 56.4332 54.0598 57.3814C53.5857 60.5984 51.4185 62.8164 50.9952 63.2227C50.2841 63.9339 49.1497 65.0344 47.3042 65.4238C46.9317 65.5085 44.5952 65.9487 42.5634 64.5603C41.9369 64.137 41.2935 63.4936 40.2438 61.4449C38.7877 58.5497 38.1612 56.0608 37.9919 55.3158C37.4332 52.9962 36.739 49.9993 36.4342 45.7834C36.2649 43.1082 36.2141 39.5526 36.6882 35.3706Z" fill="white"/>
        <path d="M37.7379 35.997C41.0057 37.8087 42.2247 41.4997 42.8173 44.9707C43.139 46.8501 43.393 48.7633 43.6808 50.6596C43.9348 52.4374 44.0364 54.3845 44.629 56.0946C45.0015 57.1782 45.8481 58.4989 47.0841 58.6682C48.2693 58.8375 49.573 57.6184 50.2502 56.7719C51.0799 55.756 51.5878 54.4861 51.6894 53.1824C51.8248 51.4723 51.0968 49.8977 50.6566 48.2723C50.4026 47.3411 50.2502 46.376 50.4534 45.4278C50.5381 45.0045 50.6735 44.4289 51.0121 44.1241C51.7402 43.4469 51.9095 44.5982 51.9772 45.1061C52.0957 46.0374 51.9772 48.34 53.5857 47.8829C53.9074 47.7982 53.772 47.3072 53.4503 47.3919C52.4005 47.6966 52.519 45.377 52.4513 44.886C52.3836 44.395 52.2312 43.6839 51.8079 43.3453C51.0121 42.7188 50.2672 44.2934 50.0809 44.8352C49.065 47.9506 51.7741 50.8289 51.0629 53.9782C50.7074 55.5359 49.7254 56.9412 48.3708 57.7708C46.1867 59.0915 45.0862 56.2808 44.7814 54.5877C44.1549 51.049 43.8671 47.4596 43.156 43.9379C42.4957 40.6532 41.0903 37.2838 38.0088 35.5907C37.7041 35.4044 37.4501 35.8447 37.7379 35.997Z" fill="#161616"/>
        <path d="M36.6713 49.4744C37.0099 52.302 37.5856 55.0787 38.4322 57.8047C39.1602 60.1412 40.0576 62.6132 41.9708 64.2725C43.647 65.7286 45.8312 66.2027 47.9476 65.5085C50.1318 64.7974 51.7741 63.0704 52.8577 61.0894C53.5519 59.8026 54.026 58.3973 54.3815 56.975C54.771 55.4174 54.8725 53.6226 55.6852 52.2004C55.8546 51.9126 55.4143 51.6586 55.245 51.9464C54.5 53.2332 54.3815 54.7909 54.0429 56.2301C53.6873 57.7708 53.2302 59.3116 52.4852 60.7169C51.1307 63.2905 48.6249 65.5593 45.5264 65.3222C42.2925 65.0683 40.4639 62.0037 39.465 59.2608C38.3306 56.1115 37.5856 52.8099 37.1962 49.4914C37.1454 49.1527 36.6374 49.1358 36.6713 49.4744Z" fill="#161616"/>
        <path d="M53.1794 47.8998C54.0429 47.9675 54.9233 47.5443 55.6852 47.1718C56.3963 46.8331 57.0397 46.3591 57.4969 45.6818C57.954 45.0045 58.0895 44.2596 58.0726 43.4638C58.0556 42.8543 57.971 42.2617 58.0387 41.6691C58.0725 41.4151 58.1233 41.1781 58.208 40.941C58.3096 40.6363 58.699 39.5526 59.2747 40.45C59.444 40.7209 59.8842 40.4669 59.7149 40.196C58.5636 38.4013 57.5815 40.7209 57.5138 41.9061C57.4292 43.2945 57.8525 44.6151 56.8027 45.7834C56.0239 46.6469 54.3646 47.4935 53.1963 47.3919C52.8577 47.3749 52.8577 47.8829 53.1794 47.8998Z" fill="#161616"/>
        <path opacity="0.13" d="M38.1444 38.6891C38.5168 40.9071 39.1602 44.7506 39.9391 49.593C41.2089 57.3814 41.5814 60.0058 43.6301 60.9878C45.4757 61.8682 48.0662 61.1571 49.6239 59.8872C52.9085 57.2459 51.1815 52.6237 54.4154 50.7951C55.8546 49.9824 56.6842 50.5919 58.716 49.2882C60.2229 48.3231 61.1711 47.0702 61.6113 46.4945C62.7965 44.9199 63.0335 43.4299 63.3044 43.4976C63.5245 43.5484 63.4907 44.5474 63.3891 45.2416C63.3383 45.6141 63.1012 46.9347 62.0346 48.3908C60.6462 50.2871 58.8176 51.0998 58.0218 51.3877C57.0059 51.7602 56.0916 51.8787 55.4652 51.9126C55.3297 52.2681 55.1435 52.8268 54.9403 53.521C54.0599 56.484 54.2969 57.1274 53.6705 58.8883C53.3488 59.8026 52.6376 61.4111 51.1985 62.9349C50.6059 63.5614 49.8101 64.391 48.4556 64.9667C48.117 65.119 46.864 65.6439 45.4926 65.5254C42.4449 65.2714 40.5486 61.9698 39.8714 60.8015C39.3973 59.9719 39.2618 59.5486 37.7719 54.1983C35.266 45.2416 37.1454 51.8787 36.1295 48.1538C34.6565 42.8035 34.1993 41.5336 34.9613 40.3484C35.3845 39.7727 36.1972 38.9939 38.1444 38.6891Z" fill="#3D3D3D"/>
        <path d="M15.8287 36.2172C14.2541 38.5029 14.2033 41.3982 14.1355 45.4109C14.0678 49.4067 14.7112 52.2004 15.2699 54.9941C16.0149 58.719 16.9123 64.0863 17.5218 70.9266C20.5525 71.7223 24.8023 72.4334 29.8309 72.061C32.4384 71.8747 34.7411 71.4345 36.6882 70.9266C36.722 65.1868 37.1453 60.5815 37.5347 57.4661C38.0427 53.3687 38.4152 52.0988 38.6691 48.5432C39.1263 41.7199 39.3633 38.2997 37.7379 35.9294C33.6744 30.0711 19.9769 30.1727 15.8287 36.2172Z" fill="white" stroke="#161616" stroke-width="3" stroke-miterlimit="10"/>
        <path opacity="0.09" d="M29.4416 32.0013C31.05 39.2818 32.286 49.847 29.8479 62.0037C29.086 65.8133 28.0701 69.2503 26.9526 72.298C28.5103 72.1625 30.1865 71.9763 31.9474 71.7054C33.5897 71.4514 35.1136 71.1467 36.5527 70.808C36.5697 69.3689 36.6374 67.1678 36.8575 64.5095C37.1623 60.7677 37.484 59.4132 38.3644 53.1147C39.2279 46.8501 39.4819 44.1241 39.0586 40.6193C38.6861 37.4193 38.0766 36.251 37.467 35.4214C35.0628 32.2383 30.6945 32.0182 29.4416 32.0013Z" fill="#3D3D3D"/>
        <path opacity="0.09" d="M38.0428 36.4034C37.7719 36.4034 37.7719 38.6214 37.0438 43.5993C36.6375 46.4437 36.1295 49.0004 35.1475 54.0967C34.5041 57.3814 34.1824 59.0238 34.047 59.5994C33.2851 62.6302 31.7443 66.9646 28.2395 71.9932C30.9316 71.6207 33.6406 71.2652 36.3327 70.8927C36.5867 67.5403 36.8407 64.6619 37.0269 62.3931C37.4333 57.8216 37.6364 55.519 37.9243 52.793C38.483 47.6967 38.6354 47.5443 38.72 45.394C38.9232 40.7717 38.4153 36.4034 38.0428 36.4034Z" fill="#3D3D3D"/>
        <path d="M17.505 14.1386C16.4553 16.3059 16.5061 18.2022 16.6077 21.8424C16.6923 25.3472 16.76 27.9885 18.504 29.2414C20.1463 30.4266 21.7887 29.3092 23.4479 30.9346C23.7527 31.2224 25.0226 32.4753 24.904 33.9822C24.8532 34.6764 24.5315 35.0489 24.7517 35.5738C25.1072 36.4034 26.3263 36.5897 26.5972 36.6235C27.8332 36.8098 28.7813 36.2002 29.0522 36.0309C29.5602 35.6923 29.8649 35.3029 30.0004 35.1336C31.2702 33.4404 31.7274 30.8838 32.4046 29.3769C33.8269 26.2107 36.502 27.2097 38.0597 24.0266C39.2957 21.4699 38.5846 18.7609 38.3137 17.7281C37.5856 14.9852 35.9602 13.3259 34.5719 11.8868C32.5232 9.77034 30.847 8.0772 28.3242 7.63698C23.9389 6.87507 19.3505 10.3121 17.505 14.1386Z" fill="white"/>
        <path d="M25.0395 26.143C25.158 26.0922 25.2765 26.2784 25.6152 26.4986C26.2247 26.888 27.0713 27.0573 27.7993 26.871C28.4766 26.7017 28.9676 26.2277 29.2723 25.9229C29.7803 25.4149 29.8819 25.0763 30.102 25.1102C30.4237 25.161 30.6946 26.0583 30.4068 26.7525C30.2374 27.1589 29.9327 27.3959 29.611 27.633C29.4586 27.7515 28.7813 28.2086 27.7824 28.3102C27.2067 28.361 26.7834 28.2764 26.4448 28.2086C25.9199 28.107 25.649 28.0562 25.4289 27.8531C24.8194 27.3621 24.7855 26.2615 25.0395 26.143Z" fill="black"/>
        <path d="M17.7926 17.2879C18.453 23.18 20.7218 29.597 26.6985 31.9335C27.0033 32.052 27.1388 31.561 26.834 31.4425C21.0942 29.2076 18.944 22.926 18.3006 17.2879C18.2498 16.9662 17.7418 16.9662 17.7926 17.2879Z" fill="#161616"/>
        <path d="M36.1293 17.3217C35.4013 23.2139 32.8615 29.3261 26.8678 31.4764C26.5631 31.578 26.6985 32.069 27.0033 31.9674C33.234 29.7325 35.8923 23.4678 36.6373 17.3217C36.6711 17.0001 36.1632 17.0001 36.1293 17.3217Z" fill="#161616"/>
        <path d="M26.1571 18.3038C26.0216 20.1493 26.0386 22.0117 26.2587 23.8573C26.2925 24.179 26.2587 24.67 26.682 24.7208C27.1052 24.7716 27.664 24.1112 27.9349 23.8573C28.1719 23.6372 27.8164 23.2816 27.5793 23.5017C27.4777 23.5864 26.8174 24.2128 26.7666 24.179C26.7497 24.179 26.7497 23.6202 26.7327 23.5356C26.665 22.9599 26.6312 22.3673 26.5973 21.7916C26.5465 20.6234 26.5804 19.4551 26.665 18.3038C26.6989 17.9651 26.1909 17.9821 26.1571 18.3038Z" fill="#161616"/>
        <path d="M21.1283 19.3196C22.1611 18.7101 23.3802 18.7778 24.3792 19.4551C24.6501 19.6413 24.904 19.2011 24.6331 19.0149C23.4987 18.236 22.0596 18.2022 20.8744 18.8794C20.6035 19.0487 20.8574 19.489 21.1283 19.3196Z" fill="#161616"/>
        <path d="M30.322 19.3196C31.3548 18.7101 32.5739 18.7778 33.5728 19.4551C33.8437 19.6413 34.0977 19.2011 33.8268 19.0149C32.6924 18.236 31.2532 18.2022 30.068 18.8794C29.7802 19.0487 30.0342 19.489 30.322 19.3196Z" fill="#161616"/>
        <path d="M25.2256 27.4636C24.7515 26.397 25.0394 25.9906 26.0891 26.2446C26.1569 26.2954 26.2246 26.3292 26.2923 26.38C26.5124 26.4478 26.5463 26.5493 26.7833 26.6171C27.105 26.7017 27.4436 26.6509 27.7484 26.5155C28.2563 26.3123 28.595 25.906 29.069 25.635C29.4923 25.3811 29.7294 25.3303 30.1357 25.652C30.6437 26.0753 30.5252 26.5493 30.1527 27.0404C29.9495 27.2943 30.3897 27.5483 30.5929 27.2943C31.0839 26.6509 31.2024 25.4827 30.3728 25.0255C29.3907 24.5006 28.6119 25.4827 27.8669 25.889C26.9188 26.4139 26.6309 25.7028 25.8013 25.5843C25.4288 25.5335 25.0732 25.6858 24.8023 25.9567C24.2267 26.5324 24.2436 27.5314 25.0055 27.9208C25.2595 28.0562 25.5135 27.616 25.2256 27.4636Z" fill="#161616"/>
        <path d="M24.7346 27.616C26.2415 29.4785 29.2891 28.6319 30.6775 27.1081C30.8976 26.871 30.5421 26.4986 30.3219 26.7525C29.1029 28.0901 26.4277 28.9197 25.1071 27.2605C24.887 26.9896 24.5314 27.3621 24.7346 27.616Z" fill="#161616"/>
        <path d="M21.8732 21.2668C21.8901 21.2498 21.907 21.2329 21.907 21.2329C22.0086 21.1313 22.0086 20.9789 21.907 20.8773C21.8054 20.7758 21.653 20.7758 21.5515 20.8773C21.5345 20.8943 21.5176 20.9112 21.5176 20.9112C21.416 21.0128 21.416 21.1652 21.5176 21.2668C21.6192 21.3684 21.7885 21.3684 21.8732 21.2668Z" fill="#161616"/>
        <path d="M23.3293 20.6064C23.3293 20.6234 23.3293 20.6403 23.3293 20.6403C23.3293 20.7757 23.4479 20.8943 23.5833 20.8943C23.7188 20.8943 23.8373 20.7757 23.8373 20.6403C23.8373 20.6234 23.8373 20.6064 23.8373 20.6064C23.8373 20.471 23.7188 20.3525 23.5833 20.3525C23.4479 20.3694 23.3293 20.471 23.3293 20.6064Z" fill="#161616"/>
        <path d="M23.1262 21.944C23.1262 21.9609 23.1262 21.9779 23.1262 21.9779C23.1262 22.1133 23.2447 22.2318 23.3802 22.2318C23.5156 22.2318 23.6342 22.1133 23.6342 21.9779C23.6342 21.9609 23.6342 21.944 23.6342 21.944C23.6342 21.8086 23.5156 21.69 23.3802 21.69C23.2447 21.69 23.1262 21.7916 23.1262 21.944Z" fill="#161616"/>
        <path d="M30.9655 20.0816C30.9486 20.0985 30.9317 20.1154 30.9317 20.1154C30.8301 20.217 30.8301 20.3694 30.9317 20.471C31.0332 20.5726 31.1856 20.5726 31.2872 20.471C31.3041 20.4541 31.3211 20.4371 31.3211 20.4371C31.4227 20.3355 31.4227 20.1832 31.3211 20.0816C31.2364 19.98 31.0671 19.98 30.9655 20.0816Z" fill="#161616"/>
        <path d="M32.6584 20.0138C32.6584 20.0477 32.6584 20.0646 32.6584 20.0985C32.6584 20.2339 32.777 20.3525 32.9124 20.3525C33.0479 20.3525 33.1664 20.2339 33.1664 20.0985C33.1664 20.0646 33.1664 20.0477 33.1664 20.0138C33.1664 19.8784 33.0479 19.7599 32.9124 19.7599C32.777 19.7599 32.6584 19.8784 32.6584 20.0138Z" fill="#161616"/>
        <path d="M32.2522 21.5377C32.2522 21.5546 32.2522 21.5715 32.2522 21.5715C32.2522 21.707 32.3707 21.8255 32.5062 21.8255C32.6416 21.8255 32.7601 21.707 32.7601 21.5715C32.7601 21.5546 32.7601 21.5377 32.7601 21.5377C32.7601 21.4022 32.6416 21.2837 32.5062 21.2837C32.3707 21.2837 32.2522 21.3853 32.2522 21.5377Z" fill="#161616"/>
        <path d="M21.1791 16.2889C21.8225 15.3069 23.0246 15.0191 24.0574 15.5609C24.3452 15.7133 24.5992 15.273 24.3114 15.1207C23.0077 14.4434 21.5516 14.8159 20.7388 16.035C20.5526 16.3059 20.9928 16.5598 21.1791 16.2889Z" fill="#161616"/>
        <path d="M30.4236 15.4085C31.4734 14.545 32.7771 15.1715 33.6406 15.9672C33.8776 16.1873 34.2332 15.8318 33.9962 15.6117C32.9126 14.6127 31.3379 13.9863 30.0681 15.0529C29.8141 15.2561 30.1697 15.6117 30.4236 15.4085Z" fill="#161616"/>
        <path d="M24.2776 30.6976C24.5824 32.2552 24.6332 33.8129 24.4639 35.3876C24.43 35.7092 24.938 35.7092 24.9718 35.3876C25.1411 33.7621 25.0734 32.1537 24.7517 30.5621C24.7009 30.2404 24.2099 30.3759 24.2776 30.6976Z" fill="#161616"/>
        <path d="M29.9664 30.0711C29.6785 31.7642 29.6108 33.4743 29.797 35.1844C29.8309 35.5061 30.3388 35.5061 30.305 35.1844C30.1187 33.5251 30.1695 31.8658 30.4574 30.2065C30.5082 29.8848 30.0171 29.7494 29.9664 30.0711Z" fill="#161616"/>
        <path d="M24.5653 35.4045C24.4299 35.8108 24.9717 36.1664 25.2426 36.3696C25.7675 36.759 26.4108 36.996 27.0542 37.0299C28.358 37.1145 29.7802 36.4373 30.2543 35.2013C30.3728 34.8965 29.8818 34.7611 29.7633 35.0658C29.3908 36.014 28.2733 36.5389 27.3082 36.5389C26.8341 36.5389 26.377 36.4373 25.9537 36.2172C25.8521 36.1664 25.0055 35.6754 25.0394 35.5399C25.1579 35.2182 24.6669 35.0828 24.5653 35.4045Z" fill="#161616"/>
        <path d="M24.5316 31.2732C25.3782 31.8489 26.3432 32.4076 27.393 32.2552C28.4427 32.1029 29.3909 31.3071 30.1697 30.6468C30.4237 30.4267 30.0512 30.0711 29.8142 30.2912C29.1369 30.8669 28.2396 31.6288 27.3253 31.7473C26.3771 31.8828 25.5475 31.3748 24.7856 30.8499C24.5147 30.6468 24.2607 31.087 24.5316 31.2732Z" fill="#161616"/>
        <path d="M24.7347 31.6796C25.2765 32.6108 26.2924 32.6616 27.2575 32.4584C28.2903 32.2552 29.5432 31.8489 30.1019 30.8838C30.2712 30.596 29.831 30.342 29.6617 30.6298C29.0183 31.7642 25.9537 32.797 25.158 31.4256C25.0056 31.1378 24.5654 31.3917 24.7347 31.6796Z" fill="#161616"/>
        <path d="M24.9039 31.7981C26.2584 33.5082 29.1537 32.9833 30.1357 31.1378C30.2881 30.8499 29.8479 30.596 29.6955 30.8838C28.8489 32.4754 26.4108 32.8986 25.2595 31.4425C25.0563 31.1886 24.7008 31.5441 24.9039 31.7981Z" fill="#161616"/>
        <path d="M19.0289 23.3663C17.522 24.162 15.7103 20.4202 18.3008 20.1154C18.6225 20.0816 18.6225 19.5736 18.3008 19.6075C17.0818 19.7429 16.1844 20.8096 16.5061 22.0625C16.8108 23.18 18.0976 24.416 19.2828 23.8065C19.5707 23.6541 19.3167 23.2139 19.0289 23.3663Z" fill="#161616"/>
        <path d="M36.1125 19.8445C36.6374 19.5906 37.1623 20.4879 37.2638 20.8435C37.3993 21.3006 37.3316 21.7916 37.1961 22.2319C36.8406 23.4171 36.0448 23.6202 34.9273 23.5186C34.6056 23.4848 34.6056 23.9927 34.9273 24.0266C35.6215 24.0943 36.4342 24.1451 36.9929 23.6202C37.5009 23.1631 37.7718 22.3165 37.8226 21.6562C37.9072 20.6911 37.1115 18.7779 35.8585 19.4043C35.5707 19.5567 35.8247 19.9969 36.1125 19.8445Z" fill="#161616"/>
        <path d="M24.2266 5.21579C22.3134 5.74067 20.0954 6.36713 18.3514 8.16186C16.472 10.092 16.0488 12.4794 15.8117 13.7661C15.6255 14.7651 15.6593 15.5609 15.6593 15.5609C15.6593 16.6276 15.8456 17.0508 15.8964 18.1683C15.8964 18.1683 15.9302 18.981 15.8117 20.0985C15.744 20.6742 14.9313 23.417 13.6106 26.3631C12.6286 28.5642 12.0699 28.6827 11.7482 30.088C11.5789 30.833 11.0201 33.2542 12.4762 35.4891C14.2371 38.1812 17.4371 38.3505 17.6742 38.3505C20.9419 38.4691 22.906 36.0648 23.2107 35.6923C24.0573 34.6256 24.3959 33.5251 24.5483 32.8478C24.5145 32.4415 24.4806 32.0013 24.4129 31.5611C24.3621 31.2394 24.3113 30.9177 24.2605 30.6129C24.0912 30.4944 23.8711 30.3251 23.6171 30.1219C22.4827 29.1907 21.7885 28.2933 21.416 27.7854C20.2985 26.2785 19.6382 24.7546 19.2827 23.7557C19.1472 23.8234 18.944 23.925 18.6731 23.9419C17.7419 24.0096 16.8784 23.1461 16.5906 22.2657C16.5228 22.0456 16.3704 21.5715 16.5567 21.0297C16.726 20.5726 17.0646 20.3017 17.2509 20.1493C17.6064 19.8615 17.962 19.7429 18.1821 19.6921C18.0975 19.1165 17.9959 18.5408 17.9112 17.9651C17.962 17.6773 18.0467 17.2371 18.3006 16.763C19.0287 15.3746 20.1969 15.2561 23.1261 13.5968C24.8192 12.6317 25.7166 11.9376 26.4785 10.9725C26.8002 10.5661 27.0203 10.2106 27.1727 9.97352C27.3759 10.3799 27.6806 10.9725 28.1716 11.5989C28.6965 12.2762 29.2552 12.7672 30.1357 13.4445C31.9135 14.799 33.8267 15.9503 34.0638 16.1027C35.3675 16.8815 36.0447 17.2032 36.2987 17.999C36.485 18.6085 36.3326 19.2011 36.1802 19.5905C36.3834 19.5905 36.9929 19.5906 37.3485 19.9969C37.467 20.1324 37.5178 20.2847 37.5855 20.5218C37.6194 20.6403 37.7717 21.0805 37.7717 21.5885C37.7717 21.8932 37.7548 22.926 36.9421 23.5694C36.0955 24.2467 35.0458 24.0266 34.9103 23.9927C34.5717 24.8562 34.0299 25.9906 33.1833 27.1758C32.2352 28.4795 31.2024 29.4108 30.4235 30.0034C30.3219 30.7991 30.2203 31.6626 30.1865 32.5769C30.1526 33.1695 30.1526 33.7283 30.1526 34.2701C30.2711 34.6426 30.4912 35.1505 30.8807 35.6584C32.3706 37.5886 34.995 37.6394 35.6553 37.6564C37.6363 37.7071 39.1093 36.9283 40.0913 36.4204C40.7855 36.0479 41.7337 35.5569 42.631 34.5748C44.121 32.9664 44.5104 31.1716 44.6797 30.4097C45.2385 27.7684 44.4935 25.6181 44.1041 24.5176C43.2575 22.1641 42.5295 22.1811 41.0903 19.5905C39.4649 16.6106 40.1252 16.035 37.9749 10.7693C36.7728 7.82323 36.0109 6.65496 34.8087 5.67294C34.2669 5.23273 32.9802 4.23377 31.1854 4.04753C30.6098 3.99673 30.1865 4.04753 27.833 4.50468C25.615 4.91103 24.5314 5.13114 24.2266 5.21579Z" fill="#5222D0"/>
        <path d="M27.2913 10.1428C27.2744 10.109 27.2574 10.092 27.2574 10.0582C27.2405 10.1598 27.2236 10.2614 27.2236 10.3629C27.2574 10.346 27.2744 10.3121 27.3082 10.2952C27.2066 10.3121 27.105 10.3291 27.0035 10.3291C27.3421 10.4815 27.7146 11.2264 27.9685 11.5312C28.3241 11.9545 28.6797 12.3608 29.0691 12.7503C29.7633 13.4445 30.5421 14.0709 31.3548 14.6297C33.0988 15.8318 36.1803 16.6953 36.2819 19.235C36.2988 19.5567 36.8067 19.5567 36.7898 19.235C36.7051 16.8307 34.3347 15.8487 32.5569 14.799C31.4225 14.1386 30.3728 13.3259 29.4416 12.3947C28.9336 11.8868 28.4596 11.3619 28.0363 10.7862C27.8162 10.4984 27.613 10.0243 27.2744 9.88886C27.1558 9.83807 27.0542 9.855 26.9696 9.92273C26.9357 9.93966 26.9188 9.97352 26.8849 9.99045C26.8003 10.0751 26.8003 10.1936 26.8511 10.2952C26.868 10.3291 26.8849 10.346 26.8849 10.3799C26.9865 10.6846 27.4098 10.4307 27.2913 10.1428Z" fill="#5222D0"/>
        <path d="M22.8891 5.57136C19.9092 6.28248 17.3526 8.43277 16.1843 11.2772C14.5927 15.1376 16.269 19.4551 14.7451 23.3493C13.4922 26.6002 10.4615 29.9018 11.5282 33.6436C12.2731 36.268 14.6943 38.3336 17.4203 38.5706C20.8743 38.8754 23.905 36.3018 24.5653 32.9833C24.6331 32.6616 24.142 32.5261 24.0743 32.8478C23.4817 35.8278 20.9082 38.1643 17.7928 38.0796C15.033 38.0119 12.4255 35.7939 11.9176 33.0679C11.2742 29.5462 14.1525 26.4478 15.3039 23.3663C16.5737 19.98 15.4562 16.4075 16.2012 12.9535C16.9293 9.56717 19.6891 6.87508 23.0246 6.0793C23.3463 5.97771 23.2108 5.4867 22.8891 5.57136Z" fill="#5222D0"/>
        <path d="M26.9186 5.16501C28.2562 4.53854 29.7631 4.18298 31.2362 4.3523C33.2341 4.57241 34.8256 5.89305 35.9939 7.45074C38.2458 10.4815 38.178 14.4095 39.905 17.6942C41.4119 20.5895 43.6469 23.1969 44.4426 26.4139C45.3231 30.0372 43.8162 33.8637 40.7347 35.9293C38.9907 37.0976 36.8404 37.7241 34.7579 37.1992C33.8097 36.9622 32.8954 36.5727 32.0827 36.0309C31.4732 35.6246 30.4404 34.8965 30.6097 34.033C30.6774 33.7113 30.1864 33.5759 30.1187 33.8976C29.8647 35.2013 31.27 36.1664 32.2351 36.7082C33.8097 37.6056 35.6214 38.0627 37.433 37.7749C41.2595 37.1653 44.3749 33.9314 45.0522 30.1727C45.7633 26.2277 43.6299 22.8752 41.649 19.6583C40.5315 17.8297 39.5156 15.9842 38.9907 13.8847C38.432 11.6836 38.0426 9.5333 36.7558 7.62006C35.6045 5.90999 33.979 4.31844 31.8795 3.89515C30.1017 3.53959 28.2732 3.92901 26.6647 4.69093C26.3599 4.87717 26.6139 5.31739 26.9186 5.16501Z" fill="#5222D0"/>
        <path d="M26.9527 8.3481C27.2575 11.582 23.668 12.8349 21.3653 14.054C19.2489 15.1884 17.251 16.8477 16.8616 19.3535C16.8108 19.6752 17.3018 19.8107 17.3526 19.489C17.8436 16.3228 20.8235 14.9005 23.3971 13.6138C25.4458 12.5809 27.7146 10.9555 27.4606 8.3481C27.4268 8.0264 26.9188 8.0264 26.9527 8.3481Z" fill="#5222D0"/>
        <path opacity="0.19" d="M39.7021 27.5314C39.5158 27.8531 37.1454 32.0182 34.8597 31.3917C33.1327 30.9177 32.6078 28.0563 32.557 27.7684C31.812 28.4626 31.0671 29.1568 30.3051 29.851C30.1697 30.4944 30.0004 31.4425 29.9665 32.6108C29.9157 33.796 29.8988 34.4055 30.1358 34.9812C30.6776 36.2511 32.0321 36.759 33.2512 37.2331C33.9623 37.504 35.4523 38.0458 37.3994 37.8087C39.5666 37.5378 40.9889 36.4542 41.5476 36.0309C43.6979 34.3547 44.4936 32.1706 44.7815 31.1378C45.5773 28.2764 44.7815 25.889 44.4429 24.8562C43.9349 23.3155 42.9868 21.8255 41.1074 18.8625C40.5994 18.0837 40.1761 17.4403 39.9052 17.017C40.447 18.5239 42.0386 23.3155 39.7021 27.5314Z" fill="#3D3D3D"/>
        <path opacity="0.23" d="M15.2024 22.3334C14.8976 23.1969 14.5082 24.6361 14.6268 26.4308C14.7283 27.9208 14.8469 29.4616 16.0151 30.4097C17.4035 31.5441 20.0448 31.6626 21.0776 30.1727C21.8226 29.106 21.3993 27.6838 21.3147 27.4129C22.3983 28.5134 23.4649 29.597 24.5485 30.6975C24.6501 31.2563 24.7687 32.2044 24.4978 33.3558C24.1422 34.8627 23.3126 35.8108 22.9401 36.2341C21.9072 37.4024 20.7728 37.9103 20.5189 38.0119C20.0109 38.232 18.6056 38.8246 16.8278 38.4691C15.2193 38.1474 14.2204 37.25 13.6617 36.7421C13.1199 36.2341 11.8331 35.032 11.4775 33.051C11.2066 31.561 11.5791 30.3589 11.8839 29.4277C12.2733 28.1748 12.6796 27.7515 13.5601 26.0922C13.9834 25.2118 14.5929 23.9588 15.2024 22.3334Z" fill="#3D3D3D"/>
        <path opacity="0.06" d="M18.521 19.2011C19.012 20.6911 19.7908 22.5535 21.0776 24.5176C23.1432 27.6668 25.5814 29.6647 27.2576 30.7991C27.8502 30.6806 28.4258 30.5452 29.0184 30.4266C29.1878 31.1039 29.3063 31.9505 28.8661 32.3907C28.1888 33.0849 26.8343 32.2722 26.1062 32.8648C25.6491 33.2373 25.3782 34.1515 26.157 36.6405C25.7168 36.3188 25.2766 35.9971 24.8195 35.6754C24.7348 33.9484 24.6501 32.2383 24.5486 30.5113C23.5496 29.7494 22.212 28.5303 21.0438 26.7356C20.248 25.5335 19.74 24.3821 19.4014 23.434C19.2998 23.5017 18.775 23.8742 18.1824 23.7049C17.7421 23.5864 17.522 23.2308 17.285 22.8583C16.9802 22.3842 16.6077 21.8086 16.8109 21.1482C16.9972 20.5556 17.5898 20.0985 18.3009 19.98C18.3347 19.726 18.4194 19.4551 18.521 19.2011Z" fill="#3D3D3D"/>
    </g>
</svg>
