<svg width="22" height="22" viewBox="0 0 22 22" fill="none" xmlns="http://www.w3.org/2000/svg">
    <g clip-path="url(#clip0)">
        <path d="M20.8274 8.91179L3.33047 0.445063C2.17794 -0.113537 0.79084 0.367929 0.232195 1.52046C-0.0526537 2.10814 -0.0764779 2.78866 0.166565 3.39487L2.89991 10.2259H22C21.7989 9.64962 21.3771 9.1769 20.8274 8.91179Z" fill="#5222D0"/>
        <path d="M2.89991 11.7719L0.166562 18.6044C-0.307748 19.7973 0.274767 21.1488 1.46765 21.6232C1.73773 21.7306 2.02562 21.7864 2.31626 21.7877C2.66747 21.7877 3.01414 21.7084 3.33042 21.5558L20.8273 13.0859C21.3771 12.8208 21.7989 12.3481 22 11.7719H2.89991Z" fill="#5222D0"/>
    </g>
    <defs>
        <clipPath id="clip0">
            <rect width="22" height="22" fill="white"/>
        </clipPath>
    </defs>
</svg>
