<svg width="81" height="80" viewBox="0 0 81 80" fill="none" xmlns="http://www.w3.org/2000/svg">
<path fill-rule="evenodd" clip-rule="evenodd" d="M75.7998 22C75.2484 22 74.7998 21.5514 74.7998 21C74.7998 20.4486 75.2484 20 75.7998 20C76.3512 20 76.7998 20.4486 76.7998 21C76.7998 21.5514 76.3512 22 75.7998 22Z" fill="#CACAFB"/>
<path fill-rule="evenodd" clip-rule="evenodd" d="M5.7998 60C5.2484 60 4.7998 59.5514 4.7998 59C4.7998 58.4486 5.2484 58 5.7998 58C6.3512 58 6.7998 58.4486 6.7998 59C6.7998 59.5514 6.3512 60 5.7998 60Z" fill="#CACAFB"/>
<path fill-rule="evenodd" clip-rule="evenodd" d="M73.7998 64C73.2484 64 72.7998 63.5514 72.7998 63C72.7998 62.4486 73.2484 62 73.7998 62C74.3512 62 74.7998 62.4486 74.7998 63C74.7998 63.5514 74.3512 64 73.7998 64Z" fill="#CACAFB"/>
<path d="M33.7998 38H29.7998C29.2475 38 28.7998 38.4477 28.7998 39V41C28.7998 41.5523 29.2475 42 29.7998 42H33.7998C34.3521 42 34.7998 41.5523 34.7998 41V39C34.7998 38.4477 34.3521 38 33.7998 38Z" fill="#E1000F"/>
<path d="M37.7998 38C38.3126 38 38.7353 38.386 38.7931 38.8834L38.7998 39V40H41.7998C42.3126 40 42.7353 40.386 42.7931 40.8834L42.7998 41C42.7998 41.5128 42.4138 41.9355 41.9164 41.9933L41.7998 42H37.7998C37.287 42 36.8643 41.614 36.8065 41.1166L36.7998 41V39C36.7998 38.4477 37.2475 38 37.7998 38Z" fill="#E1000F"/>
<path d="M41.7998 28C42.3521 28 42.7998 28.4477 42.7998 29C42.7998 29.5128 42.4138 29.9355 41.9164 29.9933L41.7998 30H38.7998V34H41.7998C42.3126 34 42.7353 34.386 42.7931 34.8834L42.7998 35C42.7998 35.5128 42.4138 35.9355 41.9164 35.9933L41.7998 36H37.7998C37.287 36 36.8643 35.614 36.8065 35.1166L36.7998 35V29C36.7998 28.4872 37.1858 28.0645 37.6832 28.0067L37.7998 28H41.7998Z" fill="#E1000F"/>
<path d="M41.7998 44C42.3521 44 42.7998 44.4477 42.7998 45C42.7998 45.5128 42.4138 45.9355 41.9164 45.9933L41.7998 46H38.7998V50H39.7998V48C39.7998 47.4872 40.1858 47.0645 40.6832 47.0067L40.7998 47H41.7998C42.3521 47 42.7998 47.4477 42.7998 48C42.7998 48.5128 42.4138 48.9355 41.9164 48.9933L41.7998 49V51C41.7998 51.5128 41.4138 51.9355 40.9164 51.9933L40.7998 52H37.7998C37.287 52 36.8643 51.614 36.8065 51.1166L36.7998 51V45C36.7998 44.4872 37.1858 44.0645 37.6832 44.0067L37.7998 44H41.7998Z" fill="#E1000F"/>
<path fill-rule="evenodd" clip-rule="evenodd" d="M59.4976 28H60.1087C63.2518 28 65.7998 30.548 65.7998 33.6911V35.6855C65.7998 37.1199 66.4068 38.4873 67.4706 39.4494L67.5449 39.5167C68.3642 40.2576 68.4276 41.5224 67.6867 42.3416C67.3075 42.7608 66.7686 43 66.2034 43H53.4034C52.2989 43 51.4034 42.1046 51.4034 41C51.4034 40.4334 51.6437 39.8935 52.0646 39.5142L52.3132 39.2818C53.2624 38.3367 53.7998 37.0498 53.7998 35.7035V33.6978C53.7998 30.551 56.3508 28 59.4976 28ZM60.1087 30H59.4976C57.4554 30 55.7998 31.6556 55.7998 33.6978V35.7035C55.7998 37.7005 54.9528 39.6039 53.4692 40.9407L53.4034 41H66.2034L65.9215 40.7373C64.5673 39.4097 63.7998 37.5899 63.7998 35.6855V33.6911C63.7998 31.6526 62.1472 30 60.1087 30Z" fill="#E1000F"/>
<path d="M59.7998 46C61.6854 46 62.7998 44.8856 62.7998 43C62.7998 42.4477 62.3521 42 61.7998 42C61.2475 42 60.7998 42.4477 60.7998 43C60.7998 43.781 60.5809 44 59.7998 44C59.0188 44 58.7998 43.781 58.7998 43C58.7998 42.4477 58.3521 42 57.7998 42C57.2475 42 56.7998 42.4477 56.7998 43C56.7998 44.8856 57.9142 46 59.7998 46Z" fill="#E1000F"/>
<path fill-rule="evenodd" clip-rule="evenodd" d="M21.7998 44H33.7998C34.3521 44 34.7998 44.4477 34.7998 45V51C34.7998 51.5523 34.3521 52 33.7998 52H21.7998C21.2475 52 20.7998 51.5523 20.7998 51V45C20.7998 44.4477 21.2475 44 21.7998 44ZM32.7998 50V46H22.7998V50H32.7998Z" fill="#000091"/>
<path fill-rule="evenodd" clip-rule="evenodd" d="M21.7998 34H25.7998C26.3521 34 26.7998 34.4477 26.7998 35V41C26.7998 41.5523 26.3521 42 25.7998 42H21.7998C21.2475 42 20.7998 41.5523 20.7998 41V35C20.7998 34.4477 21.2475 34 21.7998 34ZM24.7998 40V36H22.7998V40H24.7998Z" fill="#000091"/>
<path d="M23.7998 28H21.7998C21.2475 28 20.7998 28.4477 20.7998 29V31C20.7998 31.5523 21.2475 32 21.7998 32H23.7998C24.3521 32 24.7998 31.5523 24.7998 31V29C24.7998 28.4477 24.3521 28 23.7998 28Z" fill="#000091"/>
<path fill-rule="evenodd" clip-rule="evenodd" d="M33.7998 28H27.7998C27.2475 28 26.7998 28.4477 26.7998 29V32C26.7998 32.5523 27.2475 33 27.7998 33H29.7998V35C29.7998 35.5128 30.1858 35.9355 30.6832 35.9933L30.7998 36H33.7998C34.3521 36 34.7998 35.5523 34.7998 35V29C34.7998 28.4477 34.3521 28 33.7998 28ZM28.7998 31V30H32.7998V34H31.7998V32C31.7998 31.4872 31.4138 31.0645 30.9164 31.0067L30.7998 31H28.7998Z" fill="#000091"/>
<path d="M35.7998 10C36.3521 10 36.7998 10.4477 36.7998 11C36.7998 11.5523 36.3521 12 35.7998 12H27.7998C27.2475 12 26.7998 11.5523 26.7998 11C26.7998 10.4477 27.2475 10 27.7998 10H35.7998Z" fill="#000091"/>
<path d="M59.7998 22C62.4907 22 65.0802 22.7104 67.3545 24.0387C67.8314 24.3172 67.9922 24.9296 67.7137 25.4065C67.4351 25.8834 66.8227 26.0443 66.3458 25.7657C64.3756 24.615 62.1338 24 59.7998 24C52.6201 24 46.7998 29.8203 46.7998 37C46.7998 39.969 47.7968 42.7832 49.6009 45.0621C50.0373 45.6133 49.9478 46.1357 49.5961 46.8374L49.4633 47.0892L49.3498 47.2878L49.1451 47.6186L48.9719 47.8839L48.3258 48.844L48.7458 48.716L50.0883 48.2856L50.6929 48.0986L51.0349 47.9996L51.3341 47.9208C52.0795 47.7373 52.4241 47.7646 52.8119 47.9716L52.9602 48.0576C54.998 49.3209 57.3477 50 59.7998 50C66.9795 50 72.7998 44.1797 72.7998 37C72.7998 34.0302 71.8022 31.2153 69.9973 28.9361C69.6544 28.5032 69.7275 27.8742 70.1604 27.5314C70.5934 27.1885 71.2223 27.2615 71.5652 27.6945C73.6475 30.324 74.7998 33.5754 74.7998 37C74.7998 45.2843 68.0841 52 59.7998 52C57.1214 52 54.5444 51.296 52.2807 49.982L52.0568 49.848L52.0163 49.8525C51.9645 49.8588 51.9039 49.8686 51.8351 49.8819L51.518 49.9537L51.1475 50.0544L50.3523 50.3008L49.4235 50.6L48.7574 50.8083L48.3769 50.9204L48.0417 51.0112L47.7469 51.0806C46.9185 51.2566 46.5722 51.1436 46.128 50.7407C45.5294 50.1978 45.6093 49.6208 45.9898 48.8558L46.1136 48.6188L46.2165 48.4367L46.3989 48.1382L46.6406 47.7675L47.3665 46.6851L47.5643 46.3751L47.71 46.1268L47.7858 45.984L47.5512 45.6608C45.8518 43.2622 44.8861 40.4101 44.8053 37.41L44.7998 37C44.7998 28.7157 51.5155 22 59.7998 22Z" fill="#000091"/>
<path d="M45.7998 6C49.5853 6 52.6689 9.00478 52.7957 12.7594L52.7998 13V19C52.7998 19.5523 52.3521 20 51.7998 20C51.287 20 50.8643 19.614 50.8065 19.1166L50.7998 19V13C50.7998 10.3112 48.6775 8.11818 46.0167 8.00462L45.7998 8H17.7998C15.111 8 12.918 10.1223 12.8044 12.7831L12.7998 13V67C12.7998 69.6888 14.9221 71.8818 17.5829 71.9954L17.7998 72H45.7998C48.4886 72 50.6816 69.8777 50.7952 67.2169L50.7998 67V55C50.7998 54.4477 51.2475 54 51.7998 54C52.3126 54 52.7353 54.386 52.7931 54.8834L52.7998 55V67C52.7998 70.7855 49.795 73.8691 46.0405 73.9959L45.7998 74H17.7998C14.0144 74 10.9307 70.9952 10.8039 67.2407L10.7998 67V13C10.7998 9.21455 13.8046 6.1309 17.5592 6.00406L17.7998 6H45.7998Z" fill="#000091"/>
<path d="M41.7998 66C42.3521 66 42.7998 66.4477 42.7998 67C42.7998 67.5128 42.4138 67.9355 41.9164 67.9933L41.7998 68H21.7998C21.2475 68 20.7998 67.5523 20.7998 67C20.7998 66.4872 21.1858 66.0645 21.6832 66.0067L21.7998 66H41.7998Z" fill="#000091"/>
</svg>
