<svg width="81" height="81" viewBox="0 0 81 81" fill="none" xmlns="http://www.w3.org/2000/svg">
<path fill-rule="evenodd" clip-rule="evenodd" d="M15.6665 14.3103C15.1151 14.3103 14.6665 13.8617 14.6665 13.3103C14.6665 12.7589 15.1151 12.3103 15.6665 12.3103C16.2179 12.3103 16.6665 12.7589 16.6665 13.3103C16.6665 13.8617 16.2179 14.3103 15.6665 14.3103Z" fill="#CACAFB"/>
<path fill-rule="evenodd" clip-rule="evenodd" d="M5.6665 70.3103C5.1151 70.3103 4.6665 69.8617 4.6665 69.3103C4.6665 68.7589 5.1151 68.3103 5.6665 68.3103C6.2179 68.3103 6.6665 68.7589 6.6665 69.3103C6.6665 69.8617 6.2179 70.3103 5.6665 70.3103Z" fill="#CACAFB"/>
<path fill-rule="evenodd" clip-rule="evenodd" d="M75.6665 64.3103C75.1151 64.3103 74.6665 63.8617 74.6665 63.3103C74.6665 62.7589 75.1151 62.3103 75.6665 62.3103C76.2179 62.3103 76.6665 62.7589 76.6665 63.3103C76.6665 63.8617 76.2179 64.3103 75.6665 64.3103Z" fill="#CACAFB"/>
<path fill-rule="evenodd" clip-rule="evenodd" d="M59.6665 12.3103C59.1151 12.3103 58.6665 11.8617 58.6665 11.3103C58.6665 10.7589 59.1151 10.3103 59.6665 10.3103C60.2179 10.3103 60.6665 10.7589 60.6665 11.3103C60.6665 11.8617 60.2179 12.3103 59.6665 12.3103Z" fill="#CACAFB"/>
<path d="M42.8146 10.3103C59.3831 10.3103 72.8146 23.7418 72.8146 40.3103C72.8146 40.8626 72.3669 41.3103 71.8146 41.3103C71.2623 41.3103 70.8146 40.8626 70.8146 40.3103C70.8146 24.8463 58.2786 12.3103 42.8146 12.3103C27.3506 12.3103 14.8146 24.8463 14.8146 40.3103C14.8146 55.7743 27.3506 68.3103 42.8146 68.3103C53.9693 68.3103 63.9218 61.7278 68.393 51.7186C68.6183 51.2144 69.2097 50.9882 69.7139 51.2134C70.2182 51.4387 70.4443 52.0301 70.2191 52.5344C65.4289 63.2576 54.7655 70.3103 42.8146 70.3103C26.2461 70.3103 12.8146 56.8788 12.8146 40.3103C12.8146 23.7418 26.2461 10.3103 42.8146 10.3103Z" fill="#E1000F"/>
<path d="M71.8146 48.9029C71.8146 49.4961 71.3337 49.977 70.7405 49.977C70.1473 49.977 69.6665 49.4961 69.6665 48.9029C69.6665 48.3097 70.1473 47.8288 70.7405 47.8288C71.3337 47.8288 71.8146 48.3097 71.8146 48.9029Z" fill="#E1000F"/>
<path d="M15.1596 21.3424C14.7202 21.0078 14.0928 21.0929 13.7582 21.5323C10.3786 25.9717 8.51831 31.39 8.51831 37.0881C8.51831 37.6404 8.96603 38.0881 9.51831 38.0881C10.0706 38.0881 10.5183 37.6404 10.5183 37.0881C10.5183 31.8315 12.2328 26.8379 15.3496 22.7438C15.6841 22.3043 15.5991 21.6769 15.1596 21.3424Z" fill="#E1000F"/>
<path fill-rule="evenodd" clip-rule="evenodd" d="M56.663 35.2273C55.9532 26.7097 51.1873 22.3103 42.6665 22.3103C34.1457 22.3103 29.3798 26.7097 28.67 35.2273C28.6162 35.8718 29.1793 36.397 29.8186 36.2987L31.6665 36.0144V36.4513C30.9507 36.5892 30.4231 36.7802 30.0532 37.0559C29.1153 37.7552 28.6664 38.8735 28.6664 40.3103C28.6664 42.8626 30.1141 44.3103 32.6664 44.3103C32.7753 44.3103 32.8801 44.2929 32.9782 44.2607C34.042 46.3236 35.6912 48.0091 37.695 49.0722C37.6764 49.1485 37.6665 49.2283 37.6665 49.3103C37.6665 50.609 37.0476 51.7631 36.0887 52.4938C36.0732 52.5048 36.0581 52.5161 36.0433 52.5279C35.3788 53.0196 34.5566 53.3103 33.6665 53.3103H31.6665L31.4416 53.3144C28.2321 53.4327 25.6665 56.0719 25.6665 59.3103C25.6665 59.8626 26.1142 60.3103 26.6665 60.3103C27.2188 60.3103 27.6665 59.8626 27.6665 59.3103C27.6665 57.1012 29.4574 55.3103 31.6665 55.3103H33.6665L33.8914 55.3062C34.7278 55.2753 35.5205 55.0733 36.2354 54.7341C37.3076 56.4214 39.2849 56.9365 41.909 56.2804C42.4448 56.1465 42.7706 55.6036 42.6366 55.0678C42.5027 54.532 41.9598 54.2062 41.424 54.3402C39.5542 54.8076 38.4622 54.5546 37.8796 53.5823C38.8582 52.6171 39.5067 51.3182 39.6407 49.8702C40.6016 50.1568 41.6166 50.3103 42.6665 50.3103C43.7164 50.3103 44.7314 50.1568 45.6923 49.8702C45.9678 52.8478 48.4192 55.1948 51.4416 55.3062L51.6665 55.3103H53.6665C55.8756 55.3103 57.6665 57.1012 57.6665 59.3103C57.6665 59.8626 58.1142 60.3103 58.6665 60.3103C59.2188 60.3103 59.6665 59.8626 59.6665 59.3103C59.6665 56.0719 57.1009 53.4327 53.8914 53.3144L53.6665 53.3103H51.6665C49.4574 53.3103 47.6665 51.5194 47.6665 49.3103C47.6665 49.2283 47.6566 49.1485 47.638 49.0722C49.6418 48.0091 51.291 46.3236 52.3548 44.2608C52.4529 44.2929 52.5577 44.3103 52.6665 44.3103C55.2188 44.3103 56.6665 42.8626 56.6665 40.3103C56.6665 38.8735 56.2176 37.7552 55.2797 37.0559C54.7741 36.679 53.9737 36.4605 52.8009 36.3193C52.7582 36.3135 52.7145 36.3105 52.6702 36.3103L52.6686 36.3102C52.5721 36.3099 52.4781 36.3235 52.3887 36.3494C52.2447 36.391 52.114 36.464 52.0046 36.5607C51.8111 36.7317 51.6843 36.9764 51.6682 37.2508C51.6667 37.2759 51.6662 37.3009 51.6665 37.3257V38.8103L51.6628 39.0861C51.5244 44.2152 47.5389 48.3103 42.6665 48.3103C37.7071 48.3103 33.6665 44.0676 33.6665 38.8103V35.7067L42.8186 34.2987L42.9366 34.2732C43.2063 34.1975 43.434 34.0114 43.5609 33.7575L44.5609 31.7575L44.6071 31.6502C44.7778 31.1795 44.5724 30.6452 44.1137 30.4159L44.0064 30.3697C43.5357 30.199 43.0014 30.4044 42.7721 30.8631L42.0025 32.4003L30.8065 34.1223L30.8247 33.9935C31.8048 27.4613 35.6698 24.3103 42.6665 24.3103L43.0256 24.3131C49.6768 24.4181 53.4126 27.4642 54.455 33.6587L54.5065 33.9893L47.909 32.3402L47.7943 32.3184C47.2978 32.2538 46.8207 32.5702 46.6964 33.0678C46.5624 33.6036 46.8882 34.1465 47.424 34.2804L55.424 36.2804L55.5408 36.3026C56.1606 36.383 56.7166 35.87 56.663 35.2273ZM31.6665 38.5004C31.4544 38.5561 31.3128 38.6115 31.2487 38.6593C30.8739 38.9388 30.6664 39.4556 30.6664 40.3103C30.6664 41.5821 31.0927 42.1629 32.1778 42.2852C31.8728 41.2782 31.6968 40.2115 31.6701 39.1066L31.6665 38.8103V38.5004ZM54.6665 40.3103C54.6665 41.5821 54.2403 42.1629 53.1552 42.2852C53.4874 41.1884 53.6665 40.0209 53.6665 38.8103V38.5004C53.8786 38.5561 54.0201 38.6115 54.0842 38.6593C54.4591 38.9388 54.6665 39.4556 54.6665 40.3103Z" fill="#000091"/>
</svg>
