
<svg width="353" height="164" viewBox="0 0 353 164" fill="none" xmlns="http://www.w3.org/2000/svg">
<path fill-rule="evenodd" clip-rule="evenodd" d="M142.965 0.558777C143.309 0.558777 143.59 0.827354 143.61 1.16601L143.611 1.20392V10.9284C143.611 11.2847 143.322 11.5735 142.965 11.5735C142.622 11.5735 142.341 11.3049 142.321 10.9663L142.32 10.9284V1.20392C142.32 0.847617 142.609 0.558777 142.965 0.558777Z" fill="#000091"/>
<path fill-rule="evenodd" clip-rule="evenodd" d="M235.462 0.558777C235.805 0.558777 236.086 0.827354 236.106 1.16601L236.107 1.20392V10.9284C236.107 11.2847 235.818 11.5735 235.462 11.5735C235.118 11.5735 234.837 11.3049 234.818 10.9663L234.816 10.9284V1.20392C234.816 0.847617 235.105 0.558777 235.462 0.558777Z" fill="#000091"/>
<path fill-rule="evenodd" clip-rule="evenodd" d="M271.718 9.71979H115.082C115.082 9.71979 113.97 19.526 120.85 19.526H265.342C272.536 19.526 271.718 9.71979 271.718 9.71979Z" fill="#000091"/>
<path fill-rule="evenodd" clip-rule="evenodd" d="M271.227 12.6961C271.584 12.6961 271.873 12.9849 271.873 13.3412C271.873 13.6848 271.604 13.9657 271.265 13.9853L271.227 13.9864H116.139C115.783 13.9864 115.494 13.6976 115.494 13.3412C115.494 12.9977 115.763 12.7168 116.101 12.6972L116.139 12.6961H271.227Z" fill="#000091"/>
<path fill-rule="evenodd" clip-rule="evenodd" d="M255.265 13.4307L255.266 13.5014L255.269 13.5842C255.27 13.5989 255.27 13.6142 255.271 13.6299C255.28 13.7964 255.297 13.9776 255.326 14.1692C255.403 14.6906 255.547 15.2058 255.771 15.6812C256.437 17.0953 257.675 17.9261 259.75 17.9261C260.106 17.9261 260.395 18.2149 260.395 18.5712C260.395 18.9275 260.106 19.2164 259.75 19.2164C257.162 19.2164 255.477 18.0859 254.603 16.2312C254.321 15.6319 254.144 14.9967 254.049 14.3578C254.019 14.1523 253.999 13.9627 253.988 13.7929L253.98 13.6524C253.979 13.6298 253.978 13.6076 253.977 13.5859L253.975 13.461C253.975 13.4411 253.975 13.4216 253.975 13.4027L253.976 13.3166C253.99 12.9606 254.289 12.683 254.646 12.6966C254.989 12.7097 255.259 12.9888 255.266 13.328L255.265 13.4307Z" fill="#000091"/>
<path fill-rule="evenodd" clip-rule="evenodd" d="M308.477 28.3171H76.6041C76.2478 28.3171 75.959 28.606 75.959 28.9623V141.142C75.959 141.498 76.2478 141.787 76.6041 141.787H308.477C308.834 141.787 309.122 141.498 309.122 141.142V28.9623C309.122 28.606 308.834 28.3171 308.477 28.3171ZM307.831 29.6074V140.497H77.2483V29.6074H307.831Z" fill="#6A6AF4"/>
<path fill-rule="evenodd" clip-rule="evenodd" d="M271.087 140.886C271.431 140.886 271.712 141.155 271.731 141.493L271.732 141.531V149.471C271.732 149.814 271.464 150.095 271.125 150.115L271.087 150.116H188.014C187.671 150.116 187.39 149.847 187.37 149.509L187.369 149.471V141.531C187.369 141.175 187.658 140.886 188.014 140.886C188.358 140.886 188.639 141.155 188.658 141.493L188.659 141.531V148.826H270.442V141.531C270.442 141.188 270.711 140.907 271.049 140.887L271.087 140.886Z" fill="#6A6AF4"/>
<path fill-rule="evenodd" clip-rule="evenodd" d="M230.82 145.813C235.854 145.86 249.583 145.86 254.011 145.858C254.797 145.862 255.45 146.466 255.516 147.249C255.551 147.673 255.406 148.093 255.118 148.405C254.829 148.718 254.423 148.895 253.998 148.894L230.794 148.806C230.092 148.8 229.487 148.31 229.336 147.623C229.244 147.178 229.358 146.715 229.646 146.364C229.934 146.012 230.365 145.81 230.82 145.813Z" fill="white"/>
<path fill-rule="evenodd" clip-rule="evenodd" d="M230.825 145.168C230.173 145.163 229.557 145.453 229.145 145.955C228.734 146.457 228.571 147.119 228.703 147.754L228.72 147.827C228.966 148.781 229.812 149.443 230.787 149.451L253.994 149.54C254.601 149.541 255.18 149.288 255.591 148.843C256.002 148.397 256.207 147.8 256.158 147.196L256.151 147.133C256.022 146.038 255.106 145.218 254.012 145.213L247.206 145.213L242.642 145.209L236.491 145.197L231.603 145.174L230.825 145.168ZM230.764 146.459L230.812 146.458L232.851 146.472L237.512 146.49L242.639 146.499L248.944 146.504L254.008 146.503C254.446 146.505 254.816 146.836 254.867 147.273L254.871 147.314C254.89 147.546 254.807 147.788 254.641 147.968C254.475 148.148 254.241 148.25 253.996 148.249L230.794 148.161C230.407 148.158 230.068 147.893 229.971 147.516L229.961 147.474C229.912 147.238 229.977 146.974 230.142 146.773C230.296 146.585 230.523 146.471 230.764 146.459Z" fill="#000091"/>
<rect x="79.5234" y="32.0417" width="226.035" height="106.021" fill="#6A6AF4"/>
<circle cx="120.619" cy="81.9286" r="2.18704" fill="#F95C5E"/>
<circle cx="120.619" cy="90.2918" r="2.18704" fill="#F95C5E"/>
<circle cx="120.619" cy="98.6549" r="2.18704" fill="#F95C5E"/>
<circle cx="186.05" cy="81.9286" r="2.18704" fill="#F95C5E"/>
<circle cx="186.05" cy="90.2918" r="2.18704" fill="#F95C5E"/>
<circle cx="186.05" cy="98.6549" r="2.18704" fill="#F95C5E"/>
<circle cx="186.05" cy="107.016" r="2.18704" fill="#F95C5E"/>
<circle cx="186.05" cy="115.379" r="2.18704" fill="#F95C5E"/>
<circle cx="186.05" cy="123.742" r="2.18704" fill="#F95C5E"/>
<path fill-rule="evenodd" clip-rule="evenodd" d="M160.594 81.6856C160.95 81.6856 161.239 81.9744 161.239 82.3308C161.239 82.6743 160.97 82.9552 160.632 82.9748L160.594 82.9759H127.102C126.746 82.9759 126.457 82.6871 126.457 82.3308C126.457 81.9872 126.726 81.7063 127.064 81.6867L127.102 81.6856H160.594Z" fill="white"/>
<path fill-rule="evenodd" clip-rule="evenodd" d="M160.594 90.0487C160.95 90.0487 161.239 90.3375 161.239 90.6938C161.239 91.0374 160.97 91.3183 160.632 91.3379L160.594 91.339H127.102C126.746 91.339 126.457 91.0502 126.457 90.6938C126.457 90.3503 126.726 90.0694 127.064 90.0498L127.102 90.0487H160.594Z" fill="white"/>
<path fill-rule="evenodd" clip-rule="evenodd" d="M160.594 98.412C160.95 98.412 161.239 98.7008 161.239 99.0571C161.239 99.4007 160.97 99.6816 160.632 99.7012L160.594 99.7023H127.102C126.746 99.7023 126.457 99.4134 126.457 99.0571C126.457 98.7136 126.726 98.4327 127.064 98.4131L127.102 98.412H160.594Z" fill="white"/>
<path fill-rule="evenodd" clip-rule="evenodd" d="M160.594 106.773C160.95 106.773 161.239 107.062 161.239 107.418C161.239 107.762 160.97 108.043 160.632 108.062L160.594 108.063H127.102C126.746 108.063 126.457 107.774 126.457 107.418C126.457 107.075 126.726 106.794 127.064 106.774L127.102 106.773H160.594Z" fill="white"/>
<path fill-rule="evenodd" clip-rule="evenodd" d="M160.594 115.136C160.95 115.136 161.239 115.425 161.239 115.781C161.239 116.125 160.97 116.406 160.632 116.425L160.594 116.427H127.102C126.746 116.427 126.457 116.138 126.457 115.781C126.457 115.438 126.726 115.157 127.064 115.137L127.102 115.136H160.594Z" fill="white"/>
<path fill-rule="evenodd" clip-rule="evenodd" d="M160.594 123.499C160.95 123.499 161.239 123.788 161.239 124.145C161.239 124.488 160.97 124.769 160.632 124.789L160.594 124.79H127.102C126.746 124.79 126.457 124.501 126.457 124.145C126.457 123.801 126.726 123.52 127.064 123.501L127.102 123.499H160.594Z" fill="white"/>
<path fill-rule="evenodd" clip-rule="evenodd" d="M134.699 62.3527H119.237C118.881 62.3527 118.592 62.6416 118.592 62.9979V70.9912C118.592 71.3475 118.881 71.6363 119.237 71.6363H134.699C135.055 71.6363 135.344 71.3475 135.344 70.9912V62.9979C135.344 62.6416 135.055 62.3527 134.699 62.3527ZM134.053 63.643V70.346H119.881V63.643H134.053Z" fill="white"/>
<path fill-rule="evenodd" clip-rule="evenodd" d="M160.595 62.3527H145.133C144.777 62.3527 144.488 62.6416 144.488 62.9979V70.9912C144.488 71.3475 144.777 71.6363 145.133 71.6363H160.595C160.952 71.6363 161.24 71.3475 161.24 70.9912V62.9979C161.24 62.6416 160.952 62.3527 160.595 62.3527ZM159.949 63.643V70.346H145.778V63.643H159.949Z" fill="white"/>
<path fill-rule="evenodd" clip-rule="evenodd" d="M226.027 81.6856C226.383 81.6856 226.672 81.9744 226.672 82.3308C226.672 82.6743 226.404 82.9552 226.065 82.9748L226.027 82.9759H192.538C192.181 82.9759 191.893 82.6871 191.893 82.3308C191.893 81.9872 192.161 81.7063 192.5 81.6867L192.538 81.6856H226.027Z" fill="white"/>
<path fill-rule="evenodd" clip-rule="evenodd" d="M226.027 98.412C226.383 98.412 226.672 98.7008 226.672 99.0571C226.672 99.4007 226.404 99.6816 226.065 99.7012L226.027 99.7023H192.538C192.181 99.7023 191.893 99.4134 191.893 99.0571C191.893 98.7136 192.161 98.4327 192.5 98.4131L192.538 98.412H226.027Z" fill="white"/>
<path fill-rule="evenodd" clip-rule="evenodd" d="M226.027 115.136C226.383 115.136 226.672 115.425 226.672 115.781C226.672 116.125 226.404 116.406 226.065 116.425L226.027 116.427H192.538C192.181 116.427 191.893 116.138 191.893 115.781C191.893 115.438 192.161 115.157 192.5 115.137L192.538 115.136H226.027Z" fill="white"/>
<path fill-rule="evenodd" clip-rule="evenodd" d="M200.138 62.3527H184.676C184.32 62.3527 184.031 62.6416 184.031 62.9979V70.9912C184.031 71.3475 184.32 71.6363 184.676 71.6363H200.138C200.495 71.6363 200.783 71.3475 200.783 70.9912V62.9979C200.783 62.6416 200.495 62.3527 200.138 62.3527ZM199.492 63.643V70.346H185.321V63.643H199.492Z" fill="white"/>
<path fill-rule="evenodd" clip-rule="evenodd" d="M226.029 62.3527H210.567C210.211 62.3527 209.922 62.6416 209.922 62.9979V70.9912C209.922 71.3475 210.211 71.6363 210.567 71.6363H226.029C226.385 71.6363 226.674 71.3475 226.674 70.9912V62.9979C226.674 62.6416 226.385 62.3527 226.029 62.3527ZM225.383 63.643V70.346H211.211V63.643H225.383Z" fill="white"/>
<path fill-rule="evenodd" clip-rule="evenodd" d="M242.421 55.639C242.764 55.639 243.045 55.9076 243.065 56.2462L243.066 56.2841V125.929C243.066 126.286 242.777 126.575 242.421 126.575C242.077 126.575 241.796 126.306 241.776 125.967L241.775 125.929V56.2841C241.775 55.9278 242.064 55.639 242.421 55.639Z" fill="white"/>
<path fill-rule="evenodd" clip-rule="evenodd" d="M266.557 74.1481C266.913 74.1481 267.202 74.4369 267.202 74.7932C267.202 75.1368 266.934 75.4176 266.595 75.4373L266.557 75.4384H250.768C250.412 75.4384 250.123 75.1495 250.123 74.7932C250.123 74.4496 250.392 74.1688 250.73 74.1492L250.768 74.1481H266.557Z" fill="white"/>
<path fill-rule="evenodd" clip-rule="evenodd" d="M266.557 77.6685C266.913 77.6685 267.202 77.9573 267.202 78.3136C267.202 78.6572 266.934 78.938 266.595 78.9576L266.557 78.9587H250.768C250.412 78.9587 250.123 78.6699 250.123 78.3136C250.123 77.97 250.392 77.6892 250.73 77.6696L250.768 77.6685H266.557Z" fill="white"/>
<path fill-rule="evenodd" clip-rule="evenodd" d="M283.322 75.5567C283.678 75.5567 283.967 75.8455 283.967 76.2018C283.967 76.5454 283.698 76.8263 283.36 76.8459L283.322 76.847H276.012C275.656 76.847 275.367 76.5581 275.367 76.2018C275.367 75.8583 275.636 75.5774 275.974 75.5578L276.012 75.5567H283.322Z" fill="white"/>
<path fill-rule="evenodd" clip-rule="evenodd" d="M266.557 87.5521C266.913 87.5521 267.202 87.8409 267.202 88.1972C267.202 88.5408 266.934 88.8216 266.595 88.8413L266.557 88.8423H250.768C250.412 88.8423 250.123 88.5535 250.123 88.1972C250.123 87.8536 250.392 87.5728 250.73 87.5532L250.768 87.5521H266.557Z" fill="white"/>
<path fill-rule="evenodd" clip-rule="evenodd" d="M266.557 91.0724C266.913 91.0724 267.202 91.3612 267.202 91.7175C267.202 92.0611 266.934 92.342 266.595 92.3616L266.557 92.3627H250.768C250.412 92.3627 250.123 92.0738 250.123 91.7175C250.123 91.374 250.392 91.0931 250.73 91.0735L250.768 91.0724H266.557Z" fill="white"/>
<path fill-rule="evenodd" clip-rule="evenodd" d="M283.322 88.9606C283.678 88.9606 283.967 89.2495 283.967 89.6058C283.967 89.9494 283.698 90.2302 283.36 90.2498L283.322 90.2509H276.012C275.656 90.2509 275.367 89.9621 275.367 89.6058C275.367 89.2622 275.636 88.9813 275.974 88.9617L276.012 88.9606H283.322Z" fill="white"/>
<path fill-rule="evenodd" clip-rule="evenodd" d="M266.557 100.956C266.913 100.956 267.202 101.245 267.202 101.601C267.202 101.945 266.934 102.226 266.595 102.245L266.557 102.246H250.768C250.412 102.246 250.123 101.957 250.123 101.601C250.123 101.258 250.392 100.977 250.73 100.957L250.768 100.956H266.557Z" fill="white"/>
<path fill-rule="evenodd" clip-rule="evenodd" d="M266.557 104.476C266.913 104.476 267.202 104.765 267.202 105.121C267.202 105.465 266.934 105.746 266.595 105.766L266.557 105.767H250.768C250.412 105.767 250.123 105.478 250.123 105.121C250.123 104.778 250.392 104.497 250.73 104.477L250.768 104.476H266.557Z" fill="white"/>
<path fill-rule="evenodd" clip-rule="evenodd" d="M283.322 102.365C283.678 102.365 283.967 102.653 283.967 103.01C283.967 103.353 283.698 103.634 283.36 103.654L283.322 103.655H276.012C275.656 103.655 275.367 103.366 275.367 103.01C275.367 102.666 275.636 102.385 275.974 102.366L276.012 102.365H283.322Z" fill="white"/>
<path fill-rule="evenodd" clip-rule="evenodd" d="M266.557 114.36C266.913 114.36 267.202 114.649 267.202 115.005C267.202 115.349 266.934 115.629 266.595 115.649L266.557 115.65H250.768C250.412 115.65 250.123 115.361 250.123 115.005C250.123 114.661 250.392 114.381 250.73 114.361L250.768 114.36H266.557Z" fill="white"/>
<path fill-rule="evenodd" clip-rule="evenodd" d="M266.557 117.88C266.913 117.88 267.202 118.169 267.202 118.525C267.202 118.869 266.934 119.15 266.595 119.169L266.557 119.17H250.768C250.412 119.17 250.123 118.882 250.123 118.525C250.123 118.182 250.392 117.901 250.73 117.881L250.768 117.88H266.557Z" fill="white"/>
<path fill-rule="evenodd" clip-rule="evenodd" d="M283.322 115.768C283.678 115.768 283.967 116.057 283.967 116.414C283.967 116.757 283.698 117.038 283.36 117.058L283.322 117.059H276.012C275.656 117.059 275.367 116.77 275.367 116.414C275.367 116.07 275.636 115.789 275.974 115.77L276.012 115.768H283.322Z" fill="white"/>
<path fill-rule="evenodd" clip-rule="evenodd" d="M278.073 61.8797C278.429 61.8797 278.718 62.1685 278.718 62.5248C278.718 62.8684 278.449 63.1493 278.111 63.1689L278.073 63.17H250.768C250.412 63.17 250.123 62.8811 250.123 62.5248C250.123 62.1813 250.392 61.9004 250.73 61.8808L250.768 61.8797H278.073Z" fill="white"/>
<path fill-rule="evenodd" clip-rule="evenodd" d="M256.802 66.1031C257.159 66.1031 257.448 66.392 257.448 66.7483C257.448 67.0919 257.179 67.3727 256.84 67.3923L256.802 67.3934H250.768C250.412 67.3934 250.123 67.1046 250.123 66.7483C250.123 66.4047 250.392 66.1239 250.73 66.1042L250.768 66.1031H256.802Z" fill="white"/>
<path fill-rule="evenodd" clip-rule="evenodd" d="M283.322 66.1031C283.678 66.1031 283.967 66.392 283.967 66.7483C283.967 67.0919 283.698 67.3727 283.36 67.3923L283.322 67.3934H261.178C260.822 67.3934 260.533 67.1046 260.533 66.7483C260.533 66.4047 260.802 66.1239 261.14 66.1042L261.178 66.1031H283.322Z" fill="white"/>
<path fill-rule="evenodd" clip-rule="evenodd" d="M223.435 41.5813C223.791 41.5813 224.08 41.8701 224.08 42.2264C224.08 42.57 223.811 42.8509 223.473 42.8705L223.435 42.8716H184.589C184.232 42.8716 183.943 42.5827 183.943 42.2264C183.943 41.8829 184.212 41.602 184.551 41.5824L184.589 41.5813H223.435Z" fill="white"/>
<path fill-rule="evenodd" clip-rule="evenodd" d="M178.38 41.5813C178.736 41.5813 179.025 41.8701 179.025 42.2264C179.025 42.57 178.756 42.8509 178.418 42.8705L178.38 42.8716H149.817C149.461 42.8716 149.172 42.5827 149.172 42.2264C149.172 41.8829 149.44 41.602 149.779 41.5824L149.817 41.5813H178.38Z" fill="white"/>
<path fill-rule="evenodd" clip-rule="evenodd" d="M143.983 41.5813C144.339 41.5813 144.628 41.8701 144.628 42.2264C144.628 42.57 144.36 42.8509 144.021 42.8705L143.983 42.8716H127.489C127.133 42.8716 126.844 42.5827 126.844 42.2264C126.844 41.8829 127.112 41.602 127.451 41.5824L127.489 41.5813H143.983Z" fill="white"/>
<path fill-rule="evenodd" clip-rule="evenodd" d="M161.685 45.7145C162.041 45.7145 162.33 46.0034 162.33 46.3597C162.33 46.7033 162.062 46.9841 161.723 47.0037L161.685 47.0048H142.778C142.422 47.0048 142.133 46.716 142.133 46.3597C142.133 46.0161 142.401 45.7353 142.74 45.7156L142.778 45.7145H161.685Z" fill="white"/>
<path fill-rule="evenodd" clip-rule="evenodd" d="M209.709 45.7145C210.065 45.7145 210.354 46.0034 210.354 46.3597C210.354 46.7033 210.085 46.9841 209.746 47.0037L209.709 47.0048H167.794C167.437 47.0048 167.148 46.716 167.148 46.3597C167.148 46.0161 167.417 45.7353 167.756 45.7156L167.794 45.7145H209.709Z" fill="white"/>
<path fill-rule="evenodd" clip-rule="evenodd" d="M190.703 49.7101C191.059 49.7101 191.348 49.9989 191.348 50.3552C191.348 50.6988 191.079 50.9797 190.741 50.9993L190.703 51.0004H180.626C180.269 51.0004 179.98 50.7115 179.98 50.3552C179.98 50.0116 180.249 49.7308 180.588 49.7112L180.626 49.7101H190.703Z" fill="white"/>
<path fill-rule="evenodd" clip-rule="evenodd" d="M216.998 49.7101C217.354 49.7101 217.643 49.9989 217.643 50.3552C217.643 50.6988 217.375 50.9797 217.036 50.9993L216.998 51.0004H197.085C196.728 51.0004 196.439 50.7115 196.439 50.3552C196.439 50.0116 196.708 49.7308 197.047 49.7112L197.085 49.7101H216.998Z" fill="white"/>
<path fill-rule="evenodd" clip-rule="evenodd" d="M141.641 64.1413C141.865 63.8639 142.271 63.8204 142.548 64.0441C142.815 64.2592 142.866 64.643 142.67 64.9187L142.646 64.9513L138.854 69.6522C138.631 69.9296 138.225 69.9731 137.947 69.7494C137.681 69.5343 137.63 69.1505 137.825 68.8748L137.85 68.8422L141.641 64.1413Z" fill="#F95C5E"/>
<path fill-rule="evenodd" clip-rule="evenodd" d="M226.082 90.0488C226.438 90.0488 226.727 90.3377 226.727 90.694C226.727 91.0375 226.458 91.3184 226.12 91.338L226.082 91.3391H192.485C192.129 91.3391 191.84 91.0503 191.84 90.694C191.84 90.3504 192.108 90.0695 192.447 90.0499L192.485 90.0488H226.082Z" fill="#F95C5E"/>
<path fill-rule="evenodd" clip-rule="evenodd" d="M226.029 106.773C226.385 106.773 226.674 107.062 226.674 107.418C226.674 107.762 226.406 108.043 226.067 108.062L226.029 108.063H192.54C192.183 108.063 191.895 107.775 191.895 107.418C191.895 107.075 192.163 106.794 192.502 106.774L192.54 106.773H226.029Z" fill="#F95C5E"/>
<path fill-rule="evenodd" clip-rule="evenodd" d="M226.029 123.499C226.385 123.499 226.674 123.788 226.674 124.145C226.674 124.488 226.406 124.769 226.067 124.789L226.029 124.79H192.54C192.183 124.79 191.895 124.501 191.895 124.145C191.895 123.801 192.163 123.52 192.502 123.501L192.54 123.499H226.029Z" fill="#F95C5E"/>
<path fill-rule="evenodd" clip-rule="evenodd" d="M207.075 64.1411C207.299 63.8639 207.705 63.8205 207.982 64.0442C208.249 64.2594 208.299 64.6432 208.104 64.9189L208.079 64.9514L204.286 69.6524C204.062 69.9297 203.656 69.9731 203.379 69.7493C203.112 69.5341 203.062 69.1503 203.257 68.8746L203.282 68.8421L207.075 64.1411Z" fill="#F95C5E"/>
<path fill-rule="evenodd" clip-rule="evenodd" d="M272.995 72.8407C273.338 72.8407 273.619 73.1093 273.639 73.4479L273.64 73.4858V78.2728H279.029C279.373 78.2728 279.653 78.5414 279.673 78.88L279.674 78.9179C279.674 79.2615 279.406 79.5424 279.067 79.562L279.029 79.5631H272.995C272.651 79.5631 272.37 79.2945 272.351 78.9559L272.35 78.9179V73.4858C272.35 73.1295 272.638 72.8407 272.995 72.8407Z" fill="#F95C5E"/>
<path fill-rule="evenodd" clip-rule="evenodd" d="M286.338 72.8407C286.681 72.8407 286.962 73.1093 286.982 73.4479L286.983 73.4858V78.9179C286.983 79.2743 286.694 79.5631 286.338 79.5631C285.994 79.5631 285.713 79.2945 285.694 78.9559L285.692 78.9179V74.131H280.303C279.96 74.131 279.679 73.8624 279.659 73.5237L279.658 73.4858C279.658 73.1423 279.927 72.8614 280.265 72.8418L280.303 72.8407H286.338Z" fill="#F95C5E"/>
<path fill-rule="evenodd" clip-rule="evenodd" d="M272.995 86.2447C273.338 86.2447 273.619 86.5133 273.639 86.8519L273.64 86.8898V91.6746H279.029C279.373 91.6746 279.653 91.9432 279.673 92.2819L279.674 92.3198C279.674 92.6634 279.406 92.9442 279.067 92.9638L279.029 92.9649H272.995C272.651 92.9649 272.37 92.6964 272.351 92.3577L272.35 92.3198V86.8898C272.35 86.5335 272.638 86.2447 272.995 86.2447Z" fill="#F95C5E"/>
<path fill-rule="evenodd" clip-rule="evenodd" d="M286.338 86.2447C286.681 86.2447 286.962 86.5133 286.982 86.8519L286.983 86.8898V92.3198C286.983 92.6761 286.694 92.9649 286.338 92.9649C285.994 92.9649 285.713 92.6964 285.694 92.3577L285.692 92.3198V87.535H280.303C279.96 87.535 279.679 87.2664 279.659 86.9277L279.658 86.8898C279.658 86.5463 279.927 86.2654 280.265 86.2458L280.303 86.2447H286.338Z" fill="#F95C5E"/>
<path fill-rule="evenodd" clip-rule="evenodd" d="M272.995 99.6486C273.338 99.6486 273.619 99.9171 273.639 100.256L273.64 100.294V105.078L279.029 105.079C279.373 105.079 279.653 105.347 279.673 105.686L279.674 105.724C279.674 106.067 279.406 106.348 279.067 106.368L279.029 106.369H272.995C272.651 106.369 272.37 106.1 272.351 105.762L272.35 105.724V100.294C272.35 99.9374 272.638 99.6486 272.995 99.6486Z" fill="#F95C5E"/>
<path fill-rule="evenodd" clip-rule="evenodd" d="M286.338 99.6486C286.681 99.6486 286.962 99.9171 286.982 100.256L286.983 100.294V105.724C286.983 106.08 286.694 106.369 286.338 106.369C285.994 106.369 285.713 106.1 285.694 105.762L285.692 105.724V100.939L280.303 100.939C279.96 100.939 279.679 100.67 279.659 100.332L279.658 100.294C279.658 99.9501 279.927 99.6693 280.265 99.6497L280.303 99.6486H286.338Z" fill="#F95C5E"/>
<path fill-rule="evenodd" clip-rule="evenodd" d="M272.995 113.052C273.338 113.052 273.619 113.321 273.639 113.66L273.64 113.698V118.482H279.029C279.373 118.482 279.653 118.751 279.673 119.09L279.674 119.128C279.674 119.471 279.406 119.752 279.067 119.772L279.029 119.773H272.995C272.651 119.773 272.37 119.504 272.351 119.165L272.35 119.128V113.698C272.35 113.341 272.638 113.052 272.995 113.052Z" fill="#F95C5E"/>
<path fill-rule="evenodd" clip-rule="evenodd" d="M286.338 113.052C286.681 113.052 286.962 113.321 286.982 113.66L286.983 113.698V119.128C286.983 119.484 286.694 119.773 286.338 119.773C285.994 119.773 285.713 119.504 285.694 119.165L285.692 119.128V114.343H280.303C279.96 114.343 279.679 114.074 279.659 113.736L279.658 113.698C279.658 113.354 279.927 113.073 280.265 113.054L280.303 113.052H286.338Z" fill="#F95C5E"/>
<path fill-rule="evenodd" clip-rule="evenodd" d="M289.884 48.4631C290.069 48.1586 290.466 48.062 290.77 48.2471L290.841 48.2915C290.854 48.2996 290.867 48.308 290.88 48.3168L290.965 48.3734L291.059 48.4382L291.161 48.5112L291.271 48.5924L291.389 48.6819C291.429 48.713 291.471 48.7456 291.514 48.7795L291.646 48.8855C291.669 48.9039 291.692 48.9226 291.715 48.9416C292.4 49.5061 293.084 50.1873 293.722 50.988C295.547 53.2784 296.645 56.0751 296.645 59.379C296.645 63.5772 294.855 68.2736 290.951 73.4732C290.638 73.8892 289.993 73.7812 289.826 73.2996L289.815 73.2627L289.169 71.0004C289.072 70.6578 289.27 70.3008 289.613 70.2031C289.943 70.1089 290.287 70.2901 290.399 70.6104L290.41 70.6466L290.692 71.6355L290.714 71.6046C290.897 71.3433 291.075 71.0836 291.247 70.8255L291.451 70.5165C294.096 66.4577 295.324 62.7906 295.354 59.5022L295.354 59.379C295.354 56.3861 294.365 53.8658 292.713 51.7921C292.134 51.0654 291.513 50.4473 290.894 49.9375C290.706 49.7826 290.531 49.648 290.371 49.5339L290.271 49.4632L290.187 49.406L290.1 49.3495C289.795 49.1644 289.699 48.7675 289.884 48.4631Z" fill="#F95C5E"/>
<path fill-rule="evenodd" clip-rule="evenodd" d="M291.918 72.4191L292.291 72.4191L292.541 72.4211L292.767 72.425L292.902 72.4288L293.082 72.4361L293.186 72.4421C293.541 72.4661 293.81 72.7736 293.786 73.1291C293.762 73.4846 293.454 73.7534 293.099 73.7295L292.966 73.7224L292.806 73.7168L292.553 73.7117L292.257 73.7093L291.923 73.7094L291.555 73.712L291.173 73.7168L290.444 73.7308C290.088 73.7397 289.792 73.4582 289.783 73.102C289.775 72.7458 290.056 72.4498 290.412 72.4409L290.853 72.4316L291.155 72.4266L291.543 72.4218L291.918 72.4191Z" fill="#F95C5E"/>
<rect x="261.58" y="44.8027" width="24.5821" height="7.99117" rx="3.99559" fill="#F95C5E"/>
<path fill-rule="evenodd" clip-rule="evenodd" d="M167.315 99.1474C166.842 97.9023 165.225 97.4507 163.73 97.341C163.79 97.2915 163.853 97.2421 163.915 97.1883C166.442 95.055 164.633 92.3003 163.743 92.8873C163.049 93.3411 162.171 95.2378 157.87 96.0507C153.569 96.8636 148.756 102.732 148.756 102.732L137.023 110.766L145.548 116.457L153.29 110.412C154.75 110.741 159.666 110.145 160.816 110.102C161.967 110.059 161.986 109.457 164.203 108.014C166.42 106.571 165.479 104.573 165.479 104.573C165.479 104.573 165.367 104.233 165.193 103.792C165.687 103.212 166.1 102.566 166.42 101.874C167.343 101.496 167.872 100.614 167.315 99.1474Z" fill="white"/>
<path fill-rule="evenodd" clip-rule="evenodd" d="M163.43 92.3215L163.389 92.3472L163.374 92.3585L163.336 92.3918L163.182 92.5356L162.798 92.8986L162.54 93.1376L162.352 93.3087L162.21 93.4347C162.186 93.4555 162.163 93.4763 162.139 93.4969L161.998 93.6183C161.787 93.7967 161.585 93.9562 161.417 94.0654C160.506 94.659 159.327 95.1186 157.749 95.4168C157.305 95.5006 156.851 95.6341 156.386 95.8139C154.872 96.4 153.285 97.4598 151.674 98.8576C150.801 99.6149 149.975 100.424 149.221 101.234L149.029 101.443L148.847 101.644C148.788 101.709 148.731 101.773 148.675 101.836L148.473 102.067L148.317 102.25L136.658 110.234C136.281 110.492 136.284 111.049 136.664 111.303L145.188 116.993L145.226 117.016C145.452 117.146 145.736 117.127 145.944 116.965L153.461 111.095L153.463 111.096C153.526 111.104 153.592 111.112 153.662 111.118L153.804 111.13L153.955 111.14C154.007 111.143 154.06 111.145 154.115 111.147L154.283 111.152C154.34 111.154 154.399 111.155 154.459 111.155L154.644 111.156C154.675 111.156 154.707 111.156 154.739 111.156L154.936 111.154L155.142 111.15L155.467 111.14L155.694 111.131L155.93 111.12L156.175 111.107L156.557 111.084L156.824 111.067L157.213 111.04L157.772 110.997L158.733 110.917L160.094 110.799L160.545 110.764L160.745 110.751L160.839 110.747C161.322 110.729 161.69 110.625 162.056 110.408L162.079 110.393L162.13 110.356L162.26 110.259L163.006 109.682L163.452 109.342L163.741 109.127L163.913 109.001L164.082 108.879L164.3 108.725L164.404 108.654L164.554 108.554C165.082 108.211 165.488 107.816 165.78 107.377C166.369 106.49 166.436 105.545 166.198 104.686L166.182 104.63C166.15 104.522 166.118 104.431 166.089 104.361L166.08 104.34L166.038 104.219L165.976 104.044L165.927 103.91L165.991 103.827C166.323 103.392 166.614 102.928 166.861 102.44L166.9 102.362L166.903 102.361C168.086 101.75 168.512 100.485 167.917 98.9183L167.89 98.8501C167.473 97.8355 166.512 97.2163 165.2 96.907L165.092 96.8823L165.121 96.8435C165.814 95.9011 166.008 94.8342 165.73 93.8433C165.39 92.6318 164.348 91.7637 163.43 92.3215ZM164.048 93.4798L164.051 93.482C164.063 93.4899 164.075 93.4995 164.089 93.5108C164.248 93.6409 164.402 93.8896 164.487 94.192C164.708 94.9818 164.442 95.8661 163.559 96.6414L163.434 96.7477L163.318 96.8424C162.868 97.2121 163.099 97.9417 163.68 97.9843C165.296 98.1029 166.409 98.5858 166.709 99.3765C167.101 100.408 166.871 100.991 166.173 101.277C166.022 101.339 165.9 101.456 165.832 101.603C165.536 102.242 165.155 102.838 164.699 103.374C164.544 103.556 164.502 103.808 164.59 104.029L164.663 104.217L164.73 104.396L164.79 104.564L164.863 104.775L164.876 104.812L164.9 104.867L164.904 104.878C164.92 104.921 164.937 104.972 164.953 105.03C165.099 105.559 165.059 106.127 164.703 106.664C164.525 106.931 164.272 107.184 163.929 107.419L163.695 107.575L163.589 107.647L163.426 107.76L163.204 107.918L163.092 108L162.812 108.206L162.593 108.371L162.229 108.648L161.415 109.285L161.395 109.299C161.234 109.395 161.087 109.44 160.85 109.454L160.644 109.464L160.416 109.479L159.919 109.518L158.265 109.662L157.813 109.699L157.254 109.743L156.868 109.771L156.532 109.793L156.21 109.812L155.903 109.829L155.61 109.842L155.422 109.849L155.154 109.858L154.984 109.862L154.741 109.865L154.589 109.865L154.443 109.864L154.304 109.862L154.173 109.858L154.049 109.853L153.932 109.846L153.823 109.838C153.806 109.836 153.789 109.835 153.772 109.833L153.674 109.823C153.659 109.821 153.643 109.819 153.628 109.817L153.543 109.804C153.502 109.797 153.464 109.79 153.429 109.782L153.385 109.774C153.21 109.747 153.03 109.793 152.89 109.903L145.515 115.661L138.172 110.759L149.118 103.264C149.168 103.23 149.214 103.188 149.252 103.141L149.375 102.995L149.488 102.864L149.563 102.778L149.722 102.599C149.749 102.568 149.777 102.537 149.805 102.506L149.979 102.314L150.164 102.113C150.889 101.335 151.682 100.557 152.518 99.8323C154.026 98.5235 155.498 97.5406 156.85 97.0171C157.244 96.8646 157.624 96.7532 157.987 96.6846C159.726 96.3559 161.064 95.8347 162.12 95.1463C162.318 95.0171 162.54 94.8472 162.761 94.6645L162.908 94.5411C162.933 94.5203 162.957 94.4994 162.981 94.4785L163.125 94.3529L163.265 94.228L163.399 94.1058L163.526 93.9881L163.645 93.8766L163.752 93.7733L163.892 93.6376L164.004 93.5255L164.048 93.4798Z" fill="#000091"/>
<path fill-rule="evenodd" clip-rule="evenodd" d="M159.873 97.1883C160.021 97.2055 172.174 91.382 176.432 89.3455C177.05 89.0502 177.791 89.2795 178.135 89.8724C178.32 90.1913 178.363 90.5733 178.253 90.9253C178.143 91.2773 177.89 91.567 177.556 91.7239L165.621 97.3453L159.873 97.1883Z" fill="#F95C5E"/>
<path fill-rule="evenodd" clip-rule="evenodd" d="M157.916 101.544C158.082 101.229 158.473 101.109 158.788 101.276C159.103 101.443 159.223 101.833 159.056 102.148C158.936 102.375 158.798 102.591 158.642 102.799C158.033 103.597 156.768 104.447 155.828 104.589C154.694 104.761 153.098 104.674 152.163 104.282C151.835 104.144 151.68 103.766 151.818 103.437C151.951 103.121 152.307 102.966 152.627 103.078L152.662 103.092C153.344 103.378 154.715 103.453 155.634 103.314C156.214 103.226 157.197 102.566 157.614 102.019C157.727 101.869 157.828 101.71 157.916 101.544Z" fill="#000091"/>
<path fill-rule="evenodd" clip-rule="evenodd" d="M166.635 97.4671C166.942 97.6482 167.044 98.0438 166.863 98.3506C166.681 98.6575 166.286 98.7594 165.979 98.5783C165.239 98.1418 164.06 97.9384 162.771 97.9557L162.391 97.9644L162.145 97.9719L161.918 97.9811L161.776 97.9882L161.579 98.0007L161.457 98.0103C161.437 98.012 161.418 98.0137 161.399 98.0155L161.288 98.0268L161.184 98.0392C161.167 98.0414 161.15 98.0436 161.134 98.0459L161.04 98.0603L160.952 98.076L160.871 98.0932L160.796 98.1119L160.726 98.1322C160.425 98.2272 160.293 98.3726 160.239 98.5974L160.229 98.6487C160.227 98.6575 160.225 98.6663 160.224 98.6753C160.213 98.7371 160.236 98.7999 160.284 98.8399C160.559 99.0673 160.597 99.474 160.369 99.7483C160.142 100.023 159.735 100.061 159.461 99.8334C159.055 99.497 158.861 98.9685 158.951 98.4635C159.077 97.6549 159.572 97.1402 160.347 96.8973L160.436 96.8703C160.481 96.8574 160.526 96.8455 160.571 96.8343L160.662 96.813L160.755 96.7939L160.851 96.7766L160.95 96.7611L161.055 96.7473L161.165 96.735L161.342 96.7191L161.469 96.7099L161.606 96.7019L161.751 96.6947L161.99 96.6853L162.349 96.6747L162.618 96.6681C164.175 96.6308 165.62 96.8684 166.635 97.4671Z" fill="#000091"/>
<path fill-rule="evenodd" clip-rule="evenodd" d="M164.383 99.1516L164.561 99.2102C165.882 99.6553 166.801 100.234 167.028 100.993C167.13 101.334 166.936 101.693 166.595 101.796C166.253 101.898 165.894 101.704 165.792 101.362C165.769 101.287 165.608 101.126 165.311 100.947C164.974 100.745 164.514 100.548 163.99 100.381C162.98 100.058 161.88 99.8943 161.391 99.9753L160.928 100.048L160.27 100.15L160.076 100.181L159.894 100.212L159.726 100.242L159.568 100.271C159.543 100.276 159.518 100.281 159.494 100.286L159.352 100.316C159.33 100.321 159.307 100.326 159.285 100.331L159.158 100.36L159.04 100.391L158.929 100.421C158.779 100.465 158.66 100.509 158.578 100.55L158.542 100.569L158.538 100.589C158.526 100.673 158.533 100.783 158.568 100.885L158.582 100.923C158.66 101.108 158.824 101.253 159.122 101.341L159.18 101.356C159.525 101.444 159.734 101.795 159.646 102.141C159.558 102.486 159.207 102.695 158.862 102.607C157.481 102.256 156.946 100.977 157.379 99.988C157.522 99.6631 157.772 99.4513 158.208 99.2856L158.305 99.2508L158.407 99.2173C158.425 99.2118 158.443 99.2063 158.461 99.2009L158.572 99.169C158.592 99.1638 158.611 99.1586 158.631 99.1534L158.752 99.1228L158.88 99.0928L159.014 99.0634L159.156 99.0344L159.305 99.0057L159.541 98.9626L159.709 98.9338L160.135 98.8646L161.06 98.7218L161.18 98.7023C161.911 98.5813 163.195 98.7724 164.383 99.1516Z" fill="#000091"/>
<path fill-rule="evenodd" clip-rule="evenodd" d="M158.37 102.48C158.517 101.592 159.309 100.866 160.229 100.894L160.429 100.905L160.525 100.908L160.629 100.911L160.743 100.913L160.942 100.914L161.84 100.909L162.129 100.91L162.31 100.912L162.484 100.915C162.513 100.916 162.541 100.917 162.568 100.918L162.731 100.923C162.757 100.925 162.783 100.926 162.809 100.927L162.961 100.936C162.985 100.937 163.01 100.939 163.034 100.941L163.175 100.952C163.909 101.019 164.36 101.179 164.693 101.52C164.948 101.782 165.194 102.192 165.439 102.719L165.516 102.889C165.529 102.918 165.542 102.948 165.555 102.977L165.633 103.159L165.711 103.348L165.789 103.544C165.919 103.876 165.755 104.25 165.423 104.38C165.092 104.51 164.717 104.347 164.587 104.015L164.525 103.859L164.463 103.708L164.401 103.562L164.34 103.422L164.279 103.288C164.259 103.245 164.239 103.202 164.219 103.161L164.16 103.041L164.102 102.929C164.083 102.893 164.064 102.859 164.045 102.825L163.99 102.73C163.909 102.594 163.835 102.488 163.769 102.421C163.727 102.378 163.633 102.339 163.489 102.307L163.413 102.292L163.328 102.277C163.313 102.275 163.298 102.272 163.283 102.27L163.185 102.258L163.08 102.246L162.966 102.236L162.843 102.227L162.712 102.219L162.573 102.212L162.426 102.207L162.27 102.203L162.105 102.201L161.933 102.199L161.039 102.204L160.777 102.203L160.646 102.202L160.527 102.199L160.362 102.193L160.203 102.185C159.956 102.169 159.69 102.408 159.643 102.69C159.604 102.929 159.744 103.09 160.292 103.13L160.349 103.133L162.48 103.251C162.721 103.265 162.934 103.412 163.033 103.632L163.13 103.843L163.191 103.974C163.314 104.232 163.443 104.49 163.57 104.73L163.655 104.887C163.697 104.963 163.738 105.035 163.777 105.103L163.857 105.235L163.907 105.314L163.953 105.385L164.015 105.475L164.066 105.544L164.092 105.576C164.104 105.59 164.113 105.599 164.119 105.603C164.405 105.816 164.465 106.22 164.252 106.506C164.04 106.792 163.636 106.852 163.35 106.639C163.124 106.472 162.915 106.184 162.664 105.754C162.588 105.625 162.511 105.485 162.431 105.336C162.321 105.129 162.211 104.912 162.105 104.693L162.021 104.518L160.277 104.421C158.977 104.349 158.223 103.556 158.362 102.533L158.37 102.48Z" fill="#000091"/>
<path fill-rule="evenodd" clip-rule="evenodd" d="M158.265 101.33C158.55 101.116 158.955 101.174 159.169 101.459C159.374 101.733 159.329 102.117 159.072 102.336L159.037 102.365L159.021 102.381L158.997 102.41L158.966 102.451C158.96 102.459 158.955 102.467 158.949 102.476C158.769 102.747 158.74 103.104 159.005 103.639C159.852 105.347 160.302 107.045 160.103 108.314C160.048 108.666 159.718 108.906 159.366 108.851C159.026 108.798 158.79 108.489 158.823 108.151L158.828 108.114C158.976 107.168 158.589 105.703 157.849 104.212C157.375 103.257 157.444 102.411 157.873 101.763C158.008 101.559 158.15 101.417 158.265 101.33Z" fill="#000091"/>
<path fill-rule="evenodd" clip-rule="evenodd" d="M160.956 103.493C161.149 103.193 161.548 103.107 161.848 103.299C162.137 103.485 162.228 103.862 162.062 104.157L162.042 104.191C161.58 104.909 161.609 105.837 162.114 106.525C162.324 106.812 162.263 107.215 161.975 107.426C161.688 107.637 161.284 107.575 161.074 107.288C160.252 106.169 160.206 104.66 160.956 103.493Z" fill="#000091"/>
<path fill-rule="evenodd" clip-rule="evenodd" d="M67.7237 94.7325C67.7237 94.7325 61.7604 96.5991 57.0336 98.1733C54.3731 99.05 52.237 101.059 51.1994 103.661C47.7586 112.364 45.0662 128.512 44.9953 132.848C44.9114 137.933 45.2942 156.593 63.1238 145.047L63.141 145.067C59.7239 150.761 54.2595 162.214 54.2595 162.214H111.66C111.66 162.214 99.4991 137.106 100.845 137.106C111.058 130.484 107.987 114.88 107.987 114.88C107.987 114.88 119.619 129.489 124.782 130.435C132.094 131.777 151.115 117.293 151.115 117.293L144.644 104.414C144.644 104.414 126.718 113.169 127.021 113.255C127.799 113.47 110.74 92.41 105.796 91.8229C102.121 91.4002 98.4103 91.4002 94.7358 91.8229L67.7237 94.7325Z" fill="#F95C5E"/>
<path fill-rule="evenodd" clip-rule="evenodd" d="M102.903 116.383C103.259 116.383 103.548 116.672 103.548 117.029C103.548 117.372 103.279 117.653 102.941 117.673L102.903 117.674H99.2213C98.865 117.674 98.5762 117.385 98.5762 117.029C98.5762 116.685 98.8447 116.404 99.1834 116.385L99.2213 116.383H102.903Z" fill="#000091"/>
<path fill-rule="evenodd" clip-rule="evenodd" d="M103.268 119.106C103.624 119.106 103.913 119.395 103.913 119.751C103.913 120.095 103.645 120.376 103.306 120.395L103.268 120.396H99.5865C99.2302 120.396 98.9414 120.107 98.9414 119.751C98.9414 119.408 99.21 119.127 99.5486 119.107L99.5865 119.106H103.268Z" fill="#000091"/>
<path fill-rule="evenodd" clip-rule="evenodd" d="M106.06 102.376C106.398 102.263 106.763 102.446 106.876 102.784L106.918 102.914L106.961 103.055C106.968 103.08 106.976 103.104 106.983 103.13L107.027 103.287L107.071 103.453L107.116 103.63L107.184 103.911L107.23 104.11L107.299 104.423L107.346 104.641L107.392 104.867L107.439 105.099L107.485 105.338L107.532 105.583L107.601 105.961L107.67 106.351L107.738 106.751L107.782 107.023L107.826 107.298L107.891 107.717L107.934 108L107.976 108.285L108.016 108.572L108.076 109.005L108.115 109.295L108.17 109.73L108.223 110.166L108.257 110.456L108.289 110.745L108.32 111.032L108.35 111.318L108.391 111.743L108.429 112.161L108.463 112.572L108.492 112.974L108.51 113.237L108.525 113.495L108.538 113.748L108.549 113.995L108.558 114.236C108.559 114.276 108.56 114.315 108.561 114.354L108.567 114.586C108.568 114.662 108.569 114.737 108.57 114.811C108.573 115.167 108.286 115.458 107.93 115.461C107.573 115.464 107.282 115.177 107.28 114.821C107.276 114.427 107.261 113.996 107.235 113.538L107.214 113.19L107.189 112.833L107.16 112.468C107.155 112.406 107.15 112.344 107.144 112.282L107.111 111.908C107.099 111.782 107.087 111.655 107.074 111.527L107.035 111.143L106.992 110.755L106.947 110.365L106.9 109.973L106.851 109.581C106.834 109.451 106.817 109.321 106.799 109.19L106.743 108.78L106.688 108.392L106.612 107.881L106.553 107.505L106.474 107.012L106.393 106.533L106.331 106.185L106.269 105.846L106.228 105.627L106.166 105.308L106.084 104.902L106.022 104.615L105.961 104.343L105.921 104.17L105.881 104.006L105.842 103.849L105.803 103.7L105.764 103.56C105.758 103.537 105.751 103.515 105.745 103.493L105.708 103.366L105.671 103.248C105.665 103.229 105.659 103.211 105.653 103.193C105.54 102.855 105.722 102.489 106.06 102.376Z" fill="#000091"/>
<path fill-rule="evenodd" clip-rule="evenodd" d="M93.9807 108.285C94.3216 108.181 94.6821 108.373 94.7859 108.714L94.8622 108.966L95.0114 109.465C95.0358 109.548 95.0601 109.631 95.0842 109.713L95.2266 110.205C95.32 110.532 95.4105 110.855 95.4979 111.175L95.6268 111.652C95.6479 111.732 95.6688 111.81 95.6896 111.889L95.8118 112.36L95.9296 112.825C96.0067 113.134 96.0808 113.44 96.1519 113.742L96.2565 114.194L96.3567 114.641C96.373 114.715 96.3892 114.789 96.4052 114.863L96.4988 115.303C96.5598 115.595 96.6179 115.884 96.6732 116.169L96.7539 116.596C97.618 121.264 97.7034 125.128 97.1026 128.385C96.425 132.059 95.0845 134.588 92.5757 137.678L92.409 137.882L95.6997 155.337L96.9768 162.099C97.043 162.449 96.8128 162.786 96.4627 162.853C96.1251 162.916 95.7992 162.705 95.7171 162.376L94.9584 158.365L91.6959 141.072L91.0852 137.822C91.0499 137.633 91.1006 137.438 91.2236 137.29C91.3442 137.146 91.4621 137.002 91.5773 136.86L91.8042 136.578C94.038 133.775 95.222 131.467 95.8337 128.151C96.4415 124.855 96.3083 120.865 95.314 115.945L95.2266 115.521L95.1351 115.093C95.1195 115.021 95.1037 114.949 95.0877 114.877L94.9897 114.441C94.9397 114.222 94.888 114.002 94.8348 113.779L94.7261 113.332C94.6891 113.182 94.6515 113.032 94.6131 112.88L94.4958 112.423C94.4758 112.347 94.4557 112.27 94.4355 112.193L94.3116 111.729C94.2696 111.574 94.2268 111.418 94.1833 111.261L94.0507 110.787L93.9137 110.308C93.8904 110.228 93.8671 110.148 93.8435 110.067L93.6998 109.581L93.5516 109.09C93.4478 108.749 93.6399 108.389 93.9807 108.285Z" fill="#000091"/>
<path fill-rule="evenodd" clip-rule="evenodd" d="M71.5316 152.354C69.0005 152.354 67.1877 151.58 66.1447 150.049C64.0695 147.004 65.9404 142.144 66.0221 141.938C66.1192 141.691 66.3572 141.529 66.6221 141.529H79.3336C79.6511 141.524 79.9248 141.751 79.9787 142.064C80.011 142.254 80.7357 146.705 78.1874 149.724C76.7078 151.471 74.4778 152.354 71.5316 152.354ZM67.0803 142.819C66.7083 143.972 65.8244 147.292 67.2136 149.327C68.0007 150.479 69.4544 151.064 71.5318 151.064C74.0715 151.064 75.9768 150.333 77.194 148.892C78.8864 146.886 78.8563 144.002 78.7596 142.819H67.0803Z" fill="#000091"/>
<path fill-rule="evenodd" clip-rule="evenodd" d="M106.09 150.365H105.847C103.309 150.365 101.404 149.636 100.189 148.198C98.4985 146.2 98.5243 143.305 98.6189 142.12H102.434C102.245 141.667 102.066 141.237 101.905 140.83H98.034C97.7165 140.826 97.4428 141.053 97.3889 141.366C97.3566 141.555 96.6319 146.006 99.1802 149.026C100.653 150.77 102.89 151.656 105.829 151.656C106.113 151.656 106.389 151.656 106.655 151.626C106.463 151.21 106.275 150.79 106.09 150.365Z" fill="#000091"/>
<path fill-rule="evenodd" clip-rule="evenodd" d="M73.5313 76.5717L74.5399 93.8378L65.4648 95.7539C65.4648 95.7539 76.9011 108.285 84.9783 106.906C96.3435 104.971 96.0898 91.7927 96.0898 91.7927L89.1782 92.4207L88.318 82.4231L73.5313 76.5717Z" fill="white"/>
<path fill-rule="evenodd" clip-rule="evenodd" d="M72.8825 76.6093L73.8586 93.3211L65.3269 95.1227C64.8387 95.2258 64.6473 95.8203 64.9836 96.1888L65.1065 96.3213L65.267 96.4914L65.4525 96.6852L65.6628 96.9022L65.884 97.1275L66.1158 97.3607L66.358 97.6015L66.6105 97.8495C66.6534 97.8913 66.6967 97.9335 66.7405 97.976C68.1146 99.3097 69.6142 100.643 71.1914 101.889C73.8378 103.98 76.4312 105.61 78.884 106.602C81.1405 107.514 83.2196 107.86 85.0821 107.542C90.2098 106.669 93.5103 103.579 95.3073 99.0753C95.9387 97.4933 96.3396 95.8385 96.5571 94.1994C96.6352 93.6108 96.6845 93.0601 96.7105 92.5582L96.721 92.3263L96.7257 92.1871L96.7298 92.0021L96.7307 91.8467L96.7302 91.7841L96.7285 91.7455C96.7027 91.3885 96.3882 91.1174 96.0267 91.1502L89.7605 91.7194L88.956 82.3678C88.9351 82.1241 88.7781 81.9132 88.5506 81.8232L73.764 75.9718C73.3255 75.7983 72.855 76.1385 72.8825 76.6093ZM74.2292 77.5434L87.7045 82.876L88.5305 92.476L88.5349 92.5138C88.5837 92.8506 88.8883 93.0943 89.2316 93.0632L95.4213 92.5007L95.4217 92.4915C95.3975 92.96 95.3513 93.4765 95.2779 94.0297C95.0735 95.5694 94.6973 97.1223 94.1088 98.597C92.4671 102.711 89.5107 105.479 84.8651 106.27C83.2679 106.543 81.4197 106.235 79.3675 105.406C77.0449 104.466 74.5494 102.898 71.9911 100.877C70.4511 99.6601 68.9835 98.3551 67.6389 97.0501L67.5119 96.9264L67.2652 96.6841L67.0286 96.4489C66.99 96.4103 66.9519 96.3721 66.9141 96.3341L66.7277 96.1455L74.6682 94.4691C74.9805 94.4031 75.1976 94.1188 75.179 93.8002L74.2292 77.5434Z" fill="#000091"/>
<path fill-rule="evenodd" clip-rule="evenodd" d="M93.6143 66.8601C93.6143 66.8601 98.9324 63.9462 99.5002 69.1289C99.9733 73.4664 96.668 73.518 93.4788 73.5266C90.2897 73.5352 93.6143 66.8601 93.6143 66.8601Z" fill="white"/>
<path fill-rule="evenodd" clip-rule="evenodd" d="M96.5814 65.3987C95.848 65.4004 95.0839 65.5686 94.3248 65.8461C94.24 65.8771 94.1587 65.9081 94.081 65.9388L93.9308 65.9998C93.9067 66.0099 93.8829 66.0199 93.8596 66.0298L93.7253 66.0885L93.6023 66.1449L93.4909 66.1984L93.3918 66.2484C93.3609 66.2645 93.3321 66.2798 93.3055 66.2944C93.1901 66.3576 93.0967 66.4547 93.0381 66.5725L92.9678 66.7177L92.9004 66.861L92.8278 67.0188C92.8154 67.0463 92.8027 67.0743 92.7898 67.1029C92.6067 67.5104 92.4236 67.9493 92.2524 68.4042C92.0414 68.9649 91.8632 69.5114 91.7283 70.0313C91.4612 71.0597 91.3737 71.9311 91.5252 72.6251C91.7365 73.5925 92.4224 74.1747 93.4818 74.1718L93.979 74.1688L94.3275 74.1641L94.5489 74.1598L94.7619 74.1543L94.9669 74.1476L95.1642 74.1396L95.3542 74.1303L95.5371 74.1195L95.7135 74.1072C95.7423 74.105 95.7709 74.1027 95.7992 74.1004L95.9662 74.0857C95.9935 74.0831 96.0206 74.0804 96.0475 74.0777L96.2059 74.0603C96.2319 74.0573 96.2576 74.0541 96.2831 74.0509L96.4338 74.0308C96.4832 74.0237 96.5318 74.0164 96.5796 74.0087L96.7211 73.9845C96.7675 73.9761 96.8133 73.9673 96.8585 73.9582L96.9921 73.9297L97.1224 73.8989C97.1439 73.8936 97.1652 73.8882 97.1864 73.8826L97.3123 73.8483C97.3538 73.8364 97.3949 73.8241 97.4356 73.8114L97.5567 73.772C97.5768 73.7652 97.5967 73.7583 97.6166 73.7512L97.7351 73.7078C97.8333 73.6705 97.9301 73.6302 98.0264 73.5869L98.1418 73.5334C99.6671 72.8057 100.368 71.3727 100.153 69.1628L100.143 69.0587C99.8703 66.5717 98.5299 65.3942 96.5814 65.3987ZM96.5853 66.689C97.8591 66.686 98.6364 67.3513 98.8512 69.1144L98.861 69.1989C99.0522 70.9519 98.6091 71.8813 97.5872 72.3688L97.5413 72.3904L97.4484 72.4317L97.3539 72.4708C97.2744 72.5024 97.1929 72.5318 97.1087 72.5589L97.0062 72.5905C96.9197 72.616 96.83 72.6394 96.7365 72.6608L96.6225 72.6856L96.5044 72.7086L96.382 72.7299C96.3613 72.7333 96.3403 72.7366 96.3192 72.7399L96.1898 72.7586C96.1679 72.7616 96.1457 72.7645 96.1233 72.7674L95.9863 72.7838C95.963 72.7864 95.9395 72.7889 95.9158 72.7914L95.7704 72.8055L95.6192 72.8183L95.3806 72.8348L95.2132 72.8443L95.0389 72.8525L94.8573 72.8596L94.5706 72.8681L94.2659 72.8744L93.9422 72.8787L93.4792 72.8815C93.0428 72.8827 92.8713 72.7371 92.7867 72.3498C92.688 71.8975 92.7575 71.2047 92.978 70.3555C93.1006 69.8837 93.265 69.3794 93.461 68.8586C93.622 68.4306 93.7948 68.0162 93.9676 67.6319L94.071 67.4056L94.1027 67.3373L94.1468 67.3165C94.3339 67.2286 94.5433 67.1403 94.7687 67.0579C95.3985 66.8277 96.0229 66.6902 96.5853 66.689Z" fill="#000091"/>
<path fill-rule="evenodd" clip-rule="evenodd" d="M94.7194 60.2302C92.9345 52.3788 88.1454 51.0606 81.7649 51.9444C76.8188 52.6261 73.2425 61.0323 72.6017 68.4579C71.1566 68.5805 67.1524 68.8579 67.4406 72.3567C67.7416 76.0125 70.2168 78.4512 73.6898 77.4878C76.0855 83.7693 81.6595 87.9541 87.1948 87.1886C93.5753 86.3069 98.6268 77.4168 94.7194 60.2302Z" fill="white"/>
<path fill-rule="evenodd" clip-rule="evenodd" d="M81.6743 51.3053L81.5258 51.328C76.7857 52.1212 72.9266 59.4792 72.0316 67.6356L72.0073 67.8636L71.8676 67.8777L71.6281 67.9039C71.0502 67.971 70.6195 68.0523 70.0934 68.1982C67.909 68.8042 66.6085 70.1445 66.795 72.4097L66.8062 72.5348C67.1751 76.3981 69.7812 78.8363 73.1903 78.2592L73.2931 78.2407L73.3211 78.308C75.966 84.6004 81.6674 88.604 87.2807 87.8277C90.8741 87.3311 93.8347 84.5599 95.4213 80.0373C97.1595 75.0825 97.209 68.2821 95.3459 60.0872C93.6614 52.6773 89.3838 50.297 81.9015 51.2747L81.6743 51.3053ZM94.0882 60.3732C95.9014 68.3485 95.8536 74.9086 94.2043 79.6102C92.7681 83.704 90.1825 86.1242 87.1045 86.5495C81.9685 87.2598 76.6208 83.3677 74.2906 77.2579C74.172 76.9468 73.8361 76.7771 73.5154 76.8661C70.5942 77.6764 68.3646 75.742 68.0815 72.3038C67.9542 70.7589 68.7882 69.8994 70.4388 69.4415L70.5794 69.4037L70.7168 69.3691C70.7395 69.3636 70.7621 69.3582 70.7847 69.3529L70.92 69.3227C70.965 69.3131 71.0102 69.3038 71.0557 69.295L71.1933 69.2695C71.2165 69.2655 71.2398 69.2615 71.2634 69.2576L71.4068 69.2349C71.4311 69.2312 71.4557 69.2276 71.4805 69.2241L71.633 69.2035L71.7935 69.184L71.9634 69.1652L72.2393 69.1377L72.5449 69.1101C72.5807 69.107 72.6171 69.1039 72.6542 69.1008C72.9671 69.0742 73.2154 68.8262 73.2424 68.5134C73.9264 60.5875 77.6163 53.3039 81.7267 52.6027L81.8514 52.5834C88.8631 51.6122 92.5502 53.6079 94.0882 60.3732Z" fill="#000091"/>
<path fill-rule="evenodd" clip-rule="evenodd" d="M86.276 65.0325C86.5988 64.9148 86.9546 65.071 87.089 65.3825L87.103 65.4177L90.5051 74.7529C90.6698 75.205 90.3003 75.667 89.8302 75.6154L89.7948 75.6105L87.3626 75.2127C87.011 75.1552 86.7725 74.8235 86.8301 74.4718C86.8855 74.1328 87.1959 73.899 87.5333 73.9343L87.5709 73.9393L88.9153 74.1592L85.8907 65.8595C85.7731 65.5367 85.9293 65.1809 86.2407 65.0465L86.276 65.0325Z" fill="#000091"/>
<path fill-rule="evenodd" clip-rule="evenodd" d="M78.8632 66.752C79.992 65.7804 81.3233 65.4166 82.7302 66.0887C83.0517 66.2423 83.1878 66.6275 83.0342 66.949C82.8806 67.2705 82.4955 67.4066 82.174 67.253C81.3013 66.8361 80.4839 67.0594 79.7049 67.7299C79.5194 67.8895 79.3532 68.0618 79.2102 68.2334L79.1588 68.2962L79.098 68.374L79.0575 68.4295C79.0541 68.4343 79.0511 68.4387 79.0485 68.4425C78.8504 68.7386 78.4497 68.818 78.1536 68.6199C77.8575 68.4217 77.7781 68.021 77.9762 67.7249L78.0128 67.6721L78.0594 67.6085L78.1159 67.5348C78.1261 67.5217 78.1368 67.5083 78.1478 67.4944L78.219 67.4073C78.4053 67.1839 78.6202 66.9611 78.8632 66.752Z" fill="#000091"/>
<path fill-rule="evenodd" clip-rule="evenodd" d="M89.3268 63.897C90.2654 63.4056 91.2663 63.2516 92.233 63.6756C92.582 63.8287 92.9092 64.0541 93.2101 64.353C93.4628 64.6042 93.4641 65.0126 93.213 65.2654C92.9618 65.5181 92.5534 65.5194 92.3006 65.2683C92.111 65.0799 91.9158 64.9454 91.7147 64.8572C91.1687 64.6177 90.5502 64.7129 89.9252 65.0401C89.7881 65.1119 89.6632 65.1889 89.5541 65.2651L89.4867 65.3136L89.4369 65.3521C89.164 65.5812 88.7571 65.5457 88.528 65.2728C88.2989 64.9999 88.3344 64.5929 88.6073 64.3639C88.6499 64.3281 88.7004 64.2885 88.7584 64.2463L88.8509 64.1811C88.9816 64.0918 89.1414 63.9941 89.3268 63.897Z" fill="#000091"/>
<ellipse cx="82.7983" cy="70.8692" rx="1.02793" ry="1.48168" transform="rotate(-13.49 82.7983 70.8692)" fill="#000091"/>
<ellipse cx="91.5815" cy="69.037" rx="1.02322" ry="1.48753" transform="rotate(-19.8852 91.5815 69.037)" fill="#000091"/>
<path fill-rule="evenodd" clip-rule="evenodd" d="M83.0488 77.0663L83.0501 77.1671L83.0542 77.3107C83.0551 77.3357 83.0562 77.3613 83.0573 77.3874L83.0657 77.5498C83.0774 77.7461 83.0955 77.9657 83.122 78.202C83.1987 78.8864 83.3283 79.5399 83.5258 80.1242C84.1319 81.9171 85.3324 82.8305 87.0744 82.1658C87.966 81.8135 88.696 81.1596 89.1404 80.3207L89.9918 78.672C90.1897 78.2887 89.963 77.8229 89.5392 77.7422L88.8806 77.6147L88.7813 77.5953C88.3497 77.5106 87.9109 77.4231 87.4796 77.3353L86.8698 77.2098L86.1865 77.0655L85.6922 76.9578L85.3545 76.8819L85.0694 76.8159L84.8113 76.754L84.6732 76.7197L84.487 76.6718L84.3269 76.6282L84.2353 76.6017L84.156 76.5774L84.1152 76.564L84.0959 76.5488C83.722 76.2721 83.0488 76.4458 83.0488 77.0663ZM84.4041 78.0582L84.3957 77.9803L84.5901 78.0281L84.8651 78.0933L85.272 78.1861L85.7224 78.2854L86.2137 78.3906L86.7897 78.511L87.2216 78.5996C87.5115 78.6586 87.8045 78.7174 88.0963 78.7753L88.45 78.845L88.0323 79.6541C87.7312 80.2554 87.2251 80.7188 86.6072 80.963C85.6948 81.3111 85.1484 80.8953 84.748 79.711C84.5838 79.2253 84.4714 78.6582 84.4041 78.0582Z" fill="#000091"/>
<path fill-rule="evenodd" clip-rule="evenodd" d="M100.047 59.185C95.6859 55.3464 99.6923 54.6239 96.0881 50.4025C92.4839 46.1811 86.5572 49.1122 86.5572 49.1122C85.8445 48.7587 85.0813 48.5178 84.2949 48.3982C80.7014 47.8499 77.6284 48.1079 74.979 48.9144C74.2916 48.5851 73.5706 48.3313 72.8285 48.1574L72.7532 48.1402C71.721 45.2585 69.1125 42.8694 65.6717 42.0522C60.5106 40.8286 55.4225 43.6113 54.3193 48.2671C54.08 49.2755 54.042 50.3213 54.2075 51.3444C51.67 51.2863 49.4206 52.7831 48.8765 55.0755C48.5088 56.6324 49.0077 58.213 50.0808 59.4087C47.3712 60.0388 45.1906 61.942 44.5648 64.5698C43.9089 67.3375 45.1519 70.1611 47.5109 71.9309C45.7583 72.5761 44.3992 73.9545 43.9713 75.7609C43.2465 78.8189 45.4637 81.9629 48.9173 82.7822L49.169 82.836C48.3122 83.5518 47.709 84.5245 47.4486 85.6101C46.7217 88.6681 48.9389 91.8121 52.3947 92.6336C55.444 93.3561 58.4375 92.0336 59.6031 89.6229C60.7059 90.5011 61.9897 91.1239 63.3621 91.4465C68.2824 92.6142 73.1661 89.7842 74.2693 85.1262C74.4841 84.2239 74.5444 83.2918 74.4478 82.3693C75.0233 82.2752 75.5896 82.1313 76.1402 81.9392C75.1048 80.5868 74.2717 79.0909 73.6672 77.4985C70.3275 78.4254 67.9104 76.1975 67.4631 72.7804C68.1405 71.9524 69.5039 71.06 72.25 70.4944C72.6006 71.804 73.2263 73.6793 74.0435 74.3093L75.5489 69.7439C80.7702 67.9439 81.0347 63.658 82.1143 61.3463C83.3357 58.7291 87.9872 60.4732 89.8775 56.2862C90.1265 55.7455 90.2654 55.1607 90.2861 54.5658C91.0409 56.3486 92.372 58.5399 94.63 59.9592C95.2743 62.6799 95.7121 65.4454 95.9397 68.2321L96.2687 68.2084C97.2845 68.1355 98.1283 67.397 98.3353 66.3999C101.443 64.4709 101.718 61.0194 100.047 59.185Z" fill="#000091"/>
<path fill-rule="evenodd" clip-rule="evenodd" d="M86.6507 49.2735C86.9192 49.0392 87.3267 49.0669 87.561 49.3354C87.6675 49.4575 87.8108 49.655 87.9522 49.9156C88.3769 50.6987 88.5025 51.5451 88.1048 52.3641C87.7041 53.1895 86.8246 53.8308 85.4131 54.2797L85.2217 54.3384C84.6705 54.5015 84.0431 54.6371 83.3366 54.7448L83.0717 54.7841L82.7982 54.8264C82.7532 54.8336 82.7084 54.8409 82.664 54.8482L82.4005 54.8928L82.1438 54.9389L81.8937 54.9865C81.8526 54.9945 81.8117 55.0026 81.7711 55.0108L81.5309 55.0607C81.4914 55.0692 81.4522 55.0777 81.4132 55.0863L81.1827 55.1385C79.1374 55.6152 77.8746 56.2796 77.2335 57.1572C76.541 58.105 76.4846 59.4345 77.0618 61.4391L77.1273 61.6605C77.1613 61.7725 77.1972 61.8866 77.235 62.0028C77.2509 62.0518 77.2609 62.1026 77.2648 62.154C77.476 64.9735 74.2857 67.1306 72.219 65.4659C71.9415 65.2424 71.8977 64.8363 72.1213 64.5588C72.3362 64.292 72.7199 64.2412 72.9958 64.4364L73.0284 64.461C74.1171 65.338 76.0276 64.0806 75.9837 62.3631L75.9821 62.3212L75.9564 62.2409C74.3099 57.0158 76.1256 54.5371 82.8186 53.5174L83.025 53.4867C83.1796 53.4641 83.3292 53.4404 83.474 53.4155L83.6876 53.3774L83.894 53.3376L84.0932 53.2961C84.7129 53.1623 85.2258 53.0044 85.6407 52.8277L85.7685 52.7713L85.8898 52.7137C86.441 52.4421 86.7832 52.132 86.9441 51.8006C87.1286 51.4207 87.0638 50.984 86.818 50.5308C86.7642 50.4318 86.7065 50.3415 86.6496 50.263L86.6007 50.1983L86.5888 50.1838C86.3545 49.9153 86.3822 49.5078 86.6507 49.2735Z" fill="#F95C5E"/>
<path fill-rule="evenodd" clip-rule="evenodd" d="M74.422 48.9511C74.7699 48.8743 75.1142 49.094 75.1911 49.4419C75.268 49.7898 75.0482 50.1342 74.7003 50.211C69.6106 51.3355 66.3061 54.0352 63.8702 58.3092C60.5313 64.1599 63.273 75.6274 67.6985 75.5988L67.8331 75.5944C68.1888 75.5734 68.4941 75.8448 68.515 76.2005C68.536 76.5561 68.2646 76.8615 67.9089 76.8824C62.091 77.2251 58.9527 64.3228 62.7493 57.67C65.3555 53.0973 68.9511 50.1598 74.422 48.9511Z" fill="#F95C5E"/>
<circle cx="71.2808" cy="76.5717" r="2.18704" fill="#F95C5E"/>
<circle cx="99.2144" cy="71.9718" r="2.18704" fill="#F95C5E"/>
<path fill-rule="evenodd" clip-rule="evenodd" d="M95.2776 115.276C95.2776 115.276 95.1378 117.719 91.082 118.809C87.0262 119.9 82.2199 121.644 82.2199 121.644L67.7085 138.334L67.6504 121.687L78.5361 112.814C78.5361 112.814 86.3273 102.571 87.2004 100.418C88.0735 98.2658 89.9035 99.5324 89.5552 101.709C89.2068 103.885 87.4842 108.033 87.4842 108.033C87.4842 108.033 98.9764 102.625 100.983 102.625C102.989 102.625 102.703 104.195 100.174 105.679C97.6453 107.162 97.7979 107.319 97.7979 107.319C97.7979 107.319 98.714 109.517 95.6173 111.308L96.3163 111.831C96.456 112.528 96.1485 113.67 94.955 114.721L95.2776 115.276Z" fill="white"/>
<path fill-rule="evenodd" clip-rule="evenodd" d="M86.6281 100.111L86.5888 100.206L86.5451 100.304L86.5108 100.376L86.4516 100.493L86.4071 100.577L86.3328 100.712L86.2495 100.859L86.1574 101.016L86.0212 101.242L85.8698 101.486L85.7886 101.615L85.5695 101.957L85.328 102.326L85.0095 102.803L84.7802 103.141L84.5996 103.406L84.2824 103.865L83.8053 104.548L83.3669 105.168L82.8224 105.93L82.3838 106.539C82.0021 107.067 81.6095 107.605 81.2103 108.149L80.6071 108.968L79.9973 109.79L79.3843 110.613L78.4963 111.795L78.0673 112.362L67.2415 121.187C67.0905 121.31 67.0032 121.494 67.0039 121.689L67.062 138.336L67.0631 138.373C67.0947 138.942 67.8113 139.197 68.194 138.757L82.5949 122.194L82.9972 122.051L83.5084 121.871L84.0685 121.677C85.3182 121.246 86.6182 120.816 87.9013 120.414C88.2437 120.307 88.581 120.203 88.9124 120.103L89.1604 120.028C89.3238 119.979 89.4854 119.931 89.645 119.884L90.1183 119.747C90.1962 119.724 90.2736 119.702 90.3505 119.681L90.8057 119.553C90.9553 119.512 91.1028 119.471 91.2481 119.432C92.6597 119.053 93.7415 118.488 94.5276 117.779C95.0925 117.27 95.4748 116.715 95.7043 116.152C95.7873 115.949 95.8448 115.757 95.8813 115.581C95.8984 115.499 95.9091 115.429 95.9152 115.373L95.9203 115.313L95.9213 115.266C95.9195 115.156 95.8896 115.047 95.834 114.952L95.7653 114.834L95.7924 114.806C96.7285 113.806 97.1372 112.65 96.9475 111.704L96.9364 111.658C96.9067 111.551 96.8503 111.455 96.7727 111.376L96.7347 111.341L96.8122 111.282C97.7488 110.55 98.2902 109.716 98.4874 108.829C98.58 108.412 98.5891 108.013 98.5366 107.643L98.5259 107.573L98.5131 107.501L98.5846 107.447L98.7042 107.361L98.841 107.265L98.942 107.197L99.1084 107.087L99.2929 106.968L99.4959 106.84L99.7177 106.703L99.9586 106.556L100.13 106.453L100.31 106.346L100.499 106.235C101.843 105.447 102.711 104.567 102.906 103.744C103.16 102.67 102.34 102.002 101.047 101.98L100.946 101.98L100.871 101.983C100.859 101.984 100.846 101.985 100.832 101.986L100.75 101.994L100.662 102.004C100.632 102.009 100.602 102.013 100.57 102.018L100.472 102.035C100.456 102.038 100.439 102.041 100.421 102.045L100.316 102.066L100.206 102.091L100.091 102.118L99.9703 102.148L99.7804 102.199L99.5795 102.257L99.3674 102.321L99.1443 102.392L98.9895 102.442L98.7481 102.523L98.5812 102.581L98.3218 102.672L98.0517 102.77L97.7709 102.874L97.4795 102.984L97.0745 103.14L96.651 103.307L96.209 103.484L95.7486 103.671L95.2702 103.868L94.6468 104.129L94.128 104.349L93.68 104.54L93.2235 104.737C92.0238 105.256 90.7857 105.808 89.564 106.363L88.6743 106.77L88.7932 106.454C88.9174 106.121 89.0394 105.785 89.1574 105.45C89.2211 105.269 89.2828 105.091 89.3423 104.915L89.4281 104.659L89.4841 104.489L89.5397 104.318L89.6248 104.049C89.6523 103.961 89.6791 103.874 89.705 103.788L89.7803 103.535C89.7924 103.493 89.8043 103.452 89.816 103.411L89.8836 103.17C90.0244 102.657 90.1283 102.201 90.1909 101.811C90.392 100.554 89.9859 99.3877 89.1708 98.8897C88.2184 98.3078 87.1738 98.8324 86.6281 100.111ZM88.4983 99.9907C88.8192 100.187 89.0419 100.826 88.917 101.607C88.9007 101.708 88.881 101.816 88.8578 101.93L88.8206 102.105C88.8007 102.194 88.7789 102.287 88.7554 102.383L88.7058 102.58C88.6885 102.647 88.6704 102.715 88.6515 102.784L88.5925 102.997L88.529 103.217L88.461 103.445L88.3886 103.68L88.3119 103.922L88.2577 104.089L88.1761 104.336L88.12 104.502C88.0626 104.672 88.0025 104.846 87.9405 105.022C87.7485 105.567 87.5448 106.116 87.3391 106.649L87.1728 107.076L86.8873 107.786C86.6656 108.32 87.2019 108.847 87.7258 108.631L87.7868 108.603L88.3867 108.324L89.1078 107.991L89.5784 107.775C90.9606 107.143 92.374 106.511 93.7362 105.921L94.1892 105.726L94.6335 105.536L95.3276 105.243L96.0987 104.923L96.6228 104.71L97.0253 104.549L97.4123 104.396L97.8735 104.217L98.3089 104.053L98.6378 103.932L98.873 103.847L99.1707 103.743L99.3127 103.695L99.5824 103.605L99.8328 103.526L99.9507 103.49L100.118 103.441L100.223 103.412L100.323 103.385L100.418 103.361L100.508 103.34L100.592 103.322L100.671 103.306L100.744 103.293L100.812 103.283L100.874 103.276L100.931 103.271C100.94 103.271 100.948 103.271 100.957 103.27L100.982 103.27C101.317 103.27 101.54 103.322 101.64 103.387L101.658 103.4C101.662 103.403 101.663 103.402 101.663 103.404L101.658 103.417C101.657 103.421 101.656 103.424 101.655 103.429L101.65 103.447C101.558 103.836 100.946 104.463 99.9259 105.075L99.3603 105.409L98.9975 105.627L98.734 105.788L98.6109 105.865L98.3817 106.011L98.2243 106.114L98.0789 106.212L97.9452 106.306L97.8625 106.365L97.7848 106.424L97.712 106.48L97.6441 106.535L97.5808 106.588C97.5707 106.597 97.5607 106.606 97.551 106.614L97.4947 106.666C97.4857 106.674 97.4769 106.682 97.4682 106.691L97.4187 106.74L97.3735 106.788L97.3326 106.836C97.3262 106.844 97.3199 106.851 97.3138 106.859L97.2792 106.905C97.1598 107.072 97.1225 107.225 97.1477 107.384L97.156 107.427L97.1674 107.472C97.1717 107.486 97.1765 107.501 97.1817 107.516L97.2053 107.579L97.2179 107.619C97.2314 107.667 97.2469 107.737 97.2593 107.825C97.2909 108.047 97.2853 108.291 97.228 108.549C97.0575 109.316 96.4737 110.067 95.2932 110.75L95.2577 110.772C94.8907 111.016 94.8703 111.556 95.2299 111.825L95.7035 112.179L95.7038 112.186C95.7019 112.763 95.3189 113.54 94.5274 114.237L94.4982 114.264C94.2919 114.47 94.2481 114.791 94.3961 115.045L94.6012 115.398L94.5938 115.426C94.5746 115.492 94.5474 115.573 94.5098 115.665C94.3522 116.051 94.0813 116.445 93.6639 116.821C93.0348 117.388 92.135 117.858 90.9134 118.186C90.2469 118.365 89.5368 118.568 88.7895 118.792L88.5399 118.867C88.2036 118.969 87.8623 119.074 87.516 119.183C86.3822 119.538 85.2364 119.914 84.1233 120.294L83.5027 120.507L82.9494 120.7L81.9987 121.037L81.9552 121.055C81.8698 121.093 81.7935 121.149 81.7319 121.22L68.3462 136.615L68.2953 121.992L78.9426 113.314C78.9821 113.282 79.0176 113.245 79.0484 113.204L79.5266 112.572L80.0674 111.853L80.4178 111.385C80.7258 110.973 81.0338 110.56 81.3399 110.147L81.9492 109.322C82.353 108.774 82.7514 108.23 83.14 107.695L83.6708 106.961L84.2932 106.092L84.6901 105.533L84.9924 105.104L85.3511 104.59L85.688 104.102L85.9415 103.73L86.1221 103.462L86.3502 103.12L86.5116 102.875L86.6646 102.64L86.8552 102.342L86.9882 102.131L87.1125 101.929L87.2644 101.677L87.368 101.5L87.4625 101.333L87.5205 101.228L87.5999 101.079L87.6476 100.986L87.6913 100.897L87.7307 100.813C87.737 100.8 87.743 100.787 87.7489 100.773L87.7821 100.697L87.7971 100.661C88.066 99.9978 88.306 99.8732 88.4983 99.9907Z" fill="#000091"/>
<path fill-rule="evenodd" clip-rule="evenodd" d="M96.1414 110.166C96.4163 109.939 96.8229 109.978 97.0496 110.253C97.2763 110.528 97.2372 110.934 96.9623 111.161C96.6797 111.394 96.3797 111.605 96.0688 111.79L95.8039 111.943L95.4226 112.16L95.0584 112.364L94.8251 112.493L94.5992 112.617L94.3808 112.734L94.1697 112.846L93.9659 112.953L93.7694 113.054L93.58 113.15L93.3977 113.24L93.2224 113.325L93.0541 113.405L92.8927 113.48L92.7328 113.552L92.5782 113.62C92.5535 113.631 92.5292 113.641 92.5054 113.651L92.3683 113.708C92.3464 113.717 92.325 113.725 92.3041 113.734L92.184 113.78L92.0849 113.816L92.0084 113.842L91.9449 113.863L91.8939 113.878C91.8864 113.88 91.8795 113.881 91.873 113.883C91.5272 113.969 91.1773 113.758 91.0914 113.412C91.0086 113.079 91.2016 112.742 91.5256 112.641L91.5833 112.624L91.6869 112.588L91.7825 112.552L91.8897 112.51L92.0087 112.46L92.1397 112.404L92.2829 112.34L92.4326 112.271C92.4581 112.259 92.4839 112.247 92.5101 112.235L92.6703 112.159L92.8376 112.078L93.102 111.946L93.2874 111.851L93.4801 111.751L93.7831 111.591L94.1031 111.418L94.3259 111.295L94.5565 111.167L94.7948 111.033L95.167 110.82C95.2094 110.796 95.2521 110.771 95.2951 110.747C95.5937 110.578 95.8769 110.384 96.1414 110.166Z" fill="#000091"/>
<path fill-rule="evenodd" clip-rule="evenodd" d="M94.5361 114.224C94.8094 113.996 95.2163 114.032 95.4448 114.305C95.6734 114.579 95.637 114.986 95.3637 115.214C94.4288 115.996 93.3472 116.583 92.1823 116.94C91.8417 117.045 91.4808 116.853 91.3762 116.513C91.2717 116.172 91.463 115.811 91.8036 115.707C92.8041 115.4 93.7331 114.895 94.5361 114.224Z" fill="#000091"/>
<path fill-rule="evenodd" clip-rule="evenodd" d="M97.9886 106.298C98.3094 106.143 98.6951 106.277 98.8503 106.598C98.9996 106.907 98.8807 107.276 98.5852 107.441L98.5504 107.459L91.7914 110.728C91.4706 110.883 91.0849 110.749 90.9297 110.428C90.7804 110.119 90.8993 109.75 91.1948 109.585L91.2296 109.566L97.9886 106.298Z" fill="#000091"/>
<path fill-rule="evenodd" clip-rule="evenodd" d="M65.0566 122.929L77.1036 113.082L80.4885 128.796L66.1491 141.475L65.0566 122.929Z" fill="#F95C5E"/>
<path fill-rule="evenodd" clip-rule="evenodd" d="M64.8468 115.195C64.9472 114.853 65.3058 114.658 65.6476 114.758C65.9773 114.855 66.171 115.192 66.0943 115.522L66.0847 115.559L63.7213 123.6C63.6208 123.941 63.2623 124.137 62.9204 124.037C62.5908 123.94 62.3971 123.603 62.4737 123.272L62.4834 123.236L64.8468 115.195Z" fill="#000091"/>
<path fill-rule="evenodd" clip-rule="evenodd" d="M76.1496 113.308C76.4026 113.057 76.8111 113.059 77.062 113.312C77.3128 113.565 77.311 113.974 77.058 114.224C76.4547 114.822 75.7309 115.467 74.9 116.153C74.24 116.697 73.5181 117.263 72.7439 117.844C71.4958 118.782 70.1675 119.722 68.8327 120.625L68.3167 120.972L67.8751 121.266L67.4556 121.543L67.1892 121.717L66.51 122.153L65.1904 122.92L64.5952 123.27L64.2423 123.479L64.0348 123.604L63.9421 123.66C62.3259 124.642 60.784 125.665 59.3368 126.747C57.3111 128.262 55.6364 129.775 54.4191 131.257C54.193 131.532 53.7865 131.572 53.5111 131.346C53.2358 131.12 53.1959 130.713 53.422 130.438C54.7143 128.864 56.462 127.285 58.5641 125.713C59.9489 124.678 61.4134 123.699 62.9432 122.759L63.365 122.501L63.8339 122.221L64.2323 121.986L65.2583 121.387L65.8338 121.055L66.2171 120.809L66.4854 120.635L66.884 120.375L67.3059 120.096L67.7493 119.799C69.1885 118.833 70.6274 117.821 71.9688 116.813C72.7282 116.242 73.4349 115.689 74.0789 115.157C74.8816 114.495 75.577 113.876 76.1496 113.308Z" fill="#000091"/>
<path fill-rule="evenodd" clip-rule="evenodd" d="M79.3495 123.57C79.6841 123.492 80.0186 123.69 80.1147 124.015L80.1243 124.052L81.1157 128.301C81.1651 128.513 81.1045 128.735 80.9544 128.893C79.3859 130.538 77.7154 132.213 75.9309 133.935L75.3328 134.511L74.7462 135.073C74.6491 135.165 74.5524 135.257 74.4558 135.349L73.8778 135.897L73.2998 136.44L72.7124 136.989L72.0358 137.616L71.34 138.255L70.5125 139.01L69.4145 140.004L68.1025 141.182L66.6555 142.473L63.9262 144.894C63.6594 145.13 63.2517 145.105 63.0156 144.838C62.7794 144.571 62.8043 144.164 63.0711 143.928L65.5416 141.737L67.1536 140.299L68.4841 139.105L69.5956 138.1L70.5338 137.244L71.2329 136.601L71.6234 136.239L71.9262 135.958L72.1267 135.771C72.349 135.563 72.5697 135.356 72.79 135.149L73.4178 134.555L73.8159 134.177L74.2675 133.745L74.7765 133.256C74.8621 133.174 74.9482 133.091 75.0347 133.007C76.5706 131.524 78.0208 130.078 79.3928 128.657L79.7797 128.254L78.8678 124.345C78.7897 124.01 78.9875 123.676 79.3128 123.58L79.3495 123.57Z" fill="#000091"/>
<path fill-rule="evenodd" clip-rule="evenodd" d="M74.9924 123.801C75.3252 123.716 75.6641 123.906 75.7674 124.229L75.7779 124.266L76.8403 128.397C76.929 128.742 76.7212 129.093 76.3761 129.182C76.0434 129.268 75.7045 129.077 75.6011 128.754L75.5906 128.718L74.5283 124.587C74.4396 124.242 74.6474 123.89 74.9924 123.801Z" fill="#000091"/>
<path fill-rule="evenodd" clip-rule="evenodd" d="M351.856 161.937C352.212 161.937 352.501 162.226 352.501 162.582C352.501 162.926 352.232 163.207 351.893 163.226L351.856 163.227H1.1471C0.790794 163.227 0.501953 162.939 0.501953 162.582C0.501953 162.239 0.77053 161.958 1.10919 161.938L1.1471 161.937H351.856Z" fill="#000091"/>
</svg>
