<svg width="80" height="81" viewBox="0 0 80 81" fill="none" xmlns="http://www.w3.org/2000/svg">
<path fill-rule="evenodd" clip-rule="evenodd" d="M59 76.3103C58.4486 76.3103 58 75.8617 58 75.3103C58 74.7589 58.4486 74.3103 59 74.3103C59.5514 74.3103 60 74.7589 60 75.3103C60 75.8617 59.5514 76.3103 59 76.3103Z" fill="#CACAFB"/>
<path fill-rule="evenodd" clip-rule="evenodd" d="M67 12.3103C66.4486 12.3103 66 11.8617 66 11.3103C66 10.7589 66.4486 10.3103 67 10.3103C67.5514 10.3103 68 10.7589 68 11.3103C68 11.8617 67.5514 12.3103 67 12.3103Z" fill="#CACAFB"/>
<path fill-rule="evenodd" clip-rule="evenodd" d="M9 16.3103C8.4486 16.3103 8 15.8617 8 15.3103C8 14.7589 8.4486 14.3103 9 14.3103C9.5514 14.3103 10 14.7589 10 15.3103C10 15.8617 9.5514 16.3103 9 16.3103Z" fill="#CACAFB"/>
<path d="M37 23.3103C37 22.758 36.5523 22.3103 36 22.3103H24L23.8834 22.317C23.386 22.3748 23 22.7975 23 23.3103C23 23.8626 23.4477 24.3103 24 24.3103H36L36.1166 24.3036C36.614 24.2458 37 23.8231 37 23.3103Z" fill="#E1000F"/>
<path d="M39 40.3103C37.8954 40.3103 37 41.2057 37 42.3103C37 44.7973 38.0086 46.3103 40 46.3103C40.5523 46.3103 41 45.8626 41 45.3103C41 44.758 40.5523 44.3103 40 44.3103L39.9059 44.3069C39.7865 44.2981 39.6792 44.2715 39.5839 44.2237C40.4036 43.9739 41 43.2118 41 42.3103C41 41.2057 40.1046 40.3103 39 40.3103Z" fill="#E1000F"/>
<path d="M43 42.3103C43 41.2057 43.8954 40.3103 45 40.3103C46.1046 40.3103 47 41.2057 47 42.3103C47 43.2118 46.4036 43.9739 45.5839 44.2237C45.6792 44.2715 45.7865 44.2981 45.9059 44.3069L46 44.3103C46.5523 44.3103 47 44.758 47 45.3103C47 45.8626 46.5523 46.3103 46 46.3103C44.0086 46.3103 43 44.7973 43 42.3103Z" fill="#E1000F"/>
<path d="M34 26.3103C34.5523 26.3103 35 26.758 35 27.3103C35 27.8231 34.614 28.2458 34.1166 28.3036L34 28.3103H24C23.4477 28.3103 23 27.8626 23 27.3103C23 26.7975 23.386 26.3748 23.8834 26.317L24 26.3103H34Z" fill="#E1000F"/>
<path d="M31 31.3103C31 30.758 30.5523 30.3103 30 30.3103H24L23.8834 30.317C23.386 30.3748 23 30.7975 23 31.3103C23 31.8626 23.4477 32.3103 24 32.3103H30L30.1166 32.3036C30.614 32.2458 31 31.8231 31 31.3103Z" fill="#E1000F"/>
<path d="M56 50.3103C56.5523 50.3103 57 50.758 57 51.3103C57 51.8231 56.614 52.2458 56.1166 52.3036L56 52.3103H38C37.4477 52.3103 37 51.8626 37 51.3103C37 50.7975 37.386 50.3748 37.8834 50.317L38 50.3103H56Z" fill="#E1000F"/>
<path d="M53 55.3103C53 54.758 52.5523 54.3103 52 54.3103H38L37.8834 54.317C37.386 54.3748 37 54.7975 37 55.3103C37 55.8626 37.4477 56.3103 38 56.3103H52L52.1166 56.3036C52.614 56.2458 53 55.8231 53 55.3103Z" fill="#E1000F"/>
<path d="M32 12.3103C38.8541 12.3103 44.2879 16.3674 46.9279 22.9375C47.1338 23.4499 46.8853 24.0323 46.3728 24.2382C45.8604 24.4441 45.278 24.1956 45.0721 23.6831C42.7238 17.839 37.9977 14.3103 32 14.3103C23.7157 14.3103 17 21.026 17 29.3103C17 32.5261 18.0133 35.5865 19.8657 38.1304C20.1006 38.4529 20.1191 38.8799 19.9238 39.2185L19.8507 39.3278L16.027 44.3103H22C22.5128 44.3103 22.9355 44.6963 22.9933 45.1937L23 45.3103C23 45.8231 22.614 46.2458 22.1166 46.3036L22 46.3103H14C13.2086 46.3103 12.7453 45.4438 13.1438 44.793L13.2066 44.7016L17.82 38.6883L17.7635 38.6047C16.0508 35.987 15.0862 32.9394 15.0055 29.7466L15 29.3103C15 19.9215 22.6112 12.3103 32 12.3103Z" fill="#000091"/>
<path d="M47 28.3103C58.0457 28.3103 67 37.2646 67 48.3103C67 51.4409 66.2794 54.4707 64.9137 57.2135C64.6676 57.7078 64.0672 57.9091 63.5728 57.6629C63.0784 57.4167 62.8772 56.8164 63.1234 56.322C64.3519 53.8547 65 51.1298 65 48.3103C65 38.3692 56.9411 30.3103 47 30.3103C37.0589 30.3103 29 38.3692 29 48.3103C29 58.141 36.8808 66.131 46.6693 66.3073L47 66.3103H64.131L61.1679 61.865C60.8835 61.4383 60.9702 60.8725 61.352 60.5485L61.4453 60.4783C61.872 60.1938 62.4378 60.2805 62.7618 60.6623L62.8321 60.7556L66.8321 66.7556C67.254 67.3885 66.842 68.226 66.1118 68.3044L66 68.3103H47C35.9543 68.3103 27 59.356 27 48.3103C27 37.2646 35.9543 28.3103 47 28.3103Z" fill="#000091"/>
<path d="M55 19.3103C55 19.8617 55.4486 20.3103 56 20.3103C56.5514 20.3103 57 19.8617 57 19.3103C57 18.7589 56.5514 18.3103 56 18.3103C55.4486 18.3103 55 18.7589 55 19.3103Z" fill="#000091"/>
<path d="M60 20.3103C59.4486 20.3103 59 19.8617 59 19.3103C59 18.7589 59.4486 18.3103 60 18.3103C60.5514 18.3103 61 18.7589 61 19.3103C61 19.8617 60.5514 20.3103 60 20.3103Z" fill="#000091"/>
<path d="M63 19.3103C63 19.8617 63.4486 20.3103 64 20.3103C64.5514 20.3103 65 19.8617 65 19.3103C65 18.7589 64.5514 18.3103 64 18.3103C63.4486 18.3103 63 18.7589 63 19.3103Z" fill="#000091"/>
<path fill-rule="evenodd" clip-rule="evenodd" d="M68 14.3103H52C51.4477 14.3103 51 14.758 51 15.3103V23.3103L51.0067 23.4269C51.0645 23.9243 51.4872 24.3103 52 24.3103H59.585L63.2929 28.0174L63.3775 28.0935C64.0145 28.6077 65 28.1625 65 27.3103V24.3103H68C68.5523 24.3103 69 23.8626 69 23.3103V15.3103C69 14.758 68.5523 14.3103 68 14.3103ZM67 16.3103V22.3103H64L63.8834 22.317C63.386 22.3748 63 22.7975 63 23.3103V24.8953L60.7071 22.6032L60.608 22.5164C60.4345 22.3835 60.221 22.3103 60 22.3103H53V16.3103H67Z" fill="#000091"/>
<path d="M16 58.3103C16.5523 58.3103 17 58.758 17 59.3103C17 59.8231 16.614 60.2458 16.1166 60.3036L16 60.3103H12C11.4477 60.3103 11 59.8626 11 59.3103C11 58.7975 11.386 58.3748 11.8834 58.317L12 58.3103H16Z" fill="#000091"/>
<path d="M19 59.3103C19 59.8617 19.4486 60.3103 20 60.3103C20.5514 60.3103 21 59.8617 21 59.3103C21 58.7589 20.5514 58.3103 20 58.3103C19.4486 58.3103 19 58.7589 19 59.3103Z" fill="#000091"/>
<path d="M24 60.3103C23.4486 60.3103 23 59.8617 23 59.3103C23 58.7589 23.4486 58.3103 24 58.3103C24.5514 58.3103 25 58.7589 25 59.3103C25 59.8617 24.5514 60.3103 24 60.3103Z" fill="#000091"/>
</svg>
