
<svg width="182" height="115" viewBox="0 0 182 115" fill="none" xmlns="http://www.w3.org/2000/svg">
<path fill-rule="evenodd" clip-rule="evenodd" d="M96.8872 72.0334C97.0925 71.9917 97.2929 72.1178 97.3458 72.3173L97.351 72.3398L102.7 98.5821C102.743 98.7946 102.606 99.0019 102.393 99.0451C102.188 99.0868 101.987 98.9607 101.934 98.7611L101.929 98.7387L96.5802 72.4964C96.5369 72.2839 96.6744 72.0766 96.8872 72.0334Z" fill="#000091"/>
<path fill-rule="evenodd" clip-rule="evenodd" d="M79.587 46.1801C79.7874 46.0962 80.0178 46.1904 80.1018 46.3904C81.5878 49.9291 82.4511 53.8387 82.7926 58.0037L82.8531 58.7899L82.8768 59.0839C82.8923 59.2724 82.9074 59.4477 82.9232 59.6212C82.9429 59.8372 82.7835 60.0282 82.5671 60.0478C82.3508 60.0674 82.1595 59.9083 82.1398 59.6923L82.124 59.5155C82.1162 59.4264 82.1085 59.336 82.1007 59.2427L82.0084 58.0658C81.6735 53.9803 80.8278 50.1503 79.3764 46.694C79.2924 46.494 79.3867 46.2639 79.587 46.1801Z" fill="#000091"/>
<path fill-rule="evenodd" clip-rule="evenodd" d="M19.5191 38.4383C24.3786 32.0648 32.941 28.8242 45.7238 29.3968C45.9408 29.4065 46.1089 29.59 46.0991 29.8067C46.0894 30.0233 45.9056 30.191 45.6886 30.1813C33.1452 29.6194 24.833 32.7653 20.145 38.9139C16.4407 43.7723 15.1386 50.3108 15.7174 57.7882L20.2716 113.549C20.2892 113.765 20.128 113.955 19.9116 113.972C19.6951 113.99 19.5052 113.829 19.4876 113.613L14.9515 58.0791C14.3141 50.3317 15.641 43.5246 19.5191 38.4383Z" fill="#000091"/>
<path fill-rule="evenodd" clip-rule="evenodd" d="M93.4008 107.469C93.3353 107.534 93.2173 107.547 93.1386 107.469L91.7883 106.042L91.2901 104.838C90.7264 104.916 89.9922 104.825 89.4285 104.314L89.1532 104.026C89.9136 105.008 89.9398 106.173 87.2916 104.995C87.2916 104.995 82.8473 103.673 82.7555 103.66C82.7555 103.66 66.5909 105.44 49.3906 103.503L50.033 113.817L94.7511 113.961L93.4008 107.469ZM76.7249 112.809H74.9289C74.3651 112.809 73.9194 112.364 73.9194 111.801C73.9194 111.238 74.3651 110.793 74.9289 110.793H76.7249C77.2886 110.793 77.7344 111.238 77.7344 111.801C77.7344 112.364 77.2755 112.809 76.7249 112.809ZM76.7249 107.992H74.9289C74.3651 107.992 73.9194 107.547 73.9194 106.984C73.9194 106.422 74.3651 105.977 74.9289 105.977H76.7249C77.2886 105.977 77.7344 106.422 77.7344 106.984C77.7344 107.547 77.2755 107.992 76.7249 107.992Z" fill="#000091"/>
<path fill-rule="evenodd" clip-rule="evenodd" d="M76.7503 56.5287C77.1829 57.1438 81.9942 64.7089 71.3883 65.6251C64.4662 66.2272 56.8362 62.1698 52.7328 57.3664C52.7328 57.3664 52.3395 57.0653 52.3133 57.0653C49.4815 57.6936 46.7284 58.4265 45.6009 59.094C44.2899 59.8662 38.0758 63.6226 35.7816 73.6614C35.7685 73.6745 36.1618 73.7661 36.1749 73.7792C36.1618 73.753 53.0474 78.8313 53.0474 78.8313L51.6578 91.1475C51.6578 91.1475 70.523 93.6474 80.1588 94.5636C80.1982 94.5636 80.2244 94.5767 80.2637 94.5767C81.7845 94.5767 83.397 94.9955 84.7473 95.4798C85.6913 95.6499 86.7138 95.8855 87.7102 96.2127L83.5674 86.2132L85.298 85.5064L90.1749 97.2991C90.5682 97.5216 90.9877 97.7572 91.4072 98.0058L89.7553 90.1005C89.7553 90.1005 92.6133 86.5404 92.3905 81.5145C92.3773 81.1872 92.3511 80.8469 92.2987 80.5066C92.3249 80.4412 98.3293 78.491 98.6701 77.7712C98.4473 73.6876 95.1042 62.8111 89.2309 60.2851C87.3431 59.4081 82.8464 57.8114 81.9287 57.4972C80.6177 57.0522 78.743 56.5941 76.7109 56.1099" fill="#000091"/>
<rect width="3.18487" height="5.60361" transform="matrix(-0.907144 0.42082 -0.421961 -0.906614 59.4043 14.0273)" fill="#F95C5E"/>
<path fill-rule="evenodd" clip-rule="evenodd" d="M53.4275 11.3213C56.5264 11.3213 59.0385 8.81332 59.0385 5.71951C59.0385 2.6257 56.5264 0.117676 53.4275 0.117676C50.3286 0.117676 47.8164 2.6257 47.8164 5.71951C47.8164 8.81332 50.3286 11.3213 53.4275 11.3213Z" fill="#000091"/>
<path fill-rule="evenodd" clip-rule="evenodd" d="M72.9351 10.68C68.0844 8.95235 62.8798 9.81618 58.134 11.4915C42.9002 17.1326 42.1005 39.108 40.5928 45.8093C40.3568 46.8825 41.2483 47.9689 42.3758 47.9689L60.3627 50.3771L61.2148 42.3409C61.2148 42.3409 60.5855 40.7964 60.0743 39.5138L60.1005 40.3645C60.1005 40.3645 53.6635 41.2938 53.3619 35.3124C53.1784 31.5691 56.1937 31.0194 58.4879 31.1372C58.4748 30.7445 58.4617 30.522 58.4617 30.522C66.7997 30.2079 76.3568 24.8548 78.6904 20.2869C81.4697 21.936 82.8987 24.7501 83.5018 32.2628C88.9162 27.263 87.7232 16.6614 72.9351 10.68Z" fill="#000091"/>
<path fill-rule="evenodd" clip-rule="evenodd" d="M55.583 31.0764C56.8182 30.6383 58.3277 30.6209 59.9113 30.867C60.126 30.9004 60.2729 31.1012 60.2395 31.3154C60.206 31.5297 60.005 31.6764 59.7903 31.643C58.3244 31.4151 56.9324 31.4312 55.8463 31.8164C54.4292 32.319 53.6882 33.3992 53.7804 35.2796C53.9011 37.6742 55.0325 39.0403 56.8765 39.6578C57.8656 39.989 58.9208 40.0616 59.8437 39.9862L59.9186 39.9797L60.016 39.9696C60.0441 39.9663 60.0623 39.964 60.0699 39.9629C60.2848 39.9318 60.4843 40.0807 60.5154 40.2953C60.5465 40.5099 60.3974 40.709 60.1824 40.7401L60.1302 40.747C60.0759 40.7536 60.0012 40.7613 59.9078 40.7689C58.8878 40.8522 57.7325 40.7727 56.6264 40.4023C54.4872 39.686 53.1325 38.0502 52.9948 35.3186C52.8853 33.0882 53.8419 31.694 55.583 31.0764Z" fill="#000091"/>
<path fill-rule="evenodd" clip-rule="evenodd" d="M78.4194 20.3703C77.2987 22.5634 74.6406 24.9364 71.1857 26.7759C67.4117 28.7854 63.0282 30 58.7021 30.1034C58.5146 30.1079 58.3564 30.2438 58.3241 30.4282L58.2393 30.9108C58.2211 31.0228 58.2166 31.0811 58.232 31.1578L58.2476 31.2242C58.2491 31.2316 58.2475 31.2297 58.2493 31.2534L58.2527 31.3114C58.2568 31.4056 58.2573 31.5464 58.2527 31.7434L58.253 31.7699C58.3059 32.957 58.3982 34.3112 58.5034 35.4405C58.5043 35.4502 58.5056 35.4599 58.5072 35.4696C58.8251 37.3445 59.3327 39.0567 59.9534 40.5736C60.158 41.0737 60.3623 41.5206 60.5584 41.911L60.6228 42.0377L60.6866 42.1604C60.7677 42.3147 60.8333 42.432 60.88 42.5108L60.8889 42.5259L60.8843 42.5176C63.4164 47.0968 67.3945 50.0236 72.2444 50.4672C76.3141 50.8332 79.3608 48.5597 81.4615 44.4703C82.8818 41.7054 83.7696 38.18 83.9341 35.9035L83.9425 35.767C83.9744 35.2077 83.982 34.4943 83.9716 33.6893L83.9702 33.5882C83.9668 33.3572 83.962 33.1298 83.9564 32.9109L83.9431 32.4615L83.9345 32.2284C83.3559 25.0189 82.0733 22.0609 78.9714 20.2116C78.7761 20.0952 78.5228 20.168 78.4194 20.3703ZM78.9149 21.1034L78.9815 21.1478C81.4957 22.8432 82.5949 25.599 83.1328 32.0733L83.1492 32.2733L83.161 32.6113L83.1629 32.6763C83.1704 32.9264 83.1768 33.1917 83.1815 33.4634L83.1836 33.5998C83.1968 34.4941 83.1879 35.2774 83.1494 35.8489C82.9922 38.0242 82.13 41.448 80.7616 44.1119C78.7926 47.9447 76.0147 50.0178 72.3156 49.6851C67.7898 49.2711 64.0613 46.5571 61.6457 42.2685L61.5659 42.126L61.5271 42.059C61.5168 42.0411 61.5052 42.0204 61.4922 41.997C61.4355 41.8952 61.3715 41.7751 61.3013 41.6375C61.1021 41.2469 60.8924 40.7918 60.6815 40.2766L60.6256 40.1386C60.0698 38.7534 59.6114 37.2007 59.3122 35.5083L59.2853 35.3538L59.2694 35.1796C59.1783 34.166 59.0982 32.9918 59.0479 31.9322L59.0394 31.7471L59.0423 31.594C59.0459 31.3282 59.0394 31.1979 59.021 31.0889L59.0135 31.0498L59.0432 30.8786L59.1663 30.874C63.4731 30.6979 67.806 29.4655 71.5559 27.4689C74.9261 25.6744 77.5807 23.3773 78.8867 21.1522L78.9149 21.1034Z" fill="#000091"/>
<path fill-rule="evenodd" clip-rule="evenodd" d="M76.8545 28.7216C77.0609 28.686 77.2575 28.818 77.3045 29.019L77.3091 29.0417L79.0265 38.9627C79.0667 39.195 78.8946 39.408 78.6624 39.4215L78.6389 39.4222H76.1218C75.9046 39.4222 75.7285 39.2464 75.7285 39.0295C75.7285 38.8204 75.8922 38.6495 76.0987 38.6376L76.1218 38.6369L78.1717 38.6368L76.534 29.1754C76.4983 28.9693 76.6305 28.7731 76.8319 28.7262L76.8545 28.7216Z" fill="#000091"/>
<path fill-rule="evenodd" clip-rule="evenodd" d="M70.0525 28.3872C71.0283 27.6235 72.1156 27.3964 73.1754 28.0857C73.3574 28.2041 73.4088 28.4474 73.2902 28.6291C73.1717 28.8108 72.928 28.8621 72.746 28.7437C72.02 28.2715 71.277 28.4267 70.5378 29.0052C70.3806 29.1282 70.238 29.2606 70.1135 29.3927C70.079 29.4293 70.048 29.4637 70.0208 29.495L69.968 29.5582C69.835 29.7297 69.588 29.7611 69.4162 29.6283C69.2445 29.4956 69.213 29.2489 69.346 29.0775L69.3873 29.0263C69.4253 28.9808 69.4767 28.9224 69.5408 28.8544C69.691 28.6951 69.8622 28.5362 70.0525 28.3872Z" fill="#000091"/>
<path fill-rule="evenodd" clip-rule="evenodd" d="M71.7052 41.8131C71.9103 41.7416 72.1346 41.8496 72.2061 42.0544C72.4151 42.6521 72.8306 42.9819 73.4234 43.117C73.8212 43.2078 74.2585 43.2012 74.6718 43.134L74.7485 43.1207C74.7729 43.1162 74.7961 43.1116 74.8181 43.1071L74.8801 43.0934L74.9055 43.0872C75.1153 43.031 75.331 43.1552 75.3873 43.3646C75.4436 43.5741 75.3192 43.7894 75.1094 43.8457L75.0705 43.8556C75.0059 43.8712 74.9136 43.8904 74.7982 43.9091C74.2931 43.9912 73.7595 43.9992 73.2482 43.8826C72.4064 43.6907 71.7679 43.1839 71.4635 42.3132C71.3919 42.1084 71.5001 41.8845 71.7052 41.8131Z" fill="#000091"/>
<path fill-rule="evenodd" clip-rule="evenodd" d="M80.2959 28.3954C80.8847 28.1622 81.4886 28.0526 82.0708 28.1412C82.6903 28.2354 83.2272 28.5517 83.6358 29.1132C83.7634 29.2886 83.7245 29.5342 83.5488 29.6616C83.373 29.7891 83.1271 29.7502 82.9994 29.5748C82.7167 29.1863 82.3677 28.9807 81.9523 28.9175C81.5295 28.8532 81.0564 28.939 80.586 29.1253C80.4574 29.1762 80.3394 29.2308 80.2351 29.2849L80.1754 29.3167C80.1471 29.3322 80.1268 29.3439 80.1154 29.351C79.9306 29.4648 79.6883 29.4074 79.5742 29.2229C79.4602 29.0383 79.5176 28.7964 79.7025 28.6826C79.8248 28.6072 80.0297 28.5008 80.2959 28.3954Z" fill="#000091"/>
<path fill-rule="evenodd" clip-rule="evenodd" d="M73.4407 34.2048C73.4655 33.4896 73.1101 32.8969 72.647 32.8809C72.1839 32.8649 71.7884 33.4317 71.7636 34.1469C71.7388 34.8621 72.0942 35.4549 72.5573 35.4709C73.0204 35.4868 73.4159 34.92 73.4407 34.2048Z" fill="#000091"/>
<path fill-rule="evenodd" clip-rule="evenodd" d="M82.3118 34.4504C82.3366 33.7352 81.9812 33.1425 81.5181 33.1265C81.055 33.1105 80.6595 33.6773 80.6347 34.3925C80.6099 35.1077 80.9653 35.7005 81.4284 35.7165C81.8915 35.7325 82.287 35.1656 82.3118 34.4504Z" fill="#000091"/>
<path fill-rule="evenodd" clip-rule="evenodd" d="M64.6741 31.6205C64.5503 35.6684 66.9735 39.0626 70.1485 39.1591C73.3235 39.2556 75.9496 36.0149 76.0734 31.9669C76.1972 27.919 73.7741 24.5248 70.5991 24.4283C67.4241 24.3318 64.798 27.5725 64.6741 31.6205ZM65.4603 31.6444C65.5721 27.9903 67.8886 25.1316 70.5751 25.2133C73.2615 25.2949 75.399 28.289 75.2872 31.943C75.1755 35.5971 72.859 38.4558 70.1725 38.3741C67.4861 38.2925 65.3485 35.2985 65.4603 31.6444Z" fill="#F95C5E"/>
<path fill-rule="evenodd" clip-rule="evenodd" d="M78.7464 32.5409C78.6226 36.5889 81.0458 39.983 84.2208 40.0795C87.3958 40.176 90.0219 36.9353 90.1457 32.8873C90.2695 28.8394 87.8463 25.4452 84.6713 25.3488C81.4963 25.2523 78.8702 28.4929 78.7464 32.5409ZM79.5326 32.5648C79.6443 28.9107 81.9609 26.0521 84.6473 26.1337C87.3338 26.2154 89.4713 29.2094 89.3595 32.8635C89.2477 36.5175 86.9312 39.3762 84.2448 39.2945C81.5583 39.2129 79.4208 36.2189 79.5326 32.5648Z" fill="#F95C5E"/>
<path fill-rule="evenodd" clip-rule="evenodd" d="M78.9912 31.1372C79.2084 31.1364 79.3852 31.3115 79.3861 31.5283C79.3869 31.7374 79.2238 31.909 79.0174 31.9218L78.9943 31.9225L75.6644 31.9356C75.4472 31.9365 75.2704 31.7613 75.2695 31.5445C75.2687 31.3354 75.4318 31.1638 75.6382 31.1511L75.6613 31.1503L78.9912 31.1372Z" fill="#F95C5E"/>
<path fill-rule="evenodd" clip-rule="evenodd" d="M65.0928 30.014C65.3088 29.991 65.5026 30.1471 65.5256 30.3628C65.5478 30.5707 65.4032 30.758 65.1991 30.7917L65.1762 30.7948L58.0444 31.554C57.8284 31.577 57.6347 31.4208 57.6116 31.2052C57.5894 30.9972 57.7341 30.8099 57.9381 30.7762L57.961 30.7731L65.0928 30.014Z" fill="#F95C5E"/>
<path fill-rule="evenodd" clip-rule="evenodd" d="M83.2835 95.0436C83.3148 94.829 83.5145 94.6804 83.7294 94.7117C85.8187 95.0159 88.3651 95.8296 90.1788 96.8367L90.277 96.8918C93.6526 98.7975 95.5298 100.061 95.6876 100.877C95.8396 101.677 95.2686 102.019 94.4052 101.963C93.8717 101.928 93.2136 101.763 92.3868 101.494C92.1803 101.427 92.0675 101.205 92.1349 100.999C92.2022 100.793 92.4242 100.68 92.6307 100.748L92.7873 100.798C93.456 101.01 93.997 101.141 94.4098 101.176L94.4569 101.179C94.8836 101.207 94.9429 101.171 94.915 101.025C94.8306 100.588 92.8468 99.2492 89.9763 97.6243L89.8891 97.575C88.1589 96.593 85.6507 95.785 83.6159 95.4888C83.401 95.4575 83.2521 95.2581 83.2835 95.0436Z" fill="#000091"/>
<path fill-rule="evenodd" clip-rule="evenodd" d="M91.1833 99.7074L85.192 85.2185L83.4746 85.9253L88.1418 97.2206" fill="#F95C5E"/>
<path fill-rule="evenodd" clip-rule="evenodd" d="M36.1286 73.389L36.1017 73.3918C36.0649 73.3968 36.0441 73.4084 35.9263 73.4742L35.9047 73.4931L35.8612 73.5414L35.8221 73.6042L35.7941 73.6782L35.7863 73.7262L35.7845 73.7261C34.5491 82.7712 34.6649 93.6341 35.9024 97.7522C36.6074 100.134 39.2143 102.305 41.793 102.777C43.1028 103.016 44.44 103.233 45.803 103.429C51.6884 104.272 57.937 104.698 64.3546 104.776C69.1509 104.834 73.7356 104.697 77.9265 104.431L78.5181 104.393C79.6551 104.317 80.6803 104.236 81.5813 104.155L82.0653 104.111C82.1907 104.099 82.3084 104.087 82.4183 104.076L82.7295 104.044L84.9279 104.691L87.1533 105.351L87.2509 105.394C88.5929 105.975 89.4578 106.043 89.8393 105.507L89.8575 105.481C89.9337 105.364 89.9763 105.234 89.989 105.095L89.9898 105.085L90.0021 105.089C90.3281 105.203 90.6793 105.251 91.0368 105.239C91.6339 105.218 92.1925 105.025 92.4075 104.727L92.4248 104.702C92.4856 104.609 92.5148 104.512 92.518 104.411L92.518 104.393L92.5699 104.42C92.803 104.541 93.0301 104.64 93.2475 104.714C94.4576 105.127 95.3321 104.669 95.0678 103.495C94.8588 102.566 89.1409 97.0071 87.2918 96.1084L87.1746 96.0526C84.8699 94.9612 82.5224 94.2094 80.3722 94.1847L80.2825 94.184L80.2878 94.1851C80.2685 94.1813 80.258 94.1793 80.2413 94.1769L80.2149 94.1741L80.1875 94.172L79.3945 94.0962C76.5954 93.8234 72.9754 93.4189 68.7287 92.9108L67.3887 92.7496C67.0498 92.7086 66.708 92.667 66.3635 92.625C63.5306 92.2795 60.6138 91.9131 57.7333 91.5435L54.9587 91.185L52.0911 90.8089L53.4376 78.8753C53.458 78.6947 53.3516 78.5248 53.1826 78.4628L52.9715 78.3986L40.4425 74.6374L36.5579 73.4798L36.3109 73.4086L36.2592 73.3954L36.2383 73.3916L36.2048 73.3872C36.1925 73.3862 36.1788 73.3868 36.1286 73.389ZM94.3009 103.671L94.3003 103.668C94.357 103.919 94.3275 104.013 94.2617 104.048C94.142 104.11 93.8705 104.096 93.5019 103.971C92.5782 103.656 91.3917 102.785 90.3673 101.598C90.3456 101.572 90.3207 101.55 90.2932 101.531L90.1228 101.413C89.7368 101.146 89.2916 101.657 89.6096 102.002L89.7477 102.15C90.1446 102.573 91.0957 103.576 91.302 103.812L91.3364 103.851C91.4933 104.033 91.6028 104.175 91.6689 104.283L91.6858 104.312L91.67 104.319C91.6423 104.331 91.6112 104.344 91.5772 104.355C91.4174 104.411 91.2179 104.447 91.0094 104.454L90.9576 104.455C90.4923 104.461 90.0572 104.326 89.7288 104.044L89.7188 104.035L89.7109 104.024C89.6205 103.906 89.5328 103.813 89.3511 103.631C88.997 103.278 88.4504 103.775 88.7705 104.16C88.9552 104.382 89.0934 104.611 89.1606 104.803C89.2119 104.949 89.2113 105.034 89.1982 105.052L89.1956 105.054C89.1915 105.056 89.1819 105.061 89.1613 105.067C89.0996 105.085 89.0039 105.091 88.8753 105.079C88.5441 105.046 88.0665 104.898 87.4506 104.624L87.4268 104.614L87.2093 104.548L83.5907 103.478C83.086 103.33 82.8517 103.264 82.8096 103.258C82.785 103.255 82.7602 103.254 82.7355 103.255L82.6821 103.26L82.4046 103.288L81.9907 103.329C81.8417 103.343 81.6817 103.358 81.511 103.373L81.1378 103.406C80.2512 103.482 79.253 103.558 78.1541 103.63C73.9073 103.906 69.2455 104.05 64.3642 103.991C57.9787 103.913 51.7636 103.49 45.9148 102.651C44.5616 102.457 43.2344 102.242 41.9348 102.004C39.6374 101.584 37.2743 99.6165 36.6563 97.5281L36.6206 97.4064C35.4785 93.4048 35.359 83.1135 36.4922 74.3709L36.5038 74.2824L39.7377 75.2463L45.8444 77.0773L52.6191 79.1127L51.2663 91.1036C51.2432 91.3083 51.3824 91.4947 51.5826 91.5331L51.7946 91.5619L54.5256 91.9206C55.0181 91.9848 55.5322 92.0515 56.0654 92.1204C59.4511 92.5582 62.9181 92.9959 66.2681 93.4045L67.9686 93.6105L69.3448 93.7752C73.6393 94.2857 77.2615 94.6852 80.0091 94.944L80.1361 94.9556L80.1335 94.9552C80.1822 94.9649 80.2134 94.9693 80.2631 94.9693C82.3307 94.9693 84.6688 95.7234 86.9495 96.8154C87.7885 97.2232 89.443 98.6055 91.2551 100.362L91.3206 100.425C92.0833 101.167 92.8088 101.913 93.3656 102.527L93.5248 102.704C93.7583 102.966 93.9494 103.193 94.0885 103.372L94.1372 103.435C94.1832 103.496 94.2213 103.55 94.251 103.595L94.2651 103.617C94.2887 103.654 94.3012 103.678 94.3009 103.671Z" fill="#000091"/>
<path fill-rule="evenodd" clip-rule="evenodd" d="M84.7729 101.306C85.5505 101.384 87.9273 102.371 88.9353 103.231C88.9798 103.268 89.0137 103.314 89.0368 103.364L89.0432 103.379L89.0483 103.383C89.3021 103.59 89.5199 103.803 89.6977 104.023L89.7381 104.074C89.8711 104.245 89.8398 104.492 89.6681 104.625C89.4964 104.758 89.2494 104.726 89.1163 104.555C88.7264 104.053 88.0265 103.554 87.1096 103.085C86.5657 102.806 85.9806 102.556 85.3952 102.339C85.1901 102.263 84.9999 102.196 84.8295 102.14L84.6727 102.089L84.6201 102.073C84.1645 101.935 84.2993 101.259 84.7729 101.306Z" fill="#000091"/>
<path fill-rule="evenodd" clip-rule="evenodd" d="M85.8325 99.5926C85.8814 99.3813 86.0926 99.2497 86.3043 99.2985L86.358 99.3116C86.3937 99.3207 86.4389 99.3327 86.4928 99.3478L86.5262 99.3573C86.6954 99.4055 86.8831 99.4653 87.0848 99.5375C87.661 99.7436 88.2374 100.008 88.778 100.339C89.3083 100.663 89.7761 101.035 90.1637 101.458C90.3102 101.618 90.299 101.866 90.1386 102.013C89.9783 102.159 89.7295 102.148 89.583 101.988C89.2488 101.623 88.838 101.296 88.3672 101.008C87.8766 100.709 87.3482 100.466 86.8195 100.277C86.6577 100.219 86.5063 100.17 86.3684 100.129L86.3102 100.112C86.2678 100.1 86.2295 100.09 86.1955 100.081L86.1271 100.064C85.9154 100.015 85.7835 99.8039 85.8325 99.5926Z" fill="#000091"/>
<path fill-rule="evenodd" clip-rule="evenodd" d="M99.3255 105.322H64.2956C63.4959 105.322 62.8535 105.964 62.8535 106.762V107.809C62.8535 108.607 63.4959 109.249 64.2956 109.249H99.3255C100.125 109.249 100.768 108.607 100.768 107.809V106.762C100.768 105.964 100.112 105.322 99.3255 105.322Z" fill="#F95C5E"/>
<path fill-rule="evenodd" clip-rule="evenodd" d="M107.834 67.1958C107.047 67.1958 106.379 67.7848 106.195 68.6224L97.582 108.581H60.4807C60.4807 108.581 59.4581 113.856 65.4232 113.856C67.901 113.856 84.3147 113.843 102.642 113.83C102.105 113.058 101.843 111.932 102.013 111.107L111.164 68.9235C111.387 67.9026 112.213 67.1958 113.183 67.1958H107.834ZM77.7334 111.801C77.7334 112.364 77.2877 112.809 76.724 112.809H74.9279C74.3642 112.809 73.9184 112.364 73.9184 111.801C73.9184 111.238 74.3642 110.793 74.9279 110.793H76.724C77.2746 110.793 77.7334 111.251 77.7334 111.801Z" fill="#000091"/>
<path fill-rule="evenodd" clip-rule="evenodd" d="M73.2203 106.638C73.8699 106.511 74.5504 106.497 75.1884 106.55L75.2887 106.559C75.4354 106.573 75.5441 106.587 75.6065 106.597C75.821 106.631 75.967 106.833 75.9327 107.047C75.8995 107.253 75.7108 107.396 75.505 107.375L75.4161 107.363C75.3578 107.355 75.2902 107.348 75.2144 107.341C74.6164 107.284 73.9691 107.292 73.3705 107.408C72.1759 107.64 71.4902 108.23 71.4426 109.317L71.4409 109.367L71.4408 109.435C71.4695 110.564 72.1578 111.168 73.3705 111.403C73.9691 111.52 74.6164 111.528 75.2144 111.471L75.3014 111.462C75.329 111.459 75.3552 111.456 75.38 111.453L75.458 111.443C75.4691 111.442 75.4771 111.44 75.4821 111.44C75.6966 111.405 75.8983 111.551 75.9327 111.765C75.967 111.979 75.821 112.181 75.6065 112.215L75.529 112.226C75.4751 112.233 75.4065 112.241 75.3246 112.25L75.2887 112.253C74.6221 112.316 73.9041 112.307 73.2203 112.174C71.6995 111.879 70.7168 111.028 70.656 109.499L70.6543 109.445L70.6544 109.357C70.694 107.803 71.6818 106.936 73.2203 106.638Z" fill="#000091"/>
<rect width="10.4615" height="10.2612" transform="matrix(0.997821 0.0659821 -0.0661988 0.997806 120.336 32.2244)" fill="#F95C5E"/>
<path fill-rule="evenodd" clip-rule="evenodd" d="M129.042 38.1651L126.609 38.0045C126.393 37.9902 126.205 38.154 126.191 38.3704L126.03 40.7997C126.015 41.0161 126.179 41.2031 126.396 41.2175L128.829 41.3781C129.046 41.3924 129.233 41.2286 129.247 41.0122L129.409 38.5828C129.423 38.3664 129.259 38.1794 129.042 38.1651ZM128.598 38.9228L128.488 40.5685L126.84 40.4596L126.95 38.8139L128.598 38.9228Z" fill="#000091"/>
<path fill-rule="evenodd" clip-rule="evenodd" d="M128.759 38.2763C128.923 38.1332 129.171 38.1493 129.314 38.3123C129.452 38.469 129.443 38.7044 129.297 38.8494L129.278 38.8664L126.696 41.1307C126.533 41.2738 126.284 41.2577 126.141 41.0948C126.003 40.9381 126.013 40.7027 126.159 40.5576L126.177 40.5406L128.759 38.2763Z" fill="#000091"/>
<path fill-rule="evenodd" clip-rule="evenodd" d="M129.294 34.0982L121.59 33.5894C121.373 33.5751 121.186 33.7389 121.171 33.9554L121.017 36.2806C121.003 36.497 121.167 36.684 121.383 36.6984L129.088 37.2071C129.305 37.2214 129.492 37.0576 129.506 36.8412L129.661 34.516C129.675 34.2995 129.511 34.1125 129.294 34.0982ZM128.85 34.8559L128.747 36.3975L121.828 35.9405L121.93 34.3989L128.85 34.8559Z" fill="#000091"/>
<path fill-rule="evenodd" clip-rule="evenodd" d="M121.166 40.1689L125.086 40.4306C125.302 40.4451 125.466 40.6322 125.452 40.8486C125.438 41.0573 125.263 41.2169 125.056 41.2151L125.033 41.2142L121.113 40.9524C120.896 40.9379 120.732 40.7508 120.747 40.5344C120.761 40.3258 120.936 40.1661 121.143 40.168L121.166 40.1689Z" fill="#000091"/>
<path fill-rule="evenodd" clip-rule="evenodd" d="M121.244 38.9516L125.164 39.2133C125.38 39.2278 125.544 39.415 125.53 39.6313C125.516 39.84 125.341 39.9996 125.134 39.9978L125.111 39.9969L121.191 39.7351C120.975 39.7207 120.811 39.5335 120.825 39.3171C120.839 39.1085 121.014 38.9489 121.221 38.9507L121.244 38.9516Z" fill="#000091"/>
<path fill-rule="evenodd" clip-rule="evenodd" d="M121.323 37.7474L125.242 37.9961C125.459 38.0098 125.624 38.1964 125.61 38.4128C125.597 38.6215 125.422 38.7817 125.216 38.7806L125.193 38.7798L121.273 38.5311C121.056 38.5174 120.891 38.3308 120.905 38.1144C120.918 37.9057 121.093 37.7454 121.299 37.7466L121.323 37.7474Z" fill="#000091"/>
<path fill-rule="evenodd" clip-rule="evenodd" d="M129.192 34.1052C129.404 34.0562 129.615 34.1878 129.664 34.3991C129.711 34.6028 129.59 34.8062 129.392 34.8644L129.37 34.8702L121.504 36.6895C121.292 36.7385 121.081 36.6069 121.032 36.3956C120.984 36.1919 121.105 35.9885 121.304 35.9303L121.326 35.9245L129.192 34.1052Z" fill="#000091"/>
<path fill-rule="evenodd" clip-rule="evenodd" d="M133.143 21.2388L133.067 21.4521C132.642 22.7555 133.347 24.1539 134.64 24.5738L143.488 27.4791C144.761 27.9078 146.137 27.2209 146.591 25.9521L146.683 25.6923C147.108 24.3888 146.402 22.9905 145.109 22.5706L136.26 19.6649C134.964 19.2439 133.563 19.9479 133.143 21.2388ZM136.017 20.4117L144.865 23.3169C145.745 23.6026 146.226 24.5569 145.938 25.4402L145.862 25.6535C145.56 26.547 144.612 27.0287 143.737 26.734L134.885 23.8274C134.005 23.5418 133.524 22.5875 133.812 21.7042L133.887 21.4909C134.176 20.6048 135.132 20.1244 136.017 20.4117Z" fill="#000091"/>
<path fill-rule="evenodd" clip-rule="evenodd" d="M144.005 28.2317C145.88 28.2317 147.4 26.714 147.4 24.8418C147.4 22.9696 145.88 21.4519 144.005 21.4519C142.13 21.4519 140.609 22.9696 140.609 24.8418C140.609 26.714 142.13 28.2317 144.005 28.2317Z" fill="#F95C5E"/>
<rect width="20.7374" height="20.7616" transform="matrix(0.38103 0.924563 -0.925004 0.379957 154.4 34.0596)" fill="#F95C5E"/>
<path fill-rule="evenodd" clip-rule="evenodd" d="M150.221 61.207C150.363 61.0426 150.611 61.0239 150.776 61.1652C150.934 61.3011 150.957 61.5356 150.833 61.6996L150.818 61.7189L150.175 62.465C150.039 62.6231 149.804 62.6465 149.64 62.5224L149.621 62.5068L148.873 61.8654C148.709 61.7241 148.69 61.4762 148.831 61.3117C148.968 61.1536 149.202 61.1302 149.367 61.2543L149.386 61.2699L149.835 61.6554L150.221 61.207Z" fill="#000091"/>
<path fill-rule="evenodd" clip-rule="evenodd" d="M147.799 59.9086L146.213 58.5506C146.048 58.4094 145.8 58.4283 145.659 58.5929C145.517 58.7575 145.536 59.0054 145.701 59.1466L147.287 60.5047C147.452 60.6459 147.7 60.6269 147.842 60.4623C147.983 60.2977 147.964 60.0498 147.799 59.9086ZM144.627 57.1925L143.042 55.8345C142.877 55.6933 142.628 55.7122 142.487 55.8768C142.346 56.0414 142.365 56.2893 142.529 56.4305L144.115 57.7886C144.28 57.9298 144.528 57.9108 144.67 57.7462C144.811 57.5816 144.792 57.3337 144.627 57.1925ZM141.456 54.4764L139.87 53.1183C139.705 52.9772 139.457 52.9961 139.315 53.1607C139.174 53.3253 139.193 53.5732 139.358 53.7144L140.944 55.0725C141.108 55.2136 141.357 55.1947 141.498 55.0301C141.64 54.8655 141.621 54.6176 141.456 54.4764ZM138.284 51.7603L136.698 50.4022C136.533 50.2611 136.285 50.28 136.144 50.4446C136.002 50.6092 136.021 50.8571 136.186 50.9983L137.772 52.3564C137.937 52.4975 138.185 52.4786 138.326 52.314C138.468 52.1494 138.449 51.9015 138.284 51.7603Z" fill="#000091"/>
<path fill-rule="evenodd" clip-rule="evenodd" d="M134.45 47.7129C134.592 47.5484 134.84 47.5297 135.005 47.6711C135.163 47.807 135.187 48.0414 135.062 48.2055L135.047 48.2248L134.663 48.67L135.107 49.0428C135.267 49.1771 135.292 49.4113 135.17 49.5765L135.154 49.596C135.02 49.7555 134.785 49.7813 134.62 49.6589L134.6 49.6435L133.853 49.0152C133.692 48.8799 133.667 48.6436 133.792 48.4784L133.808 48.4589L134.45 47.7129Z" fill="#000091"/>
<path fill-rule="evenodd" clip-rule="evenodd" d="M136.411 46.6407L137.77 45.0567C137.911 44.8921 137.892 44.6442 137.727 44.5031C137.562 44.362 137.314 44.3811 137.173 44.5458L135.813 46.1297C135.672 46.2944 135.691 46.5423 135.856 46.6834C136.021 46.8245 136.269 46.8054 136.411 46.6407ZM139.13 43.4728L140.489 41.8888C140.63 41.7241 140.611 41.4762 140.446 41.3351C140.281 41.194 140.033 41.2132 139.892 41.3778L138.532 42.9618C138.391 43.1265 138.41 43.3744 138.575 43.5155C138.74 43.6566 138.988 43.6374 139.13 43.4728ZM141.848 40.3048L143.208 38.7209C143.349 38.5562 143.33 38.3083 143.165 38.1672C143 38.0261 142.752 38.0452 142.611 38.2099L141.251 39.7939C141.11 39.9585 141.129 40.2064 141.294 40.3475C141.459 40.4886 141.707 40.4695 141.848 40.3048ZM144.567 37.1369L145.927 35.5529C146.068 35.3882 146.049 35.1404 145.884 34.9993C145.719 34.8582 145.471 34.8773 145.329 35.042L143.97 36.6259C143.829 36.7906 143.848 37.0385 144.013 37.1796C144.178 37.3207 144.426 37.3016 144.567 37.1369Z" fill="#000091"/>
<path fill-rule="evenodd" clip-rule="evenodd" d="M147.337 32.7136C147.473 32.5555 147.708 32.5321 147.872 32.6562L147.892 32.6718L148.639 33.3131C148.804 33.4545 148.822 33.7024 148.681 33.8669C148.545 34.025 148.31 34.0484 148.146 33.9243L148.126 33.9086L147.677 33.5231L147.291 33.9716C147.155 34.1297 146.92 34.1531 146.756 34.029L146.737 34.0134C146.578 33.8774 146.555 33.643 146.679 33.479L146.695 33.4596L147.337 32.7136Z" fill="#000091"/>
<path fill-rule="evenodd" clip-rule="evenodd" d="M149.713 35.27L151.299 36.6281C151.464 36.7693 151.712 36.7503 151.854 36.5857C151.995 36.4211 151.976 36.1732 151.811 36.032L150.226 34.674C150.061 34.5328 149.812 34.5518 149.671 34.7164C149.53 34.881 149.549 35.1288 149.713 35.27ZM152.885 37.9861L154.471 39.3442C154.636 39.4854 154.884 39.4664 155.026 39.3018C155.167 39.1372 155.148 38.8893 154.983 38.7481L153.397 37.3901C153.232 37.2489 152.984 37.2679 152.843 37.4325C152.701 37.5971 152.72 37.8449 152.885 37.9861ZM156.057 40.7022L157.643 42.0603C157.808 42.2015 158.056 42.1825 158.197 42.0179C158.339 41.8533 158.32 41.6054 158.155 41.4642L156.569 40.1062C156.404 39.965 156.156 39.984 156.014 40.1486C155.873 40.3132 155.892 40.561 156.057 40.7022ZM159.228 43.4183L160.814 44.7764C160.979 44.9176 161.227 44.8986 161.369 44.734C161.51 44.5694 161.491 44.3215 161.326 44.1803L159.741 42.8223C159.576 42.6811 159.327 42.7001 159.186 42.8647C159.045 43.0293 159.064 43.2772 159.228 43.4183Z" fill="#000091"/>
<path fill-rule="evenodd" clip-rule="evenodd" d="M162.346 45.5826C162.481 45.4231 162.715 45.3974 162.881 45.5198L162.901 45.5352L163.648 46.1634C163.808 46.2977 163.833 46.5319 163.711 46.6972L163.695 46.7167L163.066 47.4627C162.926 47.6286 162.678 47.6498 162.512 47.5102C162.352 47.3758 162.326 47.1417 162.449 46.9764L162.464 46.9569L162.84 46.5112L162.394 46.1359C162.234 46.0016 162.208 45.7674 162.331 45.6021L162.346 45.5826Z" fill="#000091"/>
<path fill-rule="evenodd" clip-rule="evenodd" d="M161.103 48.5381L159.743 50.122C159.602 50.2867 159.621 50.5346 159.786 50.6757C159.951 50.8168 160.199 50.7977 160.341 50.633L161.7 49.049C161.841 48.8843 161.822 48.6365 161.657 48.4954C161.492 48.3543 161.244 48.3734 161.103 48.5381ZM158.384 51.706L157.025 53.29C156.883 53.4546 156.902 53.7025 157.067 53.8436C157.232 53.9847 157.481 53.9656 157.622 53.8009L158.981 52.217C159.123 52.0523 159.103 51.8044 158.939 51.6633C158.774 51.5222 158.525 51.5413 158.384 51.706ZM155.665 54.8739L154.306 56.4579C154.164 56.6226 154.183 56.8705 154.348 57.0115C154.513 57.1526 154.762 57.1335 154.903 56.9689L156.262 55.3849C156.404 55.2202 156.385 54.9723 156.22 54.8312C156.055 54.6901 155.806 54.7093 155.665 54.8739ZM152.946 58.0419L151.587 59.6258C151.445 59.7905 151.465 60.0384 151.63 60.1795C151.795 60.3206 152.043 60.3015 152.184 60.1368L153.544 58.5528C153.685 58.3882 153.666 58.1403 153.501 57.9992C153.336 57.8581 153.088 57.8772 152.946 58.0419Z" fill="#000091"/>
<path fill-rule="evenodd" clip-rule="evenodd" d="M150.369 53.9078L150.882 53.3125L150.972 53.392L151.011 53.4265C151.1 53.5066 151.201 53.5998 151.313 53.7059L151.362 53.7521C151.737 54.1089 152.155 54.5291 152.605 55.0105C153.887 56.3839 155.169 57.974 156.365 59.7626C157.915 62.0802 159.205 64.5599 160.148 67.1834L160.213 67.3667L159.471 67.6272C158.546 65.0013 157.262 62.5181 155.711 60.1987C154.539 58.4472 153.284 56.8898 152.029 55.546L151.866 55.3727C151.49 54.975 151.139 54.6239 150.82 54.3211L150.683 54.1924C150.625 54.1383 150.571 54.0885 150.521 54.0428L150.406 53.9398L150.369 53.9078Z" fill="#000091"/>
<path fill-rule="evenodd" clip-rule="evenodd" d="M150.678 54.6179C151.228 54.6179 151.674 54.1725 151.674 53.6231C151.674 53.0738 151.228 52.6284 150.678 52.6284C150.128 52.6284 149.682 53.0738 149.682 53.6231C149.682 54.1725 150.128 54.6179 150.678 54.6179Z" fill="#000091"/>
<path fill-rule="evenodd" clip-rule="evenodd" d="M167.34 67.1958H160.143C161.611 71.1354 162.175 75.1274 161.795 79.0539C161.336 83.8966 159.448 88.8048 156.197 93.6606C156.118 93.7783 156 93.8307 155.869 93.8307C155.79 93.8307 155.711 93.8045 155.646 93.7653C155.462 93.6475 155.423 93.3988 155.541 93.2155C161.401 84.4725 162.647 75.9781 159.317 67.2743C159.304 67.2482 159.304 67.222 159.291 67.1958H113.196C113.419 67.1958 113.589 67.366 113.589 67.5885C113.589 67.811 113.419 67.9811 113.196 67.9811C112.593 67.9811 112.081 68.4392 111.937 69.0936L102.787 111.278C102.642 111.932 102.918 112.927 103.376 113.516C103.468 113.633 103.599 113.751 103.744 113.843C129.282 113.83 158.084 113.804 158.084 113.804C158.871 113.804 159.54 113.215 159.723 112.377L168.966 69.4732C169.228 68.3083 168.428 67.1958 167.34 67.1958ZM138.354 87.1949C138.354 87.1949 136.479 87.9409 135.863 85.7421C135.85 85.7421 138.197 85.1662 138.354 87.1949ZM140.216 95.6107C138.734 97.1813 136.296 97.6525 134.775 96.6578C133.254 95.6631 133.215 93.5689 134.696 91.9983C135.378 91.2654 136.269 90.7811 137.174 90.5586C137.056 90.3492 136.977 90.1005 136.977 89.8125C136.977 88.9356 137.633 88.098 138.446 87.954C138.459 87.954 138.472 87.954 138.485 87.954C138.695 87.3127 139.127 86.1085 139.547 85.6112C139.691 85.441 139.94 85.4279 140.098 85.5719C140.268 85.7159 140.281 85.9646 140.137 86.1216C139.848 86.4619 139.494 87.4174 139.272 88.0849C139.665 88.2943 139.927 88.7393 139.927 89.2759C139.927 89.7733 139.717 90.2445 139.39 90.5979C139.652 90.6895 139.914 90.7942 140.137 90.9512C141.658 91.959 141.697 94.0401 140.216 95.6107Z" fill="#000091"/>
<path fill-rule="evenodd" clip-rule="evenodd" d="M160.05 66.9863C159.971 66.79 159.748 66.6852 159.539 66.7638C159.355 66.8292 159.263 67.0125 159.29 67.1957H160.115C160.102 67.1303 160.076 67.0648 160.05 66.9863Z" fill="#000091"/>
<path fill-rule="evenodd" clip-rule="evenodd" d="M123.68 39.1986L109.668 43.7763C109.462 43.8437 109.35 44.0655 109.417 44.2716L114.012 58.2689C114.079 58.475 114.302 58.5875 114.508 58.5201L128.519 53.9424C128.725 53.875 128.838 53.6532 128.77 53.4471L124.176 39.4498C124.108 39.2437 123.886 39.1312 123.68 39.1986ZM123.551 40.0672L127.9 53.318L114.636 57.6515L110.287 44.4007L123.551 40.0672Z" fill="#000091"/>
<path fill-rule="evenodd" clip-rule="evenodd" d="M123.477 39.4003C123.576 39.2073 123.813 39.1309 124.007 39.2298C124.193 39.3249 124.271 39.5479 124.188 39.7366L124.178 39.7582L114.712 58.2129C114.613 58.4059 114.376 58.4822 114.183 58.3834C113.997 58.2882 113.919 58.0653 114.002 57.8766L114.012 57.8549L123.477 39.4003Z" fill="#000091"/>
<path fill-rule="evenodd" clip-rule="evenodd" d="M109.463 43.9825C109.557 43.7963 109.78 43.7177 109.969 43.7997L109.991 43.8099L128.607 53.2335C128.801 53.3316 128.878 53.5679 128.78 53.7613C128.686 53.9475 128.463 54.0261 128.273 53.9441L128.252 53.9339L109.635 44.5103C109.442 44.4122 109.364 44.1759 109.463 43.9825Z" fill="#000091"/>
<path fill-rule="evenodd" clip-rule="evenodd" d="M181.001 113.542C181.218 113.542 181.394 113.718 181.394 113.934C181.394 114.144 181.23 114.314 181.024 114.326L181.001 114.327H1.09252C0.875305 114.327 0.699219 114.151 0.699219 113.934C0.699219 113.725 0.862952 113.554 1.06941 113.542L1.09252 113.542H181.001Z" fill="#000091"/>
<path fill-rule="evenodd" clip-rule="evenodd" d="M89.2438 104.105C89.257 104.118 89.257 104.118 89.2701 104.131C89.2701 104.118 89.257 104.105 89.2438 104.105Z" fill="#000091"/>
<path fill-rule="evenodd" clip-rule="evenodd" d="M90.097 101.972L90.0577 101.88L89.9004 101.762C89.9659 101.828 90.0315 101.893 90.097 101.972Z" fill="#000091"/>
<path fill-rule="evenodd" clip-rule="evenodd" d="M84.7344 101.697C84.7344 101.697 87.4875 102.521 88.9558 103.817L88.6674 103.516C87.5137 102.534 85.1146 101.736 84.7344 101.697Z" fill="#000091"/>
<path fill-rule="evenodd" clip-rule="evenodd" d="M88.9551 103.817L89.1517 104.027C89.1255 103.987 89.0993 103.961 89.0731 103.922C89.0337 103.883 88.9944 103.856 88.9551 103.817Z" fill="#000091"/>
<path fill-rule="evenodd" clip-rule="evenodd" d="M89.0742 103.922C89.1398 103.974 89.1922 104.04 89.2447 104.092C89.1922 104.04 89.1398 103.987 89.0742 103.922Z" fill="#000091"/>
<path fill-rule="evenodd" clip-rule="evenodd" d="M89.4268 104.314C89.3744 104.249 89.322 104.197 89.2695 104.131C89.322 104.183 89.3744 104.249 89.4268 104.314Z" fill="#000091"/>
<path fill-rule="evenodd" clip-rule="evenodd" d="M86.2148 99.6812L89.8725 101.723C88.4829 100.205 86.2148 99.6812 86.2148 99.6812Z" fill="#000091"/>
<path fill-rule="evenodd" clip-rule="evenodd" d="M61.1155 42.8949C61.1492 42.6807 61.3506 42.5343 61.5651 42.5681C61.772 42.6006 61.9157 42.7887 61.8954 42.9941L61.8925 43.017L59.9129 55.5688C59.8902 55.7128 59.7896 55.8317 59.6528 55.8788L59.6283 55.8864L53.4447 57.5787L53.5721 57.7175C57.9611 62.4539 65.1049 65.6963 71.164 65.2492L71.355 65.2339L71.5666 65.2145C73.8738 64.9912 75.4972 64.4328 76.5123 63.6003C77.3737 62.8939 77.7815 62.003 77.8163 60.951C77.8446 60.0938 77.6239 59.1673 77.2253 58.2347C77.0077 57.7255 76.7547 57.2587 76.5513 56.938L76.5163 56.8837L74.1995 56.4432C74.0217 56.4093 73.8911 56.2592 73.8805 56.0809L73.8798 56.0574V50.0368C73.8798 49.8199 74.0559 49.6441 74.2731 49.6441C74.4825 49.6441 74.6538 49.8076 74.6657 50.0137L74.6664 50.0368V55.7324L76.8245 56.1429C76.9158 56.1603 76.9977 56.2093 77.056 56.2809L77.0728 56.303C77.3195 56.6538 77.6623 57.2563 77.9488 57.9265C78.3888 58.956 78.6351 59.9898 78.6024 60.9769C78.5104 63.7612 76.2715 65.5974 71.423 66.0162C64.8005 66.5922 56.9594 62.9183 52.4341 57.6211C52.2524 57.4083 52.346 57.0824 52.6067 56.9945L52.6294 56.9876L59.1752 55.196L61.1155 42.8949Z" fill="#000091"/>
</svg>
