<svg width="72" height="72" viewBox="0 0 72 72" fill="none" xmlns="http://www.w3.org/2000/svg">
<g clip-path="url(#clip0_53_8684)">
<path fill-rule="evenodd" clip-rule="evenodd" d="M6 40.196V54.5219C9.15117 60.0299 13.7852 64.5845 19.3196 67.6562H45.6412V29.3655H16.8305C10.8459 29.3655 6 34.2115 6 40.196Z" fill="#000091"/>
<path fill-rule="evenodd" clip-rule="evenodd" d="M36.1346 72C42.6752 72 48.7922 70.1993 54.0088 67.0482C52.7113 56.6149 50.0368 34.7421 50.0632 34.6626C50.0897 34.5567 28.111 35.0069 25.9926 35.2187C23.3975 35.457 20.9348 37.6549 20.2728 40.0911H20.2463L11.7461 61.9639C17.9955 68.1603 26.6016 72 36.1346 72Z" fill="#6A6AEC"/>
<path fill-rule="evenodd" clip-rule="evenodd" d="M41.0862 30.8742L41.8011 34.2107L44.714 34.3431C44.9523 34.7668 46.4882 42.6315 39.1001 42.8963C34.2542 43.0817 31.3149 38.9507 29.3818 35.2964L33.4333 34.8727L31.818 25.7105L41.0862 30.8742Z" fill="white"/>
<path fill-rule="evenodd" clip-rule="evenodd" d="M31.1676 25.8263L32.6593 34.2889L29.3145 34.6389C28.8482 34.6876 28.5789 35.1924 28.7982 35.6068C30.0085 37.8949 31.2385 39.668 32.7002 41.0227C34.5649 42.7508 36.6914 43.6519 39.127 43.5587C42.6793 43.4314 44.7133 41.6485 45.411 38.8398C45.8508 37.0688 45.666 34.6835 45.2925 34.0194L45.2671 33.9779C45.1509 33.8028 44.9575 33.6923 44.7456 33.6827L42.3429 33.5734L41.735 30.7364C41.695 30.5498 41.5765 30.3896 41.4099 30.2968L32.1418 25.1331C31.6547 24.8617 31.0708 25.2772 31.1676 25.8263ZM32.7135 26.9673L40.5032 31.3074L41.1556 34.3508L41.1671 34.3966C41.2455 34.6671 41.488 34.8605 41.7728 34.8734L44.2025 34.9837L44.1964 34.9505C44.2483 35.2142 44.2916 35.5327 44.318 35.8735C44.3874 36.7683 44.3342 37.6838 44.1262 38.5211C43.5662 40.7755 42.0202 42.1306 39.0782 42.2361L38.9648 42.2396C35.4968 42.3232 32.8907 40.1201 30.5088 35.9693L30.4423 35.8525L33.5039 35.5325C33.8858 35.4926 34.1537 35.1372 34.087 34.7591L32.7135 26.9673Z" fill="#000091"/>
<path fill-rule="evenodd" clip-rule="evenodd" d="M32.7515 25.3593C33.2715 24.214 32.7213 22.8445 31.5228 22.3004C30.3242 21.7562 28.9311 22.2436 28.4112 23.3889C27.8912 24.5341 28.4413 25.9037 29.6399 26.4478C30.8385 26.9919 32.2316 26.5046 32.7515 25.3593Z" fill="white"/>
<path fill-rule="evenodd" clip-rule="evenodd" d="M27.8089 23.1135C27.1349 24.598 27.8412 26.3564 29.3668 27.0489C30.8923 27.7415 32.6809 27.1158 33.3549 25.6313C34.0288 24.1468 33.3225 22.3884 31.797 21.6958C30.2715 21.0033 28.4828 21.629 27.8089 23.1135ZM29.0139 23.6595C29.3799 22.8535 30.3774 22.5045 31.249 22.9002C32.1206 23.2959 32.5146 24.2766 32.1486 25.0827C31.7827 25.8887 30.7851 26.2377 29.9135 25.842C29.0419 25.4463 28.648 24.4656 29.0139 23.6595Z" fill="#000091"/>
<path fill-rule="evenodd" clip-rule="evenodd" d="M49.1783 24.2772C49.6982 23.1319 49.1481 21.7623 47.9495 21.2182C46.751 20.6741 45.3579 21.1614 44.8379 22.3067C44.318 23.452 44.8681 24.8215 46.0667 25.3657C47.2652 25.9098 48.6583 25.4225 49.1783 24.2772Z" fill="white"/>
<path fill-rule="evenodd" clip-rule="evenodd" d="M44.2346 22.0329C43.5607 23.5174 44.267 25.2758 45.7925 25.9683C47.318 26.6609 49.1067 26.0352 49.7807 24.5507C50.4546 23.0662 49.7483 21.3078 48.2228 20.6152C46.6973 19.9227 44.9086 20.5484 44.2346 22.0329ZM45.4399 22.5789C45.8059 21.7728 46.8034 21.4239 47.675 21.8196C48.5466 22.2153 48.9406 23.196 48.5746 24.002C48.2087 24.8081 47.2111 25.1571 46.3395 24.7614C45.4679 24.3657 45.074 23.385 45.4399 22.5789Z" fill="#000091"/>
<path fill-rule="evenodd" clip-rule="evenodd" d="M40.7893 32.8607C44.8739 32.0312 47.3194 27.0948 46.2513 21.8349C45.1832 16.575 41.0061 12.9834 36.9214 13.8128C32.8367 14.6422 30.3912 19.5787 31.4593 24.8386C32.5274 30.0985 36.7046 33.6901 40.7893 32.8607Z" fill="white"/>
<path fill-rule="evenodd" clip-rule="evenodd" d="M36.7899 13.1634C32.3059 14.0739 29.6762 19.3822 30.8108 24.9696C31.9454 30.5571 36.4372 34.4193 40.9212 33.5088C45.4052 32.5983 48.0349 27.29 46.9003 21.7025C45.7657 16.115 41.2739 12.2528 36.7899 13.1634ZM37.0533 14.4606C40.7386 13.7123 44.6011 17.0333 45.6027 21.9657C46.6042 26.8981 44.343 31.4626 40.6577 32.211C36.9723 32.9593 33.1098 29.6383 32.1082 24.7059C31.1067 19.7735 33.3679 15.209 37.0533 14.4606Z" fill="#000091"/>
<path fill-rule="evenodd" clip-rule="evenodd" d="M40.6143 20.9974C40.9517 20.901 41.3029 21.0847 41.4194 21.4106L41.4327 21.4521L42.5448 25.3447L42.5575 25.3967C42.6593 25.906 42.3219 26.447 41.7492 26.4784L40.3032 26.5583C39.9382 26.5785 39.6258 26.299 39.6055 25.934C39.5861 25.5835 39.8429 25.2816 40.1864 25.2401L40.2298 25.2363L41.1226 25.1865L40.1596 21.8158C40.0632 21.4783 40.2469 21.1271 40.5728 21.0107L40.6143 20.9974Z" fill="#000091"/>
<path fill-rule="evenodd" clip-rule="evenodd" d="M36.2661 18.6182C36.9476 18.2186 37.6878 18.0796 38.4157 18.406C38.6029 18.4899 38.7807 18.6032 38.9475 18.7456C39.2256 18.983 39.2586 19.4009 39.0212 19.6789C38.7941 19.9449 38.4019 19.9867 38.1249 19.7821L38.0879 19.7526C38.0158 19.6911 37.9448 19.6458 37.874 19.6141C37.6083 19.495 37.2846 19.5558 36.9358 19.7603C36.8241 19.8258 36.7352 19.8904 36.6794 19.9363L36.6398 19.9707C36.3729 20.2206 35.954 20.2068 35.7041 19.9399C35.4542 19.673 35.4681 19.254 35.735 19.0042C35.8478 18.8986 36.0283 18.7576 36.2661 18.6182Z" fill="#000091"/>
<path fill-rule="evenodd" clip-rule="evenodd" d="M42.1017 18.2851C42.5305 18.1796 42.9765 18.145 43.4158 18.2295C44.0263 18.3469 44.538 18.6865 44.8665 19.2676C45.0464 19.5859 44.9342 19.9898 44.6159 20.1697C44.3109 20.3421 43.9273 20.2463 43.7375 19.9578L43.7139 19.9191C43.5861 19.693 43.411 19.5769 43.1658 19.5297C42.9415 19.4866 42.6771 19.507 42.4182 19.5708L42.3436 19.5903C42.2989 19.6028 42.2645 19.6139 42.2427 19.6217L42.2288 19.6268C41.8886 19.7607 41.5042 19.5934 41.3704 19.2532C41.2365 18.9129 41.4038 18.5286 41.744 18.3948L41.811 18.37C41.8858 18.3439 41.984 18.3141 42.1017 18.2851Z" fill="#000091"/>
<path fill-rule="evenodd" clip-rule="evenodd" d="M38.9053 22.333C38.9117 21.865 38.6562 21.4821 38.3345 21.4776C38.0128 21.4732 37.7467 21.8489 37.7402 22.3168C37.7338 22.7848 37.9893 23.1677 38.311 23.1722C38.6327 23.1766 38.8988 22.8009 38.9053 22.333Z" fill="#000091"/>
<path fill-rule="evenodd" clip-rule="evenodd" d="M43.7917 23.3034C44.1122 23.2741 44.3364 22.8608 44.2925 22.3802C44.2487 21.8995 43.9533 21.5336 43.6329 21.5628C43.3125 21.5921 43.0883 22.0054 43.1321 22.4861C43.176 22.9667 43.4713 23.3326 43.7917 23.3034Z" fill="#000091"/>
<path fill-rule="evenodd" clip-rule="evenodd" d="M36.384 26.6746C36.7856 28.9287 37.7106 30.061 39.0192 30.1118C39.4817 30.1298 39.9293 30.0048 40.3539 29.7871C40.5807 29.6709 40.7662 29.5473 40.9024 29.4399L40.9564 29.3961C41.2949 29.1124 41.2659 28.5829 40.8984 28.3379L37.403 26.0076C36.9178 25.6842 36.2817 26.1005 36.384 26.6746ZM38.2124 28.1384L39.1834 28.7858L39.1363 28.7889C39.1143 28.7896 39.0924 28.7895 39.0707 28.7887C38.766 28.7768 38.4815 28.5986 38.2362 28.18L38.2124 28.1384Z" fill="#000091"/>
<path fill-rule="evenodd" clip-rule="evenodd" d="M29.2499 14.8543C30.7593 13.186 33.4603 11.9944 35.923 11.5972L35.9495 11.5707C51.7318 8.60488 49.3486 18.1643 49.3486 18.1643L46.5416 18.0319C47.2301 19.8591 47.2301 21.5803 46.4622 22.7189C46.4622 22.6925 46.4622 22.666 46.4622 22.6395C46.2239 20.8918 45.6413 19.303 44.8204 17.9525L36.5056 17.5817C36.7439 16.3901 35.6847 15.3044 34.8903 14.6954C34.9167 15.172 35.0227 20.8123 31.2889 22.2688C31.2889 22.8249 31.3154 23.4074 31.3948 23.9635C31.4213 24.1224 31.4478 24.2813 31.4743 24.4402C31.236 24.4402 30.9976 24.4137 30.7858 24.3872C27.9524 24.043 26.5754 17.8201 29.2499 14.8543Z" fill="#000091"/>
<path fill-rule="evenodd" clip-rule="evenodd" d="M55.2809 37.3628C53.745 36.1182 52.4475 34.9266 51.6795 33.9203C51.0175 33.1259 50.4614 32.5168 50.0113 32.0137C48.9256 30.8486 47.3897 30.1866 45.8009 30.213C44.5828 30.213 43.1529 30.266 42.4908 30.4514C41.1668 30.8221 36.7976 31.9608 37.0094 32.6492C37.1418 33.1259 39.4986 33.02 40.6902 32.914L42.7556 35.9858C42.7556 35.9858 43.8413 35.7475 44.4504 35.8534C45.695 36.0652 47.0455 36.6478 47.7604 36.3035C47.7604 36.3035 48.5813 38.1042 50.2761 40.6198" fill="white"/>
<path fill-rule="evenodd" clip-rule="evenodd" d="M45.5095 29.5528L45.7889 29.5519C47.5616 29.5224 49.2786 30.2582 50.5036 31.5731L51.1358 32.2789C51.1781 32.3265 51.2194 32.3732 51.2609 32.4201C51.5204 32.7135 51.7628 32.9933 52.0051 33.2803L52.1871 33.4973L52.2048 33.5195C52.8846 34.4102 54.0664 35.5282 55.6967 36.8492C55.9807 37.0794 56.0244 37.4963 55.7942 37.7804C55.564 38.0644 55.1472 38.1081 54.8631 37.8779C53.2094 36.5379 51.9862 35.3876 51.2225 34.4135L51.1627 34.3363L50.9933 34.1342C50.8167 33.9251 50.6399 33.7197 50.4558 33.5094L50.2079 33.2281L49.5259 32.4658C48.59 31.4614 47.2785 30.8834 45.9109 30.8753L45.5487 30.8766C44.2652 30.8845 43.2089 30.9529 42.7144 31.0774L41.5726 31.3937C41.1103 31.5237 40.6926 31.6453 40.2974 31.7663L40.1292 31.8182C39.5899 31.9859 39.1175 32.1457 38.7208 32.2967L38.6044 32.3416L38.6175 32.3421C39.1727 32.3494 39.8396 32.3205 40.462 32.2698L40.6306 32.2555C40.8549 32.2355 41.0728 32.331 41.2103 32.5066L41.2385 32.5455L43.0618 35.2573L43.091 35.2527C43.2623 35.226 43.4318 35.2044 43.5966 35.1892L43.7595 35.1763C44.063 35.1562 44.3306 35.1616 44.5605 35.2016C44.7044 35.2261 44.8534 35.2557 45.0138 35.2912L45.2439 35.3442C45.3344 35.3657 45.4289 35.3891 45.5424 35.4177L45.9564 35.5223C46.8866 35.7526 47.2563 35.7987 47.4547 35.7158L47.4723 35.7079C47.7932 35.5534 48.1759 35.681 48.3422 35.9902L48.4466 36.2076L48.507 36.3304C48.6326 36.5831 48.7845 36.8751 48.9629 37.2021C49.4747 38.1404 50.0946 39.1679 50.8241 40.2508C51.0284 40.554 50.9482 40.9654 50.645 41.1697C50.3417 41.374 49.9303 41.2938 49.726 40.9905C49.0229 39.9468 48.4174 38.9514 47.9082 38.032L47.8006 37.8362C47.7073 37.6651 47.6207 37.5029 47.5409 37.35L47.4043 37.0847L47.3725 37.0875C46.9643 37.1147 46.453 37.0128 45.5681 36.7902L45.0429 36.6578C44.9884 36.6444 44.9377 36.6322 44.8878 36.6205L44.838 36.6089C44.6535 36.5662 44.4903 36.5327 44.336 36.5064C44.225 36.4871 44.0544 36.4837 43.8469 36.4974C43.6748 36.5088 43.4871 36.531 43.2945 36.561C43.2253 36.5717 43.1585 36.583 43.0952 36.5945L42.8966 36.6332C42.6467 36.6881 42.3892 36.5939 42.2333 36.3946L42.2053 36.356L40.3561 33.6057L40.1578 33.6196C39.6264 33.654 39.0857 33.672 38.6095 33.6661L38.4342 33.6627L38.1686 33.6537C37.0895 33.6073 36.5431 33.4485 36.3757 32.8447C36.2203 32.3397 36.4855 31.9852 36.9451 31.679C37.2054 31.5056 37.5633 31.3321 38.0193 31.1493C38.4565 30.974 38.9801 30.792 39.5836 30.6017L39.7361 30.5539C40.1369 30.4293 40.5552 30.3059 41.0146 30.1754L42.3113 29.8147C42.9333 29.6405 44.0833 29.5616 45.5095 29.5528Z" fill="#000091"/>
<path fill-rule="evenodd" clip-rule="evenodd" d="M42.9411 31.4316C42.9411 31.4316 40.0018 32.8881 40.1342 34.0002C40.2666 35.1124 41.1405 34.8741 41.1405 34.8741" fill="white"/>
<path fill-rule="evenodd" clip-rule="evenodd" d="M42.6464 30.8394C42.9741 30.6771 43.3712 30.8111 43.5336 31.1387C43.6891 31.4526 43.5725 31.8305 43.2742 32.0043L43.2214 32.0322L43.1266 32.0811C43.036 32.1286 42.9345 32.1834 42.8249 32.2449C42.5123 32.4202 42.2 32.6117 41.9112 32.8113C41.4357 33.1401 41.0773 33.4562 40.8951 33.7171C40.8134 33.8342 40.7888 33.9057 40.7908 33.9229C40.8077 34.0644 40.8382 34.1537 40.8714 34.2031C40.8826 34.2196 40.8872 34.2235 40.8939 34.2264C40.9079 34.2325 40.9331 34.2354 40.9581 34.2343L40.9827 34.2319C40.9831 34.2318 40.978 34.233 40.9655 34.2364C41.3182 34.1402 41.6822 34.3481 41.7784 34.7009C41.8746 35.0536 41.6666 35.4175 41.3139 35.5137C41.2817 35.5225 41.24 35.5317 41.1897 35.5396C40.9295 35.5808 40.6468 35.5637 40.3625 35.4391C39.8732 35.2247 39.5564 34.754 39.4761 34.0795C39.4299 33.6918 39.5582 33.3191 39.8095 32.9592C40.1014 32.5411 40.564 32.1331 41.1582 31.7223C41.4844 31.4967 41.831 31.2843 42.1773 31.0901L42.352 30.9935C42.4777 30.9253 42.5783 30.8732 42.6464 30.8394Z" fill="#000091"/>
<path fill-rule="evenodd" clip-rule="evenodd" d="M43.4688 32.6229C43.4688 32.6229 40.9532 34.1323 41.165 35.2445C41.3769 36.3302 42.2507 36.0389 42.2507 36.0389" fill="white"/>
<path fill-rule="evenodd" clip-rule="evenodd" d="M43.1296 32.0562C43.4431 31.8681 43.8498 31.9698 44.0379 32.2833C44.2181 32.5838 44.1323 32.9697 43.8489 33.1669L43.7251 33.2449C43.6516 33.2915 43.5691 33.3455 43.4801 33.4059C43.2257 33.5786 42.9715 33.7671 42.7367 33.9635C42.3527 34.2847 42.0635 34.5923 41.9136 34.8494C41.8324 34.9886 41.8089 35.0806 41.8162 35.1187C41.8412 35.2468 41.8753 35.3289 41.9105 35.3759C41.9245 35.3946 41.9327 35.4009 41.9425 35.405C41.9611 35.4128 41.9938 35.4153 42.0274 35.4118L42.0525 35.4081C42.0572 35.4072 42.0549 35.4078 42.0428 35.4118C42.3896 35.2962 42.7645 35.4837 42.8801 35.8305C42.9958 36.1774 42.8083 36.5523 42.4615 36.6679C42.4226 36.6808 42.3712 36.6948 42.3082 36.7072C42.0309 36.7618 41.7311 36.7522 41.4302 36.6259C40.9615 36.4293 40.6386 35.9974 40.5161 35.3693C40.4402 34.971 40.5415 34.5738 40.7699 34.1823C41.0119 33.7675 41.3961 33.3587 41.8873 32.9479C42.1592 32.7205 42.4479 32.5063 42.7365 32.3104L42.8467 32.2365C42.9684 32.1557 43.0655 32.0947 43.1296 32.0562Z" fill="#000091"/>
<path fill-rule="evenodd" clip-rule="evenodd" d="M44.1854 34.0793C44.1854 34.0793 41.1931 35.9595 42.8349 36.6744C44.4767 37.3894 45.0592 37.0452 45.0592 37.0452C45.0592 37.0452 45.7477 36.1713 44.0265 35.8006" fill="white"/>
<path fill-rule="evenodd" clip-rule="evenodd" d="M43.8327 33.5198C44.1423 33.3252 44.5509 33.4185 44.7454 33.7281C44.94 34.0377 44.8467 34.4463 44.5371 34.6409L44.4344 34.708C44.3906 34.7374 44.338 34.7735 44.2783 34.8155C44.1584 34.9001 44.0385 34.989 43.922 35.0806L43.7986 35.1798L43.8327 35.1682C43.9241 35.1403 44.0227 35.1318 44.1226 35.1466L44.1654 35.1544C44.8885 35.3101 45.3797 35.5747 45.6476 35.9722C45.9272 36.3868 45.9082 36.8317 45.7241 37.2171C45.6755 37.3188 45.6241 37.3983 45.5788 37.4558C45.5281 37.5201 45.466 37.5744 45.3955 37.6161C45.3266 37.6568 45.2343 37.6957 45.1182 37.7269C44.5403 37.8821 43.7037 37.776 42.5701 37.2823C41.5751 36.8491 41.4507 35.966 42.0101 35.1418C42.2097 34.8478 42.4899 34.556 42.8327 34.2621C43.0516 34.0744 43.2837 33.8967 43.5157 33.7332L43.6148 33.6643C43.7079 33.6002 43.7825 33.5513 43.8327 33.5198ZM43.4336 35.5046C43.2948 35.6415 43.1834 35.7697 43.1054 35.8847C43.0796 35.9227 43.0597 35.9555 43.0447 35.9824L43.02 36.0289L43.0231 36.0306C43.036 36.038 43.0514 36.0461 43.0694 36.0546L43.0984 36.0678C43.2333 36.1265 43.3618 36.1782 43.4839 36.2231L43.5297 36.2397L43.5049 36.2096C43.3961 36.0708 43.3432 35.8897 43.3708 35.7043L43.3785 35.6615C43.3878 35.6186 43.401 35.5776 43.4177 35.5387L43.4336 35.5046Z" fill="#000091"/>
<path fill-rule="evenodd" clip-rule="evenodd" d="M66.5338 54.0737C64.6537 49.8633 58.7751 35.8286 56.2594 34.1074L47.8916 39.5094L59.0663 63.3418C62.0586 60.7202 64.6007 57.5955 66.5338 54.0737Z" fill="#6A6AEC"/>
<path fill-rule="evenodd" clip-rule="evenodd" d="M28.0558 49.6335C28.1966 49.2961 28.5842 49.1367 28.9216 49.2775C29.245 49.4124 29.4049 49.774 29.2938 50.1009L29.2777 50.1433L26.1832 57.5606L45.2301 57.9386C45.5811 57.9456 45.8628 58.2244 45.8783 58.5701L45.8789 58.6136C45.8719 58.9646 45.5931 59.2463 45.2474 59.2618L45.2039 59.2624L25.1847 58.8652C24.7325 58.8562 24.4266 58.4086 24.5714 57.9889L24.5868 57.9484L28.0558 49.6335Z" fill="#000091"/>
<path fill-rule="evenodd" clip-rule="evenodd" d="M43.6816 42.9502C43.2844 42.9502 42.9401 43.268 42.8607 43.6916L39.1799 63.2342L34.334 63.2077C34.334 63.2077 33.7249 67.2062 37.8029 67.1798C38.2796 67.1798 45.7735 67.2062 53.7441 67.2327C62.4562 62.0955 68.732 53.2775 70.4003 42.9237L43.6816 42.9502Z" fill="#000091"/>
</g>
<rect x="1" y="1.40906" width="69.5477" height="69.5477" rx="34.7739" stroke="#6A6AF4" stroke-width="2"/>
<defs>
<clipPath id="clip0_53_8684">
<rect y="0.409058" width="71.5477" height="71.5477" rx="35.7739" fill="white"/>
</clipPath>
</defs>
</svg>
