<svg width="81" height="81" viewBox="0 0 81 81" fill="none" xmlns="http://www.w3.org/2000/svg">
<path fill-rule="evenodd" clip-rule="evenodd" d="M77.3333 56.3103C76.7819 56.3103 76.3333 55.8617 76.3333 55.3103C76.3333 54.7589 76.7819 54.3103 77.3333 54.3103C77.8847 54.3103 78.3333 54.7589 78.3333 55.3103C78.3333 55.8617 77.8847 56.3103 77.3333 56.3103Z" fill="#CACAFB"/>
<path fill-rule="evenodd" clip-rule="evenodd" d="M5.33325 60.3103C4.78185 60.3103 4.33325 59.8617 4.33325 59.3103C4.33325 58.7589 4.78185 58.3103 5.33325 58.3103C5.88465 58.3103 6.33325 58.7589 6.33325 59.3103C6.33325 59.8617 5.88465 60.3103 5.33325 60.3103Z" fill="#CACAFB"/>
<path fill-rule="evenodd" clip-rule="evenodd" d="M75.3333 22.3103C74.7819 22.3103 74.3333 21.8617 74.3333 21.3103C74.3333 20.7589 74.7819 20.3103 75.3333 20.3103C75.8847 20.3103 76.3333 20.7589 76.3333 21.3103C76.3333 21.8617 75.8847 22.3103 75.3333 22.3103Z" fill="#CACAFB"/>
<path fill-rule="evenodd" clip-rule="evenodd" d="M3.33325 26.3103C2.78185 26.3103 2.33325 25.8617 2.33325 25.3103C2.33325 24.7589 2.78185 24.3103 3.33325 24.3103C3.88465 24.3103 4.33325 24.7589 4.33325 25.3103C4.33325 25.8617 3.88465 26.3103 3.33325 26.3103Z" fill="#CACAFB"/>
<path fill-rule="evenodd" clip-rule="evenodd" d="M17.3333 8.3103C16.7819 8.3103 16.3333 7.8617 16.3333 7.3103C16.3333 6.75886 16.7819 6.3103 17.3333 6.3103C17.8847 6.3103 18.3333 6.75886 18.3333 7.3103C18.3333 7.8617 17.8847 8.3103 17.3333 8.3103Z" fill="#CACAFB"/>
<path fill-rule="evenodd" clip-rule="evenodd" d="M55.3333 48.3103C62.513 48.3103 68.3333 54.1306 68.3333 61.3103C68.3333 68.49 62.513 74.3103 55.3333 74.3103C48.1535 74.3103 42.3333 68.49 42.3333 61.3103C42.3333 54.1306 48.1535 48.3103 55.3333 48.3103ZM55.3333 50.3103C49.2581 50.3103 44.3333 55.2352 44.3333 61.3103C44.3333 67.3854 49.2581 72.3103 55.3333 72.3103C61.4084 72.3103 66.3333 67.3854 66.3333 61.3103C66.3333 55.2352 61.4084 50.3103 55.3333 50.3103ZM55.3333 54.3103C55.8461 54.3103 56.2688 54.6963 56.3265 55.1937L56.3333 55.3103V60.3103H61.3333C61.8855 60.3103 62.3333 60.758 62.3333 61.3103C62.3333 61.8231 61.9472 62.2458 61.4499 62.3036L61.3333 62.3103H56.3333V67.3103C56.3333 67.8626 55.8855 68.3103 55.3333 68.3103C54.8204 68.3103 54.3977 67.9243 54.34 67.4269L54.3333 67.3103V62.3103H49.3333C48.781 62.3103 48.3333 61.8626 48.3333 61.3103C48.3333 60.7975 48.7193 60.3748 49.2166 60.317L49.3333 60.3103H54.3333V55.3103C54.3333 54.758 54.781 54.3103 55.3333 54.3103ZM43.3333 30.3103C43.8855 30.3103 44.3333 30.758 44.3333 31.3103C44.3333 31.8231 43.9472 32.2458 43.4499 32.3036L43.3333 32.3103H23.3333C22.781 32.3103 22.3333 31.8626 22.3333 31.3103C22.3333 30.7975 22.7193 30.3748 23.2166 30.317L23.3333 30.3103H43.3333ZM49.3333 24.3103C49.8855 24.3103 50.3333 24.758 50.3333 25.3103C50.3333 25.8231 49.9472 26.2458 49.4499 26.3036L49.3333 26.3103H23.3333C22.781 26.3103 22.3333 25.8626 22.3333 25.3103C22.3333 24.7975 22.7193 24.3748 23.2166 24.317L23.3333 24.3103H49.3333ZM39.3333 18.3103C39.8855 18.3103 40.3333 18.758 40.3333 19.3103C40.3333 19.8231 39.9472 20.2458 39.4499 20.3036L39.3333 20.3103H23.3333C22.781 20.3103 22.3333 19.8626 22.3333 19.3103C22.3333 18.7975 22.7193 18.3748 23.2166 18.317L23.3333 18.3103H39.3333Z" fill="#E1000F"/>
<path fill-rule="evenodd" clip-rule="evenodd" d="M55.3333 12.3103C55.8461 12.3103 56.2688 12.6963 56.3265 13.1937L56.3333 13.3103V45.3103C56.3333 45.8626 55.8855 46.3103 55.3333 46.3103C54.8204 46.3103 54.3977 45.9243 54.34 45.4269L54.3333 45.3103V14.3103H18.3333V66.3103H39.3333C39.8461 66.3103 40.2688 66.6963 40.3265 67.1937L40.3333 67.3103C40.3333 67.8231 39.9472 68.2458 39.4499 68.3036L39.3333 68.3103H17.3333C16.8204 68.3103 16.3977 67.9243 16.34 67.4269L16.3333 67.3103V13.3103C16.3333 12.7975 16.7193 12.3748 17.2166 12.317L17.3333 12.3103H55.3333ZM33.3333 60.3103C33.8855 60.3103 34.3333 60.758 34.3333 61.3103C34.3333 61.8231 33.9472 62.2458 33.4499 62.3036L33.3333 62.3103H23.3333C22.781 62.3103 22.3333 61.8626 22.3333 61.3103C22.3333 60.7975 22.7193 60.3748 23.2166 60.317L23.3333 60.3103H33.3333ZM37.3333 54.3103C37.8855 54.3103 38.3333 54.758 38.3333 55.3103C38.3333 55.8231 37.9472 56.2458 37.4499 56.3036L37.3333 56.3103H23.3333C22.781 56.3103 22.3333 55.8626 22.3333 55.3103C22.3333 54.7975 22.7193 54.3748 23.2166 54.317L23.3333 54.3103H37.3333ZM41.3333 48.3103C41.8855 48.3103 42.3333 48.758 42.3333 49.3103C42.3333 49.8231 41.9472 50.2458 41.4499 50.3036L41.3333 50.3103H23.3333C22.781 50.3103 22.3333 49.8626 22.3333 49.3103C22.3333 48.7975 22.7193 48.3748 23.2166 48.317L23.3333 48.3103H41.3333ZM45.3333 42.3103C45.8855 42.3103 46.3333 42.758 46.3333 43.3103C46.3333 43.8231 45.9472 44.2458 45.4499 44.3036L45.3333 44.3103H23.3333C22.781 44.3103 22.3333 43.8626 22.3333 43.3103C22.3333 42.7975 22.7193 42.3748 23.2166 42.317L23.3333 42.3103H45.3333ZM49.3333 36.3103C49.8855 36.3103 50.3333 36.758 50.3333 37.3103C50.3333 37.8231 49.9472 38.2458 49.4499 38.3036L49.3333 38.3103H23.3333C22.781 38.3103 22.3333 37.8626 22.3333 37.3103C22.3333 36.7975 22.7193 36.3748 23.2166 36.317L23.3333 36.3103H49.3333ZM59.3333 12.3103C59.8461 12.3103 60.2688 12.6963 60.3265 13.1937L60.3333 13.3103V45.3103C60.3333 45.8626 59.8855 46.3103 59.3333 46.3103C58.8204 46.3103 58.3977 45.9243 58.34 45.4269L58.3333 45.3103V13.3103C58.3333 12.758 58.781 12.3103 59.3333 12.3103Z" fill="#000091"/>
</svg>
