<?xml version="1.0" encoding="utf-8"?>
<!-- Generator: Adobe Illustrator 26.0.3, SVG Export Plug-In . SVG Version: 6.00 Build 0)  -->
<svg version="1.0" id="katman_1" xmlns="http://www.w3.org/2000/svg" xmlns:xlink="http://www.w3.org/1999/xlink" x="0px" y="0px"
	 viewBox="0 0 600 450" style="enable-background:new 0 0 600 450;" xml:space="preserve">
<style type="text/css">
	.st0{fill:#010202;}
	.st1{fill:#FFFFFF;}
	.st2{fill:#293273;}
	.st3{fill:#E10814;}
	.st4{fill:#9C9B9B;}
</style>
<g id="Calque_1_1_">
	<path id="Devise_Républicaine" class="st0" d="M261.3,371.1c1,0,2,1,1.6,3.2l-5.4,1.2C258.3,373.1,259.9,371.1,261.3,371.1
		 M264.1,379.9h-1c-1.4,1.4-2.8,2.8-4.2,2.8s-2.2-1-2.2-2.8c0-0.8,0-1.6,0.2-2.4l8.6-2.8c1.8-4-0.2-5.8-2.6-5.8
		c-2.4,0-8.8,6.8-8.8,12.8c0,2.6,1.4,4.2,3.2,4.2C259.1,385.9,262.1,383.5,264.1,379.9 M262.5,367.3l6-5.6v-0.8h-3.2l-3.8,6.4H262.5
		z M243.9,371.3h2.8l-4.6,12.4c-0.4,0.8,0,1.8,0.8,2c0.2,0,0.2,0,0.4,0.2c3.6-0.6,6.8-2.8,8.4-6.2h-1c-1.4,1.6-3.2,2.8-5.2,3.2
		l4.2-11.6h4.2l0.6-1.8h-4.2l1.6-4.4h-1.6l-3,4.4l-3.4,0.4C243.9,369.9,243.9,371.3,243.9,371.3z M239.9,370.7
		c0.4-1.2-0.4-1.8-1-1.8c-3,0.4-5.6,2.4-6.6,5.4h0.8c0.8-1.2,2-2.2,3.4-2.6l-4.8,12.4c-0.2,0.8,0.2,1.6,1,1.8h0.2
		c2.2,0,5-2.4,6.2-5.4h-0.8c-0.8,1.2-2,2-3.4,2.6L239.9,370.7z M240.9,364.5c1.2-0.2,2-1,2-2.2c0-1-1-2-2-2c-1.2,0-2,0.8-2.2,2
		C238.7,363.5,239.7,364.5,240.9,364.5L240.9,364.5 M213.3,383.5c-0.4,0.8-0.2,1.8,0.6,2.2c0.2,0.2,0.6,0.2,0.8,0.2
		c1,0,1.2-0.2,1.6-1.2l3.4-8.8c1.6-1.8,3.6-3.2,5.8-3.8c1,0,0.8,0.8,0.2,1.8l-5,9.8c-0.4,0.6-0.2,1.6,0.4,2c0.2,0.2,0.6,0.2,0.8,0.2
		c3-0.4,5.6-2.6,6.6-5.4h-0.8c-0.8,1.2-2,2-3.4,2.6l4.4-8.8c0.4-1,0.8-2,0.8-3c0.2-1.2-0.8-2.2-2-2.4c-0.2,0-0.2,0-0.4,0
		c-2,0-4.2,2.4-6.8,5.4v-2.4c0-1.6-0.6-3-2-3c-1.2,0.2-2.2,1-2.8,2l0,0c1.6,0,2.4,2.4,1.2,5L213.3,383.5z M213.3,372.7
		c0.6-2,0.2-3.8-1.2-3.8c-1.4,0-2.4,1.4-4.2,5.4v-2.4c0-1.6-0.6-3-2-3s-3.4,2.6-4.6,5.4h0.8c0.8-1.2,1.6-2,2.2-2s1.2,1.2,0,3.8
		l-3.4,7.4c-0.4,0.8-0.2,1.8,0.6,2.2c0.2,0.2,0.6,0.2,0.8,0.2c1,0,1.2-0.2,1.6-1.2l3.4-8.8c0.8-1.2,1.8-2.2,2.8-3.2H213.3z
		 M194.1,371.1c1.2,0,2.2,1,1.8,3.2l-5.4,1.2C191.3,373.1,192.9,371.1,194.1,371.1 M197.1,379.9h-1c-1.4,1.4-2.8,2.8-4.2,2.8
		c-1.4,0-2.2-1-2.2-2.8c0-0.8,0-1.6,0.2-2.4l8.6-2.8c1.8-4-0.2-5.8-2.6-5.8s-8.8,6.8-8.8,12.8c0,2.6,1.2,4.2,3.2,4.2
		S195.1,383.5,197.1,379.9 M176.9,371.3h2.8l-4.6,12.4c-0.4,0.8,0,1.8,0.8,2c0.2,0,0.2,0,0.4,0.2c3.6-0.4,6.8-2.8,8.2-6.2h-0.8
		c-1.4,1.6-3.2,2.8-5.2,3.2l4.2-11.6h4.2l0.6-1.8h-4.2l1.6-4.4h-1.6l-3,4.4l-3.4,0.4C176.9,369.9,176.9,371.3,176.9,371.3z
		 M161.1,380.9c0-3.8,4.2-9,6.6-9h1.4l-2.4,6.6c-1.4,1.8-3.6,4-4.6,4C161.1,382.5,161.1,381.9,161.1,380.9 M174.1,367.9h-1.2
		l-1.4,1.4h-0.4c-7.2,0-13.2,8-13.2,13.8c-0.2,1.4,0.8,2.4,2.2,2.6c0.2,0,0.2,0,0.4,0c1.8,0,3.6-2.6,5.6-5.4v0.8
		c-0.2,3,0.8,4.6,2.2,4.6c1.4,0,3.4-2.8,4.6-5.4h-0.8c-0.8,1.2-1.6,1.8-2.2,1.8s-1.2-1.2,0-3.6L174.1,367.9z M159.1,372.5
		c0.6-2,0.2-3.8-1.4-3.8c-1.6,0-2.2,1.4-4.2,5.4v-2.4c0-1.6-0.4-3-2-3s-3.2,2.6-4.4,5.4h0.8c0.8-1.2,1.6-2,2.2-2s1.2,1.2,0,3.8
		l-3.4,7.4c-0.6,1.4,0,2.4,1.4,2.4c1.4,0,1.2-0.2,1.6-1.2l3.2-8.8c0.8-1.2,1.8-2.2,3-3.2L159.1,372.5z M135.1,384.9l0.4-0.8
		c-4.2-0.8-4.6-0.8-3-5.4l1.6-4.4h4.6c2,0,2.2,0.8,1.8,3h1.2l2.8-7.4h-1.2c-1,1.8-1.8,3-4.2,3h-4.4l2.4-6.6c0.6-2,1.2-2.4,4-2.4h2
		c2.8,0,3.2,0.8,3.2,3.6h1.2l0.8-5h-17.2v1c3.4,0.6,3.6,1,2,5.2l-3.6,10.2c-1.6,4.4-2.2,4.6-6.2,5.4v0.8L135.1,384.9z M219.5,332.3
		c1.2,0,2.2,0.8,1.6,3l-5.4,1.2C216.7,334.1,218.3,332.3,219.5,332.3 M222.5,340.9h-1.2c-0.8,1.6-2.4,2.6-4.2,2.8
		c-1.4,0-2.2-0.8-2.2-2.8c0-0.8,0.2-1.6,0.4-2.4l8.6-2.8c1.6-4-0.4-5.8-2.8-5.8s-8.6,6.8-8.6,12.8c0,2.8,1.2,4.2,3.2,4.2
		C217.7,346.9,220.5,344.7,222.5,340.9 M220.7,328.3l6.2-5.6v-0.6h-3.4l-3.8,6.2H220.7z M202.1,332.3h2.8l-4.4,12.4
		c-0.4,1.2,0,2.2,1.2,2.2c3.6-0.4,6.6-2.8,8.2-6h-0.8c-1.4,1.4-3.2,2.6-5.2,3.2l4-11.8h4.4l0.4-1.8h-4l1.6-4.4h-1.8l-2.8,4.4
		l-3.6,0.6L202.1,332.3z M198.3,331.7c0.2-1.2-0.4-1.8-1-1.8c-3.2,0.4-5.8,2.4-6.8,5.4h0.8c0.8-1.4,2.2-2.2,3.6-2.6l-4.8,12.4
		c-0.4,1.2,0.4,1.8,1,1.8c3-0.4,5.4-2.6,6.4-5.4h-0.8c-0.8,1.4-2.2,2.2-3.6,2.6L198.3,331.7z M199.1,325.5c1,0.2,1.8-0.6,2-1.6
		c0-0.2,0-0.2,0-0.4c0-1.2-0.8-2-2-2c-1.2,0-2,0.8-2,2c-0.2,1,0.6,1.8,1.6,2C198.9,325.5,198.9,325.5,199.1,325.5 M182.5,344.1
		l8.8-22.8h-0.4l-5.4,0.6v0.6l1,0.8c1,0.8,0.8,1.4-0.2,3.8l-6.8,17.8c-0.4,0.8,0,1.8,0.8,2c0.2,0,0.2,0,0.4,0.2
		c3-0.4,5.6-2.4,6.4-5.4h-0.8c-0.8,1.4-2.2,2.2-3.8,2.6 M166.1,342.3c0-4,4.2-9.2,6.6-9.2h1.4l-2.4,6.8c-1.4,1.6-3.6,3.8-4.8,3.8
		s-0.8-0.6-0.8-1.6 M179.1,329.3h-1.2l-1.6,1.4h-0.2c-7.2,0-13.2,8-13.2,13.8c-0.2,1.4,0.8,2.4,2.2,2.6h0.2c2,0,3.8-2.6,5.8-5.4v1
		c-0.2,2.8,0.6,4.4,2.2,4.4c1.6,0,3.2-2.8,4.6-5.4h-0.8c-1,1.2-1.8,2-2.4,2s-1-1.2,0-3.8L179.1,329.3z M147.5,349.9
		c0-1.6,1.6-2.6,3.8-3.6l3.4,1.2c2.4,0.8,3.2,1.2,3.2,2s-2.6,2.6-6,2.6C148.5,352.1,147.5,351.5,147.5,349.9 M153.9,339.9
		c-1,0-1.4-1-1.4-2c0-1,1.4-6.8,3.8-6.8s1.4,0.8,1.4,1.8C157.7,333.9,156.3,339.9,153.9,339.9 M160.7,348.3c0-2-1.8-2.6-4.8-3.6
		c-3-1-3.6-0.8-3.6-1.6c0-1,0.6-1.8,1.6-2c3.8-0.2,6.6-3.2,6.8-7c0-0.6-0.2-1.2-0.4-1.8h3.4l0.6-1.8h-5.4l-2.2-0.6
		c-3.8,0-7,3.2-7.2,7c-0.2,2,1.2,3.6,3.2,4c-2,1-3,2-3,3.2c0,0.6,0.2,1.4,0.8,1.8c-4.6,1.4-6.6,2.8-6.6,5s2.8,3.2,6.2,3.2
		C153.5,354.1,160.7,350.9,160.7,348.3 M138.9,335.1c2,0,2,0.8,1.8,3h1.2l2.6-7.4h-1.2c-1,1.6-1.8,3-4,3h-4.6l2.4-6.2
		c0.6-2.2,1.2-2.6,4-2.6h2c2.8,0,3.2,0.8,3.2,3.8h1.2l0.8-5.2h-17.2v1c3.4,0.6,3.6,1,2,5.2l-3.6,10.2c-1.6,4.4-2.2,4.8-6.2,5.4v1
		h18.8l3.4-5.4h-1.4c-2.2,2.4-5.4,3.8-8.8,4c-5,0-4.6-0.2-2.8-5l1.8-4.8H138.9z M141.3,321.9l6.2-4v-0.8h-3.8l-3.4,4.8H141.3z
		 M217.5,293.3c1.2,0,2.2,0.8,1.6,3l-5.4,1.4C214.7,295.1,216.3,293.3,217.5,293.3 M220.5,301.9h-1.2c-1,1.6-2.4,2.6-4.2,2.8
		c-1.4,0-2.2-0.8-2.2-2.8c0-2,0.2-1.6,0.2-2.4l8.8-2.8c1.6-4-0.4-5.8-2.8-5.8s-8.8,7-8.8,12.8s1.4,4.2,3.4,4.2
		S218.5,305.7,220.5,301.9 M218.7,289.3l6-5.6v-0.6h-3.2l-3.8,6.2C217.7,289.3,218.7,289.3,218.7,289.3z M200.9,293.3h2.2l-4.6,12.6
		c-0.4,0.6,0,1.6,0.6,1.8c0.2,0.2,0.4,0.2,0.8,0.2c3.6-0.6,6.6-2.8,8.2-6h-0.8c-1.4,1.6-3.4,2.6-5.4,3.2l4.2-11.8h4.4l0.4-1.6h-4
		l1.4-4.6h-1.6l-3,4.6l-2.8,0.4C200.9,292.1,200.9,293.3,200.9,293.3z M198.7,294.7c0.6-2,0.2-3.8-1.4-3.8s-2.2,1.4-4.2,5.6v-2.4
		c0-1.6-0.4-3.2-2-3.2c-1.6,0-3.4,2.8-4.6,5.4h0.8c1-1.2,1.8-1.8,2.4-1.8s1,1,0,3.6l-3.4,7.6c-0.6,1.4,0,2.2,1.4,2.2
		c0.8,0.2,1.4-0.4,1.6-1l3.2-8.8l2.8-3.4L198.7,294.7z M179.5,293.3c1.2,0,2.2,0.8,1.6,3l-5.4,1.4
		C176.7,295.1,178.3,293.3,179.5,293.3 M182.5,301.9h-1.2c-0.8,1.6-2.4,2.6-4.2,2.8c-1.4,0-2.2-0.8-2.2-2.8c0-0.8,0.2-1.6,0.4-2.4
		l8.6-2.8c1.6-4-0.4-5.8-2.8-5.8c-2.4,0-8.6,7-8.6,12.8s1.2,4.2,3.2,4.2C177.7,307.9,180.5,305.7,182.5,301.9 M161.3,305.5
		c-0.8,0-2-0.8-2-1.6c0-0.8,0.4-1.2,0.8-2.4l1.4-3.6c1.4-1.8,3.8-3.8,5-3.8s1.4,0.6,1.4,1.8S164.7,305.5,161.3,305.5 M171.1,294.5
		c0-2.6-1-3.6-2.6-3.6c-1.6,0-4.4,2.4-6.4,5.2l5.2-13.6v-0.4l-5.6,0.6v0.6l1.2,0.8c1,0.8,0.6,1.6-0.2,3.8l-5.8,14.4
		c-0.4,1-0.8,1.8-1,2.8c0,1.4,2,2.8,3.8,2.8C161.5,307.9,171.1,300.3,171.1,294.5 M154.1,292.7c0.4-0.6,0.2-1.4-0.4-1.6
		c-0.2,0-0.4-0.2-0.6-0.2c-3,0.4-5.6,2.6-6.6,5.4h0.8c0.8-1.2,2-2,3.4-2.6l-4.8,12.4c-0.2,0.8,0.2,1.6,1,1.8h0.2
		c3-0.4,5.4-2.6,6.2-5.4h-0.8c-0.8,1.2-2,2.2-3.4,2.6L154.1,292.7z M155.1,286.5c1.2,0,2-0.8,2-2s-0.8-2-2-2s-2,0.8-2,2
		S153.9,286.5,155.1,286.5 M142.5,284.5h-11.4v1c3.2,0.8,3.6,1,2,5.4l-3.6,10.2c-1.6,4.2-2.2,4.6-6.2,5.2v1h16.8l3.8-6.6h-1.4
		c-2,2.2-4.6,5.2-8.4,5.2c-3.8,0-3.2-0.4-1.6-4.8l3.6-10.2c1.6-4.4,2.2-4.6,6-5.4L142.5,284.5z"/>
	<path class="st0" d="M122.8,191.3V150h12.6c3.8-0.2,7.6,0.8,10.8,3.2c2.6,2.2,4.2,5.6,4,9c0,2.4-0.6,4.6-1.8,6.6
		c-1.2,1.8-2.8,3.2-4.8,4.2l12.8,18.2h-10l-11-16.6h-4.2v16.6C131.3,191.3,122.8,191.3,122.8,191.3z M135.9,157h-4.6v10.4h4.6
		c1.6,0.2,3-0.4,4.2-1.4c1-1,1.6-2.4,1.6-3.8c0-1.4-0.6-2.8-1.6-3.8C138.9,157.4,137.5,157,135.9,157z"/>
	<path class="st0" d="M161.7,191.3V150h24.2v7h-15.8v9.6h13.4v7.2h-13.4v10.2h15.8v7.2C185.9,191.3,161.7,191.3,161.7,191.3z
		 M177.5,146.4h-7.6l6.6-8h8.8L177.5,146.4z"/>
	<path class="st0" d="M195.5,191.3V150h13.8c3.8-0.2,7.6,1,10.6,3.2c5,4.6,5.4,12.2,0.8,17.2c-0.2,0.2-0.4,0.6-0.8,0.8
		c-3,2.4-6.8,3.6-10.6,3.4h-5.4v16.6C203.9,191.3,195.5,191.3,195.5,191.3z M209.5,157h-5.6v10.4h5.6c1.6,0.2,3-0.4,4.2-1.4
		c1-1,1.6-2.4,1.6-3.8c0-1.4-0.6-2.8-1.6-3.8C212.5,157.4,211.1,157,209.5,157z"/>
	<path class="st0" d="M255.1,175.9V150h8.4v25c0.2,4.8-1.4,9.2-4.6,12.8c-7,6.2-17.4,6.2-24.4,0c-3-3.6-4.6-8.2-4.4-12.8v-25h8.4
		v25.8c-0.2,2.4,0.6,4.6,2.2,6.4c1.6,1.6,3.8,2.6,6,2.4c2.4,0.2,4.6-0.8,6.2-2.4C254.5,180.5,255.3,178.3,255.1,175.9z"/>
	<path class="st0" d="M273.9,191.3V150h11.8c3.6-0.2,7.2,0.8,10,3c2.6,2,4,5,3.8,8.2c0,1.6-0.4,3.2-1.2,4.6
		c-0.8,1.4-1.8,2.6-3.2,3.4c2,0.8,3.8,2.4,5,4.2c1.2,1.6,1.8,3.6,1.8,5.6c0.2,3.6-1.4,6.8-4.2,9c-3.2,2.4-7.2,3.4-11.2,3.2
		C286.5,191.3,273.9,191.3,273.9,191.3z M285.7,157h-3.4v9.2h3.4c1.4,0,2.8-0.4,3.8-1.2c1.8-1.8,1.8-5,0-6.8l0,0
		C288.5,157.4,287.1,157,285.7,157z M286.9,173.4h-4.6v10.6h4.6c1.6,0.2,3.4-0.4,4.6-1.4c1.2-1,1.8-2.4,1.8-4c0-1.6-0.6-3-1.8-4
		C290.1,173.8,288.5,173.2,286.9,173.4z"/>
	<path class="st0" d="M310.3,191.3V150h8.4v33.6h15.8v7.6C334.5,191.3,310.3,191.3,310.3,191.3z"/>
	<path class="st0" d="M341.9,191.3V150h8.4v41.2C350.3,191.3,341.9,191.3,341.9,191.3z"/>
	<path class="st0" d="M396.6,190.3c1.2,1.2,2.8,2.2,4.4,3c1.4,0.6,2.8,1,4.2,1h1.4l1.6-0.4v7.2l-2,0.6h-2.4c-2.2,0-4.6-0.6-6.6-1.4
		c-2.4-1-4.4-2.4-6.4-4.2l-4.8-4.2l-2.8,0.4h-3c-3,0-6-0.6-8.8-1.8c-2.6-1.2-5-2.6-7-4.6c-3.8-4.2-6-9.6-6-15.4
		c0-5.8,2.2-11.2,6-15.4c2-2,4.4-3.6,7-4.6c2.8-1.2,5.8-1.8,8.8-1.8c3,0,6.2,0.6,9,1.8c2.6,1.2,5,2.6,7,4.6c3.8,4.2,6,9.6,6,15.4
		c0,3.4-0.8,6.6-2.2,9.6c-1.4,3-3.4,5.6-6,7.6L396.6,190.3z M380.2,184.7c3.6,0,7-1.6,9.6-4c1.2-1.4,2-2.8,2.8-4.4
		c1.4-3.6,1.4-7.6,0-11.2c-0.6-1.6-1.6-3-2.8-4.4c-1.2-1.2-2.6-2.2-4.2-3c-1.8-0.6-3.6-1-5.4-1c-1.8,0-3.6,0.4-5.2,1
		c-1.6,0.6-3,1.6-4.2,3c-1.2,1.2-2.2,2.8-2.8,4.4c-1.4,3.6-1.4,7.6,0,11.2c0.6,1.6,1.6,3.2,2.8,4.4c1.2,1.4,2.6,2.2,4.2,2.8
		C376.6,184.3,378.4,184.7,380.2,184.7z"/>
	<path class="st0" d="M434.6,175.9V150h8.4v25c0.2,4.8-1.4,9.2-4.6,12.8c-7,6.2-17.4,6.2-24.4,0c-3.2-3.6-4.8-8-4.6-12.8v-25h8.4
		v25.8c-0.2,2.4,0.8,4.8,2.4,6.4c1.6,1.6,3.8,2.6,6,2.4c2.4,0.2,4.6-0.8,6.2-2.4C434,180.5,434.8,178.3,434.6,175.9z"/>
	<path class="st0" d="M453.4,191.3V150h24v7h-15.6v9.6H475v7.2h-13.2v10.2h15.6v7.2C477.4,191.3,453.4,191.3,453.4,191.3z"/>
	<path class="st0" d="M122.8,253.7v-41.2h24v7h-15.6v9.6h13.4v7.2h-13.4v17.4H122.8z"/>
	<path class="st0" d="M154.3,253.7v-41.2h12.6c3.8-0.2,7.6,0.8,10.8,3.2c2.6,2.2,4.2,5.6,4,9c0,2.4-0.6,4.6-1.8,6.6
		c-1.2,1.8-2.8,3.2-4.8,4.2l13,18.2h-10l-11-16.6h-4.4v16.6H154.3z M167.5,219.5h-4.8v10.4h4.8c1.4,0.2,3-0.4,4-1.4
		c1-1,1.6-2.4,1.6-3.8c0-1.4-0.6-2.8-1.6-3.8C170.3,219.9,168.9,219.5,167.5,219.5z"/>
	<path class="st0" d="M189.9,253.7l15.6-41.2h11l15.6,41.2h-9l-4-10.8h-16.4l-4,10.8H189.9z M205.3,235.9h11.2l-5.6-15.6
		L205.3,235.9z"/>
	<path class="st0" d="M238.5,253.7v-41.2h10.6l18.6,29.4v-29.4h8.4v41.2h-10.8l-18.6-29.6v29.6H238.5z"/>
	<path class="st0" d="M305.9,247.1c2.2,0,4.4-0.6,6.4-1.6c1.8-1,3.2-2.4,4.4-4l6.6,5c-1.6,2.2-3.6,4-6,5.4c-2.4,1.4-5.2,2.4-8,2.8
		l-5.2,8.6h-7.4l5.2-8.8c-2.6-0.4-5.2-1.2-7.4-2.6c-2-1.4-4-3-5.6-4.8c-1.6-2-2.8-4.2-3.6-6.6c-0.8-2.4-1.2-4.8-1.2-7.4
		c0-5.8,2.2-11.2,6-15.4c2-2,4.4-3.6,7-4.6c2.8-1.2,5.8-1.8,8.8-1.8c3.6,0,7,0.8,10.2,2.2c2.8,1.4,5.4,3.6,7.2,6.2l-6.6,5
		c-1.2-1.6-2.6-3-4.4-4c-2-1-4.2-1.6-6.4-1.6c-1.8,0-3.6,0.4-5.2,1c-1.6,0.8-3.2,1.8-4.4,3c-1,1.4-2,2.8-2.6,4.4
		c-1.4,3.6-1.4,7.6,0,11.2c0.6,1.6,1.6,3,2.6,4.4c1.2,1.2,2.8,2.2,4.4,2.8C302.3,246.7,304.1,247.1,305.9,247.1z"/>
	<path class="st0" d="M325.1,253.7l15.6-41.2h11l15.6,41.2h-8.8l-4-10.8h-16.4l-4,10.8H325.1z M340.7,235.9h11.2l-5.6-15.6
		L340.7,235.9z"/>
	<path class="st0" d="M373.8,253.7v-41.2h8.4v41.2H373.8z"/>
	<path class="st0" d="M390,248.1l6.2-5.6c1.2,1.4,2.6,2.6,4.2,3.6c1.4,1,3.2,1.4,5,1.4c1.4,0,2.8-0.4,3.8-1.2c1-1,1.4-2.2,1.4-3.6
		c0-1.8-1.2-3.6-3-4.2l-6.4-3.2c-2.4-1-4.6-2.6-6.6-4.2c-2-2.2-3-5-2.8-7.8c0-1.6,0.2-3.2,1-4.6c0.6-1.6,1.4-2.8,2.6-4
		c1.2-1,2.6-1.8,4.2-2.4c1.6-0.8,3.6-1,5.4-1c2.8,0,5.6,0.6,8.2,1.8c2.4,1.4,4.4,3,6.2,5.2l-6.2,5.4c-1-1.4-2.4-2.8-3.8-3.8
		c-1.4-0.8-2.8-1.4-4.4-1.4c-1.2,0-2.6,0.4-3.4,1.4c-1,0.8-1.4,1.8-1.4,3c0,1.8,1.2,3.6,3,4.2l6.4,3.2c2.4,1,4.6,2.6,6.6,4.4
		c2,2,3.2,4.8,3,7.8c-0.2,1.8-0.6,3.6-1.2,5.2c-0.8,1.4-1.8,2.8-3,4c-1.2,1-2.6,1.8-4.2,2.4c-1.8,0.6-3.6,0.8-5.4,0.8
		c-3,0-6-0.6-8.8-1.8C394,251.9,391.8,250.1,390,248.1z"/>
	<path class="st0" d="M428,253.7v-41.2h24v7h-15.8v9.6h13.4v7.2h-13.4v10.2H452v7.2H428z"/>
	<g id="Marianne">
		<path id="Fond-2" class="st1" d="M187.3,114.8l1.8-1.8l0,0c1-1.2,2.4-2.6,3.6-3.6l1.2-1c0.2-0.2,0.2-0.2,0.2-0.4l-1.4,0.8
			c0,0-0.2,0,0-0.2l1-0.8h-0.2c-1.4,0-2.6,0.6-3.4,1.6h-0.4c-1.6,0.6-2.8,2-4.4,2.6l0,0l-2,0.8c-0.8,0.2-1.8,0.2-2.6,0l-4,0.8l0,0
			l-2,0.8h-0.2c0,0.2,0,0.2-0.2,0.2l-0.6,0.6c-0.6,0.4-1.2,0.8-1.8,1.4h-0.2l-1.8,1.8h-0.2c0.2,0,0.2-0.2,0.4-0.4
			c0-0.2,0-0.2,0.2-0.4c0.2-0.2,0.4-0.6,0.4-0.8l0,0l1.8-1.2l0,0c-0.2,0-0.2,0-0.2-0.2h-0.4c-0.2,0.4-0.4,0.8-0.8,0.8l0,0
			c0-0.2,0-0.2,0.2-0.2l0,0l0.8-0.6l0,0l1.2-0.8h0.2l-1.8,0.8h-0.2c0,0,0,0.2-0.2,0l0,0l0.6-0.6h0.2c3.4-2.6,8.2-2,12.2-3.4l1-0.6
			c0.4-0.2,0.8-0.8,1.6-1c0.8-0.6,1.4-1.6,1.8-2.6h-0.2c-1.4,0.6-3,1-4.6,1c-2.2,0.8-4.8,1.2-7.2,1.2h0.6c0-0.2,0.2-0.4,0.4-0.6h0.4
			c0-0.2,0-0.2,0.2-0.2h0.4c-0.4-0.4-1,0.4-1.6,0c-0.6-0.4,0.2-0.4,0.4-0.6h0.4c0-0.2,0-0.2,0.2-0.4c1.6-1,3.2-1.6,4.6-2.6
			c1.4-1-0.4,0.4-0.8,0.2c-0.4-0.2,0-0.4,0.2-0.4c1.2-0.4,2.4-0.8,3.4-1.4c-0.4,0-0.8,0.4-1.2,0h0.6V103c0-0.2,0-0.2,0.2-0.2h-0.2
			l0.6-0.4h-0.2c0.4-0.4,0.8-0.6,1.4-0.6c-0.2-0.2-0.6,0-0.6-0.2s0.2-0.2,0.4-0.2h-0.4c-0.2,0-0.2,0-0.2-0.2c0-0.2,0-0.2,0.2-0.2
			l0,0c0.4-0.8,0.8-1.8,1-2.6h-0.2c-1.2,1-2.8,1.8-4.4,2.2h-0.6c-0.6,0.2-1.2,0.2-1.8-0.2l-1-0.8l-2.8-1.4c-2.6-1-5.4-1.8-8.2-2
			c1.2-0.4,2.6-0.8,3.8-1c1.8-0.8,3.6-1,5.4-1c-0.4-0.2-0.8,0-1,0c-1.6,0-3.2,0.2-4.6,0.6l-3.2,0.8c-0.6,0.2-1,1-1.6,0.8V96
			c1-1.4,2.4-2.4,4-2.6c1.8-0.2,3.8-0.2,5.6,0.2l4.2,0.8c0.4,0,0.6,0.8,1,1c0.4,0.2,1.2,0,2,0.4c0.8,0.4-0.2-0.4,0-0.6
			c0.2-0.2,0.8,0,1.4-0.2c0.6-0.2-0.8-1.4-1.2-2.2l0,0c0.8,0.8,1.6,1.4,2.6,2c0.6,0.4,1.8,0.6,1.6,0c-0.6-1.2-1.4-2.2-2.4-3.2v-0.4
			h-0.4v-1c-0.4-0.2-0.2-0.6-0.6-0.8c-0.4-0.2,0-1.4-0.2-2s-0.4-1.2-0.4-1.8c-0.4-1.8-0.8-3.4-1-5.2c-0.2-2,1.2-3.6,2.2-5.4
			c0.6-1.4,1.6-2.6,3-3.4c0.4-1.2,1-2.4,2-3.4c0.8-1,2-1.8,3.2-2.2l3-1.2h21.4l0.4,0.4l1.6,0.8c0.8,0.4,1.4,1,2,1.6
			c0.2,0.4,0.6,1,0.4,1.4c-0.2,0.4-0.4,1.4-0.8,1.6c-0.8,0.4-1.6,0.4-2.4,0.4l-1.2-0.4c1.6,0.6,3.2,1.6,4.2,3l1,0.4l0,0
			c-0.2,0.2-0.4,0.4-0.2,0.6h0.2c0.6-0.2,0.4-1.2,1.2-0.8c0.6,0.2,0.8,0.8,0.6,1.2c0,0.2-0.2,0.2-0.2,0.4l-1.2,1
			c-0.2,0.2-0.2,0.6,0,0.8l0.6,1.2l0.6,2.4c0.6,1.6,0.8,3.2,0.8,4.8c0,0.8-0.4,1.6-0.2,2.4c0.4,0.8,0.8,1.6,1.2,2.4
			c0.6,0.4,1,1,1.2,1.6c0.6,1,1.8,2.2,1.4,3.4c-0.4,1.2-1.6,0.6-2.4,1.2s0,1.4,0.4,1.8c0.4,0.4-0.8,1.6-1.4,2s0.6,0.2,0.6,0.4
			c0,0.2,0.8,0.8,0.4,1.4c-0.4,0.6-1.8,1-1,2c0.8,1,0,1.6-0.2,2.2c-0.4,0.8-1,1.4-2,1.6c-0.6,0.4-1.4,0.4-2,0.2h-0.6
			c-1.8-0.4-3.6-0.6-5.4-0.8l-1.6,0.4l-1.2,1.2h-0.6l-0.8,1.2l0,0c0,0.2,0,0.2-0.2,0.2l-0.8,2c-0.6,2.4-0.4,4.6,0.2,5
			s3.6,1.2,5.8,2.4l2.6,1.2h-44c2.2-1.4,4.6-2.6,7-3.6c2-0.8,3.8-1.8,5.4-3.2 M170.9,106.6c-0.2,0-0.6,0.2-0.6,0
			c0-0.2,0.8-0.6,1.4-0.8c0.6-0.2,0.4-0.4,0.6-0.2l0.8,0.4C172.5,106.6,171.7,106.4,170.9,106.6 M154.5,104.2L154.5,104.2
			c1.2-1.6,2.4-3.4,3.4-5.4c1.2-0.8,2.4-1.6,3.6-2.6c1.6-2,3.8-3.6,6-4.8c1-0.2,2-0.2,2.8,0.2c-0.4,0.4-1,0.4-1.4,0.6h-0.2v-0.4
			c-1,1.2-2.6,1.8-3.4,3.2c-0.8,1.4-1,2.4-2.4,2.6s0-0.2-0.2-0.2c-3,2.2-5.8,4.6-8.2,7.4 M163.3,97.8c0,0.2-0.2,0.2-0.2,0.4
			c0,0.2-0.2,0.4-0.4,0.4h-0.2C162.5,98.2,162.9,97.6,163.3,97.8L163.3,97.8 M168.3,113.6c0,0.2-0.2,0.2-0.2,0.4
			c0,0.2,0.2,0,0.2,0.2l-0.8,0.4c-0.2,0-0.2,0-0.2,0.2h-0.4c-0.2,0.2-0.8,0.2-0.6,0l0.8-0.8c0.2-0.2,0.4-0.2,0.4-0.4H168.3
			 M166.5,112.8L166.5,112.8l-1.4,0.8l-1.4,0.6h-0.2l-1,0.8h-0.6c0,0.2,0,0.2-0.2,0.2h-0.2c0,0.2,0,0.2-0.2,0.2h-0.2
			c-0.2,0.2-0.4,0.2-0.4,0.4l-0.6,0.6h-0.6l0.4-0.4h0.4c0-0.2,0.2-0.4,0.4-0.4l0,0l0,0c0-0.2,0-0.2,0.2-0.2l0,0
			c0.2-0.2,0.2-0.2,0.2-0.4l0,0c0.2-0.2,0.4-0.4,0.4-0.6l0,0l-0.4,0.4c-0.2,0-0.2,0-0.2-0.2c0.2,0,0.2,0,0.2-0.2h0.2l0.4-0.6h0.4
			v-0.4l0,0c1.2-1,2.8-0.8,4.2-1.6c1.4-0.8,1.2,0.2,1.6,0h1l-2.6,1.8 M168.5,106.2c-0.2-0.2,0.2,0,0.4-0.4h-0.8l-1.8,0.6l-2.2,0.8
			c-1,0.6-2.2,1.2-3.4,1.8c-0.2,0-0.2,0-0.2-0.2l0.8-0.6l0,0c0.8-1,1.8-2,3-2.8V105c0.4-0.4,0.8-0.8,1.2-1.2c0.2-0.4,0.6-0.8,1-1
			h-0.4c-0.4,0-0.8,0.2-1.2-0.2l0.6-0.4h-0.2c-0.2-0.4,0.2-0.6,0.6-0.6l1.2-0.4c-0.8-0.2-1.6,0.2-2.4-0.2c0.4-1.4,1.4-2.6,2.8-3.2
			h0.2c0,0.6-0.2,1-0.8,1l2.6,0.8c0,0.2,0,0.2-0.2,0.2s-0.2,0-0.2-0.2c0.4,0.4,1.2,0.2,1.6,0.6c0.4,0.4-0.6,0-0.8,0
			c3.2,1,6.8,1.6,9.6,3.8c-2.4,0.8-4.8,1-7.4,1h-1c-0.4,0-0.8,0-1,0.4h-1.4"/>
		<path id="Rouge" class="st2" d="M187.3,114.8l1.8-1.8l0,0c1-1.2,2.4-2.6,3.6-3.6l1.2-1c0.2-0.2,0.2-0.2,0.2-0.4l-1.4,0.8
			c0,0-0.2,0,0-0.2l1-0.8h-0.2c-1.4,0-2.6,0.6-3.4,1.6h-0.4c-1.6,0.6-2.8,2-4.4,2.6l0,0l-2,0.8c-0.8,0.2-1.8,0.2-2.6,0l-4,0.8l0,0
			l-2,0.8h-0.2c0,0.2,0,0.2-0.2,0.2l-0.6,0.6l-1.8,1.4c-0.2,0-0.2,0-0.2,0.2l-1.8,1.6h-0.2c0.2,0,0.2-0.2,0.4-0.4
			c0-0.2,0-0.2,0.2-0.4c0.2-0.2,0.4-0.6,0.4-0.8l0,0l1.8-1.2l0,0c-0.2,0-0.2,0-0.2-0.2h-0.4c-0.2,0.4-0.4,0.8-0.8,0.8l0,0
			c0-0.2,0-0.2,0.2-0.2l0,0l0.8-0.6l0,0l1.2-0.8h0.2l-1.8,0.8h-0.2c0,0,0,0.2-0.2,0l0,0l0.6-0.6h0.2c3.4-2.6,8.2-2,12.2-3.4l1-0.6
			c0.4-0.2,0.8-0.8,1.6-1c0.8-0.6,1.4-1.6,1.8-2.6h-0.2c-1.4,0.6-3,1-4.6,1c-2.2,0.8-4.8,1.2-7.2,1.2h0.6c0-0.2,0.2-0.4,0.4-0.6h0.4
			c0-0.2,0-0.2,0.2-0.2h0.4c-0.4-0.4-1,0.4-1.6,0c-0.6-0.4,0.2-0.4,0.4-0.6h0.4c0-0.2,0-0.2,0.2-0.4c1.6-1,3.2-1.6,4.6-2.6
			c1.4-1-0.4,0.4-0.8,0.2c-0.4-0.2,0-0.4,0.2-0.4c1.2-0.4,2.4-0.8,3.4-1.4c-0.4,0-0.8,0.4-1.2,0h0.6V103c0-0.2,0-0.2,0.2-0.2h-0.2
			l0.6-0.4h-0.2c0.4-0.4,0.8-0.6,1.4-0.6c-0.2-0.2-0.6,0-0.6-0.2s0.2-0.2,0.4-0.2h-0.4c-0.2,0-0.2,0-0.2-0.2c0-0.2,0-0.2,0.2-0.2
			l0,0c0.4-0.8,0.8-1.8,1-2.6h-0.2c-1.2,1-2.8,1.8-4.4,2.2h-0.6c-0.6,0.2-1.2,0.2-1.8-0.2l-1-0.8l-2.8-1.4c-2.6-1-5.4-1.8-8.2-2
			c1.2-0.4,2.6-0.8,3.8-1c1.8-0.8,3.6-1,5.4-1c-0.4-0.2-0.8,0-1,0c-1.6,0-3.2,0.2-4.6,0.6l-3.2,0.8c-0.6,0.2-1,1-1.6,0.8V96
			c1-1.4,2.4-2.4,4-2.6c1.8-0.2,3.8-0.2,5.6,0.2l4.2,0.8c0.4,0,0.6,0.8,1,1c0.4,0.2,1.2,0,2,0.4c0.8,0.4-0.2-0.4,0-0.6
			c0.2-0.2,0.8,0,1.4-0.2c0.6-0.2-0.8-1.4-1.2-2.2l0,0c1,0.6,1.6,1.6,2.6,2c1,0.4,1.8,0.6,1.6,0c-0.6-1.2-1.4-2.2-2.4-3.2v-0.4h-0.4
			v-1c-0.4-0.2-0.2-0.6-0.4-0.8c-0.2-0.2-0.2-1.4-0.4-2c-0.2-0.6-0.4-1.2-0.4-1.8c-0.4-1.8-0.8-3.4-1-5.2c-0.2-2,1.2-3.6,2.2-5.4
			c0.6-1.4,1.6-2.6,3-3.4c0.4-1.2,1-2.4,2-3.4c0.8-1,2-1.8,3.2-2.2l3-1.2h-73.6v56.8h52c2.2-1.4,4.6-2.6,7-3.6
			C183.9,117.2,185.7,116.2,187.3,114.8 M170.9,107.2c-0.2,0-0.6,0.2-0.6,0c0-0.2,0.8-0.6,1.4-0.8c0.6-0.2,0.4-0.4,0.6-0.2l0.8,0.4
			C172.5,107.2,171.7,107,170.9,107.2 M154.5,104.8L154.5,104.8c1.2-1.6,2.4-3.4,3.4-5.4c1.4-0.8,2.6-2,3.6-3.2c1.6-2,3.8-3.6,6-4.8
			c1-0.2,2-0.2,2.8,0.2c-0.4,0.4-1,0.4-1.4,0.6h-0.2v-0.4c-1,1.2-2.6,1.8-3.4,3.2c-0.8,1.4-1,2.4-2.4,2.6s0-0.2-0.2-0.2
			C159.7,99.6,156.9,102,154.5,104.8 M163.3,97.8c0,0.2-0.2,0.2-0.2,0.4c0,0.2-0.2,0.4-0.4,0.4h-0.2
			C162.5,98.2,162.9,97.6,163.3,97.8L163.3,97.8 M168.3,113.6c0,0.2-0.2,0.2-0.2,0.4c0,0.2,0.2,0,0.2,0.2l-0.8,0.4h-0.6
			c-0.2,0.2-0.8,0.2-0.6,0l0.8-0.8c0.2-0.2,0.4-0.2,0.4-0.4c0.2,0,0.2,0,0.2-0.2h0.6 M166.5,112.4L166.5,112.4l-1.4,0.8l-1.4,0.6
			h-0.2l-1,0.8h-0.6c0,0.2,0,0.2-0.2,0.2h-0.2c0,0.2,0,0.2-0.2,0.2h-0.2c-0.2,0.2-0.4,0.2-0.4,0.4l-0.6,0.6h-0.6l0.4-0.4h0.4
			c0-0.2,0.2-0.4,0.4-0.4l0,0l0,0c0-0.2,0-0.2,0.2-0.2l0,0c0.2-0.2,0.2-0.2,0.2-0.4l0,0c0.2-0.2,0.4-0.4,0.4-0.6l0,0l-0.4,0.4
			c-0.2,0-0.2,0-0.2-0.2c0.2,0,0.2,0,0.2-0.2h0.2l0.4-0.6h0.4V113l0,0c1.2-1,2.8-0.8,4.2-1.6s1.2,0.2,1.6,0h1l-2.6,1.8 M168.5,105.8
			c-0.2-0.2,0.2,0,0.4-0.4h-0.8l-1.8,0.6l-2.2,0.8c-1,0.6-2.2,1.2-3.4,1.8c-0.2,0-0.2,0-0.2-0.2l0.8-0.6l0,0c0.8-1,1.8-2,3-2.8v-0.4
			c0.4-0.4,0.8-0.8,1.2-1.2c0.2-0.4,0.6-0.8,1-1h-0.4c-0.4,0-0.8,0.2-1.2-0.2l0.6-0.4h-0.2c-0.2-0.4,0.2-0.6,0.6-0.6l1.2-0.4
			c-0.8-0.2-1.6,0.2-2.4-0.2c0.4-1.4,1.4-2.6,2.8-3.2h0.2c0,0.6-0.2,1-0.8,1l2.6,0.8c0,0.2,0,0.2-0.2,0.2s-0.2,0-0.2-0.2
			c0.4,0.4,1.2,0.2,1.6,0.6c0.4,0.4-0.6,0-0.8,0c3.2,1,6.8,1.6,9.6,3.8c-2.4,0.8-4.8,1.4-7.4,1.4h-1c-0.4,0-0.8,0-1,0.4h-1.4"/>
		<path id="Bleu" class="st3" d="M278.7,64.8h-60.8l0.4,0.4l1.6,0.8c0.8,0.4,1.4,1,2,1.6c0.2,0.4,0.6,1,0.4,1.4
			c-0.2,0.4-0.4,1.4-0.8,1.6c-0.8,0.4-1.6,0.4-2.4,0.4l-1.2-0.4c1.6,0.6,3.2,1.6,4.2,3l1,0.4l0,0c-0.2,0.2-0.4,0.4-0.2,0.6h0.2
			c0.6-0.2,0.4-1.2,1.2-0.8c0.6,0.2,0.8,0.8,0.6,1.2c0,0.2-0.2,0.2-0.2,0.4l-1.2,1c-0.2,0.2-0.2,0.6,0,0.8l0.6,1.2l0.6,2.4
			c0.6,1.6,0.8,3.2,0.8,4.8c0,0.8-0.4,1.6,0,2.4c0.2,0.8,0.6,1.6,1,2.4c0.6,0.4,1,1,1.2,1.6c0.8,1,1.8,2.2,1.4,3.4
			c-0.4,1.2-1.6,0.6-2.4,1.2s0,1.4,0.4,1.8c0.4,0.4-0.8,1.6-1.4,2s0.6,0.2,0.6,0.4c0,0.2,0.8,0.8,0.4,1.4c-0.4,0.6-1.8,1-1,2
			c0.8,1,0,1.6-0.2,2.2c-0.4,0.8-1,1.4-2,1.6c-0.6,0.4-1.4,0.4-2,0.2h-0.6c-1.8-0.4-3.6-0.6-5.4-0.8l-1.6,0.4l-1.2,1.2h-0.6
			l-0.8,1.2l0,0c0,0.2,0,0.2-0.2,0.2l-0.8,2c-0.6,2.4-0.4,4.6,0.2,5s3.6,1.2,5.8,2.4l2.6,1.2h59.8V64.8z"/>
		<path id="Yeux" class="st4" d="M221.5,85.6h1c-0.2,1-1.4,1.2-2.2,2h-0.2c-0.4,0.2-0.2,0.8-0.6,0.8c-0.4,0-0.6,0-1,0
			c0.4,0.6,1,0.8,1.6,0.8l0.4,0.4h0.4v0.6c-0.4,0.4-0.8,0.2-1.2,0.4h2.4c0.6-0.4,0-1.4,0.4-2c0.4-0.6,0-0.2-0.2-0.2
			c-0.2,0,0.4-0.6,0.6-0.6c0.2,0,0.6-0.2,0.6-0.4c0-0.2-0.4-0.4-0.2-0.6c0.2-0.2,1.2-1,1-1.6c-0.2-0.6-1-0.4-1.6-0.6
			c-0.6-0.2-1.2,0-1.8,0.2l-1.6,0.4l-2,1c0.8-0.4,1.6-0.6,2.4-0.6C220.3,85.4,220.9,85.4,221.5,85.6"/>
	</g>
</g>
</svg>
