<svg width="40" height="40" viewBox="0 0 40 40" fill="none" xmlns="http://www.w3.org/2000/svg">
<path fill-rule="evenodd" clip-rule="evenodd" d="M34 6.5C33.7243 6.5 33.5 6.2757 33.5 6C33.5 5.72428 33.7243 5.5 34 5.5C34.2757 5.5 34.5 5.72428 34.5 6C34.5 6.2757 34.2757 6.5 34 6.5ZM20.5 38C20.2243 38 20 37.7757 20 37.5C20 37.2243 20.2243 37 20.5 37C20.7757 37 21 37.2243 21 37.5C21 37.7757 20.7757 38 20.5 38ZM7.5 5C7.2243 5 7 4.7757 7 4.5C7 4.22428 7.2243 4 7.5 4C7.7757 4 8 4.22428 8 4.5C8 4.7757 7.7757 5 7.5 5Z" fill="#ECECFE"/>
<path fill-rule="evenodd" clip-rule="evenodd" d="M26.5 22C26.7761 22 27 22.2239 27 22.5V27.5C27 27.7761 26.7761 28 26.5 28H21.5C21.2239 28 21 27.7761 21 27.5V22.5C21 22.2239 21.2239 22 21.5 22H26.5ZM23.5 25.5H22V27H23.5V25.5ZM26 25.5H24.5V27H26V25.5ZM23.5 23H22V24.5H23.5V23ZM26 23H24.5V24.5H26V23ZM22.5 16C22.7761 16 23 16.2239 23 16.5C23 16.7761 22.7761 17 22.5 17H17.5C17.2239 17 17 16.7761 17 16.5C17 16.2239 17.2239 16 17.5 16H22.5Z" fill="#E1000F"/>
<path fill-rule="evenodd" clip-rule="evenodd" d="M14.5 9C14.7761 9 15 9.22386 15 9.5C15 9.77614 14.7761 10 14.5 10H11V11H12.5C12.7564 11 12.9678 11.193 12.9966 11.4417L13 11.5C13 11.7761 12.7761 12 12.5 12H12V13.361L19.7801 9.55097L19.8339 9.52834C19.8423 9.5255 19.8466 9.52409 19.8509 9.52274C19.9003 9.50723 19.9503 9.49986 19.9999 9.49989C20.0497 9.49986 20.0997 9.50723 20.1487 9.52255L20.1555 9.52479L20.1661 9.52834L20.2199 9.55097L32.4699 15.551C32.7129 15.67 32.8171 15.9606 32.7052 16.2069L31.4552 18.9569C31.3364 19.2181 31.0227 19.326 30.7684 19.1931L30 18.7915V21.2353C30 21.5114 29.7761 21.7353 29.5 21.7353C29.2239 21.7353 29 21.5114 29 21.2353V18.3245L20 13.5655L11 18.324V30H13V22.5C13 22.2239 13.2239 22 13.5 22H18.5C18.7761 22 19 22.2239 19 22.5V30H24.5C24.7761 30 25 30.2239 25 30.5C25 30.7761 24.7761 31 24.5 31H4.5C4.22386 31 4 30.7761 4 30.5C4 30.2239 4.22386 30 4.5 30H6L6.00017 28.9686C4.7072 28.7976 4 27.9343 4 26.5C4 25.0694 4.68739 23.0072 6.05279 20.2764L6.0595 20.263L6.073 20.2395L6.091 20.2123C6.09667 20.2041 6.10264 20.1962 6.10886 20.1883C6.11505 20.1806 6.12145 20.173 6.12805 20.1657C6.13381 20.1592 6.13993 20.1528 6.14625 20.1465C6.15277 20.1399 6.15924 20.1338 6.16584 20.1279C6.17301 20.1215 6.18059 20.1151 6.18838 20.1089L6.21229 20.091L6.239 20.073L6.27639 20.0528L6.28228 20.0499C6.29299 20.0447 6.30398 20.0399 6.31512 20.0354L6.32527 20.0315L6.33554 20.0278C6.34367 20.025 6.35164 20.0224 6.35966 20.0201C6.37062 20.0168 6.38169 20.014 6.3928 20.0115L6.40267 20.0095C6.43369 20.0033 6.46483 20.0001 6.49579 19.9999H6.50421C6.52268 20 6.54122 20.0012 6.55974 20.0034L6.59733 20.0095L6.60725 20.0116C6.61831 20.014 6.62938 20.0168 6.6404 20.02L6.65234 20.0238L6.66422 20.0277C6.67133 20.0302 6.67817 20.0327 6.68499 20.0354C6.69602 20.0399 6.70701 20.0447 6.71782 20.0499L6.72361 20.0528L6.76 20.073L6.78773 20.091C6.79585 20.0967 6.80384 20.1026 6.81166 20.1089C6.81941 20.1151 6.82699 20.1215 6.83434 20.1281C6.84076 20.1338 6.84723 20.1399 6.85354 20.1462C6.86007 20.1528 6.86619 20.1592 6.87212 20.1658C6.87855 20.173 6.88495 20.1806 6.89115 20.1884L6.90905 20.2123L6.9265 20.239L6.94 20.263L6.94721 20.2764C8.31261 23.0072 9 25.0694 9 26.5C9 27.9341 8.29299 28.7974 7.00033 28.9685L7 30H10V18.7915L9.23163 19.1931C8.97732 19.326 8.66356 19.2181 8.54482 18.9569L7.29482 16.2069C7.18287 15.9606 7.28711 15.67 7.53007 15.551L11.1011 13.8015C11.0377 13.7177 11 13.6132 11 13.5V12H10.5C10.2239 12 10 11.7761 10 11.5V9.5C10 9.22386 10.2239 9 10.5 9H14.5ZM32.5295 23.0009C32.6475 23.0078 32.7634 23.0563 32.8536 23.1464C33.6244 23.9172 34 25.0442 34 26.5C34 27.7934 33.6874 28.6493 33.0005 28.9133L33 30H34.5C34.7761 30 35 30.2239 35 30.5C35 30.7761 34.7761 31 34.5 31H27.5C27.2239 31 27 30.7761 27 30.5C27 30.2239 27.2239 30 27.5 30H29V24.5C29 24.2239 29.2239 24 29.5 24C29.7761 24 30 24.2239 30 24.5V30H32L32 28.9135C31.3128 28.6497 31 27.7937 31 26.5C31 25.0442 31.3756 23.9172 32.1464 23.1464C32.2366 23.0563 32.3525 23.0078 32.4705 23.0009H32.5295ZM18 23H14V30H18V23ZM32.5004 24.3061L32.4829 24.3341C32.1637 24.8737 32 25.5919 32 26.5C32 27.5506 32.1883 27.9676 32.4662 27.9982L32.5 28L32.5338 27.9982C32.8117 27.9676 33 27.5506 33 26.5C33 25.5761 32.8306 24.8488 32.5004 24.3061ZM6.49994 21.6467L6.40083 21.8607C5.46503 23.8973 5 25.4513 5 26.5C5 27.5572 5.44281 28 6.5 28L6.60368 27.9985C7.58622 27.9698 8 27.522 8 26.5C8 25.4148 7.5021 23.7887 6.49994 21.6467ZM16.5 25C16.7761 25 17 25.2239 17 25.5V26.5C17 26.7761 16.7761 27 16.5 27C16.2239 27 16 26.7761 16 26.5V25.5C16 25.2239 16.2239 25 16.5 25ZM19.9995 10.5565L8.406 16.235L9.236 18.0615L19.7684 12.5569L19.7874 12.5474L19.7955 12.5435L19.8019 12.5409L19.807 12.5385L19.836 12.5276C19.8449 12.5246 19.8538 12.5218 19.8627 12.5192C19.867 12.5179 19.8716 12.5166 19.8761 12.5155L19.8931 12.5116C19.901 12.5098 19.909 12.5083 19.917 12.5069C19.9236 12.5057 19.9299 12.5048 19.9363 12.5039L19.948 12.5027C19.9556 12.5019 19.9633 12.5012 19.971 12.5008L19.979 12.5003L20.0132 12.5001L20.025 12.5005C20.0345 12.501 20.0441 12.5018 20.0535 12.5028C20.0555 12.5031 20.0578 12.5033 20.0601 12.5036C20.0697 12.5047 20.0763 12.5057 20.0828 12.5068C20.0875 12.5077 20.092 12.5085 20.0964 12.5094L20.1054 12.5111L20.1124 12.5127C20.1146 12.5133 20.1171 12.5139 20.1196 12.5145C20.1286 12.5167 20.1333 12.518 20.138 12.5193C20.1417 12.5205 20.1456 12.5217 20.1495 12.5229L20.164 12.5276L20.1981 12.5409L20.207 12.545L20.2157 12.5489L20.2316 12.5569L30.764 18.0615L31.594 16.235L19.9995 10.5565Z" fill="#000091"/>
</svg>
