<svg width="50" height="57" viewBox="0 0 50 57" fill="none" xmlns="http://www.w3.org/2000/svg">
<path fill-rule="evenodd" clip-rule="evenodd" d="M24.7081 55.9093C38.0002 55.9093 48.7756 45.134 48.7756 31.8419C48.7756 18.5498 38.0002 7.77441 24.7081 7.77441C11.416 7.77441 0.640625 18.5498 0.640625 31.8419C0.640625 45.134 11.416 55.9093 24.7081 55.9093Z" fill="white"/>
<path fill-rule="evenodd" clip-rule="evenodd" d="M3.59766 33.861V43.7927C5.78227 47.6112 8.99494 50.7688 12.8318 52.8983H31.0797V26.3525H11.1061C6.95719 26.3525 3.59766 29.7121 3.59766 33.861Z" fill="#161616"/>
<path fill-rule="evenodd" clip-rule="evenodd" d="M24.4898 55.9096C29.0243 55.9096 33.265 54.6613 36.8816 52.4766C35.982 45.2436 34.1278 30.0798 34.1462 30.0247C34.1646 29.9513 18.9273 30.2633 17.4587 30.4102C15.6596 30.5754 13.9523 32.0992 13.4933 33.7881H13.475L7.58203 48.9519C11.9145 53.2477 17.8809 55.9096 24.4898 55.9096Z" fill="#929292"/>
<path fill-rule="evenodd" clip-rule="evenodd" d="M19.2988 24.3049C19.4056 24.075 19.6785 23.9751 19.9084 24.0819C20.1383 24.1886 20.2381 24.4615 20.1314 24.6914C19.9235 25.1393 19.8571 25.7284 19.965 26.3453C20.163 27.457 20.8272 28.2284 21.3606 28.1786L21.3901 28.175C21.6407 28.1368 21.8747 28.3091 21.9129 28.5596C21.951 28.8102 21.7788 29.0443 21.5282 29.0824C20.3852 29.2564 19.3393 28.0668 19.0611 26.5048C18.9216 25.7074 19.0093 24.9284 19.2988 24.3049Z" fill="#929292"/>
<path fill-rule="evenodd" clip-rule="evenodd" d="M30.9395 23.6808C31.0462 23.4509 31.3191 23.3511 31.549 23.4578C31.7789 23.5646 31.8788 23.8375 31.772 24.0674C31.5641 24.5152 31.4977 25.1044 31.6056 25.7212C31.8036 26.8329 32.4678 27.6044 33.0012 27.5546L33.0307 27.5509C33.2813 27.5128 33.5154 27.685 33.5535 27.9356C33.5916 28.1862 33.4194 28.4203 33.1688 28.4584C32.0259 28.6323 30.9799 27.4428 30.7017 25.8808C30.5622 25.0834 30.65 24.3044 30.9395 23.6808Z" fill="#929292"/>
<path fill-rule="evenodd" clip-rule="evenodd" d="M27.9229 27.3982L28.4185 29.7113L30.4379 29.8031C30.6032 30.0968 31.6679 35.5492 26.546 35.7328C23.1865 35.8613 21.1487 32.9974 19.8086 30.464L22.6174 30.1703L21.4975 23.8184L27.9229 27.3982Z" fill="white"/>
<path fill-rule="evenodd" clip-rule="evenodd" d="M21.044 23.8991L22.0781 29.766L19.7593 30.0086C19.436 30.0424 19.2494 30.3923 19.4014 30.6797C20.2405 32.2659 21.0932 33.4951 22.1065 34.4343C23.3993 35.6324 24.8735 36.257 26.562 36.1924C29.0247 36.1042 30.4349 34.8682 30.9185 32.9209C31.2235 31.6932 31.0953 30.0395 30.8364 29.5792L30.8188 29.5504C30.7382 29.4289 30.6041 29.3524 30.4572 29.3457L28.7915 29.2699L28.3701 27.3031C28.3424 27.1738 28.2602 27.0627 28.1447 26.9983L21.7194 23.4185C21.3817 23.2304 20.9769 23.5184 21.044 23.8991ZM22.1157 24.6901L27.5161 27.699L27.9683 29.8089L27.9763 29.8406C28.0306 30.0281 28.1988 30.1622 28.3963 30.1712L30.0807 30.2477L30.0764 30.2247C30.1124 30.4074 30.1425 30.6282 30.1608 30.8646C30.2088 31.4848 30.172 32.1196 30.0278 32.7C29.6396 34.2629 28.5677 35.2024 26.5281 35.2755L26.4495 35.278C24.0452 35.3359 22.2385 33.8085 20.5872 30.931L20.5411 30.85L22.6637 30.6281C22.9284 30.6004 23.1141 30.3541 23.0679 30.092L22.1157 24.6901Z" fill="#3A3A3A"/>
<path fill-rule="evenodd" clip-rule="evenodd" d="M22.1461 23.5749C22.5066 22.7809 22.1252 21.8314 21.2942 21.4542C20.4633 21.077 19.4975 21.4148 19.137 22.2088C18.7766 23.0028 19.158 23.9523 19.9889 24.3295C20.8198 24.7067 21.7856 24.3689 22.1461 23.5749Z" fill="white"/>
<path fill-rule="evenodd" clip-rule="evenodd" d="M18.7174 22.0184C18.2502 23.0476 18.7398 24.2667 19.7974 24.7468C20.855 25.2269 22.0951 24.7931 22.5623 23.764C23.0295 22.7348 22.5398 21.5158 21.4823 21.0356C20.4247 20.5555 19.1846 20.9893 18.7174 22.0184ZM19.553 22.397C19.8067 21.8382 20.4983 21.5963 21.1026 21.8706C21.7068 22.1449 21.9799 22.8248 21.7262 23.3836C21.4725 23.9424 20.7809 24.1844 20.1767 23.9101C19.5724 23.6357 19.2993 22.9558 19.553 22.397Z" fill="#3A3A3A"/>
<path fill-rule="evenodd" clip-rule="evenodd" d="M33.5328 22.8249C33.8933 22.0309 33.5119 21.0814 32.681 20.7042C31.85 20.327 30.8842 20.6648 30.5238 21.4588C30.1633 22.2528 30.5447 23.2023 31.3756 23.5795C32.2065 23.9567 33.1723 23.6189 33.5328 22.8249Z" fill="white"/>
<path fill-rule="evenodd" clip-rule="evenodd" d="M30.1041 21.2684C29.6369 22.2976 30.1266 23.5167 31.1842 23.9968C32.2418 24.4769 33.4818 24.0431 33.949 23.014C34.4162 21.9848 33.9266 20.7658 32.869 20.2856C31.8114 19.8055 30.5713 20.2393 30.1041 21.2684ZM30.9397 21.647C31.1934 21.0882 31.885 20.8463 32.4893 21.1206C33.0935 21.3949 33.3666 22.0748 33.1129 22.6336C32.8592 23.1924 32.1676 23.4344 31.5634 23.1601C30.9591 22.8857 30.686 22.2058 30.9397 21.647Z" fill="#3A3A3A"/>
<path fill-rule="evenodd" clip-rule="evenodd" d="M27.7152 28.7755C30.547 28.2005 32.2423 24.7782 31.5018 21.1316C30.7614 17.4851 27.8655 14.9951 25.0337 15.5701C22.2019 16.1452 20.5065 19.5674 21.247 23.214C21.9875 26.8606 24.8834 29.3505 27.7152 28.7755Z" fill="white"/>
<path fill-rule="evenodd" clip-rule="evenodd" d="M24.9444 15.1194C21.8357 15.7507 20.0127 19.4308 20.7993 23.3044C21.5859 27.178 24.6999 29.8556 27.8085 29.2243C30.9172 28.5931 32.7402 24.913 31.9536 21.0394C31.1671 17.1657 28.053 14.4882 24.9444 15.1194ZM25.1269 16.0188C27.6819 15.5 30.3596 17.8024 31.054 21.2219C31.7483 24.6413 30.1807 27.8058 27.6257 28.3246C25.0708 28.8434 22.3931 26.541 21.6987 23.1216C21.0043 19.7021 22.572 16.5376 25.1269 16.0188Z" fill="#3A3A3A"/>
<path fill-rule="evenodd" clip-rule="evenodd" d="M27.5946 20.551C27.8285 20.4841 28.072 20.6115 28.1527 20.8374L28.162 20.8662L28.933 23.5648L28.9417 23.6009C29.0123 23.954 28.7784 24.3291 28.3814 24.3508L27.379 24.4062C27.1259 24.4202 26.9093 24.2265 26.8953 23.9734C26.8818 23.7304 27.0598 23.5211 27.298 23.4923L27.328 23.4897L27.947 23.4552L27.2794 21.1184C27.2125 20.8844 27.3399 20.6409 27.5658 20.5602L27.5946 20.551Z" fill="#3A3A3A"/>
<path fill-rule="evenodd" clip-rule="evenodd" d="M24.5799 18.902C25.0523 18.625 25.5655 18.5286 26.0702 18.7549C26.1999 18.8131 26.3232 18.8916 26.4389 18.9904C26.6316 19.1549 26.6545 19.4446 26.4899 19.6374C26.3325 19.8218 26.0606 19.8507 25.8686 19.7089L25.8429 19.6885C25.7929 19.6458 25.7437 19.6145 25.6946 19.5925C25.5105 19.5099 25.286 19.552 25.0442 19.6938C24.9668 19.7392 24.9052 19.784 24.8664 19.8158L24.839 19.8397C24.654 20.0129 24.3635 20.0033 24.1903 19.8183C24.0171 19.6333 24.0267 19.3428 24.2117 19.1696C24.2899 19.0964 24.415 18.9987 24.5799 18.902Z" fill="#3A3A3A"/>
<path fill-rule="evenodd" clip-rule="evenodd" d="M28.625 18.671C28.9222 18.5978 29.2314 18.5739 29.536 18.6325C29.9592 18.7138 30.314 18.9492 30.5417 19.3522C30.6664 19.5728 30.5887 19.8528 30.368 19.9775C30.1565 20.0971 29.8906 20.0306 29.759 19.8306L29.7426 19.8038C29.654 19.6471 29.5326 19.5665 29.3626 19.5338C29.2071 19.5039 29.0238 19.5181 28.8444 19.5623L28.7927 19.5759C28.7616 19.5845 28.7378 19.5922 28.7227 19.5976L28.713 19.6012C28.4772 19.694 28.2107 19.578 28.1179 19.3421C28.0251 19.1063 28.1411 18.8398 28.377 18.747L28.4234 18.7299C28.4753 18.7118 28.5434 18.6911 28.625 18.671Z" fill="#3A3A3A"/>
<path fill-rule="evenodd" clip-rule="evenodd" d="M26.4096 21.4765C26.414 21.1521 26.2369 20.8866 26.0138 20.8835C25.7908 20.8804 25.6064 21.1409 25.6019 21.4653C25.5974 21.7897 25.7746 22.0552 25.9976 22.0583C26.2206 22.0614 26.4051 21.8009 26.4096 21.4765Z" fill="#3A3A3A"/>
<path fill-rule="evenodd" clip-rule="evenodd" d="M29.7975 22.1495C30.0196 22.1292 30.1751 21.8426 30.1447 21.5094C30.1143 21.1762 29.9095 20.9225 29.6874 20.9428C29.4652 20.9631 29.3098 21.2496 29.3402 21.5828C29.3706 21.916 29.5753 22.1697 29.7975 22.1495Z" fill="#3A3A3A"/>
<path fill-rule="evenodd" clip-rule="evenodd" d="M24.6599 24.4871C24.9383 26.0498 25.5796 26.8348 26.4868 26.87C26.8075 26.8825 27.1178 26.7958 27.4122 26.6449C27.5694 26.5643 27.698 26.4786 27.7924 26.4042L27.8298 26.3738C28.0646 26.1771 28.0444 25.8101 27.7896 25.6402L25.3663 24.0247C25.03 23.8005 24.589 24.0891 24.6599 24.4871ZM25.9279 25.5019L26.6011 25.9507L26.5685 25.9529C26.5532 25.9533 26.5381 25.9533 26.523 25.9527C26.3118 25.9445 26.1146 25.8209 25.9445 25.5308L25.9279 25.5019Z" fill="#3A3A3A"/>
<path fill-rule="evenodd" clip-rule="evenodd" d="M19.7146 16.2922C20.761 15.1356 22.6335 14.3095 24.3408 14.0341L24.3592 14.0158C35.3006 11.9596 33.6484 18.5869 33.6484 18.5869L31.7024 18.4951C32.1798 19.7618 32.1798 20.9551 31.6474 21.7445C31.6474 21.7262 31.6474 21.7078 31.6474 21.6894C31.4821 20.4778 31.0783 19.3763 30.5092 18.4401L24.7447 18.183C24.9099 17.3569 24.1756 16.6042 23.6249 16.182C23.6432 16.5125 23.7167 20.4227 21.1282 21.4324C21.1282 21.8179 21.1465 22.2218 21.2016 22.6073C21.22 22.7175 21.2383 22.8276 21.2567 22.9378C21.0915 22.9378 20.9262 22.9194 20.7794 22.9011C18.8151 22.6624 17.8604 18.3483 19.7146 16.2922Z" fill="#3A3A3A"/>
<path fill-rule="evenodd" clip-rule="evenodd" d="M32.1929 22.6146C33.3432 22.4146 34.4108 23.6129 34.6879 25.1904C34.9648 26.7668 34.3646 28.257 33.213 28.4573C33.1957 28.4603 33.1782 28.4623 33.1607 28.4633L33.1344 28.4641H33.0976C32.8442 28.4641 32.6387 28.2586 32.6387 28.0051C32.6387 27.7618 32.8281 27.5627 33.0675 27.5471L33.087 27.5464L33.1127 27.5396C33.6111 27.3927 33.9637 26.4832 33.794 25.4101L33.7838 25.3492C33.5867 24.2273 32.9118 23.4536 32.3791 23.5148L32.3502 23.519C32.1004 23.5624 31.8628 23.3952 31.8194 23.1454C31.7759 22.8957 31.9432 22.6581 32.1929 22.6146Z" fill="#929292"/>
<path fill-rule="evenodd" clip-rule="evenodd" d="M20.5562 23.2396C21.7065 23.0396 22.774 24.2379 23.0512 25.8154C23.3281 27.3918 22.7279 28.882 21.5763 29.0823C21.559 29.0853 21.5415 29.0873 21.524 29.0883L21.4976 29.0891H21.4609C21.2075 29.0891 21.002 28.8836 21.002 28.6301C21.002 28.3868 21.1913 28.1877 21.4307 28.1721L21.4497 28.1715L21.476 28.1646C21.9744 28.0177 22.327 27.1082 22.1573 26.0351L22.1471 25.9742C21.95 24.8523 21.2751 24.0786 20.7424 24.1398L20.7134 24.144C20.4637 24.1874 20.2261 24.0202 20.1826 23.7704C20.1392 23.5207 20.3064 23.2831 20.5562 23.2396Z" fill="#929292"/>
<path fill-rule="evenodd" clip-rule="evenodd" d="M37.7621 31.8967C36.6973 31.0338 35.7978 30.2077 35.2654 29.5101C34.8064 28.9594 34.4209 28.5371 34.1088 28.1883C33.3561 27.3806 32.2914 26.9216 31.1899 26.94C30.3454 26.94 29.3541 26.9767 28.8951 27.1052C27.9772 27.3622 24.9481 28.1516 25.095 28.6289C25.1868 28.9594 26.8207 28.8859 27.6468 28.8125L29.0787 30.942C29.0787 30.942 29.8314 30.7768 30.2536 30.8503C31.1165 30.9971 32.0527 31.401 32.5484 31.1623C32.5484 31.1623 33.1175 32.4107 34.2924 34.1547" fill="white"/>
<path fill-rule="evenodd" clip-rule="evenodd" d="M30.9881 26.4826L31.1818 26.482C32.4108 26.4616 33.6012 26.9717 34.4504 27.8833L34.8887 28.3726C34.918 28.4056 34.9467 28.4379 34.9754 28.4704C35.1553 28.6739 35.3234 28.8678 35.4914 29.0668L35.6175 29.2172L35.6298 29.2326C36.1011 29.8501 36.9204 30.6252 38.0506 31.541C38.2475 31.7006 38.2778 31.9896 38.1182 32.1866C37.9587 32.3835 37.6697 32.4138 37.4727 32.2542C36.3263 31.3252 35.4783 30.5277 34.9488 29.8524L34.9074 29.7989L34.7899 29.6588C34.6675 29.5138 34.5449 29.3715 34.4173 29.2256L34.2454 29.0306L33.7726 28.5022C33.1238 27.8058 32.2145 27.4051 31.2664 27.3995L31.0153 27.4004C30.1255 27.4058 29.3932 27.4533 29.0504 27.5396L28.2588 27.7588C27.9383 27.849 27.6488 27.9333 27.3747 28.0172L27.2582 28.0532C26.8843 28.1694 26.5568 28.2802 26.2817 28.3849L26.201 28.416L26.2101 28.4163C26.595 28.4214 27.0574 28.4014 27.4889 28.3662L27.6057 28.3563C27.7613 28.3425 27.9123 28.4087 28.0077 28.5304L28.0272 28.5574L29.2912 30.4374L29.3115 30.4342C29.4302 30.4157 29.5478 30.4007 29.662 30.3902L29.775 30.3812C29.9853 30.3673 30.1708 30.371 30.3302 30.3988C30.43 30.4157 30.5333 30.4363 30.6445 30.4609L30.804 30.4976C30.8667 30.5126 30.9323 30.5288 31.0109 30.5486L31.298 30.6211C31.9428 30.7808 32.1991 30.8127 32.3367 30.7552L32.3489 30.7498C32.5714 30.6426 32.8367 30.7311 32.952 30.9455L33.0243 31.0962L33.0662 31.1813C33.1533 31.3565 33.2586 31.559 33.3823 31.7857C33.7371 32.4362 34.1669 33.1485 34.6726 33.8992C34.8142 34.1095 34.7586 34.3947 34.5484 34.5363C34.3382 34.6779 34.053 34.6223 33.9114 34.4121C33.4239 33.6885 33.0041 32.9984 32.6511 32.361L32.5765 32.2252C32.5118 32.1067 32.4518 31.9942 32.3964 31.8882L32.3018 31.7043L32.2797 31.7062C31.9967 31.7251 31.6423 31.6544 31.0288 31.5001L30.6646 31.4083C30.6269 31.399 30.5917 31.3906 30.5571 31.3825L30.5226 31.3744C30.3947 31.3448 30.2816 31.3216 30.1746 31.3034C30.0976 31.29 29.9794 31.2876 29.8355 31.2971C29.7162 31.305 29.5861 31.3204 29.4526 31.3412C29.4046 31.3487 29.3583 31.3565 29.3144 31.3644L29.1767 31.3913C29.0035 31.4293 28.8249 31.364 28.7169 31.2258L28.6974 31.1991L27.4154 29.2924L27.278 29.302C26.9096 29.3259 26.5347 29.3384 26.2046 29.3343L26.083 29.3319L25.8989 29.3256C25.1508 29.2935 24.772 29.1834 24.6559 28.7648C24.5482 28.4147 24.732 28.169 25.0507 27.9567C25.2312 27.8365 25.4793 27.7162 25.7954 27.5894C26.0985 27.4679 26.4615 27.3418 26.8799 27.2098L26.9856 27.1767C27.2635 27.0903 27.5535 27.0047 27.872 26.9143L28.771 26.6642C29.2021 26.5435 29.9994 26.4888 30.9881 26.4826Z" fill="#3A3A3A"/>
<path fill-rule="evenodd" clip-rule="evenodd" d="M29.2068 27.7852C29.2068 27.7852 27.169 28.7949 27.2608 29.5659C27.3526 30.3369 27.9584 30.1717 27.9584 30.1717" fill="white"/>
<path fill-rule="evenodd" clip-rule="evenodd" d="M29.0051 27.375C29.2323 27.2624 29.5076 27.3553 29.6201 27.5824C29.728 27.8001 29.6472 28.062 29.4404 28.1825L29.4037 28.2019L29.338 28.2358C29.2752 28.2687 29.2048 28.3067 29.1289 28.3493C28.9121 28.4709 28.6956 28.6036 28.4954 28.742C28.1658 28.97 27.9173 29.1891 27.791 29.37C27.7343 29.4512 27.7173 29.5007 27.7187 29.5127C27.7304 29.6107 27.7515 29.6726 27.7746 29.7069C27.7823 29.7184 27.7855 29.721 27.7901 29.7231C27.7998 29.7273 27.8173 29.7293 27.8347 29.7285L27.8517 29.7269C27.852 29.7268 27.8485 29.7276 27.8398 29.73C28.0843 29.6633 28.3366 29.8075 28.4033 30.052C28.47 30.2965 28.3259 30.5488 28.0813 30.6155C28.059 30.6216 28.0301 30.628 27.9952 30.6335C27.8148 30.6621 27.6188 30.6501 27.4218 30.5638C27.0825 30.4152 26.8629 30.0888 26.8072 29.6212C26.7752 29.3524 26.8642 29.0941 27.0384 28.8446C27.2407 28.5547 27.5615 28.2719 27.9734 27.987C28.1996 27.8307 28.4398 27.6834 28.6799 27.5487L28.801 27.4818C28.8881 27.4345 28.9579 27.3984 29.0051 27.375Z" fill="#3A3A3A"/>
<path fill-rule="evenodd" clip-rule="evenodd" d="M29.5747 28.6113C29.5747 28.6113 27.8307 29.6577 27.9775 30.4288C28.1244 31.1815 28.7302 30.9795 28.7302 30.9795" fill="white"/>
<path fill-rule="evenodd" clip-rule="evenodd" d="M29.3369 28.2178C29.5543 28.0874 29.8362 28.1579 29.9666 28.3752C30.0916 28.5835 30.0321 28.8511 29.8356 28.9878L29.7497 29.0419C29.6988 29.0742 29.6416 29.1116 29.5799 29.1535C29.4035 29.2732 29.2273 29.4039 29.0645 29.5401C28.7983 29.7627 28.5979 29.976 28.4939 30.1543C28.4376 30.2507 28.4213 30.3145 28.4264 30.3409C28.4437 30.4298 28.4674 30.4866 28.4917 30.5192C28.5014 30.5322 28.5072 30.5366 28.5139 30.5394C28.5268 30.5449 28.5495 30.5466 28.5728 30.5442L28.5902 30.5416C28.5935 30.5409 28.5919 30.5413 28.5835 30.5442C28.8239 30.464 29.0838 30.594 29.164 30.8344C29.2441 31.0749 29.1142 31.3348 28.8737 31.415C28.8468 31.4239 28.8111 31.4336 28.7675 31.4422C28.5752 31.48 28.3674 31.4734 28.1588 31.3859C27.8339 31.2495 27.61 30.9501 27.5251 30.5147C27.4725 30.2386 27.5427 29.9632 27.701 29.6918C27.8688 29.4042 28.1351 29.1208 28.4757 28.836C28.6642 28.6783 28.8643 28.5298 29.0644 28.3941L29.1408 28.3428C29.2252 28.2868 29.2925 28.2445 29.3369 28.2178Z" fill="#3A3A3A"/>
<path fill-rule="evenodd" clip-rule="evenodd" d="M30.0704 29.6211C30.0704 29.6211 27.9959 30.9245 29.1341 31.4202C30.2723 31.9159 30.6762 31.6772 30.6762 31.6772C30.6762 31.6772 31.1535 31.0714 29.9603 30.8144" fill="white"/>
<path fill-rule="evenodd" clip-rule="evenodd" d="M29.8253 29.2325C30.04 29.0977 30.3233 29.1623 30.4581 29.377C30.593 29.5916 30.5283 29.8749 30.3137 30.0097L30.2425 30.0563C30.2121 30.0767 30.1756 30.1017 30.1343 30.1308C30.0511 30.1894 29.968 30.2511 29.8872 30.3146L29.8017 30.3834L29.8254 30.3754C29.8887 30.356 29.9571 30.3501 30.0263 30.3603L30.056 30.3657C30.5573 30.4737 30.8978 30.6571 31.0836 30.9327C31.2774 31.2202 31.2642 31.5286 31.1366 31.7957C31.1029 31.8663 31.0672 31.9214 31.0358 31.9613C31.0007 32.0058 30.9576 32.0435 30.9088 32.0724C30.861 32.1006 30.797 32.1276 30.7166 32.1492C30.3159 32.2568 29.7359 32.1832 28.95 31.841C28.2602 31.5406 28.174 30.9284 28.5618 30.357C28.7002 30.1532 28.8944 29.9509 29.1321 29.7471C29.2838 29.617 29.4448 29.4938 29.6055 29.3805L29.6742 29.3327C29.7388 29.2883 29.7905 29.2544 29.8253 29.2325ZM29.5485 30.6085C29.4522 30.7034 29.375 30.7923 29.3209 30.8721C29.303 30.8984 29.2893 30.9212 29.2788 30.9398L29.2617 30.972L29.2639 30.9732C29.2728 30.9783 29.2835 30.9839 29.296 30.9898L29.3161 30.999C29.4096 31.0397 29.4987 31.0755 29.5833 31.1067L29.6151 31.1181L29.5979 31.0973C29.5225 31.0011 29.4858 30.8756 29.5049 30.747L29.5103 30.7173C29.5167 30.6876 29.5258 30.6591 29.5374 30.6322L29.5485 30.6085Z" fill="#3A3A3A"/>
<path fill-rule="evenodd" clip-rule="evenodd" d="M45.5647 43.4826C44.2613 40.5637 40.1858 30.8339 38.4418 29.6406L32.6406 33.3857L40.3877 49.908C42.4622 48.0905 44.2246 45.9243 45.5647 43.4826Z" fill="#929292"/>
<path fill-rule="evenodd" clip-rule="evenodd" d="M18.89 40.4035C18.9876 40.1695 19.2563 40.059 19.4902 40.1566C19.7144 40.2501 19.8253 40.5008 19.7482 40.7275L19.7371 40.7569L17.5917 45.8991L30.7964 46.1611C31.0397 46.1659 31.235 46.3592 31.2458 46.5989L31.2462 46.6291C31.2414 46.8724 31.0481 47.0677 30.8084 47.0785L30.7782 47.0788L16.8995 46.8035C16.586 46.7973 16.374 46.487 16.4744 46.196L16.4851 46.1679L18.89 40.4035Z" fill="#3A3A3A"/>
<path fill-rule="evenodd" clip-rule="evenodd" d="M29.7215 35.7703C29.4461 35.7703 29.2075 35.9906 29.1524 36.2843L26.6006 49.8326L23.2411 49.8143C23.2411 49.8143 22.8189 52.5863 25.646 52.568C25.9764 52.568 31.1718 52.5863 36.6976 52.6047C42.7374 49.0432 47.0883 42.93 48.2448 35.752L29.7215 35.7703Z" fill="#3A3A3A"/>
<path fill-rule="evenodd" clip-rule="evenodd" d="M24.71 7.13184C11.063 7.13184 0 18.1949 0 31.8418C0 45.4888 11.063 56.5518 24.71 56.5518C38.357 56.5518 49.42 45.4888 49.42 31.8418C49.42 18.1949 38.357 7.13184 24.71 7.13184ZM24.7103 8.41717C37.6475 8.41717 48.1352 18.9049 48.1352 31.8421C48.1352 44.7793 37.6475 55.267 24.7103 55.267C11.773 55.267 1.28534 44.7793 1.28534 31.8421C1.28534 18.9049 11.773 8.41717 24.7103 8.41717Z" fill="#929292"/>
<path fill-rule="evenodd" clip-rule="evenodd" d="M19.8091 15.0993C21.5715 13.5756 22.2324 6.23239 16.78 1.77137C11.2542 -2.74472 7.3623 2.6342 6.51783 4.02942C5.67335 5.42463 5.25112 9.13297 9.96915 12.2171C14.6872 15.3013 17.7897 16.8434 19.8091 15.0993Z" fill="#3A3A3A"/>
<path fill-rule="evenodd" clip-rule="evenodd" d="M19.3706 16.586L18.9851 16.127C18.4343 15.4845 18.5261 14.5482 19.187 14.0525L19.2971 13.9608C19.958 13.4651 20.931 13.5752 21.4818 14.2178L22.0509 14.8787C20.9861 15.2825 20.0315 15.87 19.3706 16.586Z" fill="#929292"/>
<path fill-rule="evenodd" clip-rule="evenodd" d="M38.9031 14.8231C39.0132 15.0066 39.1234 15.1902 39.2335 15.3738C39.619 15.9613 40.7572 17.8705 40.7572 19.7614V22.2214C40.7572 23.2127 41.565 24.0205 42.5563 24.0205H44.7777C45.769 24.0205 46.5768 23.2127 46.5768 22.2214V19.7614C46.5768 17.485 48.4676 15.0984 48.4676 15.0984L49 14.1255C49.3305 13.3544 49.4957 12.4916 49.4406 11.592C49.2937 8.74653 46.999 6.41506 44.1535 6.21312C40.8307 5.99282 38.0586 8.61803 38.0586 11.8858C38.0586 12.7302 38.2422 13.5564 38.591 14.2723L38.9031 14.8231Z" fill="white"/>
<path fill-rule="evenodd" clip-rule="evenodd" d="M37.5078 11.8875C37.5078 12.8154 37.7103 13.7239 38.0958 14.5153L38.1118 14.5456L38.4239 15.0963L38.7612 15.6589L38.773 15.6777C39.5697 16.8917 40.2065 18.3979 40.2065 19.7631V22.2231C40.2065 23.5186 41.2608 24.573 42.5563 24.573H44.7776C46.0731 24.573 47.1275 23.5186 47.1275 22.2231V19.7631C47.1275 19.6768 47.1306 19.589 47.1368 19.4998C47.1946 18.6736 47.5118 17.7622 48.0075 16.8384C48.2044 16.4713 48.4158 16.1281 48.6268 15.8195C48.6709 15.755 48.713 15.6949 48.7526 15.6396L48.8601 15.4932C48.8786 15.4688 48.8918 15.4516 48.8993 15.4422C48.9186 15.4178 48.9358 15.3918 48.9507 15.3645L49.4831 14.3916C49.4916 14.3761 49.4993 14.3603 49.5062 14.3441C49.8798 13.4723 50.0492 12.5227 49.9903 11.5601C49.8294 8.44296 47.3163 5.88719 44.1924 5.6655C40.5648 5.42498 37.5078 8.28573 37.5078 11.8875ZM44.1171 6.76459C46.684 6.94677 48.7582 9.05609 48.8907 11.6224L48.8959 11.7259C48.9255 12.45 48.7995 13.1587 48.5329 13.8168L48.5031 13.8882L48.0062 14.7964L47.9333 14.8934C47.8738 14.974 47.8009 15.0762 47.7176 15.198C47.4854 15.5376 47.2536 15.9139 47.0369 16.3178C46.474 17.3671 46.1084 18.4174 46.0381 19.4232C46.0301 19.5376 46.0261 19.651 46.0261 19.7633V22.2233C46.0261 22.9105 45.4649 23.4717 44.7777 23.4717H42.5564C41.8692 23.4717 41.308 22.9105 41.308 22.2233V19.7633L41.307 19.6567C41.2778 18.0927 40.6099 16.495 39.7527 15.1639L39.7006 15.0839L39.3754 14.5416L39.0786 14.0174L39.0861 14.0331C38.7751 13.3945 38.6094 12.6511 38.6094 11.8877C38.6094 8.92295 41.1276 6.56639 44.1171 6.76459Z" fill="#3A3A3A"/>
<path fill-rule="evenodd" clip-rule="evenodd" d="M45.9543 10.3818C46.7679 10.3818 47.4416 11.0148 47.4937 11.8215L47.496 11.8682L47.4963 11.8872C47.4963 12.4804 47.1612 13.0117 46.6513 13.2746L46.5902 13.3048L46.5772 13.313C46.4259 13.4033 46.2537 13.4599 46.0626 13.4938L45.9983 13.5042C45.7841 13.536 45.5672 13.539 45.3655 13.5258L45.2969 13.5203L45.1081 13.5154L45.1054 13.5422C45.0801 13.7801 45.0582 14.0372 45.0405 14.3114L45.0263 14.5497C44.957 15.7947 44.9579 17.0906 44.9995 19.2566C45.0054 19.5607 44.7636 19.8119 44.4595 19.8178C44.1554 19.8236 43.9041 19.5819 43.8983 19.2777L43.8825 18.3713C43.8561 16.6194 43.8665 15.4741 43.9359 14.3277C43.9489 14.1128 43.9635 13.9074 43.9801 13.7116L44.0002 13.4864L43.4517 13.4719L43.4551 13.5667C43.4617 13.7887 43.4576 13.9981 43.4432 14.1793L43.4392 14.2244V19.2488C43.4392 19.5421 43.2099 19.7819 42.9208 19.7986L42.8885 19.7995C42.5952 19.7995 42.3554 19.5703 42.3387 19.2812L42.3377 19.2488V14.2003L42.3384 14.1729L42.3405 14.1455C42.3621 13.9295 42.3657 13.6963 42.3544 13.4617L42.3531 13.4425L41.8526 13.432L41.5768 13.4296L41.2179 13.4293C41.1879 13.4293 41.1579 13.4268 41.1283 13.422L41.0843 13.4128L41.0054 13.3931C40.3348 13.2182 39.8594 12.6092 39.8594 11.9056C39.8594 11.069 40.5465 10.3818 41.3831 10.3818C41.4866 10.3818 41.589 10.4008 41.7156 10.4339C41.7451 10.4416 41.7754 10.4501 41.8063 10.4591L41.9194 10.4939L41.9669 10.5096L41.9701 10.5103C42.6736 10.6614 43.0788 11.304 43.2927 12.2326L43.3073 12.2978L43.3215 12.3663L44.1513 12.3886L44.1537 12.3773C44.3154 11.5488 44.5641 11.0124 44.9555 10.7513L44.9896 10.7222C45.2561 10.5031 45.5917 10.3818 45.9543 10.3818ZM45.9541 11.4834C45.8546 11.4834 45.7704 11.5114 45.7023 11.5627L45.6827 11.5791C45.6563 11.6055 45.6274 11.6291 45.5963 11.6495L45.5645 11.669C45.48 11.7168 45.3875 11.937 45.302 12.2996L45.2752 12.418L45.3675 12.421L45.4372 12.4267C45.5676 12.4352 45.7116 12.4333 45.8367 12.4147C45.9183 12.4027 45.9785 12.3849 46.0067 12.3705L46.0448 12.3472L46.075 12.331L46.1222 12.3075C46.2789 12.2332 46.3813 12.0866 46.3935 11.9207L46.3943 11.8972L46.3931 11.8772C46.3715 11.666 46.1973 11.4985 45.9835 11.4844L45.9541 11.4834ZM41.3689 11.4845L41.3548 11.4851C41.1391 11.5003 40.9609 11.6876 40.9609 11.9063C40.9609 12.0953 41.0812 12.2598 41.2482 12.3176L41.2781 12.3267L41.2861 12.3286L41.6567 12.3293L42.0034 12.3337L42.1827 12.3376L42.1727 12.3018C42.0629 11.9187 41.9134 11.6398 41.7477 11.5906L41.7269 11.5857C41.7074 11.5822 41.688 11.5776 41.6689 11.572L41.5796 11.5424C41.5632 11.5371 41.5451 11.5315 41.5261 11.5257L41.4661 11.5082L41.437 11.5003C41.4167 11.495 41.3987 11.4907 41.3838 11.4876L41.3689 11.4845Z" fill="#3A3A3A"/>
<path fill-rule="evenodd" clip-rule="evenodd" d="M46.5956 19.0479C46.8998 19.0479 47.1464 19.2944 47.1464 19.5986C47.1464 19.8919 46.9171 20.1316 46.628 20.1484L46.5956 20.1493H40.7578C40.4536 20.1493 40.207 19.9028 40.207 19.5986C40.207 19.3053 40.4363 19.0655 40.7254 19.0488L40.7578 19.0479H46.5956Z" fill="#3A3A3A"/>
<path fill-rule="evenodd" clip-rule="evenodd" d="M46.5956 20.4248C46.8998 20.4248 47.1464 20.6714 47.1464 20.9755C47.1464 21.2689 46.9171 21.5086 46.628 21.5254L46.5956 21.5263H40.7578C40.4536 21.5263 40.207 21.2797 40.207 20.9755C40.207 20.6822 40.4363 20.4425 40.7254 20.4257L40.7578 20.4248H46.5956Z" fill="#3A3A3A"/>
<path fill-rule="evenodd" clip-rule="evenodd" d="M46.5956 21.7998C46.8998 21.7998 47.1464 22.0464 47.1464 22.3505C47.1464 22.6439 46.9171 22.8836 46.628 22.9004L46.5956 22.9013H40.7578C40.4536 22.9013 40.207 22.6547 40.207 22.3505C40.207 22.0572 40.4363 21.8175 40.7254 21.8007L40.7578 21.7998H46.5956Z" fill="#3A3A3A"/>
</svg>
