
<svg width="240" height="94" viewBox="0 0 240 94" fill="none" xmlns="http://www.w3.org/2000/svg">
<path fill-rule="evenodd" clip-rule="evenodd" d="M111.045 9.83798C109.914 9.85306 108.812 9.95859 107.741 10.1546L111.257 30.0701L104.512 49.1414C106.745 49.9253 109.099 50.3173 111.468 50.3022C122.572 50.1816 131.61 40.9551 131.504 29.859C131.384 18.763 122.15 9.71738 111.045 9.83798Z" fill="#6A6AF4"/>
<path fill-rule="evenodd" clip-rule="evenodd" d="M86.7839 30.7931C86.8745 39.2508 92.2608 46.7888 100.227 49.6382L107.032 30.582L86.7839 30.7931Z" fill="#FCBFB7"/>
<path fill-rule="evenodd" clip-rule="evenodd" d="M102.429 6.4765C97.7068 7.30569 93.4369 9.79324 90.3741 13.4718C87.3113 17.1655 85.6517 21.8089 85.712 26.6031L105.96 26.392L102.429 6.4765Z" fill="#F95C5E"/>
<path fill-rule="evenodd" clip-rule="evenodd" d="M122.903 10.336C123.936 10.336 124.774 9.499 124.774 8.46654C124.774 7.43408 123.936 6.59711 122.903 6.59711C121.87 6.59711 121.032 7.43408 121.032 8.46654C121.032 9.499 121.87 10.336 122.903 10.336Z" fill="#6A6AF4"/>
<path fill-rule="evenodd" clip-rule="evenodd" d="M88.0354 47.0617C89.0687 47.0617 89.9063 46.2247 89.9063 45.1923C89.9063 44.1598 89.0687 43.3228 88.0354 43.3228C87.0022 43.3228 86.1646 44.1598 86.1646 45.1923C86.1646 46.2247 87.0022 47.0617 88.0354 47.0617Z" fill="#FCBFB7"/>
<path fill-rule="evenodd" clip-rule="evenodd" d="M86.1651 14.1963C87.1983 14.1963 88.0359 13.3594 88.0359 12.3269C88.0359 11.2944 87.1983 10.4575 86.1651 10.4575C85.1318 10.4575 84.2942 11.2944 84.2942 12.3269C84.2942 13.3594 85.1318 14.1963 86.1651 14.1963Z" fill="#F95C5E"/>
<path fill-rule="evenodd" clip-rule="evenodd" d="M142.563 6.85242C142.813 6.85242 143.016 7.05491 143.016 7.3047C143.016 7.54557 142.827 7.74246 142.59 7.75621L142.563 7.75698H126.434C126.184 7.75698 125.982 7.55449 125.982 7.3047C125.982 7.06383 126.17 6.86694 126.408 6.85318L126.434 6.85242H142.563Z" fill="#6A6AF4"/>
<path fill-rule="evenodd" clip-rule="evenodd" d="M131.247 9.15942C131.497 9.15942 131.7 9.36192 131.7 9.61171C131.7 9.85257 131.512 10.0495 131.274 10.0632L131.247 10.064H126.434C126.184 10.064 125.982 9.8615 125.982 9.61171C125.982 9.37084 126.17 9.17395 126.408 9.16019L126.434 9.15942H131.247Z" fill="#6A6AF4"/>
<path fill-rule="evenodd" clip-rule="evenodd" d="M215.861 51.978C208.861 41.1533 201.226 36.3893 198.314 34.8666C198.284 31.9569 195.855 29.3488 188.779 28.0974C172.937 25.1727 168.923 29.4694 168.003 33.6907L156.235 33.4495L141.192 27.7205L134.071 35.2435C132.728 37.0526 132.864 42.3443 137.571 46.8521C140.86 50.003 152.629 57.7672 159.448 62.1845L160.112 92.8191L210.098 93.1206L207.744 80.8789C209.011 80.8186 208.649 80.7884 209.027 80.7733C220.071 80.4266 224.718 65.7123 215.861 51.978Z" fill="#F95C5E"/>
<path fill-rule="evenodd" clip-rule="evenodd" d="M167.853 38.6506C167.808 37.4445 167.597 35.5751 168.004 33.6906L162.15 33.5699C162.21 35.7409 162.919 42.2538 169.09 43.6106C168.472 42.3141 167.944 40.716 167.853 38.6506Z" fill="#000091"/>
<path fill-rule="evenodd" clip-rule="evenodd" d="M204.303 38.8933C201.708 36.7977 199.565 35.5313 198.313 34.868C198.358 39.1194 193.289 44.0493 190.105 46.4766C190.271 46.5067 190.437 46.5218 190.618 46.5369C194.692 46.8082 204.363 41.3507 206.008 40.416C205.48 39.9788 204.906 39.4511 204.303 38.8933Z" fill="#000091"/>
<path fill-rule="evenodd" clip-rule="evenodd" d="M205.806 55.4159C207.498 55.1417 209.324 55.441 211.267 56.4117C211.49 56.5234 211.581 56.7951 211.469 57.0185C211.357 57.2419 211.085 57.3325 210.862 57.2208C209.086 56.3334 207.452 56.0656 205.951 56.3088C204.756 56.5025 203.692 57.012 202.763 57.7423C202.338 58.0767 201.971 58.4352 201.662 58.7927C201.57 58.8992 201.49 58.9987 201.421 59.0892L201.357 59.1743C201.348 59.1867 201.34 59.1978 201.333 59.2076L201.304 59.2508C201.166 59.4595 200.886 59.5174 200.677 59.3802C200.468 59.243 200.41 58.9626 200.547 58.7538L200.579 58.7066C200.661 58.5884 200.793 58.4146 200.977 58.2023C201.321 57.8026 201.73 57.4039 202.204 57.0316C203.246 56.2118 204.448 55.636 205.806 55.4159Z" fill="#000091"/>
<path fill-rule="evenodd" clip-rule="evenodd" d="M194.808 52.1537C195.02 52.0388 195.283 52.1097 195.408 52.3111L195.497 52.467C195.509 52.4871 195.521 52.5084 195.534 52.5307C195.627 52.6909 195.736 52.87 195.859 53.0631C196.211 53.6149 196.603 54.1665 197.024 54.6796C198.213 56.1274 199.388 56.9665 200.396 56.9285L200.443 56.926L200.466 56.924L200.534 56.8301C200.596 56.747 200.669 56.6532 200.753 56.5504L200.792 56.5042C201.154 56.0674 201.59 55.6317 202.1 55.2249C204.237 53.5193 206.95 52.838 210.207 53.7747C210.448 53.8438 210.586 54.0944 210.517 54.3344C210.448 54.5745 210.197 54.7131 209.957 54.644C206.999 53.7934 204.584 54.3998 202.664 55.9317C202.206 56.2979 201.813 56.6904 201.488 57.0819C201.391 57.1984 201.307 57.3073 201.235 57.4063L201.2 57.455C201.165 57.5035 201.141 57.5402 201.125 57.5639L201.113 57.5832C201.046 57.6913 200.937 57.7662 200.812 57.7897C200.709 57.8089 200.606 57.8219 200.502 57.8287C199.102 57.9201 197.703 56.9319 196.324 55.2534C195.878 54.7097 195.465 54.1291 195.096 53.5486L195.001 53.399C194.925 53.2766 194.854 53.1603 194.79 53.0511L194.698 52.893C194.666 52.8373 194.642 52.7948 194.627 52.7671C194.508 52.5477 194.589 52.273 194.808 52.1537Z" fill="#000091"/>
<path fill-rule="evenodd" clip-rule="evenodd" d="M171.761 45.4342C172.076 45.3619 172.39 45.5499 172.477 45.8568L172.486 45.894L172.531 46.0977L172.589 46.369C172.604 46.4414 172.619 46.5174 172.635 46.5966L172.651 46.6769C172.775 47.2961 172.899 47.9789 173.015 48.7058C173.271 50.3142 173.449 51.9037 173.516 53.3947C173.57 54.5779 173.55 55.6612 173.447 56.6242C173.412 56.9554 173.114 57.1952 172.783 57.1598C172.451 57.1244 172.211 56.8272 172.247 56.496C172.343 55.5994 172.361 54.5752 172.311 53.4488C172.246 52.0081 172.072 50.462 171.823 48.8951C171.71 48.1848 171.589 47.5177 171.468 46.9136L171.422 46.6861C171.402 46.5894 171.383 46.4988 171.365 46.4145L171.308 46.157C171.234 45.8324 171.436 45.5088 171.761 45.4342Z" fill="#000091"/>
<path fill-rule="evenodd" clip-rule="evenodd" d="M188.241 45.8259C188.532 45.9655 188.66 46.308 188.536 46.6022L188.374 46.9491L188.262 47.1935C188.173 47.3912 188.077 47.6065 187.976 47.8375C187.562 48.7811 187.149 49.7916 186.764 50.8274C186.365 51.8975 186.02 52.9341 185.743 53.9135C185.39 55.1603 185.157 56.2799 185.065 57.2371C185.033 57.5686 184.738 57.8114 184.406 57.7794C184.074 57.7473 183.831 57.4527 183.863 57.1211C183.963 56.0833 184.21 54.8961 184.581 53.5852C184.868 52.5722 185.223 51.5056 185.632 50.4071C186.026 49.3484 186.448 48.3172 186.87 47.354L187 47.0592C187.084 46.8688 187.165 46.6905 187.241 46.5255L187.373 46.2408L187.435 46.1085C187.58 45.8083 187.94 45.6818 188.241 45.8259Z" fill="#000091"/>
<path fill-rule="evenodd" clip-rule="evenodd" d="M191.148 33.63L193.169 35.6954C193.169 35.6954 183.574 42.9922 180.45 60.5559C178.429 71.9685 179.108 73.25 179.108 73.25L173.163 72.9333C173.163 72.9333 176.482 53.9525 174.415 47.9372C172.348 41.9369 174.234 35.1828 175.637 34.0973C177.041 33.0118 191.148 33.63 191.148 33.63Z" fill="white"/>
<path fill-rule="evenodd" clip-rule="evenodd" d="M188.476 26.9203L189.034 31.609L190.935 33.795C190.935 33.795 185.307 37.2776 179.921 43.3985C179.921 43.3985 175.516 38.755 174.746 31.4733L185.066 32.7547L185.881 28.7294L188.476 26.9203Z" fill="white"/>
<path fill-rule="evenodd" clip-rule="evenodd" d="M185.622 28.3609L185.597 28.3798C185.515 28.4458 185.458 28.5385 185.437 28.6421L184.706 32.2564L174.802 31.0268C174.513 30.9909 174.266 31.2335 174.296 31.5231C174.611 34.5058 175.535 37.2679 176.878 39.7638C177.468 40.8603 178.101 41.8322 178.734 42.6695C178.934 42.9343 179.122 43.1687 179.294 43.372L179.404 43.5015C179.49 43.6007 179.554 43.6711 179.593 43.712C179.776 43.905 180.086 43.8992 180.261 43.6995C180.479 43.4525 180.699 43.2073 180.921 42.964C183.166 40.5081 185.573 38.3329 187.979 36.4628C188.821 35.8087 189.602 35.2397 190.303 34.7588L190.538 34.5987C190.663 34.514 190.78 34.4366 190.887 34.3663L191.057 34.2556L191.174 34.1819L191.198 34.1661C191.414 34.0129 191.454 33.7038 191.277 33.5007L189.467 31.4195L188.926 26.8692C188.885 26.53 188.498 26.3563 188.217 26.5517L185.622 28.3609ZM188.116 27.7252L188.585 31.6648L188.59 31.6983C188.605 31.7758 188.641 31.8481 188.693 31.908L190.252 33.7009L190.182 33.748C190.06 33.8293 189.929 33.9177 189.79 34.0134C189.075 34.5041 188.28 35.0835 187.424 35.7488C184.979 37.6487 182.535 39.8577 180.253 42.354L180.027 42.6021L179.925 42.7163L179.875 42.6565C179.744 42.4974 179.604 42.3198 179.456 42.1242C178.85 41.3225 178.243 40.3893 177.676 39.3355L177.604 39.202C176.447 37.0176 175.625 34.6253 175.273 32.0599L175.265 31.9958L185.011 33.206L185.038 33.2085C185.262 33.223 185.465 33.0697 185.51 32.8468L186.289 28.999L188.116 27.7252Z" fill="#000091"/>
<path fill-rule="evenodd" clip-rule="evenodd" d="M190.152 20.4976C190.152 20.4976 193.743 20.5729 193.094 23.7691C192.445 26.9652 188.492 25.1259 188.492 25.1259L189.02 20.5579L190.152 20.4976Z" fill="white"/>
<path fill-rule="evenodd" clip-rule="evenodd" d="M190.161 20.0472L190.128 20.0477L188.996 20.108C188.776 20.1198 188.596 20.2887 188.571 20.5078L188.043 25.0758C188.02 25.2694 188.124 25.4555 188.301 25.5377L188.362 25.5651C188.524 25.6366 188.767 25.7302 189.069 25.8232C189.667 26.0078 190.27 26.1157 190.845 26.1061C192.23 26.0829 193.23 25.3739 193.538 23.8608C193.887 22.1401 193.181 21.0027 191.841 20.4253C191.473 20.2665 191.083 20.1625 190.694 20.1012L190.597 20.0867C190.409 20.0603 190.259 20.0492 190.161 20.0472ZM189.427 20.9904L190.157 20.9515L190.225 20.9557L190.246 20.9574C190.338 20.9647 190.442 20.9767 190.554 20.9943C190.873 21.0446 191.191 21.1296 191.484 21.2555C192.453 21.6732 192.909 22.4087 192.651 23.6806C192.435 24.7466 191.817 25.1847 190.831 25.2012C190.364 25.209 189.851 25.1172 189.336 24.9585L189.25 24.9312C189.165 24.9037 189.083 24.8754 189.005 24.8468L188.982 24.838L189.427 20.9904Z" fill="#000091"/>
<path fill-rule="evenodd" clip-rule="evenodd" d="M179.922 10.3953C178.972 10.3199 172.499 9.91289 171.79 15.3101C171.081 20.7074 171.85 26.6775 172.439 29.3912C173.027 32.1049 185.444 30.8536 186.138 30.6124C186.832 30.3712 187.677 29.542 187.677 29.542L189.382 21.2501C189.382 21.2501 190.076 11.2396 179.922 10.3953Z" fill="white"/>
<path fill-rule="evenodd" clip-rule="evenodd" d="M178.329 9.92147C177.398 9.96556 176.486 10.1057 175.633 10.3691C173.256 11.1028 171.68 12.6741 171.342 15.252C170.738 19.847 171.141 25.5385 171.997 29.4878C172.323 30.9897 174.867 31.5456 178.995 31.5626L179.25 31.5629C182.017 31.5597 185.701 31.2443 186.288 31.0403C186.413 30.9966 186.543 30.938 186.676 30.8659C186.872 30.7602 187.075 30.627 187.281 30.4724C187.423 30.3664 187.56 30.255 187.69 30.1425L187.787 30.058C187.882 29.9729 187.954 29.9058 187.995 29.8654C188.059 29.8024 188.103 29.7218 188.121 29.6338L189.826 21.3419C189.83 21.3222 189.833 21.3022 189.834 21.2821L189.838 21.2157C189.843 21.123 189.846 20.9888 189.845 20.8177C189.844 20.4596 189.825 20.0604 189.783 19.6293C189.662 18.3975 189.376 17.1514 188.878 15.965C187.445 12.5542 184.577 10.3292 179.96 9.94537C179.478 9.90712 178.954 9.89193 178.329 9.92147ZM179.887 10.8485C184.153 11.2033 186.736 13.2071 188.043 16.3167C188.503 17.4125 188.769 18.5719 188.882 19.7193C188.921 20.1209 188.939 20.4917 188.94 20.822L188.94 20.932C188.939 20.9672 188.939 21.0007 188.938 21.0327L188.935 21.1442C188.934 21.1635 188.933 21.1796 188.933 21.1932L187.263 29.3129L187.255 29.3208C187.233 29.3409 187.209 29.362 187.185 29.3838C187.044 29.509 186.893 29.6342 186.738 29.7501C186.565 29.8798 186.398 29.9892 186.246 30.0715C186.153 30.1219 186.066 30.1609 185.99 30.1875L185.959 30.1973C185.386 30.3596 181.863 30.6569 179.249 30.6599L179.026 30.6596C175.422 30.6438 173.064 30.1392 172.881 29.2977C172.046 25.4432 171.65 19.8531 172.239 15.3713C172.527 13.1775 173.836 11.8718 175.899 11.2349C176.673 10.9961 177.511 10.8673 178.372 10.8266C178.953 10.799 179.441 10.8132 179.887 10.8485Z" fill="#000091"/>
<path fill-rule="evenodd" clip-rule="evenodd" d="M188.191 21.1766C187.587 21.7645 185.958 25.2019 185.566 26.8C185.566 26.8 181.552 25.4582 175.804 25.3677C175.804 25.3677 172.666 25.428 171.413 25.8049C171.413 25.8049 171.685 31.4735 174.235 34.3983C176.785 37.3231 182.156 36.509 184.675 34.7451C187.195 32.9812 187.618 32.1369 188.191 30.2524C188.779 28.3679 190.318 21.3273 190.318 21.3273L188.191 21.1766Z" fill="#CACAFB"/>
<path fill-rule="evenodd" clip-rule="evenodd" d="M189.834 22.3978C189.834 22.3978 191.524 19.7896 192.173 17.0759C192.792 14.528 191.6 11.8596 189.246 10.7138C187.27 9.764 185.806 10.5027 185.806 10.5027C185.806 10.5027 187.903 6.94477 184.75 3.79387C183.648 2.67824 182.11 2.07519 180.54 2.12042C176.693 2.22596 175.516 5.48239 175.516 5.48239C175.516 5.48239 171.412 -2.07073 162.978 2.40687C162.133 2.85915 161.168 4.11047 160.715 4.95473C157.924 10.0806 167.112 16.1563 171.88 16.6387C177.131 17.1664 180.193 16.292 181.883 15.0105C180.616 15.7643 182.034 23.6039 189.834 22.3978Z" fill="#000091"/>
<path fill-rule="evenodd" clip-rule="evenodd" d="M175.323 23.1459C175.351 22.8977 175.575 22.7192 175.824 22.7472C176.063 22.7742 176.238 22.9833 176.225 23.2208L176.223 23.2473L175.738 27.5376L176.836 27.2516C177.069 27.1908 177.307 27.3233 177.38 27.5496L177.388 27.5751C177.449 27.8082 177.316 28.0462 177.09 28.1194L177.064 28.1269L175.329 28.5792C175.03 28.6571 174.746 28.4201 174.763 28.117L174.765 28.0908L175.323 23.1459Z" fill="#000091"/>
<path fill-rule="evenodd" clip-rule="evenodd" d="M173.857 24.0728C174.14 24.0728 174.37 23.7218 174.37 23.2888C174.37 22.8559 174.14 22.5049 173.857 22.5049C173.574 22.5049 173.344 22.8559 173.344 23.2888C173.344 23.7218 173.574 24.0728 173.857 24.0728Z" fill="#000091"/>
<path fill-rule="evenodd" clip-rule="evenodd" d="M178.73 23.9823C179.014 23.9823 179.243 23.6314 179.243 23.1984C179.243 22.7654 179.014 22.4144 178.73 22.4144C178.447 22.4144 178.217 22.7654 178.217 23.1984C178.217 23.6314 178.447 23.9823 178.73 23.9823Z" fill="#000091"/>
<path fill-rule="evenodd" clip-rule="evenodd" d="M178.751 18.272C179.562 18.1454 180.263 18.3509 180.833 18.7683C180.991 18.884 181.127 19.0082 181.242 19.1333C181.314 19.2117 181.365 19.2763 181.395 19.3202C181.538 19.5254 181.487 19.8072 181.282 19.9497C181.084 20.0869 180.815 20.0449 180.668 19.8584L180.639 19.8204C180.622 19.7985 180.6 19.773 180.575 19.7449C180.498 19.6614 180.405 19.5768 180.297 19.4978C179.911 19.2148 179.447 19.0788 178.89 19.1658C178.644 19.2043 178.412 19.0355 178.373 18.7887C178.335 18.5419 178.504 18.3106 178.751 18.272Z" fill="#000091"/>
<path fill-rule="evenodd" clip-rule="evenodd" d="M173.152 18.1975C173.471 18.1197 173.796 18.1213 174.103 18.1689L174.168 18.1798C174.218 18.1888 174.258 18.1977 174.286 18.205C174.529 18.2675 174.674 18.5141 174.612 18.756C174.551 18.9892 174.32 19.1328 174.086 19.0868L174.033 19.0749C174.016 19.0714 173.993 19.0672 173.964 19.0628C173.765 19.0319 173.553 19.0308 173.367 19.0762C173.118 19.1372 172.955 19.2692 172.868 19.5226L172.856 19.5579C172.784 19.797 172.531 19.9322 172.292 19.8598C172.053 19.7875 171.918 19.535 171.99 19.2959C172.172 18.6941 172.596 18.3334 173.152 18.1975Z" fill="#000091"/>
<path fill-rule="evenodd" clip-rule="evenodd" d="M179.138 29.3175C178.791 29.6492 178.248 30.0713 177.493 30.4181C177.493 30.4181 177.584 31.9257 179.319 31.4282C180.39 31.1267 180.254 30.1769 179.998 29.4985C179.847 29.1517 179.409 29.0612 179.138 29.3175Z" fill="#000091"/>
<path fill-rule="evenodd" clip-rule="evenodd" d="M143.24 36.5655C144.861 32.8841 143.942 28.9188 141.188 27.7086C138.435 26.4985 134.889 28.5018 133.269 32.1832C131.648 35.8646 132.567 39.8299 135.321 41.0401C138.074 42.2502 141.62 40.2469 143.24 36.5655Z" fill="#000091"/>
<path fill-rule="evenodd" clip-rule="evenodd" d="M126.572 29.1709C123.811 27.9196 123.419 29.3518 124.218 30.0755C125.229 30.965 130.042 33.4827 130.042 33.4827C130.042 33.4827 126.15 33.1962 125.154 35.3823C124.158 37.5683 125.199 37.7492 126.693 36.7843C128.171 35.8195 132.743 37.0708 132.743 37.0708L134.116 38.4276C134.116 38.4276 138.838 40.1312 140.257 34.8848C141.313 31.8846 139.397 29.7438 139.397 29.7438C138.853 29.0805 136.952 26.2914 130.434 24.6179C130.434 24.6179 127.372 24.1807 129.65 25.7486C130.238 26.1557 130.857 26.4874 131.445 26.7738" fill="white"/>
<path fill-rule="evenodd" clip-rule="evenodd" d="M129.619 24.108C129.817 24.107 130.024 24.1184 130.231 24.138L130.341 24.1491C130.408 24.1564 130.462 24.1632 130.499 24.1686C130.515 24.1709 130.532 24.1741 130.548 24.1782C132.655 24.7193 134.417 25.4071 135.876 26.2127C136.999 26.8327 137.896 27.4957 138.623 28.1917C138.865 28.4238 139.079 28.6498 139.278 28.8803L139.352 28.9669C139.397 29.0204 139.464 29.1022 139.53 29.1837L139.748 29.4561L139.779 29.4929C139.813 29.5336 139.854 29.5859 139.901 29.6494L139.95 29.7167C140.1 29.9281 140.25 30.1723 140.39 30.4474C141.064 31.7771 141.266 33.3066 140.713 34.9482L140.69 35.017L140.67 35.0896C140.109 37.0846 139.035 38.3004 137.601 38.8355L137.538 38.8587C136.54 39.2146 135.491 39.213 134.508 39.0001C134.259 38.946 134.072 38.8909 133.963 38.8514C133.911 38.8328 133.864 38.8051 133.822 38.7697L133.798 38.7476L132.511 37.4756L132.36 37.4373L132.235 37.4069C131.926 37.332 131.587 37.257 131.23 37.187C130.613 37.066 130.01 36.9731 129.448 36.9197C128.258 36.8067 127.364 36.885 126.939 37.1625C126.037 37.7449 125.272 37.9666 124.753 37.6487C124.133 37.2679 124.185 36.416 124.742 35.1933C125.188 34.2141 126.121 33.6044 127.37 33.2807C127.665 33.2044 127.962 33.1468 128.257 33.1051L128.355 33.0918L128.184 32.999C127.795 32.7866 127.41 32.574 127.037 32.3651L126.682 32.1648L126.265 31.9262C125.103 31.256 124.293 30.7416 123.915 30.4091C123.322 29.8722 123.194 29.024 123.767 28.5366C124.336 28.0523 125.372 28.1286 126.76 28.7574C126.987 28.8606 127.088 29.1286 126.985 29.3561C126.882 29.5836 126.613 29.6843 126.386 29.5812C125.284 29.082 124.583 29.0304 124.354 29.2253C124.259 29.3064 124.292 29.53 124.518 29.7344C124.844 30.0213 125.684 30.551 126.872 31.2317L127.129 31.3782L127.261 31.4528C127.77 31.7402 128.307 32.0367 128.851 32.3316L129.318 32.5837C129.533 32.6991 129.734 32.8065 129.919 32.9041L130.253 33.0803C130.68 33.3039 130.506 33.9443 130.036 33.9334L129.906 33.9268C129.211 33.8987 128.38 33.9534 127.597 34.1563C126.587 34.4181 125.879 34.8808 125.566 35.568C125.346 36.0518 125.232 36.4294 125.216 36.6855C125.207 36.8345 125.223 36.8753 125.227 36.8778C125.337 36.9454 125.797 36.8147 126.4 36.4331L126.446 36.404C127.095 35.9802 128.15 35.8877 129.534 36.0192C130.129 36.0757 130.76 36.173 131.405 36.2994C131.729 36.363 132.038 36.4305 132.326 36.4985L132.448 36.5277C132.539 36.5496 132.622 36.5702 132.696 36.5893L132.863 36.6329C132.927 36.6505 132.987 36.682 133.037 36.7251L133.062 36.7476L134.358 38.0286L134.374 38.0335C134.453 38.0568 134.542 38.0802 134.64 38.1027L134.7 38.116C135.532 38.2962 136.418 38.2976 137.234 38.0068C138.415 37.5853 139.306 36.5944 139.797 34.8489L139.82 34.7652L139.83 34.733C140.33 33.3131 140.164 32.0035 139.582 30.8562C139.464 30.6232 139.338 30.4174 139.212 30.2417L139.163 30.1734C139.147 30.152 139.131 30.132 139.117 30.1134L139.085 30.0733L139.047 30.0285C139.03 30.0066 138.787 29.702 138.672 29.5651L138.66 29.5506C138.46 29.3131 138.245 29.0828 137.997 28.8447C137.326 28.2024 136.492 27.5862 135.438 27.0044C134.085 26.257 132.446 25.6116 130.482 25.0959L130.348 25.0609L130.313 25.0565C130.263 25.0504 130.207 25.0443 130.146 25.0385C129.967 25.0216 129.788 25.0117 129.624 25.0126C129.574 25.0128 129.527 25.0141 129.483 25.0163L129.444 25.0185L129.471 25.0425C129.57 25.1295 129.699 25.2294 129.859 25.3412L129.908 25.3751C130.413 25.7247 130.968 26.0366 131.644 26.3656C131.869 26.475 131.962 26.7457 131.853 26.9703C131.743 27.1948 131.472 27.2882 131.248 27.1788C130.534 26.8313 129.941 26.498 129.394 26.1195L129.301 26.0547C128.513 25.4976 128.185 25.0581 128.421 24.5807C128.608 24.2038 129.004 24.1112 129.619 24.108Z" fill="#000091"/>
<path fill-rule="evenodd" clip-rule="evenodd" d="M130.887 31.0079C129.921 30.5405 125.862 29.2741 124.912 28.1283C123.961 26.9825 125.184 26.3041 128.654 27.9022" fill="white"/>
<path fill-rule="evenodd" clip-rule="evenodd" d="M125.045 26.5431C125.845 26.3973 127.161 26.718 128.844 27.4932C129.071 27.5978 129.17 27.8664 129.066 28.0933C128.961 28.3201 128.692 28.4193 128.465 28.3147C126.937 27.6108 125.78 27.3288 125.207 27.433C125.141 27.4452 125.093 27.461 125.064 27.4764L125.055 27.4815L125.056 27.4844C125.058 27.497 125.063 27.5147 125.071 27.5377L125.078 27.5559C125.11 27.6357 125.172 27.7331 125.261 27.8415C125.353 27.9521 125.499 28.0784 125.693 28.2146C126.177 28.5533 126.911 28.9207 127.885 29.3303L128.133 29.4332C128.749 29.6833 130.809 30.469 131.085 30.6026C131.31 30.7115 131.404 30.982 131.295 31.2068C131.19 31.4233 130.935 31.5184 130.716 31.428L130.643 31.3952C130.259 31.2279 128.4 30.5181 127.79 30.27L127.731 30.2461C126.604 29.7807 125.757 29.3637 125.174 28.9555C124.918 28.7766 124.715 28.5996 124.565 28.4187C123.887 27.6022 124.041 26.7261 125.045 26.5431Z" fill="#000091"/>
<path fill-rule="evenodd" clip-rule="evenodd" d="M132.426 29.2911C132.32 29.1554 125.666 27.1804 126.119 26.2306C126.481 25.4617 127.447 25.2356 131.128 26.6226L134.07 27.9191" fill="white"/>
<path fill-rule="evenodd" clip-rule="evenodd" d="M125.71 26.0366C126.268 24.8506 127.698 24.8662 131.079 26.1196L131.288 26.1979L131.311 26.2073L134.253 27.5038C134.482 27.6046 134.586 27.8716 134.485 28.1002C134.387 28.3206 134.135 28.4247 133.912 28.3415L133.888 28.3315L130.959 27.0408L130.709 26.9474C128.012 25.9502 126.948 25.8681 126.597 26.3111L126.589 26.3216L126.604 26.3367C126.635 26.3658 126.674 26.3992 126.721 26.4356L126.75 26.4578C126.999 26.642 127.399 26.8595 127.926 27.1001C128.296 27.2689 128.721 27.4461 129.199 27.6323L129.555 27.7688C129.989 27.9334 130.406 28.0843 130.943 28.2729L132.24 28.7254L132.384 28.7781C132.414 28.7895 132.442 28.7999 132.466 28.8095L132.511 28.8277C132.547 28.8421 132.576 28.8551 132.602 28.8682C132.679 28.9069 132.723 28.9349 132.783 29.0119C132.937 29.2091 132.901 29.4932 132.704 29.6466C132.552 29.7646 132.349 29.7708 132.193 29.6776L132.182 29.6706L132.132 29.6502C132.099 29.6373 132.057 29.6216 132.007 29.6031L131.391 29.3868L130.723 29.1542C130.084 28.9306 129.615 28.7603 129.1 28.5637L128.869 28.4746C128.377 28.2827 127.936 28.0993 127.55 27.923C126.97 27.6583 126.521 27.4141 126.211 27.1844C125.741 26.8361 125.505 26.4666 125.71 26.0366Z" fill="#000091"/>
<path fill-rule="evenodd" clip-rule="evenodd" d="M201.044 93.2255L142.322 93.1953L141.9 52.0828L200.621 51.4797L201.044 93.2255Z" fill="white"/>
<path fill-rule="evenodd" clip-rule="evenodd" d="M200.615 51.0258L141.894 51.6289C141.644 51.6315 141.443 51.836 141.446 52.0858L141.868 93.1983C141.871 93.4462 142.072 93.6458 142.32 93.6459L201.042 93.6761C201.294 93.6762 201.497 93.4709 201.495 93.2192L201.072 51.4735C201.07 51.2237 200.865 51.0233 200.615 51.0258ZM200.17 51.9337L200.583 92.77L142.767 92.7405L142.354 52.5274L200.17 51.9337Z" fill="#000091"/>
<path fill-rule="evenodd" clip-rule="evenodd" d="M196.985 81.7511H147.859C147.603 81.7511 147.406 81.5551 147.406 81.2988C147.406 81.0425 147.603 80.8466 147.859 80.8466H196.985C197.241 80.8466 197.437 81.0425 197.437 81.2988C197.437 81.5551 197.241 81.7511 196.985 81.7511Z" fill="#CACAFB"/>
<path fill-rule="evenodd" clip-rule="evenodd" d="M196.985 75.887H147.859C147.603 75.887 147.406 75.691 147.406 75.4347C147.406 75.1784 147.603 74.9824 147.859 74.9824H196.985C197.241 74.9824 197.437 75.1784 197.437 75.4347C197.437 75.691 197.241 75.887 196.985 75.887Z" fill="#CACAFB"/>
<path fill-rule="evenodd" clip-rule="evenodd" d="M196.985 70.0211H147.859C147.603 70.0211 147.406 69.8251 147.406 69.5688C147.406 69.3125 147.603 69.1165 147.859 69.1165H196.985C197.241 69.1165 197.437 69.3125 197.437 69.5688C197.437 69.8251 197.241 70.0211 196.985 70.0211Z" fill="#CACAFB"/>
<path fill-rule="evenodd" clip-rule="evenodd" d="M196.985 64.1569H147.859C147.603 64.1569 147.406 63.961 147.406 63.7047C147.406 63.4484 147.603 63.2524 147.859 63.2524H196.985C197.241 63.2524 197.437 63.4484 197.437 63.7047C197.437 63.961 197.241 64.1569 196.985 64.1569Z" fill="#CACAFB"/>
<rect width="6.87967" height="26.7739" transform="matrix(0.999948 -0.0102175 0.0102332 0.999948 174.931 60.0144)" fill="#6A6AF4"/>
<rect width="6.92491" height="17.1709" transform="matrix(0.999948 -0.0102175 0.0102332 0.999948 186.657 69.6183)" fill="#F95C5E"/>
<rect width="6.92493" height="17.1709" transform="matrix(0.999948 -0.0102175 0.0102332 0.999948 163.41 69.6183)" fill="#F95C5E"/>
<path fill-rule="evenodd" clip-rule="evenodd" d="M158.979 86.6948L152.1 86.7702L151.994 78.5386L158.874 78.4633L158.979 86.6948Z" fill="#F95C5E"/>
<path fill-rule="evenodd" clip-rule="evenodd" d="M147.859 57.4805C148.1 57.4805 148.297 57.6688 148.311 57.9062L148.312 57.9328L148.312 86.321H196.985C197.226 86.321 197.423 86.5093 197.437 86.7468L197.437 86.7733C197.437 87.0142 197.249 87.2111 197.011 87.2248L196.985 87.2256H147.859C147.618 87.2256 147.421 87.0373 147.407 86.7999L147.406 86.7733V57.9328C147.406 57.683 147.609 57.4805 147.859 57.4805Z" fill="#000091"/>
<path fill-rule="evenodd" clip-rule="evenodd" d="M157.168 88.0228C157.418 88.0228 157.621 88.2253 157.621 88.4751C157.621 88.716 157.432 88.9129 157.195 88.9266L157.168 88.9274H153.125C152.875 88.9274 152.672 88.7249 152.672 88.4751C152.672 88.2342 152.86 88.0374 153.098 88.0236L153.125 88.0228H157.168Z" fill="#F95C5E"/>
<path fill-rule="evenodd" clip-rule="evenodd" d="M169.013 88.0228C169.263 88.0228 169.466 88.2253 169.466 88.4751C169.466 88.716 169.278 88.9129 169.04 88.9266L169.013 88.9274H164.97C164.72 88.9274 164.517 88.7249 164.517 88.4751C164.517 88.2342 164.706 88.0374 164.943 88.0236L164.97 88.0228H169.013Z" fill="#F95C5E"/>
<path fill-rule="evenodd" clip-rule="evenodd" d="M180.629 88.0228C180.879 88.0228 181.082 88.2253 181.082 88.4751C181.082 88.716 180.893 88.9129 180.656 88.9266L180.629 88.9274H176.571C176.321 88.9274 176.118 88.7249 176.118 88.4751C176.118 88.2342 176.306 88.0374 176.544 88.0236L176.571 88.0228H180.629Z" fill="#6A6AF4"/>
<path fill-rule="evenodd" clip-rule="evenodd" d="M192.263 88.0228C192.513 88.0228 192.715 88.2253 192.715 88.4751C192.715 88.716 192.527 88.9129 192.289 88.9266L192.263 88.9274H188.219C187.969 88.9274 187.767 88.7249 187.767 88.4751C187.767 88.2342 187.955 88.0374 188.193 88.0236L188.219 88.0228H192.263Z" fill="#F95C5E"/>
<path fill-rule="evenodd" clip-rule="evenodd" d="M145.838 64.7148C145.581 64.7148 145.385 64.5188 145.385 64.2625V63.5539C145.385 63.2976 145.581 63.1016 145.838 63.1016C146.094 63.1016 146.291 63.2976 146.291 63.5539V64.2625C146.291 64.5037 146.094 64.7148 145.838 64.7148Z" fill="#CACAFB"/>
<path fill-rule="evenodd" clip-rule="evenodd" d="M145.838 70.3697C145.581 70.3697 145.385 70.1737 145.385 69.9174V69.2088C145.385 68.9525 145.581 68.7565 145.838 68.7565C146.094 68.7565 146.291 68.9525 146.291 69.2088V69.9174C146.291 70.1737 146.094 70.3697 145.838 70.3697Z" fill="#CACAFB"/>
<path fill-rule="evenodd" clip-rule="evenodd" d="M145.838 76.5953C145.581 76.5953 145.385 76.3993 145.385 76.143V75.4345C145.385 75.1782 145.581 74.9822 145.838 74.9822C146.094 74.9822 146.291 75.1782 146.291 75.4345V76.143C146.291 76.3843 146.094 76.5953 145.838 76.5953Z" fill="#CACAFB"/>
<path fill-rule="evenodd" clip-rule="evenodd" d="M145.838 82.4579C145.581 82.4579 145.385 82.2619 145.385 82.0056V81.297C145.385 81.0407 145.581 80.8447 145.838 80.8447C146.094 80.8447 146.291 81.0407 146.291 81.297V82.0056C146.291 82.2468 146.094 82.4579 145.838 82.4579Z" fill="#CACAFB"/>
<path fill-rule="evenodd" clip-rule="evenodd" d="M208.437 75.3333C211.686 75.3333 214.321 72.0732 214.321 68.0516C214.321 64.03 211.686 60.7698 208.437 60.7698C205.187 60.7698 202.552 64.03 202.552 68.0516C202.552 72.0732 205.187 75.3333 208.437 75.3333Z" fill="#000091"/>
<path fill-rule="evenodd" clip-rule="evenodd" d="M194.467 69.0323C191.435 69.0625 191.661 67.585 192.672 67.2684C193.954 66.8614 199.371 66.4995 199.371 66.4995C199.371 66.4995 195.689 65.1879 195.659 62.7908C195.629 60.3937 196.655 60.65 197.621 62.1275C198.586 63.6049 203.278 64.2984 203.278 64.2984L205.089 63.6049C205.089 63.6049 210.098 63.9517 209.283 69.3037C209.042 72.4697 206.432 73.6607 206.432 73.6607C205.662 74.0526 202.811 75.8316 196.157 74.7462C196.157 74.7462 193.185 73.9019 195.886 73.3893C196.595 73.2536 197.289 73.1933 197.937 73.1782" fill="white"/>
<path fill-rule="evenodd" clip-rule="evenodd" d="M206.199 73.2716L206.285 73.2276C206.3 73.22 206.318 73.2105 206.339 73.199C206.426 73.1517 206.525 73.093 206.631 73.0225C206.939 72.819 207.248 72.5642 207.536 72.2557C208.251 71.491 208.718 70.5328 208.826 69.3527L208.834 69.2511L208.837 69.2343C209.187 66.9328 208.455 65.5025 207.008 64.6797C206.58 64.4364 206.118 64.266 205.655 64.157C205.494 64.1189 205.344 64.0913 205.211 64.0726L205.151 64.0645L203.441 64.7194C203.379 64.7433 203.312 64.753 203.246 64.7482L203.213 64.7445L203.035 64.7161L202.953 64.7023C202.749 64.6676 202.523 64.6259 202.279 64.577C201.582 64.4372 200.885 64.2678 200.231 64.0676L200.062 64.0147C198.694 63.5797 197.722 63.0677 197.269 62.4137L197.242 62.3734C196.838 61.7545 196.458 61.4354 196.328 61.453L196.326 61.4548C196.316 61.4629 196.288 61.5015 196.243 61.6233C196.154 61.8633 196.106 62.2537 196.113 62.7838C196.123 63.6489 196.732 64.4531 197.771 65.1614C198.155 65.423 198.568 65.6513 198.982 65.8437C199.103 65.8998 199.216 65.9494 199.32 65.9923L199.47 66.0522L199.524 66.0722C199.986 66.237 199.892 66.9168 199.402 66.9495L198.922 66.9835C198.734 66.9973 198.532 67.0125 198.318 67.0292L197.776 67.0726C197.146 67.1244 196.522 67.1804 195.932 67.2396L195.678 67.2656C194.262 67.4127 193.237 67.5625 192.808 67.6987C192.524 67.7875 192.408 67.9712 192.461 68.0821C192.593 68.3541 193.255 68.5907 194.464 68.5787C194.713 68.5763 194.918 68.7767 194.921 69.0265C194.923 69.2763 194.723 69.4808 194.473 69.4833C192.951 69.4984 191.972 69.1487 191.647 68.476C191.318 67.7984 191.779 67.0728 192.536 66.836L192.599 66.8168C193.16 66.6531 194.283 66.4961 195.842 66.3396L196.285 66.2962C196.659 66.2607 197.042 66.2264 197.43 66.1937L197.674 66.1733L197.617 66.1384C197.536 66.0894 197.457 66.039 197.378 65.9872L197.261 65.9086C196.003 65.051 195.223 64.0201 195.207 62.7952C195.19 61.4546 195.486 60.6549 196.206 60.5567C196.808 60.4747 197.417 60.9861 198 61.8788C198.303 62.3418 199.207 62.8078 200.497 63.2027C201.119 63.3932 201.788 63.5558 202.457 63.6901C202.692 63.7372 202.91 63.7774 203.105 63.8106L203.23 63.8314L204.928 63.1813C204.979 63.1616 205.033 63.1515 205.088 63.1513L205.121 63.1524L205.181 63.1573C205.34 63.1724 205.575 63.2086 205.863 63.2766C206.405 63.4042 206.946 63.604 207.456 63.8935C209.204 64.8875 210.121 66.6539 209.744 69.2878L209.734 69.3526L209.728 69.428C209.605 70.7915 209.069 71.9166 208.253 72.8136L208.198 72.8731C207.859 73.2364 207.495 73.5361 207.131 73.777L207.044 73.8331C206.89 73.9311 206.762 74.0022 206.668 74.0482L206.633 74.0651L206.266 74.2567L206.081 74.3496C205.777 74.4985 205.462 74.6345 205.11 74.763C202.88 75.5778 199.964 75.8241 196.085 75.1912C196.068 75.1884 196.051 75.1846 196.034 75.1799L195.922 75.1461C195.894 75.1373 195.863 75.1274 195.829 75.1164L195.795 75.105C195.619 75.0463 195.442 74.9805 195.276 74.9084C195.026 74.8004 194.818 74.6876 194.659 74.5625C194.381 74.3445 194.225 74.0728 194.329 73.7404C194.458 73.3248 194.928 73.1095 195.801 72.9438C196.491 72.8117 197.2 72.7417 197.928 72.7248C198.178 72.719 198.385 72.9167 198.391 73.1664C198.397 73.4161 198.199 73.6233 197.949 73.6291C197.269 73.6449 196.61 73.71 195.971 73.8323C195.762 73.872 195.589 73.9137 195.453 73.956L195.408 73.9702L195.426 73.9795C195.475 74.0053 195.53 74.0317 195.59 74.0582L195.635 74.0781C195.775 74.1388 195.928 74.1958 196.082 74.2469L196.159 74.2723L196.257 74.3027L196.364 74.3198C199.981 74.8941 202.678 74.6703 204.725 73.9404L204.799 73.9135C205.08 73.811 205.334 73.7036 205.579 73.5875L205.683 73.5373C205.812 73.4741 206.104 73.3215 206.199 73.2716Z" fill="#000091"/>
<path fill-rule="evenodd" clip-rule="evenodd" d="M199.174 69.0931C198.103 69.1232 193.879 68.671 192.551 69.3192C191.223 69.9675 192.068 71.0982 195.885 71.0228" fill="white"/>
<path fill-rule="evenodd" clip-rule="evenodd" d="M192.352 68.9114C193.003 68.5934 194.141 68.4915 195.793 68.5175L196.037 68.5221C196.391 68.5301 196.759 68.5435 197.195 68.5631L198.81 68.6384C199.009 68.6459 199.039 68.6429 199.162 68.6395C199.411 68.6325 199.62 68.8292 199.627 69.0789C199.634 69.3286 199.437 69.5367 199.187 69.5437L198.984 69.5481C198.878 69.5476 198.715 69.5409 198.262 69.5195L197.257 69.4714C196.781 69.4495 196.391 69.4349 196.018 69.4265L195.779 69.4219C194.278 69.3983 193.224 69.4927 192.75 69.7241C192.625 69.7849 192.531 69.8476 192.47 69.906C192.456 69.9198 192.445 69.9319 192.436 69.942L192.423 69.96L192.429 69.9684C192.446 69.9909 192.476 70.019 192.52 70.0506L192.543 70.0667C193.026 70.3945 194.198 70.6023 195.876 70.5691C196.126 70.5642 196.333 70.7627 196.338 71.0124C196.343 71.2621 196.144 71.4686 195.894 71.4735C194.045 71.51 192.71 71.2734 192.035 70.8151C191.19 70.2423 191.402 69.3755 192.352 68.9114Z" fill="#000091"/>
<path fill-rule="evenodd" clip-rule="evenodd" d="M199.884 71.2773C199.733 71.3678 192.853 70.4934 192.883 71.5336C192.913 72.393 193.698 72.9809 197.62 73.1769H200.849" fill="white"/>
<path fill-rule="evenodd" clip-rule="evenodd" d="M193.924 70.615C194.549 70.5537 195.38 70.5535 196.405 70.6009L196.656 70.6133C196.993 70.6308 197.344 70.6529 197.723 70.6798L198.418 70.732L199.339 70.8044C199.489 70.8156 199.602 70.8232 199.685 70.8276L199.755 70.8308L199.806 70.832L199.827 70.8288C199.991 70.8081 200.159 70.8786 200.257 71.0217L200.272 71.0449C200.4 71.2591 200.331 71.5369 200.117 71.6655C200.043 71.7095 199.988 71.7228 199.92 71.7311C199.894 71.7342 199.868 71.7357 199.84 71.7363C199.816 71.7368 199.789 71.7367 199.759 71.7359L199.693 71.7336C199.639 71.7313 199.575 71.7276 199.497 71.7225L197.945 71.6029L197.552 71.5746C197.212 71.551 196.895 71.5314 196.59 71.5156L196.364 71.5045C195.414 71.4606 194.641 71.4592 194.075 71.5095L194.013 71.5153C193.728 71.5433 193.509 71.5848 193.371 71.6347L193.352 71.6419L193.354 71.6508C193.504 72.2156 194.537 72.5639 197.544 72.7205L197.634 72.7249H200.849C201.09 72.7249 201.287 72.9132 201.301 73.1506L201.302 73.1772C201.302 73.4181 201.113 73.615 200.876 73.6287L200.849 73.6295H197.62L197.598 73.6289L197.375 73.6172C193.779 73.4186 192.477 72.8665 192.431 71.547C192.42 71.1868 192.655 70.9467 193.008 70.8051C193.239 70.7128 193.542 70.6526 193.924 70.615Z" fill="#000091"/>
<path fill-rule="evenodd" clip-rule="evenodd" d="M119.613 60.5249C122.495 59.3942 121.544 58.369 120.413 58.5198C118.994 58.7007 113.684 60.4797 113.684 60.4797C113.684 60.4797 116.49 58.0976 115.298 56.2885C114.106 54.4794 113.261 55.0523 113.095 56.5448C112.929 58.0373 108.629 60.148 108.629 60.148L106.849 60.6003C106.849 60.6003 103.137 63.6004 106.713 67.3242C108.629 69.661 111.315 69.1635 111.315 69.1635C112.129 69.0429 115.192 68.8168 120.911 65.4699C120.911 65.4699 123.294 63.706 120.473 64.3542C119.749 64.5201 119.04 64.7462 118.421 64.9723" fill="white"/>
<path fill-rule="evenodd" clip-rule="evenodd" d="M113.693 54.7422C114.348 54.5638 115.017 55.039 115.676 56.0398C115.95 56.4565 116.068 56.9192 116.042 57.408C116.005 58.093 115.697 58.7871 115.201 59.4766L115.171 59.518L115.197 59.5096C115.557 59.3944 115.917 59.2805 116.272 59.1697L116.782 59.0121L117.35 58.84C118.777 58.4122 119.816 58.14 120.353 58.0715C121.161 57.9638 121.935 58.3164 121.97 59.0193C122.005 59.7259 121.243 60.3712 119.778 60.9459C119.546 61.0372 119.283 60.9227 119.192 60.6902C119.1 60.4577 119.215 60.1952 119.448 60.1039C120.087 59.853 120.544 59.6019 120.82 59.3684C120.928 59.2773 121 59.1953 121.039 59.1276C121.061 59.09 121.066 59.07 121.066 59.0643C121.064 59.0286 120.827 58.9208 120.47 58.9684L120.412 58.9765C119.916 59.05 118.925 59.312 117.599 59.7097L117.352 59.7843C117.202 59.8297 117.049 59.8765 116.893 59.9245C116.311 60.1039 115.71 60.294 115.116 60.4859L114.669 60.6312L113.827 60.9085C113.363 61.0641 113.023 60.4781 113.371 60.1519L113.461 60.0722L113.537 60.0017C113.577 59.9642 113.62 59.9236 113.664 59.88C113.875 59.6714 114.087 59.4392 114.283 59.1909C114.795 58.5445 115.108 57.9108 115.138 57.3597C115.154 57.0592 115.085 56.7881 114.92 56.5372C114.659 56.1417 114.418 55.8708 114.212 55.724C114.071 55.624 113.982 55.601 113.931 55.615C113.881 55.6286 113.814 55.6917 113.744 55.8276C113.657 55.9963 113.59 56.237 113.553 56.531L113.545 56.5948C113.496 57.0368 113.222 57.477 112.767 57.9396C112.353 58.3598 111.791 58.7958 111.114 59.2415C110.613 59.5708 110.079 59.8866 109.545 60.1785L109.388 60.2635C109.286 60.3185 109.188 60.37 109.096 60.4177L108.855 60.5408C108.844 60.5466 108.835 60.551 108.829 60.554C108.81 60.5632 108.791 60.5711 108.771 60.5776L108.741 60.5864L107.065 61.012L107.046 61.0286C107.014 61.0582 106.98 61.091 106.943 61.1269L106.906 61.1639C106.725 61.347 106.543 61.56 106.373 61.7993C105.905 62.4587 105.623 63.1835 105.611 63.9513C105.596 64.942 106.033 65.9624 107.04 67.0111L107.052 67.0241L107.063 67.0376C107.432 67.488 107.847 67.8426 108.301 68.1118C109.227 68.662 110.203 68.8147 111.035 68.742L111.1 68.7358C111.143 68.7314 111.177 68.7272 111.201 68.7238L111.248 68.7161C111.307 68.7074 111.588 68.6702 111.663 68.6596C111.869 68.6308 112.062 68.6 112.272 68.5614C112.841 68.4565 113.453 68.3074 114.14 68.0945C115.975 67.5264 118.091 66.5847 120.54 65.1622L120.66 65.0924L120.752 65.0208L120.774 65.003C120.876 64.9208 120.978 64.8336 121.073 64.746L121.118 64.7029L121.133 64.6883L121.127 64.6892C120.989 64.7085 120.826 64.7388 120.638 64.7807L120.574 64.7951C119.93 64.9425 119.256 65.1486 118.577 65.3971C118.342 65.4829 118.082 65.3623 117.996 65.1278C117.91 64.8932 118.031 64.6334 118.266 64.5476C118.979 64.2869 119.688 64.0699 120.372 63.9135L120.493 63.8863C121.326 63.7043 121.812 63.7034 122.098 63.9572C122.324 64.1576 122.351 64.4378 122.246 64.6988C122.187 64.8451 122.088 64.9881 121.953 65.1402C121.876 65.2277 121.787 65.3171 121.689 65.4083C121.605 65.4862 121.518 65.5625 121.43 65.6358L121.341 65.7081C121.27 65.7652 121.214 65.8082 121.18 65.8334C121.167 65.843 121.153 65.8519 121.139 65.8601C118.572 67.363 116.346 68.3585 114.408 68.9586C113.686 69.1821 113.04 69.3397 112.436 69.451C112.257 69.4839 112.089 69.5114 111.919 69.5367L111.669 69.5718L111.385 69.6102L111.339 69.6178C111.308 69.6223 111.271 69.6272 111.227 69.632L111.193 69.6356C110.17 69.7404 108.98 69.5671 107.838 68.8894C107.324 68.5839 106.852 68.1877 106.432 67.6941L106.375 67.6253L106.323 67.5711C105.222 66.3999 104.707 65.1994 104.706 64.0052L104.706 63.9376C104.721 62.9671 105.069 62.0736 105.634 61.2762C105.834 60.9942 106.048 60.7439 106.263 60.5273L106.326 60.4644C106.428 60.3649 106.51 60.2926 106.564 60.2487C106.606 60.2145 106.654 60.1882 106.706 60.1711L106.737 60.162L108.471 59.7215L108.614 59.6487L108.746 59.58C108.86 59.5204 108.982 59.4552 109.11 59.385C109.624 59.1041 110.138 58.8004 110.616 58.486C111.244 58.0725 111.76 57.6727 112.121 57.3055C112.447 56.9742 112.623 56.6908 112.645 56.4949C112.748 55.5674 113.089 54.9065 113.693 54.7422Z" fill="#000091"/>
<path fill-rule="evenodd" clip-rule="evenodd" d="M115.192 62.3487C116.233 61.9718 119.99 60.0119 121.574 59.9968C123.158 59.9818 122.932 61.1426 119.296 62.5447" fill="white"/>
<path fill-rule="evenodd" clip-rule="evenodd" d="M121.572 59.5447C122.065 59.54 122.451 59.6322 122.7 59.8535C123.038 60.1535 123.039 60.5938 122.77 60.9924C122.356 61.6048 121.222 62.2873 119.461 62.9667C119.227 63.0567 118.965 62.9407 118.875 62.7076C118.785 62.4746 118.901 62.2128 119.135 62.1228L119.295 62.0601C120.776 61.4754 121.715 60.9074 122.004 60.5077L122.014 60.4941L121.999 60.4902L121.977 60.4845C121.876 60.4604 121.742 60.4477 121.58 60.4492C121.029 60.4544 120.069 60.7476 118.777 61.2781C118.596 61.3525 118.409 61.4313 118.214 61.5152L117.922 61.6421C117.551 61.8073 115.648 62.6655 115.348 62.774C115.113 62.8591 114.853 62.7377 114.768 62.5029C114.686 62.2764 114.796 62.0272 115.015 61.9333L115.095 61.9021C115.526 61.729 117.427 60.8705 117.613 60.7894L117.856 60.684C118.056 60.5983 118.247 60.5177 118.433 60.4415L118.614 60.368C119.922 59.8401 120.896 59.5511 121.572 59.5447Z" fill="#000091"/>
<path fill-rule="evenodd" clip-rule="evenodd" d="M115.63 64.2777C115.826 64.2777 121.876 61.0062 122.389 61.8052C122.797 62.4535 122.359 63.2073 118.753 64.8506L115.706 66.0717" fill="white"/>
<path fill-rule="evenodd" clip-rule="evenodd" d="M121.07 61.4049L121.176 61.3744C121.992 61.1445 122.499 61.138 122.773 61.5649C123.468 62.6719 122.479 63.6296 119.148 65.1674L118.941 65.2623L118.922 65.2705L115.874 66.4917C115.642 66.5847 115.378 66.4721 115.285 66.2403C115.196 66.0167 115.297 65.7639 115.513 65.6627L115.537 65.6521L118.575 64.4347L118.828 64.3185C120.333 63.6208 121.269 63.0763 121.741 62.6488L121.768 62.6243L121.826 62.569C122.034 62.3654 122.087 62.2537 122.052 62.1403L122.049 62.1319L122.02 62.1322L121.999 62.133C121.844 62.1405 121.614 62.1875 121.326 62.2725L121.203 62.3099C120.7 62.4672 120.061 62.7196 119.304 63.0535L119.208 63.0956C119.042 63.1695 118.871 63.2469 118.695 63.3278L118.274 63.5228C117.995 63.6534 117.73 63.7802 117.381 63.9493L116.031 64.6061C115.701 64.7632 115.739 64.7301 115.63 64.7301C115.38 64.7301 115.177 64.5277 115.177 64.2779C115.177 64.0727 115.314 63.8994 115.502 63.8441L115.525 63.8379L115.54 63.8318C115.561 63.8229 115.588 63.8109 115.621 63.7959L115.861 63.683L117.103 63.079C117.511 62.8815 117.811 62.7397 118.181 62.5683L118.451 62.4447C118.583 62.3842 118.713 62.3256 118.841 62.269L119.037 62.1823C119.846 61.8283 120.527 61.5648 121.07 61.4049Z" fill="#000091"/>
<path fill-rule="evenodd" clip-rule="evenodd" d="M51.116 37.6267C53.4546 36.1492 61.3152 36.8427 67.4409 39.1041L64.9665 43.838L52.4739 41.863L51.116 37.6267Z" fill="#000091"/>
<path fill-rule="evenodd" clip-rule="evenodd" d="M52.8054 41.7112V29.1528L63.8345 35.8014L63.578 42.5404L52.8054 41.7112Z" fill="white"/>
<path fill-rule="evenodd" clip-rule="evenodd" d="M52.3511 29.1536V41.712C52.3511 41.9483 52.5331 42.1448 52.7689 42.1629L63.5416 42.9921C63.7977 43.0118 64.0189 42.8149 64.0286 42.5584L64.2851 35.8194C64.2914 35.6549 64.2077 35.4999 64.0666 35.4149L53.0375 28.7663C52.7358 28.5845 52.3511 28.8016 52.3511 29.1536ZM53.2561 29.9525L63.3702 36.0495L63.1417 42.0519L53.2561 41.291V29.9525Z" fill="#000091"/>
<path fill-rule="evenodd" clip-rule="evenodd" d="M67.4088 15.7054C62.9127 12.5997 58.8692 11.4539 52.5324 19.5648L51.6724 24.9018C49.0169 24.1027 47.6138 25.3993 48.1871 27.721C48.8057 30.2236 50.2541 31.3393 52.6681 30.691C52.5324 30.3744 52.6681 30.691 52.6681 30.691C53.8299 33.3142 56.0025 36.3144 60.0611 37.2039C66.413 38.5758 67.8916 34.656 68.6007 33.1032C69.3099 31.5503 71.905 18.811 67.4088 15.7054Z" fill="white"/>
<path fill-rule="evenodd" clip-rule="evenodd" d="M60.5955 12.9792C57.9539 13.358 55.2568 15.3393 52.1745 19.2845L52.1554 19.3109C52.1191 19.365 52.0948 19.4264 52.0844 19.4909L51.3034 24.3373L51.2874 24.3338C48.6676 23.7723 47.114 25.2659 47.7466 27.8273L47.7675 27.9102C48.4323 30.4928 49.9953 31.6768 52.3319 31.2301L52.4095 31.2147L52.4433 31.2863C54.0012 34.5608 56.4333 36.87 59.9631 37.6436C63.9056 38.4952 66.4168 37.5048 67.9732 35.2498C68.2067 34.9115 68.4104 34.557 68.606 34.1636L68.6694 34.0343C68.7009 33.969 68.7324 33.9024 68.7649 33.8324L69.0115 33.2889C69.5286 32.1564 70.2564 28.2576 70.4078 25.0056L70.4197 24.7254C70.594 20.1735 69.7874 16.7973 67.6651 15.3313L67.4746 15.2007C64.8222 13.3985 62.7963 12.6635 60.5955 12.9792ZM67.1497 16.074C68.9526 17.3193 69.693 20.4958 69.5087 24.8304L69.5028 24.9621C69.3578 28.0775 68.6623 31.8266 68.2011 32.8809L68.0069 33.3113L67.9437 33.449C67.8924 33.5593 67.8443 33.6598 67.7946 33.7597C67.6169 34.1171 67.4342 34.4351 67.2273 34.7349C65.8793 36.6878 63.7381 37.5323 60.155 36.7584C56.7987 36.0228 54.5209 33.7576 53.0803 30.5046C52.9904 30.3016 52.7663 30.1938 52.5515 30.2501L52.4793 30.269C50.4303 30.7936 49.1973 29.9256 48.6247 27.6091C48.1275 25.5954 49.2569 24.6444 51.5401 25.3314L51.5663 25.3385C51.8201 25.3989 52.0754 25.2314 52.1175 24.9703L52.9588 19.7485L53.064 19.6153C55.94 15.9879 58.4032 14.2059 60.7234 13.8731C62.699 13.5898 64.5733 14.2944 67.1497 16.074Z" fill="#000091"/>
<path fill-rule="evenodd" clip-rule="evenodd" d="M65.2463 25.0258C65.4859 24.9987 65.7028 25.1637 65.7432 25.398L65.747 25.4243L66.2902 30.2185C66.3201 30.4825 66.1173 30.7132 65.8553 30.7215L65.8289 30.7215L64.0486 30.6763C63.7987 30.67 63.6012 30.4624 63.6076 30.2127C63.6137 29.9719 63.8071 29.7799 64.045 29.7721L64.0716 29.772L65.3321 29.8039L64.8475 25.5261C64.8204 25.2867 64.9854 25.0699 65.22 25.0296L65.2463 25.0258Z" fill="#000091"/>
<path fill-rule="evenodd" clip-rule="evenodd" d="M67.7715 26.1988C68.0631 26.1988 68.2995 25.8276 68.2995 25.3697C68.2995 24.9117 68.0631 24.5405 67.7715 24.5405C67.4798 24.5405 67.2434 24.9117 67.2434 25.3697C67.2434 25.8276 67.4798 26.1988 67.7715 26.1988Z" fill="#000091"/>
<path fill-rule="evenodd" clip-rule="evenodd" d="M62.6414 26.1103C62.933 26.1103 63.1694 25.739 63.1694 25.2811C63.1694 24.8231 62.933 24.4519 62.6414 24.4519C62.3497 24.4519 62.1133 24.8231 62.1133 25.2811C62.1133 25.739 62.3497 26.1103 62.6414 26.1103Z" fill="#000091"/>
<path fill-rule="evenodd" clip-rule="evenodd" d="M59.9815 20.8266C60.5743 20.3963 61.2993 20.1825 62.1358 20.3079C62.3831 20.345 62.5534 20.5753 62.5163 20.8223C62.4792 21.0693 62.2488 21.2395 62.0016 21.2025C61.4167 21.1148 60.925 21.2598 60.5134 21.5585C60.3974 21.6427 60.2974 21.7328 60.2146 21.8218L60.1697 21.8716C60.1574 21.8859 60.1477 21.8978 60.1406 21.9067L60.1299 21.9208C59.9857 22.1248 59.7032 22.1733 59.4991 22.0291C59.2949 21.885 59.2464 21.6027 59.3906 21.3987C59.4225 21.3537 59.4761 21.2869 59.5517 21.2057C59.6727 21.0757 59.8158 20.9468 59.9815 20.8266Z" fill="white"/>
<path fill-rule="evenodd" clip-rule="evenodd" d="M67.0655 20.1911C67.3893 20.1415 67.7334 20.1409 68.0694 20.2248C68.6438 20.3683 69.0824 20.7406 69.2762 21.3603C69.3508 21.5987 69.2178 21.8524 68.9792 21.9269C68.7491 21.9988 68.5048 21.8778 68.4208 21.6553L68.4121 21.6301C68.3183 21.33 68.1337 21.1733 67.8499 21.1024C67.6477 21.0519 67.4177 21.0523 67.2027 21.0852L67.1616 21.0919C67.1311 21.0973 67.1101 21.1018 67.1003 21.1043C66.858 21.166 66.6116 21.0199 66.5498 20.7778C66.488 20.5358 66.6343 20.2895 66.8765 20.2278L66.9173 20.2182C66.9558 20.2097 67.0058 20.2003 67.0655 20.1911Z" fill="#000091"/>
<path fill-rule="evenodd" clip-rule="evenodd" d="M61.7092 30.8042C61.9472 30.7657 62.1718 30.9201 62.2234 31.1523L62.2328 31.2013C62.2388 31.2298 62.2499 31.2741 62.267 31.3297C62.3058 31.4559 62.3591 31.5819 62.4274 31.6963C62.6407 32.0532 62.9341 32.2158 63.4075 32.132C63.6537 32.0885 63.8886 32.2526 63.9322 32.4985C63.9758 32.7445 63.8115 32.9792 63.5654 33.0227C62.6912 33.1774 62.0436 32.8186 61.6501 32.1599C61.5414 31.9779 61.4603 31.7864 61.4016 31.5951L61.3799 31.5209C61.357 31.4384 61.3425 31.3709 61.3347 31.323C61.2948 31.0764 61.4624 30.8441 61.7092 30.8042Z" fill="#000091"/>
<path fill-rule="evenodd" clip-rule="evenodd" d="M43.9907 9.95948C41.1392 4.38132 36.5374 3.89889 31.2567 4.93914C25.976 5.97939 23.0037 13.1104 22.8227 13.7587C20.6652 21.4475 23.5167 29.679 29.8687 34.5335C30.5778 35.0763 31.2718 35.619 31.9508 36.1467C35.6774 39.0714 27.4094 41.559 27.4094 41.559C43.2514 42.8254 39.7964 26.9955 39.4644 25.5783C44.5339 23.6787 46.6462 15.1607 43.9907 9.95948Z" fill="#000091"/>
<path fill-rule="evenodd" clip-rule="evenodd" d="M52.5301 21.026C52.0322 22.3225 50.5687 22.9557 49.2712 22.4582L40.0979 18.8852C38.8003 18.3877 38.1666 16.9253 38.6645 15.6287C39.1624 14.3322 40.6259 13.699 41.9235 14.1965L51.0968 17.7695C52.3943 18.2671 53.028 19.7294 52.5301 21.026Z" fill="#F95C5E"/>
<path fill-rule="evenodd" clip-rule="evenodd" d="M71.8568 21.1608C71.7965 17.2711 70.861 13.879 68.5224 11.6327C68.2056 11.2558 67.768 10.894 67.2098 10.5924C65.2937 9.35619 62.6986 8.69284 59.2435 8.81345C59.1831 8.81345 59.1077 8.8436 59.0323 8.87376C58.4891 8.91899 57.9459 9.00944 57.4179 9.11497C57.1463 9.1602 56.8596 9.22051 56.5579 9.31096C55.5772 9.56726 54.6417 9.92908 53.7817 10.3211C46.0418 13.6529 43.0091 19.6532 46.4642 27.9299C48.2446 32.1965 50.5681 33.5684 52.801 33.5835V30.9904C52.6049 30.5833 52.2881 30.7341 52.2881 30.7341C49.874 31.3824 48.8028 30.2215 48.1842 27.734C47.8825 26.5279 48.1239 25.5931 48.7877 25.0956C48.8028 25.0806 48.8179 25.0655 48.833 25.0504C48.8632 25.0353 48.8933 25.0203 48.9235 24.9901C48.9386 24.975 48.9537 24.975 48.9839 24.96C49.014 24.9449 49.0442 24.9298 49.0744 24.9147C49.0895 24.8996 49.1046 24.8996 49.1347 24.8846C49.1649 24.8695 49.1951 24.8544 49.2403 24.8393C49.2554 24.8393 49.2705 24.8243 49.2856 24.8243C49.3309 24.8092 49.361 24.7941 49.4063 24.779C49.4214 24.779 49.4365 24.779 49.4365 24.764C49.6326 24.7037 49.8589 24.6735 50.1003 24.6584H50.1154C50.1758 24.6584 50.2361 24.6584 50.2814 24.6584C50.2965 24.6584 50.3116 24.6584 50.3116 24.6584C50.3719 24.6584 50.4323 24.6584 50.4926 24.6735C50.5077 24.6735 50.5228 24.6735 50.5228 24.6735C50.5832 24.6735 50.6435 24.6886 50.7039 24.6886C50.7189 24.6886 50.7189 24.6886 50.734 24.6886C51.0207 24.7187 51.3224 24.7941 51.6544 24.8846C51.8656 24.9449 51.7147 25.0353 51.926 25.1258L52.4842 25.0806C52.6803 25.0806 52.8765 25.0655 53.0726 25.0353C57.961 24.4474 65.5351 20.9648 68.2508 16.4721C70.1519 18.7788 70.3631 23.3317 70.0161 27.1761C71.1929 25.4273 71.887 23.377 71.8568 21.1608Z" fill="#000091"/>
<path fill-rule="evenodd" clip-rule="evenodd" d="M60.3735 19.8158C60.9664 19.3856 61.6914 19.1718 62.5279 19.2972C62.7752 19.3342 62.9455 19.5645 62.9084 19.8115C62.8713 20.0586 62.6409 20.2288 62.3937 20.1917C61.8087 20.1041 61.3171 20.2491 60.9055 20.5477C60.7895 20.6319 60.6895 20.722 60.6067 20.811L60.5618 20.8609C60.5495 20.8752 60.5398 20.887 60.5327 20.896L60.522 20.91C60.3778 21.114 60.0953 21.1625 59.8912 21.0184C59.687 20.8742 59.6385 20.592 59.7827 20.388C59.8146 20.343 59.8682 20.2762 59.9438 20.195C60.0648 20.065 60.2079 19.9361 60.3735 19.8158Z" fill="white"/>
<path fill-rule="evenodd" clip-rule="evenodd" d="M109.987 67.7164C109.987 61.6558 109.308 55.9872 98.807 56.9671C98.4751 57.0274 98.1733 57.0878 97.8867 57.1631L85.6506 59.7864L76.1453 46.0973C74.9383 43.9565 72.7506 42.5393 70.3064 42.3283L67.153 42.0569L67.4397 39.0869C67.4397 39.0869 67.0022 40.1573 63.532 40.8056C58.8397 41.68 51.1148 37.6094 51.1148 37.6094C51.1148 37.6094 51.1148 42.0569 51.1148 42.268C51.1148 42.3283 45.306 42.6147 42.6355 44.2881C39.965 45.9465 38.8334 49.203 36.9475 53.7559C35.0615 58.324 29.132 74.5157 28.9962 75.5861C28.8605 76.6716 27.5478 83.0337 31.0331 86.8027C33.9903 89.9989 40.131 95.3358 46.498 93.1799L77.3976 92.7276C75.4513 88.0239 74.7874 81.903 74.6516 76.0836C75.3306 76.4304 76.0548 76.7621 76.8393 77.0485C105.023 83.8328 107.316 76.0836 107.316 76.0836C108.946 74.1087 109.987 71.0934 109.987 67.7164Z" fill="#6A6AF4"/>
<path fill-rule="evenodd" clip-rule="evenodd" d="M49.0538 55.2036L49.0804 55.2047C49.3209 55.2219 49.504 55.4238 49.5007 55.6616L49.4996 55.6881L48.6698 67.2816C48.6473 67.5962 48.3176 67.7917 48.0305 67.6609C45.7574 66.6251 43.6035 66.8901 41.6807 67.9647C41.3079 68.1731 40.9764 68.3961 40.691 68.6184C40.6086 68.6826 40.5354 68.7426 40.4716 68.7973L40.4346 68.8295C40.3933 68.8657 40.3669 68.8901 40.3559 68.9007C40.1765 69.0746 39.89 69.0703 39.7159 68.891C39.5418 68.7117 39.5462 68.4254 39.7256 68.2515L39.7593 68.2195C39.8395 68.1449 39.9654 68.0366 40.1345 67.9049C40.4547 67.6556 40.824 67.4071 41.2388 67.1753C43.2044 66.0767 45.414 65.7295 47.7327 66.5634L47.8114 66.5922L48.5966 55.6236C48.6138 55.3833 48.8159 55.2004 49.0538 55.2036Z" fill="white"/>
<path fill-rule="evenodd" clip-rule="evenodd" d="M51.9503 72.4263L51.9511 72.4157C51.9605 72.2994 51.9527 72.1303 51.9121 71.9157C51.85 71.5874 51.7228 71.2282 51.5137 70.8443C50.9354 69.7828 49.8393 68.7134 48.0883 67.6964L47.9935 67.6417C47.7765 67.5176 47.7013 67.2413 47.8255 67.0245C47.9451 66.8157 48.2059 66.7383 48.42 66.8444L48.4439 66.8571L48.5449 66.9153C50.3979 67.9917 51.6036 69.1551 52.2728 70.3468L52.3088 70.4119C52.7604 71.2409 52.8962 71.9582 52.8534 72.4884L52.8492 72.5321C52.8478 72.5449 52.8463 72.5559 52.8449 72.565C52.8066 72.8119 52.5752 72.9809 52.3282 72.9426C52.0812 72.9043 51.912 72.6731 51.9503 72.4263Z" fill="white"/>
<path fill-rule="evenodd" clip-rule="evenodd" d="M72.158 51.125C72.3041 50.9224 72.587 50.8765 72.7898 51.0225L72.8182 51.0436C72.8499 51.0677 72.8915 51.1012 72.9421 51.1444L72.9681 51.1668C73.0961 51.2775 73.237 51.4121 73.3876 51.5717C73.8112 52.0205 74.2323 52.5812 74.6235 53.2614C75.5133 54.8085 76.12 56.7433 76.3195 59.098C76.5643 61.9881 76.1785 65.3525 75.0471 69.2246L75.0193 69.319L75.6472 78.1022C75.6644 78.3425 75.4904 78.5523 75.2544 78.5829L75.2279 78.5856C74.9875 78.6027 74.7775 78.429 74.7469 78.1931L74.7442 78.1667L74.1105 69.3019C74.1067 69.2477 74.1126 69.1932 74.1281 69.1411C75.268 65.3 75.656 61.9904 75.4174 59.1743C75.2292 56.9517 74.6625 55.1446 73.8386 53.7121C73.4835 53.0946 73.105 52.5907 72.7289 52.1922C72.6158 52.0723 72.5106 51.9703 72.4155 51.8857L72.3387 51.8191C72.3163 51.8002 72.298 51.7853 72.2841 51.7744L72.2605 51.7564C72.0577 51.6103 72.0118 51.3277 72.158 51.125Z" fill="white"/>
<path fill-rule="evenodd" clip-rule="evenodd" d="M60.2611 76.145C59.0842 72.4815 55.1765 72.18 55.1765 72.18C55.1765 72.18 53.2453 71.7277 51.0123 71.6222C50.2579 72.6021 48.3267 74.6977 46.9084 78.8587L47.6628 79.8839C47.6628 79.8839 50.0769 80.8789 51.1783 81.3161C52.5814 81.8739 54.0449 81.9192 55.3274 80.9845C55.3726 80.9543 55.433 80.9091 55.4783 80.8789L56.3081 76.4315C55.7649 75.6475 55.9912 74.5922 57.2586 75.2103C58.5411 75.8284 57.5151 77.4265 59.1898 77.5622C60.8797 77.7129 60.2611 76.145 60.2611 76.145Z" fill="white"/>
<path fill-rule="evenodd" clip-rule="evenodd" d="M51.0337 71.1704C50.8858 71.1634 50.7438 71.2292 50.6535 71.3464L50.5153 71.5225L50.166 71.9589C49.92 72.2677 49.7147 72.5342 49.502 72.825C48.9225 73.6174 48.3938 74.4523 47.8939 75.4034C47.3642 76.4112 46.8906 77.5082 46.48 78.7129C46.4323 78.853 46.4561 79.0075 46.5438 79.1267L47.2982 80.1518C47.3411 80.2102 47.3973 80.2572 47.462 80.2892L47.5349 80.3204L48.7099 80.803L50.2665 81.4374C50.5596 81.556 50.8103 81.6567 51.0112 81.7365L51.0871 81.7662C52.7048 82.3884 54.2352 82.3081 55.5334 81.3934L55.5785 81.3608L55.7293 81.2553C55.8309 81.1876 55.9008 81.0818 55.9232 80.9618L56.753 76.5144C56.7752 76.3958 56.749 76.2732 56.6802 76.174C56.497 75.9096 56.4457 75.6203 56.5065 75.5027C56.5148 75.4867 56.5196 75.4834 56.5561 75.4788C56.659 75.4657 56.8303 75.5047 57.0601 75.6168C57.3451 75.7541 57.4624 75.9344 57.5595 76.3281L57.5987 76.5L57.6089 76.5465C57.7085 77.0032 57.781 77.2185 57.9691 77.4596C58.2249 77.7874 58.6137 77.9693 59.1533 78.013C60.1577 78.1026 60.7396 77.6566 60.8159 76.9044C60.8394 76.6735 60.8127 76.4402 60.7551 76.2131L60.7454 76.1759L60.7261 76.1079C60.7197 76.0868 60.7134 76.0671 60.7074 76.0491L60.6879 75.9943L60.692 76.0068C60.223 74.5467 59.3213 73.4706 58.1218 72.7325C57.4877 72.3424 56.8114 72.0718 56.1353 71.8983C55.8983 71.8375 55.6775 71.7931 55.4782 71.7624L55.3663 71.7462C55.3439 71.7433 55.3232 71.7407 55.3042 71.7384L55.2479 71.7323L55.1616 71.7132C55.0837 71.6962 54.9955 71.6777 54.8978 71.6579L54.838 71.6459C54.4911 71.5767 54.1036 71.5076 53.6846 71.4432C52.8092 71.3085 51.9148 71.2121 51.0337 71.1704ZM51.2234 72.0849L51.4544 72.0998C52.1512 72.1479 52.855 72.2296 53.5471 72.336C53.9073 72.3915 54.2432 72.4504 54.5481 72.5096L54.773 72.5545C54.8267 72.5655 54.8769 72.576 54.9235 72.586L55.0734 72.6192C55.0884 72.6227 55.1036 72.6255 55.1189 72.6274L55.1852 72.634C55.2158 72.6375 55.2572 72.6428 55.3085 72.6504L55.3405 72.6552C55.5114 72.6815 55.7032 72.7201 55.9104 72.7733C56.5037 72.9255 57.0967 73.1628 57.6474 73.5016C58.671 74.1314 59.4307 75.0381 59.8303 76.2821L59.8469 76.3282C59.8548 76.3512 59.866 76.3877 59.8778 76.4339C59.9115 76.5672 59.9268 76.7006 59.9155 76.8119C59.8914 77.0495 59.7658 77.1519 59.2734 77.1141L59.2303 77.1105C58.7442 77.0711 58.6394 76.9757 58.5196 76.468L58.452 76.1658C58.2965 75.5009 58.0421 75.0845 57.4555 74.8018C56.6788 74.4229 56.0009 74.5091 55.7025 75.0864L55.6832 75.1258C55.4986 75.524 55.5668 76.046 55.8236 76.507L55.8311 76.52L55.0672 80.6133L55.0609 80.6179C54.022 81.375 52.7906 81.4498 51.417 80.9225L51.3458 80.8947C51.1619 80.8217 50.9355 80.7308 50.6722 80.6244L49.8272 80.2811L48.855 79.8835L47.9526 79.5126L47.4141 78.7811L47.4711 78.6206C47.8342 77.6103 48.2439 76.6821 48.6955 75.8228C49.1737 74.9131 49.6788 74.1155 50.2332 73.3575C50.3921 73.1402 50.5473 72.9363 50.7208 72.7153L50.9001 72.4889L51.2234 72.0849Z" fill="#000091"/>
<path opacity="0.5" fill-rule="evenodd" clip-rule="evenodd" d="M125.425 60.0268C106.581 74.8918 95.099 65.5597 86.3482 66.8864C77.5973 68.2131 76.2545 72.555 68.3485 75.6607C63.4601 77.5754 55.6145 77.304 52.6121 76.8216V89.6513H125.425V60.0268Z" fill="white"/>
<path fill-rule="evenodd" clip-rule="evenodd" d="M129.046 88.7002C129.296 88.7002 129.499 88.9027 129.499 89.1525C129.499 89.3933 129.311 89.5902 129.073 89.604L129.046 89.6048H52.6121C52.3621 89.6048 52.1594 89.4023 52.1594 89.1525C52.1594 88.9116 52.3479 88.7147 52.5855 88.701L52.6121 88.7002H129.046Z" fill="#F95C5E"/>
<path fill-rule="evenodd" clip-rule="evenodd" d="M63.2793 76.4914C63.5203 76.4914 63.7174 76.6797 63.7312 76.9171L63.7319 76.9437V77.8482C63.7319 78.098 63.5293 78.3005 63.2793 78.3005C63.0382 78.3005 62.8412 78.1122 62.8274 77.8748L62.8267 77.8482V76.9437C62.8267 76.6939 63.0293 76.4914 63.2793 76.4914Z" fill="#F95C5E"/>
<path fill-rule="evenodd" clip-rule="evenodd" d="M62.8267 79.9298V82.0099C62.8267 82.2597 63.0293 82.4622 63.2793 82.4622C63.5293 82.4622 63.7319 82.2597 63.7319 82.0099V79.9298C63.7319 79.68 63.5293 79.4775 63.2793 79.4775C63.0293 79.4775 62.8267 79.68 62.8267 79.9298ZM62.8267 84.0898V86.1699C62.8267 86.4197 63.0293 86.6222 63.2793 86.6222C63.5293 86.6222 63.7319 86.4197 63.7319 86.1699V84.0898C63.7319 83.84 63.5293 83.6375 63.2793 83.6375C63.0293 83.6375 62.8267 83.84 62.8267 84.0898Z" fill="#F95C5E"/>
<path fill-rule="evenodd" clip-rule="evenodd" d="M63.2793 87.7994C63.5203 87.7994 63.7174 87.9877 63.7312 88.2251L63.7319 88.2517V89.1562C63.7319 89.406 63.5293 89.6085 63.2793 89.6085C63.0382 89.6085 62.8412 89.4202 62.8274 89.1828L62.8267 89.1562V88.2517C62.8267 88.0019 63.0293 87.7994 63.2793 87.7994Z" fill="#F95C5E"/>
<path fill-rule="evenodd" clip-rule="evenodd" d="M86.3474 66.6304C86.5885 66.6304 86.7855 66.8187 86.7993 67.0561L86.8 67.0827V67.9872C86.8 68.237 86.5974 68.4395 86.3474 68.4395C86.1064 68.4395 85.9093 68.2512 85.8955 68.0138L85.8948 67.9872V67.0827C85.8948 66.8329 86.0974 66.6304 86.3474 66.6304Z" fill="#F95C5E"/>
<path fill-rule="evenodd" clip-rule="evenodd" d="M85.8948 69.8276V71.6699C85.8948 71.9197 86.0974 72.1222 86.3474 72.1222C86.5974 72.1222 86.8 71.9197 86.8 71.6699V69.8276C86.8 69.5779 86.5974 69.3754 86.3474 69.3754C86.0974 69.3754 85.8948 69.5779 85.8948 69.8276ZM85.8948 73.5125V75.3547C85.8948 75.6045 86.0974 75.807 86.3474 75.807C86.5974 75.807 86.8 75.6045 86.8 75.3547V73.5125C86.8 73.2627 86.5974 73.0602 86.3474 73.0602C86.0974 73.0602 85.8948 73.2627 85.8948 73.5125ZM85.8948 77.1973V79.0395C85.8948 79.2893 86.0974 79.4918 86.3474 79.4918C86.5974 79.4918 86.8 79.2893 86.8 79.0395V77.1973C86.8 76.9475 86.5974 76.745 86.3474 76.745C86.0974 76.745 85.8948 76.9475 85.8948 77.1973ZM85.8948 80.8821V82.7243C85.8948 82.9741 86.0974 83.1766 86.3474 83.1766C86.5974 83.1766 86.8 82.9741 86.8 82.7243V80.8821C86.8 80.6323 86.5974 80.4298 86.3474 80.4298C86.0974 80.4298 85.8948 80.6323 85.8948 80.8821ZM85.8948 84.5669V86.4091C85.8948 86.6589 86.0974 86.8614 86.3474 86.8614C86.5974 86.8614 86.8 86.6589 86.8 86.4091V84.5669C86.8 84.3171 86.5974 84.1146 86.3474 84.1146C86.0974 84.1146 85.8948 84.3171 85.8948 84.5669Z" fill="#F95C5E"/>
<path fill-rule="evenodd" clip-rule="evenodd" d="M86.3474 87.7976C86.5885 87.7976 86.7855 87.9859 86.7993 88.2233L86.8 88.2499V89.1545C86.8 89.4042 86.5974 89.6067 86.3474 89.6067C86.1064 89.6067 85.9093 89.4184 85.8955 89.181L85.8948 89.1545V88.2499C85.8948 88.0001 86.0974 87.7976 86.3474 87.7976Z" fill="#F95C5E"/>
<path fill-rule="evenodd" clip-rule="evenodd" d="M108.921 67.595C109.162 67.595 109.359 67.7833 109.373 68.0207L109.373 68.0473V68.9519C109.373 69.2017 109.171 69.4042 108.921 69.4042C108.68 69.4042 108.483 69.2159 108.469 68.9785L108.468 68.9519V68.0473C108.468 67.7975 108.671 67.595 108.921 67.595Z" fill="#F95C5E"/>
<path fill-rule="evenodd" clip-rule="evenodd" d="M108.468 70.7001V72.4547C108.468 72.7045 108.671 72.907 108.921 72.907C109.171 72.907 109.373 72.7045 109.373 72.4547V70.7001C109.373 70.4503 109.171 70.2478 108.921 70.2478C108.671 70.2478 108.468 70.4503 108.468 70.7001ZM108.468 74.2093V75.9639C108.468 76.2137 108.671 76.4162 108.921 76.4162C109.171 76.4162 109.373 76.2137 109.373 75.9639V74.2093C109.373 73.9596 109.171 73.7571 108.921 73.7571C108.671 73.7571 108.468 73.9596 108.468 74.2093ZM108.468 77.7186V79.4732C108.468 79.723 108.671 79.9255 108.921 79.9255C109.171 79.9255 109.373 79.723 109.373 79.4732V77.7186C109.373 77.4688 109.171 77.2663 108.921 77.2663C108.671 77.2663 108.468 77.4688 108.468 77.7186ZM108.468 81.2277V82.9823C108.468 83.2321 108.671 83.4346 108.921 83.4346C109.171 83.4346 109.373 83.2321 109.373 82.9823V81.2277C109.373 80.9779 109.171 80.7754 108.921 80.7754C108.671 80.7754 108.468 80.9779 108.468 81.2277ZM108.468 84.7371V86.4917C108.468 86.7415 108.671 86.944 108.921 86.944C109.171 86.944 109.373 86.7415 109.373 86.4917V84.7371C109.373 84.4873 109.171 84.2848 108.921 84.2848C108.671 84.2848 108.468 84.4873 108.468 84.7371Z" fill="#F95C5E"/>
<path fill-rule="evenodd" clip-rule="evenodd" d="M108.921 87.7977C109.162 87.7977 109.359 87.986 109.373 88.2234L109.373 88.25V89.1545C109.373 89.4043 109.171 89.6068 108.921 89.6068C108.68 89.6068 108.483 89.4185 108.469 89.1811L108.468 89.1545V88.25C108.468 88.0002 108.671 87.7977 108.921 87.7977Z" fill="#F95C5E"/>
<path fill-rule="evenodd" clip-rule="evenodd" d="M125.051 59.5397C125.312 59.3332 125.692 59.3776 125.898 59.6389C126.105 59.9002 126.061 60.2794 125.799 60.4859C119.696 65.3049 114.003 67.9115 108.365 68.8058C106.087 69.1671 103.844 69.2477 101.502 69.0948L101.282 69.0798C99.4516 68.9493 97.8127 68.7153 95.3117 68.2709L93.3137 67.9154C91.6951 67.6298 91.3985 67.5907 90.5008 67.4868C88.9182 67.3037 87.6206 67.2894 86.4382 67.4686C82.6444 68.0438 80.3594 69.0515 77.1633 71.2325L76.6058 71.6178L75.633 72.2962C75.1002 72.6667 74.6798 72.953 74.2552 73.2322C72.3917 74.4574 70.6582 75.3872 68.5698 76.2076C64.3184 77.8859 59.7786 78.115 55.4997 77.4024C55.171 77.3477 54.9489 77.037 55.0037 76.7084C55.0585 76.3799 55.3694 76.158 55.6982 76.2127C59.778 76.8922 64.1036 76.6738 68.1273 75.0855C70.072 74.3215 71.693 73.4605 73.4287 72.3313L73.5917 72.2247C73.8843 72.0323 74.1759 71.8357 74.5067 71.6084L76.2501 70.3961L76.4816 70.2372C79.8171 67.9611 82.2617 66.8819 86.2572 66.2762C87.5195 66.0848 88.8742 66.0935 90.4876 66.2716L91.0041 66.3315C91.6079 66.4038 92.0102 66.4631 93.0909 66.6517L95.7971 67.1319C98.1063 67.5381 99.6559 67.7547 101.368 67.8768C103.702 68.0432 105.923 67.972 108.176 67.6147C113.603 66.7539 119.105 64.2344 125.051 59.5397Z" fill="#FCBFB7"/>
<path fill-rule="evenodd" clip-rule="evenodd" d="M108.918 69.0567C109.476 69.0567 109.929 68.6045 109.929 68.0466C109.929 67.4887 109.476 67.0365 108.918 67.0365C108.36 67.0365 107.907 67.4887 107.907 68.0466C107.907 68.6045 108.36 69.0567 108.918 69.0567Z" fill="#F95C5E"/>
<path fill-rule="evenodd" clip-rule="evenodd" d="M86.3466 68.0016C86.9049 68.0016 87.3574 67.5493 87.3574 66.9915C87.3574 66.4336 86.9049 65.9814 86.3466 65.9814C85.7883 65.9814 85.3357 66.4336 85.3357 66.9915C85.3357 67.5493 85.7883 68.0016 86.3466 68.0016Z" fill="#F95C5E"/>
<path fill-rule="evenodd" clip-rule="evenodd" d="M63.2785 77.9531C63.8367 77.9531 64.2893 77.5008 64.2893 76.943C64.2893 76.3851 63.8367 75.9329 63.2785 75.9329C62.7202 75.9329 62.2676 76.3851 62.2676 76.943C62.2676 77.5008 62.7202 77.9531 63.2785 77.9531Z" fill="#F95C5E"/>
<path fill-rule="evenodd" clip-rule="evenodd" d="M53.1851 77.2295C53.1851 77.2295 56.7156 80.697 58.0584 79.9432C59.4012 79.1894 60.0952 78.5562 60.0952 77.6818C60.0952 76.8074 58.6921 76.2345 57.998 77.6818C57.998 77.6818 55.584 76.3401 55.3426 75.4506" fill="white"/>
<path fill-rule="evenodd" clip-rule="evenodd" d="M55.2224 75.0142C55.4551 74.9512 55.6946 75.0814 55.77 75.3069L55.7777 75.3324C55.8082 75.4446 55.9462 75.6325 56.1778 75.8548C56.3751 76.0442 56.6284 76.2489 56.9236 76.4617C57.1656 76.636 57.4236 76.8072 57.6841 76.9696L57.8399 77.0655L57.8594 77.0396C58.2511 76.5268 58.7844 76.2846 59.3359 76.3587L59.3783 76.365C60.0369 76.4728 60.5461 77.0238 60.5461 77.682C60.5461 78.7197 59.8542 79.4531 58.2784 80.3377C57.6163 80.7094 56.7332 80.4495 55.6365 79.7699C55.2837 79.5513 54.915 79.2911 54.5359 78.9978C54.1273 78.6817 53.7279 78.344 53.3532 78.0064L53.2262 77.891C53.1853 77.8536 53.1458 77.8171 53.1079 77.7818L52.9233 77.6077L52.8661 77.5523C52.6878 77.3772 52.6853 77.0908 52.8605 76.9127C53.0288 76.7417 53.2996 76.7326 53.4787 76.887L53.5006 76.9072C53.5211 76.9273 53.5619 76.9666 53.6209 77.0225L53.725 77.12C53.7973 77.1874 53.8757 77.2592 53.9595 77.3346C54.3184 77.6581 54.701 77.9816 55.0901 78.2826C55.446 78.5579 55.7897 78.8005 56.1136 79.0012C56.9431 79.5152 57.5678 79.6991 57.835 79.5491L57.9638 79.476C59.1824 78.776 59.6409 78.2704 59.6409 77.682C59.6409 77.4836 59.4678 77.2963 59.232 77.2577C58.9424 77.2103 58.6376 77.3915 58.4045 77.8775C58.2918 78.1125 58.0042 78.2039 57.7763 78.0773L57.6544 78.0077L57.5362 77.9385C57.4748 77.9021 57.41 77.8632 57.3423 77.8219C57.0198 77.6249 56.697 77.4136 56.3942 77.1954C56.0671 76.9597 55.7823 76.7295 55.5506 76.5071C55.2107 76.1808 54.9876 75.8771 54.904 75.5691C54.8386 75.328 54.9811 75.0796 55.2224 75.0142Z" fill="#000091"/>
<path fill-rule="evenodd" clip-rule="evenodd" d="M51.1921 78.3622C51.1921 78.3622 54.3756 81.5131 55.8241 81.1211C55.8241 81.1211 57.0613 80.7744 57.2725 80.0206" fill="white"/>
<path fill-rule="evenodd" clip-rule="evenodd" d="M50.8708 78.0423C51.0467 77.8648 51.3333 77.8634 51.5109 78.0392L51.5889 78.1149L51.629 78.1532C51.7266 78.2462 51.8381 78.3501 51.9616 78.4621C52.3143 78.7821 52.6906 79.1022 53.0735 79.4C53.4298 79.677 53.7739 79.9206 54.0979 80.121C54.824 80.5701 55.3991 80.766 55.7021 80.684L55.7466 80.6704C55.7833 80.6585 55.8335 80.6411 55.8935 80.6181C56.045 80.5602 56.1962 80.49 56.3344 80.4088C56.5987 80.2537 56.771 80.0836 56.8284 79.9235L56.8369 79.897C56.9043 79.6564 57.154 79.516 57.3948 79.5834C57.6355 79.6507 57.776 79.9003 57.7086 80.1409C57.5858 80.5792 57.2545 80.9177 56.7931 81.1887C56.6078 81.2975 56.4124 81.3883 56.2172 81.4629C56.0993 81.508 56.0054 81.5385 55.9426 81.556C55.3177 81.7251 54.5471 81.4627 53.6214 80.8901C53.2675 80.6712 52.8977 80.4095 52.5175 80.1138C52.1149 79.8007 51.7217 79.4662 51.353 79.1318L51.2281 79.0175C51.1878 78.9804 51.149 78.9443 51.1117 78.9094L50.978 78.7828L50.8738 78.6819C50.6962 78.5061 50.6949 78.2197 50.8708 78.0423Z" fill="#000091"/>
<path fill-rule="evenodd" clip-rule="evenodd" d="M47.1338 79.1602C47.1338 79.1602 50.438 83.5172 51.6752 83.8488C52.9124 84.1654 52.5654 82.5975 50.1664 79.4768" fill="white"/>
<path fill-rule="evenodd" clip-rule="evenodd" d="M46.8604 78.7981C47.052 78.653 47.3219 78.6836 47.4766 78.8631L47.6472 79.0839C47.7708 79.2433 47.9103 79.421 48.063 79.6124C48.4991 80.1591 48.9522 80.7057 49.3983 81.215C49.5934 81.4377 49.7832 81.6487 49.9664 81.846L50.0644 81.9508C50.8585 82.7946 51.4912 83.3296 51.7875 83.4091C51.8302 83.42 51.8673 83.4271 51.8981 83.4312L51.9214 83.4337C51.9203 83.3574 51.9022 83.2544 51.8653 83.128L51.8523 83.085C51.6287 82.3693 50.9286 81.2091 49.8075 79.7507C49.6552 79.5526 49.6925 79.2686 49.8907 79.1165C50.089 78.9643 50.3731 79.0015 50.5254 79.1996L50.6548 79.3691C51.7609 80.8269 52.4634 82.0055 52.7164 82.8154C53.0425 83.8589 52.5718 84.5435 51.5579 84.284C51.0107 84.1374 50.2721 83.5048 49.3029 82.4613C49.1134 82.2573 48.9177 82.0398 48.7171 81.8107C48.2609 81.29 47.7992 80.733 47.3551 80.1761L47.2252 80.0127C47.183 79.9594 47.142 79.9073 47.1022 79.8566L46.7731 79.4317C46.6221 79.2326 46.6612 78.9489 46.8604 78.7981Z" fill="#000091"/>
<path fill-rule="evenodd" clip-rule="evenodd" d="M239.472 92.6989C239.764 92.6989 240 92.9352 240 93.2266C240 93.5083 239.779 93.7384 239.501 93.7535L239.472 93.7542H0.528069C0.236425 93.7542 0 93.518 0 93.2266C0 92.9449 0.220926 92.7147 0.499096 92.6997L0.528069 92.6989H239.472Z" fill="#000091"/>
</svg>
