<svg width="95" height="109" viewBox="0 0 95 109" fill="none" xmlns="http://www.w3.org/2000/svg">
<path fill-rule="evenodd" clip-rule="evenodd" d="M46.9482 107.005C72.2031 107.005 92.6763 86.4577 92.6763 61.1111C92.6763 35.7645 72.2031 15.2169 46.9482 15.2169C21.6932 15.2169 1.21997 35.7645 1.21997 61.1111C1.21997 86.4577 21.6932 107.005 46.9482 107.005Z" fill="white"/>
<path fill-rule="evenodd" clip-rule="evenodd" d="M6.83765 64.9601V83.8989C10.9884 91.1803 17.0925 97.2015 24.3825 101.262H59.0536V50.6422H21.1037C13.2208 50.6422 6.83765 57.0485 6.83765 64.9601Z" fill="#6A6AF4"/>
<path fill-rule="evenodd" clip-rule="evenodd" d="M46.5313 107.005C55.1468 107.005 63.2042 104.624 70.0756 100.459C68.3665 86.6658 64.8435 57.75 64.8784 57.645C64.9133 57.505 35.9626 58.1001 33.1721 58.3801C29.7539 58.6952 26.51 61.6008 25.638 64.8214H25.6031L14.4065 93.7372C22.6383 101.929 33.9744 107.005 46.5313 107.005Z" fill="#F95C5E"/>
<path fill-rule="evenodd" clip-rule="evenodd" d="M36.6717 46.7377C36.8745 46.2993 37.393 46.1089 37.8298 46.3124C38.2666 46.516 38.4563 47.0364 38.2535 47.4748C37.8584 48.3288 37.7323 49.4522 37.9374 50.6285C38.3136 52.7484 39.5755 54.2195 40.589 54.1245L40.645 54.1176C41.1212 54.0449 41.5659 54.3733 41.6383 54.8511C41.7108 55.329 41.3835 55.7753 40.9074 55.848C38.7358 56.1797 36.7484 53.9113 36.2199 50.9328C35.9548 49.4123 36.1216 47.9268 36.6717 46.7377Z" fill="#F95C5E"/>
<path fill-rule="evenodd" clip-rule="evenodd" d="M58.7864 45.5483C58.9892 45.1099 59.5077 44.9195 59.9445 45.123C60.3814 45.3265 60.5711 45.8469 60.3683 46.2853C59.9732 47.1394 59.847 48.2628 60.0521 49.4391C60.4283 51.559 61.6902 53.0301 62.7037 52.935L62.7598 52.9282C63.2359 52.8554 63.6806 53.1839 63.7531 53.6617C63.8255 54.1395 63.4983 54.5859 63.0222 54.6586C60.8505 54.9902 58.8632 52.7219 58.3347 49.7434C58.0696 48.2228 58.2363 46.7373 58.7864 45.5483Z" fill="#F95C5E"/>
<path fill-rule="evenodd" clip-rule="evenodd" d="M53.0538 52.6367L53.9956 57.0475L57.8325 57.2226C58.1464 57.7827 60.1694 68.1798 50.4378 68.5298C44.0547 68.7749 40.183 63.3138 37.6367 58.4828L42.9734 57.9227L40.8457 45.8103L53.0538 52.6367Z" fill="white"/>
<path fill-rule="evenodd" clip-rule="evenodd" d="M39.989 45.9635L41.9538 57.151L37.548 57.6136C36.9338 57.6781 36.5791 58.3453 36.8679 58.8933C38.4622 61.9181 40.0823 64.2621 42.0077 66.0529C44.4639 68.3375 47.265 69.5287 50.4732 69.4056C55.1523 69.2373 57.8316 66.8803 58.7505 63.1671C59.3299 60.826 59.0865 57.6725 58.5945 56.7947L58.561 56.7398C58.4079 56.5083 58.1532 56.3622 57.8741 56.3495L54.7092 56.2051L53.9085 52.4545C53.8559 52.2079 53.6998 51.9961 53.4803 51.8733L41.2721 45.047C40.6305 44.6882 39.8614 45.2375 39.989 45.9635ZM42.0251 47.4718L52.2859 53.2095L53.1451 57.2327L53.1603 57.2933C53.2635 57.6509 53.5831 57.9065 53.9582 57.9236L57.1587 58.0695L57.1506 58.0256C57.2189 58.3742 57.276 58.7952 57.3108 59.2458C57.4021 60.4286 57.332 61.639 57.0581 62.7458C56.3205 65.7261 54.284 67.5176 50.4088 67.657L50.2594 67.6617C45.6913 67.7723 42.2585 64.8597 39.1211 59.3725L39.0334 59.2181L43.0663 58.795C43.5693 58.7422 43.9222 58.2724 43.8344 57.7726L42.0251 47.4718Z" fill="#000091"/>
<path fill-rule="evenodd" clip-rule="evenodd" d="M42.0759 45.346C42.7608 43.832 42.0362 42.0214 40.4574 41.3021C38.8786 40.5828 37.0436 41.227 36.3587 42.7411C35.6739 44.2552 36.3985 46.0657 37.9772 46.785C39.556 47.5043 41.391 46.8601 42.0759 45.346Z" fill="white"/>
<path fill-rule="evenodd" clip-rule="evenodd" d="M35.5618 42.3745C34.6756 44.3355 35.6083 46.6601 37.6192 47.5772C39.6301 48.4942 41.9861 47.6695 42.8724 45.7085C43.7587 43.7475 42.8259 41.4229 40.815 40.5058C38.8041 39.5888 36.4481 40.4135 35.5618 42.3745ZM37.1511 43.0974C37.6323 42.0326 38.9463 41.5727 40.0952 42.0966C41.2441 42.6206 41.7643 43.917 41.2831 44.9818C40.8019 46.0466 39.4879 46.5066 38.339 45.9826C37.1901 45.4587 36.6699 44.1622 37.1511 43.0974Z" fill="#000091"/>
<path fill-rule="evenodd" clip-rule="evenodd" d="M63.7121 43.9154C64.397 42.4014 63.6724 40.5908 62.0936 39.8715C60.5149 39.1522 58.6798 39.7964 57.995 41.3105C57.3101 42.8246 58.0347 44.6351 59.6135 45.3544C61.1922 46.0737 63.0273 45.4295 63.7121 43.9154Z" fill="white"/>
<path fill-rule="evenodd" clip-rule="evenodd" d="M57.1981 40.946C56.3118 42.907 57.2445 45.2316 59.2554 46.1486C61.2663 47.0657 63.6224 46.2409 64.5086 44.2799C65.3949 42.3189 64.4621 39.9943 62.4513 39.0773C60.4404 38.1602 58.0843 38.985 57.1981 40.946ZM58.7873 41.6689C59.2686 40.6041 60.5826 40.1441 61.7315 40.6681C62.8804 41.192 63.4006 42.4885 62.9193 43.5533C62.4381 44.618 61.1241 45.078 59.9752 44.5541C58.8263 44.0301 58.3061 42.7337 58.7873 41.6689Z" fill="#000091"/>
<path fill-rule="evenodd" clip-rule="evenodd" d="M52.6626 55.2628C58.043 54.1663 61.2642 47.6404 59.8573 40.6868C58.4504 33.7332 52.9482 28.985 47.5678 30.0816C42.1874 31.1781 38.9662 37.704 40.3731 44.6576C41.78 51.6112 47.2822 56.3593 52.6626 55.2628Z" fill="white"/>
<path fill-rule="evenodd" clip-rule="evenodd" d="M47.4028 29.2292C41.4923 30.4364 38.0221 37.4539 39.5126 44.8371C41.0032 52.2203 46.9198 57.3205 52.8302 56.1134C58.7406 54.9062 62.2109 47.8887 60.7204 40.5055C59.2298 33.1223 53.3132 28.0221 47.4028 29.2292ZM47.7486 30.9432C52.6064 29.9511 57.6942 34.3368 59.01 40.8544C60.3258 47.3721 57.3417 53.4065 52.4839 54.3986C47.6261 55.3908 42.5383 51.0051 41.2225 44.4874C39.9067 37.9698 42.8908 31.9354 47.7486 30.9432Z" fill="#000091"/>
<path fill-rule="evenodd" clip-rule="evenodd" d="M52.4326 39.5796C52.8772 39.4521 53.3398 39.6951 53.4931 40.1259L53.5106 40.1807L54.9756 45.3267L54.9922 45.3955C55.1264 46.0688 54.682 46.784 53.9275 46.8255L52.0229 46.9311C51.5421 46.9579 51.1306 46.5884 51.1039 46.1058C51.0783 45.6425 51.4165 45.2434 51.8691 45.1885L51.9262 45.1834L53.1023 45.1177L51.8337 40.6615C51.7067 40.2154 51.9487 39.7511 52.378 39.5972L52.4326 39.5796Z" fill="#000091"/>
<path fill-rule="evenodd" clip-rule="evenodd" d="M46.7049 36.4343C47.6025 35.9061 48.5775 35.7223 49.5365 36.1538C49.7829 36.2647 50.0172 36.4145 50.2369 36.6028C50.6032 36.9166 50.6466 37.469 50.334 37.8366C50.0349 38.1883 49.5183 38.2435 49.1534 37.973L49.1046 37.9341C49.0097 37.8527 48.9161 37.7929 48.8229 37.751C48.4729 37.5935 48.0465 37.6739 47.5871 37.9442C47.44 38.0308 47.3229 38.1162 47.2493 38.1769L47.1972 38.2224C46.8456 38.5527 46.2938 38.5345 45.9647 38.1816C45.6355 37.8288 45.6537 37.2749 46.0053 36.9446C46.1539 36.805 46.3916 36.6187 46.7049 36.4343Z" fill="#000091"/>
<path fill-rule="evenodd" clip-rule="evenodd" d="M54.3921 35.994C54.9568 35.8545 55.5444 35.8089 56.123 35.9205C56.9272 36.0757 57.6012 36.5246 58.0339 37.2929C58.2709 37.7137 58.1231 38.2476 57.7038 38.4854C57.302 38.7134 56.7967 38.5866 56.5467 38.2053L56.5156 38.1542C56.3473 37.8553 56.1167 37.7017 55.7936 37.6394C55.4982 37.5823 55.1499 37.6094 54.809 37.6936L54.7107 37.7195C54.6517 37.736 54.6064 37.7506 54.5778 37.7609L54.5594 37.7678C54.1113 37.9448 53.605 37.7236 53.4287 37.2738C53.2524 36.824 53.4727 36.3159 53.9209 36.139L54.0091 36.1063C54.1077 36.0717 54.237 36.0323 54.3921 35.994Z" fill="#000091"/>
<path fill-rule="evenodd" clip-rule="evenodd" d="M50.1816 41.3453C50.1902 40.7266 49.8535 40.2204 49.4298 40.2145C49.006 40.2086 48.6556 40.7053 48.647 41.3239C48.6385 41.9426 48.9751 42.4488 49.3989 42.4547C49.8226 42.4606 50.1731 41.9639 50.1816 41.3453Z" fill="#000091"/>
<path fill-rule="evenodd" clip-rule="evenodd" d="M56.6172 42.6281C57.0393 42.5894 57.3346 42.043 57.2768 41.4076C57.2191 40.7722 56.8301 40.2885 56.408 40.3271C55.986 40.3658 55.6906 40.9122 55.7484 41.5476C55.8062 42.183 56.1952 42.6667 56.6172 42.6281Z" fill="#000091"/>
<path fill-rule="evenodd" clip-rule="evenodd" d="M46.8591 47.0848C47.3881 50.0647 48.6066 51.5616 50.3303 51.6288C50.9395 51.6526 51.5291 51.4873 52.0884 51.1995C52.3871 51.0459 52.6314 50.8825 52.8109 50.7405L52.882 50.6826C53.3279 50.3075 53.2897 49.6076 52.8055 49.2837L48.2013 46.2031C47.5623 45.7755 46.7244 46.3259 46.8591 47.0848ZM49.2684 49.0199L50.5474 49.8758L50.4854 49.8799C50.4564 49.8808 50.4276 49.8807 50.399 49.8796C49.9976 49.8639 49.623 49.6283 49.2997 49.075L49.2684 49.0199Z" fill="#000091"/>
<path fill-rule="evenodd" clip-rule="evenodd" d="M37.4629 31.4584C39.4511 29.253 43.0089 27.6777 46.2528 27.1525L46.2877 27.1175C67.0764 23.1968 63.9371 35.8343 63.9371 35.8343L60.2398 35.6592C61.1467 38.0747 61.1467 40.3502 60.1352 41.8555C60.1352 41.8205 60.1352 41.7855 60.1352 41.7505C59.8212 39.44 59.0539 37.3396 57.9726 35.5542L47.0201 35.0641C47.3341 33.4888 45.9389 32.0535 44.8924 31.2484C44.9273 31.8785 45.0668 39.335 40.1487 41.2604C40.1487 41.9955 40.1836 42.7657 40.2882 43.5008C40.3231 43.7108 40.358 43.9209 40.3929 44.1309C40.079 44.1309 39.765 44.0959 39.486 44.0609C35.7538 43.6058 33.94 35.3792 37.4629 31.4584Z" fill="#000091"/>
<path fill-rule="evenodd" clip-rule="evenodd" d="M61.1707 43.5144C63.3564 43.1329 65.3847 45.418 65.9112 48.426C66.4374 51.4321 65.297 54.2738 63.1089 54.6557C63.076 54.6614 63.0429 54.6653 63.0096 54.6672L62.9595 54.6686H62.8898C62.4082 54.6686 62.0178 54.2768 62.0178 53.7935C62.0178 53.3295 62.3776 52.9498 62.8324 52.9202L62.8695 52.9186L62.9185 52.9058C63.8653 52.6257 64.5353 50.8913 64.2128 48.845L64.1935 48.7289C63.819 46.5896 62.5367 45.1142 61.5245 45.2309L61.4696 45.2388C60.9951 45.3216 60.5436 45.0027 60.461 44.5265C60.3785 44.0503 60.6963 43.5972 61.1707 43.5144Z" fill="#F95C5E"/>
<path fill-rule="evenodd" clip-rule="evenodd" d="M39.0579 44.7059C41.2436 44.3244 43.2719 46.6095 43.7984 49.6175C44.3246 52.6236 43.1842 55.4653 40.9961 55.8472C40.9633 55.8529 40.9301 55.8568 40.8968 55.8587L40.8467 55.8601H40.777C40.2954 55.8601 39.905 55.4683 39.905 54.985C39.905 54.521 40.2648 54.1413 40.7196 54.1117L40.7557 54.1105L40.8057 54.0973C41.7525 53.8172 42.4225 52.0828 42.1 50.0365L42.0807 49.9204C41.7062 47.7811 40.4239 46.3057 39.4117 46.4224L39.3568 46.4303C38.8823 46.5131 38.4308 46.1942 38.3482 45.718C38.2657 45.2418 38.5835 44.7887 39.0579 44.7059Z" fill="#F95C5E"/>
<path fill-rule="evenodd" clip-rule="evenodd" d="M71.7516 61.2145C69.7285 59.5691 68.0194 57.9938 67.0079 56.6636C66.1358 55.6133 65.4034 54.8082 64.8104 54.1431C63.3803 52.6027 61.3572 51.7276 59.2644 51.7626C57.6599 51.7626 55.7764 51.8326 54.9044 52.0776C53.1603 52.5677 47.4051 54.073 47.6841 54.9832C47.8585 55.6133 50.9629 55.4733 52.5325 55.3333L55.2532 59.3941C55.2532 59.3941 56.6833 59.079 57.4855 59.2191C59.1249 59.4991 60.9038 60.2693 61.8456 59.8142C61.8456 59.8142 62.9268 62.1947 65.1592 65.5203" fill="white"/>
<path fill-rule="evenodd" clip-rule="evenodd" d="M58.8809 50.8898L59.249 50.8887C61.5841 50.8496 63.8457 51.8224 65.4594 53.5606L66.292 54.4938C66.3478 54.5567 66.4022 54.6183 66.4568 54.6803C66.7986 55.0683 67.118 55.4381 67.4371 55.8176L67.6769 56.1044L67.7002 56.1338C68.5955 57.3112 70.1523 58.7892 72.2997 60.5357C72.6739 60.84 72.7314 61.3911 72.4282 61.7666C72.125 62.1421 71.5759 62.1999 71.2017 61.8956C69.0234 60.124 67.4123 58.6034 66.4063 57.3157L66.3275 57.2136L66.1043 56.9464C65.8717 56.67 65.6389 56.3985 65.3964 56.1204L65.0698 55.7485L64.1715 54.7408C62.9387 53.413 61.2111 52.6489 59.4097 52.6381L58.9327 52.6399C57.242 52.6503 55.8506 52.7407 55.1993 52.9054L53.6952 53.3234C53.0863 53.4953 52.5362 53.6561 52.0155 53.8161L51.794 53.8847C51.0837 54.1064 50.4614 54.3176 49.9388 54.5173L49.7855 54.5765L49.8028 54.5772C50.534 54.5869 51.4125 54.5486 52.2324 54.4817L52.4544 54.4627C52.7499 54.4363 53.0369 54.5625 53.2181 54.7947L53.2552 54.8461L55.6569 58.4312L55.6954 58.425C55.921 58.3898 56.1443 58.3612 56.3612 58.3411L56.5759 58.324C56.9756 58.2975 57.3281 58.3046 57.6309 58.3574C57.8206 58.3898 58.0168 58.429 58.228 58.4759L58.5311 58.546C58.6503 58.5745 58.7748 58.6053 58.9243 58.6432L59.4697 58.7815C60.6949 59.086 61.1819 59.1469 61.4432 59.0372L61.4664 59.0268C61.8891 58.8225 62.3932 58.9913 62.6122 59.4L62.7498 59.6874L62.8294 59.8497C62.9948 60.1838 63.1949 60.5699 63.4299 61.0022C64.104 62.2426 64.9206 63.601 65.8815 65.0325C66.1506 65.4334 66.0449 65.9772 65.6455 66.2473C65.2461 66.5174 64.7042 66.4113 64.4351 66.0105C63.5089 64.6306 62.7114 63.3147 62.0406 62.0993L61.8988 61.8404C61.7759 61.6143 61.6619 61.3998 61.5568 61.1976L61.3769 60.847L61.3349 60.8506C60.7973 60.8866 60.1238 60.7519 58.9582 60.4577L58.2663 60.2825C58.1946 60.2649 58.1278 60.2488 58.062 60.2333L57.9964 60.2179C57.7535 60.1615 57.5386 60.1172 57.3352 60.0824C57.189 60.0569 56.9643 60.0524 56.691 60.0705C56.4644 60.0856 56.217 60.115 55.9634 60.1546C55.8722 60.1688 55.7842 60.1837 55.7009 60.1988L55.4392 60.2501C55.1101 60.3226 54.7709 60.1981 54.5655 59.9346L54.5286 59.8836L52.0928 56.2478L51.8317 56.266C51.1317 56.3116 50.4195 56.3354 49.7923 56.3275L49.5613 56.3231L49.2114 56.3111C47.79 56.2499 47.0704 56.0399 46.8498 55.2417C46.6451 54.574 46.9944 54.1054 47.5998 53.7007C47.9427 53.4714 48.4141 53.242 49.0148 53.0004C49.5907 52.7687 50.2804 52.5281 51.0753 52.2764L51.2762 52.2133C51.8041 52.0485 52.3551 51.8854 52.9603 51.7129L54.6683 51.236C55.4876 51.0058 57.0024 50.9015 58.8809 50.8898Z" fill="#000091"/>
<path fill-rule="evenodd" clip-rule="evenodd" d="M55.4975 53.3736C55.4975 53.3736 51.6258 55.299 51.8002 56.7693C51.9746 58.2396 53.1256 57.9245 53.1256 57.9245" fill="white"/>
<path fill-rule="evenodd" clip-rule="evenodd" d="M55.1097 52.5907C55.5412 52.3761 56.0644 52.5533 56.2782 52.9863C56.4831 53.4014 56.3295 53.9009 55.9366 54.1307L55.867 54.1676L55.7421 54.2322C55.6228 54.295 55.4891 54.3675 55.3448 54.4487C54.933 54.6805 54.5216 54.9336 54.1412 55.1976C53.5149 55.6322 53.0428 56.0501 52.8028 56.395C52.6951 56.5499 52.6627 56.6443 52.6654 56.6671C52.6876 56.8541 52.7278 56.9721 52.7716 57.0375C52.7863 57.0594 52.7924 57.0644 52.8012 57.0683C52.8196 57.0764 52.8528 57.0801 52.8858 57.0787L52.9181 57.0756C52.9187 57.0755 52.912 57.077 52.8955 57.0815C53.3601 56.9543 53.8395 57.2292 53.9662 57.6955C54.093 58.1619 53.819 58.643 53.3544 58.7702C53.312 58.7818 53.2571 58.7939 53.1908 58.8044C52.8481 58.8589 52.4757 58.8362 52.1013 58.6715C51.4567 58.3881 51.0394 57.7657 50.9336 56.874C50.8728 56.3615 51.0418 55.8689 51.3728 55.3931C51.7573 54.8404 52.3667 54.301 53.1494 53.7579C53.579 53.4597 54.0356 53.1788 54.4917 52.9221L54.7219 52.7945C54.8874 52.7042 55.0199 52.6354 55.1097 52.5907Z" fill="#000091"/>
<path fill-rule="evenodd" clip-rule="evenodd" d="M56.1931 54.9485C56.1931 54.9485 52.8795 56.9439 53.1585 58.4142C53.4376 59.8495 54.5886 59.4644 54.5886 59.4644" fill="white"/>
<path fill-rule="evenodd" clip-rule="evenodd" d="M55.7463 54.1993C56.1593 53.9506 56.6949 54.085 56.9427 54.4995C57.1802 54.8967 57.0671 55.407 56.6938 55.6677L56.5307 55.7708C56.4339 55.8323 56.3253 55.9037 56.208 55.9836C55.8729 56.2119 55.5381 56.4611 55.2288 56.7208C54.723 57.1453 54.3421 57.5521 54.1445 57.8919C54.0376 58.0759 54.0067 58.1976 54.0162 58.2479C54.0492 58.4173 54.0942 58.5257 54.1405 58.5879C54.1589 58.6126 54.1698 58.621 54.1826 58.6264C54.2071 58.6367 54.2502 58.64 54.2944 58.6354L54.3275 58.6305C54.3338 58.6292 54.3307 58.63 54.3147 58.6354C54.7716 58.4826 55.2654 58.7304 55.4177 59.1889C55.57 59.6475 55.3231 60.1431 54.8662 60.2959C54.8151 60.313 54.7473 60.3315 54.6644 60.3478C54.2991 60.42 53.9042 60.4073 53.5079 60.2405C52.8905 59.9805 52.4652 59.4095 52.3038 58.5792C52.2038 58.0526 52.3373 57.5275 52.6381 57.01C52.9568 56.4616 53.4629 55.9212 54.1099 55.3781C54.4681 55.0775 54.8484 54.7943 55.2285 54.5354L55.3736 54.4376C55.534 54.3309 55.6619 54.2502 55.7463 54.1993Z" fill="#000091"/>
<path fill-rule="evenodd" clip-rule="evenodd" d="M57.1361 56.8738C57.1361 56.8738 53.1946 59.3593 55.3572 60.3045C57.5198 61.2497 58.2872 60.7946 58.2872 60.7946C58.2872 60.7946 59.194 59.6394 56.9268 59.1493" fill="white"/>
<path fill-rule="evenodd" clip-rule="evenodd" d="M56.6713 56.1341C57.079 55.8769 57.6173 56.0002 57.8735 56.4095C58.1298 56.8188 58.0069 57.359 57.5991 57.6161L57.4638 57.7049C57.4062 57.7438 57.3368 57.7915 57.2582 57.8471C57.1002 57.9588 56.9423 58.0763 56.7888 58.1975L56.6263 58.3286L56.6713 58.3133C56.7917 58.2764 56.9216 58.2651 57.0531 58.2847L57.1095 58.295C58.0619 58.5009 58.7089 58.8507 59.0619 59.3761C59.4302 59.9243 59.4051 60.5124 59.1627 61.0219C59.0987 61.1564 59.0309 61.2615 58.9712 61.3375C58.9045 61.4225 58.8226 61.4943 58.7298 61.5493C58.6391 61.6032 58.5175 61.6547 58.3646 61.6959C57.6033 61.901 56.5013 61.7608 55.0081 61.1082C53.6975 60.5354 53.5336 59.368 54.2706 58.2784C54.5334 57.8897 54.9025 57.504 55.354 57.1154C55.6424 56.8673 55.9482 56.6323 56.2536 56.4163L56.3842 56.3251C56.5068 56.2404 56.6051 56.1758 56.6713 56.1341ZM56.1452 58.758C55.9623 58.939 55.8157 59.1084 55.7128 59.2605C55.6788 59.3108 55.6527 59.3542 55.6329 59.3897L55.6004 59.4511L55.6045 59.4534C55.6215 59.4632 55.6417 59.4738 55.6655 59.4851L55.7037 59.5025C55.8814 59.5802 56.0506 59.6485 56.2114 59.7079L56.2718 59.7298L56.2391 59.69C56.0958 59.5066 56.0262 59.2672 56.0624 59.0221L56.0727 58.9654C56.0848 58.9087 56.1022 58.8545 56.1242 58.8031L56.1452 58.758Z" fill="#000091"/>
<path fill-rule="evenodd" clip-rule="evenodd" d="M86.5748 83.3062C84.0983 77.7401 76.3549 59.1864 73.0412 56.9109L62.019 64.0524L76.7386 95.5587C80.68 92.093 84.0286 87.9621 86.5748 83.3062Z" fill="#F95C5E"/>
<path fill-rule="evenodd" clip-rule="evenodd" d="M35.8903 77.4365C36.0758 76.9904 36.5864 76.7796 37.0309 76.9657C37.4568 77.1441 37.6674 77.6222 37.521 78.0543L37.4999 78.1104L33.4237 87.916L58.5127 88.4157C58.9749 88.4249 59.346 88.7935 59.3665 89.2505L59.3672 89.3081C59.358 89.772 58.9908 90.1445 58.5354 90.165L58.4781 90.1657L32.1085 89.6406C31.5128 89.6288 31.11 89.0371 31.3007 88.4822L31.321 88.4287L35.8903 77.4365Z" fill="#000091"/>
<path fill-rule="evenodd" clip-rule="evenodd" d="M56.4719 68.6011C55.9487 68.6011 55.4953 69.0212 55.3906 69.5813L50.5422 95.4164L44.1591 95.3814C44.1591 95.3814 43.3569 100.667 48.7285 100.632C49.3563 100.632 59.2275 100.667 69.7265 100.702C81.2021 93.9111 89.4687 82.2538 91.6662 68.5661L56.4719 68.6011Z" fill="#000091"/>
<path fill-rule="evenodd" clip-rule="evenodd" d="M46.949 13.9904C21.0198 13.9904 0 35.0865 0 61.1098C0 87.1331 21.0198 108.229 46.949 108.229C72.8782 108.229 93.898 87.1331 93.898 61.1098C93.898 35.0865 72.8782 13.9904 46.949 13.9904ZM46.9495 16.4414C71.5303 16.4414 91.4569 36.4404 91.4569 61.1103C91.4569 85.7803 71.5303 105.779 46.9495 105.779C22.3688 105.779 2.44214 85.7803 2.44214 61.1103C2.44214 36.4404 22.3688 16.4414 46.9495 16.4414Z" fill="#F95C5E"/>
<path fill-rule="evenodd" clip-rule="evenodd" d="M37.6362 29.1843C40.9848 26.2787 42.2405 12.2759 31.881 3.76921C21.382 -4.84251 13.9873 5.41454 12.3828 8.07507C10.7783 10.7356 9.9761 17.807 18.9404 23.6882C27.9046 29.5694 33.7994 32.5099 37.6362 29.1843Z" fill="#000091"/>
<path fill-rule="evenodd" clip-rule="evenodd" d="M36.7999 32.0187L36.0674 31.1435C35.021 29.9182 35.1954 28.1329 36.4511 27.1877L36.6604 27.0127C37.9161 26.0675 39.7647 26.2775 40.8111 27.5028L41.8924 28.763C39.8694 29.5332 38.0556 30.6534 36.7999 32.0187Z" fill="#F95C5E"/>
<path fill-rule="evenodd" clip-rule="evenodd" d="M73.9136 28.6585C74.1229 29.0085 74.3321 29.3586 74.5414 29.7087C75.2739 30.8289 77.4365 34.4696 77.4365 38.0753V42.7663C77.4365 44.6567 78.9712 46.197 80.8548 46.197H85.0753C86.9588 46.197 88.4936 44.6567 88.4936 42.7663V38.0753C88.4936 33.7345 92.0863 29.1836 92.0863 29.1836L93.0978 27.3282C93.7256 25.8579 94.0396 24.2126 93.9349 22.4972C93.6559 17.0712 89.2958 12.6253 83.8894 12.2402C77.576 11.8201 72.3091 16.8261 72.3091 23.0573C72.3091 24.6677 72.6579 26.243 73.3206 27.6083L73.9136 28.6585Z" fill="white"/>
<path fill-rule="evenodd" clip-rule="evenodd" d="M71.2615 23.06C71.2615 24.8294 71.6461 26.5618 72.3787 28.0709L72.409 28.1287L73.002 29.1789L73.6429 30.2517L73.6654 30.2876C75.1791 32.6026 76.3889 35.4747 76.3889 38.078V42.769C76.3889 45.2394 78.3921 47.2499 80.8536 47.2499H85.0741C87.5356 47.2499 89.5388 45.2394 89.5388 42.769V38.078C89.5388 37.9134 89.5448 37.746 89.5566 37.5759C89.6663 36.0005 90.2691 34.2625 91.2108 32.5008C91.585 31.8008 91.9866 31.1465 92.3876 30.5579C92.4713 30.4349 92.5512 30.3204 92.6266 30.2149L92.8309 29.9357C92.8659 29.8891 92.891 29.8565 92.9052 29.8385C92.9419 29.792 92.9747 29.7424 93.003 29.6904L94.0146 27.835C94.0306 27.8056 94.0452 27.7754 94.0584 27.7446C94.7683 26.0821 95.0902 24.2714 94.9782 22.4358C94.6725 16.4916 89.8975 11.6181 83.9622 11.1953C77.0697 10.7367 71.2615 16.1918 71.2615 23.06ZM83.8191 13.2912C88.6963 13.6386 92.6372 17.6608 92.8889 22.5544L92.8989 22.7519C92.955 24.1326 92.7157 25.484 92.2091 26.739L92.1526 26.8751L91.2083 28.6069L91.0698 28.792C90.9568 28.9457 90.8183 29.1405 90.66 29.3729C90.2189 30.0204 89.7785 30.7379 89.3668 31.5082C88.2973 33.5091 87.6027 35.5119 87.4691 37.4298C87.4539 37.648 87.4461 37.8643 87.4461 38.0784V42.7694C87.4461 44.0797 86.3799 45.1498 85.0743 45.1498H80.8538C79.5481 45.1498 78.4819 44.0797 78.4819 42.7694V38.0784L78.48 37.8752C78.4244 34.8927 77.1554 31.8461 75.5268 29.3078L75.4278 29.1551L74.8098 28.1212L74.246 27.1216L74.2603 27.1514C73.6692 25.9337 73.3545 24.5162 73.3545 23.0604C73.3545 17.4069 78.139 12.9132 83.8191 13.2912Z" fill="#000091"/>
<path fill-rule="evenodd" clip-rule="evenodd" d="M87.3071 20.189C88.8531 20.189 90.133 21.396 90.232 22.9343L90.2364 23.0234L90.237 23.0596C90.237 24.1907 89.6002 25.204 88.6314 25.7051L88.5153 25.7628L88.4907 25.7785C88.2032 25.9506 87.876 26.0586 87.513 26.1232L87.3907 26.1431C86.9837 26.2036 86.5717 26.2093 86.1885 26.1842L86.058 26.1738L85.6995 26.1644L85.6942 26.2154C85.6463 26.6692 85.6046 27.1594 85.571 27.6824L85.544 28.1366C85.4124 30.5109 85.414 32.982 85.4931 37.1122C85.5042 37.6921 85.0448 38.1713 84.467 38.1824C83.8892 38.1936 83.4118 37.7325 83.4007 37.1526L83.3708 35.4241C83.3206 32.0835 83.3403 29.8994 83.4722 27.7133C83.4969 27.3035 83.5247 26.912 83.5562 26.5385L83.5944 26.1091L82.5522 26.0814L82.5588 26.2622C82.5712 26.6856 82.5634 27.0849 82.5362 27.4303L82.5285 27.5163V37.0974C82.5285 37.6567 82.0929 38.1139 81.5436 38.1458L81.4821 38.1476C80.9248 38.1476 80.4693 37.7104 80.4374 37.1591L80.4357 37.0974V27.4705L80.437 27.4182L80.4409 27.366C80.4819 26.954 80.4889 26.5094 80.4673 26.0621L80.465 26.0254L79.514 26.0054L78.99 26.0008L78.308 26.0002C78.2509 26.0002 78.194 25.9955 78.1378 25.9862L78.0542 25.9688L77.9043 25.9312C76.6302 25.5976 75.7268 24.4364 75.7268 23.0946C75.7268 21.4994 77.0324 20.189 78.6219 20.189C78.8185 20.189 79.0131 20.2252 79.2535 20.2883C79.3098 20.303 79.3673 20.3191 79.4259 20.3363L79.6408 20.4027L79.7311 20.4327L79.7371 20.434C81.0739 20.7221 81.8437 21.9475 82.2501 23.7182L82.2778 23.8427L82.3049 23.9733L83.8815 24.0156L83.886 23.9942C84.1932 22.4142 84.6658 21.3915 85.4095 20.8935L85.4742 20.838C85.9805 20.4202 86.6183 20.189 87.3071 20.189ZM87.3068 22.2896C87.1177 22.2896 86.9577 22.343 86.8283 22.4407L86.7911 22.4721C86.741 22.5224 86.686 22.5674 86.6269 22.6064L86.5666 22.6435C86.4061 22.7346 86.2303 23.1546 86.0678 23.846L86.0169 24.0718L86.1922 24.0774L86.3247 24.0884C86.5725 24.1047 86.8461 24.1009 87.0837 24.0656C87.2388 24.0425 87.3531 24.0087 87.4067 23.9813L87.4792 23.9368L87.5365 23.9058L87.6262 23.861C87.9239 23.7195 88.1185 23.4399 88.1416 23.1235L88.1433 23.0787L88.1408 23.0406C88.0999 22.6378 87.7689 22.3185 87.3627 22.2915L87.3068 22.2896ZM78.5948 22.2917L78.5682 22.2929C78.1583 22.3219 77.8198 22.6791 77.8198 23.0961C77.8198 23.4564 78.0482 23.7701 78.3655 23.8803L78.4224 23.8976L78.4375 23.9013L79.1417 23.9026L79.8005 23.911L80.1411 23.9184L80.1221 23.8503C79.9134 23.1198 79.6295 22.5878 79.3147 22.4941L79.2752 22.4846C79.238 22.478 79.2011 22.4693 79.1649 22.4586L78.9953 22.4022C78.9641 22.3921 78.9298 22.3813 78.8936 22.3703L78.7796 22.3369L78.7243 22.3219C78.6858 22.3118 78.6515 22.3036 78.6232 22.2976L78.5948 22.2917Z" fill="#000091"/>
<path fill-rule="evenodd" clip-rule="evenodd" d="M88.5266 36.7132C89.1045 36.7132 89.573 37.1834 89.573 37.7634C89.573 38.3227 89.1373 38.7799 88.588 38.8118L88.5266 38.8136H77.4346C76.8567 38.8136 76.3882 38.3434 76.3882 37.7634C76.3882 37.2041 76.8238 36.7469 77.3731 36.715L77.4346 36.7132H88.5266Z" fill="#000091"/>
<path fill-rule="evenodd" clip-rule="evenodd" d="M88.5266 39.3394C89.1045 39.3394 89.573 39.8096 89.573 40.3896C89.573 40.9489 89.1373 41.4061 88.588 41.4381L88.5266 41.4398H77.4346C76.8567 41.4398 76.3882 40.9696 76.3882 40.3896C76.3882 39.8303 76.8238 39.3731 77.3731 39.3412L77.4346 39.3394H88.5266Z" fill="#000091"/>
<path fill-rule="evenodd" clip-rule="evenodd" d="M88.5266 41.9615C89.1045 41.9615 89.573 42.4317 89.573 43.0117C89.573 43.571 89.1373 44.0282 88.588 44.0602L88.5266 44.0619H77.4346C76.8567 44.0619 76.3882 43.5917 76.3882 43.0117C76.3882 42.4524 76.8238 41.9952 77.3731 41.9633L77.4346 41.9615H88.5266Z" fill="#000091"/>
</svg>
