<svg width="96" height="96" viewBox="0 0 96 96" fill="none" xmlns="http://www.w3.org/2000/svg">
<path fill-rule="evenodd" clip-rule="evenodd" d="M47.9996 94.7416C73.5448 94.7416 94.2533 74.0331 94.2533 48.4878C94.2533 22.9426 73.5448 2.23407 47.9996 2.23407C22.4544 2.23407 1.74585 22.9426 1.74585 48.4878C1.74585 74.0331 22.4544 94.7416 47.9996 94.7416Z" fill="white"/>
<path fill-rule="evenodd" clip-rule="evenodd" d="M54.3021 34.5312H3.88228C2.4936 38.9465 1.74585 43.6467 1.74585 48.4893C1.74585 64.0496 9.437 77.794 21.1874 86.1973H54.3021C56.4385 86.1973 58.2189 84.4525 58.2189 82.2805V38.448C58.2189 36.276 56.4741 34.5312 54.3021 34.5312Z" fill="#F95C5E"/>
<path fill-rule="evenodd" clip-rule="evenodd" d="M47.3587 38.5555H2.81407C2.10192 41.7601 1.74585 45.0716 1.74585 48.4899C1.74585 61.0236 6.73086 72.4179 14.8493 80.75H47.3587C49.5307 80.75 51.2755 79.0053 51.2755 76.8332V42.4723C51.2755 40.3002 49.5307 38.5555 47.3587 38.5555Z" fill="white"/>
<path fill-rule="evenodd" clip-rule="evenodd" d="M54.8362 34.958C55.3082 34.958 55.6944 35.3253 55.7245 35.7897L55.7264 35.8482V84.5232C55.7264 85.0149 55.3279 85.4134 54.8362 85.4134C54.3643 85.4134 53.9781 85.0461 53.9479 84.5818L53.946 84.5232V35.8482C53.946 35.3566 54.3446 34.958 54.8362 34.958Z" fill="#000091"/>
<path fill-rule="evenodd" clip-rule="evenodd" d="M47.3943 40.869C47.8662 40.869 48.2524 41.2363 48.2826 41.7007L48.2845 41.7592V80.1438C48.2845 80.6354 47.8859 81.0339 47.3943 81.0339C46.9223 81.0339 46.5361 80.6666 46.506 80.2023L46.5041 80.1438V42.6494H14.2436L14.244 79.4672C14.244 79.9392 13.8767 80.3254 13.4123 80.3555L13.3538 80.3574C12.8818 80.3574 12.4957 79.9901 12.4655 79.5258L12.4636 79.4672V41.7592C12.4636 41.2872 12.8309 40.9011 13.2953 40.8709L13.3538 40.869H47.3943Z" fill="#000091"/>
<path fill-rule="evenodd" clip-rule="evenodd" d="M26.9194 44.4302H17.3055C16.8138 44.4302 16.4153 44.8287 16.4153 45.3204V48.4894C16.4153 48.981 16.8138 49.3796 17.3055 49.3796H26.9194C27.411 49.3796 27.8096 48.981 27.8096 48.4894V45.3204C27.8096 44.8287 27.411 44.4302 26.9194 44.4302ZM26.0285 46.2098V47.5985H18.1949V46.2098H26.0285Z" fill="#000091"/>
<path fill-rule="evenodd" clip-rule="evenodd" d="M26.9194 51.8357C27.411 51.8357 27.8096 52.2342 27.8096 52.7259C27.8096 53.1978 27.4423 53.584 26.9779 53.6142L26.9194 53.6161H17.3055C16.8138 53.6161 16.4153 53.2175 16.4153 52.7259C16.4153 52.2539 16.7826 51.8677 17.2469 51.8376L17.3055 51.8357H26.9194Z" fill="#000091"/>
<path fill-rule="evenodd" clip-rule="evenodd" d="M25.5303 54.3999C26.0219 54.3999 26.4204 54.7984 26.4204 55.2901C26.4204 55.7621 26.0531 56.1482 25.5888 56.1784L25.5303 56.1803H19.1922C18.7005 56.1803 18.302 55.7817 18.302 55.2901C18.302 54.8181 18.6693 54.4319 19.1337 54.4018L19.1922 54.3999H25.5303Z" fill="#000091"/>
<path fill-rule="evenodd" clip-rule="evenodd" d="M22.5393 56.8224C23.0309 56.8224 23.4294 57.2209 23.4294 57.7126C23.4294 58.1845 23.0621 58.5707 22.5978 58.6009L22.5393 58.6027H19.1922C18.7005 58.6027 18.302 58.2042 18.302 57.7126C18.302 57.2406 18.6693 56.8544 19.1337 56.8243L19.1922 56.8224H22.5393Z" fill="#000091"/>
<path fill-rule="evenodd" clip-rule="evenodd" d="M21.3286 59.2413C21.8202 59.2413 22.2188 59.6398 22.2188 60.1315C22.2188 60.6034 21.8515 60.9896 21.3871 61.0197L21.3286 61.0216H19.1922C18.7005 61.0216 18.302 60.6231 18.302 60.1315C18.302 59.6595 18.6693 59.2733 19.1337 59.2432L19.1922 59.2413H21.3286Z" fill="#000091"/>
<path fill-rule="evenodd" clip-rule="evenodd" d="M24.462 61.7001C24.9537 61.7001 25.3522 62.0987 25.3522 62.5903C25.3522 63.0623 24.9849 63.4485 24.5206 63.4786L24.462 63.4805H19.1922C18.7005 63.4805 18.302 63.0819 18.302 62.5903C18.302 62.1183 18.6693 61.7322 19.1337 61.702L19.1922 61.7001H24.462Z" fill="#000091"/>
<path fill-rule="evenodd" clip-rule="evenodd" d="M26.9194 64.4404C27.411 64.4404 27.8096 64.839 27.8096 65.3306C27.8096 65.8026 27.4423 66.1888 26.9779 66.2189L26.9194 66.2208H17.3055C16.8138 66.2208 16.4153 65.8222 16.4153 65.3306C16.4153 64.8586 16.7826 64.4725 17.2469 64.4423L17.3055 64.4404H26.9194Z" fill="#000091"/>
<path fill-rule="evenodd" clip-rule="evenodd" d="M25.5303 67.0046C26.0219 67.0046 26.4204 67.4031 26.4204 67.8948C26.4204 68.3667 26.0531 68.7529 25.5888 68.783L25.5303 68.7849H19.1922C18.7005 68.7849 18.302 68.3864 18.302 67.8948C18.302 67.4228 18.6693 67.0366 19.1337 67.0065L19.1922 67.0046H25.5303Z" fill="#000091"/>
<path fill-rule="evenodd" clip-rule="evenodd" d="M22.5393 69.4253C23.0309 69.4253 23.4294 69.8238 23.4294 70.3155C23.4294 70.7874 23.0621 71.1736 22.5978 71.2038L22.5393 71.2057H19.1922C18.7005 71.2057 18.302 70.8071 18.302 70.3155C18.302 69.8435 18.6693 69.4573 19.1337 69.4272L19.1922 69.4253H22.5393Z" fill="#000091"/>
<path fill-rule="evenodd" clip-rule="evenodd" d="M43.7279 50.8043H29.5562C29.0646 50.8043 28.666 51.2028 28.666 51.6944V63.0531C28.666 63.5448 29.0646 63.9433 29.5562 63.9433H43.7279C44.2195 63.9433 44.618 63.5448 44.618 63.0531V51.6944C44.618 51.2028 44.2195 50.8043 43.7279 50.8043ZM42.837 52.5839V62.1623H30.4457V52.5839H42.837Z" fill="#000091"/>
<path fill-rule="evenodd" clip-rule="evenodd" d="M33.3642 64.8326H29.5542C29.0626 64.8326 28.6641 65.2312 28.6641 65.7228V69.5328C28.6641 70.0244 29.0626 70.423 29.5542 70.423H33.3642C33.8558 70.423 34.2544 70.0244 34.2544 69.5328V65.7228C34.2544 65.2312 33.8558 64.8326 33.3642 64.8326ZM32.4733 66.6141V68.6437H30.4437V66.6141H32.4733Z" fill="#000091"/>
<path fill-rule="evenodd" clip-rule="evenodd" d="M38.5271 64.8326H34.7171C34.2255 64.8326 33.8269 65.2312 33.8269 65.7228V69.5328C33.8269 70.0244 34.2255 70.423 34.7171 70.423H38.5271C39.0187 70.423 39.4172 70.0244 39.4172 69.5328V65.7228C39.4172 65.2312 39.0187 64.8326 38.5271 64.8326ZM37.6362 66.6141V68.6437H35.6066V66.6141H37.6362Z" fill="#000091"/>
<path fill-rule="evenodd" clip-rule="evenodd" d="M43.7263 64.8326H39.9163C39.4247 64.8326 39.0261 65.2312 39.0261 65.7228V69.5328C39.0261 70.0244 39.4247 70.423 39.9163 70.423H43.7263C44.2179 70.423 44.6165 70.0244 44.6165 69.5328V65.7228C44.6165 65.2312 44.2179 64.8326 43.7263 64.8326ZM42.8354 66.6141V68.6437H40.8058V66.6141H42.8354Z" fill="#000091"/>
<path fill-rule="evenodd" clip-rule="evenodd" d="M34.0071 46.4586C34.4987 46.4586 34.8973 46.8572 34.8973 47.3488C34.8973 47.8208 34.53 48.2069 34.0656 48.2371L34.0071 48.239H29.5562C29.0646 48.239 28.666 47.8404 28.666 47.3488C28.666 46.8768 29.0333 46.4907 29.4977 46.4605L29.5562 46.4586H34.0071Z" fill="#000091"/>
<path fill-rule="evenodd" clip-rule="evenodd" d="M43.4417 46.4586C43.9333 46.4586 44.3319 46.8572 44.3319 47.3488C44.3319 47.8208 43.9646 48.2069 43.5002 48.2371L43.4417 48.239H37.3885C36.8968 48.239 36.4983 47.8404 36.4983 47.3488C36.4983 46.8768 36.8656 46.4907 37.3299 46.4605L37.3885 46.4586H43.4417Z" fill="#000091"/>
<path fill-rule="evenodd" clip-rule="evenodd" d="M43.9059 71.205H29.5562C29.0646 71.205 28.666 71.6035 28.666 72.0951V78.8961C28.666 79.3877 29.0646 79.7863 29.5562 79.7863H43.9059C44.3975 79.7863 44.7961 79.3877 44.7961 78.8961V72.0951C44.7961 71.6035 44.3975 71.205 43.9059 71.205ZM43.015 72.9846V78.0052H30.4457V72.9846H43.015Z" fill="#000091"/>
<path fill-rule="evenodd" clip-rule="evenodd" d="M8.11913 40.869C8.59109 40.869 8.97727 41.2363 9.00741 41.7007L9.00931 41.7592V70.3162C9.00931 70.8078 8.61076 71.2064 8.11913 71.2064C7.64716 71.2064 7.26098 70.8391 7.23084 70.3747L7.22894 70.3162L7.22859 42.6494H2.70683C2.23486 42.6494 1.84868 42.2821 1.81854 41.8177L1.81665 41.7592C1.81665 41.2872 2.18395 40.9011 2.6483 40.8709L2.70683 40.869H8.11913Z" fill="#000091"/>
<path fill-rule="evenodd" clip-rule="evenodd" d="M57.8997 49.1646L62.9559 54.0427L75.3472 51.0161L64.6294 42.1855L57.8997 49.1646Z" fill="white"/>
<path fill-rule="evenodd" clip-rule="evenodd" d="M63.9889 41.568L57.2592 48.547C56.918 48.9008 56.9281 49.4643 57.2819 49.8055L62.3381 54.6837C62.5578 54.8957 62.8708 54.9803 63.1674 54.9079L75.5587 51.8812C76.2707 51.7073 76.4792 50.7955 75.9135 50.3295L65.1958 41.4989C64.8371 41.2034 64.3115 41.2335 63.9889 41.568ZM64.6985 43.395L73.4095 50.572L63.2209 53.0606L59.1581 49.1409L64.6985 43.395Z" fill="#000091"/>
<path fill-rule="evenodd" clip-rule="evenodd" d="M89.8045 68.3578L85.7453 57.0703C83.7513 51.5156 77.8761 48.3822 72.1433 49.8064C69.1879 50.5542 65.556 51.5868 61.3188 53.1179C47.1471 58.1385 51.5268 70.4586 52.1321 75.1232L72.1789 72.1678L70.0781 85.6985H75.526C81.5792 81.1764 86.5286 75.23 89.8045 68.3578Z" fill="#6A6AF4"/>
<path fill-rule="evenodd" clip-rule="evenodd" d="M47.5374 38.5546C47.5731 40.7266 48.9617 50.7322 55.9407 51.0171C62.9198 51.3019 67.1926 44.7146 67.4775 38.1985C67.7623 31.6824 64.5221 26.4481 60.1068 26.1633C55.6915 25.8784 47.1814 22.7806 47.5374 38.5546Z" fill="white"/>
<path fill-rule="evenodd" clip-rule="evenodd" d="M55.0891 24.8436C49.4917 24.9438 46.4882 28.7419 46.6424 38.2826L46.6479 38.568C46.6785 40.4346 47.2638 43.425 48.3198 45.848C49.908 49.4922 52.4028 51.7624 55.905 51.9054C62.9106 52.1913 68.0321 45.9049 68.3673 38.2362C68.6671 31.378 65.23 25.7104 60.314 25.2851L59.7946 25.2458C59.6953 25.2367 59.5865 25.2254 59.4471 25.2096L57.9607 25.0296C56.7461 24.8856 55.9571 24.8281 55.0891 24.8436ZM57.7618 26.7982L59.327 26.9871C59.4658 27.0025 59.5766 27.0136 59.6819 27.0227L60.0492 27.0497C63.9094 27.2987 66.8531 32.0897 66.5878 38.1577C66.2913 44.9399 61.8706 50.3663 55.9767 50.1257C53.2696 50.0152 51.2941 48.2176 49.9511 45.136C49.0224 43.0052 48.4863 40.3425 48.4309 38.6859L48.4271 38.5326C48.3175 33.6777 49.0529 30.4914 50.468 28.6684C51.5388 27.289 52.9866 26.69 54.9668 26.6267L55.1201 26.6229C55.8908 26.6091 56.6169 26.6623 57.7618 26.7982Z" fill="#000091"/>
<rect x="67.7673" y="17.8623" width="2.49251" height="4.41531" transform="rotate(19.0564 67.7673 17.8623)" fill="#F95C5E"/>
<path fill-rule="evenodd" clip-rule="evenodd" d="M70.3613 19.469C72.7998 19.469 74.7766 17.4922 74.7766 15.0537C74.7766 12.6152 72.7998 10.6384 70.3613 10.6384C67.9228 10.6384 65.946 12.6152 65.946 15.0537C65.946 17.4922 67.9228 19.469 70.3613 19.469Z" fill="#000091"/>
<path fill-rule="evenodd" clip-rule="evenodd" d="M66.8005 20.6797C62.9549 19.2198 58.7889 18.4365 54.9789 19.7183C43.5134 24.2048 43.0149 32.6437 47.537 36.7386C47.6794 30.7566 49.2818 27.908 51.4182 26.6617C53.4834 30.3649 60.5692 33.8544 67.2278 34.2817C67.2278 34.3529 67.2634 34.3885 67.2634 34.4597C69.115 34.3173 71.9635 34.6377 71.9991 37.878C72.0348 42.3645 67.5126 41.866 66.9429 41.7948C66.7293 42.6138 66.9785 43.1479 66.6225 43.9312L69.9695 46.9578L82.2896 44.679C83.1798 44.7146 83.8563 43.86 83.6071 43.0054C82.1116 37.5575 79.1562 25.5223 66.8005 20.6797Z" fill="#000091"/>
<path fill-rule="evenodd" clip-rule="evenodd" d="M65.9805 41.5459L66.8706 41.7596C66.8706 41.7596 72.0337 42.6498 71.9981 37.8784C71.9625 34.2465 68.4018 34.2821 66.657 34.4957" fill="white"/>
<path fill-rule="evenodd" clip-rule="evenodd" d="M66.5495 33.6117C67.9075 33.4455 69.1799 33.4968 70.2825 33.9113C71.9029 34.5206 72.8692 35.8511 72.889 37.8714C72.9077 40.3817 71.6659 41.8966 69.6811 42.4672C68.793 42.7225 67.8776 42.7612 67.0429 42.6778L66.9097 42.6633C66.8694 42.6584 66.8333 42.6537 66.8016 42.6491L66.7201 42.6364L66.6636 42.6248L65.7735 42.4112C65.2954 42.2964 65.0009 41.8159 65.1156 41.3378C65.2257 40.8789 65.673 40.5891 66.1316 40.6681L66.1889 40.68L67.0451 40.8854L67.1296 40.8965L67.2197 40.9063C67.849 40.9691 68.5517 40.9394 69.1892 40.7562C70.4358 40.3978 71.1212 39.5616 71.1087 37.8867C71.0962 36.6165 70.5995 35.9326 69.6559 35.5778C68.878 35.2853 67.8641 35.2444 66.7659 35.3789C66.2779 35.4387 65.8339 35.0915 65.7742 34.6035C65.7144 34.1155 66.0616 33.6715 66.5495 33.6117Z" fill="#000091"/>
<path fill-rule="evenodd" clip-rule="evenodd" d="M56.6482 44.191C56.8778 43.7563 57.4164 43.59 57.8511 43.8197C58.2858 44.0494 58.452 44.5879 58.2224 45.0226C57.9097 45.6145 57.5175 46.0528 57.0556 46.336C56.3259 46.7834 55.5551 46.7925 54.856 46.5495C54.6849 46.49 54.5514 46.4266 54.4597 46.3734C54.0347 46.1263 53.8905 45.5814 54.1376 45.1564C54.3744 44.7491 54.8847 44.5996 55.3009 44.8054L55.364 44.8383C55.3771 44.844 55.4037 44.855 55.4405 44.8678C55.6797 44.951 55.913 44.9482 56.125 44.8182C56.3014 44.7101 56.4785 44.5121 56.6482 44.191Z" fill="#000091"/>
<path fill-rule="evenodd" clip-rule="evenodd" d="M52.3484 33.5487C52.3988 33.0597 52.836 32.7041 53.3251 32.7544C53.7946 32.8028 54.1411 33.2077 54.1235 33.6727L54.1194 33.7312L53.3727 40.9754L54.3833 40.9059C54.8541 40.8735 55.2647 41.2133 55.3267 41.6745L55.3326 41.7327C55.3651 42.2036 55.0252 42.6141 54.564 42.6761L54.5058 42.6821L52.4405 42.8245C51.9085 42.8612 51.4685 42.4263 51.4898 41.9017L51.4938 41.8452L52.3484 33.5487Z" fill="#000091"/>
<path fill-rule="evenodd" clip-rule="evenodd" d="M58.1367 31.5088C59.0022 31.186 59.864 31.3797 60.6609 31.8601C60.9581 32.0393 61.1844 32.22 61.327 32.3559C61.6828 32.6952 61.6962 33.2586 61.3569 33.6144C61.0324 33.9548 60.5028 33.9819 60.1459 33.6867L60.0984 33.6444C60.0429 33.5915 59.9145 33.489 59.7418 33.3849C59.3639 33.1571 59.0196 33.0797 58.759 33.1769C58.689 33.203 58.6184 33.2426 58.5459 33.2993L58.4911 33.345C58.1237 33.6716 57.561 33.6385 57.2344 33.2711C56.9078 32.9036 56.9409 32.341 57.3083 32.0144C57.5627 31.7882 57.8405 31.6193 58.1367 31.5088Z" fill="#000091"/>
<path fill-rule="evenodd" clip-rule="evenodd" d="M48.7987 32.5023C49.4485 32.3928 50.0917 32.5304 50.7085 32.8141C50.9822 32.94 51.1946 33.0681 51.3304 33.1651C51.7305 33.4509 51.8231 34.0068 51.5374 34.4069C51.2635 34.7903 50.7415 34.8913 50.3464 34.6476L50.2956 34.6138C50.2447 34.5775 50.1255 34.5056 49.9644 34.4315C49.6434 34.2838 49.3337 34.2176 49.0945 34.2579C48.946 34.2829 48.8179 34.3488 48.6934 34.4801L48.6468 34.5324C48.331 34.9092 47.7696 34.9588 47.3927 34.643C47.0159 34.3273 46.9663 33.7658 47.2821 33.389C47.6959 32.8951 48.2172 32.6002 48.7987 32.5023Z" fill="#000091"/>
<path fill-rule="evenodd" clip-rule="evenodd" d="M58.2898 38.1524C58.6622 38.1227 58.9261 37.6219 58.8792 37.0338C58.8323 36.4458 58.4924 35.9931 58.1199 36.0228C57.7475 36.0525 57.4836 36.5533 57.5305 37.1414C57.5774 37.7295 57.9173 38.1821 58.2898 38.1524Z" fill="#000091"/>
<path fill-rule="evenodd" clip-rule="evenodd" d="M50.9912 38.7571C51.3636 38.7274 51.6275 38.2266 51.5806 37.6386C51.5337 37.0505 51.1938 36.5978 50.8213 36.6276C50.4489 36.6573 50.185 37.1581 50.2319 37.7461C50.2788 38.3342 50.6187 38.7868 50.9912 38.7571Z" fill="#000091"/>
<path fill-rule="evenodd" clip-rule="evenodd" d="M58.9399 28.8944C55.9805 29.1844 53.992 32.4365 54.3481 36.0703C54.7041 39.704 57.286 42.5084 60.2454 42.2184C63.2049 41.9284 65.1933 38.6763 64.8372 35.0425C64.4812 31.4088 61.8993 28.6044 58.9399 28.8944ZM59.113 30.666C60.968 30.4843 62.7958 32.4696 63.0649 35.216C63.334 37.9624 61.9263 40.2647 60.0713 40.4465C58.2163 40.6282 56.3885 38.6429 56.1194 35.8965C55.8503 33.1502 57.258 30.8478 59.113 30.666Z" fill="#F95C5E"/>
<path fill-rule="evenodd" clip-rule="evenodd" d="M46.5478 30.3545C43.5884 30.6445 41.5999 33.8967 41.956 37.5304C42.3121 41.1642 44.8939 43.9685 47.8533 43.6786C50.8128 43.3886 52.8012 40.1364 52.4451 36.5027C52.0891 32.8689 49.5072 30.0645 46.5478 30.3545ZM46.7209 32.1262C48.5759 31.9444 50.4037 33.9297 50.6728 36.6761C50.9419 39.4225 49.5342 41.7248 47.6792 41.9066C45.8242 42.0884 43.9964 40.1031 43.7273 37.3567C43.4582 34.6103 44.8659 32.308 46.7209 32.1262Z" fill="#F95C5E"/>
<path fill-rule="evenodd" clip-rule="evenodd" d="M55.03 34.5015C55.519 34.4511 55.9563 34.8066 56.0067 35.2957C56.0551 35.7651 55.7294 36.187 55.2706 36.2646L55.2125 36.2724L51.7586 36.6285C51.2696 36.6789 50.8323 36.3234 50.7819 35.8343C50.7335 35.3648 51.0592 34.943 51.518 34.8654L51.5761 34.8575L55.03 34.5015Z" fill="#F95C5E"/>
<path fill-rule="evenodd" clip-rule="evenodd" d="M64.0773 33.3579L68.1722 33.6072C68.6629 33.637 69.0365 34.0591 69.0066 34.5498C68.978 35.0209 68.5879 35.384 68.1225 35.3859L68.064 35.3842L63.9692 35.135C63.4785 35.1051 63.1049 34.6831 63.1347 34.1924C63.1634 33.7213 63.5535 33.3581 64.0188 33.3563L64.0773 33.3579Z" fill="#F95C5E"/>
<path fill-rule="evenodd" clip-rule="evenodd" d="M52.8073 74.9796L53.5907 78.8964C53.5907 78.8964 34.5408 77.935 28.5588 85.6618H71.3943C73.5307 85.6618 75.1331 83.6322 74.5633 81.5313L72.1064 72.131L52.8073 74.9796Z" fill="white"/>
<path fill-rule="evenodd" clip-rule="evenodd" d="M52.6776 74.0994L52.6202 74.1098C52.1482 74.2108 51.8386 74.6743 51.9347 75.1546L52.4985 77.9753L52.0455 77.9702C51.458 77.9657 50.8259 77.9695 50.1562 77.9839C47.7589 78.0353 45.2899 78.2101 42.865 78.5449C35.9218 79.5034 30.6089 81.5604 27.8552 85.1173C27.4023 85.7023 27.8192 86.5524 28.5591 86.5524H71.3945C74.0973 86.5524 76.0947 84.0152 75.4473 81.3936L72.9679 71.9064C72.8531 71.467 72.4259 71.1845 71.9767 71.2508L52.6776 74.0994ZM71.4479 73.1298L73.703 81.7582L73.7233 81.8385C74.0761 83.3357 72.9355 84.7734 71.3952 84.7734H30.6527L30.6665 84.7619C33.3432 82.5119 37.676 81.0599 43.1092 80.3099C45.4602 79.9853 47.8622 79.8152 50.195 79.7652C50.8468 79.7512 51.4613 79.7475 52.0316 79.7519L52.5095 79.7576C52.7722 79.7619 52.9988 79.7674 53.1865 79.7734L53.5492 79.7874L53.6066 79.7883C54.1571 79.78 54.5743 79.2726 54.4645 78.7236L53.8647 75.7252L71.4479 73.1298Z" fill="#000091"/>
<path fill-rule="evenodd" clip-rule="evenodd" d="M75.5253 85.6637H20.5122C28.2034 91.3608 37.7105 94.7079 48.001 94.7079C58.327 94.7435 67.8342 91.3608 75.5253 85.6637Z" fill="#000091"/>
<path fill-rule="evenodd" clip-rule="evenodd" d="M48 0.988281C21.7665 0.988281 0.5 22.2548 0.5 48.4883C0.5 74.7218 21.7665 95.9883 48 95.9883C74.2335 95.9883 95.5 74.7218 95.5 48.4883C95.5 22.2548 74.2335 0.988281 48 0.988281ZM48.0008 3.4798C72.8578 3.4798 93.0083 23.6303 93.0083 48.4873C93.0083 73.3443 72.8578 93.4948 48.0008 93.4948C23.1439 93.4948 2.99334 73.3443 2.99334 48.4873C2.99334 23.6303 23.1439 3.4798 48.0008 3.4798Z" fill="#F95C5E"/>
</svg>
