<svg width="240" height="118" viewBox="0 0 240 118" fill="none" xmlns="http://www.w3.org/2000/svg">
<path fill-rule="evenodd" clip-rule="evenodd" d="M56.7557 75.9728C57.1452 75.6359 57.3466 75.1371 57.2795 74.6249C56.1916 64.8121 51.7328 54.7028 44.7759 50.996C37.6309 47.1814 32.7423 57.7625 42.6539 67.5888C50.1077 74.9889 54.0965 76.1885 55.6141 76.3233C56.0439 76.3772 56.4468 76.2424 56.7557 75.9728Z" fill="#6A6AF4"/>
<path fill-rule="evenodd" clip-rule="evenodd" d="M38.7014 51.6022C38.8517 51.4497 39.0928 51.4424 39.2518 51.581L39.2843 51.6121L39.4936 51.823C39.6572 51.9888 39.8445 52.1807 40.0536 52.3974L40.3106 52.6647C40.9301 53.3114 41.6106 54.0391 42.338 54.8381C44.6348 57.3611 46.9316 60.0782 49.0762 62.8868C51.6455 66.2519 53.8204 69.5221 55.4755 72.6148C55.9954 73.5863 56.461 74.5351 56.8694 75.4594C56.9595 75.6636 56.8678 75.9024 56.6643 75.993C56.4609 76.0835 56.2229 75.9914 56.1327 75.7872C55.7329 74.8822 55.2762 73.9516 54.7656 72.9975C53.1332 69.9472 50.9815 66.7119 48.4365 63.3787C46.3834 60.6898 44.188 58.0834 41.9876 55.6529L41.7431 55.3836C40.9824 54.5481 40.2736 53.7913 39.6332 53.1246L39.3533 52.8344C39.2739 52.7525 39.1982 52.6747 39.1261 52.6009L38.8076 52.2773L38.7045 52.174C38.5463 52.017 38.5449 51.7609 38.7014 51.6022Z" fill="#000091"/>
<path fill-rule="evenodd" clip-rule="evenodd" d="M41.1893 64.9738L41.3542 64.971C41.6225 64.9688 41.9702 64.9754 42.3882 64.9961L42.4674 65.0002C43.2193 65.0398 44.0391 65.1177 44.9118 65.2426C47.3043 65.5852 49.7251 66.2237 52.053 67.2307C52.2573 67.3191 52.3516 67.557 52.2635 67.7621C52.1754 67.9672 51.9384 68.0618 51.734 67.9734C49.4765 66.9968 47.1238 66.3763 44.798 66.0433C43.9498 65.9218 43.1537 65.8462 42.4251 65.8078L42.2744 65.8003C41.906 65.7832 41.5995 65.7778 41.3625 65.7797L41.2166 65.7821C40.9942 65.7897 40.8078 65.6149 40.8003 65.3917C40.7927 65.1685 40.9669 64.9814 41.1893 64.9738Z" fill="#000091"/>
<path fill-rule="evenodd" clip-rule="evenodd" d="M47.0085 52.76C47.2023 52.6503 47.448 52.719 47.5574 52.9135L47.6723 53.1209C47.7142 53.1971 47.7604 53.2815 47.8105 53.3738L47.9527 53.6369C48.1146 53.938 48.2892 54.2678 48.4739 54.623C49.1598 55.9418 49.8457 57.3396 50.4862 58.7553C50.993 59.8755 51.4504 60.9619 51.8466 61.9987L51.9315 62.2224C53.0202 65.1159 53.5639 67.4511 53.4094 69.0696C53.3882 69.2919 53.1914 69.4549 52.9699 69.4336C52.7484 69.4123 52.5861 69.2148 52.6073 68.9925C52.7504 67.4927 52.1975 65.1754 51.0943 62.2884C50.7042 61.2677 50.2529 60.1959 49.7524 59.0897C49.1186 57.6885 48.439 56.3037 47.7595 54.9972L47.5977 54.6876C47.4741 54.4522 47.3558 54.2296 47.2437 54.0212L47.0739 53.7073L46.8798 53.3544C46.8691 53.3352 46.861 53.3206 46.8555 53.3109C46.7462 53.1164 46.8147 52.8698 47.0085 52.76Z" fill="#000091"/>
<path fill-rule="evenodd" clip-rule="evenodd" d="M47.4816 71.054L47.688 71.0502C48.1602 71.0454 48.7632 71.0639 49.453 71.1216C50.5883 71.2167 51.7108 71.4005 52.7642 71.6952C53.7718 71.977 54.675 72.3498 55.4473 72.8257C55.6369 72.9426 55.6962 73.1916 55.5798 73.3819C55.4634 73.5722 55.2152 73.6318 55.0256 73.5149C54.3228 73.0817 53.4877 72.7371 52.5479 72.4743C51.5479 72.1946 50.4742 72.0187 49.386 71.9276C48.6932 71.8696 48.0931 71.8528 47.6369 71.8596L47.5021 71.8625C47.2798 71.8709 47.0928 71.6967 47.0845 71.4735C47.0765 71.2583 47.2376 71.0761 47.4485 71.0559L47.4816 71.054Z" fill="#000091"/>
<path fill-rule="evenodd" clip-rule="evenodd" d="M65.5946 66.9961C66.1318 67.36 66.7361 67.4274 67.2196 67.1578C76.5537 62.0627 84.4239 52.5599 84.5448 42.3023C84.6791 31.7481 71.4771 29.5375 66.7227 45.8877C63.1368 58.1807 63.9964 63.7206 64.641 65.7021C64.8156 66.2277 65.1648 66.6995 65.5946 66.9961Z" fill="#6A6AF4"/>
<path fill-rule="evenodd" clip-rule="evenodd" d="M80.7426 35.3955C80.939 35.2905 81.183 35.365 81.2877 35.5621C81.3924 35.7592 81.3181 36.0041 81.1217 36.1092C76.9866 38.3219 73.5546 43.627 70.8048 51.0826C69.4914 54.6434 68.4206 58.4619 67.5746 62.2808L67.495 62.643C67.2601 63.7223 67.058 64.7357 66.8875 65.6655L66.8318 65.9723C66.7794 66.2643 66.7332 66.5316 66.6929 66.7725L66.6177 67.2359L66.5977 67.3664C66.565 67.5873 66.3601 67.7398 66.14 67.707C65.9277 67.6754 65.7788 67.483 65.7978 67.2713L65.8033 67.2294L65.8509 66.9261L65.8848 66.7194C65.9198 66.5076 65.9597 66.2748 66.0044 66.0222L66.0388 65.829C66.2404 64.7051 66.4894 63.4532 66.788 62.1052C67.6413 58.2531 68.7217 54.4006 70.0491 50.8018C72.8617 43.176 76.3874 37.726 80.7426 35.3955Z" fill="#000091"/>
<path fill-rule="evenodd" clip-rule="evenodd" d="M83.857 43.5214C84.0603 43.4308 84.2984 43.5229 84.3887 43.727C84.4789 43.9311 84.3872 44.1701 84.1838 44.2607C82.1239 45.1782 79.7535 46.329 77.459 47.595L77.2255 47.7244C74.012 49.5132 71.542 51.2182 70.1613 52.7241C70.0106 52.8884 69.7558 52.8991 69.592 52.7479C69.4283 52.5966 69.4177 52.3408 69.5683 52.1765C71.0393 50.572 73.6099 48.8042 76.9498 46.9532L77.0708 46.8863C79.388 45.6077 81.7778 44.4476 83.857 43.5214Z" fill="#000091"/>
<path fill-rule="evenodd" clip-rule="evenodd" d="M66.8741 45.7278C66.8947 45.5054 67.091 45.3419 67.3125 45.3625C67.5341 45.3832 67.697 45.5802 67.6764 45.8026L67.646 46.1379C67.1622 51.592 67.3029 55.953 68.4284 57.4357C68.5633 57.6133 68.5291 57.867 68.3521 58.0024C68.1751 58.1377 67.9223 58.1034 67.7874 57.9258C67.0326 56.9315 66.6716 55.0174 66.5988 52.3507C66.5446 50.3619 66.6554 48.0893 66.8741 45.7278Z" fill="#000091"/>
<path fill-rule="evenodd" clip-rule="evenodd" d="M79.5259 55.3975C79.6996 55.2579 79.9531 55.2861 80.0922 55.4604C80.2313 55.6347 80.2032 55.8892 80.0295 56.0288C78.7783 57.0343 76.9744 58.0737 74.7572 59.1248C73.2183 59.8544 71.5713 60.5468 69.9246 61.1802L69.6616 61.2808C69.2283 61.4458 68.8206 61.5968 68.4445 61.7326L68.0944 61.8578L67.7256 61.9866C67.5149 62.0582 67.2861 61.9448 67.2148 61.7333C67.1459 61.5293 67.2485 61.3085 67.4449 61.2288L67.8825 61.0752L68.0613 61.0113C68.5363 60.8408 69.0658 60.6444 69.6362 60.425C71.2654 59.7984 72.8944 59.1135 74.4131 58.3936C76.5782 57.3671 78.3335 56.3557 79.5259 55.3975Z" fill="#000091"/>
<path fill-rule="evenodd" clip-rule="evenodd" d="M72.4348 73.7928C72.6565 73.7741 72.8514 73.9392 72.8701 74.1618C72.8888 74.3843 72.7243 74.5799 72.5025 74.5987C69.8708 74.8215 67.7803 76.2633 66.1658 78.5456C65.5424 79.427 65.0351 80.3736 64.636 81.3201C64.5104 81.618 64.404 81.8964 64.3159 82.1493L64.2872 82.2327C64.2656 82.2963 64.2463 82.3549 64.2292 82.4083L64.2054 82.4845C64.1924 82.5266 64.1842 82.5546 64.1807 82.5674C64.1207 82.7825 63.8984 82.9081 63.6841 82.8479C63.4698 82.7877 63.3447 82.5646 63.4046 82.3496L63.4336 82.2512C63.4531 82.1875 63.4792 82.1062 63.5119 82.0088L63.5245 81.9715C63.6239 81.6792 63.7466 81.3543 63.8939 81.005C64.3143 80.0077 64.8488 79.0104 65.5087 78.0774C67.2494 75.6166 69.5384 74.0381 72.4348 73.7928Z" fill="#000091"/>
<path fill-rule="evenodd" clip-rule="evenodd" d="M72.6207 74.0243C73.091 73.9593 73.3139 72.7527 73.1187 71.3293C72.9234 69.9059 72.3839 68.8047 71.9136 68.8697C71.4433 68.9347 71.2203 70.1413 71.4156 71.5646C71.6108 72.988 72.1504 74.0892 72.6207 74.0243Z" fill="#F95C5E"/>
<path fill-rule="evenodd" clip-rule="evenodd" d="M74.9568 73.124C75.9756 72.2928 76.5815 71.3474 76.3101 71.0124C76.0388 70.6773 74.9929 71.0795 73.9741 71.9107C72.9553 72.7419 72.3494 73.6873 72.6208 74.0223C72.8921 74.3574 73.938 73.9552 74.9568 73.124Z" fill="#F95C5E"/>
<path fill-rule="evenodd" clip-rule="evenodd" d="M72.6265 73.97C72.8444 73.5467 71.9898 72.669 70.7179 72.0097C69.446 71.3504 68.2383 71.159 68.0204 71.5823C67.8026 72.0057 68.6571 72.8833 69.929 73.5426C71.201 74.202 72.4087 74.3933 72.6265 73.97Z" fill="#F95C5E"/>
<path fill-rule="evenodd" clip-rule="evenodd" d="M76.812 76.2912C77.0165 75.9113 76.2459 75.0956 75.0909 74.4691C73.9358 73.8427 72.8336 73.6429 72.6291 74.0228C72.4246 74.4026 73.1952 75.2184 74.3502 75.8448C75.5053 76.4712 76.6075 76.671 76.812 76.2912Z" fill="#F95C5E"/>
<path fill-rule="evenodd" clip-rule="evenodd" d="M72.3246 76.537C72.8761 75.3412 73.0067 74.2248 72.6163 74.0434C72.2259 73.862 71.4623 74.6843 70.9108 75.8801C70.3592 77.0759 70.2286 78.1923 70.619 78.3737C71.0094 78.555 71.773 77.7327 72.3246 76.537Z" fill="#F95C5E"/>
<path fill-rule="evenodd" clip-rule="evenodd" d="M50.8659 43.2891C51.0038 43.1139 51.2572 43.0841 51.4318 43.2226L51.4971 43.276C51.5143 43.2904 51.5341 43.3071 51.5563 43.326L51.6314 43.3906C51.7092 43.4583 51.7951 43.5351 51.8887 43.6211C52.2426 43.9463 52.6358 44.3382 53.0584 44.7976C54.2618 46.1058 55.4638 47.695 56.5848 49.5725C58.7664 53.2264 60.3726 57.5177 61.1631 62.4658C62.137 68.5627 61.8174 75.3551 59.9671 82.8612C59.9136 83.078 59.6952 83.2103 59.4792 83.1566C59.2632 83.103 59.1314 82.8838 59.1848 82.667C61.0095 75.2649 61.3239 68.5819 60.3674 62.5938C59.5937 57.7503 58.0238 53.556 55.8936 49.9882C54.802 48.1599 53.6334 46.6149 52.4663 45.3462C52.0847 44.9314 51.7293 44.575 51.4082 44.2765L51.3445 44.2176C51.2419 44.1233 51.1497 44.0414 51.0688 43.9717L50.9838 43.8994C50.9595 43.8792 50.9422 43.8651 50.9322 43.8571C50.7576 43.7186 50.7279 43.4643 50.8659 43.2891Z" fill="#000091"/>
<path fill-rule="evenodd" clip-rule="evenodd" d="M52.3625 44.3632C53.1696 43.8903 53.0478 42.1727 52.0904 40.5269C51.133 38.8811 49.7026 37.9303 48.8955 38.4033C48.0884 38.8762 48.2102 40.5938 49.1676 42.2396C50.125 43.8854 51.5554 44.8362 52.3625 44.3632Z" fill="#F95C5E"/>
<path fill-rule="evenodd" clip-rule="evenodd" d="M52.5756 44.3503C52.5943 43.4125 51.0703 42.6215 49.1719 42.5836C47.2734 42.5456 45.7193 43.2751 45.7007 44.2129C45.6821 45.1507 47.206 45.9417 49.1045 45.9797C51.0029 46.0176 52.557 45.2881 52.5756 44.3503Z" fill="#F95C5E"/>
<path fill-rule="evenodd" clip-rule="evenodd" d="M55.6425 42.8828C56.6681 41.5239 56.9627 40.0142 56.3005 39.5108C55.6383 39.0074 54.2701 39.7009 53.2445 41.0597C52.2189 42.4186 51.9243 43.9282 52.5864 44.4317C53.2486 44.9351 54.6169 44.2416 55.6425 42.8828Z" fill="#F95C5E"/>
<path fill-rule="evenodd" clip-rule="evenodd" d="M54.0077 49.3179C54.764 48.9728 54.8071 47.435 54.104 45.8832C53.401 44.3314 52.218 43.3531 51.4618 43.6982C50.7056 44.0433 50.6625 45.5811 51.3655 47.1329C52.0685 48.6847 53.2515 49.663 54.0077 49.3179Z" fill="#F95C5E"/>
<path fill-rule="evenodd" clip-rule="evenodd" d="M56.6674 44.6275C56.7462 43.8798 55.5723 43.1422 54.0453 42.9801C52.5184 42.818 51.2166 43.2927 51.1378 44.0404C51.059 44.7882 52.233 45.5258 53.7599 45.6879C55.2869 45.85 56.5886 45.3752 56.6674 44.6275Z" fill="#F95C5E"/>
<path fill-rule="evenodd" clip-rule="evenodd" d="M45.596 84.1541L51.9082 112.514H71.9597L78.272 84.1541C78.6346 82.5366 77.6139 80.9461 76.2171 80.9461H47.6508C46.254 80.9326 45.2333 82.5231 45.596 84.1541Z" fill="white"/>
<path fill-rule="evenodd" clip-rule="evenodd" d="M76.2187 80.5413L47.6562 80.5413C45.9758 80.5252 44.7895 82.3761 45.2043 84.2418L51.5166 112.602C51.5577 112.787 51.7211 112.918 51.9098 112.918H71.9613C72.1499 112.918 72.3133 112.787 72.3545 112.602L78.6667 84.2419C79.0817 82.3907 77.8964 80.5413 76.2187 80.5413ZM76.2178 81.3508L76.253 81.3513C77.3527 81.3789 78.186 82.6986 77.8795 84.0658L71.6375 112.11H52.2316L45.9898 84.0664C45.683 82.6864 46.5154 81.3682 47.6125 81.3509L76.2178 81.3508Z" fill="#000091"/>
<path fill-rule="evenodd" clip-rule="evenodd" d="M214.376 40.8208L118.376 41.5217C116.845 41.5352 115.462 42.4248 114.804 43.7997L83.8468 107.516L23.0879 107.569C23.0879 107.569 21.7315 116.493 33.0667 117.045L79.2804 116.897L79.1461 117.167L184.856 116.789L218.002 46.4955C219.251 43.8536 217.304 40.7938 214.376 40.8208Z" fill="#6A6AF4"/>
<path fill-rule="evenodd" clip-rule="evenodd" d="M206.989 40.4159C210.181 40.4012 212.314 43.7034 211.022 46.6069L210.981 46.6947L178.332 116.031C178.237 116.233 177.997 116.32 177.796 116.224C177.602 116.132 177.515 115.905 177.594 115.708L177.604 115.686L210.253 46.3493C211.375 43.9636 209.625 41.2125 206.993 41.2246C206.77 41.2256 206.589 41.0454 206.588 40.8221C206.587 40.5988 206.767 40.4169 206.989 40.4159Z" fill="white"/>
<path fill-rule="evenodd" clip-rule="evenodd" d="M93.9452 104.495L173.345 104.09C176.125 104.077 178.664 102.473 179.886 99.9659L203.805 49.1226C204.826 47.0333 203.241 44.634 200.837 44.661L122.149 45.2406C120.9 45.2541 119.758 45.9415 119.221 47.0333L91.5412 100.653C90.6682 102.433 91.971 104.508 93.9452 104.495Z" fill="white"/>
<path fill-rule="evenodd" clip-rule="evenodd" d="M173.412 72.7508H159.189C158.262 72.7508 157.886 71.996 158.343 71.0659L162.076 63.5041C162.533 62.574 163.661 61.8192 164.601 61.8192H178.824C179.751 61.8192 180.127 62.574 179.67 63.5041L175.936 71.0659C175.48 71.996 174.352 72.7508 173.412 72.7508Z" fill="#6A6AF4"/>
<path fill-rule="evenodd" clip-rule="evenodd" d="M174.85 61.4011C175.707 61.4011 176.121 62.13 175.763 62.9095L175.748 62.9425L171.287 71.9511C170.948 72.6132 170.152 73.128 169.437 73.128C169.215 73.128 169.034 72.9469 169.034 72.7236C169.034 72.5082 169.202 72.3322 169.414 72.3199L169.437 72.3192C169.83 72.3192 170.337 71.9991 170.55 71.6193L170.567 71.5866L175.025 62.5854C175.157 62.3138 175.099 62.2099 174.85 62.2099C174.627 62.2099 174.447 62.0288 174.447 61.8055C174.447 61.5822 174.627 61.4011 174.85 61.4011Z" fill="white"/>
<path fill-rule="evenodd" clip-rule="evenodd" d="M172.322 72.629L168.75 68.6796C168.441 68.3426 167.89 68.437 167.716 68.8548L165.298 74.3274C165.083 74.8126 165.513 75.3248 166.024 75.19L168.065 74.6778L168.293 78.452C168.32 78.9911 168.831 79.3686 169.354 79.2607L170.845 78.9372C171.355 78.8294 171.664 78.2902 171.49 77.7915L170.227 74.1252L172.027 73.6669C172.47 73.5456 172.645 72.9795 172.322 72.629Z" fill="#6A6AF4"/>
<path fill-rule="evenodd" clip-rule="evenodd" d="M167.248 88.199H151.319C150.849 88.199 150.661 87.8216 150.89 87.3498L152.783 83.5352C153.012 83.0635 153.589 82.686 154.059 82.686H169.988C170.458 82.686 170.646 83.0635 170.417 83.5352L168.524 87.3498C168.282 87.8216 167.718 88.199 167.248 88.199Z" fill="#6A6AF4"/>
<path fill-rule="evenodd" clip-rule="evenodd" d="M203.833 48.7737C204.055 48.7737 204.236 48.9547 204.236 49.1781C204.236 49.3934 204.068 49.5694 203.856 49.5817L203.833 49.5824H118.322C118.099 49.5824 117.919 49.4014 117.919 49.1781C117.919 48.9627 118.087 48.7867 118.298 48.7744L118.322 48.7737H203.833Z" fill="#000091"/>
<path fill-rule="evenodd" clip-rule="evenodd" d="M188.154 44.9176C188.244 44.7132 188.482 44.6207 188.685 44.7109C188.882 44.7979 188.974 45.023 188.9 45.2222L188.891 45.2442L187.119 49.2744C187.029 49.4787 186.791 49.5713 186.587 49.4811C186.391 49.3941 186.298 49.169 186.372 48.9698L186.381 48.9478L188.154 44.9176Z" fill="#000091"/>
<path fill-rule="evenodd" clip-rule="evenodd" d="M175.136 44.9776C175.237 44.7787 175.479 44.6997 175.678 44.8011C175.868 44.8988 175.948 45.1283 175.864 45.3228L175.853 45.3451L173.799 49.3888C173.697 49.5878 173.455 49.6668 173.257 49.5653C173.066 49.4676 172.986 49.2382 173.07 49.0437L173.081 49.0214L175.136 44.9776Z" fill="#000091"/>
<path fill-rule="evenodd" clip-rule="evenodd" d="M192.483 53.1148L123.837 53.5463C122.743 53.562 121.761 54.1636 121.292 55.1201L99.2448 97.1921C98.4477 98.7758 99.6249 100.642 101.401 100.642L170.595 100.413C172.832 100.399 174.878 99.1107 175.858 97.0998L195.078 57.0375C195.977 55.2011 194.576 53.0992 192.483 53.1148ZM123.844 54.3536L192.487 53.9222C193.978 53.9111 194.963 55.3649 194.371 56.6437L175.132 96.7453C174.287 98.478 172.52 99.5906 170.59 99.6031L101.398 99.8322C100.219 99.8322 99.4389 98.5961 99.9597 97.5613L122.009 55.4854C122.34 54.8107 123.023 54.3827 123.799 54.3548L123.844 54.3536Z" fill="#000091"/>
<path fill-rule="evenodd" clip-rule="evenodd" d="M204.008 117.004H158.868V110.278C158.868 108.607 160.211 107.259 161.877 107.259H200.986C202.651 107.259 203.994 108.607 203.994 110.278V117.004H204.008Z" fill="#F95C5E"/>
<path fill-rule="evenodd" clip-rule="evenodd" d="M109.983 91.5816H134.547C136.374 91.5816 138.697 90.0855 139.731 88.2523L153.31 64.0573C154.344 62.2241 153.686 60.7279 151.859 60.7279H126.274C124.448 60.7279 122.124 62.2241 121.09 64.0573L108.533 88.2523C107.499 90.0855 108.157 91.5816 109.983 91.5816Z" fill="#000091"/>
<path fill-rule="evenodd" clip-rule="evenodd" d="M153.444 21.5573C150.194 11.9601 146.635 9.97869 144.124 10.6796C141.612 11.3805 134.803 14.7773 137.167 17.8775C139.53 20.9777 142.942 31.7205 142.942 31.7205C132.291 33.5537 122.81 37.584 122.81 37.584L111.273 42.1803C111.273 42.1803 106.384 43.8787 101.509 48.246C96.634 52.6132 86.7224 62.5069 84.0632 66.3215C81.8606 69.4891 83.1768 73.1015 84.3586 74.0855C85.5405 75.0694 87.461 77.7518 96.1908 74.7864C101.805 72.8723 106.384 72.1445 108.923 71.8614L122.219 84.8148C122.219 84.8148 125.657 87.7398 127.228 89.1686C127.322 89.4247 127.457 89.6269 127.631 89.7617C129.874 91.5275 132.775 91.5679 136.28 90.4626C137.986 89.9234 139.423 88.7373 140.269 87.1467L153.176 62.8304C153.619 61.9947 153.176 60.9703 152.262 60.7142L148.206 59.6089C142.485 57.3713 137.905 48.3673 137.905 48.3673C148.112 44.8357 156.103 35.3734 156.103 35.3734C156.103 35.3734 156.708 31.1679 153.444 21.5573Z" fill="#F95C5E"/>
<path fill-rule="evenodd" clip-rule="evenodd" d="M136.79 74.3575H102.489C101.481 74.3575 100.649 73.5352 100.649 72.5108V52.6021C100.649 51.5912 101.468 50.7555 102.489 50.7555H136.776C137.784 50.7555 138.616 51.5777 138.616 52.6021V72.5108C138.616 73.5352 137.797 74.3575 136.79 74.3575Z" fill="white"/>
<path fill-rule="evenodd" clip-rule="evenodd" d="M136.776 50.3484H102.488C101.249 50.3484 100.245 51.361 100.245 52.5995V72.5081C100.245 73.7517 101.254 74.7592 102.488 74.7592H136.789C138.022 74.7592 139.019 73.7533 139.019 72.5081V52.5995C139.019 51.3559 138.01 50.3484 136.776 50.3484ZM102.487 51.1581H136.775C137.564 51.1581 138.212 51.8043 138.212 52.6003V72.509C138.212 73.3085 137.574 73.9513 136.788 73.9513H102.487C101.697 73.9513 101.05 73.305 101.05 72.509V52.6003C101.05 51.8076 101.694 51.1581 102.487 51.1581Z" fill="#000091"/>
<path fill-rule="evenodd" clip-rule="evenodd" d="M124.217 57.9371H117.556C116.992 57.9371 116.535 57.4788 116.535 56.9127V54.4056C116.535 53.8395 116.992 53.3812 117.556 53.3812H124.217C124.781 53.3812 125.238 53.8395 125.238 54.4056V56.9127C125.251 57.4653 124.781 57.9371 124.217 57.9371Z" fill="#6A6AF4"/>
<path fill-rule="evenodd" clip-rule="evenodd" d="M126.394 50.7666C127.602 50.7666 128.569 51.6967 128.569 52.8424V72.2793C128.569 73.425 127.589 74.3551 126.394 74.3551" fill="white"/>
<path fill-rule="evenodd" clip-rule="evenodd" d="M126.393 50.3619C127.802 50.3619 128.947 51.442 128.971 52.7973L128.972 52.842V72.279C128.972 73.651 127.808 74.7591 126.393 74.7591C126.171 74.7591 125.99 74.5781 125.99 74.3547C125.99 74.1314 126.171 73.9504 126.393 73.9504C127.358 73.9504 128.143 73.2164 128.165 72.3187L128.166 72.279V52.842C128.166 51.9215 127.381 51.1706 126.393 51.1706C126.171 51.1706 125.99 50.9896 125.99 50.7663C125.99 50.5429 126.171 50.3619 126.393 50.3619Z" fill="#000091"/>
<path fill-rule="evenodd" clip-rule="evenodd" d="M102.413 35.0077C102.54 34.8241 102.791 34.7783 102.974 34.9054C103.157 35.0326 103.202 35.2845 103.076 35.4681C102.624 36.1233 102.355 37.0641 102.355 38.082C102.355 39.9756 103.261 41.4602 104.288 41.4924C104.51 41.4994 104.685 41.686 104.678 41.9092C104.671 42.1324 104.485 42.3078 104.263 42.3008C102.705 42.2519 101.549 40.358 101.549 38.082C101.549 36.9057 101.864 35.8041 102.413 35.0077Z" fill="#F95C5E"/>
<path fill-rule="evenodd" clip-rule="evenodd" d="M122.384 27.3122C122.599 27.2551 122.819 27.3837 122.876 27.5996C123.009 28.1026 123.078 28.6367 123.078 29.1858C123.078 31.4834 121.887 33.4048 120.311 33.4048C120.196 33.4048 120.09 33.3945 119.945 33.3738C119.725 33.3422 119.572 33.1374 119.603 32.9163C119.635 32.6952 119.839 32.5416 120.059 32.5731L120.127 32.5824C120.201 32.5917 120.258 32.596 120.311 32.596C121.341 32.596 122.272 31.0935 122.272 29.1858C122.272 28.7063 122.212 28.2418 122.097 27.8066C122.041 27.5907 122.169 27.3694 122.384 27.3122Z" fill="#F95C5E"/>
<path fill-rule="evenodd" clip-rule="evenodd" d="M118.08 35.2517L119.651 39.282L122.968 37.5027C123.304 37.8936 128.69 44.8084 121.424 47.5447C116.656 49.3374 111.365 46.9786 108.209 43.9727L111.217 42.1395L108.021 35.4L118.08 35.2517Z" fill="white"/>
<path fill-rule="evenodd" clip-rule="evenodd" d="M108.015 34.9974L107.991 34.9984C107.711 35.0184 107.534 35.3167 107.657 35.5756L110.697 41.9852L107.999 43.6288C107.772 43.7672 107.739 44.0843 107.931 44.2678C109.638 45.8933 111.82 47.2179 114.089 47.9452C116.661 48.7692 119.231 48.8031 121.565 47.9251C124.952 46.6496 126.076 44.3667 125.44 41.5563C125.217 40.575 124.792 39.5916 124.238 38.6482L124.17 38.5348C123.832 37.9721 123.475 37.4754 123.274 37.2405L123.256 37.2216C123.132 37.0939 122.937 37.0627 122.779 37.1479L119.861 38.7126L118.455 35.1061C118.394 34.9491 118.242 34.8467 118.074 34.8492L108.015 34.9974ZM117.806 35.6632L119.275 39.4324L119.285 39.4553C119.381 39.6644 119.635 39.7519 119.84 39.6417L122.859 38.0225L122.936 38.1274C122.947 38.1422 122.957 38.1573 122.968 38.1725C123.158 38.439 123.353 38.7383 123.543 39.0605C124.058 39.9374 124.452 40.8468 124.653 41.7369C125.203 44.1643 124.28 46.0402 121.282 47.1692L121.158 47.2148C117.217 48.6293 112.433 47.1835 108.922 44.0828L108.876 44.0418L111.425 42.4883L111.446 42.4748C111.607 42.3627 111.665 42.1487 111.58 41.9688L108.653 35.798L117.806 35.6632Z" fill="#000091"/>
<path fill-rule="evenodd" clip-rule="evenodd" d="M112.816 64.1641C113.514 63.7193 117.315 62.1558 118.242 62.0479C119.168 61.9401 119.639 62.6006 118.9 63.1802C118.175 63.7598 116.55 65.0268 116.55 65.0268" fill="white"/>
<path fill-rule="evenodd" clip-rule="evenodd" d="M118.195 61.6474C119.494 61.4962 120.219 62.6252 119.182 63.4721L118.794 63.7811L118.144 64.2929L117.353 64.9128L116.796 65.3473C116.621 65.4843 116.368 65.4524 116.231 65.276C116.1 65.1065 116.124 64.8651 116.282 64.7249L116.308 64.7038L117.259 63.9605L118.34 63.1105C118.458 63.017 118.562 62.9341 118.651 62.8628C118.77 62.7699 118.835 62.685 118.855 62.6212C118.863 62.5953 118.862 62.5858 118.854 62.5733C118.836 62.5436 118.788 62.5087 118.709 62.4817C118.599 62.4441 118.455 62.4313 118.288 62.4508C117.512 62.5411 113.782 64.0285 113.031 64.5067C112.844 64.6264 112.595 64.5705 112.475 64.382C112.356 64.1934 112.412 63.9435 112.6 63.8239C113.446 63.2848 117.287 61.7531 118.195 61.6474Z" fill="#000091"/>
<path fill-rule="evenodd" clip-rule="evenodd" d="M110.398 64.3543C115.583 63.0872 120.686 65.0147 121.183 65.2304C121.68 65.4461 121.854 66.4166 120.74 66.484C119.625 66.5379 115.797 65.9852 115.797 65.9852C117.476 66.43 121.21 67.4545 121.478 67.7375C121.895 68.1689 121.264 69.018 120.122 68.7215L115.327 67.5353C115.327 67.5353 119.907 69.5572 120.297 69.8537C120.686 70.1503 118.927 71.0669 116.778 70.1368C114.629 69.2067 114.441 69.3281 114.441 69.3281C114.441 69.3281 117.919 70.6221 118.363 70.986C118.819 71.3499 116.455 72.6304 114.145 71.0669C114.145 71.0669 111.5 72.1317 109.337 71.4038" fill="white"/>
<path fill-rule="evenodd" clip-rule="evenodd" d="M110.303 63.9608C112.648 63.3875 115.136 63.3996 117.618 63.8375C119.202 64.1171 120.642 64.5545 121.343 64.8587C121.757 65.0384 122.02 65.5069 121.965 65.9609C121.901 66.4918 121.449 66.8456 120.759 66.8873C120.69 66.8906 120.612 66.892 120.525 66.8913L120.448 66.8902L120.635 66.9527C121.242 67.1593 121.632 67.3264 121.758 67.4459L121.768 67.4556C122.144 67.8456 122.065 68.4228 121.657 68.7997C121.281 69.1459 120.702 69.2743 120.076 69.1262L119.487 68.9804L119.798 69.1303C120.165 69.3096 120.406 69.4377 120.516 69.5142L120.54 69.531C120.904 69.8084 120.785 70.2169 120.462 70.4716C120.256 70.6331 119.944 70.7657 119.578 70.8491C119.349 70.901 119.108 70.933 118.859 70.944L118.801 70.9459L118.808 70.9712C118.831 71.0686 118.826 71.1727 118.793 71.2743L118.783 71.3019C118.726 71.4512 118.615 71.5793 118.464 71.6941C118.204 71.8912 117.815 72.0532 117.373 72.1447C116.356 72.3551 115.222 72.1866 114.176 71.5641L114.096 71.5153L114.019 71.5418C113.805 71.6142 113.566 71.6864 113.305 71.7537C112.305 72.0119 111.284 72.1293 110.319 72.0249C109.93 71.9827 109.559 71.9045 109.209 71.7867C108.998 71.7157 108.884 71.4864 108.955 71.2747C109.026 71.063 109.254 70.9489 109.465 71.0199C109.758 71.1184 110.072 71.1847 110.406 71.2208C111.261 71.3133 112.19 71.2065 113.105 70.9704C113.315 70.9161 113.51 70.8584 113.686 70.8005L113.761 70.7756C113.801 70.7619 113.839 70.7487 113.874 70.7364L113.995 70.691C114.119 70.6411 114.26 70.6561 114.37 70.7311C115.3 71.3603 116.316 71.5376 117.21 71.3526C117.437 71.3056 117.64 71.2363 117.795 71.1592L117.829 71.1418L117.721 71.0896C117.502 70.9862 117.206 70.8557 116.852 70.7076L116.538 70.5781L116.275 70.4712L115.946 70.3397C115.612 70.2073 115.264 70.0725 114.917 69.9398L114.301 69.7067C113.989 69.5908 113.943 69.1676 114.223 68.9874C114.267 68.9587 114.314 68.9403 114.364 68.9297L114.389 68.9251C114.688 68.8807 115.397 69.0986 116.937 69.7649C117.814 70.1445 118.692 70.2211 119.4 70.0603C119.491 70.0395 119.576 70.0152 119.652 69.989L119.687 69.9764L119.549 69.9083C119.198 69.7361 118.686 69.4947 118.063 69.2084L117.658 69.0234L117.289 68.8558C116.915 68.6864 116.528 68.5122 116.139 68.3381L115.165 67.9049C114.721 67.7091 114.938 67.0464 115.4 67.1369L115.423 67.1422L120.223 68.3295C120.618 68.4322 120.937 68.3655 121.111 68.2042C121.193 68.1293 121.213 68.0746 121.2 68.0382L121.197 68.0315L121.196 68.0309C121.172 68.0176 121.138 68.0012 121.095 67.9823L121.068 67.9707C120.96 67.9248 120.814 67.8695 120.633 67.8062L120.474 67.752C120.141 67.6395 119.719 67.5075 119.221 67.3594L119.053 67.3094C118.049 67.0135 116.814 66.6724 115.694 66.3757C115.212 66.2479 115.348 65.5362 115.83 65.5815L115.893 65.59L116.269 65.6425L116.415 65.6625C116.774 65.7113 117.148 65.7602 117.522 65.8068L117.747 65.8345C117.993 65.8645 118.233 65.8926 118.463 65.9183L118.679 65.9419C119.642 66.0456 120.361 66.0969 120.715 66.0798C121.04 66.0601 121.152 65.972 121.165 65.8636C121.178 65.7631 121.107 65.6376 121.023 65.601L120.952 65.5715C120.735 65.4835 120.347 65.3465 119.9 65.2108C119.161 64.9863 118.345 64.787 117.478 64.634C115.098 64.2141 112.72 64.2025 110.493 64.7466C110.277 64.7994 110.059 64.6664 110.007 64.4494C109.954 64.2324 110.087 64.0137 110.303 63.9608Z" fill="#000091"/>
<path fill-rule="evenodd" clip-rule="evenodd" d="M103.885 35.4006C105.272 35.4006 106.396 34.3264 106.396 33.0013C106.396 31.6762 105.272 30.602 103.885 30.602C102.497 30.602 101.373 31.6762 101.373 33.0013C101.373 34.3264 102.497 35.4006 103.885 35.4006Z" fill="white"/>
<path fill-rule="evenodd" clip-rule="evenodd" d="M103.886 30.1972C102.281 30.1972 100.972 31.4479 100.972 33.0009C100.972 34.5539 102.281 35.8045 103.886 35.8045C105.492 35.8045 106.801 34.5539 106.801 33.0009C106.801 31.4479 105.492 30.1972 103.886 30.1972ZM103.885 31.0068C105.054 31.0068 105.994 31.9046 105.994 33.0017C105.994 34.0989 105.054 34.9966 103.885 34.9966C102.716 34.9966 101.776 34.0989 101.776 33.0017C101.776 31.9046 102.716 31.0068 103.885 31.0068Z" fill="#000091"/>
<path fill-rule="evenodd" clip-rule="evenodd" d="M119.129 27.2082C120.516 27.2082 121.641 26.134 121.641 24.809C121.641 23.4839 120.516 22.4097 119.129 22.4097C117.742 22.4097 116.618 23.4839 116.618 24.809C116.618 26.134 117.742 27.2082 119.129 27.2082Z" fill="white"/>
<path fill-rule="evenodd" clip-rule="evenodd" d="M119.131 22.0048C117.526 22.0048 116.217 23.2555 116.217 24.8085C116.217 26.3615 117.526 27.6121 119.131 27.6121C120.736 27.6121 122.045 26.3615 122.045 24.8085C122.045 23.2555 120.736 22.0048 119.131 22.0048ZM119.13 22.8122C120.298 22.8122 121.238 23.7099 121.238 24.8071C121.238 25.9043 120.298 26.802 119.13 26.802C117.961 26.802 117.021 25.9043 117.021 24.8071C117.021 23.7099 117.961 22.8122 119.13 22.8122Z" fill="#000091"/>
<path fill-rule="evenodd" clip-rule="evenodd" d="M117.358 36.6718C120.915 34.0875 121.119 28.2771 117.814 23.6938C114.508 19.1105 108.944 17.49 105.387 20.0743C101.83 22.6586 101.626 28.469 104.932 33.0523C108.237 37.6356 113.801 39.2561 117.358 36.6718Z" fill="white"/>
<path fill-rule="evenodd" clip-rule="evenodd" d="M105.153 19.7512C101.394 22.4832 101.177 28.5471 104.601 33.2939C108.024 38.0408 113.83 39.7288 117.589 36.9968C121.349 34.2648 121.565 28.2009 118.142 23.4541C114.719 18.7072 108.913 17.0192 105.153 19.7512ZM105.623 20.4085C108.982 17.9682 114.303 19.5151 117.487 23.9311C120.672 28.3471 120.473 33.9041 117.115 36.3444C113.757 38.7848 108.436 37.2378 105.251 32.8219C102.067 28.4059 102.265 22.8488 105.623 20.4085Z" fill="#000091"/>
<path fill-rule="evenodd" clip-rule="evenodd" d="M115.486 30.2113L115.479 30.2201C114.79 31.1242 113.687 31.7751 112.043 31.9231C111.336 31.9991 110.993 32.835 111.471 33.3655C111.957 33.9159 112.522 34.3642 113.155 34.6284C113.989 34.9769 114.872 34.9715 115.761 34.5359C116.677 34.0868 117.174 33.3748 117.29 32.4916C117.376 31.834 117.249 31.1327 116.982 30.4294C116.724 29.8083 115.904 29.6933 115.486 30.2113ZM116.231 30.7286C116.755 32.1073 116.609 33.2186 115.406 33.8086C114.182 34.4081 113.048 33.9345 112.07 32.8256C112.039 32.7912 112.062 32.7336 112.12 32.7274L112.206 32.7192C114.002 32.5381 115.269 31.7961 116.079 30.7604L116.111 30.7197C116.145 30.6763 116.214 30.6859 116.231 30.7286Z" fill="#000091"/>
<path fill-rule="evenodd" clip-rule="evenodd" d="M111.468 25.6297C111.631 25.491 111.873 25.5054 112.019 25.6582L112.036 25.6772L114.99 29.1818C115.152 29.3737 115.101 29.6636 114.889 29.7902L114.868 29.8023L113.256 30.638C113.058 30.7405 112.815 30.6627 112.713 30.4643C112.615 30.2733 112.683 30.04 112.865 29.9314L112.886 29.9195L114.048 29.3166L111.421 26.1996C111.282 26.0357 111.297 25.7935 111.449 25.6469L111.468 25.6297Z" fill="#000091"/>
<path fill-rule="evenodd" clip-rule="evenodd" d="M106.585 25.2903C107.138 24.6371 107.865 24.3209 108.729 24.5802C108.942 24.6441 109.063 24.8695 108.999 25.0834C108.936 25.2974 108.711 25.419 108.498 25.355C107.983 25.2005 107.564 25.3828 107.199 25.8138C107.096 25.9361 107.007 26.0687 106.932 26.2011C106.903 26.2529 106.881 26.2959 106.866 26.3269L106.85 26.364C106.763 26.57 106.527 26.6669 106.322 26.5806C106.117 26.4942 106.02 26.2572 106.106 26.0513L106.124 26.0104C106.148 25.9576 106.183 25.8874 106.23 25.8045C106.328 25.6296 106.446 25.4549 106.585 25.2903Z" fill="#000091"/>
<path fill-rule="evenodd" clip-rule="evenodd" d="M112.083 22.5198C112.774 22.072 113.517 21.921 114.233 22.2839C114.337 22.3368 114.438 22.4003 114.537 22.4744C114.715 22.6084 114.751 22.8618 114.617 23.0405C114.484 23.2191 114.231 23.2554 114.053 23.1214C113.992 23.0754 113.931 23.037 113.869 23.0057C113.458 22.7972 112.995 22.8912 112.52 23.1993C112.411 23.2695 112.312 23.3451 112.225 23.4203L112.19 23.4507C112.164 23.4741 112.145 23.4925 112.133 23.5043L112.127 23.5106C111.972 23.671 111.717 23.675 111.557 23.5195C111.397 23.3641 111.393 23.1081 111.548 22.9477L111.575 22.921C111.605 22.8911 111.647 22.8524 111.699 22.8071C111.813 22.709 111.941 22.6113 112.083 22.5198Z" fill="#000091"/>
<path fill-rule="evenodd" clip-rule="evenodd" d="M109.391 29.0504C109.697 28.9162 109.783 28.4369 109.584 27.9799C109.385 27.523 108.976 27.2613 108.67 27.3956C108.364 27.5298 108.278 28.0091 108.477 28.466C108.676 28.923 109.085 29.1846 109.391 29.0504Z" fill="#000091"/>
<path fill-rule="evenodd" clip-rule="evenodd" d="M115.113 26.7046C115.404 26.539 115.437 26.048 115.187 25.608C114.938 25.168 114.5 24.9456 114.21 25.1112C113.92 25.2768 113.887 25.7678 114.137 26.2078C114.386 26.6478 114.823 26.8702 115.113 26.7046Z" fill="#000091"/>
<path fill-rule="evenodd" clip-rule="evenodd" d="M98.7825 20.1295C100.757 17.3798 99.2794 6.75824 90.093 2.26969C80.7992 -2.28626 77.1059 6.59649 76.3672 8.86098C75.642 11.1255 76.2598 16.5037 83.9285 19.3073C91.5972 22.111 96.5127 23.2702 98.7825 20.1295Z" fill="#000091"/>
<path fill-rule="evenodd" clip-rule="evenodd" d="M100.893 23.7959L98.0323 21.9223C97.0115 21.2483 96.7429 19.9139 97.4413 18.9434L97.5622 18.7816C98.2606 17.7977 99.6573 17.555 100.691 18.2155L103.552 20.0891L100.893 23.7959Z" fill="#F95C5E"/>
<path fill-rule="evenodd" clip-rule="evenodd" d="M119.13 18.8745C119.13 18.8745 117.438 9.38515 104.746 17.6613C102.651 18.834 100.556 21.2333 99.7502 23.8213C98.5012 27.8246 101.228 33.8498 104.034 33.0006C104.263 32.9332 104.491 32.8523 104.719 32.758C104.625 32.6232 104.531 32.4749 104.437 32.3266C104.115 31.801 103.833 31.2753 103.591 30.7361C106.519 27.7033 104.303 22.5138 104.075 22.0421C105.122 22.2847 106.277 22.6891 106.559 23.9426L114.685 20.6672C116.068 21.6107 117.317 22.8912 118.298 24.4683C118.311 24.4818 118.324 24.5087 118.338 24.5222C118.58 23.1069 117.827 21.4355 116.377 19.9798L119.13 18.8745Z" fill="#000091"/>
<path fill-rule="evenodd" clip-rule="evenodd" d="M84.0616 66.3228C81.4024 69.1534 83.1752 73.1028 84.357 74.0868C85.5389 75.0708 87.4594 77.7531 96.1892 74.7877C101.803 72.8737 106.383 72.1458 108.921 71.8627C108.921 71.8627 111.271 65.8915 109.646 61.2412C109.646 61.2412 100.917 61.1064 94.4029 63.7887" fill="#F95C5E"/>
<path fill-rule="evenodd" clip-rule="evenodd" d="M141.37 8.09206C141.007 7.35071 140.121 5.42319 140.215 4.49313C140.336 3.29349 139.396 2.41734 138.737 3.92701C138.093 5.43667 138.684 7.18896 138.684 7.18896" fill="white"/>
<path fill-rule="evenodd" clip-rule="evenodd" d="M138.368 3.76442C138.754 2.8787 139.377 2.49023 139.973 2.84597C140.431 3.11918 140.677 3.78245 140.619 4.48645L140.615 4.53344C140.551 5.16843 141.052 6.5264 141.731 7.91335C141.829 8.11383 141.746 8.35613 141.547 8.45454C141.347 8.55296 141.105 8.47022 141.007 8.26975L140.932 8.11501C140.226 6.64979 139.746 5.32423 139.809 4.49511L139.813 4.45194C139.857 4.0146 139.722 3.63678 139.562 3.54117C139.534 3.52463 139.52 3.52485 139.475 3.55291C139.364 3.62159 139.233 3.7978 139.107 4.08579C139.04 4.24255 138.986 4.4074 138.945 4.57961C138.787 5.23212 138.813 5.94394 138.954 6.62363C138.975 6.725 138.997 6.81806 139.019 6.90153L139.032 6.95045C139.042 6.98499 139.05 7.01233 139.056 7.03195L139.065 7.05881C139.136 7.27035 139.023 7.49988 138.812 7.57148C138.601 7.64308 138.373 7.52963 138.301 7.31809L138.286 7.2715C138.252 7.16199 138.208 6.99727 138.165 6.78789C138.002 6.00098 137.972 5.17517 138.161 4.38939C138.213 4.17425 138.281 3.9665 138.368 3.76442Z" fill="#000091"/>
<path fill-rule="evenodd" clip-rule="evenodd" d="M138.95 12.4732L141.354 16.5034C143.127 16.0586 144.94 14.9803 145.988 12.9854C144.148 10.64 141.059 6.78498 140.428 6.58279C138.655 6.01667 135.942 6.19189 135.405 6.35364C134.263 6.7041 134.868 7.40502 136.063 7.49937C137.204 7.59372 139.259 7.76895 139.259 7.76895C137.487 7.80939 135.271 7.94418 134.935 8.15985C134.424 8.49683 134.854 9.4808 136.063 9.42689L139.501 9.37297C139.501 9.37297 135.647 9.79082 135.177 9.99301C134.706 10.1952 134.76 11.5296 137.137 11.1387C139.515 10.7478 139.676 10.9096 139.676 10.9096C139.676 10.9096 136.802 11.5162 136.251 11.7723C135.687 12.0418 136.238 13.4571 138.95 12.4732Z" fill="white"/>
<path fill-rule="evenodd" clip-rule="evenodd" d="M135.289 5.96709C134.532 6.19935 134.156 6.71295 134.525 7.25209L134.546 7.28122C134.66 7.43383 134.832 7.56255 135.047 7.66329L135.096 7.68547C134.921 7.72668 134.793 7.7714 134.717 7.82002C134.257 8.12385 134.204 8.71032 134.523 9.1714L134.547 9.2047C134.668 9.36933 134.829 9.50631 135.02 9.60999L135.032 9.61609L135.017 9.62209C134.498 9.84549 134.382 10.5591 134.776 11.0445L134.799 11.0718C135.024 11.332 135.365 11.5025 135.812 11.575L135.84 11.5791L135.832 11.5881C135.492 11.9606 135.631 12.5936 136.152 12.9328L136.185 12.9535C136.736 13.2917 137.59 13.3189 138.682 12.989L138.771 12.9613L141.008 16.7119C141.099 16.8647 141.28 16.9397 141.452 16.8965C143.562 16.3671 145.329 15.1068 146.344 13.1747C146.418 13.0334 146.402 12.8615 146.304 12.736L146.028 12.3842C143.081 8.63862 141.18 6.40006 140.55 6.19832C139.01 5.70658 136.218 5.68712 135.289 5.96709ZM137.451 6.60226C138.538 6.60984 139.552 6.72994 140.306 6.97076L140.319 6.97528C140.717 7.13901 142.707 9.48183 145.195 12.6321L145.506 13.0272L145.474 13.0837C144.608 14.5461 143.227 15.5397 141.575 16.0271L141.544 16.036L139.297 12.2681C139.198 12.1021 138.995 12.0297 138.814 12.0955C137.719 12.4927 136.959 12.4954 136.592 12.2562L136.57 12.2411C136.513 12.2008 136.48 12.1615 136.465 12.13L136.462 12.1239L136.512 12.1047C136.695 12.0381 137.048 11.9385 137.517 11.8208L137.818 11.7468C137.881 11.7315 137.946 11.716 138.012 11.7003C138.339 11.6224 138.687 11.5428 139.038 11.4649L139.353 11.3954L139.759 11.3079C140.072 11.2419 140.187 10.8534 139.961 10.6263C139.891 10.5561 139.809 10.5201 139.708 10.4995C139.409 10.438 138.704 10.4836 137.36 10.696L137.073 10.7423C136.144 10.895 135.596 10.7741 135.402 10.5354C135.356 10.4789 135.341 10.4242 135.349 10.3799L135.352 10.3667L135.354 10.3604C135.544 10.294 136.374 10.1631 137.505 10.0188C137.872 9.97198 138.255 9.9254 138.64 9.88039L139.541 9.77812L139.561 9.7753C140.057 9.69896 139.996 8.96341 139.494 8.97128L136.057 9.02519C135.625 9.0443 135.323 8.90991 135.186 8.71189C135.107 8.59769 135.113 8.52932 135.157 8.5003C135.225 8.45635 135.796 8.36826 136.591 8.3044L136.804 8.28804C137.532 8.23486 138.414 8.19537 139.269 8.17585C139.769 8.16445 139.8 7.43809 139.32 7.37159L138.691 7.31738L136.097 7.09899C135.845 7.07916 135.622 7.02902 135.448 6.95788L135.419 6.94563C135.353 6.91686 135.299 6.88699 135.26 6.85952L135.253 6.85446L135.262 6.84924C135.319 6.81637 135.407 6.77882 135.523 6.74296L135.561 6.73282C135.851 6.66044 136.642 6.59662 137.451 6.60226Z" fill="#000091"/>
<path fill-rule="evenodd" clip-rule="evenodd" d="M104.328 33.8673C105.904 33.8673 107.094 35.7887 107.094 38.0863C107.094 40.3609 105.927 42.2668 104.375 42.3047L104.328 42.3052H104.287C104.065 42.3052 103.885 42.1242 103.885 41.9009C103.885 41.6855 104.052 41.5095 104.264 41.4972L104.287 41.4965H104.328C105.357 41.4965 106.289 39.9939 106.289 38.0863C106.289 36.1786 105.357 34.6761 104.328 34.6761C104.105 34.6761 103.925 34.495 103.925 34.2717C103.925 34.0484 104.105 33.8673 104.328 33.8673Z" fill="#F95C5E"/>
<path fill-rule="evenodd" clip-rule="evenodd" d="M120.31 24.9705C121.49 24.9705 122.48 26.0472 122.876 27.6068C122.931 27.8233 122.801 28.0434 122.585 28.0986C122.369 28.1537 122.15 28.023 122.095 27.8066C121.78 26.5666 121.057 25.7792 120.31 25.7792C120.087 25.7792 119.907 25.5982 119.907 25.3748C119.907 25.1515 120.087 24.9705 120.31 24.9705Z" fill="#F95C5E"/>
<path fill-rule="evenodd" clip-rule="evenodd" d="M151.859 60.3096C154.003 60.3096 154.817 62.1253 153.695 64.1795L153.661 64.2418L140.082 88.4376C138.989 90.375 136.573 91.9405 134.607 91.9716L134.547 91.9721H109.983C107.84 91.9721 107.025 90.1564 108.148 88.1015L108.178 88.0467L113.467 77.8613C113.566 77.6706 113.795 77.5922 113.988 77.6788L114.011 77.6896C114.201 77.789 114.279 78.0191 114.192 78.2129L114.182 78.2351L108.89 88.4253L108.883 88.4376C108 90.0034 108.481 91.1404 109.939 91.163L109.983 91.1634H134.547C136.202 91.1634 138.367 89.7828 139.349 88.0945L139.38 88.04L152.959 63.8441C153.851 62.2625 153.351 61.1184 151.859 61.1184C151.637 61.1184 151.456 60.9373 151.456 60.714C151.456 60.4907 151.637 60.3096 151.859 60.3096Z" fill="#000091"/>
<path fill-rule="evenodd" clip-rule="evenodd" d="M239.596 116.236C239.818 116.235 239.999 116.415 240 116.639C240.001 116.854 239.834 117.031 239.622 117.044L239.599 117.045L0.404494 117.988C0.181974 117.989 0.000877764 117.809 3.17927e-06 117.586C-0.00084017 117.37 0.166203 117.193 0.377655 117.18L0.401326 117.18L239.596 116.236Z" fill="#000091"/>
</svg>
