
<svg width="242" height="121" viewBox="0 0 242 121" fill="none" xmlns="http://www.w3.org/2000/svg">
<path fill-rule="evenodd" clip-rule="evenodd" d="M174.236 119.671H68.1754C65.7021 119.671 63.7021 117.677 63.7021 115.212V5.56934C63.7021 3.10376 65.7021 1.10999 68.1754 1.10999H174.236C176.71 1.10999 178.71 3.10376 178.71 5.56934V115.212C178.71 117.677 176.71 119.671 174.236 119.671Z" fill="#F5F5FE"/>
<path fill-rule="evenodd" clip-rule="evenodd" d="M73.1677 1.1861C73.4207 1.1861 73.6257 1.39052 73.6257 1.64269C73.6257 1.89485 73.4207 2.09928 73.1677 2.09928C71.2313 2.09928 69.6575 3.71427 69.6262 5.73625L69.6257 5.79765V115.105C69.6257 115.357 69.4207 115.562 69.1677 115.562C68.9238 115.562 68.7244 115.372 68.7105 115.132L68.7097 115.105V5.79765C68.7097 3.25098 70.6971 1.1861 73.1677 1.1861Z" fill="#FCBFB7"/>
<path fill-rule="evenodd" clip-rule="evenodd" d="M107.931 0.881714C108.175 0.881714 108.374 1.0718 108.388 1.31148L108.389 1.3383V102.503C108.389 102.755 108.184 102.96 107.931 102.96C107.687 102.96 107.488 102.77 107.474 102.53L107.473 102.503V1.3383C107.473 1.08614 107.678 0.881714 107.931 0.881714Z" fill="#FCBFB7"/>
<path fill-rule="evenodd" clip-rule="evenodd" d="M131.595 11.6116H130.771C130.343 11.6116 130.008 11.2767 130.008 10.8506V9.2373C130.008 8.81115 130.343 8.47632 130.771 8.47632H131.595C132.023 8.47632 132.359 8.81115 132.359 9.2373V10.8506C132.359 11.2615 132.008 11.6116 131.595 11.6116Z" fill="#FCBFB7"/>
<path fill-rule="evenodd" clip-rule="evenodd" d="M128.343 11.6116H113.717C113.29 11.6116 112.954 11.2767 112.954 10.8506V9.2373C112.954 8.81115 113.29 8.47632 113.717 8.47632H128.343C128.771 8.47632 129.107 8.81115 129.107 9.2373V10.8506C129.107 11.2615 128.756 11.6116 128.343 11.6116Z" fill="#FCBFB7"/>
<path fill-rule="evenodd" clip-rule="evenodd" d="M129.809 26.1768H113.717C113.29 26.1768 112.954 25.8419 112.954 25.4158V23.8025C112.954 23.3763 113.29 23.0415 113.717 23.0415H129.809C130.237 23.0415 130.572 23.3763 130.572 23.8025V25.4158C130.572 25.8419 130.221 26.1768 129.809 26.1768Z" fill="#FCBFB7"/>
<path fill-rule="evenodd" clip-rule="evenodd" d="M143.962 21.3217H118.16C117.733 21.3217 117.397 20.9869 117.397 20.5607V18.9474C117.397 18.5213 117.733 18.1865 118.16 18.1865H143.962C144.389 18.1865 144.725 18.5213 144.725 18.9474V20.5607C144.725 20.9869 144.389 21.3217 143.962 21.3217Z" fill="#FCBFB7"/>
<path fill-rule="evenodd" clip-rule="evenodd" d="M157.901 21.3217H147.03C146.603 21.3217 146.267 20.9869 146.267 20.5607V18.9474C146.267 18.5213 146.603 18.1865 147.03 18.1865H157.901C158.328 18.1865 158.664 18.5213 158.664 18.9474V20.5607C158.664 20.9869 158.313 21.3217 157.901 21.3217Z" fill="#FCBFB7"/>
<path fill-rule="evenodd" clip-rule="evenodd" d="M169.672 39.007H168.847C168.42 39.007 168.084 38.6721 168.084 38.246V36.6327C168.084 36.2065 168.42 35.8717 168.847 35.8717H169.672C170.099 35.8717 170.435 36.2065 170.435 36.6327V38.246C170.435 38.6721 170.099 39.007 169.672 39.007Z" fill="#FCBFB7"/>
<path fill-rule="evenodd" clip-rule="evenodd" d="M164.725 43.9381H163.901C163.473 43.9381 163.137 43.6033 163.137 43.1771V41.5638C163.137 41.1377 163.473 40.8029 163.901 40.8029H164.725C165.152 40.8029 165.488 41.1377 165.488 41.5638V43.1771C165.488 43.6033 165.137 43.9381 164.725 43.9381Z" fill="#FCBFB7"/>
<path fill-rule="evenodd" clip-rule="evenodd" d="M140.435 16.4666H113.717C113.29 16.4666 112.954 16.1318 112.954 15.7056V14.0923C112.954 13.6662 113.29 13.3314 113.717 13.3314H140.45C140.878 13.3314 141.214 13.6662 141.214 14.0923V15.7056C141.198 16.1318 140.863 16.4666 140.435 16.4666Z" fill="#FCBFB7"/>
<path fill-rule="evenodd" clip-rule="evenodd" d="M148.786 11.6116H134.16C133.733 11.6116 133.397 11.2767 133.397 10.8506V9.2373C133.397 8.81115 133.733 8.47632 134.16 8.47632H148.786C149.214 8.47632 149.549 8.81115 149.549 9.2373V10.8506C149.549 11.2615 149.198 11.6116 148.786 11.6116Z" fill="#FCBFB7"/>
<path fill-rule="evenodd" clip-rule="evenodd" d="M160.435 16.4818H143.229C142.801 16.4818 142.466 16.147 142.466 15.7208V14.0923C142.466 13.6662 142.801 13.3314 143.229 13.3314H160.435C160.863 13.3314 161.198 13.6662 161.198 14.0923V15.7208C161.198 16.1318 160.863 16.4818 160.435 16.4818Z" fill="#FCBFB7"/>
<path fill-rule="evenodd" clip-rule="evenodd" d="M128.343 38.9765H113.717C113.29 38.9765 112.954 38.6417 112.954 38.2155V36.6022C112.954 36.1761 113.29 35.8412 113.717 35.8412H128.343C128.771 35.8412 129.107 36.1761 129.107 36.6022V38.2155C129.107 38.6417 128.756 38.9765 128.343 38.9765Z" fill="#FCBFB7"/>
<path fill-rule="evenodd" clip-rule="evenodd" d="M160.252 48.7018H147.015C146.588 48.7018 146.252 48.367 146.252 47.9409V46.3276C146.252 45.9014 146.588 45.5666 147.015 45.5666H160.252C160.679 45.5666 161.015 45.9014 161.015 46.3276V47.9409C161.015 48.3518 160.679 48.7018 160.252 48.7018Z" fill="#FCBFB7"/>
<path fill-rule="evenodd" clip-rule="evenodd" d="M140.435 43.8315H113.717C113.29 43.8315 112.954 43.4967 112.954 43.0706V41.4573C112.954 41.0311 113.29 40.6963 113.717 40.6963H140.45C140.878 40.6963 141.214 41.0311 141.214 41.4573V43.0706C141.198 43.4967 140.863 43.8315 140.435 43.8315Z" fill="#FCBFB7"/>
<path fill-rule="evenodd" clip-rule="evenodd" d="M148.786 38.9765H130.771C130.343 38.9765 130.008 38.6417 130.008 38.2155V36.6022C130.008 36.1761 130.343 35.8412 130.771 35.8412H148.786C149.214 35.8412 149.55 36.1761 149.55 36.6022V38.2155C149.55 38.6417 149.198 38.9765 148.786 38.9765Z" fill="#FCBFB7"/>
<path fill-rule="evenodd" clip-rule="evenodd" d="M166.191 38.9765H151.565C151.137 38.9765 150.802 38.6417 150.802 38.2155V36.6022C150.802 36.1761 151.137 35.8412 151.565 35.8412H166.191C166.618 35.8412 166.954 36.1761 166.954 36.6022V38.2155C166.954 38.6417 166.603 38.9765 166.191 38.9765Z" fill="#FCBFB7"/>
<path fill-rule="evenodd" clip-rule="evenodd" d="M131.595 34.2736H130.771C130.343 34.2736 130.008 33.9388 130.008 33.5126V31.8993C130.008 31.4732 130.343 31.1384 130.771 31.1384H131.595C132.023 31.1384 132.359 31.4732 132.359 31.8993V33.5126C132.359 33.9388 132.008 34.2736 131.595 34.2736Z" fill="#FCBFB7"/>
<path fill-rule="evenodd" clip-rule="evenodd" d="M128.343 34.2736H113.717C113.29 34.2736 112.954 33.9388 112.954 33.5126V31.8993C112.954 31.4732 113.29 31.1384 113.717 31.1384H128.343C128.771 31.1384 129.107 31.4732 129.107 31.8993V33.5126C129.107 33.9388 128.756 34.2736 128.343 34.2736Z" fill="#FCBFB7"/>
<path fill-rule="evenodd" clip-rule="evenodd" d="M148.786 34.2736H134.16C133.733 34.2736 133.397 33.9388 133.397 33.5126V31.8993C133.397 31.4732 133.733 31.1384 134.16 31.1384H148.786C149.214 31.1384 149.549 31.4732 149.549 31.8993V33.5126C149.549 33.9388 149.198 34.2736 148.786 34.2736Z" fill="#FCBFB7"/>
<path fill-rule="evenodd" clip-rule="evenodd" d="M161.641 43.8468H143.244C142.817 43.8468 142.481 43.5119 142.481 43.0858V41.4573C142.481 41.0311 142.817 40.6963 143.244 40.6963H161.641C162.068 40.6963 162.404 41.0311 162.404 41.4573V43.0858C162.404 43.5119 162.053 43.8468 161.641 43.8468Z" fill="#FCBFB7"/>
<path fill-rule="evenodd" clip-rule="evenodd" d="M95.5191 40.7267H78.4504C78.0229 40.7267 77.687 40.3919 77.687 39.9658V38.3525C77.687 37.9263 78.0229 37.5915 78.4504 37.5915H95.5191C95.9465 37.5915 96.2824 37.9263 96.2824 38.3525V39.9658C96.2824 40.3919 95.9465 40.7267 95.5191 40.7267Z" fill="#FCBFB7"/>
<path fill-rule="evenodd" clip-rule="evenodd" d="M81.4885 36.1609H78.4504C78.0229 36.1609 77.687 35.826 77.687 35.3999V33.7866C77.687 33.3605 78.0229 33.0256 78.4504 33.0256H81.4885C81.916 33.0256 82.2519 33.3605 82.2519 33.7866V35.3999C82.2519 35.826 81.916 36.1609 81.4885 36.1609Z" fill="#FCBFB7"/>
<path fill-rule="evenodd" clip-rule="evenodd" d="M87.4427 30.8035H78.4504C78.0229 30.8035 77.687 30.4687 77.687 30.0425V28.4293C77.687 28.0031 78.0229 27.6683 78.4504 27.6683H87.4427C87.8702 27.6683 88.2061 28.0031 88.2061 28.4293V30.0425C88.2061 30.4687 87.8549 30.8035 87.4427 30.8035Z" fill="#FCBFB7"/>
<path fill-rule="evenodd" clip-rule="evenodd" d="M90.8015 26.1159H78.4504C78.0229 26.1159 77.687 25.7811 77.687 25.3549V23.7416C77.687 23.3155 78.0229 22.9807 78.4504 22.9807H90.8015C91.229 22.9807 91.5649 23.3155 91.5649 23.7416V25.3549C91.5649 25.7811 91.229 26.1159 90.8015 26.1159Z" fill="#FCBFB7"/>
<path fill-rule="evenodd" clip-rule="evenodd" d="M87.4427 21.3521H78.4504C78.0229 21.3521 77.687 21.0173 77.687 20.5911V18.9778C77.687 18.5517 78.0229 18.2169 78.4504 18.2169H87.4427C87.8702 18.2169 88.2061 18.5517 88.2061 18.9778V20.5911C88.2061 21.0173 87.8549 21.3521 87.4427 21.3521Z" fill="#FCBFB7"/>
<path fill-rule="evenodd" clip-rule="evenodd" d="M83.8244 16.3144H78.4504C78.0229 16.3144 77.687 15.9796 77.687 15.5535V13.9402C77.687 13.514 78.0229 13.1792 78.4504 13.1792H83.8244C84.2519 13.1792 84.5878 13.514 84.5878 13.9402V15.5535C84.5878 15.9796 84.2366 16.3144 83.8244 16.3144Z" fill="#FCBFB7"/>
<path fill-rule="evenodd" clip-rule="evenodd" d="M87.6565 16.3144H86.3588C86.084 16.3144 85.855 16.0862 85.855 15.8122V13.6814C85.855 13.4075 86.084 13.1792 86.3588 13.1792H87.6565C87.9313 13.1792 88.1603 13.4075 88.1603 13.6814V15.8122C88.1603 16.0862 87.9313 16.3144 87.6565 16.3144Z" fill="#FCBFB7"/>
<path fill-rule="evenodd" clip-rule="evenodd" d="M91.1526 21.2913H89.8549C89.5801 21.2913 89.3511 21.063 89.3511 20.789V18.6583C89.3511 18.3843 89.5801 18.156 89.8549 18.156H91.1526C91.4274 18.156 91.6564 18.3843 91.6564 18.6583V20.789C91.6564 21.0782 91.4274 21.2913 91.1526 21.2913Z" fill="#FCBFB7"/>
<path fill-rule="evenodd" clip-rule="evenodd" d="M94.8779 26.1311H93.5802C93.3054 26.1311 93.0764 25.9028 93.0764 25.6288V23.4981C93.0764 23.2241 93.3054 22.9958 93.5802 22.9958H94.8779C95.1528 22.9958 95.3818 23.2241 95.3818 23.4981V25.6288C95.3818 25.9028 95.1528 26.1311 94.8779 26.1311Z" fill="#FCBFB7"/>
<path fill-rule="evenodd" clip-rule="evenodd" d="M91.2595 30.8492H89.9618C89.687 30.8492 89.458 30.6209 89.458 30.3469V28.2162C89.458 27.9422 89.687 27.7139 89.9618 27.7139H91.2595C91.5343 27.7139 91.7633 27.9422 91.7633 28.2162V30.3469C91.7633 30.6209 91.5496 30.8492 91.2595 30.8492Z" fill="#FCBFB7"/>
<path fill-rule="evenodd" clip-rule="evenodd" d="M85.168 36.1609H83.8703C83.5955 36.1609 83.3665 35.9326 83.3665 35.6586V33.5279C83.3665 33.2539 83.5955 33.0256 83.8703 33.0256H85.168C85.4428 33.0256 85.6718 33.2539 85.6718 33.5279V35.6586C85.6718 35.9478 85.4428 36.1609 85.168 36.1609Z" fill="#FCBFB7"/>
<path fill-rule="evenodd" clip-rule="evenodd" d="M98.9085 40.7267H97.6108C97.3359 40.7267 97.1069 40.4984 97.1069 40.2245V38.0937C97.1069 37.8198 97.3359 37.5915 97.6108 37.5915H98.9085C99.1833 37.5915 99.4123 37.8198 99.4123 38.0937V40.2245C99.4123 40.4984 99.1833 40.7267 98.9085 40.7267Z" fill="#FCBFB7"/>
<path fill-rule="evenodd" clip-rule="evenodd" d="M89.4427 11.2767H78.2519C77.8244 11.2767 77.4885 10.9419 77.4885 10.5157V8.90246C77.4885 8.47631 77.8244 8.14148 78.2519 8.14148H89.4427C89.8702 8.14148 90.2061 8.47631 90.2061 8.90246V10.5157C90.2061 10.9267 89.8702 11.2767 89.4427 11.2767Z" fill="#FCBFB7"/>
<rect x="21.5955" y="80.3892" width="45.5573" height="39.1601" fill="#FCBFB7"/>
<path fill-rule="evenodd" clip-rule="evenodd" d="M67.1527 79.9326H21.5955C21.3425 79.9326 21.1375 80.137 21.1375 80.3891V119.549C21.1375 119.801 21.3425 120.006 21.5955 120.006H67.1527C67.4057 120.006 67.6107 119.801 67.6107 119.549V80.3891C67.6107 80.137 67.4057 79.9326 67.1527 79.9326ZM66.6945 80.8457V119.093H22.0533V80.8457H66.6945Z" fill="#000091"/>
<path fill-rule="evenodd" clip-rule="evenodd" d="M82.4504 43.101C82.4504 43.101 85.3054 42.3248 86.939 40.7876C87.9008 39.8592 89.1527 38.6264 89.1222 38.2155C89.0764 37.4545 87.4733 38.6264 87.2138 38.7786" fill="white"/>
<path fill-rule="evenodd" clip-rule="evenodd" d="M88.4215 38.5786L88.3643 38.6082C88.2929 38.6457 88.218 38.6876 88.1394 38.7336L88.0393 38.7936C87.8426 38.9143 87.4652 39.1608 87.4459 39.1721C87.2279 39.3 86.9472 39.2274 86.8189 39.0101C86.6954 38.8008 86.7583 38.5335 86.9578 38.3999L87.3552 38.1438C87.4484 38.0845 87.5408 38.0265 87.6078 37.9863C87.7221 37.9178 87.8316 37.8558 87.9371 37.8003C88.2538 37.6339 88.5217 37.5316 88.7612 37.5088C89.1877 37.4683 89.5325 37.7067 89.576 38.1457L89.5788 38.1817C89.621 38.7485 89.0189 39.4154 87.2533 41.1196C86.7685 41.5758 86.165 41.9898 85.4693 42.3654C84.8347 42.7081 84.158 43.001 83.4816 43.2453C83.2746 43.3201 83.0803 43.3857 82.9024 43.4421L82.699 43.5046C82.6432 43.5212 82.6001 43.5335 82.5708 43.5415C82.3268 43.6078 82.075 43.4644 82.0084 43.2211C81.9419 42.9778 82.0858 42.7268 82.3298 42.6605L82.3854 42.6447C82.4242 42.6334 82.4683 42.6203 82.5173 42.6053L82.5549 42.5937C82.7399 42.5363 82.9466 42.4673 83.1695 42.3868C83.8061 42.1569 84.4422 41.8815 85.033 41.5625C85.6637 41.2219 86.2037 40.8515 86.6203 40.4596L86.9922 40.0986C87.4334 39.6674 87.7515 39.3438 88.0265 39.0414L88.0622 39.002C88.1834 38.8678 88.2885 38.7453 88.3765 38.6357L88.4215 38.5786Z" fill="#000091"/>
<path fill-rule="evenodd" clip-rule="evenodd" d="M83.9923 40.5745C83.9923 40.5745 85.351 39.4026 85.8243 38.4285C86.2976 37.4545 86.6182 36.7087 86.4656 36.5717C86.3129 36.4348 85.4274 36.6783 85.0762 37.2566C84.6946 38.2307 83.1068 39.5548 83.1068 39.5548C83.3052 39.4787 84.2671 38.3981 84.7251 37.7284C85.1678 37.0588 85.1984 36.0238 83.8091 37.1805C83.8091 37.1805 82.3587 38.4742 81.7938 38.8547C81.7938 38.8547 79.2442 39.8135 78.603 40.8941C78.1755 41.6247 74.8014 47.2103 72.1449 50.8478C70.5114 52.5524 67.4274 62.993 72.4503 61.8364C73.5037 61.6233 74.6793 60.634 75.0304 59.736L81.7175 43.4358C83.2594 42.7966 84.2976 42.1117 84.9694 41.5181C85.8396 40.7419 88.2671 37.5154 88.2518 37.1805C88.1907 36.2673 86.6946 36.6478 85.9312 38.3068" fill="white"/>
<path fill-rule="evenodd" clip-rule="evenodd" d="M85.2756 36.4335L85.2773 36.4325C85.8003 36.0892 86.458 35.9506 86.7721 36.2324C86.8522 36.3042 86.9065 36.3791 86.9388 36.4616L86.9418 36.4698L86.9878 36.4453C87.0372 36.4197 87.0868 36.3962 87.1365 36.375L87.1864 36.3546C87.9395 36.0573 88.6558 36.355 88.7095 37.1599C88.7245 37.4899 88.2314 38.2361 87.3087 39.4583L87.2068 39.5929C86.4424 40.5969 85.6909 41.4873 85.2733 41.8598C84.5089 42.5352 83.4647 43.1808 82.1378 43.754L82.0698 43.783L75.4573 59.9019C75.0492 60.9454 73.7702 62.0089 72.6104 62.2691L72.5535 62.2812C71.1622 62.6016 70.1519 62.1439 69.6383 61.039C69.227 60.1539 69.1492 58.8841 69.3473 57.3565C69.6807 54.785 70.8134 51.6615 71.7523 50.5994L71.7912 50.5563L71.853 50.4716C72.9271 48.9934 74.1861 47.1087 75.527 45.003L75.9202 44.3828C76.8803 42.8619 77.8379 41.2956 78.2089 40.6616C78.5057 40.1614 79.0946 39.6964 79.9003 39.2416C80.2799 39.0274 80.6842 38.8297 81.0882 38.6524C81.2059 38.6008 81.3167 38.5539 81.4187 38.5122L81.5782 38.4482L81.5863 38.4427C81.7486 38.3283 81.9921 38.1355 82.2929 37.8852L82.4884 37.7213C82.6708 37.5672 82.8605 37.4042 83.05 37.2392L83.5156 36.8301C83.8888 36.5193 84.2014 36.3262 84.4698 36.2464C84.7725 36.1564 85.0619 36.2065 85.2519 36.4072L85.2756 36.4335ZM85.9171 37.1146L85.8874 37.1297C85.7181 37.2186 85.5756 37.3354 85.4887 37.4614L85.4846 37.4676L85.4789 37.4816C85.3951 37.6786 85.2747 37.8848 85.1216 38.1014L85.0747 38.1668C84.9046 38.4 84.6998 38.6423 84.4674 38.8906C84.273 39.0984 84.0678 39.3014 83.8609 39.4946L83.8046 39.5464L83.8002 39.5511C83.5872 39.764 83.4034 39.9208 83.2896 39.9732L83.2713 39.9809C82.7965 40.163 82.4287 39.5568 82.7935 39.2217L82.8944 39.135L82.9789 39.0609C83.0082 39.0349 83.0387 39.0076 83.0702 38.9792L83.1182 38.9356L83.2139 38.8471L83.2514 38.8076C83.3077 38.7477 83.3673 38.6827 83.4291 38.6139L83.4757 38.5616C83.8078 38.1874 84.1419 37.7708 84.3428 37.4772C84.3838 37.4152 84.4203 37.3485 84.4505 37.2818L84.4584 37.263L84.4448 37.2721C84.3572 37.3304 84.2569 37.4049 84.1452 37.496L84.1069 37.5277L83.846 37.758L83.7965 37.8014C83.6046 37.9694 83.4104 38.1375 83.2213 38.2986L82.9858 38.4978L82.8248 38.6321C82.4954 38.9049 82.2329 39.1101 82.0503 39.233C82.0208 39.2529 81.989 39.2693 81.9556 39.2819L81.8222 39.3344L81.7082 39.381C81.6295 39.4137 81.5455 39.4495 81.4572 39.4882C81.0794 39.654 80.7018 39.8387 80.3517 40.0363C79.6753 40.418 79.1907 40.8007 78.9987 41.1242L78.8152 41.434C78.3802 42.1618 77.5946 43.442 76.7936 44.7135L76.3987 45.3378C74.9789 47.5724 73.6459 49.5685 72.5153 51.1165C72.5034 51.1329 72.4903 51.1485 72.4762 51.1632C71.6867 51.987 70.5738 55.0207 70.2558 57.4736C70.0779 58.8457 70.1461 59.9592 70.4695 60.6551C70.7961 61.3578 71.3681 61.617 72.3593 61.3889C73.2278 61.2132 74.265 60.3698 74.5894 59.6056L81.2937 43.263C81.3398 43.1504 81.4291 43.0609 81.5417 43.0142C82.8953 42.4531 83.934 41.8229 84.6641 41.1779L84.7131 41.1329C85.0874 40.7816 85.7811 39.955 86.4813 39.0352L86.5768 38.9093C86.935 38.4348 87.2564 37.9858 87.4854 37.6392L87.5459 37.5467C87.623 37.4275 87.6858 37.3251 87.7323 37.2426L87.7613 37.1897L87.7791 37.155L87.7749 37.1541C87.732 37.1471 87.6544 37.156 87.5521 37.1929L87.5236 37.2036C87.1082 37.3676 86.6525 37.8345 86.3476 38.4972C86.3225 38.5517 86.288 38.599 86.2468 38.638L86.2194 38.6615L86.2028 38.6952C86.1442 38.8084 86.0757 38.9245 85.9977 39.0435L85.9497 39.1152C85.7789 39.3662 85.5696 39.627 85.3299 39.8942C85.103 40.1471 84.861 40.3925 84.6191 40.6214L84.5204 40.7139C84.4885 40.7434 84.4577 40.7717 84.4281 40.7986L84.3005 40.9125L84.2921 40.9198C84.1008 41.0848 83.8115 41.0639 83.646 40.8732C83.4869 40.6899 83.5001 40.4162 83.6714 40.2488L83.7714 40.1596L83.8532 40.0852C83.8959 40.046 83.9411 40.0039 83.9883 39.9592C84.2133 39.7462 84.4383 39.5182 84.6472 39.2854C84.8615 39.0465 85.0461 38.8164 85.1917 38.6026C85.2827 38.4689 85.3567 38.3438 85.4123 38.2295L85.5111 38.0247C85.6681 37.6966 85.7873 37.4339 85.8748 37.2206L85.9171 37.1146Z" fill="#000091"/>
<path fill-rule="evenodd" clip-rule="evenodd" d="M72.3435 49.5389L76.0534 42.8118L81.9008 44.1968L76.8931 56.5856L72.3435 49.5389Z" fill="#6A6AF4"/>
<path fill-rule="evenodd" clip-rule="evenodd" d="M48.5115 98.8201L48.6947 119.854H51.8397L52.0229 113.294C52.0229 113.294 53.3054 119.701 57.687 119.991C62.084 120.28 65.8703 119.077 65.8397 118.91C65.8245 118.819 65.9771 117.54 66.1145 116.277C66.2367 115.181 65.1985 114.116 64.0687 114.192C62.3741 114.283 60.1603 114.162 58.8168 113.035C56.4199 111.041 56.7252 96.5372 56.7252 96.5372L48.5115 98.8201Z" fill="#000091"/>
<path fill-rule="evenodd" clip-rule="evenodd" d="M53.8855 98.8202L56.9237 119.854H60.0687L60.1908 116.11C60.1908 116.11 61.5191 119.717 65.916 120.006C70.313 120.295 74.0992 119.093 74.0687 118.925C74.0534 118.834 74.2061 117.556 74.3435 116.292C74.4657 115.197 73.4275 114.131 72.2977 114.207C70.6031 114.299 69.1679 112.016 67.8244 110.889C65.4275 108.896 64.9542 96.5524 64.9542 96.5524L53.8855 98.8202Z" fill="#000091"/>
<path fill-rule="evenodd" clip-rule="evenodd" d="M73.6107 77.2691C72.4809 74.697 58.771 67.1176 58.771 67.1176C58.771 67.1176 64.832 50.8935 61.4122 46.1145C58.4351 42.0965 53.061 42.2944 53.061 42.2944L43.2442 41.9291V41.8834H41.6412C39.916 41.8834 37.5649 43.725 37.3053 45.7036C36.832 49.3563 35.4122 54.394 34.4351 58.5946C32.145 65.5956 29.8244 76.0363 34.4809 80.4044C34.5114 80.4652 46.374 80.4044 46.374 80.4044L46.3893 112.898H70.0381C70.0534 112.914 74.7252 79.826 73.6107 77.2691Z" fill="#6A6AF4"/>
<path fill-rule="evenodd" clip-rule="evenodd" d="M45.4455 37.022C45.5586 36.7965 45.8337 36.7051 46.06 36.8178C46.2862 36.9306 46.378 37.2049 46.2648 37.4304C46.0404 37.8778 45.9595 38.5021 46.0637 39.1513C46.2411 40.3135 46.9284 41.1387 47.4967 41.0981L47.5245 41.0954C47.7756 41.0647 48.0041 41.2427 48.035 41.4929C48.0658 41.7432 47.8873 41.971 47.6362 42.0018C46.4628 42.1454 45.4037 40.8977 45.1586 39.2921C45.0258 38.4647 45.1317 37.6476 45.4455 37.022Z" fill="#F95C5E"/>
<path fill-rule="evenodd" clip-rule="evenodd" d="M57.5676 36.6111C57.6807 36.3855 57.9558 36.2941 58.1821 36.4069C58.4083 36.5197 58.5 36.7939 58.3869 37.0195C58.1625 37.4669 58.0816 38.0911 58.1858 38.7404C58.3632 39.9026 59.0505 40.7277 59.6187 40.6872L59.6466 40.6845C59.8977 40.6537 60.1262 40.8317 60.157 41.082C60.1879 41.3323 60.0093 41.5601 59.7583 41.5908C58.5849 41.7345 57.5258 40.4867 57.2807 38.8812C57.1479 38.0538 57.2538 37.2366 57.5676 36.6111Z" fill="#F95C5E"/>
<path fill-rule="evenodd" clip-rule="evenodd" d="M46.6032 27.1204C48.4657 25.7506 49.7024 18.5517 44.649 13.7271C39.5192 8.84157 35.2596 13.8336 34.3131 15.1425C33.3665 16.4514 32.649 20.0737 37.0764 23.4981C41.5192 26.9073 44.481 28.688 46.6032 27.1204Z" fill="#000091"/>
<path fill-rule="evenodd" clip-rule="evenodd" d="M49.3206 30.3013L49.1985 30.3774C48.5115 30.8188 47.5497 30.6361 47.0611 29.9512L45.7023 28.0488C45.2138 27.3639 45.3817 26.4507 46.0687 26.0093L46.1909 25.9332C46.8779 25.4919 47.8397 25.6745 48.3283 26.3594L49.6871 28.2619C50.1756 28.9467 50.0077 29.8599 49.3206 30.3013Z" fill="#F95C5E"/>
<path fill-rule="evenodd" clip-rule="evenodd" d="M48.3798 36.3378C48.7681 35.526 48.3855 34.5365 47.5255 34.1278C46.6654 33.719 45.6534 34.0459 45.2652 34.8578C44.877 35.6697 45.2595 36.6591 46.1196 37.0679C46.9797 37.4766 47.9916 37.1497 48.3798 36.3378Z" fill="white"/>
<path fill-rule="evenodd" clip-rule="evenodd" d="M44.8529 34.6625C44.3526 35.7079 44.8383 36.967 45.9212 37.4812C47.0041 37.9954 48.2918 37.5784 48.792 36.5331C49.2922 35.4877 48.8065 34.2286 47.7237 33.7143C46.6408 33.2001 45.3531 33.6171 44.8529 34.6625ZM45.6791 35.055C45.9564 34.4755 46.6926 34.2371 47.3289 34.5392C47.9651 34.8414 48.2428 35.5612 47.9655 36.1407C47.6882 36.7202 46.952 36.9586 46.3158 36.6564C45.6795 36.3543 45.4019 35.6344 45.6791 35.055Z" fill="#000091"/>
<path fill-rule="evenodd" clip-rule="evenodd" d="M60.2292 35.7838C60.6174 34.9719 60.2349 33.9825 59.3748 33.5737C58.5147 33.165 57.5028 33.4919 57.1146 34.3038C56.7263 35.1156 57.1089 36.1051 57.969 36.5138C58.829 36.9226 59.841 36.5957 60.2292 35.7838Z" fill="white"/>
<path fill-rule="evenodd" clip-rule="evenodd" d="M56.7022 34.1085C56.202 35.1539 56.6877 36.413 57.7706 36.9272C58.8534 37.4414 60.1411 37.0244 60.6414 35.979C61.1416 34.9337 60.6559 33.6745 59.573 33.1603C58.4901 32.6461 57.2024 33.0631 56.7022 34.1085ZM57.5285 34.5009C57.8058 33.9215 58.542 33.6831 59.1782 33.9852C59.8145 34.2874 60.0921 35.0072 59.8149 35.5867C59.5376 36.1661 58.8014 36.4045 58.1651 36.1024C57.5289 35.8003 57.2512 35.0804 57.5285 34.5009Z" fill="#000091"/>
<path fill-rule="evenodd" clip-rule="evenodd" d="M53.8399 40.4376L53.9315 42.8727L55.9773 43.3293C56.0994 43.6641 56.2215 49.4172 50.9391 48.7019C47.4734 48.23 45.8551 45.1405 44.9238 42.3096L47.8704 42.5075L47.8857 35.6282L53.8399 40.4376Z" fill="white"/>
<path fill-rule="evenodd" clip-rule="evenodd" d="M47.4276 35.6272L47.4134 42.019L44.9545 41.854C44.6305 41.8323 44.3874 42.1443 44.4886 42.4519C45.0543 44.1714 45.73 45.5659 46.6238 46.6761C47.7371 48.059 49.1395 48.9177 50.8771 49.1542C53.4096 49.4972 55.0665 48.4887 55.904 46.5934C56.4335 45.395 56.5939 43.6839 56.4076 43.1733L56.396 43.1445C56.3375 43.0127 56.2195 42.9155 56.0773 42.8837L54.3757 42.5039L54.2975 40.4205C54.2925 40.2888 54.2308 40.1657 54.1281 40.0828L48.1739 35.2734C47.8749 35.0318 47.4284 35.2434 47.4276 35.6272ZM48.3413 36.5838L53.3899 40.6618L53.4737 42.8898L53.4756 42.9179C53.495 43.1127 53.6376 43.275 53.8313 43.3183L55.5546 43.7028L55.5546 43.697C55.5594 43.8906 55.5513 44.1224 55.5283 44.3681C55.468 45.0117 55.3174 45.6558 55.0657 46.2253C54.3875 47.7601 53.1135 48.5355 51.0007 48.2494L50.9182 48.2376C48.3992 47.8601 46.7723 46.0157 45.6151 42.9004L45.5824 42.8114L47.8395 42.963C48.1036 42.9807 48.3278 42.7723 48.3283 42.5085L48.3413 36.5838Z" fill="#000091"/>
<path fill-rule="evenodd" clip-rule="evenodd" d="M54.09 41.8391C57.0505 41.2968 58.8835 37.7812 58.1842 33.9867C57.4849 30.1922 54.518 27.5557 51.5575 28.098C48.597 28.6402 46.764 32.1558 47.4633 35.9503C48.1626 39.7448 51.1295 42.3813 54.09 41.8391Z" fill="white"/>
<path fill-rule="evenodd" clip-rule="evenodd" d="M51.4715 27.6462C48.2357 28.2376 46.2731 32.0073 47.016 36.0301C47.7589 40.0529 50.9402 42.8823 54.176 42.2908C57.4117 41.6993 59.3743 37.9297 58.6314 33.9069C57.8885 29.884 54.7073 27.0547 51.4715 27.6462ZM51.6374 28.5447C54.3193 28.0544 57.0718 30.5025 57.7309 34.0715C58.39 37.6404 56.6919 40.902 54.01 41.3923C51.3281 41.8825 48.5756 39.4345 47.9165 35.8655C47.2574 32.2965 48.9555 29.0349 51.6374 28.5447Z" fill="#000091"/>
<path fill-rule="evenodd" clip-rule="evenodd" d="M53.6463 33.1169C53.8821 33.0546 54.1236 33.1875 54.1987 33.4156L54.2063 33.4414L54.952 36.2485C55.0619 36.6318 54.7897 37.0244 54.4011 37.0427L54.3724 37.0434L53.3343 37.0738C53.0814 37.0812 52.8704 36.8829 52.863 36.6308C52.8558 36.3878 53.0406 36.1835 53.2805 36.1626L53.3073 36.161L53.9759 36.1415L53.3208 33.6752C53.2584 33.4401 53.3916 33.1993 53.6205 33.1245L53.6463 33.1169Z" fill="#000091"/>
<path fill-rule="evenodd" clip-rule="evenodd" d="M50.52 31.5713C50.979 31.312 51.4724 31.2143 51.9613 31.4023C52.1308 31.4674 52.29 31.5658 52.4362 31.6969C52.6243 31.8656 52.6395 32.1543 52.4703 32.3418C52.3076 32.522 52.0336 32.543 51.8456 32.3943L51.8234 32.3757C51.7593 32.3182 51.6958 32.2789 51.6316 32.2542C51.4452 32.1826 51.2153 32.2281 50.9716 32.3658C50.9105 32.4003 50.8544 32.4375 50.8055 32.4741L50.7819 32.4922C50.7685 32.5027 50.76 32.5098 50.7568 32.5127C50.5688 32.6814 50.2792 32.6662 50.11 32.4787C49.9408 32.2913 49.956 32.0026 50.1441 31.8339C50.224 31.7622 50.3519 31.6662 50.52 31.5713Z" fill="#000091"/>
<path fill-rule="evenodd" clip-rule="evenodd" d="M54.7171 31.4158C55.0194 31.345 55.3344 31.3235 55.644 31.3846C56.0903 31.4727 56.4599 31.726 56.688 32.1588C56.8056 32.382 56.7195 32.658 56.4956 32.7753C56.2799 32.8883 56.0152 32.8128 55.8908 32.6078L55.8771 32.5835C55.7843 32.4075 55.6525 32.3172 55.4661 32.2804C55.3032 32.2482 55.1124 32.2613 54.9264 32.3048L54.8806 32.3162C54.8527 32.3235 54.8302 32.3301 54.8142 32.3353L54.7951 32.3418C54.5584 32.4307 54.2942 32.3115 54.2051 32.0755C54.1159 31.8395 54.2355 31.5761 54.4722 31.4873L54.518 31.4712C54.5692 31.4541 54.6364 31.4347 54.7171 31.4158Z" fill="#000091"/>
<path fill-rule="evenodd" clip-rule="evenodd" d="M52.4071 34.5009C52.4184 34.1565 52.243 33.8713 52.0155 33.8639C51.7879 33.8565 51.5944 34.1298 51.5831 34.4742C51.5719 34.8187 51.7472 35.1039 51.9748 35.1113C52.2023 35.1187 52.3959 34.8454 52.4071 34.5009Z" fill="#000091"/>
<path fill-rule="evenodd" clip-rule="evenodd" d="M55.9161 35.2426C56.1432 35.2262 56.307 34.9343 56.2821 34.5905C56.2571 34.2468 56.0528 33.9814 55.8257 33.9978C55.5986 34.0142 55.4348 34.3062 55.4598 34.6499C55.4847 34.9936 55.6891 35.259 55.9161 35.2426Z" fill="#000091"/>
<path fill-rule="evenodd" clip-rule="evenodd" d="M59.0216 35.4052C60.2005 35.2229 61.1333 36.5248 61.3921 38.2388C61.6392 39.8752 60.993 41.3896 59.8033 41.5736C59.7878 41.576 59.7722 41.5776 59.7566 41.5784L59.7331 41.579H59.7026C59.4496 41.579 59.2445 41.3746 59.2445 41.1224C59.2445 40.8793 59.4352 40.6805 59.6756 40.6666L59.6906 40.6661L59.7164 40.6602C60.2565 40.5214 60.6494 39.5712 60.4944 38.431L60.4863 38.3748C60.2962 37.116 59.6911 36.256 59.1861 36.3046L59.1621 36.3076C58.9121 36.3463 58.6781 36.1756 58.6393 35.9264C58.6005 35.6773 58.7717 35.4439 59.0216 35.4052Z" fill="#F95C5E"/>
<path fill-rule="evenodd" clip-rule="evenodd" d="M46.7467 35.9684C47.9405 35.7837 49.0236 37.0339 49.2699 38.665C49.517 40.3013 48.8708 41.8157 47.6811 41.9998C47.6656 42.0022 47.65 42.0038 47.6344 42.0046L47.6109 42.0052H47.5803C47.3274 42.0052 47.1223 41.8008 47.1223 41.5486C47.1223 41.3054 47.313 41.1067 47.5534 41.0928L47.568 41.0923L47.5942 41.0864C48.1343 40.9475 48.5271 39.9973 48.3721 38.8571L48.3641 38.8009C48.1866 37.626 47.4907 36.8072 46.915 36.8672L46.8872 36.8708C46.6372 36.9094 46.4032 36.7388 46.3644 36.4896C46.3256 36.2404 46.4968 36.007 46.7467 35.9684Z" fill="#F95C5E"/>
<path fill-rule="evenodd" clip-rule="evenodd" d="M50.5729 36.9545C50.6331 38.5234 51.2421 39.3532 52.2317 39.4412C52.6032 39.4741 52.9796 39.3956 53.347 39.2477C53.5296 39.1742 53.6718 39.0996 53.7603 39.045C54.0407 38.8719 54.0511 38.469 53.78 38.2816L51.2915 36.5618C50.9812 36.3473 50.5584 36.5783 50.5729 36.9545ZM51.6403 37.9141L52.528 38.5275L52.4969 38.5309C52.4331 38.5364 52.3716 38.5368 52.313 38.5316C52.0225 38.5058 51.7945 38.3378 51.6515 37.9455L51.6403 37.9141Z" fill="#000091"/>
<path fill-rule="evenodd" clip-rule="evenodd" d="M50.8628 26.4659L50.8475 26.4811C49.0765 26.7398 47.0918 27.5465 45.9926 28.7336C44.0384 30.8339 44.9391 35.3237 46.9239 35.6281C47.0918 35.6586 47.2597 35.6738 47.4277 35.6738C47.4124 35.5672 47.3971 35.4455 47.3819 35.3389C47.3361 34.928 47.3208 34.5171 47.3208 34.1062C50.0384 33.1017 50.0231 29.038 50.0231 28.7032C50.6032 29.1598 51.3513 29.936 51.1529 30.8035L57.1529 31.184C57.733 32.1733 58.13 33.33 58.2674 34.578C58.2674 34.5932 58.2674 34.6084 58.2674 34.6236C58.8323 33.817 58.8475 32.569 58.3895 31.2601L60.42 31.3818C60.42 31.3818 62.2826 24.5482 50.8628 26.4659Z" fill="#000091"/>
<path fill-rule="evenodd" clip-rule="evenodd" d="M44.4846 51.5498C44.5173 51.2997 44.7471 51.1234 44.998 51.156C45.2398 51.1874 45.4129 51.4015 45.3957 51.641L45.393 51.6677L44.7425 56.6477L56.9857 56.6769C57.2296 56.6775 57.4286 56.868 57.4419 57.1077L57.4426 57.1346C57.4421 57.3777 57.2509 57.576 57.0104 57.5894L56.9835 57.5901L44.2202 57.5596C43.9534 57.559 43.7457 57.3328 43.7643 57.0713L43.7671 57.0441L44.4846 51.5498Z" fill="white"/>
<path fill-rule="evenodd" clip-rule="evenodd" d="M33.8537 59.0608C33.9159 58.8163 34.165 58.6684 34.4102 58.7303C34.6554 58.7923 34.8038 59.0407 34.7417 59.2851C34.2443 61.2416 35.8898 63.5766 37.8263 63.6609L37.8851 63.6627L56.4042 63.6475C56.6571 63.6473 56.8624 63.8516 56.8626 64.1037C56.8628 64.3469 56.6723 64.5458 56.4319 64.5599L56.4049 64.5607L37.8764 64.5758C35.3 64.5248 33.21 61.5928 33.8537 59.0608Z" fill="white"/>
<path fill-rule="evenodd" clip-rule="evenodd" d="M41.7328 56.983C42.5452 56.4506 43.4085 56.3841 44.1934 56.5889C44.3452 56.6285 44.4597 56.6699 44.5307 56.7016C44.7615 56.8047 44.8648 57.0748 44.7614 57.3049C44.6617 57.5268 44.4062 57.6305 44.181 57.5452L44.1351 57.5263C44.1007 57.513 44.0415 57.4932 43.9614 57.4724C43.4066 57.3276 42.8037 57.374 42.2361 57.7461C41.9453 57.9367 41.6735 58.2091 41.4255 58.5758C41.2841 58.7849 40.9995 58.8402 40.7897 58.6992C40.58 58.5583 40.5245 58.2745 40.6659 58.0654C40.9803 57.6004 41.3383 57.2416 41.7328 56.983Z" fill="white"/>
<path fill-rule="evenodd" clip-rule="evenodd" d="M40.0207 56.3558C41.4336 55.1885 42.8341 55.1248 44.0293 55.7359C44.1883 55.8172 44.3297 55.9047 44.4525 55.993L44.5065 56.0327C44.5565 56.0705 44.5946 56.102 44.6204 56.1253C44.8079 56.2945 44.8223 56.5833 44.6526 56.7702C44.4893 56.95 44.2153 56.9702 44.0277 56.821L43.9907 56.7899C43.9706 56.7736 43.9458 56.7546 43.9167 56.7336C43.8298 56.6712 43.7275 56.6079 43.6113 56.5485C42.724 56.0948 41.7167 56.1406 40.6053 57.0589C40.4105 57.2198 40.1218 57.1928 39.9604 56.9987C39.7989 56.8045 39.826 56.5167 40.0207 56.3558Z" fill="white"/>
<path fill-rule="evenodd" clip-rule="evenodd" d="M41.626 62.0038L50.9848 62.0951L54.0687 47.6365C54.1298 47.3169 54.4046 47.0886 54.6947 47.0886L77.5038 47.4386C77.916 47.4386 78.2214 47.88 78.1298 48.3214L75.229 63.7389C75.0306 64.6977 73.8244 65.4282 72.9542 65.413C67.3512 65.3217 44.7863 65.0021 44.1145 64.9869C41.1069 64.9717 41.626 62.0038 41.626 62.0038Z" fill="#F95C5E"/>
<path fill-rule="evenodd" clip-rule="evenodd" d="M80.9847 64.6216C81.2286 64.6216 81.428 64.8117 81.4419 65.0513L81.4427 65.0782V119.093C81.4427 119.345 81.2376 119.549 80.9847 119.549C80.7408 119.549 80.5414 119.359 80.5274 119.12L80.5267 119.093V65.5346H29.5799L29.5801 119.093C29.5801 119.336 29.3894 119.535 29.149 119.549L29.1221 119.549C28.8782 119.549 28.6788 119.359 28.6648 119.12L28.6641 119.093V65.0782C28.6641 64.835 28.8547 64.6362 29.0952 64.6224L29.1221 64.6216H80.9847Z" fill="#000091"/>
<path fill-rule="evenodd" clip-rule="evenodd" d="M66.3128 119.458H62.8777C62.5418 119.488 60.7708 119.412 62.2823 118.469C62.5876 118.332 65.122 116.718 66.1296 116.536C67.1372 116.353 70.9998 116.353 71.0762 116.353C71.1678 116.353 72.496 112.548 72.5266 112.335L77.9922 112.579C77.7021 113.309 75.9922 118.682 74.7403 119.154C73.4731 119.641 66.2976 119.382 66.2976 119.382C66.2976 119.382 66.4197 118.317 67.8395 118.164C69.2441 118.012 69.8548 118.012 69.8548 118.012" fill="white"/>
<path fill-rule="evenodd" clip-rule="evenodd" d="M77.3559 113.007L72.8628 112.807L72.7982 113.006C72.6771 113.374 72.5053 113.872 72.3119 114.419L72.1272 114.937C72.0119 115.258 71.9048 115.549 71.8134 115.791L71.7263 116.019C71.6701 116.164 71.6225 116.281 71.5842 116.37L71.5533 116.44C71.5386 116.472 71.5251 116.499 71.5124 116.523L71.459 116.622C71.3668 116.786 71.3205 116.808 71.1053 116.81L70.6489 116.811C70.5217 116.812 70.3869 116.813 70.2458 116.814C69.723 116.819 69.2013 116.826 68.7068 116.838L68.268 116.85C67.2721 116.88 66.5417 116.925 66.2116 116.985C65.9061 117.04 65.3444 117.286 64.6117 117.675C64.5132 117.728 64.412 117.783 64.3078 117.84L64.0956 117.958C63.738 118.159 63.0792 118.542 62.7178 118.748L62.5199 118.859L62.4833 118.882C62.456 118.9 62.43 118.917 62.4055 118.934L62.3416 118.978L62.3648 118.982C62.5151 119.003 62.6822 119.012 62.7992 119.006L62.857 119.002L62.8777 119.001H65.9281L65.9362 118.98C65.9961 118.826 66.0796 118.674 66.1905 118.528L66.2333 118.474C66.575 118.06 67.0926 117.785 67.7901 117.71L68.0053 117.688C68.4621 117.64 68.8581 117.607 69.1957 117.585L69.3473 117.575C69.6022 117.561 69.7695 117.556 69.8548 117.556C70.1078 117.556 70.3129 117.76 70.3129 118.012C70.3129 118.255 70.1222 118.454 69.8818 118.468L69.7513 118.471L69.6174 118.476C69.5524 118.479 69.4802 118.482 69.4005 118.487L69.1781 118.501C68.8176 118.526 68.3889 118.564 67.8885 118.618C67.5194 118.658 67.255 118.767 67.0677 118.926L67.0425 118.948L67.513 118.96C68.4684 118.982 69.4312 118.995 70.3407 118.994L70.6118 118.993C72.6772 118.983 74.1453 118.893 74.5784 118.727C74.7383 118.666 75.0097 118.356 75.3168 117.84C75.6267 117.318 75.9595 116.619 76.3094 115.775L76.3533 115.669C76.5568 115.173 76.872 114.331 77.1309 113.625L77.3559 113.007ZM78.4181 112.747L78.4248 112.731C78.4367 112.72 77.6084 115.022 77.201 116.015C76.8195 116.944 76.4547 117.716 76.1049 118.305C75.6972 118.991 75.318 119.424 74.9051 119.58C74.3201 119.804 72.8365 119.896 70.6161 119.906C69.7091 119.91 68.7439 119.9 67.7803 119.879L67.4914 119.873C67.2515 119.867 67.0254 119.861 66.8162 119.855L66.5521 119.847L66.5367 119.856C66.4779 119.889 66.411 119.91 66.3398 119.914L66.3128 119.915H62.8933L62.8636 119.917C62.5393 119.937 62.0661 119.891 61.7524 119.767L61.6988 119.745C61.3513 119.588 61.1354 119.287 61.2512 118.896C61.3363 118.609 61.5952 118.359 62.0392 118.082L62.0663 118.066L62.1037 118.048C62.2227 117.983 63.3132 117.346 63.7578 117.099C63.8672 117.039 63.9738 116.981 64.0777 116.925L64.1808 116.87C64.9973 116.436 65.617 116.165 66.0477 116.087L66.1121 116.076C66.5498 116.006 67.3641 115.96 68.4721 115.931C69.034 115.916 69.6352 115.906 70.2377 115.901L70.7893 115.897L70.8294 115.798C70.8484 115.75 70.8688 115.698 70.8907 115.641L70.9772 115.414C71.064 115.183 71.1644 114.908 71.2723 114.608L71.4994 113.969C71.7946 113.129 72.0662 112.32 72.0732 112.271C72.1052 112.047 72.296 111.882 72.52 111.879L72.547 111.879L78.0127 112.123C78.327 112.137 78.5339 112.455 78.4181 112.747Z" fill="#000091"/>
<path fill-rule="evenodd" clip-rule="evenodd" d="M122.008 82.7026C120.267 80.4501 113.092 71.9119 113.092 71.9119L107.107 77.0257L108.145 78.4411C103.122 77.2387 98.1297 76.6604 96.8625 77.1931L97.2595 78.2432C91.916 76.843 83.5343 75.458 81.8091 80.0087C79.977 83.3875 71.7786 113.568 71.7786 113.568L82.3435 113.842L83.4122 109.657C83.687 112.381 83.9923 114.846 84.3587 116.764C84.8625 119.397 90.2671 120.006 92.9541 119.976L99.916 119.884L110.298 107.495L105.015 90.1754C109.183 90.9669 115.931 91.9257 119.259 90.769C119.427 90.7538 119.58 90.7386 119.748 90.7081C123.336 90.0385 124.801 86.5988 122.008 82.7026Z" fill="#000091"/>
<path fill-rule="evenodd" clip-rule="evenodd" d="M89.0457 77.5431L92.5418 70.5878L98.5876 74.4231L97.7937 77.7106C98.2976 80.4501 95.122 82.3526 92.9235 80.6175L89.0457 77.5431Z" fill="white"/>
<path fill-rule="evenodd" clip-rule="evenodd" d="M92.1324 70.3832L88.6362 77.3386C88.5392 77.5316 88.5911 77.7661 88.7606 77.9005L92.6385 80.9748L92.7147 81.0335C95.1891 82.8886 98.6748 80.839 98.2741 77.8164L98.261 77.7265L99.033 74.53C99.0788 74.3403 98.9986 74.1426 98.8336 74.0379L92.7878 70.2025C92.5588 70.0573 92.254 70.1413 92.1324 70.3832ZM92.724 71.2443L98.0658 74.6331L97.3485 77.6037C97.3335 77.6657 97.3317 77.7301 97.3433 77.7929L97.3552 77.8625C97.7173 80.1515 95.055 81.7173 93.2078 80.2595L89.6217 77.4163L92.724 71.2443Z" fill="#000091"/>
<path fill-rule="evenodd" clip-rule="evenodd" d="M93.0456 60.9385C93.0456 60.9385 95.1678 69.1114 100.267 67.1024C100.267 67.1024 102.42 66.1588 102.481 64.8499C102.481 64.8499 100.771 65.2913 100.343 64.0129C100.343 64.0129 104.038 64.8956 104.939 62.0343C104.939 62.0343 101.58 63.054 100.496 60.8928C99.4273 58.7164 92.7708 58.8382 93.0456 60.9385Z" fill="#000091"/>
<path fill-rule="evenodd" clip-rule="evenodd" d="M89.6717 68.6092C89.6717 68.6092 86.1907 63.2671 91.5648 59.6752C92.0686 59.3404 95.5343 57.1183 97.6106 59.8883C98.9846 61.7451 100.084 63.9367 100.801 65.7022C100.801 65.7174 102.221 69.0049 101.748 71.3944C101.275 73.7839 98.3281 74.8949 96.4045 74.6818C94.4808 74.4687 93.9923 74.1187 93.0915 73.2512C92.1907 72.3836 89.6717 68.6092 89.6717 68.6092Z" fill="white"/>
<path fill-rule="evenodd" clip-rule="evenodd" d="M101.232 65.5473L101.233 65.5493L101.226 65.5308C100.4 63.4981 99.3027 61.4378 98.0812 59.7565L97.9774 59.615C96.9425 58.2344 95.511 57.8312 93.903 58.1708C93.3318 58.2915 92.7689 58.5 92.2261 58.7689C91.8632 58.9487 91.5709 59.1224 91.3107 59.2953C89.9944 60.1751 89.103 61.2089 88.5985 62.3656C87.8448 64.0937 87.995 65.9233 88.692 67.6619C88.8199 67.981 88.9572 68.2707 89.095 68.5263L89.1356 68.6006C89.1812 68.6831 89.2205 68.7503 89.2518 68.8013L89.3003 68.8771L89.5812 69.2937C89.6513 69.397 89.7253 69.5057 89.8028 69.6191C90.142 70.1154 90.4868 70.6117 90.8217 71.0831L91.0331 71.379L91.271 71.7081C91.9169 72.595 92.419 73.2305 92.7476 73.5546L92.7732 73.5796C93.8694 74.6352 94.499 74.9302 96.3539 75.1356C98.8438 75.4114 101.722 73.8846 102.197 71.4828C102.302 70.9525 102.326 70.3668 102.28 69.7344C102.218 68.8827 102.033 67.9803 101.762 67.0673C101.645 66.6727 101.52 66.3033 101.394 65.9629L101.343 65.8291C101.327 65.7863 101.311 65.7452 101.295 65.7052L101.232 65.5473ZM100.535 66.2806C100.655 66.6024 100.773 66.9524 100.884 67.3259C101.137 68.1811 101.31 69.0221 101.367 69.8006C101.407 70.3568 101.386 70.8626 101.299 71.3059C100.928 73.1777 98.5177 74.4565 96.455 74.228L96.3012 74.2105C94.7729 74.031 94.3299 73.8091 93.4097 72.9228C93.1322 72.6555 92.6388 72.0322 92.0046 71.1609L91.7779 70.8473L91.7104 70.7532C91.3354 70.2291 90.944 69.6671 90.5598 69.1049L90.2888 68.7065L90.053 68.3563C90.0502 68.352 90.0371 68.331 90.0174 68.2981C89.9829 68.2404 89.944 68.1722 89.9018 68.0939C89.7798 67.8675 89.6572 67.6088 89.5426 67.323C88.9281 65.7901 88.7975 64.1996 89.4386 62.7297C89.8712 61.7377 90.6463 60.8388 91.8198 60.0545C92.0493 59.902 92.3097 59.7472 92.6338 59.5866C93.1121 59.3497 93.6044 59.1673 94.0929 59.0642C95.3556 58.7975 96.4079 59.0837 97.2041 60.1097L97.242 60.1594L97.3401 60.2932C98.5141 61.9093 99.5769 63.9054 100.377 65.8737L100.385 65.8704L100.412 65.9508C100.428 65.9993 100.446 66.049 100.463 66.0946L100.535 66.2806Z" fill="#000091"/>
<path fill-rule="evenodd" clip-rule="evenodd" d="M97.5521 64.924C97.7477 64.78 98.0204 64.8141 98.1747 64.9973L98.1926 65.0199L99.9636 67.4094C100.117 67.6162 100.068 67.9063 99.8606 68.0529L99.8369 68.0686L98.8293 68.6926C98.6144 68.8257 98.332 68.7599 98.1986 68.5457C98.07 68.3394 98.1264 68.0707 98.3227 67.9323L98.3459 67.9169L98.9319 67.5538L97.4559 65.5626C97.3113 65.3676 97.3456 65.0958 97.5293 64.9419L97.5521 64.924Z" fill="#000091"/>
<path fill-rule="evenodd" clip-rule="evenodd" d="M99.0592 64.6334C99.2139 64.5476 99.2297 64.2815 99.0944 64.0391C98.9591 63.7968 98.7239 63.6699 98.5692 63.7557C98.4145 63.8415 98.3988 64.1076 98.5341 64.35C98.6694 64.5924 98.9045 64.7193 99.0592 64.6334Z" fill="#000091"/>
<path fill-rule="evenodd" clip-rule="evenodd" d="M96.8021 66.5734C96.9702 66.5179 97.0355 66.2595 96.948 65.9961C96.8605 65.7328 96.6534 65.5644 96.4853 65.6199C96.3172 65.6753 96.2518 65.9338 96.3393 66.1971C96.4268 66.4604 96.634 66.6289 96.8021 66.5734Z" fill="#000091"/>
<path fill-rule="evenodd" clip-rule="evenodd" d="M94.9099 63.7899C95.1515 63.7151 95.4081 63.8498 95.4831 64.0906C95.5554 64.3228 95.4324 64.569 95.2069 64.6533L95.1814 64.662C94.9551 64.732 94.7884 64.8517 94.6646 65.0103C94.5943 65.1005 94.542 65.1983 94.5059 65.2954L94.4927 65.3328C94.4833 65.361 94.4778 65.3815 94.4756 65.3918L94.4746 65.3968C94.433 65.6456 94.197 65.8136 93.9475 65.7721C93.698 65.7307 93.5294 65.4954 93.571 65.2467C93.5817 65.1827 93.6052 65.0903 93.6469 64.9783C93.7138 64.798 93.8099 64.6184 93.9416 64.4497C94.1769 64.1481 94.4987 63.9171 94.9099 63.7899Z" fill="#000091"/>
<path fill-rule="evenodd" clip-rule="evenodd" d="M97.3829 61.8038C97.8022 61.5024 98.2468 61.3458 98.707 61.4441C98.827 61.4697 98.943 61.5129 99.0536 61.5739C99.275 61.696 99.3551 61.9738 99.2327 62.1944C99.1148 62.4069 98.852 62.4889 98.635 62.3857L98.6102 62.3729C98.5785 62.3555 98.5472 62.3438 98.5151 62.337C98.3617 62.3042 98.1485 62.3793 97.9186 62.5445C97.8442 62.598 97.7749 62.656 97.7134 62.7137L97.6651 62.7607L97.6459 62.7808C97.4769 62.9684 97.1873 62.9838 96.9991 62.8153C96.8109 62.6468 96.7954 62.3581 96.9645 62.1705C97.0525 62.0728 97.1955 61.9385 97.3829 61.8038Z" fill="#000091"/>
<path fill-rule="evenodd" clip-rule="evenodd" d="M91.5038 62.43C91.5038 62.43 97.6565 69.705 92.4657 73.0685C92.4657 73.0685 90.1909 74.4383 88.9389 73.6317C88.9389 73.6317 90.4657 72.338 89.5649 71.1357C89.5649 71.1357 87.9619 75.0928 84.7405 74.0578C84.7405 74.0578 87.8855 71.6379 86.5878 69.2484C85.2901 66.8437 89.7481 60.8167 91.5038 62.43Z" fill="#000091"/>
<path fill-rule="evenodd" clip-rule="evenodd" d="M98.0992 59.5839C98.0992 59.5839 93.5495 53.6178 87.7785 58.8077C84.4503 61.7908 84.8167 65.0173 85.7175 67.2242L82.9694 70.1159C82.374 70.7399 82.4045 71.7292 83.0305 72.3228C83.3358 72.6119 83.7175 72.7489 84.1144 72.7489C84.5266 72.7489 84.9389 72.5815 85.2595 72.2619L98.0992 59.5839Z" fill="#F95C5E"/>
<path fill-rule="evenodd" clip-rule="evenodd" d="M98.0076 69.9028L99.3511 69.5375L98.0076 69.9028Z" fill="white"/>
<path fill-rule="evenodd" clip-rule="evenodd" d="M99.2304 69.0971C99.4745 69.0307 99.7263 69.1742 99.7928 69.4174C99.857 69.652 99.7255 69.8938 99.4972 69.9703L99.4715 69.9781L98.128 70.3433C97.8839 70.4097 97.6321 70.2663 97.5656 70.023C97.5014 69.7884 97.6329 69.5466 97.8612 69.4702L97.8869 69.4623L99.2304 69.0971Z" fill="#000091"/>
<path fill-rule="evenodd" clip-rule="evenodd" d="M112.863 74.7275C111.412 73.7991 110.176 72.8859 109.428 72.0945C108.771 71.4705 108.237 70.9835 107.794 70.6182C106.741 69.7203 105.366 69.2941 103.977 69.4463C102.924 69.5681 101.702 69.7355 101.122 69.9638C100.008 70.4051 96.3436 71.8053 96.5878 72.3837C96.7558 72.7946 98.771 72.475 99.8092 72.2619L101.886 74.7275C101.886 74.7275 102.802 74.4231 103.336 74.4536C104.435 74.5144 105.657 74.8949 106.252 74.5297C106.252 74.5297 107.137 76.006 108.832 78.0302" fill="white"/>
<path fill-rule="evenodd" clip-rule="evenodd" d="M103.927 68.9924C105.438 68.8269 106.939 69.2889 108.086 70.2664L108.18 70.3449C108.515 70.626 108.906 70.9768 109.385 71.426L109.744 71.7641L109.761 71.7814C110.435 72.4946 111.581 73.3647 113.11 74.3433C113.323 74.4796 113.385 74.762 113.248 74.9742C113.111 75.1864 112.828 75.248 112.615 75.1117L112.406 74.9769C110.958 74.038 109.85 73.1925 109.144 72.4598L109.104 72.4178L108.897 72.2223C108.365 71.7204 107.943 71.3395 107.587 71.0412L107.496 70.9652C106.536 70.1467 105.287 69.7621 104.03 69.8998L103.683 69.9411C102.532 70.0818 101.734 70.2221 101.321 70.3768L100.738 70.6063L100.385 70.7471L100.103 70.8611C99.7799 70.9925 99.4784 71.1188 99.1902 71.2439C98.8694 71.3832 98.5757 71.5166 98.3116 71.6439L98.1623 71.7167C97.8955 71.8485 97.6669 71.9712 97.4813 72.0827L97.4119 72.1251L97.4221 72.125C97.5062 72.1231 97.5974 72.1189 97.6951 72.1124L97.8335 72.1018C98.3855 72.0553 99.0838 71.9446 99.7168 71.8147C99.8713 71.783 100.03 71.8329 100.139 71.9451L100.16 71.9684L102.042 74.2036L102.069 74.196C102.1 74.1876 102.131 74.1793 102.162 74.171L102.257 74.1467C102.416 74.1067 102.572 74.073 102.72 74.0474C102.962 74.0059 103.176 73.9871 103.361 73.9977C103.488 74.0047 103.619 74.0157 103.761 74.0309L103.937 74.0511C104.004 74.0593 104.068 74.0677 104.142 74.0776L104.641 74.1468C105.452 74.2553 105.788 74.2592 105.985 74.1559L106.012 74.1408C106.221 74.0124 106.493 74.0721 106.63 74.2717L106.75 74.463L106.802 74.5453C106.936 74.7533 107.096 74.9929 107.283 75.2605C107.817 76.0274 108.451 76.8628 109.184 77.7376C109.346 77.9312 109.32 78.2191 109.126 78.3807C108.931 78.5423 108.642 78.5163 108.48 78.3227C107.73 77.4264 107.079 76.5696 106.53 75.7812L106.418 75.6185C106.308 75.4593 106.209 75.3104 106.118 75.1726L106.071 75.0996L106.061 75.1023C105.715 75.186 105.277 75.1555 104.491 75.0482L103.986 74.9781C103.941 74.9721 103.899 74.9666 103.857 74.9614L103.825 74.9575C103.632 74.9339 103.465 74.918 103.31 74.9094C103.205 74.9034 103.055 74.9165 102.876 74.9473C102.752 74.9686 102.619 74.9976 102.48 75.0323C102.395 75.0536 102.312 75.076 102.233 75.0988L102.108 75.136C102.072 75.147 102.046 75.1555 102.03 75.1607C101.862 75.2166 101.677 75.1704 101.555 75.0442L101.535 75.0211L99.6326 72.7623L99.5214 72.7835C99.009 72.879 98.4808 72.9581 98.0235 73.0016L97.9107 73.0118L97.7941 73.0211C96.8597 73.0916 96.3533 73.0202 96.1656 72.5609C95.9901 72.1454 96.2283 71.8353 96.698 71.5019C96.9863 71.2974 97.3946 71.0714 97.913 70.8217C98.1544 70.7054 98.4176 70.5849 98.7015 70.4603L98.8244 70.4067C99.1616 70.2603 99.5151 70.113 99.8977 69.9584L100.254 69.8156L100.954 69.5391C101.503 69.323 102.465 69.1614 103.927 68.9924Z" fill="#000091"/>
<path fill-rule="evenodd" clip-rule="evenodd" d="M101.595 70.7704C101.595 70.7704 99.1832 72.2924 99.397 73.236C99.6107 74.1796 100.359 73.8904 100.359 73.8904" fill="white"/>
<path fill-rule="evenodd" clip-rule="evenodd" d="M101.339 70.3918L101.351 70.3846C101.564 70.2498 101.847 70.3132 101.982 70.5262C102.113 70.7314 102.059 71.0006 101.864 71.1407L101.754 71.2127L101.663 71.2734C101.616 71.3054 101.566 71.3398 101.514 71.3765C101.265 71.5513 101.016 71.7401 100.786 71.9349C100.488 72.1864 100.244 72.4283 100.076 72.6471C99.8942 72.8824 99.8261 73.0574 99.8438 73.1354C99.8924 73.35 99.9563 73.4333 100.025 73.4618C100.061 73.4766 100.11 73.4792 100.159 73.4713L100.196 73.4638L100.193 73.4648C100.429 73.3736 100.694 73.4903 100.786 73.7254C100.877 73.9605 100.76 74.225 100.524 74.3162C100.492 74.3288 100.446 74.3431 100.39 74.3562C100.163 74.4086 99.9179 74.4061 99.6742 74.3053C99.3146 74.1565 99.0612 73.8264 98.9503 73.3366C98.8583 72.9307 99.0181 72.5202 99.3495 72.0905C99.5635 71.813 99.8503 71.5282 100.193 71.2383C100.447 71.0242 100.716 70.8194 100.986 70.63C101.043 70.5903 101.097 70.5529 101.148 70.518L101.247 70.4518C101.287 70.4252 101.318 70.405 101.339 70.3918Z" fill="#000091"/>
<path fill-rule="evenodd" clip-rule="evenodd" d="M102.176 71.7597C102.176 71.7597 100.145 73.2969 100.435 74.2253C100.725 75.1537 101.443 74.8036 101.443 74.8036" fill="white"/>
<path fill-rule="evenodd" clip-rule="evenodd" d="M101.899 71.3961C102.1 71.2436 102.387 71.2828 102.54 71.4836C102.693 71.6844 102.654 71.9708 102.453 72.1233L102.385 72.1761L102.314 72.2337C102.276 72.2641 102.237 72.2969 102.195 72.3318C101.998 72.4983 101.801 72.6786 101.619 72.8649C101.373 73.1163 101.174 73.3579 101.04 73.5756C100.891 73.8178 100.844 73.997 100.872 74.0895C100.934 74.2855 101.002 74.3696 101.066 74.3986C101.107 74.4167 101.165 74.4158 101.225 74.3981L101.243 74.3926L101.241 74.3935C101.469 74.2827 101.743 74.3764 101.854 74.6029C101.965 74.8294 101.871 75.1029 101.644 75.2138C101.606 75.2325 101.552 75.254 101.484 75.2739C101.233 75.3478 100.961 75.3521 100.692 75.232C100.371 75.0887 100.133 74.7936 99.9979 74.3611C99.8739 73.9642 99.9856 73.5432 100.259 73.0987C100.433 72.8146 100.673 72.5231 100.964 72.2269C101.168 72.0182 101.386 71.819 101.603 71.6352L101.696 71.5577C101.783 71.4858 101.853 71.431 101.899 71.3961Z" fill="#000091"/>
<path fill-rule="evenodd" clip-rule="evenodd" d="M102.924 72.9468C102.924 72.9468 100.511 74.8341 102.008 75.3059C103.489 75.7777 103.962 75.4124 103.962 75.4124C103.962 75.4124 104.481 74.5906 102.939 74.4231" fill="white"/>
<path fill-rule="evenodd" clip-rule="evenodd" d="M102.641 72.5877C102.84 72.432 103.128 72.4666 103.284 72.665C103.434 72.8557 103.408 73.1284 103.229 73.2875L103.154 73.3482C103.109 73.3849 103.059 73.4271 103.005 73.4742C102.85 73.6089 102.695 73.7542 102.552 73.9035C102.374 74.0886 102.228 74.2659 102.126 74.4256L102.089 74.484C101.916 74.76 101.934 74.8038 102.147 74.871C102.8 75.0789 103.253 75.1242 103.539 75.078L103.563 75.0736C103.549 75.0613 103.529 75.048 103.502 75.033L103.48 75.0213C103.356 74.9579 103.161 74.9065 102.889 74.877C102.638 74.8497 102.456 74.6244 102.484 74.3737C102.511 74.123 102.737 73.9419 102.989 73.9692C103.737 74.0505 104.212 74.2927 104.412 74.7044C104.541 74.9718 104.526 75.2425 104.431 75.4884C104.404 75.5594 104.375 75.6155 104.349 75.6557C104.321 75.7009 104.285 75.7408 104.242 75.7735C104.18 75.8218 104.086 75.8717 103.96 75.9134C103.491 76.0678 102.806 76.0396 101.87 75.7412C100.95 75.4514 100.86 74.702 101.354 73.933C101.493 73.7174 101.675 73.4966 101.89 73.2723C102.054 73.1012 102.229 72.9375 102.403 72.7859L102.491 72.7101C102.555 72.6564 102.606 72.6149 102.641 72.5877Z" fill="#000091"/>
<path fill-rule="evenodd" clip-rule="evenodd" d="M100.466 107.937C100.466 107.937 117.962 89.4906 121.779 85.2138C125.595 80.9371 132.603 81.6372 135.397 85.1377C138.191 88.6383 152.481 111.057 152.481 111.057L136.114 114.923L130.176 98.0897L120.939 115.303L100.466 107.937Z" fill="#6A6AF4"/>
<path fill-rule="evenodd" clip-rule="evenodd" d="M121.436 84.9103L121.148 85.2314C119.611 86.9355 116.421 90.3588 112.032 95.0257L110.547 96.6038C108.413 98.8691 106.159 101.257 103.899 103.645L100.133 107.623C99.906 107.862 99.9996 108.255 100.31 108.366L120.783 115.733L120.81 115.741C121.017 115.802 121.24 115.71 121.343 115.518L130.088 99.2196L135.682 115.074C135.76 115.294 135.992 115.421 136.22 115.367L152.586 111.501C152.884 111.431 153.028 111.097 152.881 110.836L152.844 110.775L151.23 108.251L149.71 105.883C147.984 103.196 146.257 100.522 144.615 97.9977L143.336 96.0368C139.486 90.1445 136.808 86.1731 135.755 84.8535C134.29 83.0181 131.733 81.8861 128.985 81.8029C126.088 81.7153 123.331 82.7873 121.436 84.9103ZM128.957 82.7157C131.45 82.7911 133.752 83.8101 135.038 85.422L135.106 85.5078C136.215 86.9238 138.998 91.0623 142.942 97.1075L143.6 98.1172C145.233 100.625 146.955 103.289 148.68 105.973L150.134 108.236L151.749 110.76L136.41 114.383L130.608 97.9382L130.597 97.912C130.451 97.5618 129.955 97.5324 129.772 97.8743L120.722 114.739L101.279 107.744L104.243 104.613L107.46 101.21C108.311 100.309 109.154 99.4152 109.983 98.536L113.141 95.1812C117.309 90.7476 120.34 87.4933 121.831 85.8399L122.121 85.5173C123.827 83.6056 126.321 82.6359 128.957 82.7157Z" fill="#000091"/>
<path fill-rule="evenodd" clip-rule="evenodd" d="M100.466 107.937L127.244 104.147C128.389 104.041 129.55 104.056 130.71 104.162L156.298 107.328L156.237 119.717L92.9541 119.762L100.466 107.937Z" fill="#6A6AF4"/>
<path fill-rule="evenodd" clip-rule="evenodd" d="M127.202 103.692L127.18 103.695L100.401 107.485C100.268 107.503 100.15 107.579 100.079 107.692L92.5672 119.518C92.374 119.822 92.5933 120.219 92.9544 120.219L156.237 120.173C156.489 120.173 156.693 119.97 156.695 119.719L156.756 107.33C156.757 107.099 156.584 106.903 156.354 106.875L130.766 103.709L130.752 103.708C129.52 103.594 128.338 103.587 127.202 103.692ZM130.661 104.616L155.838 107.731L155.781 119.26L93.7864 119.305L100.739 108.359L127.296 104.601L127.287 104.602C128.308 104.507 129.372 104.508 130.482 104.601L130.661 104.616Z" fill="#000091"/>
<path fill-rule="evenodd" clip-rule="evenodd" d="M211.137 105.639L210.633 112.716C210.633 112.716 218.114 116.414 217.443 120.234L201.656 120.173L201.931 106.537L211.137 105.639Z" fill="#F95C5E"/>
<path fill-rule="evenodd" clip-rule="evenodd" d="M196.191 46.4797C203.183 47.6212 202.969 50.6043 205.336 55.0788C207.702 59.5534 214.008 112.731 214.008 112.731L195.473 112.99L194.405 74.2708L187.153 108.896L165.351 109.093C165.351 109.093 183.992 57.7118 185.595 54.2874C187.198 50.8782 189 49.4932 191.366 48.854C193.733 48.2148 196.191 46.4797 196.191 46.4797Z" fill="#6A6AF4"/>
<path fill-rule="evenodd" clip-rule="evenodd" d="M220.572 47.119C216.878 40.5289 209.122 29.586 205.595 28.414C205.519 28.3836 205.443 28.3532 205.351 28.3379L201.885 27.6835C199.946 30.21 196.007 32.843 192.603 32.0668C187.198 30.834 189.427 26.0398 189.626 25.7049L191.351 26.0854L191.152 25.6441L189.84 25.3853C188.511 25.0657 186.786 25.157 184.633 25.8724C179.244 27.6835 166.679 31.9754 166.679 31.9754L172.038 39.5853C172.038 39.5853 173.809 38.7025 179.519 36.8305C180.649 36.4652 181.901 36.1 183.152 35.7347C183.366 38.3068 184.71 41.3051 188.023 44.6534C189.702 46.7385 196.374 47.6212 196.374 47.6212C198.343 48.1844 202.389 45.0491 203.458 43.2684C203.809 42.6901 204.175 42.0356 204.542 41.3203C208.374 46.358 214.42 53.8156 214.42 53.8156L216.023 53.4047C219.656 51.8371 222.343 50.2847 220.572 47.119Z" fill="#000091"/>
<path fill-rule="evenodd" clip-rule="evenodd" d="M197.214 19.404L197.717 19.7389C197.717 19.7389 200.74 21.3826 201.687 18.3386C202.404 16.0253 200.191 15.3099 199.076 15.0969" fill="white"/>
<path fill-rule="evenodd" clip-rule="evenodd" d="M198.626 15.0109C198.674 14.7632 198.914 14.601 199.163 14.6485C200.008 14.8101 200.778 15.1006 201.36 15.5776C202.197 16.2641 202.505 17.2473 202.124 18.4739C201.727 19.7516 200.943 20.4452 199.912 20.604C199.314 20.6963 198.693 20.6019 198.089 20.3915C197.824 20.2995 197.621 20.2062 197.498 20.1397L197.481 20.1296L197.463 20.1188L196.96 19.7839C196.749 19.6441 196.692 19.3606 196.833 19.1508C196.968 18.9487 197.236 18.8887 197.444 19.0094L197.468 19.0241L197.953 19.3464L198.01 19.3746L198.05 19.3932C198.151 19.4394 198.266 19.4859 198.39 19.5294C198.865 19.6946 199.344 19.7675 199.772 19.7016C200.452 19.5968 200.954 19.1523 201.249 18.2038C201.519 17.3358 201.331 16.7364 200.778 16.2827C200.338 15.9218 199.699 15.6808 198.99 15.5453C198.742 15.4978 198.579 15.2585 198.626 15.0109Z" fill="#000091"/>
<path fill-rule="evenodd" clip-rule="evenodd" d="M190.191 23.5133L191.351 26.0702L189.626 25.6897C189.443 26.0246 187.214 30.8188 192.603 32.0515C196.145 32.8582 200.252 29.9969 202.099 27.3791L199.107 26.8312L196.664 20.9564L190.191 23.5133Z" fill="white"/>
<path fill-rule="evenodd" clip-rule="evenodd" d="M190.022 23.0888L189.996 23.0998C189.771 23.2047 189.669 23.4725 189.773 23.7015L190.556 25.4272L189.725 25.2439C189.526 25.2 189.321 25.2926 189.224 25.4711C189.112 25.6752 188.945 26.0819 188.816 26.5241C188.619 27.1977 188.522 27.8887 188.568 28.5643C188.696 30.4854 189.935 31.9097 192.5 32.4965C194.278 32.9014 196.265 32.475 198.209 31.3986C199.905 30.4595 201.469 29.0661 202.474 27.6418L202.489 27.6189C202.657 27.3486 202.501 26.9885 202.182 26.93L199.434 26.4269L197.087 20.7816C196.991 20.5512 196.728 20.4401 196.495 20.5319L190.022 23.0888ZM196.413 21.5465L198.684 27.006L198.696 27.0341C198.76 27.1625 198.881 27.2542 199.024 27.2803L201.285 27.6941L201.259 27.7267C199.082 30.3733 195.454 32.2324 192.705 31.6064C190.531 31.1091 189.583 30.0194 189.482 28.5034C189.444 27.9453 189.527 27.3576 189.696 26.7792L189.723 26.6878C189.769 26.537 189.82 26.3935 189.872 26.2603L189.89 26.2157L191.252 26.516L191.276 26.5208C191.634 26.5807 191.92 26.217 191.768 25.882L190.806 23.7614L196.413 21.5465Z" fill="#000091"/>
<path fill-rule="evenodd" clip-rule="evenodd" d="M202.799 27.9941C205.142 27.1123 206.419 24.7529 205.65 22.7241C204.882 20.6954 202.36 19.7655 200.017 20.6473C197.674 21.529 196.398 23.8885 197.166 25.9172C197.935 27.946 200.457 28.8758 202.799 27.9941Z" fill="#000091"/>
<path fill-rule="evenodd" clip-rule="evenodd" d="M207.21 31.3532C209.032 30.6674 210.024 28.8302 209.426 27.2497C208.827 25.6691 206.865 24.9438 205.043 25.6296C203.221 26.3154 202.229 28.1526 202.827 29.7332C203.426 31.3137 205.388 32.0391 207.21 31.3532Z" fill="#000091"/>
<path fill-rule="evenodd" clip-rule="evenodd" d="M211.083 34.508C212.716 33.8935 213.605 32.2479 213.069 30.8325C212.533 29.417 210.774 28.7678 209.142 29.3824C207.509 29.9969 206.62 31.6425 207.156 33.058C207.692 34.4734 209.45 35.1226 211.083 34.508Z" fill="#000091"/>
<path fill-rule="evenodd" clip-rule="evenodd" d="M215.229 35.3846C215.626 36.5717 214.863 37.9111 213.504 38.3829C212.145 38.8547 210.71 38.2763 210.313 37.1044C209.916 35.9325 210.618 34.5171 211.977 34.0453C213.336 33.5582 214.832 34.1975 215.229 35.3846Z" fill="#000091"/>
<path fill-rule="evenodd" clip-rule="evenodd" d="M217.733 38.5808C217.763 39.8592 218.404 40.3767 219.015 40.5745C219.305 40.6659 219.32 41.0768 219.046 41.1833C217.427 41.8225 214.511 42.5988 213.611 40.331C213.183 39.2656 213.702 37.972 214.893 37.4089C216.099 36.8457 217.702 37.4241 217.733 38.5808Z" fill="#000091"/>
<path fill-rule="evenodd" clip-rule="evenodd" d="M204.699 25.2054C204.933 24.9638 205.32 24.9576 205.562 25.1914C205.796 25.4175 205.81 25.7852 205.599 26.0276L205.576 26.0523L203.255 28.4417C203.021 28.6833 202.634 28.6895 202.392 28.4557C202.158 28.2296 202.144 27.8619 202.355 27.6195L202.378 27.5948L204.699 25.2054Z" fill="#F95C5E"/>
<path fill-rule="evenodd" clip-rule="evenodd" d="M208.972 28.8758C209.222 28.6502 209.608 28.6694 209.834 28.9186C210.053 29.1596 210.042 29.5274 209.816 29.7555L209.791 29.7785L207.7 31.6658C207.45 31.8914 207.063 31.8722 206.837 31.6229C206.618 31.382 206.629 31.0142 206.856 30.7861L206.88 30.7631L208.972 28.8758Z" fill="#F95C5E"/>
<path fill-rule="evenodd" clip-rule="evenodd" d="M211.596 33.6079C211.872 33.4147 212.252 33.4812 212.446 33.7563C212.634 34.0226 212.577 34.3868 212.323 34.5851L212.297 34.6044L211.58 35.1066C211.304 35.2998 210.923 35.2334 210.729 34.9582C210.542 34.6919 210.598 34.3278 210.852 34.1294L210.878 34.1102L211.596 33.6079Z" fill="#F95C5E"/>
<path fill-rule="evenodd" clip-rule="evenodd" d="M214.243 36.9892C214.51 36.7827 214.893 36.8306 215.1 37.096C215.3 37.3525 215.262 37.7185 215.019 37.929L214.993 37.9503L214.306 38.4829C214.04 38.6894 213.656 38.6416 213.449 38.3762C213.249 38.1196 213.287 37.7536 213.53 37.5431L213.556 37.5219L214.243 36.9892Z" fill="#F95C5E"/>
<path fill-rule="evenodd" clip-rule="evenodd" d="M186.389 13.6662C185.977 15.0664 184.801 21.687 189.061 23.3307C193.32 24.9744 197.32 21.6717 198.832 17.5929C200.343 13.514 199.397 9.52646 196.725 8.43064C194.053 7.31961 189.381 3.56036 186.389 13.6662Z" fill="white"/>
<path fill-rule="evenodd" clip-rule="evenodd" d="M191.081 6.47937C188.956 6.98203 187.269 9.15131 185.988 13.408L185.95 13.5376C185.597 14.7366 185.358 16.7176 185.517 18.4488C185.755 21.0411 186.81 22.9516 188.896 23.7565C193.104 25.3806 197.505 22.4917 199.262 17.7511C200.827 13.5278 199.871 9.30465 196.987 8.04563L196.814 7.97242C196.684 7.91644 196.541 7.85072 196.366 7.76768L195.498 7.34805L195.315 7.26173C193.596 6.45971 192.385 6.1709 191.081 6.47937ZM186.809 13.8627L186.828 13.7955C188.031 9.73493 189.531 7.7844 191.292 7.36788C192.359 7.11542 193.422 7.37871 195.015 8.13026L195.277 8.25572C195.494 8.36058 195.799 8.50921 195.846 8.53194L196.034 8.62156C196.232 8.71472 196.394 8.78764 196.549 8.85203C198.965 9.84292 199.832 13.5771 198.402 17.4346C196.805 21.746 192.887 24.3177 189.226 22.9049C187.522 22.2472 186.639 20.6476 186.429 18.3655C186.284 16.7894 186.497 14.9653 186.809 13.8627Z" fill="#000091"/>
<path fill-rule="evenodd" clip-rule="evenodd" d="M190.74 19.0387C189.87 19.1909 189.214 18.9474 188.847 18.7648C188.679 18.6887 188.496 18.78 188.465 18.9626C188.374 19.4801 188.404 20.3933 189.549 20.6672C190.756 20.9564 191 19.9062 191.061 19.3127C191.076 19.1605 190.924 19.0083 190.74 19.0387Z" fill="#000091"/>
<path fill-rule="evenodd" clip-rule="evenodd" d="M190.504 11.5341C190.606 11.3033 190.876 11.1986 191.108 11.3002C191.331 11.3981 191.437 11.6522 191.353 11.8771L191.343 11.902L189.314 16.4964L190.124 16.71C190.36 16.7722 190.504 17.0068 190.456 17.242L190.45 17.2682C190.388 17.5033 190.153 17.6468 189.917 17.599L189.89 17.5929L188.562 17.2428C188.299 17.1735 188.156 16.8938 188.249 16.6433L188.26 16.6175L190.504 11.5341Z" fill="#000091"/>
<path fill-rule="evenodd" clip-rule="evenodd" d="M191.973 12.108C192.685 11.79 193.332 12.0212 193.842 12.5556C193.954 12.6736 194.052 12.7984 194.136 12.9235L194.171 12.9783C194.204 13.0302 194.229 13.0731 194.245 13.1041C194.363 13.3274 194.276 13.6034 194.052 13.7205C193.837 13.8333 193.572 13.7576 193.448 13.5524L193.424 13.5109C193.414 13.4926 193.397 13.4647 193.373 13.43C193.317 13.3461 193.251 13.2619 193.178 13.1848C192.918 12.9122 192.664 12.8152 192.379 12.928L192.347 12.9414C192.117 13.0445 191.846 12.9414 191.742 12.7113C191.639 12.4811 191.742 12.211 191.973 12.108Z" fill="#000091"/>
<path fill-rule="evenodd" clip-rule="evenodd" d="M188.298 9.49C188.982 9.06099 189.672 9.22425 190.261 9.71454C190.456 9.87714 190.599 10.0392 190.685 10.1576C190.832 10.3622 190.786 10.6476 190.58 10.7949C190.383 10.9366 190.111 10.8991 189.959 10.7141L189.923 10.6682C189.912 10.6543 189.896 10.6356 189.877 10.6135C189.817 10.5458 189.749 10.4779 189.674 10.4152C189.368 10.1605 189.091 10.0888 188.815 10.2453L188.786 10.263C188.572 10.3972 188.289 10.333 188.154 10.1196C188.019 9.90614 188.084 9.62426 188.298 9.49Z" fill="#000091"/>
<path fill-rule="evenodd" clip-rule="evenodd" d="M192.24 15.6457C192.32 15.2588 192.184 14.9039 191.936 14.853C191.689 14.8022 191.423 15.0747 191.343 15.4616C191.263 15.8486 191.399 16.2035 191.647 16.2543C191.895 16.3052 192.161 16.0327 192.24 15.6457Z" fill="#000091"/>
<path fill-rule="evenodd" clip-rule="evenodd" d="M187.879 14.8168C187.959 14.4298 187.823 14.0749 187.575 14.024C187.328 13.9732 187.062 14.2457 186.982 14.6327C186.902 15.0196 187.038 15.3745 187.286 15.4254C187.534 15.4762 187.799 15.2037 187.879 14.8168Z" fill="#000091"/>
<path fill-rule="evenodd" clip-rule="evenodd" d="M190.175 14.3296C189.786 16.6035 190.858 18.715 192.633 19.0148C194.408 19.3146 196.12 17.6733 196.508 15.3994C196.896 13.1255 195.824 11.014 194.05 10.7142C192.275 10.4144 190.563 12.0557 190.175 14.3296ZM190.851 14.4441C191.182 12.5068 192.585 11.162 193.934 11.3899C195.283 11.6178 196.161 13.3479 195.831 15.2852C195.5 17.2225 194.097 18.5673 192.748 18.3394C191.399 18.1115 190.521 16.3814 190.851 14.4441Z" fill="#F95C5E"/>
<path fill-rule="evenodd" clip-rule="evenodd" d="M182.731 12.8985C182.343 15.1724 183.415 17.2839 185.19 17.5837C186.965 17.8835 188.677 16.2422 189.065 13.9683C189.453 11.6944 188.381 9.58292 186.606 9.28313C184.832 8.98334 183.12 10.6246 182.731 12.8985ZM183.408 13.013C183.739 11.0757 185.142 9.73087 186.491 9.95877C187.84 10.1867 188.718 11.9168 188.388 13.8541C188.057 15.7914 186.654 17.1362 185.305 16.9083C183.956 16.6804 183.078 14.9503 183.408 13.013Z" fill="#F95C5E"/>
<path fill-rule="evenodd" clip-rule="evenodd" d="M188.556 12.917C188.59 12.7393 188.756 12.6201 188.933 12.6412L188.958 12.645L190.713 12.9798C190.9 13.0153 191.022 13.1947 190.986 13.3805C190.952 13.5582 190.786 13.6773 190.609 13.6562L190.584 13.6525L188.829 13.3176C188.642 13.2821 188.52 13.1027 188.556 12.917Z" fill="#F95C5E"/>
<path fill-rule="evenodd" clip-rule="evenodd" d="M195.957 13.9068C196.015 13.7354 196.196 13.6399 196.369 13.6847L196.392 13.6917L200.377 15.0311C200.557 15.0915 200.653 15.2858 200.593 15.465C200.535 15.6364 200.354 15.732 200.181 15.6871L200.157 15.6801L196.173 14.3407C195.993 14.2803 195.896 14.086 195.957 13.9068Z" fill="#F95C5E"/>
<path fill-rule="evenodd" clip-rule="evenodd" d="M204.053 12.9661C203.733 10.8506 200.588 7.35004 197.702 7.38048C193.977 3.60601 188.405 -0.183684 185.153 6.4673C184.817 7.16741 185.198 8.01971 185.947 8.18712L196.542 10.9267C196.832 12.5247 197.656 15.0512 199.885 16.0557C200.527 16.3449 200.969 16.3144 201.244 16.0557C201.748 16.5579 202.023 17.2733 201.687 18.3082C200.801 21.1543 198.084 19.9063 197.748 19.7236C197.198 20.5759 196.527 21.3521 195.763 21.9913C198.069 23.2546 200.588 23.8481 202.099 21.8391C204.084 19.267 204.481 15.9187 204.053 12.9661Z" fill="#000091"/>
<path fill-rule="evenodd" clip-rule="evenodd" d="M154.236 19.2823L153.687 20.4542L154.374 22.2044L155.748 22.5241C155.748 22.5241 156.755 22.0218 155.87 21.4435C154.984 20.8651 155.061 21.0934 155.061 21.0934L155.213 20.2259L157.03 19.2062" fill="white"/>
<path fill-rule="evenodd" clip-rule="evenodd" d="M156.806 18.8083C157.026 18.6845 157.305 18.7624 157.429 18.9821C157.549 19.1937 157.481 19.4597 157.279 19.5896L157.255 19.604L155.627 20.5176L155.587 20.7427L155.589 20.7436C155.72 20.8113 155.878 20.9047 156.068 21.0273L156.121 21.0615C156.514 21.3185 156.72 21.6423 156.689 22.0091C156.665 22.2918 156.512 22.5171 156.288 22.7075C156.164 22.8128 156.044 22.887 155.953 22.9324C155.868 22.9747 155.772 22.9896 155.679 22.9753L155.644 22.9687L154.27 22.649C154.133 22.6171 154.018 22.5244 153.959 22.3983L153.947 22.3708L153.26 20.6205C153.218 20.5138 153.218 20.3956 153.26 20.2894L153.272 20.2608L153.821 19.0888C153.929 18.8604 154.201 18.7618 154.43 18.8686C154.651 18.9714 154.751 19.2273 154.662 19.45L154.651 19.4756L154.185 20.47L154.712 21.8143L155.665 22.0358L155.672 22.0307L155.694 22.0126C155.713 21.9965 155.728 21.9816 155.741 21.9692L155.764 21.9441L155.76 21.9391C155.737 21.913 155.7 21.8808 155.647 21.8441L155.619 21.8253L155.532 21.7694C155.379 21.6718 155.259 21.6013 155.17 21.5556L155.144 21.5422L155.13 21.5448C154.935 21.5736 154.723 21.4837 154.636 21.2647L154.626 21.2377L154.617 21.2046C154.615 21.1987 154.613 21.1911 154.611 21.1796C154.597 21.1119 154.596 21.04 154.616 20.961L154.624 20.9357L154.762 20.1469C154.784 20.0225 154.857 19.9132 154.962 19.8443L154.989 19.828L156.806 18.8083Z" fill="#000091"/>
<path fill-rule="evenodd" clip-rule="evenodd" d="M153.259 19.7997L152.71 20.9716L153.397 22.7219L154.771 23.0415C154.771 23.0415 155.778 22.5393 154.893 21.9609C154.007 21.3826 154.084 21.6109 154.084 21.6109L154.236 20.7433L156.053 19.7236" fill="white"/>
<path fill-rule="evenodd" clip-rule="evenodd" d="M155.829 19.3258C156.049 19.2021 156.328 19.2799 156.452 19.4996C156.572 19.7112 156.504 19.9772 156.302 20.1071L156.278 20.1215L154.65 21.0351L154.61 21.2602L154.612 21.2611C154.743 21.3288 154.901 21.4222 155.091 21.5448L155.144 21.579C155.537 21.836 155.743 22.1598 155.712 22.5266C155.688 22.8093 155.535 23.0346 155.311 23.225C155.187 23.3303 155.067 23.4045 154.976 23.4499C154.891 23.4923 154.795 23.5071 154.702 23.4929L154.667 23.4862L153.293 23.1666C153.156 23.1347 153.041 23.0419 152.982 22.9158L152.97 22.8883L152.283 21.138C152.241 21.0313 152.241 20.9131 152.283 20.8069L152.295 20.7783L152.844 19.6064C152.952 19.3779 153.224 19.2793 153.453 19.3861C153.674 19.489 153.774 19.7448 153.685 19.9676L153.674 19.9931L153.208 20.9875L153.735 22.3318L154.688 22.5533L154.695 22.5482L154.717 22.5301C154.736 22.514 154.751 22.4992 154.763 22.4867L154.787 22.4617L154.783 22.4566C154.76 22.4305 154.723 22.3983 154.67 22.3616L154.642 22.3428L154.555 22.2869C154.402 22.1893 154.282 22.1188 154.193 22.0731L154.167 22.0597L154.153 22.0623C153.958 22.0911 153.746 22.0012 153.659 21.7822L153.649 21.7553L153.64 21.7222C153.638 21.7162 153.636 21.7086 153.634 21.6971C153.62 21.6294 153.619 21.5575 153.639 21.4786L153.647 21.4532L153.785 20.6645C153.807 20.5401 153.88 20.4307 153.985 20.3619L154.012 20.3455L155.829 19.3258Z" fill="#000091"/>
<path fill-rule="evenodd" clip-rule="evenodd" d="M152.16 19.9672L151.55 21.2456L152.298 23.1481L153.794 23.4981C153.794 23.4981 154.893 22.9502 153.931 22.3262C152.969 21.7022 153.061 21.9457 153.061 21.9457L153.229 21.0021L155.214 19.8911" fill="white"/>
<path fill-rule="evenodd" clip-rule="evenodd" d="M154.989 19.4929C155.21 19.3695 155.489 19.4476 155.613 19.6675C155.732 19.8792 155.664 20.1452 155.462 20.2748L155.438 20.2892L153.642 21.2943L153.589 21.5925L153.597 21.5965C153.74 21.6696 153.915 21.7723 154.127 21.9087L154.181 21.9435C154.598 22.2142 154.814 22.5533 154.781 22.9361C154.755 23.2302 154.593 23.4663 154.357 23.667C154.224 23.7791 154.095 23.8583 153.999 23.9065C153.914 23.9489 153.818 23.9637 153.724 23.9494L153.689 23.9426L152.193 23.5926C152.056 23.5606 151.942 23.4679 151.883 23.3422L151.871 23.3147L151.123 21.4122C151.081 21.3045 151.081 21.1851 151.123 21.0781L151.136 21.0493L151.747 19.7709C151.855 19.5432 152.129 19.4465 152.357 19.5549C152.577 19.6593 152.675 19.9158 152.585 20.138L152.574 20.1635L152.048 21.2631L152.636 22.7583L153.714 23.0103L153.741 22.9897L153.763 22.9713C153.808 22.9329 153.838 22.8993 153.854 22.8782L153.863 22.8657L153.856 22.8557C153.83 22.8214 153.783 22.7778 153.71 22.7279L153.681 22.7089L153.546 22.6223C153.403 22.5329 153.288 22.4659 153.2 22.4196L153.149 22.3936L153.138 22.396C152.946 22.4275 152.736 22.3437 152.643 22.132L152.632 22.106L152.623 22.0796C152.621 22.0718 152.618 22.0624 152.613 22.0437C152.599 21.9789 152.594 21.9101 152.61 21.8336L152.619 21.8003L152.626 21.776L152.778 20.9223C152.8 20.7981 152.873 20.689 152.978 20.6203L153.005 20.604L154.989 19.4929Z" fill="#000091"/>
<path fill-rule="evenodd" clip-rule="evenodd" d="M158.038 18.3386C156.801 18.3539 155.351 18.3691 155.351 18.3691C155.351 18.3691 152.435 18.9322 151.977 19.0083C151.519 19.0844 149.259 20.2107 149.366 20.4542C149.595 21.063 151.488 20.6825 152.45 20.2715C153.412 19.8758 155.58 20.2868 155.58 20.2868C155.58 20.2868 156.175 22.0979 155.778 22.0979C155.381 22.0979 153.198 21.9305 152.862 22.6001C152.527 23.2698 152.679 23.7873 153.519 23.696C154.359 23.6046 155.549 24.1525 155.549 24.1525C155.549 24.1525 158.603 23.6351 159.351 23.2546C160.099 22.8741 163.214 30.1491 166.206 34.9128C169.198 39.6766 171.183 40.1636 173.656 38.2612C176.053 36.4196 172.878 32.0515 171.412 30.4687C170.252 29.2055 163.702 22.4327 160.954 19.5714C160.191 18.7648 159.137 18.3234 158.038 18.3386Z" fill="white"/>
<path fill-rule="evenodd" clip-rule="evenodd" d="M158.032 17.8821L155.346 17.9125C155.319 17.9128 155.291 17.9156 155.264 17.9208L153.117 18.3323C152.616 18.4273 152.242 18.4973 152.034 18.5348L151.902 18.5579C151.612 18.606 150.919 18.9094 150.245 19.265L150.104 19.3407C149.827 19.4912 149.585 19.6355 149.404 19.761C149.276 19.8494 149.175 19.93 149.099 20.0084L149.079 20.03C148.925 20.1964 148.843 20.3708 148.934 20.6061L148.937 20.6145C149.149 21.1771 149.786 21.3006 150.685 21.1989C151.324 21.1266 152.083 20.9253 152.631 20.6912C152.867 20.5941 153.272 20.548 153.782 20.5573C154.137 20.5638 154.522 20.5961 154.91 20.646L155.001 20.658C155.061 20.6661 155.119 20.6744 155.175 20.6828L155.225 20.6904L155.25 20.7774C155.269 20.8426 155.287 20.9089 155.304 20.9756C155.333 21.0848 155.359 21.1902 155.381 21.2898L155.392 21.341C155.413 21.442 155.429 21.5338 155.44 21.6136L155.442 21.6315L155.462 21.6322C155.017 21.6183 154.664 21.6179 154.302 21.6401L154.175 21.6487C153.285 21.7163 152.697 21.9095 152.453 22.3959C151.943 23.4126 152.378 24.2794 153.569 24.1498C153.706 24.1349 153.872 24.1421 154.061 24.1705C154.29 24.2049 154.54 24.2684 154.797 24.3528C154.942 24.4004 155.08 24.4515 155.206 24.5025L155.3 24.5416C155.325 24.5526 155.345 24.5612 155.358 24.5671C155.431 24.6009 155.512 24.6146 155.592 24.6071L155.641 24.6001L156.093 24.52C156.145 24.5105 156.198 24.5007 156.253 24.4906C156.722 24.4037 157.191 24.3109 157.63 24.2157L157.824 24.173C158.174 24.0949 158.485 24.0188 158.75 23.9454L158.816 23.927C159.032 23.8656 159.214 23.8067 159.362 23.7484L159.382 23.7405L159.4 23.7598C159.458 23.82 159.528 23.9045 159.607 24.0117L159.637 24.053C159.888 24.4001 160.21 24.9319 160.624 25.6772L160.768 25.9402C161.366 27.0456 163.175 30.5037 163.6 31.2924L163.84 31.7349C164.365 32.7001 164.844 33.5464 165.303 34.3146L165.372 34.4292C165.523 34.6808 165.672 34.9227 165.818 35.1551C168.801 39.9048 171.07 40.8271 173.936 38.6226C175.226 37.6317 175.264 36.0188 174.401 34.0825C173.812 32.7598 172.8 31.3133 171.827 30.2448L171.483 29.8737C170.888 29.2392 169.723 28.0211 167.912 26.1375L161.285 19.2557C160.438 18.3608 159.263 17.865 158.032 17.8821ZM158.044 18.7952C158.997 18.782 159.906 19.156 160.575 19.8367L168.944 28.5337C170.058 29.6954 170.755 30.4294 171.074 30.777C172.009 31.7865 173.004 33.1964 173.564 34.4533C174.276 36.0503 174.248 37.2302 173.377 37.8995C171.024 39.7093 169.326 39.019 166.594 34.6705C166.48 34.4886 166.364 34.3007 166.246 34.1065L166.158 33.9597C165.64 33.0985 165.096 32.1348 164.487 31.0082L164.288 30.638C163.694 29.5219 161.994 26.2741 161.507 25.3829L161.379 25.1516C160.986 24.447 160.672 23.9279 160.41 23.5602L160.38 23.5185C160.21 23.2838 160.059 23.1097 159.916 22.991C159.687 22.8016 159.437 22.715 159.174 22.8327L159.143 22.8479C159.029 22.9059 158.807 22.9819 158.505 23.0655C158.211 23.147 157.849 23.2337 157.435 23.3234C157.006 23.4164 156.546 23.5075 156.085 23.5928L155.779 23.6485L155.606 23.6792L155.551 23.6567C155.407 23.5982 155.249 23.5399 155.083 23.4854C154.781 23.3862 154.483 23.3104 154.197 23.2675C153.936 23.2282 153.693 23.2177 153.469 23.242C153.238 23.2672 153.165 23.241 153.16 23.2292C153.155 23.2194 153.151 23.1874 153.159 23.1299C153.171 23.0421 153.209 22.9306 153.272 22.8043C153.318 22.7129 153.732 22.5899 154.358 22.5516C154.636 22.5345 154.914 22.5322 155.246 22.5398L155.743 22.5542C155.756 22.5544 155.768 22.5545 155.778 22.5545C156.023 22.5545 156.213 22.4101 156.304 22.2029C156.355 22.0867 156.373 21.9607 156.373 21.8149C156.373 21.6193 156.338 21.3789 156.276 21.0949C156.251 20.9822 156.222 20.8647 156.19 20.744C156.162 20.6351 156.132 20.5276 156.101 20.424L156.06 20.2871L156.015 20.1445C155.963 19.9866 155.829 19.8692 155.666 19.8382L155.544 19.8167L155.485 19.8069C155.346 19.7842 155.192 19.7615 155.027 19.7403C154.609 19.6864 154.191 19.6514 153.798 19.6443C153.174 19.6329 152.66 19.6913 152.275 19.8495C151.804 20.051 151.132 20.2293 150.582 20.2916L150.525 20.2976C150.433 20.3069 150.345 20.3126 150.264 20.3147L150.236 20.3151L150.277 20.2916C150.397 20.2216 150.531 20.1475 150.674 20.0719L150.769 20.0223C151.308 19.7431 151.871 19.4976 152.039 19.4613L152.22 19.4293C152.364 19.4032 152.572 19.3645 152.836 19.3148L153.75 19.1414L155.397 18.8252L158.044 18.7952Z" fill="#000091"/>
<path fill-rule="evenodd" clip-rule="evenodd" d="M200.618 60.0405C200.618 60.0405 215.84 55.0028 220.298 50.8783C222.435 48.8997 217.977 42.8879 209.351 50.1325C200.725 57.377 193.183 55.779 193.183 55.779L200.618 60.0405Z" fill="white"/>
<path fill-rule="evenodd" clip-rule="evenodd" d="M209.056 49.7833C205.844 52.481 202.571 54.1295 199.355 54.9287C197.147 55.4775 195.235 55.5695 193.742 55.4002L193.629 55.3867C193.575 55.3798 193.524 55.3728 193.477 55.3658L193.343 55.3444L193.278 55.3323C192.768 55.2241 192.502 55.9154 192.955 56.1748L200.39 60.4363C200.503 60.5011 200.639 60.5148 200.763 60.4738L201 60.3942C201.171 60.3365 201.366 60.2699 201.583 60.1949L202.105 60.0137C202.704 59.8045 203.353 59.5732 204.04 59.3223C206.496 58.4259 208.953 57.4627 211.247 56.4695L211.591 56.3196C214.044 55.2466 216.151 54.2038 217.814 53.2118C218.986 52.5127 219.925 51.8462 220.609 51.2129C221.995 49.9303 221.176 47.5634 219.045 46.6288C216.564 45.5406 213.073 46.4503 209.174 49.6846L209.056 49.7833ZM218.676 47.4646C220.266 48.1619 220.822 49.7697 219.986 50.5436C219.376 51.108 218.524 51.717 217.455 52.3614L217.344 52.4282C215.643 53.4429 213.449 54.5205 210.882 55.6319C208.726 56.5653 206.422 57.4733 204.11 58.3236L203.725 58.4647C202.985 58.7349 202.29 58.9822 201.655 59.2034L200.906 59.4613L200.668 59.542L195.168 56.3899L195.23 56.3898C196.508 56.3834 197.971 56.2139 199.577 55.8147C202.882 54.9935 206.234 53.3162 209.511 50.5941L209.646 50.4816C213.35 47.3711 216.535 46.5253 218.676 47.4646Z" fill="#000091"/>
<path fill-rule="evenodd" clip-rule="evenodd" d="M212.359 54.9115L208.756 55.0028L205.672 40.5441C205.611 40.2245 205.336 39.9962 205.046 39.9962L182.237 40.3463C181.824 40.3463 181.519 40.7876 181.611 41.229L184.511 56.6465C184.71 57.6054 185.916 58.3359 186.786 58.3207C192.389 58.2294 209.198 57.9097 209.855 57.8945C212.878 57.8793 212.359 54.9115 212.359 54.9115Z" fill="#F95C5E"/>
<path fill-rule="evenodd" clip-rule="evenodd" d="M202.145 59.4926C197.061 61.6233 194.054 59.9339 192.512 57.0726C191.366 54.9419 190.023 52.0806 190.924 51.6392C191.87 51.4414 193.015 55.0028 193.015 55.0028C193.015 55.0028 191.107 50.9848 192.084 50.7717C192.847 50.6195 193.58 52.248 194.389 54.7592C194.389 54.7592 193.076 51.4109 193.092 50.8782C193.137 49.3563 194.45 49.2345 195.748 54.6527L194.618 50.8478C194.405 49.6454 195.519 49.8129 196.13 50.9087C196.786 52.0806 198.527 56.0529 198.954 57.3466" fill="white"/>
<path fill-rule="evenodd" clip-rule="evenodd" d="M193.029 49.7317C193.385 49.397 193.864 49.4617 194.261 49.8274L194.288 49.8533L194.329 49.8934L194.332 49.8882C194.492 49.6659 194.743 49.5409 195.068 49.5589L195.105 49.5615C195.628 49.6071 196.174 50.0478 196.53 50.686C197.197 51.8778 198.95 55.8761 199.389 57.2037C199.468 57.4432 199.338 57.7013 199.097 57.7802C198.857 57.8591 198.598 57.7289 198.519 57.4894L198.485 57.389C198.013 56.0212 196.353 52.2432 195.729 51.1304C195.523 50.7611 195.246 50.5227 195.065 50.4781L195.057 50.4763L195.055 50.4879L195.052 50.5071C195.046 50.565 195.049 50.6394 195.063 50.7288L195.065 50.745L195.375 51.7887L195.382 51.8072C195.651 52.5189 195.915 53.3975 196.168 54.4417L196.193 54.5467C196.329 55.1139 195.505 55.3432 195.317 54.8092L195.309 54.7823L194.503 52.0692L194.488 52.0304C194.195 51.2698 193.912 50.7619 193.66 50.5176L193.631 50.4908L193.614 50.4761L193.61 50.4891C193.583 50.5695 193.559 50.6943 193.551 50.8513L193.549 50.8913C193.548 50.9349 193.596 51.1443 193.684 51.4378L193.696 51.4784C193.746 51.643 193.806 51.8309 193.877 52.0392L193.908 52.1331L193.911 52.14C194.175 52.7273 194.45 53.4718 194.756 54.4049L194.825 54.6196C195.006 55.1816 194.178 55.4752 193.963 54.9255L193.785 54.4648L193.758 54.3956C193.636 54.0746 193.514 53.7481 193.396 53.4278L193.279 53.1035L193.158 52.7642C193.138 52.7082 193.119 52.6534 193.1 52.5997L193.054 52.4661L193.028 52.4097C192.965 52.2731 192.903 52.1474 192.842 52.0321L192.816 51.9834C192.644 51.6657 192.484 51.4419 192.345 51.3157C192.321 51.2946 192.3 51.2772 192.28 51.2632L192.265 51.2532L192.264 51.2641C192.262 51.3061 192.263 51.3563 192.267 51.4139L192.27 51.4493C192.297 51.7491 192.399 52.1653 192.563 52.6622L192.594 52.7536L192.628 52.8218C192.664 52.8952 192.701 52.9707 192.737 53.0484L192.773 53.1268C192.948 53.5076 193.112 53.9134 193.261 54.3189L193.312 54.4572C193.328 54.5021 193.343 54.5457 193.358 54.5881L193.429 54.7968L193.451 54.8634C193.623 55.3973 192.871 55.7032 192.613 55.2224L192.601 55.1981C192.591 55.1766 192.572 55.1371 192.547 55.0814L192.494 54.9654C192.466 54.9046 192.437 54.8396 192.407 54.7709C192.263 54.444 192.118 54.0989 191.983 53.7506C191.906 53.5516 191.834 53.3571 191.768 53.1685L191.75 53.1143L191.734 53.0842C191.511 52.6537 191.297 52.3353 191.117 52.1737L191.095 52.1542L191.094 52.1594C191.088 52.2026 191.085 52.2549 191.087 52.3157L191.088 52.3533C191.102 52.6473 191.202 53.0611 191.382 53.5707C191.696 54.4588 192.226 55.5741 192.915 56.8565C194.575 59.9375 197.575 60.9126 201.967 59.0716C202.201 58.9739 202.469 59.0831 202.567 59.3156C202.665 59.548 202.556 59.8157 202.322 59.9134C197.503 61.9332 193.996 60.7932 192.108 57.2882C191.398 55.9676 190.851 54.8159 190.518 53.8741L190.475 53.7483C190.029 52.4409 190.011 51.5776 190.721 51.2294C190.756 51.2126 190.792 51.2002 190.83 51.1923C191.005 51.1556 191.176 51.1758 191.339 51.2417L191.348 51.2453C191.362 50.7801 191.535 50.4406 191.958 50.3324L191.994 50.324C192.231 50.2766 192.451 50.3106 192.658 50.4181L192.681 50.4306L192.689 50.3905C192.747 50.1319 192.849 49.9161 193 49.7602L193.029 49.7317Z" fill="#000091"/>
<path fill-rule="evenodd" clip-rule="evenodd" d="M197.779 55.1245C197.779 55.1245 198.786 52.9938 199.702 53.6026C200.618 54.2113 198.557 57.4075 198.557 57.4075" fill="white"/>
<path fill-rule="evenodd" clip-rule="evenodd" d="M197.893 54.0426L197.96 53.9523C198.448 53.3028 198.964 52.9364 199.563 53.057C199.701 53.0849 199.833 53.1406 199.956 53.2226C200.594 53.6462 200.502 54.4756 200.018 55.6311C199.914 55.8797 199.792 56.1393 199.655 56.4063C199.5 56.7102 199.333 57.0081 199.167 57.2883L199.099 57.4016C199.077 57.4378 199.056 57.4725 199.036 57.5056L198.943 57.6543C198.806 57.8665 198.522 57.9279 198.31 57.7915C198.097 57.6552 198.035 57.3727 198.172 57.1605L198.227 57.0728L198.284 56.98C198.314 56.9312 198.346 56.8788 198.379 56.8233C198.536 56.5585 198.693 56.2768 198.839 55.9912C198.966 55.7438 199.078 55.5049 199.173 55.2794C199.339 54.881 199.443 54.5401 199.471 54.2845C199.484 54.1672 199.48 54.077 199.464 54.0189L199.457 53.9975C199.454 53.9899 199.452 53.9862 199.45 53.9841L199.448 53.9824C199.422 53.9651 199.401 53.956 199.381 53.9521C199.238 53.9233 198.949 54.1426 198.637 54.5751C198.52 54.7377 198.411 54.9141 198.313 55.0907L198.264 55.1798L198.222 55.2608C198.207 55.2902 198.197 55.3103 198.193 55.3192C198.085 55.5473 197.812 55.645 197.583 55.5375C197.355 55.43 197.257 55.1579 197.364 54.9298L197.395 54.8662C197.424 54.8093 197.463 54.7353 197.511 54.6485C197.625 54.4427 197.753 54.2368 197.893 54.0426Z" fill="#000091"/>
<path fill-rule="evenodd" clip-rule="evenodd" d="M176.374 78.852C176.344 78.8216 176.298 78.7759 176.267 78.7455C173.626 76.3864 171.092 73.449 168.634 72.2923C167.992 68.9897 165.214 65.2761 154.038 67.3459C147.015 69.081 145.458 71.6531 146.252 74.1796C143.84 75.6254 138.924 79.1564 134.512 85.9596C128.405 95.3958 148.115 110.311 151.58 110.311C155.046 110.311 179.55 100.768 179.55 100.768L180.985 96.4155C183.061 90.1602 181.26 83.2657 176.374 78.852Z" fill="#F95C5E"/>
<path fill-rule="evenodd" clip-rule="evenodd" d="M168.634 72.2619C168.908 73.6317 168.801 74.9253 168.756 75.7168C168.618 79.0194 166.847 80.5871 166.466 81.8198C168.878 80.3892 171.107 77.0865 172.206 74.9253C171.519 74.2709 169.84 72.8555 168.634 72.2619Z" fill="#000091"/>
<path fill-rule="evenodd" clip-rule="evenodd" d="M154.893 82.0786C153.702 81.5306 147.214 77.8171 146.191 74.0121C144.97 74.6666 143.443 75.6254 142.252 77.0409C143.626 77.8779 151.382 82.4743 154.817 82.2155C154.863 82.2155 154.908 82.2003 154.954 82.2003C154.939 82.1547 154.924 82.109 154.893 82.0786Z" fill="#000091"/>
<path fill-rule="evenodd" clip-rule="evenodd" d="M152.71 72.2771L151.321 73.7078C151.321 73.7078 157.931 78.715 160.084 90.7994C161.488 98.6528 162.206 106.019 162.206 106.019L166.298 105.806C166.298 105.806 162.817 86.264 164.237 82.1395C165.656 78.0149 164.359 73.3729 163.397 72.6272C162.435 71.851 152.71 72.2771 152.71 72.2771Z" fill="white"/>
<path fill-rule="evenodd" clip-rule="evenodd" d="M151.397 63.7693C151.397 63.7693 149.015 64.4085 149.962 66.448C150.908 68.4874 153.259 66.5849 153.259 66.5849L152.145 63.6323L151.397 63.7693Z" fill="white"/>
<path fill-rule="evenodd" clip-rule="evenodd" d="M152.062 63.1833L151.314 63.3203L151.296 63.324L151.278 63.3284C151.209 63.3469 151.101 63.382 150.966 63.4362C150.744 63.5255 150.522 63.6386 150.313 63.7793C149.358 64.4185 148.971 65.4005 149.546 66.6397C149.947 67.5045 150.627 67.8945 151.445 67.8436C151.912 67.8145 152.389 67.647 152.862 67.3885C153.165 67.2225 153.404 67.0562 153.548 66.9395C153.701 66.8156 153.757 66.6081 153.688 66.4242L152.574 63.4716C152.495 63.2648 152.28 63.1434 152.062 63.1833ZM151.851 64.1503L152.707 66.4169L152.673 66.4392C152.593 66.49 152.509 66.54 152.421 66.5878C152.056 66.7874 151.699 66.9128 151.388 66.9321C150.941 66.9599 150.618 66.7742 150.377 66.2563C150.01 65.4644 150.215 64.945 150.824 64.5371C150.976 64.4348 151.143 64.35 151.309 64.2831L151.341 64.2704L151.399 64.2487C151.434 64.2357 151.464 64.2257 151.487 64.2186L151.5 64.2145L151.851 64.1503Z" fill="#000091"/>
<path fill-rule="evenodd" clip-rule="evenodd" d="M156.572 55.3376C157.198 55.1246 161.458 53.7852 162.832 57.2705C164.206 60.7558 164.679 64.8651 164.725 66.7828C164.771 68.7005 156.267 69.9028 155.763 69.8572C155.259 69.8115 154.557 69.4006 154.557 69.4006L152.053 64.1498C152.023 64.1346 149.916 57.5597 156.572 55.3376Z" fill="white"/>
<path fill-rule="evenodd" clip-rule="evenodd" d="M157.532 54.6118C157.1 54.6977 156.733 54.8005 156.424 54.9055C153.346 55.9332 151.755 57.936 151.353 60.5008C151.213 61.3935 151.229 62.2917 151.357 63.1464L151.367 63.208C151.445 63.7166 151.529 64.1001 151.648 64.332L151.652 64.3397L151.64 64.3458L154.143 69.5966C154.183 69.6792 154.246 69.7481 154.325 69.7943L154.381 69.8265C154.493 69.8888 154.648 69.9684 154.828 70.0482C154.981 70.1159 155.131 70.1736 155.275 70.2183C155.433 70.2669 155.582 70.2992 155.722 70.3119L155.756 70.314C156.276 70.3337 158.623 69.9637 160.428 69.5314L160.559 69.4996C163.504 68.7785 165.211 67.9628 165.183 66.7719C165.117 64.0014 164.439 60.0976 163.258 57.1035C162.579 55.3809 161.212 54.5609 159.447 54.4613C158.819 54.4258 158.173 54.4845 157.532 54.6118ZM152.463 63.9369C152.448 63.8873 152.429 63.8213 152.409 63.745C152.355 63.5333 152.304 63.2843 152.263 63.0116C152.148 62.2427 152.133 61.4356 152.258 60.6418C152.605 58.427 153.944 56.723 156.632 55.7995L156.718 55.7706C156.993 55.6768 157.322 55.5846 157.711 55.5074C158.281 55.3941 158.852 55.3423 159.396 55.373C160.828 55.4539 161.87 56.0784 162.406 57.4375C163.543 60.323 164.203 64.1231 164.267 66.7937C164.279 67.2926 162.752 68.0225 160.341 68.6128C159.444 68.8325 158.468 69.0265 157.542 69.1778L157.209 69.2306C156.497 69.3401 155.885 69.4097 155.805 69.4025C155.735 69.3962 155.647 69.377 155.546 69.3459C155.439 69.3128 155.322 69.2677 155.2 69.2137L155.123 69.1787C155.072 69.155 155.022 69.1307 154.974 69.1061L154.907 69.0717L152.467 63.9538C152.423 63.8617 152.349 63.787 152.258 63.7414C152.408 63.816 152.365 63.6279 152.407 63.7569L152.463 63.9369Z" fill="#000091"/>
<path fill-rule="evenodd" clip-rule="evenodd" d="M154.313 68.2439L154.16 70.8921L152.847 72.3989C152.847 72.3989 156.725 74.7883 160.435 79.0042C160.435 79.0042 163.473 75.8081 164.007 70.8008L156.893 71.6835L156.328 68.9136L154.313 68.2439Z" fill="white"/>
<path fill-rule="evenodd" clip-rule="evenodd" d="M153.856 68.2177L153.712 70.7104L152.501 72.0994C152.323 72.3046 152.363 72.6168 152.582 72.7713L152.758 72.8836L152.91 72.9832C152.999 73.0423 153.096 73.1076 153.2 73.1791C153.68 73.5075 154.216 73.8963 154.793 74.3437C156.443 75.6232 158.094 77.1129 159.634 78.7963C159.788 78.9647 159.94 79.1343 160.091 79.3053C160.268 79.5073 160.582 79.5133 160.767 79.3182L160.794 79.2902C160.828 79.2524 160.878 79.1969 160.94 79.1243C161.071 78.9718 161.216 78.7926 161.371 78.5875C161.813 78.0049 162.253 77.3291 162.665 76.5669C163.599 74.835 164.242 72.9186 164.463 70.8491L164.465 70.8226C164.479 70.5419 164.235 70.3124 163.951 70.3477L157.257 71.1781L156.777 68.8226C156.744 68.6625 156.628 68.532 156.473 68.4804L154.458 67.8107C154.172 67.7156 153.873 67.9175 153.856 68.2177ZM154.736 68.8657L155.932 69.2633L156.444 71.7745L156.45 71.8011C156.509 72.0201 156.721 72.1649 156.95 72.1366L163.479 71.3265L163.459 71.4574C163.193 73.1341 162.631 74.7004 161.858 76.1345C161.47 76.8536 161.055 77.4903 160.64 78.037L160.587 78.1072C160.551 78.1531 160.517 78.1975 160.483 78.2403L160.428 78.3092L160.311 78.181C158.733 76.4566 157.044 74.9325 155.355 73.6228C154.803 73.1946 154.287 72.8181 153.818 72.4947L153.592 72.3401L153.537 72.3031L154.506 71.1915C154.572 71.1152 154.612 71.0192 154.617 70.9183L154.736 68.8657Z" fill="#000091"/>
<path fill-rule="evenodd" clip-rule="evenodd" d="M152.832 63.8911C153.336 64.1803 155 66.2045 155.534 67.209C155.534 67.209 158.023 65.6414 161.901 64.6369C161.901 64.6369 164.023 64.1498 164.939 64.1955C164.939 64.1955 165.687 68.0156 164.466 70.4051C163.229 72.7794 159.473 73.1294 157.473 72.3685C155.473 71.6075 155.061 71.1204 154.359 69.9638C153.656 68.8071 151.443 64.3629 151.443 64.3629L152.832 63.8911Z" fill="#E3E3FD"/>
<path fill-rule="evenodd" clip-rule="evenodd" d="M151.916 64.9717C151.916 64.9717 150.359 63.5106 149.473 61.806C148.649 60.2079 149 58.2294 150.389 57.0727C151.55 56.1138 152.649 56.3726 152.649 56.3726C152.649 56.3726 150.664 54.3331 152.237 51.7154C152.801 50.787 153.717 50.1325 154.771 49.9042C157.351 49.3411 158.695 51.3197 158.695 51.3197C158.695 51.3197 160.191 45.6123 166.572 47.1951C167.214 47.3625 168.069 48.0322 168.511 48.5192C171.214 51.4871 166.084 57.0422 162.969 58.1533C159.55 59.3708 157.351 59.2947 156.008 58.7164C156.985 59.0208 157.336 64.4999 151.916 64.9717Z" fill="#000091"/>
<path fill-rule="evenodd" clip-rule="evenodd" d="M161.299 62.7627C161.528 62.6784 161.781 62.7878 161.877 63.0078L161.888 63.0327L163.078 66.244C163.187 66.5361 162.977 66.8451 162.67 66.8585L162.643 66.8589L161.406 66.8436C161.154 66.8405 160.951 66.6336 160.954 66.3815C160.957 66.1383 161.15 65.9419 161.391 65.931L161.418 65.9305L161.988 65.9375L161.028 63.3493C160.944 63.1212 161.053 62.8689 161.274 62.7727L161.299 62.7627Z" fill="#000091"/>
<path fill-rule="evenodd" clip-rule="evenodd" d="M163.07 63.3834C163.259 63.337 163.354 63.0679 163.283 62.7823C163.212 62.4967 163.002 62.3027 162.814 62.3491C162.626 62.3955 162.531 62.6646 162.601 62.9502C162.672 63.2358 162.882 63.4297 163.07 63.3834Z" fill="#000091"/>
<path fill-rule="evenodd" clip-rule="evenodd" d="M160.015 64.1122C160.209 64.1017 160.353 63.8551 160.337 63.5613C160.321 63.2676 160.151 63.0379 159.957 63.0484C159.763 63.0588 159.619 63.3055 159.635 63.5992C159.651 63.893 159.821 64.1226 160.015 64.1122Z" fill="#000091"/>
<path fill-rule="evenodd" clip-rule="evenodd" d="M159.01 60.9846C159.262 60.9732 159.476 61.1681 159.488 61.42C159.499 61.6629 159.318 61.8701 159.078 61.8949L159.051 61.8968C158.736 61.9111 158.492 62.0236 158.299 62.2057C158.226 62.2744 158.165 62.3483 158.118 62.4212L158.098 62.4519C158.087 62.47 158.08 62.483 158.077 62.4898L158.075 62.4937C157.972 62.7241 157.702 62.8279 157.47 62.7255C157.239 62.6231 157.135 62.3532 157.238 62.1228C157.259 62.0746 157.296 62.006 157.35 61.9236C157.435 61.7927 157.541 61.6628 157.67 61.5413C158.016 61.2158 158.464 61.0093 159.01 60.9846Z" fill="#000091"/>
<path fill-rule="evenodd" clip-rule="evenodd" d="M162.882 59.0852C163.245 59.0917 163.575 59.2139 163.839 59.4703C164.02 59.6464 164.023 59.9355 163.847 60.1159C163.677 60.2892 163.403 60.2993 163.221 60.144L163.199 60.1237C163.113 60.04 163.007 60.0007 162.866 59.9982C162.698 59.9952 162.499 60.0456 162.294 60.1339C162.24 60.1575 162.188 60.1825 162.14 60.2076L162.093 60.2328C162.071 60.2454 162.053 60.2557 162.042 60.2627L162.029 60.2706C161.817 60.4085 161.533 60.349 161.395 60.1379C161.257 59.9267 161.316 59.6438 161.528 59.506C161.615 59.4495 161.753 59.3723 161.93 59.2959C162.244 59.1603 162.564 59.0795 162.882 59.0852Z" fill="#000091"/>
<path fill-rule="evenodd" clip-rule="evenodd" d="M161.81 67.4262L161.81 67.423L159.932 67.5448C159.578 67.5678 159.383 67.9666 159.584 68.2586C159.615 68.3038 159.665 68.3634 159.736 68.4317C159.843 68.5342 159.974 68.6339 160.133 68.7249C160.464 68.9152 160.875 69.0456 161.367 69.094C161.385 69.0958 161.404 69.0965 161.422 69.0961C161.971 69.0845 162.303 68.7602 162.345 68.3004C162.356 68.1771 162.347 68.0582 162.323 67.9377L162.308 67.867L162.292 67.8044L162.288 67.7822C162.25 67.5902 162.099 67.4221 161.84 67.4221L161.81 67.4262Z" fill="#000091"/>
<path fill-rule="evenodd" clip-rule="evenodd" d="M155.46 80.7615C155.683 80.665 155.942 80.7606 156.05 80.9751L156.069 81.0169L156.158 81.2272L156.216 81.3679C156.276 81.5133 156.34 81.6725 156.407 81.8441C156.665 82.4975 156.923 83.1977 157.164 83.9176C157.42 84.6861 157.643 85.4325 157.82 86.1409C158.028 86.9686 158.17 87.7252 158.235 88.3965C158.259 88.6475 158.074 88.8706 157.823 88.8948C157.571 88.919 157.347 88.7352 157.323 88.4842C157.263 87.8628 157.129 87.1492 156.932 86.3623C156.76 85.6784 156.544 84.954 156.294 84.2063C156.083 83.5732 155.857 82.9548 155.631 82.3715L155.555 82.1784C155.467 81.9548 155.385 81.7532 155.312 81.5769L155.221 81.3617C155.12 81.1302 155.227 80.8615 155.46 80.7615Z" fill="#000091"/>
<path fill-rule="evenodd" clip-rule="evenodd" d="M165.495 80.9083C165.738 80.8875 165.953 81.0598 165.988 81.2974L166.136 82.9538L166.192 83.5647C166.276 84.4799 166.363 85.3874 166.449 86.2528L166.53 87.056C166.564 87.3936 166.598 87.7176 166.631 88.0267C166.658 88.2775 166.476 88.5024 166.224 88.5291C165.973 88.5558 165.747 88.3742 165.72 88.1235L165.67 87.6468C165.636 87.3217 165.601 86.9825 165.566 86.6304L165.48 85.7586C165.403 84.9723 165.326 84.1589 165.252 83.3425L165.128 81.9726L165.078 81.4024C165.056 81.1511 165.243 80.9299 165.495 80.9083Z" fill="#000091"/>
<path fill-rule="evenodd" clip-rule="evenodd" d="M150.696 87.2161C150.885 87.0487 151.175 87.0659 151.343 87.2545C151.504 87.4358 151.494 87.7096 151.325 87.8792L151.304 87.8991L148.449 90.4255C148.298 90.5595 148.076 90.5785 147.904 90.4723C146.292 89.4775 144.956 89.5101 143.875 90.1426C143.711 90.2385 143.569 90.3407 143.45 90.4419L143.409 90.4778C143.377 90.5055 143.354 90.5278 143.339 90.5432L143.324 90.5584C143.154 90.7451 142.864 90.759 142.677 90.5895C142.49 90.4201 142.476 90.1313 142.646 89.9446C142.687 89.8993 142.757 89.8307 142.856 89.7469C143.014 89.6124 143.2 89.479 143.412 89.355C144.691 88.6064 146.266 88.5238 148.035 89.4912L148.09 89.522L150.696 87.2161Z" fill="#000091"/>
<path fill-rule="evenodd" clip-rule="evenodd" d="M147.473 89.7055C147.593 89.4946 147.857 89.4161 148.073 89.5222L148.181 89.5827L150.298 90.7861L154.376 93.0937C154.995 93.4416 155.391 93.6619 155.508 93.7228L155.534 93.7358C155.762 93.8446 155.858 94.1172 155.749 94.3447C155.64 94.5722 155.367 94.6684 155.138 94.5596L155.037 94.5066C154.792 94.3755 154.179 94.0323 153.245 93.5054L151.115 92.2999L147.643 90.3284C147.424 90.2034 147.347 89.9245 147.473 89.7055Z" fill="#000091"/>
<path fill-rule="evenodd" clip-rule="evenodd" d="M171.38 86.2266C171.604 86.1286 171.863 86.2223 171.973 86.4361L171.984 86.4603L173.404 89.6716C173.506 89.9024 173.401 90.1719 173.17 90.2736C172.946 90.3717 172.687 90.2779 172.577 90.0642L172.566 90.0399L171.146 86.8286C171.044 86.5979 171.149 86.3283 171.38 86.2266Z" fill="#000091"/>
<path fill-rule="evenodd" clip-rule="evenodd" d="M154.985 106.674C154.985 106.674 147.901 103.736 139.122 97.6787C130.359 91.6213 124.771 100.997 127.137 104.832C129.214 108.211 140.893 119.839 140.893 119.839L180.618 119.519C180.618 119.519 189.947 107.815 191.412 105.973C196.374 99.7638 192.267 96.4916 186.832 96.0198C181.702 95.5784 167.87 105.623 166.176 106.917L154.985 106.674Z" fill="#000091"/>
<path fill-rule="evenodd" clip-rule="evenodd" d="M179.29 89.521H153.763C153.428 89.521 153.137 89.7493 153.061 90.0689L149.595 104.665H143.183C143.183 104.665 142.603 107.663 145.992 107.663C146.863 107.663 148.145 107.663 149.595 107.663C149.657 107.678 149.733 107.693 149.794 107.693H175.321C175.657 107.693 175.947 107.465 176.023 107.145L179.992 90.419C180.099 89.9471 179.748 89.521 179.29 89.521Z" fill="#6A6AF4"/>
<path fill-rule="evenodd" clip-rule="evenodd" d="M240.878 119.321C241.131 119.321 241.336 119.525 241.336 119.778C241.336 120.021 241.145 120.22 240.905 120.233L240.878 120.234H1.12208C0.869123 120.234 0.664062 120.03 0.664062 119.778C0.664062 119.534 0.854737 119.336 1.09517 119.322L1.12208 119.321H240.878Z" fill="#000091"/>
</svg>
