<svg width="234" height="139" viewBox="0 0 234 139" fill="none" xmlns="http://www.w3.org/2000/svg">
<path fill-rule="evenodd" clip-rule="evenodd" d="M19.1455 32.5024C19.1455 32.5024 12.7284 60.4816 40.3661 75.3368L50.6528 65.8401C50.6528 65.8401 50.9282 33.063 19.1455 32.5024Z" fill="#319795"/>
<path fill-rule="evenodd" clip-rule="evenodd" d="M19.1516 32.0079C18.9633 32.0045 18.797 32.1541 18.7472 32.3715L18.7226 32.485L18.7168 32.5129C18.6938 32.624 18.6684 32.7545 18.6411 32.9038C18.5637 33.3275 18.4865 33.8189 18.4146 34.3729C18.034 37.3055 17.9472 40.6781 18.3364 44.3088C18.869 49.2778 20.2431 54.1357 22.641 58.6949C26.2588 65.5738 32.0043 71.3845 40.197 75.7881C40.3359 75.8627 40.4978 75.8399 40.6184 75.7285L50.9052 66.2318C51.0055 66.1392 51.0648 65.9967 51.066 65.845L51.0653 65.677C51.0642 65.5893 51.0621 65.4825 51.0586 65.3575C51.0492 65.0254 51.0317 64.6473 51.0041 64.227C50.9274 63.056 50.7872 61.7629 50.568 60.3786C49.949 56.4687 48.8264 52.5668 47.0739 48.9209C44.828 44.2487 41.7007 40.3363 37.5704 37.4398C32.7104 34.0316 26.6095 32.1394 19.1516 32.0079ZM19.4689 33.0041L19.577 33.0068C26.6976 33.2007 32.5155 35.0413 37.1528 38.2934C41.1544 41.0997 44.1812 44.8862 46.3578 49.4143C48.0606 52.9568 49.1534 56.7553 49.7562 60.5628C49.9696 61.9105 50.1059 63.1681 50.1804 64.3044C50.2043 64.6693 50.2204 65.0002 50.2299 65.2943L50.2354 65.4872L50.2377 65.5987L40.3102 74.7637L40.0554 74.6244C32.2638 70.3323 26.7984 64.7433 23.3401 58.1678C21.0092 53.7359 19.6738 49.0149 19.1559 44.1829C18.7773 40.651 18.8617 37.3704 19.2311 34.5248L19.2634 34.2829C19.3177 33.8872 19.3744 33.5287 19.4312 33.2097L19.4592 33.0561L19.4689 33.0041Z" fill="#1D4044"/>
<path fill-rule="evenodd" clip-rule="evenodd" d="M43.6987 4.60547C43.6987 4.60547 77.244 25.7589 60.7055 73.3582L42.3216 75.518C42.3216 75.5345 13.7199 45.1151 43.6987 4.60547Z" fill="#319795"/>
<path fill-rule="evenodd" clip-rule="evenodd" d="M43.3895 4.27746C36.3178 13.8333 32.1101 23.3266 30.4323 32.674C29.01 40.5978 29.4391 48.2058 31.3748 55.4105C32.8792 61.0101 35.1999 66.0469 37.9922 70.4411C38.9705 71.9805 39.9387 73.3306 40.8521 74.4784L40.9984 74.6612C41.2389 74.9595 41.4614 75.2258 41.6623 75.458L41.7978 75.6131C41.8343 75.6544 41.8687 75.6931 41.9007 75.7287L42.0519 75.8928L42.0788 75.9182L42.1119 75.9445C42.1209 75.9507 42.133 75.9575 42.1694 75.9779L42.1937 75.9884L42.2804 76.0102L42.3589 75.9744L42.3619 76.0103L60.7458 73.8504C60.8973 73.8326 61.0284 73.7165 61.0869 73.5482C65.7004 60.2703 66.7321 48.2496 64.7389 37.4636C63.1292 28.7528 59.6264 21.2186 54.7998 14.8259C52.4178 11.6709 49.866 8.99942 47.3134 6.79939C46.4617 6.06532 45.6673 5.43434 44.9486 4.90523L44.8413 4.82662C44.6054 4.65444 44.3929 4.50456 44.2058 4.37686L44.0635 4.28068L43.8912 4.16785C43.7228 4.06168 43.5157 4.10694 43.3895 4.27746ZM43.5924 5.49938L43.7887 5.23069L43.9207 5.32165C44.0694 5.42487 44.2333 5.54142 44.4113 5.67134C45.1405 6.2034 45.9539 6.84663 46.8307 7.60225C49.3381 9.76337 51.8463 12.3893 54.1869 15.4893C58.9226 21.7616 62.3555 29.1456 63.9322 37.6773L63.99 37.9951C65.8482 48.39 64.8489 59.9683 60.4595 72.7757L60.4182 72.8949L42.4634 75.0043L42.3654 74.8942L42.2934 74.8122C42.0469 74.5295 41.7632 74.1893 41.4503 73.7961C40.5573 72.6738 39.6089 71.3514 38.6498 69.8421C35.9108 65.5319 33.6349 60.5921 32.1614 55.1076C30.2686 48.0626 29.8494 40.6298 31.2401 32.8818C32.8538 23.8913 36.8625 14.7401 43.5924 5.49938Z" fill="#1D4044"/>
<path fill-rule="evenodd" clip-rule="evenodd" d="M89.2521 23.3516C89.2521 23.3516 102.679 47.5057 80.3287 71.9896L68.0728 66.8455C68.0728 66.8455 59.2045 35.8326 89.2521 23.3516Z" fill="#319795"/>
<path fill-rule="evenodd" clip-rule="evenodd" d="M89.1167 22.8843C82.0086 25.8368 76.6811 29.9692 72.955 35.088C69.7945 39.4298 67.8684 44.3622 66.9893 49.6829C66.3064 53.816 66.289 57.9436 66.7474 61.8731C66.9003 63.1833 67.0968 64.3826 67.3167 65.4504L67.3498 65.6095C67.4243 65.963 67.4966 66.2788 67.5645 66.5546L67.5848 66.6362C67.6056 66.7193 67.6248 66.7939 67.6422 66.8598L67.6819 67.0057C67.7229 67.1491 67.8166 67.2621 67.9361 67.3123L80.192 72.4564C80.3356 72.5166 80.4953 72.4775 80.6075 72.3545C88.0618 64.1884 92.0962 55.5169 93.2911 46.6398C94.1887 39.9722 93.4374 33.6913 91.6372 28.0858C91.1935 26.704 90.7176 25.4727 90.2412 24.4067C90.089 24.0662 89.9464 23.7646 89.8164 23.5032L89.7225 23.3171C89.6654 23.2056 89.6226 23.1255 89.596 23.0776C89.4917 22.8899 89.2945 22.8104 89.1167 22.8843ZM88.971 23.9941L89.0765 23.9494L89.1442 24.0856C89.2577 24.3164 89.3812 24.5793 89.5127 24.8734C89.9735 25.9044 90.435 27.0986 90.866 28.4408C92.6172 33.8935 93.3478 40.0019 92.4754 46.4824L92.4397 46.7419C91.2558 55.1327 87.4526 63.3509 80.4806 71.1478L80.2314 71.4246L68.4035 66.46L68.3762 66.3522L68.3334 66.1779C68.2754 65.9378 68.2141 65.6672 68.151 65.3676C67.9247 64.2939 67.7219 63.0753 67.5657 61.7363C67.1193 57.9097 67.1362 53.8911 67.7998 49.8749C68.6519 44.7181 70.516 39.9442 73.5779 35.7379C77.133 30.8541 82.2032 26.8787 88.971 23.9941Z" fill="#1D4044"/>
<path fill-rule="evenodd" clip-rule="evenodd" d="M103.023 44.4888C103.023 44.4888 101.591 78.6013 72.7135 75.5676L66.0898 64.0429C66.0898 64.0264 73.0578 33.739 103.023 44.4888Z" fill="#F7FAFC"/>
<path fill-rule="evenodd" clip-rule="evenodd" d="M84.5187 42.5241C79.9822 43.7619 76.1737 46.3059 73.0351 49.8692C70.6393 52.5893 68.7658 55.7446 67.3528 59.0684L67.2775 59.2466C66.406 61.3244 65.6766 63.693 65.6766 64.0426C65.6766 64.1427 65.702 64.2405 65.7494 64.323L72.3731 75.8477C72.443 75.9693 72.5546 76.0471 72.6773 76.06C79.7964 76.8079 85.6595 75.3695 90.3698 72.0571C94.3225 69.2774 97.343 65.2689 99.5483 60.3576C101.104 56.8927 102.165 53.1847 102.824 49.4773C103.054 48.1796 103.218 46.9741 103.327 45.891L103.348 45.6679C103.372 45.4137 103.392 45.1804 103.407 44.9695L103.418 44.8202L103.43 44.6107C103.433 44.5638 103.435 44.5311 103.435 44.5133C103.445 44.2859 103.324 44.08 103.141 44.0147C96.0524 41.4715 89.8639 41.0657 84.5187 42.5241ZM102.488 44.815L102.586 44.8495L102.57 45.0634C102.553 45.2786 102.532 45.5156 102.506 45.7732C102.401 46.8277 102.241 48.004 102.016 49.2715C101.372 52.8929 100.336 56.5138 98.8205 59.8892C96.6832 64.6493 93.7646 68.5225 89.9513 71.2041L89.8143 71.2997C85.3711 74.3737 79.8588 75.7426 73.1611 75.1155L72.943 75.0943L66.5416 63.9564L66.5691 63.8518L66.6137 63.6866C66.676 63.4595 66.7498 63.2056 66.8353 62.9278C67.1411 61.9349 67.5322 60.8437 68.0159 59.6906C69.397 56.3977 71.24 53.2706 73.6036 50.5871C76.6381 47.142 80.3154 44.6856 84.7023 43.4887C89.7981 42.0982 95.7052 42.4512 102.488 44.815Z" fill="#1D4044"/>
<path fill-rule="evenodd" clip-rule="evenodd" d="M73.7188 6.68311C73.7188 6.68311 98.4234 34.0523 74.5312 76.9691L49.9919 75.0236C49.9919 75.0236 34.9956 34.5964 73.7188 6.68311Z" fill="#319795"/>
<path fill-rule="evenodd" clip-rule="evenodd" d="M73.5057 6.25936C64.8425 12.5042 58.4188 19.6769 54.0122 27.6014C49.7087 35.3404 47.4438 43.5711 46.8677 52.0169C46.4323 58.4011 46.9813 64.4585 48.1635 69.9216C48.4655 71.3171 48.7883 72.5705 49.1124 73.6668L49.1566 73.8153C49.2648 74.1764 49.3661 74.4965 49.4585 74.7741L49.5198 74.9558C49.5414 75.0192 49.5614 75.0764 49.5794 75.1275L49.6143 75.2244C49.6766 75.3923 49.8115 75.505 49.9646 75.5172L74.504 77.4627C74.6515 77.4744 74.793 77.3908 74.875 77.2435C82.1835 64.1154 85.4563 51.6084 85.3542 39.8409C85.2745 30.6572 83.1609 22.4427 79.688 15.3079C78.4479 12.7602 77.1188 10.5329 75.7888 8.63975C75.3223 7.97578 74.8886 7.40056 74.4986 6.91581L74.3508 6.73382C74.2879 6.65731 74.229 6.58664 74.1741 6.52184L74.0443 6.37082C74.0254 6.34914 74.0103 6.33222 73.9994 6.32006C73.8644 6.17056 73.6632 6.14582 73.5057 6.25936ZM73.4209 7.47822L73.6594 7.30402L73.8078 7.4839C73.8388 7.52184 73.8707 7.56123 73.9035 7.60207C74.2809 8.07114 74.7022 8.6299 75.1565 9.27654C76.4572 11.1279 77.7589 13.3093 78.9741 15.806C82.3786 22.8003 84.4499 30.8502 84.528 39.8511L84.53 40.1983C84.5631 51.5451 81.3989 63.6114 74.4029 76.306L74.3193 76.4565L50.2739 74.5503L50.2523 74.4863C50.1566 74.202 50.0497 73.8663 49.9344 73.4813C49.6037 72.3776 49.2726 71.1026 48.9633 69.6735C47.803 64.3115 47.2639 58.3631 47.6912 52.0974C48.2562 43.8136 50.4768 35.7442 54.7 28.1496C58.9502 20.5063 65.1179 13.5614 73.4209 7.47822Z" fill="#1D4044"/>
<path fill-rule="evenodd" clip-rule="evenodd" d="M65.7593 27.4077C65.7593 27.4077 28.8538 47.4565 49.2758 74.2486L66.0898 73.9353C66.0898 73.9353 86.0435 56.7059 65.7593 27.4077Z" fill="#319795"/>
<path fill-rule="evenodd" clip-rule="evenodd" d="M65.5886 26.9573L65.4863 27.014L65.3274 27.1037C65.1176 27.2233 64.8746 27.3655 64.6011 27.5297L64.3519 27.6804C63.6377 28.1154 62.8544 28.6172 62.018 29.1837C59.3473 30.9924 56.6765 33.0876 54.182 35.4457C48.8731 40.4641 45.0903 45.9712 43.5071 51.8953C41.5253 59.3108 43.1346 66.9256 48.9706 74.582C49.0504 74.6867 49.1639 74.7454 49.2822 74.7432L66.0962 74.4299C66.1807 74.4283 66.2628 74.3957 66.3314 74.3365L66.3989 74.2765L66.4392 74.2399C66.5228 74.1634 66.6192 74.0723 66.7275 73.9669C67.0346 73.6676 67.3759 73.3116 67.7429 72.8996C68.7888 71.7254 69.8338 70.3354 70.8091 68.7346C73.6264 64.111 75.3064 58.6968 75.2736 52.5455C75.2316 44.6544 72.3486 36.1502 66.0773 27.0921C65.9584 26.9203 65.7582 26.8651 65.5886 26.9573ZM65.6444 28.0186L65.8065 28.2561C71.7081 36.9457 74.4075 45.0559 74.4474 52.5518C74.479 58.4744 72.861 63.6886 70.1416 68.1516C69.1983 69.6998 68.1876 71.0442 67.1777 72.178C66.8523 72.5433 66.5488 72.8619 66.274 73.1329L66.163 73.2412L66.0434 73.3555C66.0183 73.3791 65.9942 73.4016 65.9712 73.4229L65.9489 73.4432L49.4563 73.7505L49.5809 73.9152C43.9378 66.5118 42.4057 59.2625 44.294 52.1968C45.8183 46.493 49.5025 41.1296 54.694 36.2221C57.1525 33.898 59.7886 31.8301 62.4248 30.0447L62.7139 29.8501C63.4788 29.3382 64.1951 28.8833 64.8496 28.4875L64.9716 28.4139C65.1594 28.3011 65.3323 28.1991 65.4894 28.108L65.6444 28.0186Z" fill="#1D4044"/>
<path fill-rule="evenodd" clip-rule="evenodd" d="M10.9795 51.2814C10.9795 51.2814 22.6983 83.6957 51.5479 80.2334L57.0424 74.5287C57.0287 74.5287 40.8206 40.1029 10.9795 51.2814Z" fill="#319795"/>
<path fill-rule="evenodd" clip-rule="evenodd" d="M32.982 51.4534C38.5289 53.562 43.5267 57.2805 47.9595 62.153C50.4735 64.9165 52.6483 67.8777 54.4795 70.8417C55.1186 71.8762 55.6685 72.8357 56.1315 73.7008L56.1788 73.7895C56.2721 73.9649 56.3573 74.1279 56.4351 74.2794L56.5102 74.4266L51.3766 79.7565L51.5067 79.7414C44.4979 80.5825 38.1489 79.34 32.4283 76.3208C27.6417 73.7945 23.4322 70.1006 19.7767 65.5443C17.2356 62.3771 15.1105 58.9825 13.3848 55.5885C12.7813 54.4015 12.271 53.3 11.8519 52.3126L11.8125 52.2196C11.7349 52.0355 11.6638 51.8632 11.5992 51.7032L11.5529 51.588L11.5712 51.5815C19.2097 48.8292 26.3475 48.9312 32.982 51.4534ZM57.3389 74.1574L57.2539 73.9873L57.1787 73.8388C57.0881 73.6612 56.9875 73.4681 56.8757 73.2582L56.8272 73.1671C56.3545 72.2839 55.7942 71.3063 55.1438 70.2534C53.2829 67.2412 51.0737 64.2333 48.5182 61.4243C44.0022 56.4602 38.903 52.6663 33.2321 50.5105C26.3017 47.8759 18.8343 47.8209 10.8561 50.8095C10.622 50.8972 10.5029 51.2085 10.6004 51.478L10.6338 51.5683L10.6878 51.7101C10.7011 51.7445 10.7152 51.7809 10.7302 51.8193L10.8222 52.0515C10.8975 52.2394 10.9817 52.4443 11.0748 52.6652L11.1153 52.7608C11.5438 53.7702 12.0643 54.8937 12.6791 56.1029C14.4345 59.5553 16.5952 63.007 19.1808 66.2296C22.9073 70.8743 27.2035 74.6443 32.095 77.226C37.945 80.3135 44.4371 81.584 51.5891 80.7257C51.674 80.7155 51.7542 80.6741 51.8186 80.6072L57.3131 74.9025L57.3306 74.8835C57.5833 74.5921 57.4312 74.0802 57.0892 74.0371L57.0674 74.0351L57.0424 74.0342C57.1644 74.0342 57.2586 74.0876 57.3179 74.1383L57.3389 74.1574Z" fill="#1D4044"/>
<path fill-rule="evenodd" clip-rule="evenodd" d="M87.5858 72.6162H29.5148C28.4132 72.6162 27.5181 73.6879 27.5181 75.0069V83.7288C27.5181 85.0478 28.4132 86.1194 29.5148 86.1194H32.8336L42.7347 138.187H74.1456L84.0467 86.1194H87.5996C88.7012 86.1194 89.5963 85.0478 89.5963 83.7288V75.0069C89.5825 73.6879 88.6875 72.6162 87.5858 72.6162Z" fill="#81E6D9"/>
<path fill-rule="evenodd" clip-rule="evenodd" d="M82.9864 85.6084C83.2146 85.6084 83.3995 85.8298 83.3995 86.103C83.3995 86.3664 83.2275 86.5818 83.0107 86.5968L82.9864 86.5976H33.9765C33.7484 86.5976 33.5634 86.3762 33.5634 86.103C33.5634 85.8396 33.7354 85.6243 33.9523 85.6092L33.9765 85.6084H82.9864Z" fill="#F7FAFC"/>
<path fill-rule="evenodd" clip-rule="evenodd" d="M46.8935 132.631C47.0587 133.999 47.6784 135.895 49.1794 137.511L49.4824 138.319L70.4414 138.088C89.8442 130.24 123.927 122.145 123.927 122.145L87.82 95.0889C87.82 95.0889 65.8144 101.074 57.4005 106.91C49.0004 112.763 46.0948 126.003 46.8935 132.631Z" fill="#F7FAFC"/>
<path fill-rule="evenodd" clip-rule="evenodd" d="M87.7285 94.6065L87.1078 94.7788C86.858 94.8489 86.581 94.9274 86.2786 95.014L85.6375 95.1986C84.6571 95.4827 83.5926 95.7988 82.4621 96.1438C78.5138 97.3488 74.5653 98.6588 70.8787 100.029L70.213 100.278C64.9308 102.269 60.6891 104.212 57.8386 106.051C57.6146 106.196 57.3995 106.339 57.1934 106.482C53.2309 109.243 50.2108 113.786 48.3155 119.291C46.7017 123.979 46.0469 129.069 46.4846 132.701L46.4963 132.794C46.7211 134.498 47.4764 136.274 48.761 137.722L48.8378 137.808L49.1055 138.522C49.1727 138.701 49.3221 138.815 49.4862 138.814L70.4452 138.583C70.4889 138.582 70.5322 138.573 70.5736 138.557C71.1429 138.326 71.7291 138.094 72.3318 137.86L72.8822 137.648C77.8737 135.732 83.8953 133.717 90.7272 131.64C97.8333 129.48 105.436 127.367 113.05 125.383L114.622 124.976C116.884 124.392 119.001 123.857 120.934 123.379L122.337 123.034L124.007 122.63C124.374 122.543 124.463 121.963 124.146 121.725L88.0391 94.6696C87.9466 94.6002 87.8349 94.5776 87.7285 94.6065ZM87.7456 95.6166L122.828 121.905L121.259 122.289L120.115 122.572C118.139 123.063 115.984 123.61 113.688 124.205L113.433 124.271C105.809 126.251 98.1856 128.362 91.0455 130.523L90.5239 130.681C83.423 132.84 77.1932 134.933 72.0769 136.919L71.8182 137.02C71.4747 137.154 71.1366 137.288 70.804 137.421L70.3715 137.594L49.7486 137.821L49.5563 137.308C49.5327 137.246 49.4984 137.189 49.4556 137.143C48.2079 135.8 47.492 134.13 47.3024 132.56C46.8871 129.114 47.5192 124.2 49.0794 119.668C50.9097 114.352 53.816 109.98 57.6083 107.338C57.8062 107.201 58.0139 107.062 58.2306 106.922L58.4071 106.809C61.2899 104.982 65.6005 103.034 70.9576 101.036L71.1236 100.974C74.6641 99.6579 78.4498 98.3969 82.2445 97.2315L82.6661 97.1024C84.0437 96.682 85.3229 96.3046 86.4706 95.9761L87.2124 95.7656L87.7456 95.6166Z" fill="#1D4044"/>
<path fill-rule="evenodd" clip-rule="evenodd" d="M50.1985 138.17C40.7793 136.241 43.4646 104.618 59.3009 76.6887C66.3928 62.8722 68.4446 59.1295 73.8978 56.9861C76.0323 56.1453 78.3182 56.1453 80.7418 57.4313C89.3761 61.9983 98.5336 66.7467 92.3918 68.8406C86.2501 70.9345 71.7634 85.1962 71.7634 85.1962C71.7634 85.1962 71.9011 103.712 71.1299 110.471C70.6204 115.055 69.6151 119.671 68.6099 123.018" fill="#F7FAFC"/>
<path fill-rule="evenodd" clip-rule="evenodd" d="M73.7687 56.5164C76.094 55.6003 78.4437 55.7013 80.8139 56.9292L82.5679 57.8568C88.0474 60.7618 90.8537 62.4047 92.7632 63.994L92.8208 64.0421C94.0792 65.0986 94.7615 66.028 94.8053 66.9426C94.8561 68.0038 94.0834 68.764 92.5712 69.2935L92.505 69.3164C90.5207 69.9929 87.4678 72.0423 83.6595 75.1321C82.823 75.8109 81.9585 76.5331 81.0711 77.2931C78.9549 79.1053 76.8048 81.0477 74.7333 82.9902L74.3553 83.3455C73.9005 83.774 73.4726 84.1809 73.0754 84.5619L72.6238 84.9965L72.1778 85.4292L72.1812 86.0865L72.1838 86.7978C72.1949 90.5038 72.1739 94.6742 72.0988 98.6753L72.0812 99.564C71.9811 104.325 71.8113 108.05 71.5572 110.377L71.5394 110.537C71.0596 114.853 70.1039 119.506 68.9986 123.186C68.9214 123.443 68.6847 123.576 68.47 123.484C68.2553 123.391 68.1439 123.108 68.2211 122.851C69.2874 119.301 70.2147 114.815 70.6948 110.632L70.7379 110.249C70.9959 107.886 71.1675 104.006 71.2654 99.0387L71.2799 98.2662C71.349 94.3938 71.3683 90.3801 71.3575 86.8012L71.3502 85.2006C71.3491 85.0512 71.4045 84.9091 71.501 84.8142L71.978 84.3495L72.2391 84.0972C72.7948 83.5616 73.4177 82.9685 74.096 82.3313L74.2239 82.2114C76.3042 80.2606 78.4636 78.3099 80.5904 76.4885C81.4833 75.7238 82.3534 74.9968 83.196 74.3132L83.543 74.0328C87.1836 71.1039 90.123 69.1401 92.1518 68.4095L92.3988 68.323C93.5369 67.9151 94.0021 67.4513 93.9804 66.9992C93.956 66.4893 93.4088 65.744 92.3464 64.852L92.2344 64.7588C90.4609 63.2963 87.8277 61.7401 82.878 59.1038L80.5744 57.8836C78.3613 56.7092 76.1912 56.6034 74.0266 57.4561C71.3452 58.5101 69.5621 59.9432 67.6013 62.6785L67.5286 62.7804C65.7808 65.2417 64.1686 68.1629 60.0429 76.1883L59.6528 76.9477L59.6427 76.9665C52.2315 90.0373 47.267 104.777 45.6873 117.254C44.2076 128.942 45.9746 136.804 50.2681 137.683C50.493 137.729 50.6441 137.985 50.6056 138.254C50.5672 138.523 50.3537 138.704 50.1288 138.658C45.2147 137.652 43.3305 129.268 44.8704 117.106C46.453 104.606 51.3802 89.8985 58.7354 76.8071L58.9554 76.4172L59.5848 75.1924C63.514 67.5577 65.1149 64.6655 66.8439 62.2176L66.8991 62.1396C68.9866 59.2 70.9088 57.6404 73.7687 56.5164Z" fill="#1D4044"/>
<path fill-rule="evenodd" clip-rule="evenodd" d="M183.898 137.84L151.358 76.0454L87.8475 94.6433V94.6268L76.4592 97.5945L84.0468 133.85L99.8693 129.267C102.045 134.312 103.642 137.807 103.642 137.807H183.898V137.84Z" fill="#DD6B20"/>
<path fill-rule="evenodd" clip-rule="evenodd" d="M132.396 60.267C132.396 60.267 138.785 59.9208 138.014 66.8455C137.243 73.7702 129.972 70.3573 129.972 70.3573L130.385 60.5638L132.396 60.267Z" fill="#F7FAFC"/>
<path fill-rule="evenodd" clip-rule="evenodd" d="M132.385 59.7723L132.377 59.7727C132.366 59.7733 132.356 59.7743 132.345 59.7759L130.335 60.0727C130.135 60.1021 129.983 60.2986 129.973 60.5386L129.559 70.3322C129.551 70.5446 129.656 70.74 129.821 70.8176L129.877 70.8432C129.942 70.8722 130.035 70.9113 130.151 70.9578C130.407 71.0599 130.693 71.1618 131.003 71.2568C132.03 71.5719 133.068 71.74 134.047 71.6815C136.449 71.5379 138.074 70.0508 138.424 66.9107C138.804 63.4933 137.592 61.3742 135.384 60.372C134.779 60.0978 134.138 59.9267 133.49 59.8376C133.089 59.7824 132.741 59.7651 132.473 59.7698L132.385 59.7723ZM133.395 60.8204C133.98 60.9008 134.556 61.0544 135.091 61.297C136.959 62.1446 137.931 63.8454 137.605 66.7799C137.312 69.4053 136.037 70.572 134.006 70.6935C133.121 70.7463 132.161 70.591 131.208 70.2985L131.112 70.2686C130.89 70.1984 130.683 70.1248 130.493 70.0509L130.4 70.0144L130.78 61.0036L132.428 60.7603L132.444 60.7599C132.682 60.7531 133.01 60.7673 133.395 60.8204Z" fill="#1D4044"/>
<path fill-rule="evenodd" clip-rule="evenodd" d="M113.048 40.1193C111.354 40.0864 99.7867 40.1029 99.1395 51.71C98.506 63.3172 100.544 75.9136 101.921 81.6348C103.298 87.3559 125.221 82.9538 126.433 82.3437C127.659 81.7337 129.049 79.8706 129.049 79.8706L131.115 61.9652C131.129 61.9652 131.211 40.515 113.048 40.1193Z" fill="#F7FAFC"/>
<path fill-rule="evenodd" clip-rule="evenodd" d="M110.205 39.7924C108.584 40.0093 107.009 40.4243 105.554 41.0871C101.581 42.8972 99.0756 46.2665 98.7369 51.5178L98.7272 51.6775C98.4349 57.0348 98.6861 62.9386 99.367 68.9459L99.4166 69.3773C99.9617 74.0449 100.744 78.5319 101.524 81.7715C101.904 83.3511 103.474 84.277 106.022 84.7204L106.104 84.7345C108.196 85.0872 110.926 85.1141 114.102 84.8696L114.266 84.8567C119.14 84.4691 125.62 83.2895 126.593 82.7994C126.734 82.7292 126.881 82.6424 127.03 82.5411C127.393 82.296 127.77 81.9695 128.156 81.581C128.456 81.2792 128.744 80.9571 129.011 80.635L129.102 80.525C129.145 80.4713 129.187 80.4199 129.225 80.371L129.298 80.2775C129.325 80.243 129.345 80.2168 129.357 80.2L129.377 80.1717C129.421 80.1038 129.449 80.0233 129.459 79.938L131.419 62.9425L131.438 63.0146C131.534 63.3978 131.564 63.7732 131.561 63.377L131.527 61.7124C131.523 61.5354 131.516 61.3285 131.504 61.098L131.5 61.0104C131.459 60.2647 131.382 59.4281 131.26 58.5278C130.911 55.963 130.272 53.387 129.268 50.9702C127.973 47.8537 126.164 45.2351 123.767 43.2901C120.941 40.9959 117.391 39.719 113.055 39.6246C112.218 39.6083 111.295 39.6467 110.205 39.7924ZM99.537 52.0207L99.5517 51.7427C99.826 46.8233 102.115 43.7124 105.848 42.0117C107.232 41.3813 108.74 40.9838 110.297 40.7756C111.347 40.6351 112.237 40.598 113.041 40.6137C117.219 40.7047 120.613 41.9254 123.304 44.1089C125.576 45.9528 127.294 48.4393 128.528 51.4107C129.492 53.7311 130.108 56.2137 130.444 58.6867C130.562 59.5546 130.637 60.3597 130.675 61.0746L130.68 61.1576L130.69 61.3929C130.692 61.4429 130.694 61.4912 130.696 61.5378L130.701 61.7356L130.671 60.3197C130.66 59.6272 130.745 61.4704 131.115 61.4704L131.09 61.4712C130.895 61.4851 130.733 61.6624 130.706 61.8973L128.658 79.6491L128.588 79.7378C128.538 79.8007 128.483 79.8677 128.425 79.9382C128.174 80.2405 127.904 80.5427 127.625 80.8237C127.275 81.176 126.937 81.4684 126.624 81.6799C126.502 81.7625 126.385 81.8317 126.274 81.8868L126.238 81.9031C125.868 82.0589 124.232 82.438 122.295 82.7925L122.223 82.8056C119.63 83.2777 116.819 83.6623 114.212 83.8697C107.341 84.4161 102.838 83.6569 102.318 81.4976L102.247 81.1992C101.478 77.9298 100.711 73.4455 100.186 68.8129C99.5236 62.9711 99.2721 57.2323 99.537 52.0207Z" fill="#1D4044"/>
<path fill-rule="evenodd" clip-rule="evenodd" d="M130.426 77.0347L132.947 88.8562C134.585 115.764 103.395 117.478 105.35 85.0311L123.748 87.801L125.194 79.0791L130.426 77.0347Z" fill="#F7FAFC"/>
<path fill-rule="evenodd" clip-rule="evenodd" d="M125.066 78.6091L125.039 78.6205C124.911 78.6825 124.816 78.8185 124.788 78.983L123.417 87.2528L105.402 84.5405C105.167 84.5051 104.955 84.7129 104.938 84.9957C104.471 92.7515 105.852 99.0205 108.743 103.408C111.341 107.351 115.053 109.554 119.017 109.696C122.897 109.836 126.667 107.978 129.354 104.51C132.288 100.722 133.754 95.3056 133.359 88.8204C133.357 88.7912 133.353 88.7623 133.347 88.734L130.827 76.9125C130.768 76.6355 130.525 76.4759 130.298 76.5646L125.066 78.6091ZM130.135 77.6688L132.537 88.9345L132.535 88.8923C132.913 95.1119 131.521 100.257 128.748 103.837C126.224 107.095 122.685 108.838 119.042 108.707C115.32 108.574 111.837 106.507 109.392 102.795L109.31 102.669C106.692 98.6196 105.393 92.8744 105.726 85.7398L105.734 85.5874L123.696 88.2919L123.721 88.2947C123.926 88.3109 124.112 88.1423 124.153 87.8974L125.552 79.4595L130.135 77.6688Z" fill="#1D4044"/>
<path fill-rule="evenodd" clip-rule="evenodd" d="M126.736 61.4375C126.736 61.4375 125.565 70.8518 125.042 74.3142C125.042 74.3142 117.813 71.9895 107.664 72.5995C107.664 72.5995 102.141 73.1601 99.9795 74.1164C99.9795 74.1164 101.109 86.1522 105.928 92.0547C110.748 97.9572 120.126 95.4841 124.367 91.3787C128.609 87.2733 129.242 85.4267 130.055 81.3214C130.867 77.216 132.768 62.0146 132.768 62.0146L126.736 61.4375Z" fill="#A0AEC0"/>
<path fill-rule="evenodd" clip-rule="evenodd" d="M132.451 64.191C132.451 64.191 135.329 57.0684 136.169 51.1989C136.968 45.692 134.544 40.1523 130.22 38.0584C126.598 36.2942 125.414 36.8713 125.414 36.8713C125.414 36.8713 127.562 32.2877 121.971 25.5444C120.002 23.1702 117.275 21.8512 114.48 21.9336C107.636 22.148 105.502 29.0727 105.502 29.0727C105.502 29.0727 98.2031 12.9315 83.1655 22.4282C81.6507 23.3845 79.9294 26.0555 79.1169 27.8691C74.1319 38.8003 90.4502 51.8254 98.9605 52.8806C108.311 54.0347 114.177 52.6498 117.028 49.682C114.907 51.4627 118.721 67.8512 132.451 64.191Z" fill="#1D4044"/>
<path fill-rule="evenodd" clip-rule="evenodd" d="M107.167 67.3245C107.461 67.3415 107.691 67.6327 107.691 67.9821L107.69 68.015L107.302 77.6612L109.586 76.7705C109.866 76.6612 110.167 76.8354 110.271 77.1613L110.28 77.1933C110.372 77.5288 110.226 77.8886 109.954 78.0133L109.927 78.0246L106.884 79.2117C106.525 79.3516 106.161 79.029 106.162 78.5835L106.163 78.5529L106.59 67.9515C106.604 67.5987 106.847 67.3241 107.139 67.3237L107.167 67.3245Z" fill="#1D4044"/>
<path fill-rule="evenodd" clip-rule="evenodd" d="M112.353 58.6825C113.746 58.322 114.97 58.6757 115.985 59.4826C116.242 59.6871 116.466 59.9066 116.657 60.1277L116.713 60.194C116.802 60.3009 116.867 60.3885 116.908 60.4494C117.097 60.7343 117.058 61.1492 116.82 61.3762C116.582 61.6032 116.236 61.5563 116.046 61.2715C116.026 61.241 115.973 61.1714 115.891 61.0755C115.746 60.9081 115.574 60.7393 115.375 60.5813C114.594 59.9601 113.666 59.692 112.586 59.9717C112.289 60.0487 111.995 59.8225 111.931 59.4665C111.867 59.1105 112.056 58.7595 112.353 58.6825Z" fill="#1D4044"/>
<path fill-rule="evenodd" clip-rule="evenodd" d="M103.225 56.2134C103.759 56.0826 104.311 56.1175 104.841 56.2521L104.926 56.2748C105.063 56.3125 105.17 56.3496 105.239 56.3783C105.527 56.4964 105.681 56.8714 105.582 57.216C105.486 57.5498 105.189 57.7325 104.909 57.6363L104.85 57.614C104.842 57.611 104.832 57.6076 104.82 57.6037C104.76 57.5831 104.69 57.5621 104.612 57.5423C104.218 57.4423 103.81 57.4164 103.445 57.5056C102.929 57.6323 102.563 57.9715 102.352 58.6247C102.243 58.9645 101.924 59.1336 101.64 59.0024C101.356 58.8711 101.215 58.4893 101.325 58.1496C101.677 57.056 102.356 56.4262 103.225 56.2134Z" fill="#1D4044"/>
<path fill-rule="evenodd" clip-rule="evenodd" d="M117.152 80.6126C116.67 79.8212 111.974 83.7617 113.805 84.1244C115.637 84.4871 118.184 82.3108 117.152 80.6126Z" fill="#1D4044"/>
<path fill-rule="evenodd" clip-rule="evenodd" d="M97.4594 79.8871L115.292 72.6656C115.292 72.6656 117.675 71.5775 117.592 67.8678C117.51 64.1581 113.612 62.7732 113.612 62.7732L94.5951 59.5581L97.4594 79.8871Z" fill="#DD6B20"/>
<path fill-rule="evenodd" clip-rule="evenodd" d="M78.3732 79.8871L96.2063 72.6656C96.2063 72.6656 98.5886 71.5775 98.506 67.8678C98.4233 64.1581 94.5262 62.7732 94.5262 62.7732L75.5089 59.5581L78.3732 79.8871Z" fill="#DD6B20"/>
<path fill-rule="evenodd" clip-rule="evenodd" d="M94.4161 80.5632C99.2759 80.5632 103.216 75.8463 103.216 70.0277C103.216 64.2091 99.2759 59.4922 94.4161 59.4922C89.5563 59.4922 85.6166 64.2091 85.6166 70.0277C85.6166 75.8463 89.5563 80.5632 94.4161 80.5632Z" fill="#FEEBCB"/>
<path fill-rule="evenodd" clip-rule="evenodd" d="M75.1922 80.7116C80.052 80.7116 83.9917 75.9947 83.9917 70.1761C83.9917 64.3575 80.052 59.6406 75.1922 59.6406C70.3324 59.6406 66.3928 64.3575 66.3928 70.1761C66.3928 75.9947 70.3324 80.7116 75.1922 80.7116Z" fill="#FEEBCB"/>
<path fill-rule="evenodd" clip-rule="evenodd" d="M79.0067 58.107C81.1825 53.4575 90.7531 51.9077 92.5295 52.2374C94.3059 52.5507 92.5571 56.9034 84.9143 57.7113C84.9143 57.7113 82.5733 57.7607 81.3753 58.9973" fill="#F7FAFC"/>
<path fill-rule="evenodd" clip-rule="evenodd" d="M85.8108 52.8271L85.9812 52.7731C88.5449 51.9715 91.4342 51.5546 92.5531 51.7415L92.5897 51.748C93.2369 51.8621 93.629 52.4125 93.5754 53.1538C93.5293 53.793 93.1567 54.4993 92.5264 55.1607C91.0801 56.6785 88.5015 57.8095 85.0655 58.1914L84.9507 58.2039L84.8072 58.2111C84.7917 58.2121 84.775 58.2132 84.757 58.2145C84.6198 58.2242 84.4663 58.2398 84.3007 58.2625C83.8288 58.3271 83.3575 58.4354 82.922 58.596C82.3931 58.791 81.957 59.0498 81.645 59.3718C81.4722 59.5502 81.2113 59.527 81.0624 59.3201C80.9134 59.1132 80.9327 58.8009 81.1055 58.6225C81.5152 58.1997 82.0496 57.8826 82.6788 57.6506C83.1681 57.4701 83.6878 57.3507 84.2068 57.2796L84.3589 57.2602C84.4581 57.2485 84.5528 57.2392 84.6422 57.232L84.7663 57.2231L84.8911 57.2169L84.99 57.2063C88.2272 56.8464 90.6249 55.8069 91.937 54.4632L91.9818 54.4168C92.4663 53.9083 92.7273 53.4135 92.7522 53.0685C92.7669 52.8652 92.6968 52.7668 92.4662 52.7261C91.4951 52.5458 88.6195 52.9601 86.1067 53.7565L86.0249 53.7826C82.7058 54.8489 80.2694 56.4204 79.3671 58.3486C79.2556 58.5869 79.0038 58.6719 78.8048 58.5384C78.6057 58.4048 78.5348 58.1034 78.6463 57.8651C79.689 55.6369 82.293 53.9573 85.8108 52.8271Z" fill="#1D4044"/>
<path fill-rule="evenodd" clip-rule="evenodd" d="M82.0776 56.5733C86.0986 54.265 94.664 59.6235 95.9584 61.1073C97.2666 62.5912 93.7276 64.9324 87.1039 60.3324C87.1039 60.3324 85.1622 58.7661 83.5924 58.9475" fill="#F7FAFC"/>
<path fill-rule="evenodd" clip-rule="evenodd" d="M81.899 56.1276C83.8256 55.0217 86.7617 55.4465 90.1832 56.9544L90.348 57.0278C92.8504 58.1535 95.443 59.8321 96.2426 60.7486C96.7187 61.2887 96.7754 62.0095 96.3739 62.5786C96.0283 63.0685 95.3832 63.3881 94.549 63.4935C92.6355 63.7354 89.9841 62.8827 86.9974 60.8302L86.8966 60.7606L86.8051 60.6903L86.7295 60.6338C86.6895 60.6044 86.6461 60.5731 86.5997 60.5404C86.3773 60.3838 86.1318 60.227 85.8715 60.0808C85.3274 59.7753 84.7944 59.5593 84.3067 59.4711C84.0642 59.4272 83.8384 59.4163 83.632 59.4401C83.4049 59.4664 83.2031 59.2672 83.1811 58.9953C83.1592 58.7234 83.3256 58.4817 83.5527 58.4555C83.8307 58.4234 84.1238 58.4375 84.4302 58.493C85.007 58.5973 85.6119 58.8425 86.2223 59.1851C86.5073 59.3451 86.7751 59.5163 87.0185 59.6877L87.1216 59.7613C87.1957 59.815 87.2558 59.8604 87.3004 59.8953L87.3209 59.9115L87.4084 59.972C90.2227 61.9061 92.6827 62.7092 94.4032 62.5168L94.4623 62.5098C95.1039 62.4287 95.5563 62.2046 95.7426 61.9403C95.8522 61.7851 95.8421 61.657 95.6727 61.4649L95.6237 61.4105C94.8492 60.5767 92.3558 58.9772 89.977 57.9179L89.8978 57.8828C86.6698 56.4601 83.9232 56.0627 82.2562 57.0196C82.0505 57.1377 81.8037 57.0338 81.7051 56.7875C81.6064 56.5411 81.6932 56.2457 81.899 56.1276Z" fill="#1D4044"/>
<path fill-rule="evenodd" clip-rule="evenodd" d="M77.7811 56.5733C81.8022 54.265 90.3675 59.6235 91.662 61.1073C92.9702 62.5912 89.4311 64.9324 82.8074 60.3324C82.8074 60.3324 80.8658 58.7661 79.2959 58.9475" fill="#F7FAFC"/>
<path fill-rule="evenodd" clip-rule="evenodd" d="M77.6025 56.1276C79.5291 55.0217 82.4653 55.4465 85.8867 56.9544L86.0516 57.0278C88.554 58.1535 91.1466 59.8321 91.9461 60.7486C92.4222 61.2887 92.4789 62.0095 92.0774 62.5786C91.7319 63.0685 91.0868 63.3881 90.2525 63.4935C88.339 63.7354 85.6877 62.8827 82.701 60.8302L82.6002 60.7606L82.5087 60.6903L82.4331 60.6338C82.3931 60.6044 82.3497 60.5731 82.3032 60.5404C82.0808 60.3838 81.8354 60.227 81.5751 60.0808C81.031 59.7753 80.498 59.5593 80.0103 59.4711C79.7678 59.4272 79.5419 59.4163 79.3356 59.4401C79.1085 59.4664 78.9066 59.2672 78.8847 58.9953C78.8628 58.7234 79.0291 58.4817 79.2562 58.4555C79.5342 58.4234 79.8274 58.4375 80.1337 58.493C80.7106 58.5973 81.3155 58.8425 81.9259 59.1851C82.2109 59.3451 82.4787 59.5163 82.7221 59.6877L82.8251 59.7613C82.8993 59.815 82.9594 59.8604 83.0039 59.8953L83.0245 59.9115L83.1119 59.972C85.9262 61.9061 88.3862 62.7092 90.1068 62.5168L90.1658 62.5098C90.8075 62.4287 91.2598 62.2046 91.4462 61.9403C91.5557 61.7851 91.5456 61.657 91.3763 61.4649L91.3272 61.4105C90.5528 60.5767 88.0594 58.9772 85.6806 57.9179L85.6013 57.8828C82.3734 56.4601 79.6267 56.0627 77.9597 57.0196C77.754 57.1377 77.5073 57.0338 77.4086 56.7875C77.31 56.5411 77.3968 56.2457 77.6025 56.1276Z" fill="#1D4044"/>
<path fill-rule="evenodd" clip-rule="evenodd" d="M74.2421 56.854C78.2631 54.5458 86.8285 59.9042 88.1229 61.3881C89.4311 62.872 85.8921 65.2132 79.2684 60.6132C79.2684 60.6132 77.3267 59.0469 75.7568 59.2282" fill="#F7FAFC"/>
<path fill-rule="evenodd" clip-rule="evenodd" d="M74.0635 56.4079C75.9901 55.3019 78.9262 55.7268 82.3477 57.2347L82.5125 57.3081C85.0149 58.4337 87.6075 60.1123 88.407 61.0289C88.8832 61.5689 88.9399 62.2897 88.5384 62.8589C88.1928 63.3488 87.5477 63.6684 86.7135 63.7738C84.8 64.0157 82.1486 63.163 79.1619 61.1105L79.0611 61.0409L78.9696 60.9706L78.894 60.9141C78.854 60.8847 78.8106 60.8534 78.7642 60.8207C78.5418 60.6641 78.2963 60.5072 78.036 60.3611C77.4919 60.0556 76.9589 59.8396 76.4712 59.7514C76.2287 59.7075 76.0029 59.6966 75.7965 59.7204C75.5694 59.7467 75.3676 59.5475 75.3456 59.2756C75.3237 59.0037 75.4901 58.762 75.7172 58.7357C75.9952 58.7036 76.2883 58.7178 76.5947 58.7732C77.1715 58.8776 77.7764 59.1227 78.3868 59.4654C78.6718 59.6254 78.9396 59.7966 79.183 59.968L79.2861 60.0416C79.3602 60.0953 79.4203 60.1407 79.4649 60.1756L79.4854 60.1918L79.5728 60.2523C82.3872 62.1864 84.8471 62.9895 86.5677 62.7971L86.6267 62.79C87.2684 62.709 87.7207 62.4848 87.9071 62.2206C88.0166 62.0654 88.0066 61.9373 87.8372 61.7452L87.7882 61.6908C87.0137 60.8569 84.5203 59.2575 82.1415 58.1982L82.0623 58.163C78.8343 56.7404 76.0877 56.343 74.4207 57.2999C74.2149 57.418 73.9682 57.3141 73.8696 57.0677C73.7709 56.8214 73.8577 56.526 74.0635 56.4079Z" fill="#1D4044"/>
<path fill-rule="evenodd" clip-rule="evenodd" d="M208.534 26.3689V26.3689C205.174 24.5058 201.098 26.0227 199.418 29.7653L189.296 52.3366L195.617 17.2678C196.36 13.1789 193.964 9.18897 190.288 8.3646V8.3646C186.611 7.54022 183.03 10.1947 182.287 14.2836L174.768 50.6879L175.608 8.44703C175.718 4.27571 172.771 0.796856 169.012 0.664956V0.664956C165.266 0.533056 162.127 3.83055 162.016 8.00187L160.887 50.5065L154.36 14.3001C153.616 10.2112 150.036 7.55671 146.359 8.38109V8.38109C142.682 9.20546 140.286 13.1789 141.03 17.2843L147.351 52.3531L137.229 29.7818C135.549 26.0391 131.473 24.5223 128.113 26.3854V26.3854C124.753 28.2485 123.39 32.7825 125.07 36.5252L145.836 82.8219L192.436 79.2442L211.605 36.5252C213.257 32.766 211.894 28.232 208.534 26.3689Z" fill="white"/>
<path fill-rule="evenodd" clip-rule="evenodd" d="M161.603 7.98612L160.581 46.4648L154.764 14.1956C153.98 9.88361 150.252 7.07824 146.4 7.86978L146.286 7.89412L146.169 7.92142C142.326 8.85541 139.841 13.0545 140.626 17.389L146.329 49.0283L137.593 29.5477C135.828 25.6153 131.585 23.995 128.046 25.8784L127.942 25.9348C124.366 27.9176 122.912 32.7622 124.706 36.7592L145.472 83.0558C145.548 83.2264 145.701 83.3278 145.862 83.3154L192.462 79.7377C192.605 79.7267 192.732 79.6286 192.8 79.4781L211.969 36.7591C213.717 32.7828 212.308 27.997 208.813 25.9799L208.71 25.9216L208.603 25.8634C205.066 23.9807 200.821 25.5943 199.054 29.531L190.318 49.0118L196.021 17.372C196.806 13.0553 194.321 8.83905 190.48 7.90542L190.367 7.87901L190.25 7.85393C186.399 7.06278 182.668 9.8622 181.883 14.1782L175.271 46.1933L176.021 8.45869C176.137 4.05784 173.071 0.384073 169.143 0.175655L169.027 0.170547C165.058 0.0307789 161.721 3.53247 161.603 7.98612ZM169 1.15925L169.109 1.16408C172.561 1.34723 175.243 4.52058 175.197 8.31608L174.355 50.676C174.343 51.2669 175.051 51.3803 175.169 50.8065L182.688 14.4022C183.386 10.566 186.751 8.07474 190.212 8.85065L190.318 8.87562C193.718 9.70183 195.897 13.4004 195.213 17.1625L188.892 52.2322C188.791 52.7923 189.434 53.0753 189.66 52.5705L199.782 29.9992C201.356 26.492 205.195 25.0623 208.36 26.8176L208.457 26.8727L208.549 26.9267C211.559 28.7322 212.749 32.8605 211.239 36.2947L192.18 78.768L146.074 82.3079L125.434 36.291C123.869 32.8049 125.137 28.5802 128.287 26.8341L128.385 26.7808C131.532 25.1056 135.308 26.5477 136.865 30.0158L146.987 52.587C147.213 53.0918 147.855 52.8088 147.754 52.2487L141.434 17.1799C140.742 13.3625 142.974 9.64325 146.435 8.86714L146.542 8.84412C149.967 8.14048 153.269 10.6254 153.956 14.4052L160.483 50.6108C160.586 51.1811 161.285 51.1053 161.3 50.5221L162.429 8.01748C162.532 4.12516 165.477 1.03519 169 1.15925Z" fill="#1D4044"/>
<path fill-rule="evenodd" clip-rule="evenodd" d="M187.492 80.7939L198.385 52.1222C200.023 47.8025 198.825 42.3451 195.713 39.9215V39.9215C192.601 37.4978 188.745 39.0147 187.107 43.3344L180.607 60.4154L184.077 41.257C184.945 36.4921 182.865 31.5458 179.45 30.1939V30.1939C176.035 28.8419 172.565 31.6118 171.711 36.3767L168.268 55.3537L166.451 36.4591C165.982 31.5294 162.76 27.9681 159.276 28.4957V28.4957C155.792 29.0233 153.341 33.4419 153.809 38.3552L155.682 57.8598L151.578 45.181C150.105 40.6304 146.318 38.5035 143.123 40.4491V40.4491C139.928 42.3946 138.524 47.6541 139.997 52.2046L149.223 80.7279" fill="#81E6D9"/>
<path fill-rule="evenodd" clip-rule="evenodd" d="M197.242 74.3638H138.992C137.89 74.3638 136.995 75.4355 136.995 76.7545V85.5093C136.995 86.8283 137.89 87.9 138.992 87.9H142.572L152.473 138.22H183.967L193.868 87.9H197.214C198.316 87.9 199.211 86.8283 199.211 85.5093V76.7545C199.239 75.4355 198.343 74.3638 197.242 74.3638Z" fill="#285E61"/>
<path fill-rule="evenodd" clip-rule="evenodd" d="M192.257 87.8506C192.485 87.8506 192.67 88.072 192.67 88.3452C192.67 88.6086 192.498 88.8239 192.281 88.839L192.257 88.8398H143.88C143.652 88.8398 143.467 88.6184 143.467 88.3452C143.467 88.0818 143.639 87.8665 143.856 87.8514L143.88 87.8506H192.257Z" fill="#1D4044"/>
<path fill-rule="evenodd" clip-rule="evenodd" d="M181.02 118.764C178.913 115.648 175.815 110.554 177.908 109.482C180.001 108.41 179.973 111.114 183.127 113.686C186.294 116.258 189.241 116.753 192.381 121.435" fill="#F7FAFC"/>
<path fill-rule="evenodd" clip-rule="evenodd" d="M177.745 109.027C178.674 108.552 179.352 108.684 180.015 109.388C180.168 109.551 180.319 109.739 180.512 110.002L180.632 110.168C180.745 110.327 181.099 110.823 181.228 110.998C181.81 111.788 182.363 112.415 183.062 113.026C183.159 113.111 183.258 113.195 183.359 113.277L183.491 113.384C184.248 113.989 184.87 114.401 186.246 115.248L186.764 115.567C187.428 115.978 187.826 116.236 188.278 116.553C189.992 117.755 191.356 119.117 192.703 121.126C192.846 121.339 192.817 121.65 192.639 121.821C192.461 121.992 192.201 121.958 192.059 121.745C190.804 119.874 189.545 118.604 187.962 117.478L187.774 117.346C187.356 117.056 186.964 116.804 186.315 116.403L185.631 115.981C184.313 115.166 183.704 114.753 182.894 114.095C182.785 114.006 182.679 113.916 182.574 113.825C181.855 113.196 181.28 112.551 180.69 111.762L180.549 111.571C180.353 111.302 179.971 110.764 179.972 110.766L179.895 110.66C179.721 110.423 179.59 110.26 179.467 110.128C179.043 109.678 178.705 109.612 178.07 109.937C177.429 110.265 177.475 111.321 178.256 113.129C178.907 114.637 179.967 116.421 181.341 118.453C181.485 118.666 181.457 118.977 181.28 119.149C181.103 119.321 180.842 119.288 180.699 119.076L180.521 118.811C179.2 116.84 178.176 115.099 177.522 113.584C177.083 112.568 176.833 111.697 176.802 110.972C176.763 110.064 177.075 109.371 177.745 109.027Z" fill="#1D4044"/>
<path fill-rule="evenodd" clip-rule="evenodd" d="M179.299 116.291C173.914 112.779 166.079 112.582 164.206 112.68C161.383 112.829 163.118 119.655 176.999 121.27C176.999 121.27 180.648 121.815 182.356 123.958" fill="#F7FAFC"/>
<path fill-rule="evenodd" clip-rule="evenodd" d="M164.188 112.186L164.337 112.179C165.816 112.118 168.171 112.256 170.492 112.642C173.941 113.215 177.042 114.256 179.496 115.857C179.697 115.988 179.771 116.288 179.661 116.528C179.552 116.768 179.301 116.856 179.101 116.726C176.786 115.216 173.834 114.213 170.541 113.649L170.379 113.622C168.027 113.231 165.64 113.1 164.224 113.175C163.73 113.201 163.485 113.456 163.475 113.873C163.46 114.44 163.84 115.235 164.612 116.055C166.721 118.293 170.954 120.07 177.05 120.78L177.125 120.792C177.179 120.801 177.249 120.814 177.333 120.831C177.553 120.874 177.796 120.929 178.059 120.998C178.809 121.194 179.56 121.458 180.264 121.801C181.251 122.282 182.067 122.879 182.655 123.617C182.812 123.814 182.806 124.127 182.641 124.316C182.476 124.504 182.214 124.497 182.057 124.299C181.561 123.677 180.84 123.15 179.953 122.718C179.296 122.398 178.59 122.149 177.882 121.964C177.666 121.908 177.462 121.861 177.277 121.822L177.199 121.807C177.142 121.795 177.09 121.786 177.044 121.777L176.959 121.763C170.715 121.036 166.323 119.192 164.064 116.795C163.126 115.8 162.626 114.752 162.649 113.843C162.674 112.873 163.286 112.234 164.188 112.186Z" fill="#1D4044"/>
<path fill-rule="evenodd" clip-rule="evenodd" d="M181.805 125.425C178.817 117.841 164.344 115.154 161.534 115.417C158.725 115.681 160.667 122.903 172.551 125.162C172.551 125.162 176.214 125.557 177.977 127.635" fill="#F7FAFC"/>
<path fill-rule="evenodd" clip-rule="evenodd" d="M161.502 114.925C163.315 114.754 167.876 115.6 171.723 117.005C176.986 118.929 180.781 121.668 182.179 125.214C182.276 125.462 182.187 125.756 181.981 125.873C181.775 125.989 181.529 125.884 181.431 125.637C180.161 122.414 176.54 119.8 171.482 117.952L171.256 117.87C167.548 116.546 163.227 115.755 161.567 115.911C160.533 116.008 160.481 117.432 161.838 119.208C163.674 121.612 167.323 123.64 172.46 124.643L172.603 124.671L172.689 124.682C172.723 124.686 172.763 124.692 172.807 124.698L172.877 124.709C173.101 124.744 173.351 124.791 173.618 124.85C174.385 125.019 175.152 125.258 175.871 125.58C176.852 126.019 177.669 126.578 178.266 127.282C178.429 127.474 178.431 127.787 178.271 127.982C178.111 128.176 177.849 128.179 177.687 127.987C177.183 127.394 176.463 126.901 175.582 126.507C174.912 126.207 174.191 125.982 173.468 125.823C173.247 125.774 173.04 125.734 172.85 125.703L172.77 125.69C172.727 125.683 172.686 125.677 172.648 125.672L172.514 125.654L172.486 125.65C167.097 124.626 163.223 122.487 161.228 119.875C160.39 118.778 159.952 117.656 159.987 116.712C160.024 115.696 160.606 115.009 161.502 114.925Z" fill="#1D4044"/>
<path fill-rule="evenodd" clip-rule="evenodd" d="M182.92 131.625C180.084 123.958 165.803 120.331 162.98 120.512C160.157 120.694 161.576 128.69 173.405 131.295C173.405 131.295 177.054 131.79 178.775 133.917" fill="#F7FAFC"/>
<path fill-rule="evenodd" clip-rule="evenodd" d="M162.958 120.018C164.729 119.905 169.247 121.007 173.085 122.66C178.252 124.886 181.972 127.841 183.298 131.424C183.39 131.674 183.296 131.966 183.088 132.077C182.879 132.188 182.635 132.075 182.543 131.825C181.333 128.557 177.777 125.732 172.805 123.591C169.062 121.979 164.644 120.901 163.002 121.006C161.939 121.074 161.78 122.718 163.028 124.697C164.705 127.357 168.228 129.622 173.325 130.774L173.467 130.806L173.551 130.819C173.584 130.824 173.623 130.831 173.667 130.838L173.736 130.851C173.957 130.891 174.202 130.944 174.465 131.009C175.219 131.197 175.974 131.453 176.682 131.789C177.666 132.257 178.482 132.843 179.072 133.572C179.231 133.769 179.227 134.082 179.063 134.272C178.899 134.462 178.637 134.457 178.479 134.261C177.981 133.646 177.262 133.129 176.377 132.709C175.718 132.396 175.008 132.155 174.297 131.978C174.079 131.924 173.875 131.879 173.689 131.843L173.61 131.829C173.553 131.818 173.501 131.809 173.455 131.801L173.358 131.787L173.33 131.781C167.962 130.599 164.2 128.198 162.368 125.293C161.606 124.084 161.247 122.857 161.344 121.85C161.448 120.784 162.06 120.076 162.958 120.018Z" fill="#1D4044"/>
<path fill-rule="evenodd" clip-rule="evenodd" d="M185.013 137.247C181.929 130.19 168.117 125.327 165.459 125.706C162.801 126.085 165.018 131.79 177.66 136.324" fill="#F7FAFC"/>
<path fill-rule="evenodd" clip-rule="evenodd" d="M165.41 125.215C166.952 124.995 171.284 126.289 175.233 128.231C180.201 130.673 183.936 133.717 185.379 137.018C185.485 137.26 185.407 137.559 185.205 137.685C185.003 137.812 184.753 137.719 184.647 137.476C183.319 134.438 179.722 131.507 174.919 129.146L174.689 129.033C170.924 127.214 166.843 126.007 165.508 126.197C165.046 126.263 164.861 126.483 164.879 126.859C164.905 127.404 165.316 128.203 166.106 129.097C168.148 131.409 172.137 133.827 177.778 135.85C177.997 135.928 178.121 136.204 178.056 136.466C177.99 136.727 177.76 136.876 177.541 136.798C171.787 134.734 167.687 132.249 165.538 129.816C164.61 128.765 164.095 127.763 164.054 126.916C164.009 125.974 164.543 125.338 165.41 125.215Z" fill="#1D4044"/>
<path fill-rule="evenodd" clip-rule="evenodd" d="M191.678 120.215C186.239 117.215 181.199 114.61 178.748 117.165C176.186 119.853 173.322 128.805 177.164 135.384" fill="#F7FAFC"/>
<path fill-rule="evenodd" clip-rule="evenodd" d="M177.646 136.323C203.645 144.814 201.951 117.858 179.464 116.176Z" fill="#F7FAFC"/>
<path fill-rule="evenodd" clip-rule="evenodd" d="M179.49 115.683C184.852 116.084 189.359 117.934 192.572 120.833C195.503 123.479 197.159 126.862 197.151 130.066C197.142 133.368 195.378 136.087 192.201 137.46C188.709 138.969 183.714 138.818 177.537 136.801C177.317 136.729 177.188 136.457 177.248 136.194C177.308 135.93 177.535 135.775 177.755 135.847C183.781 137.815 188.609 137.96 191.921 136.529C194.784 135.292 196.317 132.93 196.324 130.063C196.332 127.199 194.812 124.094 192.074 121.623C188.997 118.845 184.645 117.059 179.438 116.67C179.21 116.653 179.037 116.418 179.052 116.145C179.065 115.883 179.248 115.68 179.465 115.682L179.49 115.683Z" fill="#1D4044"/>
<path fill-rule="evenodd" clip-rule="evenodd" d="M233.472 137.824C233.701 137.824 233.886 138.046 233.886 138.319C233.886 138.582 233.714 138.798 233.497 138.813L233.472 138.813H0.527561C0.299401 138.813 0.114441 138.592 0.114441 138.319C0.114441 138.055 0.286426 137.84 0.503287 137.825L0.527561 137.824H233.472Z" fill="#1D4044"/>
</svg>
