
<svg width="164" height="98" viewBox="0 0 164 98" fill="none" xmlns="http://www.w3.org/2000/svg">
<rect x="32.9204" y="61.0507" width="35.5626" height="7.01886" transform="rotate(90 32.9204 61.0507)" fill="#6A6AF4"/>
<rect x="31.1104" y="64.0728" width="16.555" height="3.77046" transform="rotate(90 31.1104 64.0728)" fill="white"/>
<rect x="31.1084" y="81.3245" width="1.54513" height="3.77046" transform="rotate(90 31.1084 81.3245)" fill="#F95C5E"/>
<path fill-rule="evenodd" clip-rule="evenodd" d="M29.1555 88.4526C28.2639 88.4526 27.541 89.3695 27.541 90.5005C27.541 91.6316 28.2639 92.5485 29.1555 92.5485C30.0472 92.5485 30.7701 91.6316 30.7701 90.5005C30.7701 89.3695 30.0472 88.4526 29.1555 88.4526ZM29.1555 89.1884C29.7269 89.1884 30.19 89.7759 30.19 90.5005C30.19 91.2252 29.7269 91.8127 29.1555 91.8127C28.5842 91.8127 28.1211 91.2252 28.1211 90.5005C28.1211 89.7759 28.5842 89.1884 29.1555 89.1884Z" fill="white"/>
<path fill-rule="evenodd" clip-rule="evenodd" d="M30.6734 67.6425C30.8336 67.6425 30.9634 67.8072 30.9634 68.0103C30.9634 68.2063 30.8427 68.3664 30.6904 68.3776L30.6734 68.3782H27.8794C27.7192 68.3782 27.5894 68.2135 27.5894 68.0103C27.5894 67.8144 27.7101 67.6543 27.8623 67.6431L27.8794 67.6425H30.6734Z" fill="#F95C5E"/>
<path fill-rule="evenodd" clip-rule="evenodd" d="M30.6734 69.4696C30.8336 69.4696 30.9634 69.6343 30.9634 69.8375C30.9634 70.0334 30.8427 70.1936 30.6904 70.2048L30.6734 70.2054H27.8794C27.7192 70.2054 27.5894 70.0407 27.5894 69.8375C27.5894 69.6416 27.7101 69.4814 27.8623 69.4702L27.8794 69.4696H30.6734Z" fill="#F95C5E"/>
<path fill-rule="evenodd" clip-rule="evenodd" d="M30.6734 71.2969C30.8336 71.2969 30.9634 71.4616 30.9634 71.6648C30.9634 71.8607 30.8427 72.0208 30.6904 72.032L30.6734 72.0326H27.8794C27.7192 72.0326 27.5894 71.8679 27.5894 71.6648C27.5894 71.4688 27.7101 71.3087 27.8623 71.2975L27.8794 71.2969H30.6734Z" fill="#F95C5E"/>
<rect x="39.9067" y="61.0786" width="35.5626" height="7.01886" transform="rotate(90 39.9067 61.0786)" fill="#6A6AF4"/>
<rect x="38.0967" y="64.1129" width="16.555" height="3.77046" transform="rotate(90 38.0967 64.1129)" fill="white"/>
<rect x="38.0947" y="81.3646" width="1.54514" height="3.77046" transform="rotate(90 38.0947 81.3646)" fill="#000091"/>
<path fill-rule="evenodd" clip-rule="evenodd" d="M36.1355 88.4895C35.2438 88.4895 34.521 89.4064 34.521 90.5374C34.521 91.6684 35.2438 92.5853 36.1355 92.5853C37.0272 92.5853 37.7501 91.6684 37.7501 90.5374C37.7501 89.4064 37.0272 88.4895 36.1355 88.4895ZM36.1355 89.2253C36.7068 89.2253 37.17 89.8127 37.17 90.5374C37.17 91.2621 36.7068 91.8495 36.1355 91.8495C35.5642 91.8495 35.1011 91.2621 35.1011 90.5374C35.1011 89.8127 35.5642 89.2253 36.1355 89.2253Z" fill="white"/>
<path fill-rule="evenodd" clip-rule="evenodd" d="M37.6245 75.27C37.7847 75.27 37.9145 75.4347 37.9145 75.6379C37.9145 75.8338 37.7938 75.994 37.6415 76.0052L37.6245 76.0058H34.8208C34.6606 76.0058 34.5308 75.8411 34.5308 75.6379C34.5308 75.442 34.6515 75.2818 34.8038 75.2706L34.8208 75.27H37.6245Z" fill="#000091"/>
<path fill-rule="evenodd" clip-rule="evenodd" d="M37.6245 65.8521C37.7847 65.8521 37.9145 66.0168 37.9145 66.2199C37.9145 66.4159 37.7938 66.576 37.6415 66.5872L37.6245 66.5878H34.8208C34.6606 66.5878 34.5308 66.4231 34.5308 66.2199C34.5308 66.024 34.6515 65.8639 34.8038 65.8527L34.8208 65.8521H37.6245Z" fill="#000091"/>
<path fill-rule="evenodd" clip-rule="evenodd" d="M37.6245 77.085C37.7847 77.085 37.9145 77.2497 37.9145 77.4529C37.9145 77.6488 37.7938 77.8089 37.6415 77.8201L37.6245 77.8207H34.8208C34.6606 77.8207 34.5308 77.656 34.5308 77.4529C34.5308 77.2569 34.6515 77.0968 34.8038 77.0856L34.8208 77.085H37.6245Z" fill="#000091"/>
<path fill-rule="evenodd" clip-rule="evenodd" d="M37.6245 78.9121C37.7847 78.9121 37.9145 79.0768 37.9145 79.28C37.9145 79.4759 37.7938 79.6361 37.6415 79.6473L37.6245 79.6479H34.8208C34.6606 79.6479 34.5308 79.4832 34.5308 79.28C34.5308 79.0841 34.6515 78.9239 34.8038 78.9127L34.8208 78.9121H37.6245Z" fill="#000091"/>
<rect x="26.0024" y="61.0812" width="35.5626" height="7.01886" transform="rotate(90 26.0024 61.0812)" fill="#6A6AF4"/>
<rect x="24.1924" y="64.1155" width="16.555" height="3.77046" transform="rotate(90 24.1924 64.1155)" fill="white"/>
<rect x="24.1904" y="81.355" width="1.54514" height="3.77046" transform="rotate(90 24.1904 81.355)" fill="#F95C5E"/>
<path fill-rule="evenodd" clip-rule="evenodd" d="M22.2332 88.4895C21.3415 88.4895 20.6187 89.4064 20.6187 90.5374C20.6187 91.6684 21.3415 92.5853 22.2332 92.5853C23.1249 92.5853 23.8477 91.6684 23.8477 90.5374C23.8477 89.4064 23.1249 88.4895 22.2332 88.4895ZM22.2332 89.2253C22.8045 89.2253 23.2676 89.8128 23.2676 90.5374C23.2676 91.2621 22.8045 91.8496 22.2332 91.8496C21.6619 91.8496 21.1987 91.2621 21.1987 90.5374C21.1987 89.8128 21.6619 89.2253 22.2332 89.2253Z" fill="white"/>
<path fill-rule="evenodd" clip-rule="evenodd" d="M23.7125 75.27C23.8726 75.27 24.0025 75.4347 24.0025 75.6379C24.0025 75.8338 23.8818 75.994 23.7295 76.0052L23.7125 76.0058H20.9185C20.7583 76.0058 20.6284 75.8411 20.6284 75.6379C20.6284 75.442 20.7492 75.2818 20.9014 75.2706L20.9185 75.27H23.7125Z" fill="#000091"/>
<path fill-rule="evenodd" clip-rule="evenodd" d="M23.7125 65.8521C23.8726 65.8521 24.0025 66.0168 24.0025 66.2199C24.0025 66.4159 23.8818 66.576 23.7295 66.5872L23.7125 66.5878H20.9185C20.7583 66.5878 20.6284 66.4231 20.6284 66.2199C20.6284 66.024 20.7492 65.8639 20.9014 65.8527L20.9185 65.8521H23.7125Z" fill="#000091"/>
<path fill-rule="evenodd" clip-rule="evenodd" d="M23.7125 77.085C23.8726 77.085 24.0025 77.2497 24.0025 77.4528C24.0025 77.6488 23.8818 77.8089 23.7295 77.8201L23.7125 77.8207H20.9185C20.7583 77.8207 20.6284 77.656 20.6284 77.4528C20.6284 77.2569 20.7492 77.0968 20.9014 77.0856L20.9185 77.085H23.7125Z" fill="#000091"/>
<path fill-rule="evenodd" clip-rule="evenodd" d="M23.7125 78.9121C23.8726 78.9121 24.0025 79.0768 24.0025 79.28C24.0025 79.4759 23.8818 79.6361 23.7295 79.6473L23.7125 79.6479H20.9185C20.7583 79.6479 20.6284 79.4832 20.6284 79.28C20.6284 79.0841 20.7492 78.9239 20.9014 78.9127L20.9185 78.9121H23.7125Z" fill="#000091"/>
<path fill-rule="evenodd" clip-rule="evenodd" d="M33.7961 49.665C33.7961 49.665 33.9702 47.5803 32.7617 45.7163C31.5532 43.8523 31.5435 42.6751 30.8668 41.7922C30.19 40.897 29.1169 41.3139 30.0837 44.3306C31.0505 47.3473 31.4662 48.5858 31.4662 48.5858L33.7961 49.665Z" fill="white"/>
<path fill-rule="evenodd" clip-rule="evenodd" d="M29.6322 41.3652C29.2819 41.923 29.3406 42.9886 29.8151 44.4692L30.3957 46.2729C30.5403 46.72 30.6728 47.1279 30.7937 47.4979L31.0732 48.3497L31.1995 48.73C31.2309 48.8236 31.2915 48.8966 31.3668 48.9315L33.6968 50.0106C33.874 50.0927 34.0648 49.9417 34.0847 49.7038L34.0883 49.6497C34.0889 49.638 34.0896 49.6251 34.0902 49.6108C34.106 49.256 34.0883 48.8025 34.012 48.2854C33.8989 47.5196 33.6756 46.764 33.316 46.0565C33.2159 45.8594 33.1059 45.6679 32.9858 45.4827C32.6462 44.9589 32.3859 44.4651 32.1609 43.9431C32.0835 43.7634 32.0123 43.586 31.933 43.3776L31.6831 42.7091C31.4821 42.1846 31.3153 41.8494 31.0749 41.5358C30.621 40.9353 29.9893 40.7967 29.6322 41.3652ZM30.6576 42.0468C30.8322 42.2746 30.9618 42.5249 31.118 42.9195L31.1614 43.0308C31.2043 43.1428 31.3588 43.5599 31.3794 43.6147C31.4753 43.8698 31.559 44.0805 31.652 44.2961C31.894 44.8575 32.1745 45.3896 32.5378 45.95C32.6436 46.1132 32.7404 46.2817 32.8285 46.4551C33.145 47.0778 33.3419 47.7443 33.4418 48.4209L33.4515 48.4886C33.4825 48.7129 33.5009 48.9219 33.5095 49.1108L33.5107 49.141L31.6842 48.2951L31.4055 47.4484L31.0234 46.2749C30.8344 45.6918 30.6234 45.0371 30.3896 44.3078L30.3525 44.1921C29.9495 42.9345 29.9042 42.113 30.0859 41.8237C30.1773 41.6781 30.4022 41.723 30.6379 42.0214L30.6576 42.0468Z" fill="#000091"/>
<path fill-rule="evenodd" clip-rule="evenodd" d="M28.2661 45.4098C28.3725 45.4098 34.9563 44.9806 35.7394 53.2581L28.2661 45.4098Z" fill="white"/>
<path fill-rule="evenodd" clip-rule="evenodd" d="M29.7111 45.1558C30.5523 45.3074 31.3833 45.5971 32.1629 46.0595C34.2828 47.3168 35.6884 49.6313 36.0273 53.2142C36.0464 53.4159 35.933 53.5991 35.7739 53.6233C35.6149 53.6475 35.4705 53.5036 35.4514 53.3018C35.1371 49.98 33.8612 47.879 31.9172 46.726C31.1938 46.297 30.4173 46.0263 29.6295 45.8843C29.1326 45.7947 28.7135 45.7678 28.3751 45.7745L28.2661 45.7776C28.1059 45.7776 27.9761 45.6129 27.9761 45.4097C27.9761 45.2138 28.0968 45.0536 28.2491 45.0424L28.316 45.04C28.6919 45.029 29.1572 45.056 29.7111 45.1558Z" fill="#000091"/>
<path fill-rule="evenodd" clip-rule="evenodd" d="M32.7131 61.9279C32.7131 61.9279 31.901 55.8209 30.8278 53.6994C29.7547 51.5779 27.3667 51.7374 27.3667 51.7374C27.3667 51.7374 21.2953 44.9069 20.4155 43.6806C19.5358 42.442 19.8741 41.2648 21.4403 42.6382C23.0065 44.0117 27.7341 48.3528 27.7341 48.3528C27.7341 48.3528 35.6037 44.9682 36.8896 54.5578L38.3397 60.2479L32.7131 61.9279Z" fill="white"/>
<path fill-rule="evenodd" clip-rule="evenodd" d="M19.7821 41.9539C19.4912 42.4275 19.6926 43.2122 20.2003 43.9269L20.2351 43.9748C20.6059 44.4778 21.6436 45.7042 23.1767 47.4672L23.644 48.0037L24.1136 48.541C24.6945 49.2048 25.2991 49.8922 25.9057 50.5794L27.1745 52.0126C27.2263 52.0709 27.2927 52.1036 27.3615 52.1052L27.4045 52.1038C27.5717 52.0979 27.8008 52.109 28.0686 52.1514C28.4733 52.2155 28.8722 52.3384 29.2423 52.5329C29.813 52.8328 30.2712 53.2798 30.5839 53.8981C30.9451 54.6122 31.3117 55.8883 31.6632 57.551C31.8682 58.521 32.0556 59.562 32.2212 60.6031L32.2715 60.924C32.2931 61.0632 32.3135 61.1979 32.3327 61.3274L32.3887 61.7118L32.4273 61.9891C32.4551 62.1986 32.6167 62.3347 32.7797 62.286L38.4064 60.606L38.4232 60.6003C38.5779 60.5417 38.6663 60.3322 38.6159 60.1347L37.172 54.4693L37.1757 54.4962C36.6365 50.4745 34.9355 48.2957 32.4611 47.6235C31.1935 47.2791 29.8475 47.3605 28.5575 47.703C28.3367 47.7616 28.134 47.8241 27.9523 47.8871L27.8398 47.9271L27.7867 47.9468L26.8598 47.0973C26.4375 46.7107 26.0146 46.324 25.5993 45.9448L24.1376 44.6132C22.9931 43.5731 22.1181 42.7852 21.6055 42.3357L21.5335 42.2735C20.734 41.5954 20.096 41.4428 19.7821 41.9539ZM20.4364 42.4076C20.6375 42.4611 20.9098 42.626 21.2362 42.9066L21.4484 43.0931C21.8383 43.4379 22.3855 43.9295 23.0619 44.5419L24.2148 45.5887L24.7316 46.0595C25.0224 46.3247 25.3188 46.5952 25.6179 46.8686L27.5642 48.6508C27.6404 48.7207 27.7385 48.7395 27.8274 48.7012L27.8817 48.6792L27.9429 48.6555C27.9646 48.6473 27.9876 48.6388 28.012 48.6299L28.0494 48.6164C28.2339 48.5507 28.4442 48.4848 28.6763 48.4231C29.8937 48.1 31.1627 48.0232 32.3396 48.343C34.5854 48.9531 36.1051 50.8996 36.6038 54.6196L36.6081 54.6455C36.6098 54.6541 36.6117 54.6626 36.6138 54.671L37.9672 59.9812L32.9452 61.4806L32.9028 61.1911C32.8686 60.9615 32.8309 60.716 32.7898 60.4576C32.6219 59.4024 32.432 58.3471 32.2234 57.3605L32.1834 57.1732C31.8295 55.5324 31.4602 54.2679 31.0721 53.5008C30.6904 52.7462 30.1378 52.2071 29.4643 51.8532C29.0421 51.6313 28.5935 51.493 28.1405 51.4213L28.0848 51.4128C27.8828 51.3832 27.7008 51.3696 27.5461 51.367L27.4744 51.3666L26.4574 50.2178L25.9619 49.6563C25.5222 49.1576 25.0857 48.661 24.6607 48.1758L23.7749 47.1618C22.0954 45.2335 20.9622 43.8958 20.6303 43.433C20.2899 42.9538 20.1759 42.5099 20.2397 42.406C20.2408 42.4043 20.2447 42.4013 20.2613 42.3964C20.2995 42.3852 20.3585 42.3868 20.4364 42.4076Z" fill="#000091"/>
<path fill-rule="evenodd" clip-rule="evenodd" d="M27.2705 51.4431C27.2705 51.4431 24.1574 42.6506 23.6837 40.9951C23.21 39.3396 23.848 38.4689 24.9115 40.664C25.975 42.8591 28.3823 47.9482 28.3823 47.9482" fill="white"/>
<path fill-rule="evenodd" clip-rule="evenodd" d="M23.5897 39.0575C24.0401 38.7674 24.5807 39.2955 25.1347 40.4227L25.3026 40.7696C25.4888 41.1553 25.711 41.6184 25.9646 42.1487L26.6673 43.6217C26.9988 44.3179 27.3478 45.0523 27.7004 45.7955L28.6308 47.7589C28.7132 47.9331 28.6687 48.1591 28.5313 48.2636C28.3991 48.3643 28.229 48.3156 28.1429 48.1563L28.1319 48.1342L27.3093 46.3981C27.0268 45.8026 26.7458 45.2108 26.4733 44.6379L25.367 42.318C25.0891 41.7372 24.8525 41.2452 24.6642 40.8566C24.4275 40.3679 24.2081 40.0285 24.0251 39.8462C23.9623 39.7836 23.9092 39.7452 23.8695 39.7282L23.8567 39.7234L23.8525 39.7219L23.8481 39.7345C23.8312 39.7822 23.8191 39.8565 23.8157 39.9526C23.8078 40.1787 23.8492 40.4787 23.9405 40.8135L23.9562 40.8696C24.116 41.4282 24.5942 42.8574 25.3034 44.9133L25.7123 46.0943L26.0558 47.0813C26.2594 47.6651 26.468 48.2612 26.6781 48.86L27.5349 51.2924C27.6005 51.4778 27.5352 51.6955 27.3891 51.7787C27.243 51.862 27.0713 51.7792 27.0057 51.5938L26.4728 50.083L26.0418 48.8559C25.813 48.2033 25.5868 47.556 25.3675 46.9262L24.8492 45.4317C24.0912 43.2377 23.5824 41.7201 23.4109 41.1206C23.1376 40.1656 23.1669 39.3298 23.5897 39.0575Z" fill="#000091"/>
<path fill-rule="evenodd" clip-rule="evenodd" d="M26.9706 50.7319C26.9706 50.7319 26.7192 43.1902 26.7192 41.7309C26.7192 39.3274 27.86 38.6407 28.1501 41.8781C28.3434 44.0486 28.5658 48.0341 28.5658 48.0341" fill="white"/>
<path fill-rule="evenodd" clip-rule="evenodd" d="M27.2786 39.3262C27.8786 39.2003 28.2791 40.1403 28.4331 41.7799L28.4383 41.8368C28.4553 42.0273 28.4728 42.2354 28.4908 42.46L28.5064 42.6566C28.5432 43.1268 28.5817 43.658 28.6214 44.2392C28.6725 44.9888 28.7233 45.7869 28.7719 46.5894L28.8265 47.5079L28.8551 48.0081C28.8664 48.2108 28.7461 48.3867 28.5863 48.401C28.4322 48.4149 28.2977 48.2734 28.2782 48.0816L28.276 48.0516L28.2201 47.0882L28.179 46.4059C28.1399 45.7667 28.0995 45.1333 28.0587 44.5282L28.0182 43.9379C27.9932 43.5803 27.9687 43.2443 27.9449 42.9331L27.9137 42.5349C27.8959 42.3127 27.8786 42.1072 27.8619 41.9196C27.7968 41.1933 27.6856 40.6529 27.5479 40.3237C27.4947 40.1963 27.4422 40.1126 27.398 40.0714L27.3849 40.0597C27.3765 40.0527 27.3739 40.0519 27.3732 40.0521C27.3634 40.0541 27.3415 40.0711 27.3104 40.1147C27.2628 40.1813 27.2144 40.2854 27.1711 40.4219C27.0689 40.7445 27.0093 41.1996 27.0093 41.7309L27.0099 41.8761C27.0143 42.4239 27.0408 43.5324 27.0845 45.0621L27.1195 46.2606L27.1347 46.7645C27.1485 47.2167 27.1627 47.6764 27.1772 48.1372L27.2604 50.7164C27.2671 50.9194 27.1429 51.0909 26.9828 51.0995C26.8285 51.1078 26.6973 50.9615 26.682 50.769L26.678 50.6623L26.6415 49.5458C26.6219 48.9374 26.6022 48.3189 26.5832 47.706L26.5399 46.2885L26.4864 44.4323C26.4497 43.093 26.4292 42.1555 26.4292 41.7309C26.4292 40.4308 26.7437 39.4384 27.2786 39.3262Z" fill="#000091"/>
<path fill-rule="evenodd" clip-rule="evenodd" d="M116.524 49.6649C116.524 49.6649 116.35 47.5802 117.558 45.7163C118.767 43.8523 118.776 42.6751 119.453 41.7921C120.13 40.9092 121.203 41.3139 120.236 44.3306C119.27 47.3472 118.854 48.5858 118.854 48.5858L116.524 49.6649Z" fill="white"/>
<path fill-rule="evenodd" clip-rule="evenodd" d="M119.245 41.5357C119.014 41.8368 118.852 42.1578 118.661 42.647L118.554 42.93C118.495 43.0872 118.429 43.2658 118.417 43.2978C118.325 43.5416 118.246 43.7409 118.159 43.943C117.934 44.465 117.674 44.9588 117.334 45.4826C117.214 45.6678 117.104 45.8593 117.004 46.0564C116.645 46.7639 116.421 47.5195 116.308 48.2854C116.235 48.7778 116.216 49.2126 116.228 49.5594L116.23 49.6107C116.232 49.6535 116.234 49.6848 116.235 49.7037C116.255 49.9416 116.446 50.0926 116.623 50.0105L118.953 48.9314C119.029 48.8965 119.089 48.8235 119.121 48.7299L119.263 48.3007L119.552 47.418C119.815 46.6134 120.132 45.6343 120.505 44.4691C120.98 42.9882 121.038 41.9253 120.688 41.3692C120.331 40.8042 119.701 40.9405 119.245 41.5357ZM120.235 41.8288C120.413 42.1115 120.372 42.9088 119.987 44.1325L119.614 45.2942C119.457 45.78 119.313 46.226 119.18 46.6336L118.894 47.5119L118.636 48.295L116.809 49.1409L116.811 49.1108C116.82 48.9029 116.841 48.6709 116.878 48.4208C116.978 47.7443 117.175 47.0777 117.492 46.455C117.58 46.2816 117.677 46.1131 117.782 45.9499C118.146 45.3895 118.426 44.8574 118.668 44.296C118.751 44.1044 118.826 43.9166 118.909 43.698L119.153 43.0449L119.202 42.9194C119.358 42.5249 119.488 42.2747 119.661 42.0486C119.905 41.731 120.141 41.6799 120.235 41.8288Z" fill="#000091"/>
<path fill-rule="evenodd" clip-rule="evenodd" d="M122.054 45.4097C121.948 45.4097 115.364 44.9805 114.581 53.258L122.054 45.4097Z" fill="white"/>
<path fill-rule="evenodd" clip-rule="evenodd" d="M120.609 45.1558C121.139 45.0603 121.587 45.0315 121.954 45.0388L122.054 45.0418C122.214 45.0418 122.344 45.2065 122.344 45.4097C122.344 45.6056 122.223 45.7658 122.071 45.777L122.054 45.7776C122.047 45.7776 122.005 45.776 121.991 45.7756C121.644 45.7655 121.21 45.7906 120.69 45.8843C119.903 46.0263 119.126 46.297 118.403 46.726C116.459 47.879 115.183 49.98 114.869 53.3018C114.849 53.5036 114.705 53.6475 114.546 53.6233C114.387 53.5991 114.274 53.4159 114.293 53.2142C114.632 49.6313 116.037 47.3168 118.157 46.0595C118.937 45.5971 119.768 45.3074 120.609 45.1558Z" fill="#000091"/>
<path fill-rule="evenodd" clip-rule="evenodd" d="M117.607 61.9279C117.607 61.9279 118.419 55.8209 119.492 53.6994C120.565 51.5779 122.953 51.7374 122.953 51.7374C122.953 51.7374 129.024 44.9069 129.904 43.6806C130.784 42.442 130.446 41.2648 128.879 42.6382C127.313 44.0117 122.586 48.3528 122.586 48.3528C122.586 48.3528 114.716 44.9682 113.43 54.5578L111.98 60.2479L117.607 61.9279Z" fill="white"/>
<path fill-rule="evenodd" clip-rule="evenodd" d="M128.715 42.3357L128.343 42.6638C127.961 43.0043 127.463 43.4522 126.869 43.9906L125.767 44.9909L125.075 45.6218C124.723 45.9427 124.364 46.2706 124.003 46.6008L122.533 47.9468L122.454 47.9177L122.428 47.9081C122.231 47.838 122.008 47.7681 121.763 47.703C120.473 47.3605 119.127 47.2791 117.859 47.6235L117.785 47.6441C115.375 48.3324 113.712 50.471 113.161 54.3761L113.148 54.4693L111.704 60.1347C111.652 60.3393 111.749 60.5567 111.914 60.606L117.54 62.286C117.703 62.3347 117.865 62.1986 117.893 61.9891L117.931 61.7118L117.973 61.4235C118.01 61.1697 118.052 60.8948 118.099 60.6031C118.264 59.562 118.452 58.521 118.657 57.551L118.695 57.3712C119.035 55.7963 119.388 54.5862 119.736 53.8981C120.049 53.2798 120.507 52.8328 121.078 52.5329C121.448 52.3384 121.847 52.2155 122.251 52.1514C122.503 52.1117 122.72 52.0994 122.883 52.1029L122.938 52.1048C123.007 52.1094 123.075 52.0824 123.13 52.0293L123.152 52.0055L124.249 50.7667L124.745 50.2047C125.35 49.5182 125.949 48.8358 126.521 48.1815L127.345 47.2353C128.817 45.5394 129.797 44.3766 130.119 43.9282C130.627 43.2122 130.829 42.4275 130.538 41.9539C130.215 41.4275 129.548 41.6051 128.715 42.3357ZM130.059 42.3964L130.071 42.4007C130.078 42.4032 130.08 42.4049 130.08 42.406C130.144 42.5099 130.03 42.9538 129.689 43.4344L129.644 43.4959C129.28 43.9852 128.249 45.2022 126.75 46.9263L126.287 47.4578L125.818 47.9944C125.291 48.5972 124.744 49.2195 124.193 49.8434L122.846 51.3666L122.815 51.3666C122.639 51.3674 122.423 51.3828 122.18 51.4213C121.727 51.493 121.278 51.6313 120.856 51.8532C120.182 52.2071 119.63 52.7462 119.248 53.5008C118.845 54.2968 118.463 55.6285 118.097 57.3605C117.888 58.3471 117.698 59.4025 117.53 60.4576L117.479 60.7825C117.447 60.994 117.416 61.1952 117.389 61.384L117.375 61.4806L112.353 59.9812L113.706 54.671C113.711 54.6542 113.714 54.637 113.716 54.6196C114.215 50.8996 115.735 48.9531 117.98 48.343C119.157 48.0232 120.426 48.1 121.644 48.4231C121.853 48.4786 122.044 48.5376 122.215 48.5967L122.271 48.6164C122.309 48.6301 122.345 48.6432 122.377 48.6555L122.473 48.693C122.482 48.6967 122.488 48.6994 122.493 48.7012C122.575 48.7368 122.666 48.7231 122.739 48.665L122.857 48.5575L124.161 47.3629C124.643 46.9219 125.123 46.4837 125.588 46.0595L127.258 44.5419C128.041 43.8328 128.651 43.2856 129.044 42.9409C129.388 42.6393 129.675 42.4633 129.884 42.4076C129.962 42.3868 130.021 42.3852 130.059 42.3964Z" fill="#000091"/>
<path fill-rule="evenodd" clip-rule="evenodd" d="M123.05 51.443C123.05 51.443 126.163 42.6505 126.637 40.995C127.101 39.3395 126.472 38.4688 125.409 40.6639C124.345 42.8589 121.938 47.9481 121.938 47.9481" fill="white"/>
<path fill-rule="evenodd" clip-rule="evenodd" d="M125.162 40.4713C125.724 39.3096 126.271 38.7627 126.727 39.0579C127.141 39.3254 127.177 40.1356 126.922 41.0743L126.909 41.1206C126.728 41.7553 126.168 43.4194 125.335 45.8259L125.139 46.3909L124.858 47.1971C124.574 48.013 124.279 48.8549 123.983 49.6967L123.314 51.5938C123.249 51.7791 123.077 51.8619 122.931 51.7787C122.785 51.6954 122.72 51.4777 122.785 51.2924L123.318 49.7831L123.846 48.2779C124.041 47.7205 124.234 47.1683 124.422 46.629L125.013 44.9234C125.724 42.8621 126.204 41.4294 126.363 40.8718C126.464 40.5138 126.509 40.1923 126.5 39.9533C126.497 39.8675 126.487 39.799 126.473 39.7511L126.463 39.7223L126.461 39.7232C126.425 39.7354 126.375 39.7686 126.315 39.8258L126.294 39.8457C126.119 40.0213 125.909 40.3426 125.682 40.8028L125.656 40.8566C125.49 41.1985 125.287 41.6206 125.051 42.1127L124.149 44.0021L123.328 45.7305L122.187 48.1374C122.104 48.3116 121.926 48.3681 121.789 48.2636C121.657 48.1629 121.61 47.9497 121.681 47.7784L121.692 47.7526L122.302 46.466L123.04 44.9097L124.104 42.675C124.539 41.7648 124.897 41.0168 125.162 40.4713Z" fill="#000091"/>
<path fill-rule="evenodd" clip-rule="evenodd" d="M123.35 50.7318C123.35 50.7318 123.601 43.1901 123.601 41.7308C123.601 39.3273 122.46 38.6405 122.17 41.878C121.977 44.0485 121.754 48.034 121.754 48.034" fill="white"/>
<path fill-rule="evenodd" clip-rule="evenodd" d="M121.882 41.8364L121.893 41.7233C122.05 40.1187 122.449 39.2016 123.042 39.326C123.569 39.4367 123.882 40.4029 123.891 41.676L123.891 41.8008C123.888 42.3604 123.858 43.6172 123.807 45.3922L123.77 46.6229L123.737 47.7059C123.723 48.1655 123.708 48.6284 123.693 49.0877L123.639 50.7473C123.633 50.9503 123.497 51.1079 123.337 51.0994C123.183 51.0911 123.062 50.9313 123.06 50.7379L123.063 50.6313L123.099 49.5155L123.143 48.1371L123.191 46.5947L123.251 44.5153C123.288 43.1739 123.309 42.2218 123.311 41.7755L123.311 41.7308C123.311 41.1995 123.251 40.7444 123.149 40.4217C123.106 40.2853 123.057 40.1812 123.01 40.1145C122.979 40.071 122.957 40.054 122.947 40.052L122.945 40.0526C122.942 40.054 122.936 40.0585 122.922 40.0713C122.878 40.1125 122.826 40.1961 122.772 40.3235C122.639 40.6421 122.531 41.1585 122.465 41.8496L122.458 41.9192C122.442 42.107 122.424 42.3126 122.406 42.5347L122.375 42.933C122.344 43.348 122.311 43.8068 122.277 44.3025C122.231 44.9749 122.185 45.6867 122.141 46.4058L122.083 47.378L122.044 48.0599C122.032 48.2626 121.894 48.4153 121.734 48.4009C121.574 48.3866 121.454 48.2107 121.465 48.008L121.516 47.1315L121.534 46.8301C121.582 46.0272 121.632 45.2243 121.684 44.4654L121.733 43.7534C121.758 43.3987 121.782 43.066 121.806 42.7582L121.829 42.4599C121.847 42.2353 121.865 42.0271 121.882 41.8364Z" fill="#000091"/>
<path fill-rule="evenodd" clip-rule="evenodd" d="M119.415 58.6537C119.54 56.7774 119.347 56.0294 119.347 56.0294C115.944 56.4831 113.218 52.3628 113.218 52.3628C113.218 52.3628 112.889 52.8287 111.98 54.3248C111.062 55.8209 109.331 54.1286 108.297 56.2746C107.465 58.016 104.526 67.1151 103.424 70.5365C100.089 57.9547 95.7961 51.5657 88.7965 49.9592C87.8877 42.9448 83.9433 34.0419 68.262 35.5993C58.5168 37.8311 55.5391 44.1588 56.2159 50.8421H56.1675C56.1675 50.8421 49.8544 50.7318 46.3256 64.0494C45.2912 60.9591 44.2374 57.9301 43.7927 56.9859C42.7679 54.8399 39.2584 55.7964 38.34 54.3126C37.4216 52.8165 37.1025 52.3505 37.1025 52.3505C37.1025 52.3505 34.3762 56.4708 30.9731 56.0171C30.9731 56.0171 30.7797 56.7652 30.9054 58.6414C31.0311 60.5176 29.2329 60.7384 29.6389 63.1909C30.0353 65.6435 36.3774 87.6555 36.3774 87.6555C36.9768 89.7035 37.7599 96.1047 41.0373 96.3255C41.0663 96.399 41.105 96.4358 41.1533 96.4358C46.345 96.4113 109.814 96.4849 109.814 96.4849C109.814 96.4849 109.824 96.399 109.824 96.2274C112.647 95.3812 113.382 89.5808 113.952 87.6433C113.952 87.6433 120.285 65.6435 120.691 63.1787C121.087 60.7384 119.289 60.5299 119.415 58.6537Z" fill="#F95C5E"/>
<path fill-rule="evenodd" clip-rule="evenodd" d="M119.444 58.3471C119.685 56.385 119.386 55.6492 119.386 55.6492C116.282 56.5077 113.411 52.0194 113.411 52.0194C113.411 52.0194 113.024 52.4486 112.096 54.1041C111.719 54.7663 111.342 54.8399 110.955 54.9748C112.241 60.2969 118.293 61.0327 120.401 61.1063C120.236 59.9535 119.26 59.8432 119.444 58.3471Z" fill="#000091"/>
<path fill-rule="evenodd" clip-rule="evenodd" d="M30.8668 58.3594C30.6251 56.3973 30.9345 55.6492 30.9345 55.6492C34.0378 56.5077 36.9092 52.0194 36.9092 52.0194C36.9092 52.0194 37.3732 52.0807 38.311 53.7362C38.6881 54.3984 39.3262 54.9625 39.7129 55.0974C38.427 60.4195 31.9689 61.1431 29.8613 61.2044C30.016 60.0639 31.0505 59.8554 30.8668 58.3594Z" fill="#000091"/>
<path fill-rule="evenodd" clip-rule="evenodd" d="M56.1868 50.4375C54.3015 50.928 52.3389 52.1911 50.6084 54.6192C52.2229 57.5745 57.8496 67.6424 68.2232 69.7762C68.2232 69.7149 68.2039 69.6168 68.1749 69.5064C62.4225 66.5142 56.7958 58.1877 56.1868 50.4375Z" fill="#000091"/>
<path fill-rule="evenodd" clip-rule="evenodd" d="M88.7966 49.9102C89.1544 52.6325 89.0577 55.0851 89.0093 56.5322C88.845 61.3024 87.1628 64.638 86.0993 67.017L86.022 69.4573C90.4112 68.1452 93.8529 57.8443 94.4427 52.7797C92.8861 51.6883 92.6058 50.8912 88.7966 49.9102Z" fill="#000091"/>
<path fill-rule="evenodd" clip-rule="evenodd" d="M67.2945 66.3964C67.4733 66.2649 67.7007 66.3356 67.8122 66.5527L67.837 66.6059L67.9151 66.7799C67.9486 66.855 67.9854 66.9383 68.0255 67.0295L68.1668 67.3535C68.2759 67.6057 68.3921 67.878 68.5139 68.1685L68.5548 68.266C69.1019 69.5747 69.6489 70.9719 70.1598 72.4009C70.652 73.7778 71.0849 75.1136 71.4421 76.3833C72.0044 78.3821 72.3622 80.1551 72.4752 81.6489C72.4956 81.9186 72.3398 82.1582 72.1272 82.184C71.9146 82.2099 71.7257 82.0123 71.7053 81.7426C71.5993 80.3417 71.2563 78.642 70.7137 76.713C70.3642 75.4709 69.9393 74.1597 69.4554 72.8061C68.9831 71.485 68.4789 70.19 67.9727 68.9688L67.8715 68.7256C67.6825 68.2736 67.5071 67.865 67.3498 67.507L67.2419 67.2628L67.1537 67.0667C67.0467 66.8323 67.1097 66.5322 67.2945 66.3964Z" fill="#000091"/>
<path fill-rule="evenodd" clip-rule="evenodd" d="M85.5539 65.7837C85.7534 65.8532 85.8732 66.1087 85.8291 66.3621L85.7592 66.6978L85.6998 66.9914C85.6689 67.1456 85.6364 67.311 85.6026 67.4868L85.5855 67.5755C85.4056 68.5152 85.2256 69.5424 85.0576 70.6233C84.7676 72.489 84.5447 74.314 84.4152 76.0225C84.2722 77.91 84.2496 79.5796 84.3664 80.9692C84.389 81.2386 84.2352 81.4803 84.0229 81.509C83.8105 81.5377 83.62 81.3426 83.5973 81.0732C83.4743 79.6093 83.4977 77.8767 83.6453 75.9286C83.7775 74.1848 84.0042 72.3288 84.2987 70.4335C84.459 69.4023 84.63 68.4195 84.8018 67.513L84.834 67.3439C84.8805 67.1011 84.9246 66.8767 84.9657 66.6723L85.0199 66.4061L85.0785 66.1266C85.1351 65.8654 85.3479 65.7119 85.5539 65.7837Z" fill="#000091"/>
<path fill-rule="evenodd" clip-rule="evenodd" d="M45.9946 64.0267C46.1431 63.9729 46.2977 64.0761 46.348 64.2588L46.3532 64.2794C46.3614 64.3158 47.1075 66.3436 48.1641 69.2002L49.2535 72.1424L50.9966 76.8423C51.0648 77.0261 51.0027 77.2453 50.8578 77.3319C50.7129 77.4184 50.54 77.3396 50.4718 77.1558L48.7285 72.4554L46.943 67.6304C46.1851 65.5775 45.8124 64.5567 45.7954 64.4815C45.7514 64.2861 45.8406 64.0825 45.9946 64.0267Z" fill="#000091"/>
<path fill-rule="evenodd" clip-rule="evenodd" d="M103.414 70.6354C103.494 70.4592 103.671 70.3983 103.81 70.4994C103.944 70.5968 103.993 70.8089 103.925 70.9818L103.917 71.0016L100.756 77.9915C100.676 78.1677 100.499 78.2286 100.36 78.1275C100.226 78.0301 100.177 77.8181 100.244 77.6451L100.253 77.6253L103.414 70.6354Z" fill="#000091"/>
<path fill-rule="evenodd" clip-rule="evenodd" d="M59.749 86.4174C59.9089 86.4274 60.0323 86.6 60.0244 86.8029L60.0189 86.9188L60.0091 87.0897C60.0063 87.1359 60.0031 87.1845 59.9997 87.2355C59.9766 87.5746 59.9442 87.952 59.9008 88.3582C59.7767 89.5197 59.5892 90.6818 59.3247 91.7698C58.9719 93.2207 58.5083 94.4294 57.913 95.3161C57.1873 96.3969 56.2874 96.962 55.2166 96.9014C55.0565 96.8924 54.9326 96.7205 54.9397 96.5175C54.9469 96.3146 55.0824 96.1573 55.2424 96.1664C56.8917 96.2597 58.043 94.5448 58.7703 91.553C59.0245 90.5076 59.2058 89.3838 59.326 88.2594C59.3642 87.9013 59.3937 87.5667 59.4154 87.2626L59.4217 87.1724C59.4256 87.1153 59.4291 87.0614 59.4321 87.011L59.4447 86.7752C59.4448 86.772 59.4449 86.7692 59.445 86.7668C59.4526 86.5711 59.5794 86.4187 59.7319 86.417L59.749 86.4174Z" fill="#000091"/>
<path fill-rule="evenodd" clip-rule="evenodd" d="M83.1216 96.5094C82.2612 88.0848 81.3524 75.6133 82.7542 70.3403C84.9682 62.0382 84.1077 51.6025 82.6092 50.0941C81.1107 48.5858 64.6077 48.8678 64.6077 48.8678L61.6396 50.1677C61.6396 50.1677 72.9414 63.4853 76.2864 87.7782C76.8085 91.592 77.1662 94.5841 77.3982 96.9264" fill="white"/>
<path fill-rule="evenodd" clip-rule="evenodd" d="M67.1792 41.8167L66.9375 47.1265L64.4722 49.2848C64.4722 49.2848 70.9303 54.9625 76.702 63.424C76.702 63.424 80.2501 60.2479 81.0719 50.18L79.2156 49.8121L70.3212 43.1288L67.1792 41.8167Z" fill="white"/>
<path fill-rule="evenodd" clip-rule="evenodd" d="M66.8896 41.7954L66.656 46.9257L64.3074 48.982C64.1458 49.1235 64.1405 49.4213 64.2918 49.5729L64.4848 49.7467L64.6308 49.8798C64.801 50.0359 64.9932 50.2149 65.2056 50.416L65.3795 50.5813C66.0522 51.2233 66.7932 51.9589 67.5866 52.7817C70.0507 55.3376 72.515 58.205 74.8142 61.3164C75.3873 62.092 75.944 62.875 76.4827 63.6647C76.5802 63.8077 76.7474 63.8336 76.8692 63.7245L76.8915 63.704C76.9362 63.6619 77.0026 63.5945 77.0878 63.5001C77.2511 63.3192 77.4318 63.0954 77.6254 62.8261C78.1734 62.0639 78.7193 61.0881 79.2272 59.878C80.2843 57.3594 81.0383 54.1639 81.3604 50.2178L81.3616 50.1963C81.3683 50.0102 81.2635 49.8456 81.1166 49.8165L79.3155 49.4594L70.469 42.8122C70.451 42.7987 70.4318 42.7876 70.4119 42.7793L67.2699 41.4672C67.0889 41.3916 66.9006 41.5541 66.8896 41.7954ZM67.447 42.3157L70.2003 43.4655L79.0678 50.1286L79.0872 50.1419C79.1135 50.1584 79.1418 50.1698 79.1709 50.1755L80.7536 50.4892L80.7452 50.5833C80.4121 54.2327 79.6973 57.1923 78.7152 59.5323C78.2303 60.6875 77.7125 61.613 77.1968 62.3303L77.1558 62.3869C77.0214 62.571 76.8951 62.7296 76.7788 62.8638L76.7357 62.9127L76.9213 63.1832C76.3776 62.3861 75.8157 61.5958 75.2374 60.8132C72.9193 57.6763 70.4366 54.7873 67.9538 52.2121L67.7464 51.9978C66.956 51.1837 66.2194 50.4578 65.5526 49.8264L65.3675 49.6519C65.2638 49.5546 65.1656 49.4631 65.0729 49.3776L64.9772 49.2895L67.1022 47.4292C67.1758 47.3648 67.2219 47.2609 67.227 47.1477L67.447 42.3157Z" fill="#000091"/>
<path fill-rule="evenodd" clip-rule="evenodd" d="M64.3849 32.1166C64.3849 32.1166 60.5758 32.7788 61.6586 37.0831C62.7414 41.3874 66.7342 38.2113 66.7342 38.2113L65.6031 32.0308L64.3849 32.1166Z" fill="white"/>
<path fill-rule="evenodd" clip-rule="evenodd" d="M65.5874 31.6635L64.3693 31.7494C64.3615 31.7499 64.3537 31.7509 64.346 31.7522L64.3068 31.7596C64.2019 31.7806 64.0455 31.8216 63.8528 31.8882C63.4903 32.0136 63.1276 32.189 62.7867 32.4243C61.4336 33.3581 60.814 34.934 61.3827 37.195C61.8323 38.9823 62.7973 39.7648 64.0736 39.7046C64.6828 39.6759 65.3246 39.4583 65.9662 39.1146C66.179 39.0006 66.3787 38.8794 66.5615 38.7573L66.6293 38.7114C66.751 38.6281 66.8393 38.5624 66.8888 38.5231C66.9936 38.4397 67.0452 38.2811 67.0172 38.1282L65.8861 31.9477C65.8542 31.7735 65.7282 31.6536 65.5874 31.6635ZM65.376 32.4153L66.4035 38.0294L66.3537 38.064C66.1683 38.1909 65.9619 38.3181 65.7405 38.4368C65.1583 38.7487 64.581 38.9445 64.052 38.9694C63.0263 39.0177 62.3025 38.4307 61.9353 36.9714C61.4577 35.0727 61.9399 33.8463 63.0639 33.0706C63.3619 32.865 63.6835 32.7094 64.0054 32.5981C64.102 32.5646 64.1924 32.5374 64.2749 32.5158L64.3329 32.5012L64.3986 32.4863L64.414 32.4831L65.376 32.4153Z" fill="#000091"/>
<path fill-rule="evenodd" clip-rule="evenodd" d="M73.4538 14.924C74.4495 14.6665 81.2944 13.0723 82.7156 20.381C84.1367 27.6897 84.0594 35.9917 83.7597 39.83C83.46 43.6683 70.099 43.9013 69.3256 43.6806C68.5522 43.4599 67.5564 42.4666 67.5564 42.4666L64.7237 31.3441C64.7237 31.3441 62.7418 17.6954 73.4538 14.924Z" fill="white"/>
<path fill-rule="evenodd" clip-rule="evenodd" d="M75.101 14.2733C74.4409 14.3319 73.8844 14.4372 73.3959 14.5636C70.831 15.2271 68.8378 16.5378 67.3659 18.3983C66.1181 19.9756 65.2802 21.901 64.7928 24.0726C64.4153 25.7549 64.268 27.4872 64.2915 29.1747C64.2991 29.726 64.3249 30.2361 64.3629 30.6954L64.3713 30.793C64.3844 30.942 64.398 31.0763 64.4115 31.1949L64.426 31.3163C64.4313 31.3587 64.4356 31.3904 64.4385 31.4108C64.4408 31.4265 64.4439 31.442 64.4478 31.4572L67.2804 42.5797C67.2982 42.6493 67.3318 42.7106 67.3772 42.7558L67.4377 42.8146L67.4971 42.8707C67.5284 42.8998 67.5618 42.9306 67.5974 42.9627C67.7663 43.1153 67.9478 43.2679 68.1357 43.4107C68.3547 43.5772 68.5683 43.7198 68.7727 43.8313C68.945 43.9252 69.1083 43.9957 69.262 44.0396C69.8898 44.2188 73.8319 44.0722 76.7537 43.643L76.9649 43.6113C78.8193 43.3277 80.3942 42.9369 81.5793 42.4307L81.6836 42.3854C83.1291 41.7475 83.9649 40.9356 84.0484 39.8664C84.2238 37.6193 84.2824 34.5363 84.1728 31.3907C84.0361 27.4661 83.6537 23.6687 82.9972 20.2929C82.3394 16.9099 80.5316 15.0659 77.9791 14.4537C77.055 14.2321 76.0825 14.186 75.101 14.2733ZM77.8713 15.1767C80.2161 15.739 81.8355 17.3909 82.434 20.4691C83.0805 23.7935 83.4581 27.5439 83.5933 31.4232C83.7017 34.5346 83.6438 37.5825 83.4711 39.7938C83.3619 41.1934 80.8281 42.2891 76.8092 42.8939L76.687 42.9121C73.829 43.332 69.9326 43.4768 69.3893 43.3217C69.2736 43.2887 69.1434 43.2325 69.0019 43.1553C68.8236 43.0581 68.6322 42.9304 68.434 42.7797C68.2602 42.6475 68.0911 42.5055 67.9339 42.3634L67.8707 42.3057L67.8044 42.2436L65.006 31.2556L64.9937 31.1585L64.9909 31.1356C64.9766 31.0143 64.9619 30.8724 64.9478 30.7115C64.9072 30.2492 64.8794 29.7286 64.8715 29.1617C64.8489 27.5421 64.9902 25.8806 65.3508 24.2741C65.8123 22.2173 66.6021 20.4025 67.7754 18.9194C69.1648 17.1632 71.0554 15.92 73.5118 15.2845C73.9773 15.1641 74.5095 15.0634 75.1415 15.0072C76.0767 14.9241 77.0007 14.9679 77.8713 15.1767Z" fill="#000091"/>
<path fill-rule="evenodd" clip-rule="evenodd" d="M65.9707 31.062C66.6861 31.7855 68.813 36.237 69.4318 38.3707C69.4318 38.3707 73.5019 35.8936 79.554 34.8635C79.554 34.8635 82.8701 34.4589 84.2333 34.7654C84.2333 34.7654 84.649 42.5892 82.3287 47.0161C80.0084 51.443 74.2367 51.1733 71.3653 49.1499C68.4843 47.1265 67.9429 46.0351 67.0921 43.5334C66.2414 41.0318 63.7471 31.6138 63.7471 31.6138L65.9707 31.062Z" fill="#6A6AF4"/>
<path fill-rule="evenodd" clip-rule="evenodd" d="M64.3851 32.9873C64.3851 32.9873 62.2775 29.6641 61.2527 26.0465C60.2956 22.6374 61.2237 18.7868 63.602 16.8493C65.5839 15.2306 67.2371 16.0277 67.2371 16.0277C67.2371 16.0277 64.5688 11.4536 67.5369 6.63423C68.581 4.92967 70.1375 3.85053 71.81 3.66659C75.9092 3.21286 77.5721 7.49263 77.5721 7.49263C77.5721 7.49263 81.0332 -3.51951 90.5463 1.28758C91.5035 1.77809 92.6829 3.34775 93.2727 4.43916C96.8595 11.0489 87.8297 20.8225 82.8024 22.2327C77.282 23.7778 73.908 23.0666 71.9551 21.5705C73.3859 22.4289 72.8348 33.4165 64.3851 32.9873Z" fill="#000091"/>
<path fill-rule="evenodd" clip-rule="evenodd" d="M78.791 29.517C78.9926 29.4584 79.1936 29.6113 79.2494 29.861L79.2543 29.8855L80.4628 36.5688C80.5091 36.8245 80.3886 37.0794 80.1918 37.1502L80.1725 37.1565L78.616 37.6102C78.4078 37.6709 78.2003 37.5061 78.1525 37.242C78.1061 36.9863 78.2267 36.7313 78.4235 36.6604L78.4428 36.6541L79.6225 36.3102L78.5005 30.1048C78.4542 29.849 78.5748 29.594 78.7717 29.5233L78.791 29.517Z" fill="#000091"/>
<path fill-rule="evenodd" clip-rule="evenodd" d="M80.9439 32.6842C81.241 32.6421 81.4396 32.1278 81.3874 31.5355C81.3352 30.9432 81.052 30.4972 80.7548 30.5393C80.4577 30.5814 80.2591 31.0958 80.3113 31.688C80.3635 32.2803 80.6467 32.7263 80.9439 32.6842Z" fill="#000091"/>
<path fill-rule="evenodd" clip-rule="evenodd" d="M75.7906 33.1134C76.0877 33.0713 76.2863 32.557 76.2341 31.9647C76.1819 31.3724 75.8987 30.9264 75.6015 30.9685C75.3044 31.0106 75.1058 31.525 75.158 32.1173C75.2102 32.7095 75.4934 33.1555 75.7906 33.1134Z" fill="#000091"/>
<path fill-rule="evenodd" clip-rule="evenodd" d="M75.9499 27.7756C76.1634 27.7703 76.3399 27.9855 76.3441 28.2564C76.3607 29.3196 75.8365 30.0335 75.0114 30.4448C74.7465 30.5768 74.4668 30.6692 74.1877 30.73L74.1225 30.7437C73.9853 30.7713 73.8763 30.7858 73.8059 30.7913C73.5928 30.8079 73.4093 30.6021 73.3962 30.3317C73.3836 30.0695 73.5357 29.8428 73.7393 29.8142L73.7916 29.8086C73.8033 29.8073 73.8174 29.8055 73.8339 29.8032C73.9006 29.794 73.9756 29.7809 74.0566 29.7632C74.2874 29.7129 74.5176 29.6369 74.7286 29.5317C75.2731 29.2603 75.5674 28.8692 75.571 28.3115L75.5709 28.2757C75.5666 28.0049 75.7363 27.781 75.9499 27.7756Z" fill="#000091"/>
<path fill-rule="evenodd" clip-rule="evenodd" d="M80.2655 25.0182C80.5972 24.9147 80.9418 24.881 81.2769 24.9631C81.8003 25.0913 82.2181 25.4906 82.4521 26.1848C82.536 26.4339 82.4448 26.7222 82.2485 26.8287C82.0521 26.9351 81.8248 26.8195 81.7409 26.5704C81.6119 26.1875 81.4103 25.9949 81.1302 25.9263C80.9209 25.875 80.6826 25.8983 80.4503 25.9708C80.4099 25.9834 80.3726 25.9966 80.3391 26.0098L80.3045 26.024L80.2754 26.037C80.0767 26.1362 79.8522 26.0122 79.774 25.7601C79.6958 25.508 79.7936 25.2232 79.9923 25.124C80.0506 25.095 80.1442 25.0561 80.2655 25.0182Z" fill="#000091"/>
<path fill-rule="evenodd" clip-rule="evenodd" d="M78.3369 39.7513C77.6083 39.9362 76.8303 39.9867 76.0581 39.9408C75.3876 39.9067 74.8113 40.506 75.0777 41.2043C75.474 42.2678 76.3108 42.8681 77.644 42.6726C78.9657 42.476 79.5755 41.7157 79.5736 40.6685L79.5732 40.6323C79.5733 39.995 78.9466 39.6135 78.3642 39.7448L78.3369 39.7513ZM78.8788 40.5296C78.9271 40.5582 78.9627 40.5913 78.9825 40.6215L78.9932 40.6393C79.0034 41.3113 78.6319 41.7848 77.577 41.9417C76.5087 42.0984 75.9105 41.6825 75.6139 40.9206L75.601 40.8868C75.5934 40.8667 75.5964 40.8541 75.6399 40.8089C75.7224 40.7231 75.8685 40.6675 76.033 40.6758C76.8469 40.7242 77.6703 40.6708 78.4507 40.4728C78.5996 40.435 78.7597 40.4589 78.8788 40.5296Z" fill="#000091"/>
<rect width="29.7195" height="8.90297" transform="matrix(-0.999982 0.00602548 -0.00374512 -0.999993 111.078 96.2362)" fill="#000091"/>
<rect width="13.0518" height="4.78259" transform="matrix(-0.999982 0.00602549 -0.00374513 -0.999993 110.619 93.9716)" fill="white"/>
<rect width="1.21817" height="4.78259" transform="matrix(-0.999982 0.00602549 -0.00374513 -0.999993 97.0198 94.0508)" fill="#F95C5E"/>
<path fill-rule="evenodd" clip-rule="evenodd" d="M87.9749 89.8015C87.0832 89.8015 86.3604 90.7184 86.3604 91.8494C86.3604 92.9805 87.0832 93.8973 87.9749 93.8973C88.8666 93.8973 89.5894 92.9805 89.5894 91.8494C89.5894 90.7184 88.8666 89.8015 87.9749 89.8015ZM87.9749 90.5373C88.5462 90.5373 89.0094 91.1248 89.0094 91.8494C89.0094 92.5741 88.5462 93.1616 87.9749 93.1616C87.4036 93.1616 86.9404 92.5741 86.9404 91.8494C86.9404 91.1248 87.4036 90.5373 87.9749 90.5373Z" fill="white"/>
<path fill-rule="evenodd" clip-rule="evenodd" d="M107.492 89.5194C107.647 89.5181 107.774 89.6701 107.784 89.8631L107.784 89.8848L107.803 93.441C107.805 93.6442 107.676 93.81 107.515 93.8114C107.361 93.8128 107.234 93.6607 107.224 93.4677L107.223 93.4461L107.204 89.8898C107.203 89.6867 107.332 89.5208 107.492 89.5194Z" fill="#F95C5E"/>
<path fill-rule="evenodd" clip-rule="evenodd" d="M106.062 89.5317C106.217 89.5311 106.343 89.6837 106.353 89.8767L106.353 89.8984L106.363 93.4423C106.363 93.6455 106.234 93.8108 106.074 93.8115C105.919 93.8122 105.793 93.6596 105.783 93.4665L105.783 93.4449L105.773 89.9009C105.773 89.6977 105.902 89.5324 106.062 89.5317Z" fill="#F95C5E"/>
<path fill-rule="evenodd" clip-rule="evenodd" d="M104.622 89.5439C104.776 89.5433 104.903 89.6959 104.912 89.8889L104.913 89.9106L104.923 93.4546C104.923 93.6577 104.794 93.823 104.633 93.8237C104.479 93.8244 104.352 93.6718 104.343 93.4787L104.342 93.4571L104.333 89.9131C104.332 89.7099 104.462 89.5447 104.622 89.5439Z" fill="#F95C5E"/>
<rect x="114.518" y="87.8618" width="28.0368" height="9.35664" transform="rotate(-180 114.518 87.8618)" fill="#000091"/>
<rect x="112.128" y="85.1078" width="13.0516" height="4.78255" transform="rotate(-180 112.128 85.1078)" fill="white"/>
<rect x="98.5291" y="85.1078" width="1.21815" height="4.78255" transform="rotate(-180 98.5291 85.1078)" fill="#F95C5E"/>
<path fill-rule="evenodd" clip-rule="evenodd" d="M91.3006 80.5798C90.4089 80.5798 89.686 81.4967 89.686 82.6277C89.686 83.7588 90.4089 84.6757 91.3006 84.6757C92.1922 84.6757 92.9151 83.7588 92.9151 82.6277C92.9151 81.4967 92.1922 80.5798 91.3006 80.5798ZM91.3006 81.3156C91.8719 81.3156 92.335 81.9031 92.335 82.6277C92.335 83.3524 91.8719 83.9399 91.3006 83.9399C90.7292 83.9399 90.2661 83.3524 90.2661 82.6277C90.2661 81.9031 90.7292 81.3156 91.3006 81.3156Z" fill="white"/>
<path fill-rule="evenodd" clip-rule="evenodd" d="M103.047 80.5922C103.202 80.5922 103.328 80.7453 103.337 80.9384L103.337 80.9601V84.5041C103.337 84.7072 103.207 84.8719 103.047 84.8719C102.893 84.8719 102.766 84.7188 102.758 84.5257L102.757 84.5041V80.9601C102.757 80.7569 102.887 80.5922 103.047 80.5922Z" fill="#F95C5E"/>
<path fill-rule="evenodd" clip-rule="evenodd" d="M110.462 80.5922C110.617 80.5922 110.743 80.7453 110.752 80.9384L110.752 80.9601V84.5041C110.752 84.7072 110.622 84.8719 110.462 84.8719C110.308 84.8719 110.181 84.7188 110.173 84.5257L110.172 84.5041V80.9601C110.172 80.7569 110.302 80.5922 110.462 80.5922Z" fill="#F95C5E"/>
<path fill-rule="evenodd" clip-rule="evenodd" d="M101.606 80.5922C101.761 80.5922 101.887 80.7453 101.896 80.9384L101.896 80.9601V84.5041C101.896 84.7072 101.767 84.8719 101.606 84.8719C101.452 84.8719 101.326 84.7188 101.317 84.5257L101.316 84.5041V80.9601C101.316 80.7569 101.446 80.5922 101.606 80.5922Z" fill="#F95C5E"/>
<path fill-rule="evenodd" clip-rule="evenodd" d="M100.176 80.5922C100.33 80.5922 100.457 80.7453 100.465 80.9384L100.466 80.9601V84.5041C100.466 84.7072 100.336 84.8719 100.176 84.8719C100.021 84.8719 99.8951 84.7188 99.8862 84.5257L99.8857 84.5041V80.9601C99.8857 80.7569 100.016 80.5922 100.176 80.5922Z" fill="#F95C5E"/>
<rect x="109.215" y="65.5332" width="34.7173" height="31.0621" fill="#6A6AF4"/>
<path fill-rule="evenodd" clip-rule="evenodd" d="M128.986 65.2389V96.7792H128.406V65.2389H128.986Z" fill="white"/>
<path fill-rule="evenodd" clip-rule="evenodd" d="M139.737 68.5989C139.897 68.5989 140.027 68.7636 140.027 68.9668C140.027 69.1627 139.906 69.3228 139.754 69.334L139.737 69.3347H124.026C123.866 69.3347 123.736 69.1699 123.736 68.9668C123.736 68.7708 123.857 68.6107 124.009 68.5995L124.026 68.5989H139.737Z" fill="white"/>
<path fill-rule="evenodd" clip-rule="evenodd" d="M143.623 79.7583C143.783 79.7583 143.913 79.923 143.913 80.1262C143.913 80.3221 143.792 80.4823 143.64 80.4935L143.623 80.4941H133.53C133.37 80.4941 133.24 80.3294 133.24 80.1262C133.24 79.9303 133.36 79.7701 133.513 79.7589L133.53 79.7583H143.623Z" fill="white"/>
<path fill-rule="evenodd" clip-rule="evenodd" d="M142.134 90.1694C142.294 90.1694 142.424 90.3341 142.424 90.5373C142.424 90.7332 142.303 90.8934 142.151 90.9046L142.134 90.9052H122.45C122.29 90.9052 122.16 90.7405 122.16 90.5373C122.16 90.3414 122.281 90.1812 122.433 90.1701L122.45 90.1694H142.134Z" fill="white"/>
<path fill-rule="evenodd" clip-rule="evenodd" d="M125.206 76.9746C125.366 76.9746 125.496 77.1393 125.496 77.3425C125.496 77.5384 125.375 77.6986 125.223 77.7098L125.206 77.7104H115.035C114.875 77.7104 114.745 77.5457 114.745 77.3425C114.745 77.1466 114.866 76.9864 115.018 76.9752L115.035 76.9746H125.206Z" fill="white"/>
<path fill-rule="evenodd" clip-rule="evenodd" d="M115.422 72.0939C115.582 72.0939 115.712 72.2586 115.712 72.4618C115.712 72.6577 115.591 72.8178 115.439 72.829L115.422 72.8297H109.254C109.094 72.8297 108.964 72.6649 108.964 72.4618C108.964 72.2658 109.085 72.1057 109.237 72.0945L109.254 72.0939H115.422Z" fill="white"/>
<path fill-rule="evenodd" clip-rule="evenodd" d="M121.281 86.4415C121.441 86.4415 121.571 86.6062 121.571 86.8094C121.571 87.0053 121.45 87.1655 121.298 87.1767L121.281 87.1773H109.215C109.055 87.1773 108.925 87.0126 108.925 86.8094C108.925 86.6135 109.046 86.4533 109.198 86.4422L109.215 86.4415H121.281Z" fill="white"/>
<path fill-rule="evenodd" clip-rule="evenodd" d="M109.167 72.5107C106.576 73.8106 109.244 75.9689 109.244 75.9689C109.244 75.9689 109.911 73.5163 113.334 72.5107C112.889 72.5107 109.167 72.5107 109.167 72.5107Z" fill="#6A6AF4"/>
<path fill-rule="evenodd" clip-rule="evenodd" d="M113.334 72.1429H109.167C109.13 72.1429 109.094 72.1517 109.06 72.1687C108.293 72.5539 107.863 73.0619 107.765 73.6884C107.662 74.3518 107.938 74.9958 108.437 75.6138C108.579 75.7894 108.73 75.9505 108.881 76.0943L108.925 76.1357C108.996 76.2013 109.052 76.2497 109.088 76.2792C109.241 76.4031 109.444 76.3195 109.512 76.1097L109.523 76.0743C109.53 76.0527 109.542 76.0155 109.562 75.9645C109.607 75.8475 109.668 75.7151 109.746 75.5708C109.974 75.1498 110.295 74.7252 110.726 74.3258C111.403 73.6988 112.284 73.1967 113.399 72.8692C113.735 72.7705 113.679 72.1429 113.334 72.1429ZM111.547 72.8786L111.529 72.889C111.102 73.1371 110.721 73.4195 110.384 73.7316C109.899 74.181 109.532 74.666 109.268 75.1544L109.237 75.2121C109.207 75.2693 109.179 75.3252 109.154 75.3797L109.137 75.4152L109.116 75.3942C109.022 75.2983 108.93 75.1954 108.842 75.0871C108.47 74.6263 108.28 74.1823 108.334 73.8306L108.338 73.8084C108.397 73.4911 108.66 73.1775 109.197 72.8925L109.223 72.8786H111.547Z" fill="white"/>
<path fill-rule="evenodd" clip-rule="evenodd" d="M144.039 80.077C146.63 81.3769 143.962 83.5352 143.962 83.5352C143.962 83.5352 143.294 81.0826 139.872 80.077C140.326 80.0893 144.039 80.077 144.039 80.077Z" fill="#6A6AF4"/>
<path fill-rule="evenodd" clip-rule="evenodd" d="M144.038 79.7092L142.067 79.7139L140.146 79.7126C140.018 79.7117 139.928 79.7107 139.878 79.7093C139.529 79.6999 139.467 80.3357 139.806 80.4355C140.921 80.7631 141.802 81.2651 142.479 81.8921C142.91 82.2916 143.231 82.7161 143.459 83.1372C143.537 83.2814 143.598 83.4138 143.643 83.5308L143.659 83.5711C143.672 83.6079 143.681 83.6342 143.685 83.6489L143.687 83.6553C143.748 83.8802 143.959 83.9734 144.117 83.8455L144.155 83.8139C144.198 83.7773 144.256 83.7257 144.324 83.6606C144.475 83.5168 144.626 83.3558 144.768 83.1801C145.268 82.5621 145.543 81.9181 145.44 81.2547C145.343 80.6282 144.913 80.1202 144.145 79.735C144.111 79.7179 144.075 79.7091 144.038 79.7092ZM143.983 80.4451L144.009 80.4588C144.558 80.7505 144.821 81.072 144.871 81.3969C144.926 81.7486 144.736 82.1926 144.363 82.6534L144.31 82.7177C144.239 82.8026 144.165 82.8838 144.089 82.9605L144.068 82.9815L144.052 82.946C144.017 82.8733 143.979 82.7981 143.938 82.7207C143.673 82.2323 143.306 81.7473 142.821 81.2979L142.77 81.2513C142.468 80.9772 142.131 80.7267 141.757 80.5028L141.668 80.4502L143.983 80.4451Z" fill="white"/>
<path fill-rule="evenodd" clip-rule="evenodd" d="M118.332 86.834C118.332 86.834 112.318 88.2688 112.463 92.7693C112.463 92.7693 107.639 90.5251 109.263 86.834H118.332Z" fill="#6A6AF4"/>
<path fill-rule="evenodd" clip-rule="evenodd" d="M118.332 86.4661H109.263C109.158 86.4661 109.061 86.5382 109.01 86.6547C108.531 87.7442 108.527 88.8078 108.931 89.7966C109.251 90.5798 109.808 91.2794 110.534 91.9032C110.934 92.2472 111.361 92.5469 111.788 92.8017C111.919 92.8797 112.041 92.9486 112.154 93.0084L112.201 93.0334C112.277 93.073 112.333 93.1002 112.364 93.1146C112.558 93.2049 112.762 93.0161 112.753 92.7542C112.695 90.9476 113.727 89.5098 115.522 88.4126C116.148 88.0301 116.821 87.7191 117.494 87.4749C117.704 87.3989 117.9 87.3343 118.078 87.2808L118.21 87.2424C118.231 87.2364 118.251 87.2309 118.27 87.2256L118.385 87.1955C118.732 87.1129 118.684 86.4661 118.332 86.4661ZM116.289 87.2018L116.225 87.2324C115.9 87.3882 115.58 87.5604 115.27 87.7498L115.211 87.7862C113.461 88.8724 112.345 90.3097 112.189 92.1528L112.184 92.2229L112.138 92.1966C112.104 92.1771 112.07 92.1568 112.035 92.1359C111.633 91.8964 111.232 91.6147 110.859 91.2941L110.815 91.2563C109.452 90.0673 108.878 88.7378 109.421 87.2496L109.439 87.2018H116.289Z" fill="white"/>
<path fill-rule="evenodd" clip-rule="evenodd" d="M163.413 96.068C163.627 96.068 163.8 96.2876 163.8 96.5585C163.8 96.8212 163.637 97.0357 163.432 97.0484L163.413 97.049H0.509761C0.296185 97.049 0.123047 96.8294 0.123047 96.5585C0.123047 96.2958 0.28585 96.0814 0.49046 96.0686L0.509761 96.068H163.413Z" fill="#000091"/>
</svg>
