<svg width="138" height="56" viewBox="0 0 138 56" fill="none" xmlns="http://www.w3.org/2000/svg">
<path d="M64.3145 38.9395H107.191V48.9022H64.3145V38.9395Z" fill="#E94A4F"/>
<path d="M70.7973 42.4559C70.7973 43.2373 70.2838 44.0838 69.0001 44.0838H68.615V45.9722H67.9731V40.6978H69.0643C70.0913 40.6978 70.7973 41.3489 70.7973 42.3908V42.4559ZM70.0913 42.4559C70.0913 41.8047 69.7062 41.414 69.0001 41.414H68.615V43.4978H69.0001C69.7704 43.4978 70.0913 43.0419 70.0913 42.4559Z" fill="#373F41"/>
<path d="M70.7973 42.4559C70.7973 43.2373 70.2838 44.0838 69.0001 44.0838H68.615V45.9722H67.9731V40.6978H69.0643C70.0913 40.6978 70.7973 41.3489 70.7973 42.3908V42.4559ZM70.0913 42.4559C70.0913 41.8047 69.7062 41.414 69.0001 41.414H68.615V43.4978H69.0001C69.7704 43.4978 70.0913 43.0419 70.0913 42.4559Z" fill="#373F41"/>
<path d="M74.1991 41.8044H73.5573L73.0438 41.1533L72.5945 41.8044H71.9526L72.787 40.6323H73.3647L74.1991 41.8044ZM72.9796 42.1951C73.4931 42.1951 73.8782 42.3253 74.1991 42.6509C74.52 43.0416 74.7126 43.4974 74.7126 44.0835C74.7126 44.7347 74.52 45.1905 74.1991 45.5812C73.8782 45.8416 73.4931 46.037 72.9154 46.037C72.4661 46.037 72.081 45.9067 71.7601 45.5812C71.4391 45.2556 71.2466 44.7347 71.2466 44.0835C71.2466 43.4974 71.4391 43.0416 71.7601 42.6509C72.081 42.3253 72.4661 42.1951 72.9796 42.1951ZM72.9796 42.716C72.3377 42.716 71.9526 43.3021 71.9526 44.0835C71.9526 44.93 72.3377 45.4509 72.9796 45.4509C73.6214 45.4509 74.0066 44.93 74.0066 44.1486C74.0707 43.3021 73.6214 42.6509 72.9796 42.6509V42.716Z" fill="#373F41"/>
<path d="M74.1991 41.8044H73.5573L73.0438 41.1533L72.5945 41.8044H71.9526L72.787 40.6323H73.3647L74.1991 41.8044ZM72.9796 42.1951C73.4931 42.1951 73.8782 42.3253 74.1991 42.6509C74.52 43.0416 74.7126 43.4974 74.7126 44.0835C74.7126 44.7347 74.52 45.1905 74.1991 45.5812C73.8782 45.8416 73.4931 46.037 72.9154 46.037C72.4661 46.037 72.081 45.9067 71.7601 45.5812C71.4391 45.2556 71.2466 44.7347 71.2466 44.0835C71.2466 43.4974 71.4391 43.0416 71.7601 42.6509C72.081 42.3253 72.4661 42.1951 72.9796 42.1951ZM72.9796 42.716C72.3377 42.716 71.9526 43.3021 71.9526 44.0835C71.9526 44.93 72.3377 45.4509 72.9796 45.4509C73.6214 45.4509 74.0066 44.93 74.0066 44.1486C74.0707 43.3021 73.6214 42.6509 72.9796 42.6509V42.716Z" fill="#373F41"/>
<path d="M76.8308 45.9068L76.3173 46.037C75.8038 46.037 75.6754 45.7114 75.6754 45.3207V40.437H76.3173V44.9952C76.3173 45.3207 76.3815 45.3859 76.574 45.3859H76.8308V45.9068Z" fill="#373F41"/>
<path d="M76.8308 45.9068L76.3173 46.037C75.8038 46.037 75.6754 45.7114 75.6754 45.3207V40.437H76.3173V44.9952C76.3173 45.3207 76.3815 45.3859 76.574 45.3859H76.8308V45.9068Z" fill="#373F41"/>
<path d="M80.361 44.2792H77.9861C77.9861 44.9304 78.4354 45.4513 79.1414 45.4513C79.4624 45.4513 79.7833 45.3211 80.04 45.1908L80.2326 45.6467C79.9117 45.9071 79.4624 46.0374 79.0131 46.0374C77.8577 46.0374 77.28 45.0606 77.28 44.0839C77.28 42.9769 77.9219 42.1304 78.8205 42.1304C79.7833 42.1304 80.361 42.9118 80.361 44.0839V44.2792ZM79.6549 43.6932C79.6549 43.2373 79.334 42.7164 78.8205 42.7164C78.307 42.7164 77.9861 43.1722 77.9861 43.6932H79.6549Z" fill="#373F41"/>
<path d="M80.361 44.2792H77.9861C77.9861 44.9304 78.4354 45.4513 79.1414 45.4513C79.4624 45.4513 79.7833 45.3211 80.04 45.1908L80.2326 45.6467C79.9117 45.9071 79.4624 46.0374 79.0131 46.0374C77.8577 46.0374 77.28 45.0606 77.28 44.0839C77.28 42.9769 77.9219 42.1304 78.8205 42.1304C79.7833 42.1304 80.361 42.9118 80.361 44.0839V44.2792ZM79.6549 43.6932C79.6549 43.2373 79.334 42.7164 78.8205 42.7164C78.307 42.7164 77.9861 43.1722 77.9861 43.6932H79.6549Z" fill="#373F41"/>
<path d="M85.9452 44.2792H83.6345C83.6345 44.9304 84.0196 45.4513 84.7257 45.4513C85.0466 45.4513 85.3675 45.3211 85.6243 45.1908L85.8168 45.6467C85.4959 45.9071 85.0466 46.0374 84.5973 46.0374C83.4419 46.0374 82.8643 45.0606 82.8643 44.0839C82.8643 42.9769 83.5061 42.1304 84.4047 42.1304C85.3675 42.1304 85.9452 42.9118 85.9452 44.0839V44.2792ZM85.175 43.6932C85.175 43.2373 84.9182 42.7164 84.3405 42.7164C83.827 42.7164 83.5061 43.1722 83.5061 43.6932H85.175Z" fill="#373F41"/>
<path d="M85.9452 44.2792H83.6345C83.6345 44.9304 84.0196 45.4513 84.7257 45.4513C85.0466 45.4513 85.3675 45.3211 85.6243 45.1908L85.8168 45.6467C85.4959 45.9071 85.0466 46.0374 84.5973 46.0374C83.4419 46.0374 82.8643 45.0606 82.8643 44.0839C82.8643 42.9769 83.5061 42.1304 84.4047 42.1304C85.3675 42.1304 85.9452 42.9118 85.9452 44.0839V44.2792ZM85.175 43.6932C85.175 43.2373 84.9182 42.7164 84.3405 42.7164C83.827 42.7164 83.5061 43.1722 83.5061 43.6932H85.175Z" fill="#373F41"/>
<path d="M92.107 45.9069H91.4651V43.6279C91.4651 43.1721 91.3368 42.8465 90.8233 42.8465C90.4382 42.8465 90.0531 43.1069 89.7963 43.3674V45.9069H89.1544V43.6279C89.1544 43.1069 89.0261 42.7814 88.5126 42.7814C88.1275 42.7814 87.7424 43.0418 87.4856 43.3023V45.9069H86.8438V42.3255H87.3572L87.4214 42.7814C87.9349 42.3907 88.32 42.2604 88.7051 42.2604C89.1544 42.2604 89.5396 42.4558 89.6679 42.8465C90.0531 42.4558 90.5665 42.1953 90.9517 42.1953C91.5935 42.1953 92.107 42.5209 92.107 43.4325V46.0372V45.9069Z" fill="#373F41"/>
<path d="M92.107 45.9069H91.4651V43.6279C91.4651 43.1721 91.3368 42.8465 90.8233 42.8465C90.4382 42.8465 90.0531 43.1069 89.7963 43.3674V45.9069H89.1544V43.6279C89.1544 43.1069 89.0261 42.7814 88.5126 42.7814C88.1275 42.7814 87.7424 43.0418 87.4856 43.3023V45.9069H86.8438V42.3255H87.3572L87.4214 42.7814C87.9349 42.3907 88.32 42.2604 88.7051 42.2604C89.1544 42.2604 89.5396 42.4558 89.6679 42.8465C90.0531 42.4558 90.5665 42.1953 90.9517 42.1953C91.5935 42.1953 92.107 42.5209 92.107 43.4325V46.0372V45.9069Z" fill="#373F41"/>
<path d="M96.2789 44.0839C96.2789 45.3211 95.3803 46.0373 94.4175 46.0373C94.1608 46.0373 94.0324 46.0373 93.8399 45.9071V47.8606H93.198V42.3257C93.4547 42.2606 93.8399 42.1304 94.4817 42.1304C95.5729 42.1304 96.2789 42.7815 96.2789 44.0187V44.0839ZM95.6371 44.0839C95.6371 43.1722 94.9952 42.7815 94.3534 42.7815L93.8399 42.8466V45.3211L94.4175 45.4513C95.1236 45.4513 95.5729 44.9304 95.5729 44.0839H95.6371Z" fill="#373F41"/>
<path d="M96.2789 44.0839C96.2789 45.3211 95.3803 46.0373 94.4175 46.0373C94.1608 46.0373 94.0324 46.0373 93.8399 45.9071V47.8606H93.198V42.3257C93.4547 42.2606 93.8399 42.1304 94.4817 42.1304C95.5729 42.1304 96.2789 42.7815 96.2789 44.0187V44.0839ZM95.6371 44.0839C95.6371 43.1722 94.9952 42.7815 94.3534 42.7815L93.8399 42.8466V45.3211L94.4175 45.4513C95.1236 45.4513 95.5729 44.9304 95.5729 44.0839H95.6371Z" fill="#373F41"/>
<path d="M98.3971 45.9068L97.8195 46.037C97.3702 46.037 97.1776 45.7114 97.1776 45.3207V40.437H97.8195V44.9952C97.8195 45.3207 97.8837 45.3859 98.0762 45.3859H98.333L98.3971 45.9068Z" fill="#373F41"/>
<path d="M98.3971 45.9068L97.8195 46.037C97.3702 46.037 97.1776 45.7114 97.1776 45.3207V40.437H97.8195V44.9952C97.8195 45.3207 97.8837 45.3859 98.0762 45.3859H98.333L98.3971 45.9068Z" fill="#373F41"/>
<path d="M100.579 42.1953C101.029 42.1953 101.478 42.3255 101.735 42.6511C102.056 43.0418 102.248 43.4976 102.248 44.0837C102.248 44.7349 102.056 45.1907 101.735 45.5814C101.414 45.8418 101.029 46.0372 100.515 46.0372C100.066 46.0372 99.6167 45.9069 99.3599 45.5814C98.9748 45.2558 98.8464 44.7349 98.8464 44.0837C98.8464 43.4976 98.9748 43.0418 99.3599 42.6511C99.6167 42.3255 100.002 42.1953 100.515 42.1953H100.579ZM100.579 42.7162C99.8734 42.7162 99.4883 43.3023 99.4883 44.0837C99.4883 44.9302 99.8734 45.4511 100.515 45.4511C101.157 45.4511 101.542 44.9302 101.542 44.1488C101.542 43.3023 101.221 42.6511 100.579 42.6511V42.7162Z" fill="#373F41"/>
<path d="M100.579 42.1953C101.029 42.1953 101.478 42.3255 101.735 42.6511C102.056 43.0418 102.248 43.4976 102.248 44.0837C102.248 44.7349 102.056 45.1907 101.735 45.5814C101.414 45.8418 101.029 46.0372 100.515 46.0372C100.066 46.0372 99.6167 45.9069 99.3599 45.5814C98.9748 45.2558 98.8464 44.7349 98.8464 44.0837C98.8464 43.4976 98.9748 43.0418 99.3599 42.6511C99.6167 42.3255 100.002 42.1953 100.515 42.1953H100.579ZM100.579 42.7162C99.8734 42.7162 99.4883 43.3023 99.4883 44.0837C99.4883 44.9302 99.8734 45.4511 100.515 45.4511C101.157 45.4511 101.542 44.9302 101.542 44.1488C101.542 43.3023 101.221 42.6511 100.579 42.6511V42.7162Z" fill="#373F41"/>
<path d="M103.468 40.6974C103.725 40.6974 103.917 40.8277 103.917 41.0881C103.917 41.3486 103.725 41.544 103.468 41.544C103.349 41.544 103.235 41.4959 103.15 41.4104C103.066 41.325 103.019 41.209 103.019 41.0881C103.019 40.9672 103.066 40.8513 103.15 40.7658C103.235 40.6803 103.349 40.6323 103.468 40.6323V40.6974ZM103.853 45.9067H103.147V42.3253H103.789V46.037L103.853 45.9067Z" fill="#373F41"/>
<path d="M103.468 40.6974C103.725 40.6974 103.917 40.8277 103.917 41.0881C103.917 41.3486 103.725 41.544 103.468 41.544C103.349 41.544 103.235 41.4959 103.15 41.4104C103.066 41.325 103.019 41.209 103.019 41.0881C103.019 40.9672 103.066 40.8513 103.15 40.7658C103.235 40.6803 103.349 40.6323 103.468 40.6323V40.6974ZM103.853 45.9067H103.147V42.3253H103.789V46.037L103.853 45.9067Z" fill="#373F41"/>
<path d="M54.5581 27.6744C54.5581 31.3087 53.8525 34.9073 52.4816 38.265C51.1107 41.6226 49.1014 44.6734 46.5683 47.2432C44.0352 49.813 41.028 51.8515 37.7183 53.2422C34.4087 54.633 30.8614 55.3488 27.2791 55.3488C23.6967 55.3488 20.1495 54.633 16.8398 53.2422C13.5302 51.8515 10.523 49.813 7.98985 47.2432C5.45676 44.6734 3.4474 41.6226 2.0765 38.265C0.705594 34.9073 -5.3381e-08 31.3087 0 27.6744C1.07808e-07 20.3347 2.87404 13.2956 7.98985 8.10565C13.1057 2.91569 20.0442 0 27.2791 0C34.5139 0 41.4525 2.91569 46.5683 8.10565C51.6841 13.2956 54.5581 20.3347 54.5581 27.6744Z" fill="#373F41"/>
<path d="M64.1221 19.2745V8.07454H66.1118V17.5164H70.0272V19.2745H64.1221ZM76.1249 19.2745L75.8039 18.5583C75.2904 19.0141 74.5844 19.4699 73.4932 19.4699C72.017 19.4699 70.9258 18.4931 70.9258 16.8652C70.9258 15.2373 72.2095 14.3257 74.1993 14.2606L75.6114 14.1955V14.0001C75.6114 13.0234 74.9695 12.6327 74.1351 12.6327C73.2365 12.6327 72.5946 12.8931 72.0811 13.2187L71.4393 11.9164C72.3439 11.2864 73.4236 10.9669 74.5202 11.0048C76.4458 11.0048 77.6653 11.7862 77.6653 13.935V17.1257C77.6653 18.2978 77.7295 18.8838 77.7937 19.2094H76.1249V19.2745ZM75.6114 15.5629L74.456 15.628C73.3649 15.6931 72.9156 16.0187 72.9156 16.735C72.9156 17.3862 73.3649 17.842 74.1993 17.842C74.4571 17.8556 74.7149 17.8165 74.9575 17.727C75.2001 17.6375 75.4224 17.4995 75.6114 17.3211V15.5629ZM86.1379 19.4048C85.0467 19.4048 84.2123 19.2094 83.5063 18.8187V7.22803H85.496V11.2652C85.9453 11.135 86.4588 11.0048 87.0365 11.0048C88.9621 11.0048 90.8235 12.3071 90.8235 14.9118C90.8235 17.7769 88.6411 19.4048 86.1379 19.4048ZM86.6514 12.7629C86.1379 12.7629 85.817 12.8931 85.5602 13.0234V17.5815C85.8811 17.7118 86.1379 17.7118 86.523 17.7118C87.8709 17.7118 88.8337 16.5397 88.8337 15.042C88.8337 13.8699 87.9993 12.7629 86.6514 12.7629ZM98.7184 18.2327C98.3489 18.6099 97.9086 18.908 97.4234 19.1093C96.9383 19.3107 96.4183 19.4111 95.8942 19.4048C94.803 19.4048 93.8402 19.0792 93.1983 18.428C92.7923 18.0215 92.4741 17.5337 92.2642 16.9955C92.0542 16.4574 91.957 15.8808 91.9788 15.3024C91.9788 14.0652 92.4281 12.9583 93.1342 12.1769C93.5068 11.8084 93.9491 11.5203 94.4345 11.33C94.9199 11.1398 95.4383 11.0513 95.9584 11.0699C97.1779 11.0699 98.1407 11.4606 98.8467 12.242C99.5588 13.0677 99.927 14.1416 99.8737 15.2373C99.8737 16.4094 99.4244 17.5164 98.7184 18.2327ZM95.83 12.6327C94.5463 12.6327 93.9686 13.7397 93.9686 15.2373C93.9686 16.8001 94.6746 17.842 95.8942 17.842C97.1779 17.842 97.7556 16.735 97.7556 15.2373C97.7556 13.6745 97.0495 12.6327 95.83 12.6327ZM106.485 19.2745V14.5862C106.485 13.7397 106.356 12.828 105.33 12.828C104.623 12.828 103.917 13.2187 103.34 13.6745V19.2745H101.35V11.2652H103.083L103.276 12.1118C104.054 11.4598 105.026 11.0928 106.036 11.0699C107.255 11.0699 108.539 11.7862 108.539 13.935V19.2745H106.485ZM115.535 19.2745V14.5862C115.535 13.7397 115.407 12.828 114.38 12.828C113.674 12.828 112.968 13.2187 112.39 13.6745V19.2745H110.4V11.2652H112.133L112.326 12.1118C113.104 11.4598 114.077 11.0928 115.086 11.0699C116.305 11.0699 117.589 11.7862 117.589 13.935V19.2745H115.535ZM121.055 15.7583C121.119 16.9304 122.082 17.7769 123.302 17.7769C124.072 17.7769 124.65 17.5815 125.356 17.1908L125.869 18.4931C124.97 19.1443 123.943 19.4048 122.981 19.4048C120.221 19.4048 119.065 17.3862 119.065 15.2373C119.065 12.9583 120.413 11.0699 122.66 11.0699C124.778 11.0699 126.19 12.6978 126.19 15.1722V15.7583H121.055ZM122.596 12.5676C121.633 12.5676 121.055 13.4792 121.055 14.3257H124.136C124.072 13.4792 123.558 12.5676 122.596 12.5676Z" fill="#373F41"/>
<path d="M68.7433 34.2511L68.4223 33.5348C67.9088 33.9906 67.2028 34.4465 66.1116 34.4465C64.6354 34.4465 63.5442 33.4697 63.5442 31.8418C63.5442 30.2139 64.8279 29.3023 66.8177 29.2372L68.2298 29.172V28.9767C68.2298 27.9999 67.5879 27.6092 66.7535 27.6092C65.8549 27.6092 65.213 27.8697 64.6995 28.1953L64.0577 26.893C64.9623 26.2629 66.042 25.9435 67.1386 25.9813C69.0642 25.9813 70.2837 26.7627 70.2837 28.9116V32.1023C70.2837 33.2744 70.3479 33.8604 70.4121 34.186H68.7433V34.2511ZM68.294 30.5395L67.1386 30.6046C66.0474 30.6697 65.5981 30.9953 65.5981 31.7116C65.5981 32.3627 66.0474 32.8185 66.8819 32.8185C67.1396 32.8322 67.3975 32.7931 67.6401 32.7036C67.8826 32.6141 68.105 32.476 68.294 32.2976V30.5395ZM73.9423 34.3813C72.5944 34.3813 72.1451 33.5999 72.1451 32.6232V22.2046H74.1349V31.7116C74.1349 32.2976 74.2633 32.5581 74.6484 32.5581L75.226 32.493L75.4828 33.9906C74.9051 34.3162 74.3916 34.3813 73.9423 34.3813ZM78.9488 34.3813C77.5367 34.3813 77.0233 33.5999 77.0233 32.493V27.7395H75.6112V26.2418H77.0233V24.4185L79.013 23.8325V26.3069H81.4521L80.8744 27.8046H79.013V31.8418C79.013 32.493 79.2698 32.7534 79.7833 32.7534C80.2967 32.7534 80.8102 32.493 81.1312 32.2976L81.6447 33.5999C80.8102 34.1209 79.7191 34.3813 78.9488 34.3813ZM84.2121 30.7348C84.2763 31.9069 85.2391 32.7534 86.4586 32.7534C87.2288 32.7534 87.8065 32.5581 88.5126 32.1674L89.026 33.4697C88.1274 34.1209 87.1005 34.3813 86.1377 34.3813C83.3777 34.3813 82.2223 32.3627 82.2223 30.2139C82.2223 27.9348 83.5702 26.0465 85.8167 26.0465C87.9349 26.0465 89.347 27.6744 89.347 30.1488V30.7348H84.2121ZM85.6884 27.5441C84.7256 27.5441 84.1479 28.4558 84.1479 29.3023H87.2288C87.1646 28.4558 86.7154 27.5441 85.6884 27.5441ZM95.2521 28.1302C94.9592 27.9592 94.6272 27.8693 94.2893 27.8697C93.84 27.8697 93.3265 28.0651 92.7488 28.586V34.2511H90.7591V26.2418H92.4279L92.6205 27.0883C93.4549 26.372 94.0326 26.0465 94.8028 26.0465C95.1879 26.0465 95.573 26.1767 95.894 26.372L95.2521 28.1302ZM102.12 34.2511V29.5627C102.12 28.7162 101.992 27.8046 100.965 27.8046C100.259 27.8046 99.5526 28.1953 98.9749 28.6511V34.2511H96.9851V26.2418H98.7181L98.9107 27.0883C99.6892 26.4363 100.661 26.0693 101.671 26.0465C102.89 26.0465 104.174 26.7627 104.174 28.9116V34.2511H102.12ZM110.785 34.2511L110.464 33.5348C109.951 33.9906 109.245 34.4465 108.153 34.4465C106.677 34.4465 105.586 33.4697 105.586 31.8418C105.586 30.2139 106.87 29.3023 108.86 29.2372L110.272 29.172V28.9767C110.272 27.9999 109.63 27.6092 108.795 27.6092C107.897 27.6092 107.255 27.8697 106.741 28.1953L106.1 26.893C107.004 26.2629 108.084 25.9435 109.18 25.9813C111.106 25.9813 112.326 26.7627 112.326 28.9116V32.1023C112.326 33.2744 112.39 33.8604 112.454 34.186H110.785V34.2511ZM110.272 30.5395L109.116 30.6046C108.025 30.6697 107.576 30.9953 107.576 31.7116C107.576 32.3627 108.025 32.8185 108.86 32.8185C109.117 32.8322 109.375 32.7931 109.618 32.7036C109.86 32.6141 110.083 32.476 110.272 32.2976V30.5395ZM119.386 34.2511V29.5627C119.386 28.7162 119.258 27.8046 118.231 27.8046C117.525 27.8046 116.819 28.1953 116.241 28.6511V34.2511H114.251V26.2418H115.984L116.177 27.0883C116.955 26.4363 117.927 26.0693 118.937 26.0465C120.156 26.0465 121.44 26.7627 121.44 28.9116V34.2511H119.386ZM126.703 34.3813C124.136 34.3813 122.788 32.493 122.788 30.279C122.788 27.8697 124.521 26.0465 126.896 26.0465C127.987 26.0465 128.693 26.3069 129.142 26.6325L129.078 28.2604C128.5 27.8697 127.923 27.6092 127.088 27.6092C125.74 27.6092 124.778 28.7162 124.778 30.2139C124.778 31.5813 125.484 32.8185 127.088 32.8185C127.859 32.8185 128.436 32.5581 128.95 32.2325L129.463 33.5999C128.886 33.9906 127.794 34.3813 126.703 34.3813ZM132.287 30.7348C132.352 31.9069 133.314 32.7534 134.534 32.7534C135.304 32.7534 135.882 32.5581 136.588 32.1674L137.101 33.4697C136.203 34.1209 135.176 34.3813 134.213 34.3813C131.453 34.3813 130.298 32.3627 130.298 30.2139C130.298 27.9348 131.646 26.0465 133.892 26.0465C136.01 26.0465 137.422 27.6744 137.422 30.1488V30.7348H132.287ZM133.764 27.5441C132.801 27.5441 132.223 28.4558 132.223 29.3023H135.304C135.24 28.4558 134.791 27.5441 133.764 27.5441Z" fill="#373F41"/>
<path d="M41.9776 20.3163C41.9776 9.63727 32.9915 5.86053 27.0864 5.79541H27.0222H26.958C20.9887 5.86053 12.0027 9.63727 12.0027 20.3163L12.0669 21.2931C12.9013 31.3861 25.5459 44.6047 26.1878 45.321L26.8938 46.1024V46.1675L26.958 46.2326V46.1675L27.6641 45.3861C28.3701 44.6698 41.0148 31.4512 41.785 21.3582C41.9049 21.0239 41.9699 20.672 41.9776 20.3163ZM26.958 25.7861C26.4445 25.7861 25.9311 25.721 25.4176 25.5256C24.3717 25.176 23.4584 24.5061 22.8032 23.6082C22.148 22.7103 21.7832 21.6285 21.759 20.5117C21.7832 19.3948 22.148 18.313 22.8032 17.4152C23.4584 16.5173 24.3717 15.8474 25.4176 15.4977C25.9311 15.3675 26.4445 15.2373 26.958 15.2373C27.6432 15.2285 28.3231 15.359 28.9578 15.6209C29.5925 15.8829 30.169 16.2711 30.6535 16.7626C31.138 17.2542 31.5207 17.8391 31.7789 18.483C32.0371 19.1268 32.1657 19.8166 32.1571 20.5117C32.1657 21.2068 32.0371 21.8965 31.7789 22.5404C31.5207 23.1843 31.138 23.7692 30.6535 24.2607C30.169 24.7523 29.5925 25.1405 28.9578 25.4024C28.3231 25.6644 27.6432 25.7948 26.958 25.7861Z" fill="#E94A4F"/>
</svg>
