<svg width="80" height="32" viewBox="0 0 80 32" fill="none" xmlns="http://www.w3.org/2000/svg">
<path d="M0 28.3393L2.95703 25.6639C4.04831 27.0368 5.35081 28.0225 7.04054 28.0225C8.48385 28.0225 9.22311 27.1776 9.22311 26.1215C9.22311 23.0237 0.739257 24.1854 0.739257 17.9545C0.739257 14.8215 3.37946 12.4629 7.07574 12.4629C9.78635 12.4629 12.2505 13.7654 13.5178 15.4903L10.5608 18.0953C9.64554 16.9688 8.48385 16.0536 7.11094 16.0536C5.70284 16.0536 5.03399 16.828 5.03399 17.7433C5.03399 20.7707 13.5178 19.7146 13.5178 25.8399C13.4474 29.5714 10.4552 31.6132 7.11094 31.6132C3.9427 31.6132 1.68973 30.3459 0 28.3393Z" fill="#000091"/>
<path d="M66.4819 28.3393L69.439 25.6639C70.5302 27.0368 71.8327 28.0225 73.5225 28.0225C74.9658 28.0225 75.705 27.1776 75.705 26.1215C75.705 23.0237 67.2212 24.1854 67.2212 17.9545C67.2212 14.8215 69.8614 12.4629 73.5577 12.4629C76.2683 12.4629 78.7325 13.7654 79.9998 15.4903L77.0427 18.0953C76.1275 16.9688 74.9658 16.0536 73.5929 16.0536C72.1848 16.0536 71.5159 16.828 71.5159 17.7433C71.5159 20.7707 79.9998 19.7146 79.9998 25.8399C79.9294 29.5714 76.9371 31.6132 73.5929 31.6132C70.4246 31.6132 68.1717 30.3459 66.4819 28.3393Z" fill="#000091"/>
<path d="M59.1834 23.235V13.167H63.6894V23.0238C63.6894 28.3394 60.5915 31.6132 55.3815 31.6132C50.1715 31.6132 47.1089 28.3394 47.1089 23.0238V13.167H51.6148V23.235C51.6148 25.8048 52.9525 27.3889 55.4167 27.3889C57.8457 27.3889 59.1834 25.8048 59.1834 23.235Z" fill="#000091"/>
<path d="M39.0728 30.9092V13.167H43.5435V30.9092H39.0728Z" fill="#000091"/>
<path d="M38.4033 7.14741C38.4033 8.73153 39.741 10.0692 41.3251 10.0692C42.9093 10.0692 44.2118 8.73153 44.2118 7.14741C44.2118 5.56329 42.9093 4.22559 41.3251 4.22559C39.741 4.22559 38.4033 5.56329 38.4033 7.14741Z" fill="#F95C5E"/>
<path d="M24.7715 30.9096V13.1675H29.2422V14.9276C30.4039 13.7307 31.9176 12.8154 33.9242 12.8154C34.5226 12.8154 35.0507 12.921 35.4731 13.0618V17.4622C34.9099 17.3214 34.3114 17.2158 33.5018 17.2158C31.3192 17.2158 29.9111 18.4127 29.2422 19.5391V30.9096H24.7715Z" fill="#000091"/>
<path d="M16.8164 30.9092V13.167H21.2871V30.9092H16.8164Z" fill="#000091"/>
<path d="M16.1484 7.14741C16.1484 8.73153 17.4861 10.0692 19.0703 10.0692C20.6544 10.0692 21.9569 8.73153 21.9569 7.14741C21.9569 5.56329 20.6544 4.22559 19.0703 4.22559C17.4861 4.22559 16.1484 5.56329 16.1484 7.14741Z" fill="#F95C5E"/>
<path d="M36.1156 6.35856C36.373 4.68849 37.4331 3.26078 38.8814 2.48998C33.4932 -0.336401 27.0002 -0.313533 21.6299 2.55858C23.0464 3.36876 24.0473 4.8231 24.2598 6.48543C27.983 4.65602 32.3621 4.61372 36.1156 6.35856Z" fill="#000091"/>
</svg>