<svg width="200" height="69" viewBox="0 0 200 69" fill="none" xmlns="http://www.w3.org/2000/svg">
    <path d="M158.605 48.1658C158.605 59.455 168.138 68.9882 179.427 68.9882C190.717 68.9882 199.999 59.455 199.999 48.1658C199.999 36.8764 190.717 27.3433 179.427 27.3433C168.138 27.3433 158.605 36.8764 158.605 48.1658Z" fill="#F95C5E"/>
    <path d="M0.0012207 48.1658C0.0012207 59.455 9.5344 68.9882 20.8237 68.9882C32.113 68.9882 41.3953 59.455 41.3953 48.1658C41.3953 36.8764 32.113 27.3433 20.8237 27.3433C9.5344 27.3433 0.0012207 36.8764 0.0012207 48.1658Z" fill="#000091"/>
    <path d="M142.306 42.5546C144.141 30.6528 151.696 20.4782 162.017 14.985C123.618 -5.15731 77.3453 -4.99434 39.0735 15.4739C49.1685 21.2476 56.3014 31.6121 57.8154 43.4588C84.3489 30.4213 115.557 30.1199 142.306 42.5546Z" fill="url(#paint0_linear_6756_2326)"/>
    <defs>
        <linearGradient id="paint0_linear_6756_2326" x1="39.0012" y1="42.9995" x2="162.001" y2="42.9995" gradientUnits="userSpaceOnUse">
            <stop stop-color="#000091"/>
            <stop offset="1" stop-color="#F95C5E"/>
        </linearGradient>
    </defs>
</svg>
