
<svg width="172" height="76" viewBox="0 0 172 76" fill="none" xmlns="http://www.w3.org/2000/svg">
<path fill-rule="evenodd" clip-rule="evenodd" d="M128.73 22.2769C137.46 21.4123 145.006 28.4414 144.958 37.3935L144.929 43.3538L144.912 47.1409L144.897 51.4223L144.888 54.8299L144.882 57.6517L144.88 59.7578C144.88 59.9316 144.742 60.0724 144.571 60.0722C144.401 60.0721 144.263 59.9311 144.263 59.7573L144.266 57.2572L144.274 53.7839L144.283 50.5395L144.308 44.3126L144.339 37.8987L144.342 37.3901C144.388 28.8109 137.156 22.0748 128.789 22.9033C124.225 23.3555 119.715 24.2408 115.353 25.6297C110.265 27.2501 105.511 29.515 101.185 32.495C101.044 32.5922 100.853 32.5542 100.757 32.4102C100.662 32.2661 100.699 32.0705 100.84 31.9733C105.218 28.9577 110.026 26.6669 115.17 25.0289C119.574 23.6264 124.125 22.7331 128.73 22.2769Z" fill="#F95C5E"/>
<path fill-rule="evenodd" clip-rule="evenodd" d="M86.2528 46.7151C86.3674 46.8437 86.3581 47.0427 86.2321 47.1596C82.7334 50.4061 78.7176 53.0679 73.6401 55.2754C73.4835 55.3435 73.3024 55.269 73.2357 55.1092C73.169 54.9493 73.2419 54.7644 73.3985 54.6963C78.0062 52.6931 81.7224 50.3148 84.9711 47.4584L85.1846 47.2694C85.2201 47.2377 85.2555 47.2061 85.2909 47.1743L85.5024 46.9832C85.5376 46.9512 85.5727 46.9192 85.6077 46.8871L85.8173 46.6939C85.9433 46.577 86.1383 46.5865 86.2528 46.7151Z" fill="#F95C5E"/>
<path fill-rule="evenodd" clip-rule="evenodd" d="M68.5036 56.5579C68.6656 56.5043 68.8395 56.5948 68.892 56.7601C68.9446 56.9254 68.8559 57.1029 68.694 57.1566C66.8468 57.7686 64.8935 58.3241 62.8264 58.8219C62.6607 58.8618 62.4947 58.7571 62.4556 58.5879C62.4165 58.4187 62.5191 58.2493 62.6848 58.2094C64.7357 57.7155 66.6727 57.1646 68.5036 56.5579Z" fill="#F95C5E"/>
<path fill-rule="evenodd" clip-rule="evenodd" d="M37.2481 63.0368C37.4085 62.9786 37.5848 63.0641 37.6419 63.2278C37.699 63.3916 37.6152 63.5715 37.4548 63.6298C30.7645 66.0595 26.9097 69.7949 25.1546 74.7686C25.0969 74.9321 24.9202 75.017 24.7601 74.9581C24.5999 74.8992 24.5168 74.7189 24.5745 74.5554C26.394 69.3989 30.3888 65.528 37.2481 63.0368Z" fill="#F95C5E"/>
<path fill-rule="evenodd" clip-rule="evenodd" d="M140.959 60.391C143.836 59.4344 146.743 59.0712 149.413 59.4205C152.458 59.8188 155.113 61.1263 157.215 63.4078C159.559 65.9511 161.169 69.6511 161.941 74.5618C161.968 74.7334 161.854 74.8948 161.686 74.9224C161.517 74.9499 161.359 74.8331 161.332 74.6615C160.578 69.868 159.019 66.2837 156.766 63.839C154.765 61.6676 152.242 60.4251 149.335 60.0448C144.445 59.4052 138.572 61.3358 134.609 64.4028L134.49 64.4961C127.638 69.8918 119.049 70.6557 104.628 67.4503C103.432 67.1796 102.216 67.003 100.993 66.9222C100.823 66.9109 100.694 66.7612 100.705 66.5878C100.716 66.4144 100.863 66.2829 101.033 66.2941C102.288 66.3771 103.534 66.5582 104.761 66.8356C118.878 69.9734 127.266 69.2713 133.912 64.1542L134.113 63.9978C135.965 62.5396 138.396 61.2434 140.959 60.391Z" fill="#000091"/>
<path fill-rule="evenodd" clip-rule="evenodd" d="M94.2294 67.0975C94.3915 67.0442 94.5652 67.1351 94.6174 67.3005C94.6697 67.4659 94.5806 67.6432 94.4186 67.6966C91.4398 68.6767 88.8348 70.5811 86.9668 73.1443C86.8652 73.2838 86.6721 73.3127 86.5354 73.209C86.3988 73.1052 86.3705 72.9081 86.4721 72.7687C88.4167 70.1003 91.1285 68.1178 94.2294 67.0975Z" fill="#000091"/>
<path fill-rule="evenodd" clip-rule="evenodd" d="M118.287 38.6968C116.276 38.872 114.587 39.0388 113.924 39.1059C114.343 38.314 114.718 37.4988 115.048 36.6639C116.203 33.7657 117.514 28.9867 115.168 26.0611C114.12 25.1171 113.323 25.2377 112.559 26.2993C112.262 24.8171 111.662 23.4555 110.594 22.4391C109.487 21.6797 108.723 21.8003 108.128 22.7202C107.891 21.6199 107.496 20.6066 106.888 19.7559C106.535 19.2461 106.037 18.8594 105.461 18.6482C103.252 17.8804 102.583 20.9884 102.07 26.8017C102.025 27.3 101.974 27.7751 101.918 28.2325L99.5653 31.2587L99.4995 56.8846C101.526 57.429 104.002 57.5884 106.417 56.4409C108.061 56.3664 113.04 56.1367 117.783 55.908C117.693 55.8115 117.627 55.7433 117.627 55.7433C120.826 48.5569 119.193 41.53 118.287 38.6968Z" fill="#F95C5E"/>
<path fill-rule="evenodd" clip-rule="evenodd" d="M93.9819 38.4608L93.1597 39.5098C91.3737 37.1192 88.7923 33.9902 86.8449 32.9674C83.5472 31.2377 81.6286 35.4765 83.0159 37.6374C84.4032 39.7982 85.6199 45.3356 85.6199 45.3356C85.6199 45.3356 84.5923 53.5279 91.6481 55.2168C92.9368 55.5251 93.8195 55.3814 94.3559 55.1884L94.1936 38.1954L93.9819 38.4608Z" fill="#F95C5E"/>
<path fill-rule="evenodd" clip-rule="evenodd" d="M126.747 38.1819C125.705 38.1819 124.292 38.249 122.779 38.3476L123.579 38.5018C124.625 41.3025 125.951 49.798 122.842 55.3291L122.627 55.6669C124.58 55.562 126.196 55.478 127.081 55.4193C130.153 55.1665 134.415 41.2238 126.747 38.1819Z" fill="#F95C5E"/>
<path fill-rule="evenodd" clip-rule="evenodd" d="M108.733 21.3246C108.899 21.2859 109.064 21.3919 109.102 21.5614C109.138 21.7248 109.043 21.8875 108.887 21.9336L108.87 21.9382C108.603 22.0003 108.372 22.2303 108.157 22.6698L108.126 22.7341L108.096 22.8011L108.065 22.8711C108.06 22.8831 108.055 22.8951 108.05 22.9072L108.02 22.9816L107.991 23.059C107.986 23.0722 107.981 23.0854 107.976 23.0988L107.946 23.1807C107.942 23.1946 107.937 23.2086 107.932 23.2228L107.903 23.3092L107.873 23.3987L107.844 23.4914C107.84 23.507 107.835 23.5229 107.83 23.5388L107.801 23.6362L107.772 23.7367L107.744 23.8404L107.715 23.9473L107.686 24.0575L107.658 24.1709C107.653 24.1901 107.648 24.2094 107.644 24.2289L107.615 24.3473L107.587 24.4691L107.558 24.5942L107.53 24.7228L107.487 24.922L107.444 25.1291L107.416 25.2715L107.373 25.4917L107.329 25.72L107.256 26.1237L107.183 26.5379L107.114 26.9339L106.797 28.828C106.532 30.4052 106.195 31.8283 105.802 33.1019C105.444 34.2612 105.061 35.2356 104.676 36.0319L104.645 36.096L104.583 36.2196C104.533 36.3201 104.484 36.4145 104.436 36.5027L104.38 36.6057L104.326 36.7028L104.284 36.7764L104.24 36.8498L104.203 36.9108L104.164 36.9728L104.149 36.9956C104.053 37.1387 103.861 37.1748 103.72 37.0762C103.585 36.9813 103.548 36.7961 103.631 36.6547L103.672 36.5913L103.686 36.5685L103.716 36.5179L103.768 36.4298L103.818 36.3418L103.87 36.248C103.887 36.2157 103.905 36.1825 103.923 36.1483L103.978 36.0428C103.988 36.0248 103.997 36.0065 104.007 35.9879L104.064 35.8736C104.083 35.8346 104.103 35.7945 104.123 35.7535C104.494 34.9859 104.866 34.0414 105.214 32.9129C105.585 31.708 105.907 30.3637 106.163 28.876L106.483 26.9686L106.576 26.4271L106.608 26.2429L106.659 25.9536L106.709 25.6813L106.738 25.5261L106.781 25.3008L106.823 25.0842L106.851 24.9445L106.893 24.7419L106.921 24.6113L106.949 24.4842L106.976 24.3605L107.004 24.2402L107.046 24.0658L107.073 23.9534L107.101 23.8442L107.129 23.7379C107.134 23.7205 107.138 23.7031 107.143 23.6859L107.171 23.584C107.176 23.5673 107.18 23.5507 107.185 23.5342L107.213 23.4365L107.242 23.3415L107.271 23.2491L107.3 23.1593L107.329 23.0719C107.334 23.0576 107.339 23.0433 107.343 23.0292L107.373 22.9454L107.403 22.8639C107.413 22.8371 107.423 22.8106 107.434 22.7846L107.449 22.7457C107.773 21.9321 108.177 21.454 108.733 21.3246Z" fill="#000091"/>
<path fill-rule="evenodd" clip-rule="evenodd" d="M112.369 26.2136C112.521 26.291 112.584 26.4798 112.508 26.6355C112.483 26.6872 112.458 26.7393 112.433 26.7918L112.388 26.887L112.329 27.016L112.27 27.1478L112.21 27.2831L112.151 27.4222L112.091 27.5658L112.014 27.7524L111.921 27.988L111.841 28.1954L111.758 28.4139L111.672 28.6446L111.564 28.939L111.451 29.2541L111.291 29.7099L111.117 30.2101L110.88 30.9045L110.751 31.2828C110.571 31.8158 110.383 32.3282 110.189 32.8203C109.527 34.4937 108.817 35.8686 108.106 36.9652C107.871 37.3272 107.651 37.6348 107.451 37.89L107.389 37.9684L107.326 38.0455L107.27 38.1127L107.207 38.1868L107.167 38.2309L107.135 38.2652C107.017 38.3896 106.821 38.392 106.699 38.2707C106.582 38.1542 106.576 37.9659 106.68 37.8409L106.741 37.7737L106.771 37.7387L106.813 37.6894L106.859 37.635C106.866 37.6255 106.874 37.6158 106.882 37.6059L106.932 37.5439C107.13 37.2947 107.352 36.9868 107.591 36.6176C108.28 35.5561 108.971 34.2188 109.617 32.5849C109.786 32.1562 109.951 31.7115 110.109 31.2508L110.469 30.1946L110.693 29.5471L110.837 29.1365L110.973 28.7576L111.065 28.5048L111.153 28.2656L111.272 27.9516L111.354 27.7407L111.417 27.5793L111.48 27.4237L111.542 27.2734L111.604 27.1278L111.665 26.9865L111.726 26.8487L111.786 26.7141L111.847 26.582L111.909 26.452L111.956 26.3554C112.031 26.1997 112.216 26.1363 112.369 26.2136Z" fill="#000091"/>
<path fill-rule="evenodd" clip-rule="evenodd" d="M97.958 41.6225C101.12 41.3226 104.562 41.8418 108.072 43.5396C108.226 43.614 108.292 43.8016 108.219 43.9587C108.146 44.1158 107.962 44.1827 107.808 44.1083C104.404 42.4618 101.072 41.9592 98.0151 42.2492C97.8455 42.2653 97.6953 42.138 97.6796 41.965C97.6638 41.7919 97.7885 41.6386 97.958 41.6225Z" fill="#000091"/>
<path fill-rule="evenodd" clip-rule="evenodd" d="M113.41 45.8523C113.46 45.686 113.632 45.5923 113.795 45.6429C113.958 45.6935 114.05 45.8693 114 46.0356C112.53 50.9654 110.391 54.4333 107.852 56.2876C107.714 56.3887 107.521 56.3562 107.422 56.2148C107.323 56.0735 107.355 55.8769 107.494 55.7758C109.909 54.0111 111.977 50.6597 113.41 45.8523Z" fill="#000091"/>
<path fill-rule="evenodd" clip-rule="evenodd" d="M117.685 37.1015C117.841 37.0305 118.023 37.1016 118.092 37.2603L118.113 37.3085L118.16 37.4236L118.19 37.4986L118.232 37.606C118.239 37.6245 118.246 37.6433 118.253 37.6625L118.298 37.781L118.344 37.907L118.367 37.9727C118.57 38.5416 118.773 39.1937 118.962 39.9197C119.518 42.0506 119.844 44.3669 119.825 46.786C119.802 49.909 119.201 52.9673 117.906 55.8755L117.882 55.9278L117.835 56.0305C117.827 56.0474 117.82 56.0642 117.812 56.0808L117.765 56.1796L117.718 56.2757L117.67 56.3692L117.623 56.4601C117.607 56.49 117.591 56.5194 117.575 56.5484L117.528 56.6341C117.504 56.6763 117.48 56.7175 117.456 56.7577L117.408 56.8369C117.4 56.8499 117.393 56.8628 117.385 56.8755L117.337 56.9508C116.769 57.8263 116.18 58.1569 115.571 57.958C115.001 57.7717 114.56 57.1579 114.195 56.3021C114.127 56.1428 114.198 55.9574 114.354 55.888C114.51 55.8186 114.692 55.8915 114.76 56.0509L114.798 56.1388C114.83 56.2111 114.863 56.2811 114.897 56.3485L114.937 56.4282C114.944 56.4413 114.951 56.4542 114.957 56.4671L114.998 56.5429C115.239 56.9774 115.503 57.275 115.759 57.3585C115.914 57.4092 116.085 57.3776 116.269 57.2473L116.304 57.2217C116.328 57.2038 116.351 57.1844 116.375 57.1634L116.411 57.1307C116.453 57.0912 116.495 57.0467 116.539 56.9971L116.576 56.9534L116.614 56.9071L116.652 56.8583C116.658 56.85 116.664 56.8415 116.671 56.8329L116.709 56.7803C116.722 56.7623 116.735 56.7438 116.748 56.725L116.787 56.6671C116.8 56.6473 116.813 56.6271 116.826 56.6065L116.866 56.5432L116.906 56.4773L116.946 56.4086L116.987 56.3371C116.994 56.325 117 56.3127 117.007 56.3004L117.048 56.2247C117.055 56.2119 117.062 56.1989 117.069 56.1859L117.111 56.106L117.152 56.0233L117.195 55.9377C117.202 55.9232 117.209 55.9086 117.216 55.8938L117.258 55.8039L117.301 55.711C117.315 55.6796 117.33 55.6476 117.344 55.6152C118.602 52.7913 119.186 49.8197 119.209 46.7812C119.227 44.4221 118.908 42.161 118.366 40.0814C118.182 39.3742 117.985 38.7399 117.788 38.1882L117.743 38.0636L117.7 37.9462L117.658 37.8363C117.651 37.8185 117.644 37.8011 117.638 37.7841L117.599 37.6853L117.566 37.6037L117.53 37.5172C117.46 37.3586 117.53 37.1724 117.685 37.1015Z" fill="#000091"/>
<path fill-rule="evenodd" clip-rule="evenodd" d="M123.028 36.9937C123.357 37.322 123.64 37.7827 123.867 38.3906L123.888 38.448L123.93 38.5654L123.972 38.6866L124.013 38.8113L124.054 38.9395C124.081 39.0261 124.108 39.1149 124.135 39.2059L124.174 39.344C124.187 39.3905 124.2 39.4376 124.213 39.4852L124.251 39.6294C124.271 39.7023 124.289 39.7762 124.308 39.8512L124.345 40.0026L124.381 40.1567L124.417 40.3134C124.423 40.3398 124.429 40.3662 124.434 40.3928L124.469 40.5532C124.475 40.5802 124.48 40.6072 124.486 40.6344L124.52 40.7984L124.552 40.9648C124.558 40.9927 124.563 41.0207 124.569 41.0487L124.6 41.2183C124.606 41.2467 124.611 41.2752 124.616 41.3038L124.646 41.4764L124.676 41.6508L124.705 41.8271L124.733 42.0051L124.76 42.1847L124.786 42.3659C124.79 42.3962 124.794 42.4266 124.799 42.4571L124.823 42.6404L124.847 42.825C124.851 42.8559 124.855 42.8868 124.859 42.9178L124.881 43.1042C124.888 43.1666 124.895 43.2291 124.902 43.2918L124.922 43.4803L124.941 43.6698C124.945 43.7014 124.948 43.7331 124.951 43.7648L124.968 43.9555C124.976 44.051 124.984 44.1467 124.992 44.2427L125.007 44.4349C125.011 44.4991 125.016 44.5633 125.02 44.6276L125.032 44.8206C125.04 44.9494 125.047 45.0784 125.053 45.2075L125.061 45.4011L125.069 45.5947C125.07 45.627 125.071 45.6592 125.072 45.6915L125.077 45.885C125.163 49.5796 124.55 52.924 123.11 55.4864C123.065 55.5665 123.017 55.647 122.968 55.7273L122.908 55.8236C122.807 55.9839 122.699 56.1429 122.587 56.2968L122.519 56.3884C122.394 56.5552 122.265 56.7147 122.137 56.8619L122.067 56.9409C121.764 57.2777 121.466 57.5399 121.231 57.659C120.66 57.9451 119.858 58.0999 118.878 58.1538C118.108 58.1961 117.286 58.1732 116.488 58.1094L116.357 58.0984L116.231 58.0872L116.112 58.0758L115.942 58.0579L115.816 58.0433C115.647 58.0219 115.527 57.8646 115.548 57.6922C115.569 57.5197 115.723 57.3973 115.892 57.4188L116.008 57.4322L116.117 57.4438L116.229 57.4549L116.347 57.4659L116.472 57.4767C116.493 57.4784 116.515 57.4802 116.536 57.4819C117.31 57.5437 118.106 57.5659 118.845 57.5253C119.75 57.4756 120.479 57.3347 120.958 57.0945C121.086 57.0298 121.254 56.8905 121.438 56.7032L121.496 56.6424L121.556 56.5787L121.616 56.5122C121.626 56.5009 121.636 56.4894 121.646 56.4779L121.707 56.4075L121.769 56.3347C121.779 56.3224 121.789 56.31 121.8 56.2975L121.861 56.2215L121.923 56.1437C121.943 56.1175 121.964 56.091 121.984 56.0642L122.045 55.9831C122.056 55.9695 122.066 55.9558 122.076 55.9421L122.136 55.8591C122.146 55.8452 122.156 55.8312 122.166 55.8172L122.225 55.7328C122.244 55.7045 122.263 55.6761 122.282 55.6475L122.339 55.5617C122.367 55.5187 122.395 55.4755 122.421 55.4323L122.474 55.3459C122.509 55.2883 122.543 55.2307 122.575 55.1734C123.951 52.7248 124.544 49.4894 124.46 45.8999L124.458 45.8055L124.452 45.6166C124.451 45.5851 124.45 45.5535 124.449 45.522L124.441 45.333C124.44 45.3015 124.439 45.27 124.437 45.2385L124.428 45.0496L124.417 44.8609L124.405 44.6725C124.399 44.5784 124.392 44.4845 124.385 44.3907L124.37 44.2034C124.368 44.1722 124.365 44.1411 124.362 44.11L124.346 43.9236C124.343 43.8926 124.34 43.8616 124.337 43.8307L124.319 43.6455L124.3 43.4612L124.28 43.2778L124.259 43.0955C124.255 43.0652 124.252 43.0349 124.248 43.0047L124.225 42.8242L124.202 42.6449L124.177 42.4669L124.152 42.2905L124.126 42.1155L124.099 41.9422L124.071 41.7707C124.066 41.7422 124.061 41.7139 124.056 41.6856L124.027 41.5168L123.997 41.3499L123.967 41.1851L123.935 41.0224L123.903 40.862L123.87 40.7038C123.865 40.6776 123.859 40.6516 123.854 40.6256L123.82 40.4711L123.785 40.3191L123.75 40.1698C123.739 40.1204 123.727 40.0716 123.715 40.0231L123.679 39.8793L123.642 39.7384L123.605 39.6004L123.567 39.4655C123.554 39.4211 123.542 39.3772 123.529 39.3338L123.49 39.2054L123.451 39.0802C123.418 38.9774 123.385 38.8781 123.352 38.7827L123.311 38.67C123.305 38.6515 123.298 38.6332 123.291 38.615C123.094 38.0885 122.859 37.7051 122.597 37.4441C122.247 37.0948 121.917 37.0003 121.574 37.0241L121.476 37.0327L117.803 37.4186C117.64 37.4357 117.493 37.3194 117.468 37.1561L117.465 37.1377C117.448 36.971 117.562 36.8213 117.722 36.7949L117.74 36.7925L121.415 36.4065L121.438 36.4045L121.49 36.3996C122.008 36.3533 122.522 36.4894 123.028 36.9937Z" fill="#000091"/>
<path fill-rule="evenodd" clip-rule="evenodd" d="M118.517 61.179C117.385 61.179 116.468 62.1154 116.468 63.2706C116.468 64.4257 117.385 65.3622 118.517 65.3622C119.649 65.3622 120.566 64.4257 120.566 63.2706C120.566 62.1154 119.649 61.179 118.517 61.179ZM118.517 61.8083C119.308 61.8083 119.949 62.463 119.949 63.2706C119.949 64.0781 119.308 64.7328 118.517 64.7328C117.726 64.7328 117.084 64.0781 117.084 63.2706C117.084 62.463 117.726 61.8083 118.517 61.8083Z" fill="#000091"/>
<path fill-rule="evenodd" clip-rule="evenodd" d="M118.517 58.8965C118.681 58.8965 118.815 59.0275 118.825 59.1927L118.825 59.2112V60.3063C118.825 60.4801 118.687 60.621 118.517 60.621C118.353 60.621 118.218 60.49 118.209 60.3248L118.208 60.3063V59.2112C118.208 59.0374 118.347 58.8965 118.517 58.8965Z" fill="#000091"/>
<path fill-rule="evenodd" clip-rule="evenodd" d="M117.774 36.7886C117.943 36.7692 118.095 36.8935 118.114 37.0662C118.133 37.2389 118.012 37.3946 117.842 37.414C117.022 37.5082 116.527 38.1166 116.281 38.8885C116.229 39.0538 116.055 39.1442 115.893 39.0905C115.731 39.0367 115.642 38.8592 115.695 38.6939C115.81 38.333 115.99 37.9644 116.256 37.6379C116.639 37.167 117.143 36.861 117.774 36.7886Z" fill="#000091"/>
<path fill-rule="evenodd" clip-rule="evenodd" d="M51.7981 41.5184C51.7323 41.4995 51.6666 41.4827 51.5998 41.4659C53.8472 39.6471 56.0824 37.3226 56.1399 35.2331C56.2581 30.9628 51.721 32.575 51.721 32.575C51.721 32.575 52.1917 30.3576 49.1715 30.2422C47.0134 30.1582 42.7292 34.5082 42.7292 34.5082C42.7292 34.5082 41.6912 32.1911 39.5599 32.9159C37.4286 33.6408 29.5918 42.5579 29.5918 42.5579L17.5406 43.1117C11.384 43.8219 14.2922 64.4422 18.3462 64.4254L36.6147 63.7048C39.5805 68.3401 47.2189 70.4485 50.9781 67.0184C55.6107 62.7922 51.1887 59.1859 49.1406 59.7565C44.9201 63.8055 41.5751 57.5055 42.4096 53.0369C43.0446 49.5838 43.6212 49.3006 43.6212 49.3006C45.9395 46.4852 50.7766 47.1271 50.7725 49.8124C50.194 55.8555 56.3352 55.739 57.3423 51.8726C58.4131 47.768 57.4029 43.1117 51.7981 41.5184ZM43.577 49.3551L43.5965 49.331L43.577 49.3551Z" fill="#F95C5E"/>
<path fill-rule="evenodd" clip-rule="evenodd" d="M46.3218 50.5835V62.7366H60.195V50.5835H46.3218ZM52.4034 60.601V57.4195H58.5394V60.601H52.4034Z" fill="#000091"/>
<rect x="60.8066" y="50.5835" width="2.73251" height="12.1531" fill="#000091"/>
<path fill-rule="evenodd" clip-rule="evenodd" d="M46.4767 41.0819C48.3818 40.5409 50.4507 40.5121 52.3079 41.0401C52.488 41.0916 52.6633 41.1457 52.8339 41.2023C52.9958 41.256 53.0844 41.4335 53.0318 41.5988C52.9791 41.7641 52.8052 41.8545 52.6433 41.8008C52.4808 41.7469 52.3136 41.6953 52.142 41.6463C50.3964 41.15 48.4416 41.1772 46.642 41.6883C46.4779 41.7348 46.308 41.6369 46.2623 41.4694C46.2167 41.302 46.3127 41.1285 46.4767 41.0819Z" fill="#000091"/>
<path fill-rule="evenodd" clip-rule="evenodd" d="M52.0165 31.8165C52.1551 31.7154 52.3476 31.7482 52.4466 31.8896C52.5456 32.031 52.5135 32.2275 52.375 32.3286C51.9821 32.6151 51.5794 32.9243 51.1676 33.2551C49.9739 34.2138 48.718 35.3419 47.4214 36.6047C45.8968 38.0896 44.3954 39.6813 42.9826 41.2732L42.81 41.4681L42.5586 41.7541L42.3163 42.0319L42.0833 42.301L41.9334 42.4755L41.7878 42.6457L41.5662 42.9069L41.3166 43.2042L41.1602 43.3931C41.0511 43.5265 40.8567 43.5444 40.726 43.433C40.6003 43.3259 40.5793 43.1383 40.6748 43.0054L40.7029 42.9703L40.8799 42.757L41.06 42.5423L41.251 42.3168L41.3954 42.1474L41.5442 41.9738L41.7756 41.7058L41.9351 41.5222L42.1822 41.2397L42.3519 41.0469L42.5257 40.8506C43.9478 39.2482 45.4593 37.6458 46.9958 36.1494C48.3056 34.8737 49.5759 33.7327 50.7863 32.7604C51.2053 32.4239 51.6156 32.1088 52.0165 31.8165Z" fill="#000091"/>
<path fill-rule="evenodd" clip-rule="evenodd" d="M43.1174 33.6363C43.237 33.7504 43.2477 33.9389 43.145 34.0661L43.1087 34.1067L42.4023 34.882L41.8505 35.4905L41.466 35.9157L41.0825 36.341L40.7009 36.7655L40.3219 37.188L39.9466 37.6078C39.8845 37.6774 39.8225 37.747 39.7607 37.8163L39.3926 38.23C39.3317 38.2986 39.2711 38.3669 39.2107 38.435L38.9187 38.7649L38.4001 39.3536L38.0117 39.7972L37.6948 40.161L37.3444 40.5659L37.0611 40.8956L36.8373 41.1579L36.5838 41.4571L36.3093 41.7845L36.163 41.9607L35.9258 42.2499L35.7713 42.441L35.6028 42.6531L35.5009 42.7838L35.4073 42.9059L35.3428 42.9916L35.2831 43.0723L35.2284 43.1479L35.1946 43.1955L35.1482 43.2626L35.1068 43.3245L35.082 43.3628C34.9893 43.5085 34.7983 43.5499 34.6555 43.4553C34.5127 43.3606 34.4722 43.1657 34.5649 43.02L34.5912 42.9792L34.6198 42.9362L34.6834 42.8435L34.7368 42.7682L34.7752 42.7152L34.8367 42.6317L34.9498 42.4816L35.0497 42.352L35.1862 42.1781L35.2743 42.0675L35.3669 41.9523L35.4973 41.7915L35.6716 41.5793L35.9359 41.2613L36.139 41.0196L36.3982 40.7138L36.7215 40.3359L37.0669 39.9355L37.4878 39.4512L37.7648 39.1343L38.2896 38.5374L38.5729 38.2167L38.9357 37.8074L39.3044 37.3929L39.6782 36.9742L40.056 36.5522L40.437 36.128L40.8204 35.7023L41.205 35.2763L41.9502 34.454L42.6817 33.6513C42.798 33.5243 42.993 33.5176 43.1174 33.6363Z" fill="#000091"/>
<path fill-rule="evenodd" clip-rule="evenodd" d="M35.0966 59.8985C35.2666 59.8879 35.4128 60.02 35.4232 60.1934C35.4803 61.147 35.7211 61.8837 36.2638 62.8369L36.3363 62.9625C36.3858 63.0471 36.4376 63.1335 36.4918 63.222C36.5821 63.3693 36.5383 63.5635 36.3939 63.6556C36.2496 63.7478 36.0594 63.7031 35.9691 63.5558L35.8854 63.4178C35.1893 62.2562 34.8767 61.3833 34.8077 60.2318C34.7973 60.0584 34.9267 59.9092 35.0966 59.8985Z" fill="#000091"/>
<path fill-rule="evenodd" clip-rule="evenodd" d="M82.8256 16.1234C82.1669 11.786 78.4303 5.42409 72.7156 2.2143C67.0009 -0.995494 45.9023 0.232828 45.9023 0.232828C45.9023 0.232828 40.3356 2.98318 41.4516 12.0105C42.4649 20.2059 48.2649 18.8528 48.2649 18.8528C48.2649 18.8528 59.7488 17.6748 63.1554 21.2653C65.8962 24.9818 66.7347 25.9374 68.6102 25.7528L68.753 20.6066L69.1363 17.3632L70.2667 15.9325L73.3846 19.137C73.3846 19.137 73.0763 23.8321 72.8842 26.5709C74.773 26.8783 76.4912 25.6699 76.8396 23.4524C78.5711 23.6202 80.163 23.0832 80.8186 20.6863L80.7158 20.5321C81.9089 20.3402 83.3281 19.4056 82.8256 16.1234Z" fill="#F95C5E"/>
<path fill-rule="evenodd" clip-rule="evenodd" d="M72.1928 15.6186C72.3339 15.5334 72.5145 15.5761 72.6051 15.713L72.6152 15.7292L77.4256 24.0264C77.5123 24.1759 77.4638 24.3689 77.3173 24.4575C77.1762 24.5427 76.9956 24.5 76.905 24.3631L76.8949 24.3469L72.0845 16.0497C71.9978 15.9001 72.0463 15.7071 72.1928 15.6186Z" fill="#000091"/>
<path fill-rule="evenodd" clip-rule="evenodd" d="M65.6902 16.8462C65.7748 16.6953 65.9631 16.643 66.1109 16.7294C67.2168 17.3754 68.1846 18.6155 69.0272 20.2909C69.105 20.4456 69.0452 20.6352 68.8937 20.7146C68.7423 20.794 68.5564 20.733 68.4787 20.5784C67.6856 19.0014 66.7863 17.8491 65.8046 17.2756C65.6568 17.1893 65.6056 16.997 65.6902 16.8462Z" fill="#000091"/>
<path fill-rule="evenodd" clip-rule="evenodd" d="M73.7725 10.1111C73.915 10.0283 74.0949 10.0741 74.1832 10.2125L74.193 10.2289L74.2921 10.4075L74.4137 10.6289L74.5382 10.8583L74.6878 11.137L74.8903 11.5199L75.0588 11.8422L75.349 12.4034L75.8094 13.3039L76.9985 15.6451L77.3954 16.4186L77.6155 16.8427L77.8315 17.2533L78.0464 17.6545L78.1416 17.8297L78.229 17.9889L78.3164 18.1466L78.4125 18.3186L78.5321 18.5298L78.6478 18.7302L78.7319 18.8733L78.8136 19.0103L78.893 19.141L78.97 19.2654L79.0199 19.3448L79.0688 19.4213L79.1165 19.495L79.1859 19.6002L79.2307 19.6667L79.2744 19.7302L79.3169 19.7908L79.3581 19.8485L79.3982 19.9032L79.437 19.9549L79.4746 20.0037L79.5109 20.0494L79.5459 20.092L79.5797 20.1316L79.6121 20.1682L79.6433 20.2016C79.6484 20.207 79.6534 20.2121 79.6583 20.2172L79.6875 20.246L79.7153 20.2717C79.7198 20.2757 79.7243 20.2796 79.7287 20.2833L79.7544 20.3043C79.7794 20.3237 79.8024 20.3383 79.8232 20.3481C80.2291 20.5389 80.6538 20.6121 80.9215 20.5107L80.9461 20.5007C81.1027 20.4325 81.2839 20.5068 81.3507 20.6666C81.4176 20.8265 81.3448 21.0114 81.1882 21.0796C80.7248 21.2815 80.1268 21.1837 79.5653 20.9197C79.4458 20.8636 79.3166 20.76 79.1742 20.6073L79.1312 20.56L79.0873 20.5097C79.0799 20.5011 79.0725 20.4923 79.065 20.4835L79.0199 20.4287L78.9739 20.371L78.927 20.3103L78.8793 20.2465L78.8306 20.1798L78.781 20.11L78.7304 20.0371L78.6789 19.9612L78.6264 19.8822L78.5728 19.8002L78.5182 19.715L78.4626 19.6268L78.4059 19.5354L78.3481 19.4409L78.2891 19.3433L78.2291 19.2425L78.1368 19.0854L78.0738 18.9767L77.9771 18.8077L77.8775 18.6315L77.7482 18.3997L77.6199 18.167L77.4729 17.8964L77.2839 17.5428L77.06 17.117L76.7178 16.4555L76.2487 15.5377L75.1328 13.3402L74.7775 12.6463L74.5166 12.1419L74.3724 11.8659L74.258 11.6486L74.105 11.3608L73.9376 11.05L73.8153 10.8261L73.7356 10.6815L73.6571 10.5402C73.5729 10.3892 73.6246 10.197 73.7725 10.1111Z" fill="#000091"/>
<path fill-rule="evenodd" clip-rule="evenodd" d="M101.928 71.2131V18.0418C102.073 16.3016 100.922 14.6484 99.2257 14.6484H71.2984C69.6019 14.6461 68.2245 16.0478 68.2217 17.7796V71.4334C68.2222 73.1652 69.5978 74.5687 71.2943 74.5687H93.2417C93.2695 74.4865 93.3294 74.4197 93.4072 74.3841C94.5269 73.8861 95.2554 72.7629 95.2672 71.5163V18.5359C95.2672 16.7956 93.8337 15.3796 92.0712 15.3796C91.901 15.3796 91.763 15.2387 91.763 15.0649C91.763 14.8911 91.901 14.7502 92.0712 14.7502C94.1738 14.7502 95.8838 16.4484 95.8838 18.5359V71.5205C95.8766 72.7352 95.2957 73.8718 94.3238 74.5729H99.2236C100.919 74.5729 102.295 73.1694 101.928 71.2131ZM93.7607 18.1687C93.8296 18.3841 93.8643 18.6093 93.8635 18.8358V70.4893C93.8635 71.703 92.8697 72.6921 91.6438 72.6921H76.5138C75.2878 72.6921 74.293 71.7082 74.293 70.4893V18.8358C74.2975 18.0557 74.7102 17.3376 75.3751 16.953H71.9325C70.8782 16.953 70.0201 17.7921 70.0201 18.8358V70.4893C70.0201 71.5278 70.8782 72.3774 71.9325 72.3774H75.2436C75.4139 72.3774 75.5519 72.5183 75.5519 72.6921C75.5519 72.8659 75.4139 73.0068 75.2436 73.0068H71.9325C70.538 73.0068 69.4035 71.8792 69.4035 70.4893V18.8358C69.4035 17.4502 70.5339 16.3236 71.9325 16.3236H76.1561C76.3264 16.3236 76.4644 16.4645 76.4644 16.6383C76.4644 16.8121 76.3264 16.953 76.1561 16.953V17.5561C76.1612 17.8593 76.4058 18.101 76.7028 18.0963H91.4557L93.7607 18.1687Z" fill="#000091"/>
<path fill-rule="evenodd" clip-rule="evenodd" d="M93.251 74.8038C93.3005 74.9173 93.4108 74.9905 93.5326 74.9905C93.5758 74.9907 93.6185 74.9814 93.6579 74.9632C93.8918 74.8563 94.1146 74.7255 94.3228 74.573H93.2417C93.2161 74.6483 93.2194 74.7308 93.251 74.8038Z" fill="#000091"/>
<path fill-rule="evenodd" clip-rule="evenodd" d="M76.156 16.6697C75.8808 16.7142 75.616 16.8102 75.375 16.9529H76.156V16.6697Z" fill="#000091"/>
<path fill-rule="evenodd" clip-rule="evenodd" d="M72.3045 7.84204C72.3045 7.84204 75.4583 10.5284 76.7234 13.1634C78.8167 17.5176 76.3935 20.4483 73.3794 19.1361C71.8739 18.4805 67.8671 12.6997 67.8671 12.6997C67.8671 12.6997 63.3034 18.0148 58.939 15.2225" fill="#F95C5E"/>
<path fill-rule="evenodd" clip-rule="evenodd" d="M72.068 7.64042C72.1771 7.50698 72.3715 7.48907 72.5023 7.60042L72.5604 7.65076L72.6623 7.74049L72.7201 7.79209L72.825 7.88671L72.9343 7.98659C72.9529 8.00367 72.9717 8.02096 72.9906 8.03847L73.1061 8.14602L73.2254 8.25853C73.2456 8.27768 73.2659 8.29704 73.2864 8.3166C73.8715 8.87526 74.4567 9.48211 75.0036 10.1169C75.8205 11.065 76.4795 11.9916 76.9243 12.8705C76.9505 12.9222 76.9758 12.9736 77.0004 13.0247C78.026 15.1581 78.0719 17.1392 77.2241 18.4482C76.3956 19.7272 74.8565 20.1212 73.2587 19.4255C73.1568 19.3812 73.0463 19.3182 72.9272 19.2372L72.8669 19.1952C72.7856 19.1372 72.7006 19.0712 72.6118 18.9975L72.5445 18.9407L72.4758 18.8811C72.4642 18.8709 72.4526 18.8606 72.4409 18.8502L72.3701 18.7862C72.3582 18.7753 72.3462 18.7643 72.3342 18.7531L72.2614 18.6849L72.1871 18.6138L72.1115 18.54L72.0345 18.4633L71.9562 18.3839C71.943 18.3704 71.9298 18.3568 71.9165 18.3431L71.8361 18.2596L71.7543 18.1733L71.6713 18.0842L71.5868 17.9925L71.501 17.8982L71.4139 17.8011L71.3254 17.7014L71.2356 17.5991L71.1445 17.4942L71.0521 17.3867L70.911 17.2206L70.8153 17.1067L70.6692 16.9311C70.4638 16.6826 70.2522 16.4202 70.0353 16.1455C69.4714 15.4312 68.8972 14.6666 68.3427 13.9021L68.1726 13.6666L67.9605 13.3705L67.8346 13.1932L67.8049 13.2239L67.7626 13.2672L67.674 13.3562L67.5805 13.4483C67.1696 13.8485 66.7054 14.2484 66.1963 14.622C65.2184 15.3398 64.194 15.8742 63.1459 16.1481C61.839 16.4895 60.5626 16.4056 59.3548 15.8153C59.1592 15.7197 58.9661 15.611 58.7755 15.4891C58.6312 15.3968 58.5875 15.2026 58.678 15.0553C58.7684 14.9081 58.9587 14.8635 59.1029 14.9558C59.2739 15.0652 59.4466 15.1624 59.6211 15.2476C61.5958 16.2128 63.734 15.6541 65.8363 14.1111C66.3207 13.7555 66.7635 13.3741 67.1548 12.993L67.1997 12.949L67.2859 12.8632L67.3671 12.7807C67.3933 12.7538 67.4187 12.7274 67.4433 12.7017L67.5143 12.6262L67.5547 12.5825L67.6355 12.4923C67.7669 12.3393 68.0039 12.3519 68.119 12.518L68.2127 12.652L68.3608 12.8618L68.4592 13.0004L68.6154 13.2186L68.8383 13.5276C69.3881 14.2857 69.9574 15.0437 70.5154 15.7506C70.6989 15.983 70.8785 16.2063 71.0534 16.4195L71.1852 16.5792L71.3177 16.7379L71.4477 16.8918L71.5752 17.0406L71.6588 17.137L71.7818 17.2774L71.9022 17.4125L72.0197 17.5423L72.0965 17.6259L72.1719 17.707L72.2461 17.7857L72.3548 17.8991L72.4603 18.0068C72.4719 18.0185 72.4834 18.03 72.4948 18.0415L72.5628 18.1088L72.6293 18.1736L72.6943 18.2358L72.7579 18.2953L72.8199 18.3522L72.8805 18.4064L72.9395 18.4579L72.9969 18.5066C73.0253 18.5303 73.053 18.5529 73.0801 18.5745L73.1336 18.6163L73.1854 18.6553L73.2355 18.6914C73.252 18.7029 73.2682 18.714 73.284 18.7246L73.3308 18.7549C73.3921 18.7934 73.4487 18.8241 73.5006 18.8466C74.8349 19.4275 76.0524 19.1159 76.7097 18.1011C77.424 16.9983 77.3835 15.2503 76.4468 13.3018C76.4241 13.2546 76.4007 13.2071 76.3765 13.1594C75.958 12.3326 75.327 11.4452 74.5406 10.5325C74.008 9.91442 73.4366 9.3218 72.8652 8.77625L72.8056 8.71957L72.6893 8.60981L72.5767 8.50496C72.5582 8.4879 72.54 8.47105 72.5219 8.45441L72.4155 8.35715L72.285 8.23967L72.2064 8.17002L72.1072 8.08365C71.9765 7.9723 71.9589 7.77386 72.068 7.64042Z" fill="#000091"/>
<path fill-rule="evenodd" clip-rule="evenodd" d="M171.458 74.5217C171.628 74.5217 171.766 74.6626 171.766 74.8364C171.766 75.004 171.638 75.141 171.476 75.1506L171.458 75.1511H0.500188C0.329922 75.1511 0.191895 75.0102 0.191895 74.8364C0.191895 74.6688 0.320239 74.5318 0.482073 74.5223L0.500188 74.5217H171.458Z" fill="#000091"/>
</svg>
