
<svg width="166" height="99" viewBox="0 0 166 99" fill="none" xmlns="http://www.w3.org/2000/svg">
<path fill-rule="evenodd" clip-rule="evenodd" d="M43.3951 83.988C44.7388 74.5062 47.6795 53.8296 38.8794 44.0716C30.0794 34.3135 28.6807 36.6342 27.1497 28.6111C25.6188 20.588 17.5017 17.339 13.4155 22.0026C9.3184 26.6551 14.2416 35.5733 15.8276 37.5183C17.4135 39.4633 15.9818 51.4426 21.1472 59.7309C26.3127 68.0192 34.6061 62.0848 34.2536 69.2901C34.7272 83.4907 43.3951 83.988 43.3951 83.988Z" fill="#F95C5E"/>
<path fill-rule="evenodd" clip-rule="evenodd" d="M17.2486 25.0925C17.403 24.995 17.607 25.0415 17.7043 25.1964L17.848 25.427L18.1366 25.8943C18.3486 26.2388 18.5865 26.6284 18.8487 27.061L19.0992 27.4753C19.9428 28.8731 20.8702 30.4394 21.8619 32.151C24.9788 37.53 28.0956 43.2399 31.0049 49.0329C33.4047 53.8113 35.5589 58.4432 37.4061 62.8557C40.9034 71.2098 43.1865 78.4968 43.9979 84.418C44.0228 84.5994 43.8964 84.7666 43.7156 84.7916C43.5348 84.8165 43.3681 84.6897 43.3432 84.5083C42.5411 78.6545 40.2738 71.4179 36.7968 63.1125C34.9559 58.7151 32.8081 54.0967 30.4148 49.3312C27.5118 43.551 24.4012 37.8526 21.2906 32.4843L20.8982 31.8088C19.9909 30.2512 19.1418 28.8226 18.3668 27.5421L17.9615 26.8748C17.8585 26.706 17.7601 26.5451 17.6664 26.3925L17.242 25.705L17.1451 25.5497C17.0478 25.3948 17.0942 25.1901 17.2486 25.0925Z" fill="white"/>
<path fill-rule="evenodd" clip-rule="evenodd" d="M48.1419 10.0342C39.5401 9.20535 37.7559 17.9578 37.4805 25.362C37.2052 32.7662 38.5709 35.4295 34.3746 39.3637C30.1784 43.309 37.0069 48.6356 36.4232 52.5476C35.8395 56.4597 31.8084 66.914 47.4811 90.0771C48.0538 90.917 48.8688 97.6802 48.8688 97.6802L52.261 96.763C52.261 96.763 50.0803 91.2706 52.5474 84.6179C55.0145 77.9541 59.1997 74.8266 59.5962 66.4941C59.9927 58.1616 54.0563 59.775 55.1467 54.2937C56.237 48.8124 61.81 45.0219 61.3805 39.5295C60.9509 34.0261 50.653 30.0256 52.9329 23.6933C55.2127 17.35 55.5872 10.7525 48.1419 10.0342Z" fill="#F95C5E"/>
<path fill-rule="evenodd" clip-rule="evenodd" d="M44.8974 12.9793C45.0644 13.0349 45.1577 13.2113 45.1127 13.3796L45.0613 13.5419L45.0212 13.6712C44.9931 13.7627 44.9623 13.8647 44.929 13.9771L44.8833 14.1326C44.7522 14.5816 44.6083 15.1024 44.4544 15.6932L44.3873 15.9528C43.9177 17.7838 43.4492 19.9062 43.0105 22.3029C41.4818 30.654 40.6729 40.2242 40.9665 50.7862C41.3501 64.5854 43.602 78.9224 48.1049 93.5707C48.1587 93.7457 48.061 93.9313 47.8866 93.9853C47.7122 94.0392 47.5273 93.9411 47.4735 93.7662C42.9524 79.0589 40.6912 64.6624 40.3059 50.8047C40.011 40.1945 40.8238 30.5782 42.3606 22.1831L42.4239 21.8403C42.8682 19.4542 43.3415 17.3436 43.8151 15.5255L43.8965 15.2159C44.0216 14.7445 44.1398 14.3208 44.2492 13.9459L44.2956 13.7882C44.3409 13.6353 44.3817 13.501 44.4177 13.3854L44.4798 13.1897C44.5372 13.0159 44.7242 12.9217 44.8974 12.9793Z" fill="white"/>
<path fill-rule="evenodd" clip-rule="evenodd" d="M47.6355 83.2365C44.6838 75.7549 38.2517 59.4215 27.8327 55.9183C17.4136 52.4151 17.3696 54.6806 12.931 49.4423C8.49244 44.2041 1.2784 45.1766 0.243099 50.2601C-0.792198 55.3436 6.4659 59.8304 8.41534 60.6039C10.3648 61.3775 14.2967 70.7157 21.4667 74.6498C28.6367 78.584 32.1831 70.8372 34.9145 76.2522C41.1484 86.4303 47.6355 83.2365 47.6355 83.2365Z" fill="#F95C5E"/>
<path fill-rule="evenodd" clip-rule="evenodd" d="M3.72866 49.6871C3.79822 49.5249 3.98143 49.4469 4.14472 49.5065L4.17152 49.5174L4.28333 49.5664C4.35713 49.5989 4.44085 49.636 4.53424 49.6777L4.63083 49.721C5.01046 49.8914 5.4506 50.0932 5.9462 50.3253L6.37555 50.5275C7.67785 51.1441 9.10761 51.8501 10.6354 52.6404C15.4858 55.1493 20.3363 57.9899 24.8651 61.1062C29.4924 64.2904 33.523 67.5894 36.7853 70.9749C40.566 74.8983 43.2295 78.8508 44.5997 82.8073C44.6596 82.9803 44.5684 83.1692 44.396 83.2293C44.2237 83.2894 44.0354 83.1979 43.9755 83.025C41.4595 75.7599 34.5074 68.5455 24.4913 61.6531C19.9874 58.5538 15.1601 55.7269 10.3326 53.2298L9.99633 53.0563C8.54609 52.3109 7.18866 51.6437 5.9503 51.0595L5.66665 50.9261C5.23585 50.7243 4.84749 50.5458 4.50494 50.3911L4.13434 50.2251L3.90154 50.1227C3.73392 50.0503 3.65652 49.8553 3.72866 49.6871Z" fill="white"/>
<path fill-rule="evenodd" clip-rule="evenodd" d="M43.8242 85.1264C44.0004 76.4844 44.3969 57.6202 53.5824 50.1829C62.768 42.7455 63.6601 45.011 66.1712 38.0709C68.6824 31.1308 76.3149 29.3958 79.2556 34.1257C82.1963 38.8555 76.5682 46.105 74.8941 47.608C73.22 49.1109 72.7465 59.9962 66.9862 66.66C61.226 73.3128 54.7719 66.8479 54.045 73.3238C51.5449 85.8999 43.8242 85.1264 43.8242 85.1264Z" fill="#F95C5E"/>
<path fill-rule="evenodd" clip-rule="evenodd" d="M75.5959 34.9025C75.7219 35.0349 75.717 35.2448 75.585 35.3712L75.3976 35.5529L75.1669 35.7793C74.9528 35.9905 74.7126 36.23 74.4481 36.4969L74.1813 36.7669C73.2737 37.6886 72.2724 38.736 71.1996 39.896C67.9071 43.4562 64.6146 47.3427 61.5422 51.4261C56.3851 58.2802 52.3837 64.9801 49.9869 71.2571C48.3019 75.6702 47.4535 79.7764 47.5359 83.5166C47.54 83.6997 47.3953 83.8514 47.2129 83.8554C47.0305 83.8595 46.8793 83.7144 46.8753 83.5313C46.7908 79.6967 47.6562 75.5078 49.3698 71.0199C51.7919 64.6765 55.8235 57.9262 61.0148 51.0266C64.0331 47.0151 67.2615 43.1942 70.4947 39.6839L70.7152 39.445C71.8341 38.2352 72.8759 37.147 73.8157 36.195L74.1108 35.8972C74.3259 35.6809 74.5239 35.4838 74.7038 35.3064L74.966 35.0492L75.1288 34.8915C75.2608 34.7651 75.47 34.77 75.5959 34.9025Z" fill="white"/>
<path fill-rule="evenodd" clip-rule="evenodd" d="M55.9947 98.3324L60.1029 79.3687C60.4443 77.9321 59.3319 76.5618 57.8341 76.5618H32.282C30.7842 76.5618 29.6828 77.921 30.0022 79.3466L34.1984 98.2108" fill="#F95C5E"/>
<rect x="61.292" y="68.3994" width="29.9926" height="7.47837" transform="rotate(90 61.292 68.3994)" fill="#000091"/>
<rect x="59.3623" y="70.9521" width="13.9686" height="4.02004" transform="rotate(90 59.3623 70.9521)" fill="white"/>
<rect x="59.3613" y="85.5056" width="1.30402" height="4.02004" transform="rotate(90 59.3613 85.5056)" fill="#F95C5E"/>
<path fill-rule="evenodd" clip-rule="evenodd" d="M57.2827 91.4919C56.3216 91.4919 55.5425 92.2737 55.5425 93.238C55.5425 94.2023 56.3216 94.9841 57.2827 94.9841C58.2437 94.9841 59.0228 94.2023 59.0228 93.238C59.0228 92.2737 58.2437 91.4919 57.2827 91.4919ZM57.2828 92.1551C57.8789 92.1551 58.3621 92.6399 58.3621 93.2381C58.3621 93.8362 57.8789 94.3211 57.2828 94.3211C56.6867 94.3211 56.2034 93.8362 56.2034 93.2381C56.2034 92.6399 56.6867 92.1551 57.2828 92.1551Z" fill="white"/>
<path fill-rule="evenodd" clip-rule="evenodd" d="M58.9016 73.9426C59.0841 73.9426 59.232 74.0911 59.232 74.2742C59.232 74.4507 59.0944 74.595 58.921 74.6051L58.9016 74.6057H55.9168C55.7344 74.6057 55.5864 74.4573 55.5864 74.2742C55.5864 74.0976 55.724 73.9533 55.8974 73.9432L55.9168 73.9426H58.9016Z" fill="#F95C5E"/>
<path fill-rule="evenodd" clip-rule="evenodd" d="M58.9016 75.4788C59.0841 75.4788 59.232 75.6272 59.232 75.8103C59.232 75.9869 59.0944 76.1312 58.921 76.1413L58.9016 76.1418H55.9168C55.7344 76.1418 55.5864 75.9934 55.5864 75.8103C55.5864 75.6337 55.724 75.4894 55.8974 75.4793L55.9168 75.4788H58.9016Z" fill="#F95C5E"/>
<path fill-rule="evenodd" clip-rule="evenodd" d="M58.9016 77.0149C59.0841 77.0149 59.232 77.1633 59.232 77.3464C59.232 77.523 59.0944 77.6673 58.921 77.6774L58.9016 77.678H55.9168C55.7344 77.678 55.5864 77.5295 55.5864 77.3464C55.5864 77.1699 55.724 77.0255 55.8974 77.0155L55.9168 77.0149H58.9016Z" fill="#F95C5E"/>
<rect x="68.7505" y="68.4255" width="29.9926" height="7.47837" transform="rotate(90 68.7505 68.4255)" fill="#000091"/>
<rect x="66.8096" y="70.9785" width="13.9686" height="4.02004" transform="rotate(90 66.8096 70.9785)" fill="white"/>
<rect x="66.8203" y="85.5317" width="1.30403" height="4.02003" transform="rotate(90 66.8203 85.5317)" fill="#F95C5E"/>
<path fill-rule="evenodd" clip-rule="evenodd" d="M64.7285 91.5249C63.7674 91.5249 62.9883 92.3066 62.9883 93.271C62.9883 94.2353 63.7674 95.017 64.7285 95.017C65.6895 95.017 66.4686 94.2353 66.4686 93.271C66.4686 92.3066 65.6895 91.5249 64.7285 91.5249ZM64.7285 92.1881C65.3246 92.1881 65.8078 92.6729 65.8078 93.2711C65.8078 93.8692 65.3246 94.3541 64.7285 94.3541C64.1324 94.3541 63.6491 93.8692 63.6491 93.2711C63.6491 92.6729 64.1324 92.1881 64.7285 92.1881Z" fill="white"/>
<path fill-rule="evenodd" clip-rule="evenodd" d="M66.3142 80.3743C66.4967 80.3743 66.6446 80.5227 66.6446 80.7058C66.6446 80.8824 66.507 81.0267 66.3336 81.0368L66.3142 81.0373H63.3294C63.147 81.0373 62.999 80.8889 62.999 80.7058C62.999 80.5292 63.1366 80.3849 63.31 80.3748L63.3294 80.3743H66.3142Z" fill="#F95C5E"/>
<path fill-rule="evenodd" clip-rule="evenodd" d="M66.3142 72.4287C66.4967 72.4287 66.6446 72.5771 66.6446 72.7602C66.6446 72.9368 66.507 73.0811 66.3336 73.0912L66.3142 73.0918H63.3294C63.147 73.0918 62.999 72.9433 62.999 72.7602C62.999 72.5837 63.1366 72.4394 63.31 72.4293L63.3294 72.4287H66.3142Z" fill="#F95C5E"/>
<path fill-rule="evenodd" clip-rule="evenodd" d="M66.3142 81.9106C66.4967 81.9106 66.6446 82.0591 66.6446 82.2422C66.6446 82.4187 66.507 82.5631 66.3336 82.5732L66.3142 82.5737H63.3294C63.147 82.5737 62.999 82.4253 62.999 82.2422C62.999 82.0656 63.1366 81.9213 63.31 81.9112L63.3294 81.9106H66.3142Z" fill="#F95C5E"/>
<path fill-rule="evenodd" clip-rule="evenodd" d="M66.3142 83.4468C66.4967 83.4468 66.6446 83.5952 66.6446 83.7783C66.6446 83.9549 66.507 84.0992 66.3336 84.1093L66.3142 84.1098H63.3294C63.147 84.1098 62.999 83.9614 62.999 83.7783C62.999 83.6017 63.1366 83.4574 63.31 83.4473L63.3294 83.4468H66.3142Z" fill="#F95C5E"/>
<rect x="90.9985" y="68.4253" width="29.9926" height="7.47837" transform="rotate(90 90.9985 68.4253)" fill="#000091"/>
<rect x="89.0576" y="70.978" width="13.9686" height="4.02004" transform="rotate(90 89.0576 70.978)" fill="white"/>
<rect x="89.0679" y="85.5315" width="1.30403" height="4.02003" transform="rotate(90 89.0679 85.5315)" fill="#F95C5E"/>
<path fill-rule="evenodd" clip-rule="evenodd" d="M86.976 91.5249C86.0149 91.5249 85.2358 92.3066 85.2358 93.271C85.2358 94.2353 86.0149 95.017 86.976 95.017C87.9371 95.017 88.7162 94.2353 88.7162 93.271C88.7162 92.3066 87.9371 91.5249 86.976 91.5249ZM86.9761 92.1879C87.5722 92.1879 88.0555 92.6728 88.0555 93.2709C88.0555 93.869 87.5722 94.3539 86.9761 94.3539C86.38 94.3539 85.8968 93.869 85.8968 93.2709C85.8968 92.6728 86.38 92.1879 86.9761 92.1879Z" fill="white"/>
<path fill-rule="evenodd" clip-rule="evenodd" d="M88.5617 80.3743C88.7442 80.3743 88.8922 80.5227 88.8922 80.7058C88.8922 80.8824 88.7546 81.0267 88.5812 81.0368L88.5617 81.0373H85.577C85.3945 81.0373 85.2466 80.8889 85.2466 80.7058C85.2466 80.5292 85.3841 80.3849 85.5576 80.3748L85.577 80.3743H88.5617Z" fill="#F95C5E"/>
<path fill-rule="evenodd" clip-rule="evenodd" d="M88.5617 72.4287C88.7442 72.4287 88.8922 72.5771 88.8922 72.7602C88.8922 72.9368 88.7546 73.0811 88.5812 73.0912L88.5617 73.0918H85.577C85.3945 73.0918 85.2466 72.9433 85.2466 72.7602C85.2466 72.5837 85.3841 72.4394 85.5576 72.4293L85.577 72.4287H88.5617Z" fill="#000091"/>
<path fill-rule="evenodd" clip-rule="evenodd" d="M88.5617 81.9104C88.7442 81.9104 88.8922 82.0588 88.8922 82.2419C88.8922 82.4185 88.7546 82.5628 88.5812 82.5729L88.5617 82.5735H85.577C85.3945 82.5735 85.2466 82.425 85.2466 82.2419C85.2466 82.0654 85.3841 81.921 85.5576 81.911L85.577 81.9104H88.5617Z" fill="#F95C5E"/>
<path fill-rule="evenodd" clip-rule="evenodd" d="M88.5617 83.4465C88.7442 83.4465 88.8922 83.595 88.8922 83.7781C88.8922 83.9546 88.7546 84.099 88.5812 84.109L88.5617 84.1096H85.577C85.3945 84.1096 85.2466 83.9612 85.2466 83.7781C85.2466 83.6015 85.3841 83.4572 85.5576 83.4471L85.577 83.4465H88.5617Z" fill="#F95C5E"/>
<rect x="53.9243" y="68.4268" width="29.9926" height="7.47837" transform="rotate(90 53.9243 68.4268)" fill="#000091"/>
<rect x="51.9839" y="70.9797" width="13.9686" height="4.02004" transform="rotate(90 51.9839 70.9797)" fill="white"/>
<rect x="51.9941" y="85.533" width="1.30403" height="4.02004" transform="rotate(90 51.9941 85.533)" fill="#F95C5E"/>
<path fill-rule="evenodd" clip-rule="evenodd" d="M49.9038 91.5249C48.9427 91.5249 48.1636 92.3066 48.1636 93.271C48.1636 94.2353 48.9427 95.017 49.9038 95.017C50.8648 95.017 51.6439 94.2353 51.6439 93.271C51.6439 92.3066 50.8648 91.5249 49.9038 91.5249ZM49.9037 92.1879C50.4999 92.1879 50.9831 92.6727 50.9831 93.2709C50.9831 93.869 50.4999 94.3539 49.9037 94.3539C49.3076 94.3539 48.8244 93.869 48.8244 93.2709C48.8244 92.6727 49.3076 92.1879 49.9037 92.1879Z" fill="white"/>
<path fill-rule="evenodd" clip-rule="evenodd" d="M51.4787 80.3745C51.6612 80.3745 51.8091 80.5229 51.8091 80.706C51.8091 80.8826 51.6716 81.0269 51.4981 81.037L51.4787 81.0376H48.494C48.3115 81.0376 48.1636 80.8891 48.1636 80.706C48.1636 80.5295 48.3011 80.3852 48.4746 80.3751L48.494 80.3745H51.4787Z" fill="#F95C5E"/>
<path fill-rule="evenodd" clip-rule="evenodd" d="M51.4787 72.4287C51.6612 72.4287 51.8091 72.5771 51.8091 72.7602C51.8091 72.9368 51.6716 73.0811 51.4981 73.0912L51.4787 73.0918H48.494C48.3115 73.0918 48.1636 72.9433 48.1636 72.7602C48.1636 72.5837 48.3011 72.4394 48.4746 72.4293L48.494 72.4287H51.4787Z" fill="#F95C5E"/>
<path fill-rule="evenodd" clip-rule="evenodd" d="M51.4787 81.9106C51.6612 81.9106 51.8091 82.0591 51.8091 82.2422C51.8091 82.4187 51.6716 82.5631 51.4981 82.5731L51.4787 82.5737H48.494C48.3115 82.5737 48.1636 82.4253 48.1636 82.2422C48.1636 82.0656 48.3011 81.9213 48.4746 81.9112L48.494 81.9106H51.4787Z" fill="#F95C5E"/>
<path fill-rule="evenodd" clip-rule="evenodd" d="M51.4787 83.4465C51.6612 83.4465 51.8091 83.595 51.8091 83.7781C51.8091 83.9546 51.6716 84.099 51.4981 84.109L51.4787 84.1096H48.494C48.3115 84.1096 48.1636 83.9612 48.1636 83.7781C48.1636 83.6015 48.3011 83.4572 48.4746 83.4471L48.494 83.4465H51.4787Z" fill="#F95C5E"/>
<rect x="76.186" y="68.4241" width="29.9926" height="7.47838" transform="rotate(90 76.186 68.4241)" fill="#000091"/>
<rect x="74.2451" y="70.9768" width="13.9686" height="4.02004" transform="rotate(90 74.2451 70.9768)" fill="white"/>
<rect x="74.2554" y="85.5303" width="1.30402" height="4.02003" transform="rotate(90 74.2554 85.5303)" fill="#F95C5E"/>
<path fill-rule="evenodd" clip-rule="evenodd" d="M72.1621 91.5251C71.201 91.5251 70.4219 92.3069 70.4219 93.2712C70.4219 94.2355 71.201 95.0173 72.1621 95.0173C73.1231 95.0173 73.9022 94.2355 73.9022 93.2712C73.9022 92.3069 73.1231 91.5251 72.1621 91.5251ZM72.1622 92.1883C72.7583 92.1883 73.2415 92.6732 73.2415 93.2713C73.2415 93.8694 72.7583 94.3543 72.1622 94.3543C71.5661 94.3543 71.0828 93.8694 71.0828 93.2713C71.0828 92.6732 71.5661 92.1883 72.1622 92.1883Z" fill="white"/>
<path fill-rule="evenodd" clip-rule="evenodd" d="M73.7478 80.3745C73.9303 80.3745 74.0782 80.5229 74.0782 80.706C74.0782 80.8826 73.9406 81.0269 73.7672 81.037L73.7478 81.0376H70.763C70.5805 81.0376 70.4326 80.8891 70.4326 80.706C70.4326 80.5295 70.5702 80.3852 70.7436 80.3751L70.763 80.3745H73.7478Z" fill="#F95C5E"/>
<path fill-rule="evenodd" clip-rule="evenodd" d="M73.7478 72.429C73.9303 72.429 74.0782 72.5774 74.0782 72.7605C74.0782 72.937 73.9406 73.0814 73.7672 73.0915L73.7478 73.092H70.763C70.5805 73.092 70.4326 72.9436 70.4326 72.7605C70.4326 72.5839 70.5702 72.4396 70.7436 72.4295L70.763 72.429H73.7478Z" fill="#000091"/>
<path fill-rule="evenodd" clip-rule="evenodd" d="M73.7478 81.9106C73.9303 81.9106 74.0782 82.0591 74.0782 82.2422C74.0782 82.4187 73.9406 82.5631 73.7672 82.5731L73.7478 82.5737H70.763C70.5805 82.5737 70.4326 82.4253 70.4326 82.2422C70.4326 82.0656 70.5702 81.9213 70.7436 81.9112L70.763 81.9106H73.7478Z" fill="#F95C5E"/>
<path fill-rule="evenodd" clip-rule="evenodd" d="M73.7478 83.447C73.9303 83.447 74.0782 83.5955 74.0782 83.7786C74.0782 83.9551 73.9406 84.0994 73.7672 84.1095L73.7478 84.1101H70.763C70.5805 84.1101 70.4326 83.9617 70.4326 83.7786C70.4326 83.602 70.5702 83.4577 70.7436 83.4476L70.763 83.447H73.7478Z" fill="#F95C5E"/>
<rect x="83.5532" y="68.3965" width="29.9926" height="7.47837" transform="rotate(90 83.5532 68.3965)" fill="#000091"/>
<rect x="81.624" y="70.9495" width="13.9686" height="4.02003" transform="rotate(90 81.624 70.9495)" fill="white"/>
<rect x="81.623" y="85.5027" width="1.30403" height="4.02003" transform="rotate(90 81.623 85.5027)" fill="#F95C5E"/>
<path fill-rule="evenodd" clip-rule="evenodd" d="M79.5415 91.4919C78.5804 91.4919 77.8013 92.2737 77.8013 93.238C77.8013 94.2023 78.5804 94.9841 79.5415 94.9841C80.5025 94.9841 81.2816 94.2023 81.2816 93.238C81.2816 92.2737 80.5025 91.4919 79.5415 91.4919ZM79.5415 92.1551C80.1376 92.1551 80.6209 92.6399 80.6209 93.2381C80.6209 93.8362 80.1376 94.3211 79.5415 94.3211C78.9454 94.3211 78.4622 93.8362 78.4622 93.2381C78.4622 92.6399 78.9454 92.1551 79.5415 92.1551Z" fill="white"/>
<path fill-rule="evenodd" clip-rule="evenodd" d="M81.1711 73.9429C81.3536 73.9429 81.5015 74.0913 81.5015 74.2744C81.5015 74.451 81.364 74.5953 81.1905 74.6054L81.1711 74.6059H78.1864C78.0039 74.6059 77.856 74.4575 77.856 74.2744C77.856 74.0978 77.9935 73.9535 78.167 73.9434L78.1864 73.9429H81.1711Z" fill="#F95C5E"/>
<path fill-rule="evenodd" clip-rule="evenodd" d="M81.1711 75.4788C81.3536 75.4788 81.5015 75.6272 81.5015 75.8103C81.5015 75.9869 81.364 76.1312 81.1905 76.1413L81.1711 76.1418H78.1864C78.0039 76.1418 77.856 75.9934 77.856 75.8103C77.856 75.6337 77.9935 75.4894 78.167 75.4793L78.1864 75.4788H81.1711Z" fill="#F95C5E"/>
<path fill-rule="evenodd" clip-rule="evenodd" d="M81.1711 77.0149C81.3536 77.0149 81.5015 77.1633 81.5015 77.3464C81.5015 77.523 81.364 77.6673 81.1905 77.6774L81.1711 77.678H78.1864C78.0039 77.678 77.856 77.5295 77.856 77.3464C77.856 77.1699 77.9935 77.0255 78.167 77.0155L78.1864 77.0149H81.1711Z" fill="#F95C5E"/>
<path fill-rule="evenodd" clip-rule="evenodd" d="M146.649 43.2869C146.649 43.2869 151.065 41.5961 153.389 38.8664C154.777 37.2309 156.55 35.0428 156.44 34.4018C156.253 33.1972 153.907 35.319 153.511 35.6174" fill="white"/>
<path fill-rule="evenodd" clip-rule="evenodd" d="M155.861 33.7215C156.329 33.6369 156.69 33.8584 156.766 34.3454C156.886 35.0437 155.822 36.511 153.641 39.0817C152.931 39.9149 151.999 40.6987 150.898 41.4316C149.994 42.033 149.028 42.5669 148.062 43.0279C147.723 43.1892 147.409 43.33 147.127 43.4495L146.968 43.516L146.767 43.5966C146.596 43.6619 146.405 43.5761 146.34 43.405C146.277 43.2401 146.355 43.056 146.513 42.9846L146.617 42.943C146.69 42.9138 146.775 42.879 146.87 42.8386C147.144 42.7228 147.449 42.586 147.778 42.4291C148.718 41.9807 149.657 41.4615 150.533 40.879C151.587 40.1776 152.473 39.432 153.138 38.6515L153.414 38.3242C155.111 36.3024 156.154 34.8456 156.115 34.4647L156.11 34.4285C156.097 34.3511 156.09 34.354 155.979 34.3741C155.783 34.4094 155.49 34.5542 155.134 34.7884C155.011 34.8693 154.882 34.9596 154.748 35.0587L154.646 35.1349C154.335 35.3702 153.702 35.8877 153.709 35.8826C153.563 35.9925 153.356 35.9628 153.246 35.8163C153.141 35.6755 153.164 35.4779 153.296 35.3653L153.556 35.1531C153.778 34.9733 154.099 34.7165 154.285 34.5774C154.454 34.4508 154.616 34.3361 154.772 34.2338C155.196 33.9545 155.557 33.7767 155.861 33.7215Z" fill="#000091"/>
<path fill-rule="evenodd" clip-rule="evenodd" d="M149.27 39.2534C149.27 39.2534 151.12 37.5295 151.979 36.0155C152.827 34.5015 153.521 33.5069 153.268 33.2859C153.015 33.0648 151.737 33.0759 151.12 33.96C150.426 35.4961 147.937 37.5516 147.937 37.5516C148.246 37.4411 149.887 35.7944 150.658 34.7667C151.418 33.7389 151.539 32.0592 149.248 33.8163C149.248 33.8163 146.825 35.7723 145.889 36.347C145.889 36.347 141.759 37.6731 140.657 39.3529C139.919 40.4912 135.745 50.9897 133.113 57.7198C129.544 54.3492 126.152 51.1002 126.152 51.1002L109.037 54.7691C109.037 54.7691 109.962 55.9848 123.718 69.2792C130.657 75.9872 135.238 76.4624 138.003 74.6611C139.534 73.9206 140.955 71.8872 141.142 70.3732L145.415 43.6849C147.926 42.7898 149.633 41.7841 150.757 40.8779C152.2 39.7065 155.592 34.1147 155.592 33.5621C155.581 32.0923 153.499 33.2527 152.134 35.8497" fill="white"/>
<path fill-rule="evenodd" clip-rule="evenodd" d="M154.197 32.899C155.112 32.3296 155.915 32.5407 155.923 33.562C155.923 34.3678 152.3 40.052 150.965 41.1362C149.721 42.1389 148.028 43.0716 145.871 43.8719L145.711 43.9305L141.469 70.4218L141.464 70.464C141.236 72.104 139.758 74.1534 138.195 74.936L138.166 74.9501L138.131 74.9727C136.574 75.9645 134.647 76.1793 132.404 75.5009L132.329 75.4777C129.781 74.6867 126.867 72.7651 123.589 69.6137L123.131 69.171C117.546 63.7717 113.701 60.0004 111.286 57.5749L110.875 57.1615C110.151 56.4307 109.623 55.8877 109.26 55.5041L109.085 55.318C108.9 55.1189 108.808 55.0142 108.775 54.9702C108.632 54.7822 108.726 54.5111 108.949 54.4495L108.968 54.4448L126.084 50.7758C126.183 50.7544 126.287 50.7805 126.365 50.8457L126.397 50.8755L128.522 52.9055L129.504 53.8404C130.487 54.7756 131.47 55.7091 132.431 56.6192L132.984 57.1422L133.58 55.6229C137.003 46.9089 139.725 40.2365 140.362 39.2022L140.382 39.1705C140.839 38.4737 141.75 37.8165 142.991 37.1883C143.604 36.8781 144.258 36.5953 144.912 36.3448L145.063 36.2879C145.235 36.2233 145.396 36.1651 145.545 36.1134L145.692 36.0633L145.749 36.0439L145.77 36.0307C146.056 35.8504 146.487 35.5411 147.025 35.1348L147.263 34.9543L147.338 34.8964C147.721 34.6037 148.122 34.2899 148.518 33.976L148.849 33.7124L149.048 33.5528C149.624 33.1106 150.093 32.8481 150.464 32.7568C150.885 32.6532 151.232 32.7697 151.394 33.1008C151.405 33.1238 151.416 33.1477 151.425 33.1724L151.437 33.2103L151.468 33.1911C151.695 33.0519 151.948 32.9527 152.216 32.8938L152.267 32.8832C152.76 32.7844 153.253 32.8329 153.485 33.0355C153.572 33.1107 153.621 33.1992 153.642 33.2988L153.645 33.3144L153.662 33.2996C153.827 33.156 153.992 33.031 154.153 32.9269L154.197 32.899ZM155.155 33.2548C155.045 33.2257 154.824 33.2887 154.545 33.4624C153.848 33.8964 153.04 34.8371 152.426 36.0042C152.394 36.0642 152.347 36.1104 152.292 36.1406L152.287 36.143L152.267 36.1793C152.171 36.3472 152.063 36.5208 151.942 36.6997C151.701 37.0546 151.415 37.4263 151.091 37.8087C150.742 38.2217 150.369 38.6257 149.995 39.0047L149.899 39.1018C149.821 39.1808 149.746 39.2546 149.676 39.3229L149.57 39.4251L149.495 39.4961C149.361 39.6207 149.152 39.613 149.028 39.4788C148.904 39.3446 148.912 39.1348 149.045 39.0103L149.134 38.9264L149.257 38.8067C149.34 38.7249 149.43 38.6352 149.525 38.5387C149.888 38.1708 150.25 37.7788 150.587 37.3797C150.896 37.0141 151.169 36.6607 151.395 36.327C151.507 36.162 151.606 36.0031 151.691 35.8528L151.805 35.6527C152.076 35.1798 152.629 34.2285 152.745 34.0094L152.787 33.9307C152.872 33.766 152.93 33.638 152.962 33.5422L152.971 33.5165L152.963 33.5149C152.946 33.5118 152.928 33.509 152.909 33.5066L152.88 33.5033C152.739 33.4894 152.568 33.4988 152.395 33.5334C151.993 33.6139 151.642 33.8119 151.415 34.1168L151.407 34.1282L151.395 34.1533C151.35 34.2482 151.299 34.3454 151.242 34.4448L151.21 34.4984L151.198 34.5231C151.126 34.6623 151.042 34.7995 150.948 34.9303L150.922 34.9658C150.144 36.0033 148.457 37.7173 148.049 37.8635C147.706 37.9864 147.45 37.5471 147.713 37.3078L147.732 37.2918L147.867 37.1772L147.954 37.102C148.044 37.0243 148.14 36.9391 148.242 36.8474C148.63 36.498 149.018 36.1253 149.379 35.7459C149.715 35.3932 150.01 35.0524 150.254 34.7309C150.387 34.5542 150.504 34.3855 150.602 34.2259L150.62 34.1959L150.623 34.1909C150.787 33.8612 150.859 33.5426 150.806 33.4059L150.799 33.3887L150.796 33.388C150.768 33.3783 150.709 33.3788 150.62 33.4007C150.355 33.4661 149.959 33.6879 149.455 34.0744L149.1 34.3585C149.045 34.4028 148.987 34.4487 148.927 34.4961L148.627 34.7328C148.378 34.9295 148.128 35.1242 147.884 35.3118L147.662 35.482L147.418 35.6672C146.831 36.1106 146.367 36.4419 146.061 36.6296C146.039 36.6434 146.015 36.6545 145.99 36.6625L145.931 36.6817C145.892 36.6948 145.848 36.7098 145.799 36.7268L145.761 36.7399C145.576 36.8041 145.37 36.8791 145.147 36.9642C144.513 37.2071 143.879 37.4813 143.288 37.7802C142.143 38.36 141.31 38.9607 140.934 39.5334C140.334 40.4594 137.181 48.2251 133.42 57.8406C133.335 58.0591 133.057 58.1218 132.886 57.9609L132 57.1232C130.81 55.9963 129.586 54.8333 128.37 53.6755L126.05 51.4606L109.668 54.9725L109.912 55.2299C110.25 55.5829 110.703 56.0477 111.29 56.6399L111.677 57.0296C114.108 59.4739 118.029 63.3195 123.767 68.8663L123.947 69.0402C127.198 72.1824 130.061 74.0798 132.524 74.8442C134.643 75.502 136.41 75.3038 137.823 74.3828C137.835 74.3751 137.847 74.3683 137.86 74.3622C139.24 73.6946 140.607 71.8121 140.808 70.3773L140.816 70.3204L145.089 43.6321C145.108 43.5125 145.191 43.4128 145.305 43.3723C147.559 42.5686 149.302 41.6259 150.549 40.62C151.15 40.1322 152.22 38.7067 153.355 36.9376L153.437 36.8091C153.92 36.0523 154.372 35.2975 154.711 34.6836L154.75 34.6134C154.919 34.3063 155.053 34.0458 155.143 33.8481L155.171 33.7863C155.202 33.7171 155.226 33.6585 155.242 33.6118L155.258 33.5652C155.26 33.5583 155.262 33.5573 155.262 33.5644C155.26 33.3445 155.217 33.271 155.155 33.2548Z" fill="#000091"/>
<path fill-rule="evenodd" clip-rule="evenodd" d="M133.102 57.7085C133.102 57.7085 128.939 64.8254 131.318 68.638L133.102 57.7085Z" fill="white"/>
<path fill-rule="evenodd" clip-rule="evenodd" d="M133.27 57.4226C133.421 57.5119 133.476 57.7036 133.397 57.8586L133.333 57.9727C133.318 57.9996 133.301 58.0292 133.283 58.0612L133.226 58.1669C133.167 58.2761 133.103 58.3958 133.037 58.5251L133.003 58.5906C132.712 59.1595 132.421 59.786 132.149 60.4504C131.592 61.8114 131.192 63.1492 131.014 64.394C130.779 66.0433 130.951 67.4254 131.598 68.4621C131.695 68.6173 131.648 68.8219 131.494 68.919C131.339 69.0162 131.135 68.9692 131.038 68.814C130.296 67.6246 130.105 66.0907 130.36 64.3C130.546 62.9943 130.962 61.6063 131.538 60.1987C131.817 59.5159 132.116 58.8726 132.415 58.2878L132.484 58.1543C132.552 58.0242 132.616 57.9039 132.676 57.7943L132.773 57.6194L132.818 57.5407C132.91 57.3828 133.112 57.3299 133.27 57.4226Z" fill="#000091"/>
<path fill-rule="evenodd" clip-rule="evenodd" d="M61.4022 50.6248C61.4022 50.6248 56.8314 49.4423 54.2101 47C52.6462 45.5413 50.6417 43.5631 50.6747 42.9111C50.7298 41.6955 53.296 43.53 53.7145 43.7841" fill="white"/>
<path fill-rule="evenodd" clip-rule="evenodd" d="M53.5433 44.0678L53.497 44.037C53.3384 43.9337 52.8297 43.6063 52.5705 43.4519L52.5528 43.4414C52.3842 43.3417 52.2238 43.2521 52.0716 43.1735C51.6931 42.9782 51.3817 42.86 51.1716 42.8351L51.1468 42.8326C51.0156 42.8213 51.0097 42.8211 51.0051 42.9151L51.0045 42.9279C50.9849 43.3153 52.3641 44.8256 54.4348 46.7571C55.1365 47.4108 56.0275 48.0131 57.0639 48.5616C58.0304 49.0732 59.0684 49.5102 60.1067 49.8725C60.4399 49.9887 60.7511 50.0894 61.0335 50.1747L61.1098 50.1975C61.1851 50.2199 61.2543 50.24 61.317 50.2577L61.4845 50.3037C61.6612 50.3494 61.7675 50.5302 61.722 50.7075C61.678 50.8785 61.5089 50.9838 61.3384 50.9501L61.2911 50.9383L61.2133 50.9171C61.129 50.8938 61.0316 50.8658 60.9221 50.8333C60.6102 50.7405 60.2632 50.6291 59.8896 50.4988C58.8221 50.1263 57.7544 49.6767 56.7556 49.1481C55.6716 48.5744 54.7338 47.9405 53.985 47.2428L53.7726 47.0441C51.5156 44.9266 50.3096 43.584 50.3445 42.8961C50.3676 42.3867 50.7155 42.1299 51.2033 42.1719C51.5207 42.1992 51.9095 42.3442 52.3739 42.5839C52.5147 42.6566 52.6607 42.7373 52.8121 42.8254L52.8883 42.8701C53.0567 42.9697 53.3336 43.1446 53.5535 43.2853L53.8855 43.5005C54.0416 43.5953 54.0915 43.7992 53.997 43.9558C53.9025 44.1125 53.6994 44.1626 53.5433 44.0678Z" fill="#000091"/>
<path fill-rule="evenodd" clip-rule="evenodd" d="M58.3403 46.9116C58.3403 46.9116 56.3027 45.4087 55.2895 44.0052C54.2762 42.5906 53.4832 41.6845 53.7035 41.4413C53.9238 41.1872 55.2014 41.0545 55.9062 41.8723C56.7763 43.32 59.4747 45.0771 59.4747 45.0771C59.1553 45.0108 57.338 43.5521 56.4569 42.6127C55.5868 41.6734 55.2785 40.0268 57.7566 41.5076C57.7566 41.5076 60.3889 43.1764 61.3801 43.6405C61.3801 43.6405 65.6424 44.4804 66.92 46.0275C67.7901 47.0663 73.1098 57.0233 76.491 63.4109C79.652 59.6535 82.6588 56.0398 82.6588 56.0398L100.072 57.7417C100.072 57.7417 99.2896 59.0567 87.1304 73.821C80.9847 81.2804 76.5021 82.264 73.5504 80.7942C71.9423 80.2306 70.3013 78.374 69.9488 76.8932L62.6907 50.8568C60.1025 50.249 58.2742 49.4534 57.0737 48.6798C55.5098 47.6741 51.5007 42.5133 51.4457 41.9607C51.2915 40.502 53.4942 41.4082 55.1353 43.8394" fill="white"/>
<path fill-rule="evenodd" clip-rule="evenodd" d="M62.4246 51.1342L62.3822 51.124C60.0682 50.5609 58.2192 49.8121 56.8952 48.959C55.4402 48.0234 51.1961 42.7916 51.1168 41.9958C51.0099 40.9843 51.7849 40.6817 52.7578 41.1415C52.9243 41.2202 53.0959 41.3183 53.2702 41.4341L53.3361 41.4786L53.3367 41.4744C53.3474 41.3909 53.3794 41.3134 53.4374 41.2429L53.4539 41.2238C53.6585 40.9878 54.1453 40.8812 54.651 40.9246C54.9509 40.9503 55.2399 41.0263 55.5016 41.1541L55.5085 41.1576L55.5093 41.1531C55.515 41.1238 55.5221 41.0952 55.5309 41.0675L55.5402 41.04C55.6649 40.6936 55.9968 40.5395 56.4273 40.5947C56.8064 40.6432 57.3019 40.8503 57.9328 41.2274L58.1932 41.3913C58.2861 41.4496 58.386 41.5119 58.4916 41.5777L58.8549 41.8027C59.1578 41.9895 59.4602 42.1736 59.7523 42.3488L60.043 42.5221C60.6574 42.886 61.1466 43.16 61.4623 43.3128L61.4844 43.3234L61.6626 43.3616L61.7048 43.3709C61.9097 43.4165 62.1378 43.4709 62.3832 43.5339C63.085 43.714 63.7872 43.9276 64.4445 44.1747C65.7077 44.6494 66.6558 45.1883 67.1727 45.8143C67.8756 46.6535 71.147 52.6332 75.8733 61.5398L76.5533 62.8224L77.6187 61.5538C78.2913 60.7522 78.9729 59.9383 79.6542 59.1236L81.4295 56.9979L82.4049 55.8274C82.4702 55.7488 82.5677 55.7053 82.6688 55.7085L82.6905 55.7099L100.103 57.4117C100.345 57.4353 100.479 57.7028 100.355 57.9116L100.332 57.9485C100.292 58.0092 100.215 58.1175 100.086 58.2928L100.024 58.3762C99.7071 58.8021 99.2167 59.4387 98.5163 60.3278L98.0178 60.9584C95.8391 63.706 92.3866 67.9589 87.3848 74.0322C84.4454 77.6 81.7392 79.8742 79.2752 80.9597C77.098 81.9187 75.1388 81.9336 73.4591 81.1187L73.4213 81.1001L73.3908 81.0892C71.7458 80.4871 70.0455 78.6203 69.6392 77.0191L69.6304 76.9825L62.4246 51.1342ZM51.7716 41.901L51.7741 41.9246C51.7745 41.9182 51.7824 41.9394 51.7983 41.9726C51.8226 42.0233 51.8582 42.0883 51.9041 42.1658L51.9218 42.1955C52.0336 42.3813 52.1956 42.6246 52.3976 42.9105L52.4912 43.0419C52.8586 43.5543 53.3237 44.1632 53.8198 44.78L53.9499 44.9411C55.3118 46.62 56.5833 47.9709 57.252 48.4008C58.5526 49.2389 60.4119 49.9813 62.7658 50.5341C62.8763 50.56 62.9652 50.6408 63.0024 50.7473L63.0087 50.7676L70.2668 76.8039L70.27 76.8162C70.6049 78.2233 72.193 79.9674 73.6591 80.4812C73.6721 80.4858 73.6847 80.4911 73.697 80.4972C75.2079 81.2496 76.9821 81.2457 79.0096 80.3525C81.3433 79.3245 83.944 77.1482 86.7892 73.7142L88.4187 71.7339C92.5943 66.6524 95.5562 62.9979 97.5003 60.5461L98.0449 59.8568C98.5918 59.1622 99.0062 58.6269 99.3063 58.2302L99.4674 58.0156L82.8003 56.3867L81.0133 58.5293L79.9358 59.8184C78.8574 61.1076 77.7807 62.3916 76.7433 63.6247C76.5924 63.8041 76.3087 63.7737 76.199 63.5664L75.292 61.8551C70.6388 53.0872 67.3226 47.0237 66.6654 46.2391C66.2398 45.7237 65.3761 45.2327 64.2128 44.7956C63.5801 44.5578 62.9 44.3509 62.2195 44.1762C61.9812 44.1151 61.76 44.0624 61.5618 44.0182L61.4114 43.9855L61.3162 43.9658C61.29 43.9607 61.2644 43.9523 61.2402 43.9409C60.893 43.7784 60.3456 43.4723 59.6456 43.0566L59.4133 42.9179C59.0599 42.706 58.692 42.4812 58.3262 42.2546L57.9 41.9893L57.5873 41.7925C57.0348 41.4624 56.6156 41.2872 56.3436 41.2524C56.1942 41.2332 56.1691 41.2449 56.1617 41.2653C56.1119 41.4036 56.2271 41.7368 56.4461 42.0656L56.4647 42.0931L56.4845 42.1181C56.5237 42.1669 56.565 42.2163 56.6083 42.2665L56.6522 42.317C56.9498 42.6547 57.3288 43.0153 57.7698 43.3883C58.1818 43.7368 58.6244 44.0767 59.0672 44.3937L59.1813 44.4749C59.2558 44.5276 59.3274 44.5775 59.3955 44.6244L59.5463 44.7271L59.6544 44.7991C59.9609 44.9987 59.7654 45.4761 59.4076 45.4018C58.9824 45.3136 57.1152 43.7985 56.2147 42.8385C56.1152 42.731 56.023 42.6172 55.9402 42.5L55.9199 42.471L55.8803 42.4197C55.7966 42.3097 55.7215 42.2019 55.6554 42.0962L55.6399 42.071L55.6291 42.0588C55.3815 41.789 55.029 41.6317 54.6384 41.5894L54.5948 41.5852C54.4195 41.5702 54.2494 41.5802 54.1117 41.6104C54.0826 41.6168 54.0558 41.6238 54.032 41.6313L54.0271 41.633L54.0287 41.6366C54.0705 41.73 54.1452 41.8569 54.2562 42.0227L54.3059 42.0961C54.4698 42.3352 55.3459 43.5162 55.5568 43.8107C55.6154 43.8919 55.6788 43.9749 55.7466 44.0597C56.0215 44.403 56.3656 44.7685 56.7628 45.1466C57.1506 45.5157 57.567 45.8764 57.9835 46.2134C58.0929 46.3019 58.1963 46.3839 58.2924 46.4587L58.4342 46.568L58.5358 46.6445C58.6828 46.753 58.7144 46.9605 58.6063 47.108C58.4982 47.2555 58.2914 47.2872 58.1444 47.1788L58.0582 47.114L57.9841 47.0575C57.8586 46.961 57.719 46.8511 57.5687 46.7296C57.1393 46.3822 56.7098 46.0101 56.308 45.6277C55.8908 45.2305 55.527 44.844 55.2315 44.4749C55.1755 44.4051 55.1222 44.336 55.0712 44.2673L54.968 44.1253L54.9591 44.1202C54.9269 44.0998 54.8977 44.0736 54.8733 44.0417L54.8615 44.0254C54.1251 42.9344 53.2187 42.0922 52.4762 41.7413C52.1797 41.6011 51.9532 41.5641 51.846 41.606C51.7881 41.6286 51.7539 41.7013 51.7716 41.901Z" fill="#000091"/>
<path fill-rule="evenodd" clip-rule="evenodd" d="M76.4912 63.4109C76.4912 63.4109 81.4254 70.0084 79.509 74.0641L76.4912 63.4109Z" fill="white"/>
<path fill-rule="evenodd" clip-rule="evenodd" d="M76.2928 63.1457C76.4387 63.0358 76.6458 63.0655 76.7554 63.2119L76.7968 63.2683C76.8294 63.3132 76.8671 63.3657 76.9094 63.4257L76.9832 63.5311C77.0837 63.6758 77.1925 63.8366 77.3077 64.0122C77.7186 64.6386 78.1295 65.3263 78.5132 66.0549C79.2663 67.4848 79.8215 68.8928 80.0952 70.2199C80.4082 71.7369 80.338 73.0832 79.8074 74.2062C79.7292 74.3716 79.5322 74.4421 79.3673 74.3637C79.2024 74.2853 79.1321 74.0875 79.2103 73.9221C79.6715 72.946 79.7343 71.7415 79.4481 70.3543C79.1886 69.0965 78.6553 67.7439 77.9289 66.3647C77.5557 65.6562 77.1556 64.9864 76.7557 64.3768L76.664 64.2381C76.5739 64.1029 76.4887 63.9782 76.4093 63.8647L76.3238 63.7436L76.2268 63.6099C76.1173 63.4634 76.1468 63.2556 76.2928 63.1457Z" fill="#000091"/>
<path fill-rule="evenodd" clip-rule="evenodd" d="M118.608 45.9726C124.258 47.6965 131.615 55.808 131.615 55.808L120.832 67.6548L125.48 98.1999L86.888 98.4652L89.3551 78.6948C89.3551 78.6948 85.2139 75.1585 85.2689 70.3954C85.324 65.6324 85.5002 65.8203 85.5002 65.8203L79.8281 58.836C79.8281 58.836 84.3328 50.9566 89.1128 49.1332C93.8927 47.3098 113.189 44.3149 118.608 45.9726Z" fill="#6A6AF4"/>
<path fill-rule="evenodd" clip-rule="evenodd" d="M96.3045 43.6185L96.6349 47.3649L94.3881 47.9395C93.4409 48.5252 92.9783 55.6753 99.939 54.9569C106.9 54.2386 110.832 49.7187 111.79 45.7404L108.706 45.884L106.746 36.4685L96.3045 43.6185Z" fill="white"/>
<path fill-rule="evenodd" clip-rule="evenodd" d="M96.1183 43.3447L96.1003 43.358C96.013 43.4269 95.9656 43.5357 95.9755 43.6478L96.281 47.1131L94.3066 47.6183C94.2742 47.6265 94.2433 47.6397 94.2148 47.6573C93.4786 48.1125 93.2746 50.3436 93.8874 52.0497C94.7111 54.3433 96.7432 55.62 99.9729 55.2867C103.312 54.9421 106.152 53.7187 108.332 51.8216C110.264 50.1398 111.588 47.989 112.111 45.8182L112.115 45.7987C112.153 45.5912 111.988 45.3993 111.775 45.4092L108.972 45.5397L107.069 36.4007C107.021 36.1694 106.754 36.0615 106.559 36.1947L96.1183 43.3447ZM106.524 37.022L108.383 45.9517L108.388 45.9714C108.428 46.1202 108.566 46.2223 108.722 46.2151L111.354 46.0924L111.341 46.1379C110.781 48.0114 109.586 49.8523 107.899 51.3206C105.823 53.1279 103.11 54.2963 99.9056 54.6271C96.9774 54.9292 95.23 53.8314 94.5093 51.8248C94.2327 51.0545 94.1354 50.1909 94.2064 49.4143C94.2371 49.0786 94.2986 48.7791 94.3804 48.5508L94.3911 48.5217C94.4412 48.3888 94.4939 48.2952 94.5325 48.2492L94.5376 48.2434L96.7169 47.686L96.7362 47.6805C96.8824 47.6335 96.9781 47.4907 96.9644 47.3356L96.651 43.7827L106.524 37.022Z" fill="#000091"/>
<path fill-rule="evenodd" clip-rule="evenodd" d="M106.778 33.1973L107.737 33.3852C107.737 33.3852 113.31 34.0372 112.99 28.9205C112.748 25.0306 108.937 25.2737 107.109 25.6052" fill="white"/>
<path fill-rule="evenodd" clip-rule="evenodd" d="M107.05 25.2791C108.383 25.0375 109.658 25.0197 110.744 25.3638C112.269 25.8472 113.202 27.0004 113.32 28.9C113.473 31.3504 112.37 32.8069 110.472 33.4254C109.591 33.7129 108.673 33.7817 107.876 33.7296L107.801 33.7242C107.756 33.7206 107.721 33.7173 107.699 33.7146L107.686 33.7129L107.674 33.7107L106.715 33.5228C106.536 33.4877 106.419 33.3136 106.454 33.1339C106.488 32.9606 106.651 32.8454 106.823 32.8689L106.842 32.8721L107.786 33.0571L107.821 33.0606C107.841 33.0624 107.866 33.0643 107.896 33.0664L107.919 33.0679C108.639 33.115 109.479 33.0521 110.268 32.7948C111.891 32.2657 112.794 31.0744 112.661 28.9414C112.56 27.3202 111.814 26.3983 110.545 25.9961C109.582 25.691 108.404 25.7074 107.168 25.9316C106.988 25.9642 106.816 25.8445 106.784 25.6643C106.752 25.4841 106.871 25.3117 107.05 25.2791Z" fill="#000091"/>
<path fill-rule="evenodd" clip-rule="evenodd" d="M86.9095 31.0423C87.0857 33.374 89.1233 44.0052 96.5906 43.9278C104.058 43.8505 108.254 36.5347 108.21 29.5172C108.166 22.4998 104.399 17.0958 99.6745 17.0406C94.9496 16.9853 85.6209 14.1231 86.9095 31.0423Z" fill="white"/>
<path fill-rule="evenodd" clip-rule="evenodd" d="M94.5279 16.5143C91.8913 16.6493 89.9152 17.4894 88.5228 19.4049C86.8606 21.6916 86.1691 25.417 86.5675 30.9011L86.5799 31.0676C86.7271 33.0164 87.4979 36.0841 88.7202 38.537C90.5252 42.1593 93.1247 44.2956 96.5939 44.2596C100.237 44.2219 103.313 42.5024 105.484 39.5209C107.469 36.7934 108.563 33.1592 108.54 29.5154C108.496 22.373 104.639 16.7674 99.6782 16.7094L99.4259 16.7046C99.1932 16.6983 98.955 16.6858 98.5623 16.6596L97.424 16.5799C96.1538 16.4931 95.388 16.4703 94.5279 16.5143ZM98.5265 17.3219C99.0668 17.3579 99.3214 17.3684 99.6703 17.3725C104.209 17.4255 107.837 22.6986 107.879 29.5197C107.901 33.0256 106.849 36.5209 104.95 39.1299C102.898 41.9485 100.013 43.5612 96.5869 43.5967C93.4126 43.6296 91.0143 41.6587 89.3111 38.2406C88.1447 35.9001 87.399 32.9614 87.2443 31.0898L87.2386 31.0174C86.8248 25.5847 87.4862 21.956 89.0565 19.7957C90.3026 18.0815 92.0697 17.3181 94.4856 17.1807L94.5613 17.1766C95.3894 17.1342 96.1354 17.1565 97.3825 17.2417L98.5265 17.3219Z" fill="#000091"/>
<rect width="2.67733" height="4.73918" transform="matrix(0.944054 0.329792 -0.32781 0.944744 107.82 7.77588)" fill="#F95C5E"/>
<path fill-rule="evenodd" clip-rule="evenodd" d="M110.579 9.48182C113.188 9.48182 115.304 7.35924 115.304 4.74091C115.304 2.12258 113.188 0 110.579 0C107.969 0 105.854 2.12258 105.854 4.74091C105.854 7.35924 107.969 9.48182 110.579 9.48182Z" fill="#000091"/>
<path fill-rule="evenodd" clip-rule="evenodd" d="M106.47 10.7748C102.274 9.43758 97.7694 8.81872 93.8044 10.399C81.7883 15.8472 81.7663 24.9422 86.8106 29.0753C86.6234 22.6326 88.1874 19.5162 90.3901 18.0464C92.8021 21.9032 100.589 25.2406 107.715 25.318C107.726 25.3843 107.748 25.4506 107.759 25.5058C109.719 25.2627 112.792 25.4395 113.001 28.9206C113.299 33.7168 108.431 33.4516 107.814 33.3963C107.737 33.772 106.735 37.2089 106.735 37.2089L107.814 42.1266L123.663 39.6512C124.621 39.6291 125.282 38.6787 124.973 37.7725C123.068 32.0812 119.962 15.2615 106.47 10.7748Z" fill="#000091"/>
<path fill-rule="evenodd" clip-rule="evenodd" d="M97.6248 36.0923L97.5881 36.0929L97.5067 36.0966L97.452 36.0998C97.3339 36.107 97.1897 36.1178 97.0348 36.1316C96.6118 36.1693 96.1769 36.2222 95.7712 36.2907C95.2445 36.3795 94.8013 36.4886 94.4656 36.6229C93.9852 36.815 93.6948 37.0649 93.6948 37.4409C93.6948 38.1011 94.6499 38.6686 95.6068 38.6814C96.7613 38.6968 97.666 37.9561 97.9511 36.4876C97.9551 36.4667 97.9572 36.4455 97.9572 36.4242L97.9354 36.3398C97.9042 36.2228 97.8923 36.2132 97.8208 36.1559L97.7761 36.129C97.7585 36.119 97.7512 36.1165 97.7314 36.1097L97.6899 36.0986C97.6838 36.0973 97.6793 36.0967 97.6713 36.0956L97.6416 36.0928L97.6248 36.0923ZM97.1937 36.7835L97.1846 36.8109C96.8976 37.6497 96.3329 38.028 95.6159 38.0184C95.2795 38.014 94.937 37.9165 94.6761 37.7615L94.6504 37.7458C94.4736 37.6357 94.3742 37.5203 94.3583 37.4575L94.3569 37.4507L94.3622 37.4437C94.3695 37.4347 94.3804 37.4235 94.3954 37.4106C94.4587 37.3561 94.5658 37.2968 94.7106 37.2389C94.9946 37.1254 95.3967 37.0264 95.8811 36.9446C96.2681 36.8793 96.6865 36.8284 97.0935 36.7922L97.1937 36.7835Z" fill="#000091"/>
<path fill-rule="evenodd" clip-rule="evenodd" d="M92.7202 25.0974C92.896 25.1065 93.0325 25.2518 93.0336 25.4261L93.0331 25.4456L92.5908 34.0133L94.4248 33.7856C94.5994 33.7639 94.7591 33.8831 94.7903 34.0546L94.7933 34.0739C94.8149 34.2491 94.696 34.4093 94.5251 34.4407L94.5059 34.4436L92.2812 34.7199C92.0838 34.7444 91.9114 34.5901 91.9102 34.3935L91.9106 34.3737L92.3732 25.4113C92.3823 25.235 92.5271 25.098 92.7008 25.0969L92.7202 25.0974Z" fill="#000091"/>
<path fill-rule="evenodd" clip-rule="evenodd" d="M87.9146 25.8282C88.2949 25.762 88.6903 25.7963 89.0728 25.8922C89.2193 25.929 89.3317 25.9665 89.3996 25.9935C89.5692 26.0612 89.652 26.2539 89.5846 26.4241C89.5196 26.5881 89.3387 26.6713 89.1738 26.6164L89.1237 26.5981C89.1159 26.5954 89.1068 26.5923 89.0965 26.5888C89.0425 26.5708 88.9806 26.5526 88.9125 26.5355C88.6119 26.4601 88.304 26.4334 88.0276 26.4815C87.6582 26.5458 87.3829 26.736 87.2066 27.0989C87.1266 27.2635 86.9288 27.3319 86.7648 27.2516C86.6008 27.1714 86.5326 26.9729 86.6126 26.8083C86.8868 26.2442 87.3453 25.9273 87.9146 25.8282Z" fill="#000091"/>
<path fill-rule="evenodd" clip-rule="evenodd" d="M99.5095 26.7878C99.5095 26.7878 96.8001 27.1857 96.4697 25.4175L99.5095 26.7878Z" fill="white"/>
<path fill-rule="evenodd" clip-rule="evenodd" d="M96.4092 25.0917C96.5886 25.0579 96.7612 25.1765 96.7949 25.3564C96.9026 25.9329 97.3365 26.2666 98.0413 26.4147C98.4528 26.5012 98.8986 26.5116 99.305 26.4767L99.3688 26.4707L99.4245 26.4646C99.4442 26.4623 99.4569 26.4606 99.4621 26.4598C99.6426 26.4333 99.8104 26.5587 99.8369 26.7399C99.8633 26.921 99.7383 27.0894 99.5578 27.1159L99.5097 27.1223C99.4716 27.1269 99.4217 27.1322 99.3614 27.1373C98.8963 27.1773 98.3901 27.1655 97.9058 27.0637C96.9656 26.866 96.3105 26.3623 96.1454 25.4786C96.1117 25.2987 96.2299 25.1254 96.4092 25.0917Z" fill="#000091"/>
<path fill-rule="evenodd" clip-rule="evenodd" d="M98.4284 29.8097C98.8311 29.7467 99.0786 29.1873 98.9812 28.5601C98.8839 27.9329 98.4785 27.4755 98.0758 27.5384C97.6731 27.6013 97.4256 28.1608 97.523 28.788C97.6203 29.4152 98.0257 29.8726 98.4284 29.8097Z" fill="#000091"/>
<path fill-rule="evenodd" clip-rule="evenodd" d="M90.2345 31.2892C90.6372 31.2262 90.8848 30.6668 90.7874 30.0396C90.69 29.4124 90.2847 28.955 89.882 29.0179C89.4793 29.0808 89.2318 29.6403 89.3291 30.2675C89.4265 30.8947 89.8318 31.3521 90.2345 31.2892Z" fill="#000091"/>
<path fill-rule="evenodd" clip-rule="evenodd" d="M98.6441 20.6785C95.8715 21.101 94.1044 24.3537 94.6408 27.9143C95.1772 31.4748 97.823 34.0551 100.596 33.6326C103.368 33.2101 105.135 29.9573 104.599 26.3968C104.063 22.8363 101.417 20.256 98.6441 20.6785ZM98.7426 21.3338C101.109 20.9733 103.458 23.2646 103.945 26.4965C104.432 29.7284 102.863 32.6168 100.497 32.9773C98.1305 33.3379 95.7811 31.0466 95.2942 27.8147C94.8073 24.5828 96.3765 21.6944 98.7426 21.3338Z" fill="#F95C5E"/>
<path fill-rule="evenodd" clip-rule="evenodd" d="M85.9225 22.9443C83.1499 23.3668 81.3828 26.6196 81.9192 30.1801C82.4555 33.7406 85.1013 36.3209 87.874 35.8984C90.6466 35.4759 92.4137 32.2232 91.8773 28.6626C91.3409 25.1021 88.6951 22.5218 85.9225 22.9443ZM86.0211 23.5997C88.3872 23.2392 90.7366 25.5305 91.2235 28.7624C91.7104 31.9943 90.1412 34.8827 87.7751 35.2432C85.409 35.6038 83.0595 33.3125 82.5727 30.0806C82.0858 26.8487 83.655 23.9603 86.0211 23.5997Z" fill="#F95C5E"/>
<path fill-rule="evenodd" clip-rule="evenodd" d="M94.7829 26.8812C94.9627 26.8499 95.1338 26.9707 95.165 27.1511C95.1951 27.3251 95.0841 27.4909 94.9149 27.5306L94.8959 27.5345L91.4045 28.1423C91.2247 28.1736 91.0537 28.0527 91.0225 27.8723C90.9924 27.6983 91.1034 27.5325 91.2725 27.4928L91.2916 27.489L94.7829 26.8812Z" fill="#F95C5E"/>
<path fill-rule="evenodd" clip-rule="evenodd" d="M104.256 24.8879L108.672 25.1752C108.854 25.1871 108.992 25.3448 108.98 25.5275C108.969 25.7037 108.823 25.8388 108.649 25.8376L108.629 25.8369L104.213 25.5496C104.031 25.5377 103.893 25.38 103.905 25.1973C103.916 25.0211 104.062 24.886 104.236 24.8872L104.256 24.8879Z" fill="#F95C5E"/>
<path fill-rule="evenodd" clip-rule="evenodd" d="M165.67 97.9788C165.852 97.9788 166 98.1272 166 98.3103C166 98.4869 165.862 98.6312 165.689 98.6413L165.67 98.6418H0.330414C0.147931 98.6418 0 98.4934 0 98.3103C0 98.1337 0.137554 97.9894 0.311 97.9793L0.330414 97.9788H165.67Z" fill="#000091"/>
</svg>
