<svg width="234" height="139" viewBox="0 0 234 139" fill="none" xmlns="http://www.w3.org/2000/svg">
<path fill-rule="evenodd" clip-rule="evenodd" d="M61.2132 118.094C63.1033 104.82 67.2396 75.874 54.8615 62.2132C42.4834 48.5525 40.5159 51.8013 38.3625 40.5695C36.2091 29.3377 24.7915 24.7892 19.044 31.3179C13.2809 37.8312 20.2059 50.3161 22.4367 53.039C24.6676 55.7619 22.6536 72.5323 29.9194 84.1354C37.1851 95.7386 48.8506 87.4307 48.3549 97.5177C49.021 117.398 61.2132 118.094 61.2132 118.094Z" fill="#FAA184"/>
<path fill-rule="evenodd" clip-rule="evenodd" d="M24.4354 35.6437C24.6526 35.5071 24.9395 35.5722 25.0763 35.7891L25.2784 36.1119L25.6845 36.7661C25.9826 37.2484 26.3173 37.7939 26.6861 38.3994L27.0385 38.9794C28.225 40.9362 29.5295 43.129 30.9245 45.5251C35.3086 53.0555 39.6927 61.0489 43.785 69.1588C47.1606 75.8482 50.1906 82.3327 52.7889 88.5099C57.7083 100.205 60.9196 110.407 62.061 118.696C62.0959 118.95 61.9181 119.184 61.6639 119.219C61.4096 119.254 61.1751 119.076 61.1401 118.822C60.0118 110.627 56.8226 100.497 51.9319 88.8694C49.3425 82.7133 46.3214 76.2479 42.9549 69.5765C38.8717 61.4846 34.4963 53.507 30.1209 45.9917L29.569 45.0461C28.2926 42.8655 27.0983 40.8656 26.0083 39.073L25.4381 38.1388C25.2933 37.9024 25.1549 37.6772 25.0231 37.4636L24.4261 36.5012L24.2898 36.2838C24.153 36.0669 24.2182 35.7803 24.4354 35.6437Z" fill="white"/>
<path fill-rule="evenodd" clip-rule="evenodd" d="M67.8903 14.5629C55.791 13.4026 53.2813 25.6555 52.894 36.021C52.5067 46.3864 54.4277 50.1149 48.5253 55.6225C42.6228 61.1456 52.2278 68.6026 51.4068 74.0793C50.5857 79.5559 44.9156 94.1914 66.9608 126.618C67.7663 127.794 68.9128 137.262 68.9128 137.262L73.6843 135.978C73.6843 135.978 70.6169 128.289 74.0871 118.976C77.5573 109.647 83.4443 105.269 84.002 93.6035C84.5597 81.9385 76.2095 84.1972 77.7432 76.5237C79.2769 68.8501 87.1159 63.5436 86.5117 55.8546C85.9075 48.1501 71.4225 42.5497 74.6293 33.6849C77.8362 24.8046 78.3629 15.5685 67.8903 14.5629Z" fill="#FAA184"/>
<path fill-rule="evenodd" clip-rule="evenodd" d="M63.3269 18.6863C63.5618 18.764 63.693 19.011 63.6297 19.2467L63.5574 19.4738L63.501 19.6549C63.4615 19.783 63.4182 19.9258 63.3714 20.0831L63.3071 20.3008C63.1227 20.9293 62.9202 21.6584 62.7038 22.4855L62.6094 22.8489C61.9489 25.4123 61.2899 28.3835 60.6728 31.7387C58.5226 43.4298 57.3847 56.8275 57.7977 71.6137C58.3373 90.9317 61.5048 111.003 67.8386 131.51C67.9143 131.754 67.7768 132.014 67.5315 132.09C67.2862 132.165 67.0261 132.028 66.9504 131.783C60.591 111.194 57.4104 91.0395 56.8685 71.6396C56.4536 56.786 57.597 43.3237 59.7586 31.571L59.8476 31.0912C60.4727 27.7508 61.1384 24.7961 61.8045 22.2508L61.919 21.8174C62.095 21.1574 62.2612 20.5643 62.4152 20.0394L62.4804 19.8186C62.5441 19.6047 62.6015 19.4166 62.6521 19.2548L62.7395 18.9809C62.8203 18.7375 63.0832 18.6057 63.3269 18.6863Z" fill="white"/>
<path fill-rule="evenodd" clip-rule="evenodd" d="M67.1776 117.042C63.0258 106.568 53.9784 83.7022 39.323 78.7979C24.6675 73.8936 24.6056 77.0652 18.3623 69.732C12.119 62.3988 1.97173 63.7602 0.515478 70.8768C-0.940772 77.9934 9.26847 84.2746 12.0106 85.3575C14.7526 86.4405 20.2833 99.5134 30.3686 105.021C40.4539 110.529 45.4423 99.6835 49.2844 107.264C58.0528 121.513 67.1776 117.042 67.1776 117.042Z" fill="#FAA184"/>
<path fill-rule="evenodd" clip-rule="evenodd" d="M5.41786 70.0745C5.51571 69.8474 5.77341 69.7382 6.0031 69.8216L6.04078 69.8369L6.19806 69.9054C6.30187 69.9509 6.41963 70.0029 6.55098 70.0613L6.68685 70.1219C7.22085 70.3605 7.83994 70.6429 8.53706 70.9679L9.14097 71.251C10.9728 72.1141 12.9839 73.1025 15.1329 74.2089C21.9555 77.7212 28.7782 81.6978 35.1483 86.0605C41.6571 90.5182 47.3265 95.1366 51.9154 99.8761C57.2334 105.369 60.9798 110.902 62.9071 116.441C62.9914 116.683 62.8631 116.947 62.6206 117.032C62.3782 117.116 62.1133 116.988 62.0291 116.745C58.4901 106.575 48.7113 96.475 34.6226 86.8261C28.2874 82.4873 21.4973 78.5297 14.707 75.0339L14.234 74.7912C12.1941 73.7476 10.2847 72.8136 8.54282 71.9957L8.14384 71.809C7.53788 71.5265 6.9916 71.2765 6.50977 71.06L5.98849 70.8275L5.66103 70.6843C5.42526 70.5829 5.31639 70.3099 5.41786 70.0745Z" fill="white"/>
<path fill-rule="evenodd" clip-rule="evenodd" d="M61.8174 119.687C62.0653 107.589 62.623 81.1804 75.5433 70.7685C88.4637 60.3566 89.7185 63.5281 93.2507 53.8125C96.7829 44.0968 107.519 41.6678 111.655 48.2894C115.792 54.9109 107.875 65.0598 105.52 67.1638C103.166 69.2678 102.499 84.5066 94.3971 93.8355C86.2948 103.149 77.2165 94.0985 76.194 103.164C72.6773 120.77 61.8174 119.687 61.8174 119.687Z" fill="#FAA184"/>
<path fill-rule="evenodd" clip-rule="evenodd" d="M106.507 49.3769C106.684 49.5623 106.678 49.8561 106.492 50.0331L106.228 50.2875L105.904 50.6044C105.603 50.9001 105.265 51.2354 104.893 51.609L104.517 51.987C103.241 53.2774 101.832 54.7436 100.323 56.3676C95.6922 61.3516 91.0609 66.7925 86.7392 72.5091C79.4853 82.1043 73.8569 91.4838 70.4856 100.271C68.1155 106.449 66.9222 112.198 67.0381 117.434C67.0437 117.69 66.8403 117.902 66.5837 117.908C66.3271 117.914 66.1144 117.711 66.1088 117.454C65.9899 112.086 67.2073 106.222 69.6176 99.9392C73.0246 91.0588 78.6953 81.6087 85.9974 71.9498C90.243 66.3339 94.7841 60.9849 99.3319 56.0706L99.642 55.7362C101.216 54.0424 102.681 52.519 104.003 51.1863L104.418 50.7694C104.721 50.4667 104.999 50.1907 105.252 49.9423L105.621 49.5823L105.85 49.3615C106.036 49.1845 106.33 49.1914 106.507 49.3769Z" fill="white"/>
<path fill-rule="evenodd" clip-rule="evenodd" d="M78.9361 138.175L84.7146 111.627C85.1949 109.616 83.6302 107.698 81.5233 107.698H45.5818C43.4749 107.698 41.9257 109.6 42.3749 111.596L48.2774 138.005" fill="#E4794A"/>
<rect x="86.3875" y="96.2705" width="41.9879" height="10.5191" transform="rotate(90 86.3875 96.2705)" fill="#065666"/>
<rect x="83.6736" y="99.8442" width="19.5552" height="5.65459" transform="rotate(90 83.6736 99.8442)" fill="white"/>
<rect x="83.6723" y="120.218" width="1.82556" height="5.65459" transform="rotate(90 83.6723 120.218)" fill="#E4794A"/>
<path fill-rule="evenodd" clip-rule="evenodd" d="M80.7487 128.599C79.3969 128.599 78.301 129.693 78.301 131.043C78.301 132.393 79.3969 133.487 80.7487 133.487C82.1006 133.487 83.1964 132.393 83.1964 131.043C83.1964 129.693 82.1006 128.599 80.7487 128.599ZM80.7487 129.527C81.5872 129.527 82.2669 130.206 82.2669 131.043C82.2669 131.88 81.5872 132.559 80.7487 132.559C79.9102 132.559 79.2305 131.88 79.2305 131.043C79.2305 130.206 79.9102 129.527 80.7487 129.527Z" fill="white"/>
<path fill-rule="evenodd" clip-rule="evenodd" d="M83.026 104.031C83.2827 104.031 83.4908 104.239 83.4908 104.495C83.4908 104.742 83.2973 104.944 83.0533 104.958L83.026 104.959H78.8277C78.571 104.959 78.3629 104.751 78.3629 104.495C78.3629 104.248 78.5564 104.046 78.8004 104.032L78.8277 104.031H83.026Z" fill="#E4794A"/>
<path fill-rule="evenodd" clip-rule="evenodd" d="M83.026 106.181C83.2827 106.181 83.4908 106.389 83.4908 106.646C83.4908 106.893 83.2973 107.095 83.0533 107.109L83.026 107.11H78.8277C78.571 107.11 78.3629 106.902 78.3629 106.646C78.3629 106.398 78.5564 106.196 78.8004 106.182L78.8277 106.181H83.026Z" fill="#E4794A"/>
<path fill-rule="evenodd" clip-rule="evenodd" d="M83.026 108.332C83.2827 108.332 83.4908 108.54 83.4908 108.796C83.4908 109.043 83.2973 109.245 83.0533 109.259L83.026 109.26H78.8277C78.571 109.26 78.3629 109.052 78.3629 108.796C78.3629 108.549 78.5564 108.347 78.8004 108.333L78.8277 108.332H83.026Z" fill="#E4794A"/>
<rect x="96.8787" y="96.3071" width="41.9879" height="10.5191" transform="rotate(90 96.8787 96.3071)" fill="#065666"/>
<rect x="94.1493" y="99.8809" width="19.5552" height="5.65459" transform="rotate(90 94.1493 99.8809)" fill="white"/>
<rect x="94.1635" y="120.255" width="1.82556" height="5.65459" transform="rotate(90 94.1635 120.255)" fill="#E4794A"/>
<path fill-rule="evenodd" clip-rule="evenodd" d="M91.2213 128.645C89.8694 128.645 88.7736 129.739 88.7736 131.089C88.7736 132.439 89.8694 133.534 91.2213 133.534C92.5731 133.534 93.669 132.439 93.669 131.089C93.669 129.739 92.5731 128.645 91.2213 128.645ZM91.2213 129.573C92.0598 129.573 92.7395 130.252 92.7395 131.089C92.7395 131.927 92.0598 132.606 91.2213 132.606C90.3828 132.606 89.7031 131.927 89.7031 131.089C89.7031 130.252 90.3828 129.573 91.2213 129.573Z" fill="white"/>
<path fill-rule="evenodd" clip-rule="evenodd" d="M93.4522 113.035C93.7088 113.035 93.9169 113.243 93.9169 113.499C93.9169 113.746 93.7234 113.948 93.4795 113.962L93.4522 113.963H89.2538C88.9971 113.963 88.7891 113.755 88.7891 113.499C88.7891 113.252 88.9825 113.05 89.2265 113.036L89.2538 113.035H93.4522Z" fill="#E4794A"/>
<path fill-rule="evenodd" clip-rule="evenodd" d="M93.4522 101.911C93.7088 101.911 93.9169 102.119 93.9169 102.376C93.9169 102.623 93.7234 102.825 93.4795 102.839L93.4522 102.84H89.2538C88.9971 102.84 88.7891 102.632 88.7891 102.376C88.7891 102.128 88.9825 101.926 89.2265 101.912L89.2538 101.911H93.4522Z" fill="#E4794A"/>
<path fill-rule="evenodd" clip-rule="evenodd" d="M93.4522 115.185C93.7088 115.185 93.9169 115.393 93.9169 115.649C93.9169 115.897 93.7234 116.099 93.4795 116.113L93.4522 116.114H89.2538C88.9971 116.114 88.7891 115.906 88.7891 115.649C88.7891 115.402 88.9825 115.2 89.2265 115.186L89.2538 115.185H93.4522Z" fill="#E4794A"/>
<path fill-rule="evenodd" clip-rule="evenodd" d="M93.4522 117.336C93.7088 117.336 93.9169 117.543 93.9169 117.8C93.9169 118.047 93.7234 118.249 93.4795 118.263L93.4522 118.264H89.2538C88.9971 118.264 88.7891 118.056 88.7891 117.8C88.7891 117.553 88.9825 117.351 89.2265 117.336L89.2538 117.336H93.4522Z" fill="#E4794A"/>
<rect x="128.173" y="96.3066" width="41.9879" height="10.5191" transform="rotate(90 128.173 96.3066)" fill="#065666"/>
<rect x="125.443" y="99.8804" width="19.5552" height="5.65459" transform="rotate(90 125.443 99.8804)" fill="white"/>
<rect x="125.458" y="120.254" width="1.82555" height="5.65459" transform="rotate(90 125.458 120.254)" fill="#E4794A"/>
<path fill-rule="evenodd" clip-rule="evenodd" d="M122.515 128.645C121.163 128.645 120.067 129.739 120.067 131.089C120.067 132.439 121.163 133.534 122.515 133.534C123.867 133.534 124.963 132.439 124.963 131.089C124.963 129.739 123.867 128.645 122.515 128.645ZM122.515 129.573C123.354 129.573 124.033 130.252 124.033 131.089C124.033 131.927 123.354 132.605 122.515 132.605C121.677 132.605 120.997 131.927 120.997 131.089C120.997 130.252 121.677 129.573 122.515 129.573Z" fill="white"/>
<path fill-rule="evenodd" clip-rule="evenodd" d="M124.746 113.035C125.003 113.035 125.211 113.242 125.211 113.499C125.211 113.746 125.017 113.948 124.773 113.962L124.746 113.963H120.548C120.291 113.963 120.083 113.755 120.083 113.499C120.083 113.252 120.276 113.05 120.52 113.035L120.548 113.035H124.746Z" fill="#E4794A"/>
<path fill-rule="evenodd" clip-rule="evenodd" d="M124.746 101.911C125.003 101.911 125.211 102.119 125.211 102.375C125.211 102.622 125.017 102.824 124.773 102.839L124.746 102.839H120.548C120.291 102.839 120.083 102.632 120.083 102.375C120.083 102.128 120.276 101.926 120.52 101.912L120.548 101.911H124.746Z" fill="#065666"/>
<path fill-rule="evenodd" clip-rule="evenodd" d="M124.746 115.185C125.003 115.185 125.211 115.393 125.211 115.649C125.211 115.896 125.017 116.098 124.773 116.113L124.746 116.113H120.548C120.291 116.113 120.083 115.906 120.083 115.649C120.083 115.402 120.276 115.2 120.52 115.186L120.548 115.185H124.746Z" fill="#E4794A"/>
<path fill-rule="evenodd" clip-rule="evenodd" d="M124.746 117.335C125.003 117.335 125.211 117.543 125.211 117.8C125.211 118.047 125.017 118.249 124.773 118.263L124.746 118.264H120.548C120.291 118.264 120.083 118.056 120.083 117.8C120.083 117.552 120.276 117.35 120.52 117.336L120.548 117.335H124.746Z" fill="#E4794A"/>
<rect x="76.0248" y="96.3086" width="41.9879" height="10.5191" transform="rotate(90 76.0248 96.3086)" fill="#065666"/>
<rect x="73.2953" y="99.8823" width="19.5552" height="5.65459" transform="rotate(90 73.2953 99.8823)" fill="white"/>
<rect x="73.3095" y="120.256" width="1.82556" height="5.65459" transform="rotate(90 73.3095 120.256)" fill="#E4794A"/>
<path fill-rule="evenodd" clip-rule="evenodd" d="M70.369 128.645C69.0172 128.645 67.9213 129.739 67.9213 131.089C67.9213 132.439 69.0172 133.534 70.369 133.534C71.7209 133.534 72.8167 132.439 72.8167 131.089C72.8167 129.739 71.7209 128.645 70.369 128.645ZM70.369 129.573C71.2075 129.573 71.8872 130.252 71.8872 131.089C71.8872 131.926 71.2075 132.605 70.369 132.605C69.5305 132.605 68.8508 131.926 68.8508 131.089C68.8508 130.252 69.5305 129.573 70.369 129.573Z" fill="white"/>
<path fill-rule="evenodd" clip-rule="evenodd" d="M72.5844 113.035C72.841 113.035 73.0491 113.242 73.0491 113.499C73.0491 113.746 72.8556 113.948 72.6117 113.962L72.5844 113.963H68.386C68.1293 113.963 67.9213 113.755 67.9213 113.499C67.9213 113.252 68.1147 113.05 68.3587 113.035L68.386 113.035H72.5844Z" fill="#E4794A"/>
<path fill-rule="evenodd" clip-rule="evenodd" d="M72.5844 101.911C72.841 101.911 73.0491 102.119 73.0491 102.375C73.0491 102.622 72.8556 102.824 72.6117 102.839L72.5844 102.839H68.386C68.1293 102.839 67.9213 102.632 67.9213 102.375C67.9213 102.128 68.1147 101.926 68.3587 101.912L68.386 101.911H72.5844Z" fill="#E4794A"/>
<path fill-rule="evenodd" clip-rule="evenodd" d="M72.5844 115.185C72.841 115.185 73.0491 115.393 73.0491 115.649C73.0491 115.896 72.8556 116.098 72.6117 116.113L72.5844 116.113H68.386C68.1293 116.113 67.9213 115.906 67.9213 115.649C67.9213 115.402 68.1147 115.2 68.3587 115.186L68.386 115.185H72.5844Z" fill="#E4794A"/>
<path fill-rule="evenodd" clip-rule="evenodd" d="M72.5844 117.336C72.841 117.336 73.0491 117.543 73.0491 117.8C73.0491 118.047 72.8556 118.249 72.6117 118.263L72.5844 118.264H68.386C68.1293 118.264 67.9213 118.056 67.9213 117.8C67.9213 117.553 68.1147 117.351 68.3587 117.336L68.386 117.336H72.5844Z" fill="#E4794A"/>
<rect x="107.338" y="96.3047" width="41.9879" height="10.5191" transform="rotate(90 107.338 96.3047)" fill="#065666"/>
<rect x="104.609" y="99.8784" width="19.5552" height="5.65459" transform="rotate(90 104.609 99.8784)" fill="white"/>
<rect x="104.623" y="120.252" width="1.82556" height="5.65459" transform="rotate(90 104.623 120.252)" fill="#E4794A"/>
<path fill-rule="evenodd" clip-rule="evenodd" d="M101.678 128.645C100.327 128.645 99.2307 129.739 99.2307 131.089C99.2307 132.439 100.327 133.534 101.678 133.534C103.03 133.534 104.126 132.439 104.126 131.089C104.126 129.739 103.03 128.645 101.678 128.645ZM101.678 129.573C102.517 129.573 103.197 130.252 103.197 131.089C103.197 131.927 102.517 132.606 101.678 132.606C100.84 132.606 100.16 131.927 100.16 131.089C100.16 130.252 100.84 129.573 101.678 129.573Z" fill="white"/>
<path fill-rule="evenodd" clip-rule="evenodd" d="M103.909 113.035C104.166 113.035 104.374 113.243 104.374 113.499C104.374 113.746 104.181 113.948 103.937 113.962L103.909 113.963H99.7109C99.4542 113.963 99.2462 113.755 99.2462 113.499C99.2462 113.252 99.4396 113.05 99.6836 113.036L99.7109 113.035H103.909Z" fill="#E4794A"/>
<path fill-rule="evenodd" clip-rule="evenodd" d="M103.909 101.911C104.166 101.911 104.374 102.119 104.374 102.375C104.374 102.622 104.181 102.824 103.937 102.839L103.909 102.839H99.7109C99.4542 102.839 99.2462 102.632 99.2462 102.375C99.2462 102.128 99.4396 101.926 99.6836 101.912L99.7109 101.911H103.909Z" fill="#065666"/>
<path fill-rule="evenodd" clip-rule="evenodd" d="M103.909 115.185C104.166 115.185 104.374 115.393 104.374 115.649C104.374 115.897 104.181 116.099 103.937 116.113L103.909 116.114H99.7109C99.4542 116.114 99.2462 115.906 99.2462 115.649C99.2462 115.402 99.4396 115.2 99.6836 115.186L99.7109 115.185H103.909Z" fill="#E4794A"/>
<path fill-rule="evenodd" clip-rule="evenodd" d="M103.909 117.336C104.166 117.336 104.374 117.543 104.374 117.8C104.374 118.047 104.181 118.249 103.937 118.263L103.909 118.264H99.7109C99.4542 118.264 99.2462 118.056 99.2462 117.8C99.2462 117.553 99.4396 117.351 99.6836 117.336L99.7109 117.336H103.909Z" fill="#E4794A"/>
<rect x="117.701" y="96.2664" width="41.9879" height="10.5191" transform="rotate(90 117.701 96.2664)" fill="#065666"/>
<rect x="114.987" y="99.8403" width="19.5552" height="5.65459" transform="rotate(90 114.987 99.8403)" fill="white"/>
<rect x="114.986" y="120.214" width="1.82556" height="5.65459" transform="rotate(90 114.986 120.214)" fill="#E4794A"/>
<path fill-rule="evenodd" clip-rule="evenodd" d="M112.058 128.598C110.706 128.598 109.61 129.693 109.61 131.043C109.61 132.393 110.706 133.487 112.058 133.487C113.41 133.487 114.506 132.393 114.506 131.043C114.506 129.693 113.41 128.598 112.058 128.598ZM112.058 129.527C112.897 129.527 113.576 130.205 113.576 131.043C113.576 131.88 112.897 132.559 112.058 132.559C111.22 132.559 110.54 131.88 110.54 131.043C110.54 130.205 111.22 129.527 112.058 129.527Z" fill="white"/>
<path fill-rule="evenodd" clip-rule="evenodd" d="M114.351 104.031C114.608 104.031 114.816 104.239 114.816 104.495C114.816 104.742 114.622 104.944 114.378 104.958L114.351 104.959H110.153C109.896 104.959 109.688 104.751 109.688 104.495C109.688 104.248 109.881 104.046 110.125 104.032L110.153 104.031H114.351Z" fill="#E4794A"/>
<path fill-rule="evenodd" clip-rule="evenodd" d="M114.351 106.181C114.608 106.181 114.816 106.389 114.816 106.645C114.816 106.892 114.622 107.095 114.378 107.109L114.351 107.109H110.153C109.896 107.109 109.688 106.902 109.688 106.645C109.688 106.398 109.881 106.196 110.125 106.182L110.153 106.181H114.351Z" fill="#E4794A"/>
<path fill-rule="evenodd" clip-rule="evenodd" d="M114.351 108.332C114.608 108.332 114.816 108.539 114.816 108.796C114.816 109.043 114.622 109.245 114.378 109.259L114.351 109.26H110.153C109.896 109.26 109.688 109.052 109.688 108.796C109.688 108.548 109.881 108.346 110.125 108.332L110.153 108.332H114.351Z" fill="#E4794A"/>
<path fill-rule="evenodd" clip-rule="evenodd" d="M206.451 61.1145C206.451 61.1145 212.663 58.7475 215.932 54.9262C217.884 52.6365 220.378 49.5733 220.223 48.676C219.96 46.9897 216.66 49.9601 216.102 50.3778" fill="white"/>
<path fill-rule="evenodd" clip-rule="evenodd" d="M219.409 47.7237C220.067 47.6052 220.575 47.9153 220.681 48.5972C220.85 49.5747 219.354 51.6288 216.285 55.2277C215.288 56.394 213.977 57.4914 212.428 58.5173C211.157 59.3593 209.797 60.1068 208.438 60.7521C207.962 60.978 207.52 61.1751 207.123 61.3424L206.899 61.4354L206.617 61.5482C206.377 61.6396 206.108 61.5195 206.017 61.28C205.929 61.0491 206.037 60.7915 206.26 60.6914L206.407 60.6332C206.509 60.5924 206.628 60.5436 206.762 60.4871C207.147 60.325 207.576 60.1335 208.039 59.9138C209.361 59.286 210.683 58.5593 211.914 57.7437C213.396 56.7619 214.644 55.718 215.578 54.6254L215.967 54.1671C218.354 51.3368 219.82 49.2974 219.766 48.7641L219.759 48.7134C219.741 48.605 219.73 48.6091 219.574 48.6372C219.299 48.6867 218.887 48.8894 218.386 49.2172C218.213 49.3305 218.032 49.4569 217.843 49.5957L217.699 49.7023C217.263 50.0318 216.372 50.7563 216.381 50.7491C216.176 50.9029 215.885 50.8614 215.731 50.6563C215.583 50.4591 215.615 50.1826 215.801 50.0249L216.167 49.7279C216.479 49.4762 216.931 49.1166 217.192 48.9219C217.43 48.7446 217.658 48.5841 217.877 48.4409C218.474 48.0498 218.981 47.8009 219.409 47.7237Z" fill="#065666"/>
<path fill-rule="evenodd" clip-rule="evenodd" d="M210.138 55.4677C210.138 55.4677 212.741 53.0543 213.949 50.9348C215.142 48.8153 216.118 47.4229 215.762 47.1135C215.405 46.804 213.608 46.8195 212.741 48.0572C211.765 50.2076 208.264 53.0852 208.264 53.0852C208.697 52.9305 211.006 50.6253 212.09 49.1866C213.159 47.7478 213.329 45.3962 210.107 47.8561C210.107 47.8561 206.699 50.5944 205.382 51.3989C205.382 51.3989 199.573 53.2554 198.023 55.607C196.985 57.2005 191.114 71.8978 187.411 81.3195C182.392 76.6009 177.62 72.0525 177.62 72.0525L153.546 77.1888C153.546 77.1888 154.847 78.8906 174.197 97.502C183.957 106.893 190.401 107.558 194.29 105.036C196.443 104 198.442 101.153 198.705 99.0336L204.716 61.6715C208.248 60.4184 210.649 59.0105 212.229 57.7419C214.259 56.102 219.03 48.2738 219.03 47.5002C219.015 45.4426 216.087 47.067 214.166 50.7027" fill="white"/>
<path fill-rule="evenodd" clip-rule="evenodd" d="M217.068 46.5721C218.355 45.7749 219.484 46.0706 219.495 47.5002C219.495 48.6283 214.399 56.5859 212.521 58.1037C210.772 59.5074 208.39 60.8132 205.356 61.9335L205.131 62.0156L199.165 99.1019L199.157 99.1609C198.837 101.457 196.757 104.326 194.559 105.421L194.518 105.441L194.469 105.473C192.279 106.861 189.569 107.162 186.414 106.212L186.308 106.18C182.724 105.072 178.625 102.382 174.014 97.9705L173.369 97.3507C165.514 89.792 160.106 84.5125 156.709 81.1169L156.131 80.5382C155.112 79.5152 154.369 78.7549 153.859 78.218L153.613 77.9574C153.352 77.6786 153.223 77.5321 153.176 77.4705C152.975 77.2073 153.107 76.8279 153.421 76.7416L153.449 76.7349L177.523 71.5986C177.664 71.5687 177.809 71.6052 177.918 71.6964L177.964 71.7381L180.954 74.58L182.334 75.8889C183.716 77.1981 185.099 78.5049 186.452 79.779L187.23 80.5112L188.068 78.3842C192.882 66.1852 196.712 56.8442 197.607 55.3962L197.635 55.3519C198.278 54.3763 199.56 53.4563 201.305 52.5769C202.167 52.1427 203.088 51.7466 204.008 51.396L204.219 51.3164C204.461 51.226 204.689 51.1444 204.898 51.0721L205.104 51.0019L205.185 50.9748L205.215 50.9563C205.616 50.7039 206.223 50.2708 206.979 49.7021L207.314 49.4494L207.42 49.3684C207.958 48.9586 208.522 48.5192 209.079 48.0798L209.545 47.7108L209.825 47.4873C210.636 46.8684 211.294 46.5009 211.816 46.3731C212.409 46.228 212.897 46.3911 213.125 46.8546C213.141 46.8869 213.155 46.9203 213.168 46.9549L213.186 47.008L213.229 46.981C213.548 46.7862 213.904 46.6474 214.281 46.5648L214.352 46.55C215.047 46.4117 215.74 46.4796 216.067 46.7632C216.188 46.8685 216.258 46.9924 216.287 47.1319L216.291 47.1537L216.314 47.133C216.547 46.9319 216.778 46.7569 217.006 46.6111L217.068 46.5721ZM218.416 47.0703C218.261 47.0295 217.95 47.1178 217.558 47.3609C216.577 47.9686 215.44 49.2855 214.577 50.9193C214.533 51.0033 214.466 51.068 214.388 51.1102L214.381 51.1136L214.353 51.1644C214.219 51.3995 214.066 51.6425 213.896 51.8929C213.558 52.3899 213.154 52.9101 212.7 53.4455C212.208 54.0236 211.683 54.5893 211.158 55.1199L211.023 55.2559C210.912 55.3663 210.807 55.4697 210.709 55.5652L210.56 55.7084L210.454 55.8078C210.266 55.9823 209.972 55.9714 209.797 55.7835C209.623 55.5957 209.634 55.302 209.822 55.1276L209.946 55.0102L210.119 54.8426C210.237 54.7281 210.363 54.6026 210.497 54.4674C211.007 53.9525 211.516 53.4036 211.991 52.845C212.426 52.3332 212.809 51.8384 213.127 51.3712C213.284 51.1402 213.424 50.9178 213.544 50.7074L213.704 50.4273C214.085 49.7652 214.862 48.4334 215.026 48.1267L215.084 48.0166C215.204 47.786 215.286 47.6067 215.331 47.4727L215.343 47.4367L215.332 47.4345C215.309 47.4301 215.284 47.4262 215.257 47.4228L215.216 47.4183C215.017 47.3988 214.777 47.4119 214.534 47.4603C213.968 47.573 213.474 47.8502 213.155 48.277L213.143 48.293L213.127 48.3281C213.064 48.461 212.992 48.5971 212.911 48.7362L212.867 48.8112L212.85 48.8458C212.748 49.0408 212.63 49.2329 212.498 49.416L212.461 49.4657C211.367 50.9181 208.994 53.3176 208.42 53.5223C207.938 53.6942 207.579 53.0792 207.948 52.7442L207.974 52.722L208.165 52.5614L208.287 52.4561C208.413 52.3474 208.548 52.2282 208.692 52.0997C209.237 51.6106 209.783 51.0889 210.291 50.5577C210.763 50.064 211.179 49.5868 211.521 49.1367C211.71 48.8895 211.874 48.6532 212.012 48.4297L212.037 48.3878L212.041 48.3808C212.272 47.9192 212.373 47.4732 212.298 47.2818L212.288 47.2577L212.285 47.2568C212.244 47.2433 212.163 47.244 212.037 47.2746C211.664 47.3661 211.107 47.6767 210.398 48.2177L209.899 48.6154C209.821 48.6774 209.74 48.7418 209.656 48.8081L209.234 49.1395C208.883 49.4149 208.531 49.6874 208.189 49.95L207.876 50.1882L207.533 50.4476C206.707 51.0683 206.055 51.532 205.625 51.7948C205.593 51.8142 205.559 51.8296 205.524 51.8409L205.442 51.8678C205.387 51.8861 205.324 51.9072 205.255 51.9309L205.202 51.9492C204.942 52.0392 204.652 52.1442 204.339 52.2633C203.447 52.6034 202.554 52.9872 201.724 53.4056C200.113 54.2172 198.941 55.0583 198.413 55.86C197.569 57.1563 193.134 68.0279 187.844 81.4891C187.724 81.7949 187.332 81.8826 187.093 81.6575L185.846 80.4847C184.172 78.9071 182.45 77.279 180.74 75.6581L177.477 72.5575L154.434 77.4738L154.777 77.8342C155.252 78.3283 155.89 78.979 156.715 79.8081L157.259 80.3537C160.68 83.7756 166.194 89.1591 174.266 96.9244L174.519 97.1678C179.091 101.567 183.119 104.223 186.582 105.293C189.563 106.214 192.048 105.936 194.037 104.647C194.053 104.636 194.07 104.627 194.088 104.618C196.03 103.684 197.953 101.048 198.235 99.0397L198.246 98.96L204.257 61.5979C204.284 61.4304 204.4 61.291 204.56 61.2342C207.732 60.1091 210.183 58.7894 211.937 57.3811C212.782 56.6982 214.287 54.7026 215.884 52.226L215.999 52.0461C216.678 50.9867 217.314 49.9299 217.792 49.0705L217.846 48.9723C218.083 48.5424 218.272 48.1777 218.399 47.9009L218.439 47.8143C218.482 47.7176 218.515 47.6356 218.538 47.5702L218.56 47.5049C218.564 47.4952 218.566 47.4938 218.566 47.5037C218.563 47.1959 218.503 47.093 218.416 47.0703Z" fill="#065666"/>
<path fill-rule="evenodd" clip-rule="evenodd" d="M187.396 81.304C187.396 81.304 181.54 91.2672 184.886 96.6046L187.396 81.304Z" fill="white"/>
<path fill-rule="evenodd" clip-rule="evenodd" d="M187.631 80.9038C187.844 81.0287 187.921 81.2971 187.81 81.5142L187.72 81.6738C187.698 81.7116 187.675 81.7529 187.65 81.7977L187.569 81.9457C187.486 82.0986 187.397 82.2661 187.303 82.4472L187.256 82.5388C186.846 83.3354 186.437 84.2124 186.055 85.1425C185.272 87.0478 184.708 88.9206 184.459 90.6633C184.128 92.9722 184.37 94.9071 185.28 96.3584C185.416 96.5757 185.35 96.8621 185.133 96.9981C184.915 97.1341 184.628 97.0683 184.492 96.851C183.448 95.1859 183.179 93.0385 183.538 90.5318C183.8 88.7038 184.385 86.7607 185.195 84.7902C185.587 83.8343 186.008 82.9337 186.429 82.1149L186.526 81.9281C186.621 81.7459 186.711 81.5776 186.795 81.4241L186.932 81.1793L186.995 81.0691C187.125 80.848 187.41 80.774 187.631 80.9038Z" fill="#065666"/>
<path fill-rule="evenodd" clip-rule="evenodd" d="M86.5427 71.3874C86.5427 71.3874 80.1135 69.732 76.4264 66.3129C74.2265 64.2708 71.407 61.5015 71.4534 60.5887C71.5309 58.8869 75.1405 61.4551 75.7292 61.8109" fill="white"/>
<path fill-rule="evenodd" clip-rule="evenodd" d="M75.4886 62.2079L75.4235 62.1648C75.2004 62.0202 74.4849 61.5619 74.1203 61.3457L74.0954 61.331C73.8583 61.1914 73.6326 61.066 73.4185 60.956C72.8862 60.6825 72.4481 60.517 72.1525 60.4822L72.1178 60.4787C71.9332 60.4629 71.9248 60.4627 71.9185 60.5943L71.9176 60.6122C71.89 61.1544 73.8299 63.2689 76.7427 65.9728C77.7296 66.8879 78.983 67.7312 80.4407 68.499C81.8003 69.2152 83.2603 69.827 84.7207 70.3341C85.1894 70.4969 85.6271 70.6379 86.0244 70.7572L86.1317 70.7892C86.2377 70.8205 86.335 70.8486 86.4231 70.8735L86.6587 70.9379C86.9073 71.0019 87.0568 71.255 86.9927 71.5032C86.931 71.7425 86.6931 71.8899 86.4533 71.8428L86.3868 71.8262L86.2772 71.7965C86.1587 71.7639 86.0217 71.7248 85.8676 71.6792C85.429 71.5494 84.9408 71.3933 84.4154 71.2109C82.9139 70.6895 81.4119 70.0601 80.007 69.32C78.4823 68.5169 77.1632 67.6295 76.11 66.6528L75.8112 66.3746C72.6365 63.4102 70.9401 61.5307 70.9892 60.5676C71.0216 59.8545 71.511 59.4951 72.1972 59.5538C72.6437 59.5921 73.1905 59.795 73.8438 60.1306C74.0418 60.2324 74.2471 60.3453 74.4602 60.4687L74.5674 60.5313C74.8042 60.6707 75.1937 60.9156 75.503 61.1125L75.9699 61.4138C76.1895 61.5465 76.2598 61.8319 76.1269 62.0512C75.994 62.2705 75.7082 62.3406 75.4886 62.2079Z" fill="#065666"/>
<path fill-rule="evenodd" clip-rule="evenodd" d="M82.2359 66.1891C82.2359 66.1891 79.3699 64.0851 77.9446 62.1203C76.5193 60.14 75.4039 58.8714 75.7138 58.5311C76.0236 58.1752 77.8207 57.9896 78.8122 59.1344C80.036 61.1611 83.8316 63.621 83.8316 63.621C83.3823 63.5282 80.8261 61.486 79.5868 60.171C78.3629 58.856 77.9291 56.5508 81.4148 58.6239C81.4148 58.6239 85.1174 60.96 86.5117 61.6098C86.5117 61.6098 92.5071 62.7856 94.3042 64.9515C95.528 66.4057 103.011 80.345 107.767 89.2871C112.213 84.027 116.442 78.9681 116.442 78.9681L140.935 81.3506C140.935 81.3506 139.835 83.1916 122.732 103.861C114.087 114.303 107.782 115.68 103.63 113.623C101.369 112.834 99.0602 110.235 98.5645 108.162L88.3552 71.7122C84.7146 70.8613 82.1429 69.7474 80.4543 68.6645C78.2544 67.2566 72.6153 60.0317 72.5379 59.2582C72.321 57.216 75.4194 58.4847 77.7277 61.8882" fill="white"/>
<path fill-rule="evenodd" clip-rule="evenodd" d="M87.9813 72.1003L87.9217 72.0861C84.6668 71.2977 82.066 70.2496 80.2036 69.0552C78.157 67.7454 72.1873 60.4213 72.0758 59.3071C71.9254 57.8911 73.0156 57.4674 74.384 58.1111C74.6182 58.2213 74.8596 58.3587 75.1048 58.5208L75.1975 58.5831L75.1982 58.5772C75.2133 58.4603 75.2583 58.3518 75.3399 58.2531L75.3631 58.2264C75.6509 57.8959 76.3357 57.7468 77.047 57.8075C77.4688 57.8435 77.8753 57.9499 78.2434 58.1288L78.2531 58.1337L78.2542 58.1274C78.2622 58.0864 78.2723 58.0464 78.2846 58.0075L78.2977 57.969C78.4732 57.4841 78.94 57.2684 79.5455 57.3456C80.0787 57.4136 80.7757 57.7035 81.6631 58.2314L82.0294 58.4609C82.1601 58.5424 82.3006 58.6298 82.4492 58.7218L82.9602 59.0368C83.3863 59.2982 83.8115 59.5561 84.2224 59.8013L84.6313 60.0439C85.4956 60.5534 86.1837 60.9369 86.6278 61.1509L86.6588 61.1657L86.9095 61.2192L86.9689 61.2322C87.2571 61.2961 87.5779 61.3722 87.9231 61.4603C88.9103 61.7125 89.8979 62.0116 90.8226 62.3574C92.5993 63.022 93.9329 63.7764 94.66 64.6528C95.6487 65.8276 100.25 74.1988 106.898 86.6676L107.855 88.4632L109.353 86.6872C110.299 85.5651 111.258 84.4256 112.216 83.2851L114.714 80.3091L116.086 78.6705C116.177 78.5606 116.315 78.4996 116.457 78.5041L116.487 78.506L140.98 80.8885C141.32 80.9215 141.509 81.296 141.334 81.5883L141.301 81.64C141.245 81.725 141.138 81.8766 140.956 82.1219L140.869 82.2387C140.423 82.835 139.733 83.7262 138.748 84.9708L138.047 85.8536C134.982 89.7002 130.126 95.6539 123.09 104.156C118.956 109.151 115.149 112.335 111.683 113.854C108.621 115.197 105.865 115.218 103.502 114.077L103.449 114.051L103.406 114.036C101.093 113.193 98.7009 110.579 98.1294 108.338L98.117 108.286L87.9813 72.1003ZM72.9967 59.1745L73.0002 59.2075C73.0008 59.1985 73.0119 59.2282 73.0343 59.2747C73.0685 59.3456 73.1185 59.4367 73.1831 59.5452L73.208 59.5867C73.3653 59.8469 73.5931 60.1875 73.8773 60.5877L74.0089 60.7717C74.5256 61.489 75.1799 62.3414 75.8778 63.205L76.0607 63.4304C77.9764 65.7808 79.7649 67.6719 80.7055 68.2739C82.5349 69.4471 85.1502 70.4864 88.4612 71.2602C88.6166 71.2966 88.7417 71.4097 88.794 71.5588L88.8029 71.5871L99.0121 108.036L99.0166 108.054C99.4876 110.024 101.721 112.465 103.784 113.185C103.802 113.191 103.82 113.198 103.837 113.207C105.962 114.26 108.458 114.255 111.31 113.004C114.592 111.565 118.25 108.519 122.252 103.711L124.545 100.939C130.418 93.825 134.584 88.709 137.319 85.2765L138.085 84.3116C138.854 83.3392 139.437 82.5898 139.859 82.0343L140.086 81.734L116.642 79.4536L114.128 82.4531L112.612 84.2578C111.096 86.0626 109.581 87.8601 108.122 89.5864C107.91 89.8375 107.511 89.7949 107.356 89.5048L106.081 87.109C99.5354 74.8345 94.8707 66.3459 93.9464 65.2475C93.3477 64.526 92.1328 63.8387 90.4966 63.2267C89.6066 62.8939 88.6499 62.6041 87.6928 62.3597C87.3575 62.274 87.0464 62.2002 86.7676 62.1385L86.556 62.0927L86.4222 62.0651C86.3853 62.0579 86.3493 62.0462 86.3152 62.0303C85.8269 61.8027 85.0569 61.3743 84.0723 60.7922L83.7456 60.5981C83.2484 60.3014 82.731 59.9867 82.2164 59.6695L81.617 59.2981L81.1771 59.0226C80.4 58.5604 79.8103 58.3152 79.4278 58.2664C79.2176 58.2396 79.1822 58.256 79.1718 58.2846C79.1018 58.4781 79.2639 58.9446 79.5718 59.4049L79.598 59.4435L79.6259 59.4785C79.6811 59.5467 79.7391 59.6159 79.8 59.6862L79.8618 59.7568C80.2803 60.2296 80.8134 60.7344 81.4337 61.2566C82.0133 61.7445 82.6359 62.2203 83.2587 62.6641L83.4191 62.7778C83.5241 62.8516 83.6247 62.9214 83.7205 62.987L83.9326 63.1309L84.0846 63.2316C84.5158 63.511 84.2409 64.1794 83.7375 64.0754C83.1395 63.9518 80.513 61.8309 79.2464 60.4869C79.1064 60.3364 78.9768 60.1771 78.8602 60.013L78.8317 59.9724L78.776 59.9006C78.6583 59.7467 78.5526 59.5957 78.4597 59.4478L78.4379 59.4125L78.4226 59.3954C78.0744 59.0177 77.5785 58.7974 77.0291 58.7383L76.9678 58.7324C76.7213 58.7113 76.482 58.7254 76.2883 58.7676C76.2473 58.7765 76.2097 58.7865 76.1762 58.797L76.1693 58.7993L76.1716 58.8043C76.2304 58.9351 76.3355 59.1127 76.4915 59.3448L76.5615 59.4476C76.7921 59.7823 78.0243 61.4356 78.3211 61.8479C78.4035 61.9616 78.4926 62.0778 78.588 62.1965C78.9746 62.6771 79.4586 63.1888 80.0174 63.7181C80.5628 64.2348 81.1485 64.7398 81.7344 65.2116C81.8882 65.3354 82.0337 65.4502 82.1688 65.5549L82.3684 65.708L82.5112 65.8151C82.7181 65.9669 82.7625 66.2574 82.6104 66.464C82.4584 66.6705 82.1675 66.7148 81.9607 66.563L81.8394 66.4724L81.7353 66.3932C81.5588 66.2582 81.3623 66.1044 81.151 65.9342C80.547 65.4478 79.9429 64.927 79.3777 64.3916C78.7907 63.8355 78.279 63.2945 77.8634 62.7778C77.7847 62.68 77.7097 62.5833 77.6379 62.4871L77.4928 62.2884L77.4803 62.2812C77.4349 62.2527 77.3939 62.2159 77.3596 62.1714L77.343 62.1484C76.3071 60.6211 75.0322 59.4421 73.9879 58.9509C73.5707 58.7546 73.2522 58.7028 73.1013 58.7614C73.0199 58.7931 72.9718 58.895 72.9967 59.1745Z" fill="#065666"/>
<path fill-rule="evenodd" clip-rule="evenodd" d="M107.767 89.2871C107.767 89.2871 114.707 98.5232 112.012 104.201L107.767 89.2871Z" fill="white"/>
<path fill-rule="evenodd" clip-rule="evenodd" d="M107.488 88.9157C107.693 88.7618 107.984 88.8033 108.139 89.0083L108.197 89.0873C108.243 89.1501 108.296 89.2237 108.355 89.3076L108.459 89.4552C108.6 89.6577 108.753 89.8828 108.915 90.1287C109.493 91.0056 110.071 91.9684 110.611 92.9883C111.67 94.9902 112.451 96.9613 112.836 98.8191C113.277 100.943 113.178 102.828 112.432 104.4C112.322 104.631 112.044 104.73 111.812 104.62C111.581 104.51 111.482 104.234 111.592 104.002C112.24 102.635 112.329 100.949 111.926 99.0072C111.561 97.2465 110.811 95.3528 109.789 93.422C109.264 92.4302 108.702 91.4925 108.139 90.639L108.01 90.445C107.883 90.2557 107.763 90.0811 107.652 89.9221L107.531 89.7527L107.395 89.5655C107.241 89.3605 107.283 89.0695 107.488 88.9157Z" fill="#065666"/>
<path fill-rule="evenodd" clip-rule="evenodd" d="M167.008 64.874C174.956 67.2875 185.304 78.6431 185.304 78.6431L170.138 95.2278L176.675 137.989L122.391 138.361L125.861 110.683C125.861 110.683 120.036 105.733 120.114 99.0646C120.191 92.3967 120.439 92.6597 120.439 92.6597L112.461 82.8821C112.461 82.8821 118.797 71.8514 125.521 69.2987C132.244 66.746 159.386 62.5534 167.008 64.874Z" fill="#0987A0"/>
<path fill-rule="evenodd" clip-rule="evenodd" d="M135.637 61.5787L136.102 66.8234L132.941 67.6278C131.609 68.4478 130.958 78.4574 140.749 77.4518C150.54 76.4462 156.071 70.1186 157.419 64.5491L153.081 64.7503L150.323 51.5691L135.637 61.5787Z" fill="white"/>
<path fill-rule="evenodd" clip-rule="evenodd" d="M135.375 61.1955L135.35 61.2141C135.227 61.3105 135.16 61.4629 135.174 61.6198L135.604 66.4711L132.827 67.1782C132.781 67.1898 132.737 67.2082 132.697 67.2329C131.662 67.8702 131.375 70.9936 132.237 73.3819C133.396 76.5929 136.254 78.3803 140.797 77.9137C145.494 77.4312 149.489 75.7185 152.555 73.0627C155.273 70.7082 157.135 67.6973 157.87 64.6583L157.876 64.631C157.929 64.3405 157.697 64.0717 157.397 64.0857L153.455 64.2683L150.778 51.4743C150.711 51.1505 150.335 50.9994 150.061 51.1859L135.375 61.1955ZM150.011 52.3442L152.626 64.8453L152.633 64.8728C152.69 65.0811 152.884 65.2242 153.103 65.214L156.805 65.0422L156.786 65.1059C155.999 67.7287 154.319 70.3059 151.946 72.3615C149.025 74.8915 145.21 76.5273 140.702 76.9903C136.583 77.4133 134.125 75.8763 133.111 73.0672C132.722 71.9888 132.585 70.7799 132.685 69.6927C132.728 69.2228 132.815 68.8035 132.93 68.4839L132.945 68.4432C133.016 68.2571 133.09 68.126 133.144 68.0617L133.151 68.0536L136.216 67.2732L136.244 67.2654C136.449 67.1997 136.584 66.9998 136.565 66.7826L136.124 61.8088L150.011 52.3442Z" fill="#065666"/>
<path fill-rule="evenodd" clip-rule="evenodd" d="M150.37 46.9898L151.718 47.2528C151.718 47.2528 159.557 48.1656 159.107 41.0026C158.766 35.5568 153.406 35.8972 150.835 36.3613" fill="white"/>
<path fill-rule="evenodd" clip-rule="evenodd" d="M150.752 35.9045C152.626 35.5662 154.42 35.5413 155.948 36.0231C158.092 36.6998 159.405 38.3143 159.571 40.9735C159.786 44.404 158.234 46.443 155.565 47.3089C154.325 47.7114 153.034 47.8076 151.913 47.7347L151.807 47.7271C151.744 47.7222 151.696 47.7175 151.664 47.7137L151.646 47.7113L151.628 47.7082L150.281 47.4452C150.029 47.3961 149.864 47.1523 149.914 46.9007C149.961 46.6581 150.19 46.4969 150.432 46.5298L150.459 46.5342L151.787 46.7933L151.836 46.7981C151.865 46.8006 151.9 46.8034 151.941 46.8062L151.973 46.8084C152.987 46.8743 154.168 46.7863 155.278 46.426C157.561 45.6853 158.831 44.0176 158.643 41.0315C158.501 38.762 157.452 37.4713 155.668 36.9082C154.313 36.4811 152.656 36.5041 150.917 36.818C150.665 36.8636 150.423 36.696 150.377 36.4438C150.332 36.1916 150.499 35.9501 150.752 35.9045Z" fill="#065666"/>
<path fill-rule="evenodd" clip-rule="evenodd" d="M122.422 43.9729C122.67 47.2373 125.536 62.1202 136.04 62.0119C146.543 61.9036 152.446 51.6619 152.384 41.8379C152.322 32.0139 147.024 24.4487 140.378 24.3713C133.731 24.294 120.61 20.287 122.422 43.9729Z" fill="white"/>
<path fill-rule="evenodd" clip-rule="evenodd" d="M133.138 23.6344C129.43 23.8233 126.65 24.9995 124.692 27.681C122.354 30.8823 121.381 36.0976 121.941 43.7751L121.959 44.0082C122.166 46.7363 123.25 51.031 124.969 54.4649C127.508 59.5359 131.165 62.5265 136.045 62.4762C141.169 62.4234 145.496 60.0162 148.549 55.8423C151.342 52.024 152.881 46.9362 152.849 41.8352C152.786 31.8362 147.36 23.9887 140.383 23.9075L140.028 23.9008C139.701 23.892 139.366 23.8745 138.813 23.8378L137.212 23.7262C135.425 23.6047 134.348 23.5727 133.138 23.6344ZM138.763 24.7648C139.523 24.8152 139.881 24.8299 140.372 24.8356C146.756 24.9099 151.859 32.2919 151.919 41.8411C151.95 46.749 150.47 51.6423 147.799 55.2948C144.912 59.2407 140.854 61.4983 136.035 61.548C131.57 61.5941 128.197 58.8349 125.801 54.0498C124.16 50.7732 123.111 46.6593 122.894 44.0391L122.886 43.9378C122.304 36.3323 123.234 31.2522 125.443 28.228C127.195 25.8283 129.681 24.7595 133.079 24.5671L133.186 24.5614C134.351 24.5021 135.4 24.5333 137.154 24.6526L138.763 24.7648Z" fill="#065666"/>
<rect width="3.764" height="6.63798" transform="matrix(0.944539 0.328399 -0.329201 0.94426 151.834 11.4011)" fill="#E4794A"/>
<path fill-rule="evenodd" clip-rule="evenodd" d="M155.715 13.7894C159.385 13.7894 162.361 10.8179 162.361 7.15238C162.361 3.48687 159.385 0.515381 155.715 0.515381C152.044 0.515381 149.069 3.48687 149.069 7.15238C149.069 10.8179 152.044 13.7894 155.715 13.7894Z" fill="#065666"/>
<path fill-rule="evenodd" clip-rule="evenodd" d="M149.936 15.5994C144.034 13.7274 137.697 12.861 132.12 15.0734C115.218 22.7005 115.187 35.433 122.283 41.2191C122.019 32.1996 124.219 27.8368 127.318 25.7792C130.71 31.1785 141.663 35.8507 151.687 35.959C151.702 36.0519 151.733 36.1447 151.749 36.222C154.506 35.8817 158.829 36.1292 159.123 41.0025C159.541 47.7169 152.694 47.3456 151.826 47.2682C151.718 47.7942 150.308 52.6057 150.308 52.6057L151.826 59.4902L174.119 56.0247C175.467 55.9938 176.396 54.6633 175.963 53.3947C173.283 45.4272 168.914 21.8806 149.936 15.5994Z" fill="#065666"/>
<path fill-rule="evenodd" clip-rule="evenodd" d="M137.493 51.0427L137.442 51.0436L137.327 51.0488L137.25 51.0533C137.084 51.0633 136.881 51.0785 136.663 51.0978C136.068 51.1505 135.457 51.2246 134.886 51.3204C134.145 51.4449 133.522 51.5976 133.05 51.7855C132.374 52.0545 131.965 52.4043 131.965 52.9307C131.965 53.8549 133.309 54.6494 134.655 54.6673C136.279 54.6888 137.551 53.652 137.952 51.5961C137.958 51.5669 137.961 51.5372 137.961 51.5074L137.93 51.3893C137.886 51.2254 137.869 51.2121 137.769 51.1317L137.706 51.0942C137.681 51.0801 137.671 51.0766 137.643 51.0671L137.585 51.0516C137.576 51.0497 137.57 51.0489 137.559 51.0473L137.517 51.0434L137.493 51.0427ZM136.886 52.0102L136.874 52.0486C136.47 53.2229 135.676 53.7525 134.667 53.7391C134.194 53.7328 133.712 53.5964 133.345 53.3794L133.309 53.3574C133.06 53.2033 132.92 53.0418 132.898 52.9538L132.896 52.9443L132.904 52.9346C132.914 52.9219 132.929 52.9062 132.95 52.8881C133.039 52.8118 133.19 52.7289 133.394 52.6478C133.793 52.4888 134.359 52.3503 135.04 52.2358C135.584 52.1444 136.173 52.0731 136.745 52.0224L136.886 52.0102Z" fill="#065666"/>
<path fill-rule="evenodd" clip-rule="evenodd" d="M130.595 35.6503C130.842 35.6631 131.034 35.8665 131.036 36.1105L131.035 36.1378L130.413 48.132L132.993 47.8133C133.238 47.7829 133.463 47.9498 133.507 48.1899L133.511 48.2169C133.541 48.4622 133.374 48.6864 133.134 48.7304L133.107 48.7345L129.977 49.1213C129.7 49.1556 129.457 48.9396 129.456 48.6644L129.456 48.6366L130.107 36.0898C130.12 35.8429 130.323 35.6512 130.568 35.6497L130.595 35.6503Z" fill="#065666"/>
<path fill-rule="evenodd" clip-rule="evenodd" d="M123.836 36.6732C124.371 36.5805 124.927 36.6285 125.465 36.7628C125.671 36.8143 125.829 36.8668 125.925 36.9047C126.163 36.9993 126.28 37.2692 126.185 37.5074C126.094 37.7371 125.839 37.8535 125.607 37.7766L125.537 37.751C125.526 37.7472 125.513 37.7428 125.498 37.738C125.422 37.7128 125.335 37.6873 125.24 37.6634C124.817 37.5578 124.384 37.5204 123.995 37.5878C123.475 37.6778 123.088 37.9441 122.84 38.4522C122.728 38.6826 122.449 38.7783 122.219 38.6659C121.988 38.5536 121.892 38.2757 122.005 38.0453C122.39 37.2555 123.035 36.8119 123.836 36.6732Z" fill="#065666"/>
<path fill-rule="evenodd" clip-rule="evenodd" d="M140.145 38.0168C140.145 38.0168 136.334 38.5737 135.869 36.0984L140.145 38.0168Z" fill="white"/>
<path fill-rule="evenodd" clip-rule="evenodd" d="M135.784 35.6421C136.036 35.5948 136.279 35.7608 136.326 36.0127C136.478 36.8197 137.088 37.2868 138.079 37.4942C138.658 37.6153 139.285 37.6299 139.857 37.581L139.947 37.5727L140.025 37.5641C140.053 37.5608 140.07 37.5585 140.078 37.5574C140.332 37.5203 140.568 37.6958 140.605 37.9494C140.642 38.2031 140.466 38.4387 140.212 38.4759L140.145 38.4848C140.091 38.4913 140.021 38.4986 139.936 38.5059C139.282 38.5618 138.57 38.5453 137.889 38.4028C136.566 38.1261 135.645 37.4208 135.413 36.1838C135.365 35.9318 135.531 35.6893 135.784 35.6421Z" fill="#065666"/>
<path fill-rule="evenodd" clip-rule="evenodd" d="M138.624 42.2469C139.191 42.1588 139.539 41.3756 139.402 40.4976C139.265 39.6195 138.695 38.9792 138.128 39.0673C137.562 39.1554 137.214 39.9386 137.351 40.8166C137.488 41.6947 138.058 42.335 138.624 42.2469Z" fill="#065666"/>
<path fill-rule="evenodd" clip-rule="evenodd" d="M127.099 44.3185C127.666 44.2304 128.014 43.4471 127.877 42.5691C127.74 41.6911 127.17 41.0507 126.603 41.1388C126.037 41.2269 125.689 42.0101 125.826 42.8882C125.963 43.7662 126.533 44.4066 127.099 44.3185Z" fill="#065666"/>
<path fill-rule="evenodd" clip-rule="evenodd" d="M138.923 29.4596C135.026 30.0487 132.545 34.6024 133.302 39.5893C134.06 44.5762 137.781 48.1923 141.678 47.6032C145.576 47.0141 148.056 42.4605 147.299 37.4736C146.542 32.4866 142.82 28.8706 138.923 29.4596ZM139.062 30.3776C142.388 29.8749 145.693 33.0859 146.38 37.6124C147.068 42.139 144.865 46.1826 141.539 46.6853C138.213 47.188 134.909 43.977 134.221 39.4504C133.534 34.9239 135.737 30.8803 139.062 30.3776Z" fill="#E4794A"/>
<path fill-rule="evenodd" clip-rule="evenodd" d="M121.029 32.6318C117.132 33.2208 114.651 37.7745 115.408 42.7614C116.166 47.7483 119.887 51.3644 123.784 50.7753C127.681 50.1862 130.162 45.6326 129.405 40.6457C128.648 35.6588 124.926 32.0427 121.029 32.6318ZM121.168 33.5497C124.494 33.047 127.799 36.258 128.486 40.7846C129.173 45.3111 126.97 49.3547 123.645 49.8574C120.319 50.3601 117.014 47.1491 116.327 42.6225C115.64 38.096 117.843 34.0524 121.168 33.5497Z" fill="#E4794A"/>
<path fill-rule="evenodd" clip-rule="evenodd" d="M133.497 38.1473C133.75 38.1035 133.991 38.2727 134.034 38.5252C134.077 38.7688 133.921 39.0009 133.683 39.0564L133.656 39.0619L128.745 39.9128C128.492 39.9566 128.251 39.7874 128.208 39.5348C128.165 39.2913 128.321 39.0592 128.559 39.0036L128.586 38.9982L133.497 38.1473Z" fill="#E4794A"/>
<path fill-rule="evenodd" clip-rule="evenodd" d="M146.821 35.3567L153.034 35.759C153.29 35.7755 153.484 35.9963 153.467 36.2521C153.451 36.4988 153.245 36.6879 153.001 36.6862L152.973 36.6853L146.761 36.283C146.505 36.2664 146.311 36.0456 146.327 35.7898C146.343 35.5432 146.55 35.3541 146.794 35.3557L146.821 35.3567Z" fill="#E4794A"/>
<path fill-rule="evenodd" clip-rule="evenodd" d="M233.206 137.68C233.462 137.68 233.67 137.888 233.67 138.144C233.67 138.391 233.477 138.593 233.233 138.607L233.206 138.608H0.639443C0.382763 138.608 0.174683 138.4 0.174683 138.144C0.174683 137.897 0.368166 137.695 0.612135 137.681L0.639443 137.68H233.206Z" fill="#065666"/>
</svg>
