
<svg width="168" height="100" viewBox="0 0 168 100" fill="none" xmlns="http://www.w3.org/2000/svg">
<path fill-rule="evenodd" clip-rule="evenodd" d="M33.5966 41.2578C33.5966 41.2578 28.8147 41.8882 25.4104 40.5223C23.3838 39.7051 20.731 38.5727 20.5147 37.9306C20.1048 36.7281 23.2358 37.522 23.7367 37.6037" fill="white"/>
<path fill-rule="evenodd" clip-rule="evenodd" d="M20.8092 36.9845C21.1486 36.8992 21.6079 36.9035 22.1808 36.973C22.3971 36.9993 22.6233 37.0341 22.8644 37.0772L23.0117 37.1041C23.2571 37.1506 23.7484 37.251 23.7903 37.2578C23.9766 37.2882 24.1036 37.4677 24.074 37.6587C24.0444 37.8498 23.8693 37.98 23.683 37.9496L23.6405 37.9417C23.4915 37.913 23.0352 37.8201 22.8477 37.7855C22.5796 37.736 22.3326 37.6968 22.1005 37.6686C21.6214 37.6105 21.2406 37.6049 20.999 37.6584L20.9343 37.6743C20.8026 37.7083 20.804 37.718 20.8374 37.8162C20.9638 38.1914 22.7566 39.0759 25.5348 40.1962C26.2289 40.4747 27.0186 40.6816 27.8859 40.8227C29.5028 41.0859 31.2315 41.1058 32.8294 40.9812L32.9599 40.9707C33.0873 40.96 33.205 40.9489 33.3123 40.9378L33.4816 40.9192L33.5529 40.9105C33.74 40.8858 33.9112 41.0213 33.9353 41.2132C33.9585 41.3982 33.8364 41.568 33.6599 41.602L33.6331 41.6061L33.5011 41.6217L33.3246 41.6404C33.1904 41.6539 33.0422 41.6671 32.8812 41.6797C31.2347 41.8081 29.4563 41.7876 27.7788 41.5145C26.8659 41.3659 26.0294 41.1468 25.2853 40.8483L25.0934 40.7707C21.9893 39.5131 20.422 38.7285 20.1922 38.0462C20.0086 37.5075 20.2814 37.1171 20.8092 36.9845Z" fill="#000091"/>
<path fill-rule="evenodd" clip-rule="evenodd" d="M25.103 37.125C22.6209 35.4088 20.1958 35.3738 20.8904 36.7281C21.1522 37.2417 26.8905 40.6974 28.7577 41.0593C30.1923 41.3395 32.2189 41.4095 34.9059 41.0009L38.8566 46.3129L44.037 40.3238C40.6441 37.4285 37.7522 35.0353 37.0919 34.6617C35.293 33.6577 30.9323 34.4866 30.9323 34.4866C29.8166 34.4165 26.6969 33.8211 26.6969 33.8211C23.7936 33.3424 24.7045 34.8251 25.8886 35.3972C27.0727 35.9692 29.3384 36.6697 29.6685 36.623C29.6685 36.623 26.4465 35.9692 25.0802 34.8952C24.1011 34.3698 22.9511 35.0002 22.8259 35.3271C22.7006 35.654 23.7936 36.2261 25.2965 37.2067C26.788 38.1757 29.2928 38.8528 29.2928 38.8528" fill="white"/>
<path fill-rule="evenodd" clip-rule="evenodd" d="M25.0939 33.4459C25.4606 33.3487 25.987 33.3543 26.6928 33.466L26.7879 33.4822L27.1354 33.5471C27.1949 33.5581 27.257 33.5696 27.3213 33.5813C27.7502 33.6598 28.193 33.7384 28.6257 33.8116L28.8476 33.8488L29.0637 33.8844C29.8205 34.0077 30.4248 34.0925 30.8162 34.1266L30.9131 34.1342L31.0311 34.1135C31.074 34.1062 31.1203 34.0985 31.1698 34.0904L31.3307 34.0649C31.5228 34.0352 31.7303 34.0059 31.9501 33.9782C32.7812 33.8733 33.614 33.8115 34.3945 33.8149C35.6123 33.8202 36.5895 33.9825 37.2569 34.355C37.8973 34.7173 40.4637 36.8189 44.2555 40.0546C44.3982 40.1764 44.4191 40.3916 44.3062 40.5394L44.2925 40.5562L39.1122 46.5452C38.9744 46.7045 38.7328 46.701 38.599 46.5428L38.585 46.5252L34.7559 41.377L34.7109 41.3836C32.3545 41.7218 30.3563 41.715 28.7757 41.419L28.6943 41.4034C26.9611 41.0675 20.9688 37.638 20.5881 36.8911C20.1044 35.9479 20.7284 35.3541 21.8271 35.4256C22.024 35.4384 22.2344 35.4698 22.4548 35.5187L22.4919 35.5271L22.4902 35.5214C22.4639 35.4263 22.4646 35.3279 22.4988 35.2249L22.508 35.199C22.6229 34.8992 23.0443 34.6091 23.5334 34.4565C23.8084 34.3707 24.0905 34.3315 24.368 34.3453L24.4323 34.3495L24.4318 34.3472C24.4263 34.317 24.4224 34.2869 24.4202 34.257L24.4186 34.2271C24.4057 33.8404 24.6634 33.5599 25.0939 33.4459ZM25.2647 34.1241C25.1829 34.1458 25.1324 34.171 25.1082 34.1924L25.1006 34.1995L25.101 34.2L25.1014 34.2031C25.107 34.3698 25.3854 34.685 25.7653 34.9293L25.8145 34.9601L25.8359 34.972C25.9418 35.0303 26.0547 35.088 26.1742 35.1452L26.2237 35.1687L26.2629 35.1864C26.5646 35.3211 26.9268 35.4651 27.3138 35.6057L27.4208 35.6442L27.4945 35.6694C27.9092 35.809 28.3421 35.9365 28.7771 36.0509L28.9402 36.0932L29.0946 36.132C29.2459 36.1695 29.3881 36.203 29.5189 36.2325L29.7085 36.2739C29.7206 36.2765 29.7294 36.2783 29.7349 36.2794C30.1129 36.3561 30.097 36.9159 29.7152 36.9699C29.4264 37.0108 28.3253 36.7061 27.2673 36.3312L27.194 36.305L27.1196 36.2796L26.9609 36.2234C26.6009 36.0939 26.2694 35.9597 25.9698 35.8201L25.929 35.801L25.9032 35.7892C25.8616 35.7702 25.8211 35.7513 25.7819 35.7326L25.743 35.714C25.65 35.669 25.5591 35.6198 25.4714 35.5669L25.4597 35.5597L25.4539 35.5565C25.2548 35.444 25.0759 35.3283 24.9189 35.209L24.8991 35.1937L24.8835 35.1857C24.5486 35.0198 24.1598 35.0036 23.7765 35.1134L23.7323 35.1266C23.5615 35.1799 23.4043 35.2556 23.2837 35.3386C23.2581 35.3562 23.235 35.3736 23.2147 35.3904L23.2098 35.3944L23.2249 35.4092C23.2992 35.4808 23.4118 35.5699 23.5665 35.6791L23.641 35.7309L23.6953 35.7676C24.0153 35.9806 25.0321 36.623 25.3981 36.8583L25.4794 36.9109C25.86 37.1581 26.3364 37.4024 26.8858 37.6393C27.4306 37.8742 28.0163 38.089 28.6022 38.2788L28.7532 38.3272C28.9014 38.374 29.0405 38.4164 29.1685 38.4539L29.3799 38.5142C29.5623 38.5635 29.6712 38.7551 29.6231 38.9421C29.575 39.1291 29.3882 39.2408 29.2058 39.1915L29.0847 39.1575C29.0526 39.1483 29.0179 39.1383 28.9807 39.1274L28.8447 39.0869C28.7051 39.0449 28.5549 38.9981 28.3964 38.9467C27.7919 38.7509 27.1872 38.5291 26.621 38.285C26.0716 38.0481 25.5872 37.8022 25.1836 37.5473L25.0687 37.4734L25.0615 37.4727C25.0161 37.4671 24.9712 37.4519 24.9296 37.4268L24.912 37.4154C23.7973 36.6446 22.6189 36.179 21.7838 36.1247C21.4507 36.103 21.2234 36.1538 21.1389 36.2341C21.0929 36.2779 21.0897 36.3642 21.1931 36.5658C21.1863 36.5525 21.202 36.5707 21.2326 36.5996C21.2799 36.6442 21.3476 36.701 21.4334 36.7678C21.5991 36.8966 21.826 37.0577 22.1013 37.242L22.1535 37.2768C22.7153 37.6507 23.4379 38.0956 24.1978 38.5351L24.3885 38.6448C26.2901 39.7331 27.9841 40.5414 28.7928 40.7095L28.8216 40.7153C30.3894 41.0215 32.4235 41.0244 34.8558 40.6545C34.9711 40.6369 35.0866 40.681 35.1628 40.7701L35.1775 40.7885L38.8764 45.7619L43.5474 40.3619L42.7658 39.6972C39.6461 37.0504 37.4995 35.3042 36.9466 34.9797L36.9286 34.9693C36.386 34.6665 35.5056 34.5202 34.3916 34.5154C33.6435 34.5121 32.8382 34.5718 32.0336 34.6734L31.8537 34.6968C31.6769 34.7206 31.5096 34.7452 31.3538 34.7699L31.1859 34.7973L31.0216 34.8259C31.0096 34.8281 31.0006 34.8298 30.9946 34.8309C30.9672 34.8361 30.9393 34.8379 30.9115 34.8361L30.841 34.8312C30.4278 34.8001 29.7809 34.7106 28.9565 34.5762L28.6271 34.5217L28.5145 34.5027C28.1657 34.4437 27.8107 34.3813 27.4617 34.3183L27.0141 34.2365L26.6427 34.1669C25.9963 34.0603 25.5343 34.0527 25.2647 34.1241Z" fill="#000091"/>
<path fill-rule="evenodd" clip-rule="evenodd" d="M132.73 58.7463C129.519 50.2356 113.83 32.3735 113.83 32.3735L62.8002 34.9069L53.3731 48.356L42.5796 38.2575L30.363 49.5935L49.9802 71.3665C53.0656 74.7988 57.8931 75.6744 61.8666 73.7831L62.0829 98.7316H112.486V84.7104C127.196 75.3825 135.69 66.6032 132.73 58.7463Z" fill="#6A6AF4"/>
<path fill-rule="evenodd" clip-rule="evenodd" d="M108.533 54.0017C108.693 53.9132 108.891 53.9688 108.985 54.1251L108.995 54.1435L111.774 59.4204C111.854 59.5742 111.812 59.7644 111.677 59.8675L111.66 59.8799L95.966 70.3996L95.9538 70.465C95.3745 73.6232 95.7589 76.4297 96.9654 78.9145L97.0055 78.9963C98.0583 81.1266 99.6858 82.9578 101.735 84.5067C103.066 85.5135 104.495 86.3407 105.923 86.9994C106.39 87.2145 106.825 87.3968 107.218 87.5474L107.302 87.5792C107.375 87.6065 107.443 87.6316 107.507 87.6547L107.669 87.7119L111.802 85.0217C111.956 84.9219 112.157 84.9631 112.262 85.1121L112.274 85.1298C112.371 85.287 112.331 85.4935 112.186 85.6012L112.168 85.6132L107.899 88.3917C107.815 88.4465 107.711 88.4608 107.616 88.4309L107.532 88.4035L107.468 88.3819C107.352 88.3419 107.218 88.2936 107.067 88.2367C106.636 88.0746 106.158 87.8757 105.643 87.6383C104.173 86.9604 102.703 86.1091 101.329 85.0705C99.2001 83.4609 97.5016 81.5497 96.3961 79.313C95.062 76.6135 94.6512 73.5511 95.3237 70.1183C95.3402 70.0339 95.3864 69.959 95.453 69.9075L95.4717 69.8941L111.023 59.4697L108.394 54.4763C108.308 54.3124 108.362 54.1093 108.515 54.0124L108.533 54.0017Z" fill="white"/>
<path fill-rule="evenodd" clip-rule="evenodd" d="M128.642 37.7438C127.367 35.584 120.502 36.4012 120.502 36.4012C115.367 18.9945 95.5903 17.0915 86.5731 17.1032C62.2993 17.1149 61.229 35.8525 61.6617 36.6814C61.6617 36.6814 67.8554 47.0133 73.8441 38.9696C79.8215 30.9492 93.7345 30.1437 98.7441 41.4446C95.8408 47.8889 90.2961 49.4066 86.0493 53.5044C80.7437 58.6295 81.0739 69.9188 85.4573 71.6349C93.9622 73.6663 89.3397 64.7003 92.1633 59.8086C94.0875 56.4697 101.09 55.1155 106.953 53.5394C106.202 55.1038 105.735 56.8316 106.771 57.6722C108.911 59.3767 113.272 57.462 117.132 50.6091C118.27 48.5894 118.657 46.7332 118.635 45.1454C119.853 45.4023 121.117 45.484 122.403 45.3089C129.291 44.3749 129.917 39.9152 128.642 37.7438Z" fill="#F95C5E"/>
<path fill-rule="evenodd" clip-rule="evenodd" d="M49.6956 27.7269C49.0694 28.0071 48.3521 27.6802 48.1358 27.0148C47.9764 26.5244 47.8626 26.2326 47.817 25.9991C47.7601 25.6722 48.1472 25.0068 48.5912 24.2129C48.8303 23.8043 48.9669 23.454 49.0011 23.1622C49.0466 22.882 48.9897 22.5668 48.8531 22.2399C48.6823 21.8313 48.4204 21.5628 48.0675 21.446C47.7145 21.3293 47.3616 21.341 46.9973 21.5044C46.28 21.8196 45.9612 22.4267 46.0409 23.314C46.0978 23.9094 45.7221 24.4464 45.1642 24.6098C44.4241 24.82 43.6841 24.2596 43.6613 23.4657C43.6385 22.7536 43.7638 22.0998 44.037 21.5161C44.4925 20.5471 45.2439 19.8349 46.2914 19.368C47.3616 18.8893 48.3863 18.8076 49.3882 19.1228C50.3787 19.438 51.0846 20.0684 51.4945 21.0374C52.0069 22.2399 51.8247 23.5124 50.9594 24.855C50.5837 25.4387 50.3901 25.859 50.356 26.1042C50.3446 26.1859 50.356 26.291 50.3674 26.4077C50.4584 26.9681 50.1852 27.5051 49.6956 27.7269ZM51.2099 30.9141L51.1074 30.9608C50.4357 31.2643 49.6501 30.9374 49.354 30.2486C49.058 29.5598 49.3768 28.7543 50.0486 28.4507L50.151 28.404C50.8228 28.1005 51.6084 28.4274 51.9044 29.1162C52.2004 29.805 51.8816 30.6105 51.2099 30.9141Z" fill="#000091"/>
<path fill-rule="evenodd" clip-rule="evenodd" d="M128.859 25.9174C128.198 25.7656 127.811 25.0652 128.028 24.4114C128.187 23.9327 128.255 23.6292 128.358 23.4074C128.494 23.1038 129.2 22.8237 130.02 22.4617C130.453 22.275 130.76 22.0882 130.965 21.878C131.159 21.6796 131.307 21.3994 131.386 21.0491C131.489 20.6172 131.432 20.2436 131.216 19.94C130.999 19.6248 130.703 19.4264 130.316 19.333C129.553 19.1462 128.95 19.438 128.494 20.1969C128.198 20.6989 127.572 20.8974 127.037 20.6872C126.32 20.407 126.058 19.5198 126.502 18.8777C126.9 18.2939 127.379 17.862 127.937 17.5701C128.859 17.0798 129.883 16.963 130.999 17.2316C132.138 17.5001 133.014 18.0604 133.618 18.9127C134.233 19.7533 134.426 20.6872 134.187 21.7029C133.891 22.9637 133.014 23.8627 131.534 24.4114C130.897 24.6449 130.487 24.855 130.316 25.0418C130.259 25.1002 130.202 25.1819 130.157 25.287C129.918 25.789 129.382 26.0458 128.859 25.9174ZM128.221 29.3614L128.119 29.338C127.401 29.1629 126.957 28.4391 127.128 27.7153C127.299 26.9915 128.016 26.5362 128.733 26.7113L128.836 26.7346C129.553 26.9097 129.997 27.6336 129.826 28.3574C129.656 29.0812 128.938 29.5365 128.221 29.3614Z" fill="#000091"/>
<path fill-rule="evenodd" clip-rule="evenodd" d="M57.1417 15.1768C56.2195 15.1301 55.5364 14.2779 55.6616 13.3439C55.7527 12.6551 55.7868 12.2231 55.8779 11.8963C56.0032 11.4526 56.8685 10.8923 57.8931 10.2035C58.4283 9.84154 58.804 9.50298 59.0203 9.18777C59.2366 8.86088 59.3619 8.46395 59.3846 7.96194C59.4188 7.35487 59.2594 6.86454 58.8951 6.49095C58.5421 6.11737 58.0867 5.9189 57.5516 5.88388C56.4813 5.82551 55.7413 6.36253 55.3086 7.49496C55.024 8.25381 54.2384 8.67409 53.4642 8.52232C52.4395 8.31218 51.8702 7.16808 52.3143 6.18742C52.7128 5.30015 53.2479 4.588 53.931 4.05098C55.0582 3.16371 56.4016 2.7551 57.9615 2.8485C59.544 2.9419 60.8534 3.47892 61.8781 4.48293C62.9027 5.48694 63.3809 6.70109 63.3012 8.13706C63.2102 9.92326 62.231 11.3592 60.3752 12.4683C59.5668 12.947 59.0772 13.3322 58.8951 13.6241C58.8381 13.7175 58.7812 13.8459 58.7357 13.9977C58.5307 14.7332 57.8704 15.2118 57.1417 15.1768ZM57.0962 20.0101L56.9481 19.9984C55.9462 19.94 55.172 19.0644 55.2289 18.0371C55.2859 17.0097 56.1398 16.2158 57.1417 16.2742L57.2897 16.2859C58.2916 16.3443 59.0658 17.2198 59.0089 18.2472C58.952 19.2862 58.0981 20.0684 57.0962 20.0101Z" fill="#000091"/>
<path fill-rule="evenodd" clip-rule="evenodd" d="M120.206 15.1885C119.283 15.2236 118.532 14.4414 118.578 13.4957C118.612 12.7953 118.6 12.3633 118.669 12.0364C118.748 11.5928 119.568 10.9507 120.524 10.1685C121.025 9.75988 121.367 9.38629 121.561 9.04773C121.754 8.70917 121.834 8.28889 121.822 7.79856C121.8 7.19148 121.595 6.71283 121.208 6.37426C120.821 6.0357 120.354 5.88393 119.819 5.89561C118.748 5.93063 118.054 6.53771 117.724 7.70516C117.507 8.48735 116.767 8.97768 115.982 8.89596C114.934 8.77922 114.274 7.69349 114.627 6.6778C114.946 5.75551 115.424 5.00834 116.05 4.40127C117.097 3.40893 118.407 2.88358 119.955 2.83688C121.549 2.77851 122.893 3.21047 123.997 4.10941C125.101 5.00834 125.682 6.18747 125.728 7.62344C125.785 9.40964 124.942 10.939 123.189 12.1999C122.426 12.7486 121.97 13.1805 121.811 13.4841C121.754 13.5891 121.72 13.7175 121.686 13.881C121.561 14.6165 120.946 15.1652 120.206 15.1885ZM120.581 20.0101H120.433C119.431 20.0451 118.589 19.2396 118.555 18.2122C118.521 17.1849 119.306 16.321 120.308 16.2859H120.456C121.458 16.2509 122.301 17.0565 122.335 18.0838C122.369 19.1112 121.583 19.9751 120.581 20.0101Z" fill="#000091"/>
<path fill-rule="evenodd" clip-rule="evenodd" d="M88.9982 93.046C93.9657 93.046 97.9927 88.9168 97.9927 83.8231C97.9927 78.7294 93.9657 74.6002 88.9982 74.6002C84.0306 74.6002 80.0037 78.7294 80.0037 83.8231C80.0037 88.9168 84.0306 93.046 88.9982 93.046Z" fill="#F95C5E"/>
<path fill-rule="evenodd" clip-rule="evenodd" d="M84.8132 74.2724C84.9834 74.2067 85.1727 74.2895 85.2455 74.4578L85.2798 74.5453L85.3198 74.643C85.3296 74.6663 85.34 74.6908 85.351 74.7162L85.3679 74.7552C85.4682 74.9846 85.5914 75.2409 85.7384 75.5175C86.159 76.3094 86.6839 77.1017 87.3187 77.8401C88.5672 79.2926 90.0809 80.3533 91.8804 80.8623C94.1122 81.4936 96.6856 81.2452 99.6334 79.9408C99.8066 79.8641 100.008 79.946 100.082 80.1236C100.157 80.3012 100.077 80.5073 99.904 80.5839C96.8185 81.9493 94.0866 82.213 91.6987 81.5375C89.7607 80.9893 88.1372 79.8517 86.8062 78.3033C86.1354 77.523 85.5822 76.688 85.1385 75.8526C84.997 75.5863 84.8759 75.3369 84.7745 75.1094L84.7446 75.0418C84.6794 74.8927 84.6361 74.7844 84.6138 74.7235C84.5473 74.5425 84.6366 74.3405 84.8132 74.2724Z" fill="#000091"/>
<path fill-rule="evenodd" clip-rule="evenodd" d="M80.2265 78.0578C80.389 77.9745 80.5852 78.0364 80.6749 78.1956L80.7152 78.2741L80.7319 78.306C80.7739 78.3853 80.825 78.4779 80.8855 78.5828C81.0595 78.8846 81.2725 79.2219 81.5255 79.5858C82.2505 80.6283 83.1494 81.6717 84.2312 82.6455C85.39 83.6887 86.6924 84.5894 88.1441 85.3053C88.3142 85.3892 88.3857 85.5984 88.3039 85.7727C88.2222 85.9471 88.0181 86.0204 87.8481 85.9366C86.3384 85.1921 84.9846 84.2558 83.7805 83.1719C82.657 82.1606 81.7235 81.0769 80.9693 79.9924C80.7047 79.6119 80.4812 79.2579 80.2975 78.9393L80.2443 78.846C80.2188 78.8009 80.1951 78.7581 80.1731 78.7177L80.112 78.6029C80.0942 78.5688 80.0815 78.5436 80.0737 78.5277C79.9894 78.3547 80.0578 78.1443 80.2265 78.0578Z" fill="#000091"/>
<path fill-rule="evenodd" clip-rule="evenodd" d="M81.9764 75.9815C82.138 75.8963 82.3349 75.9559 82.4263 76.1141L82.48 76.2156L82.515 76.2799C82.5458 76.3359 82.5808 76.3979 82.6199 76.4654C82.7776 76.7376 82.9684 77.0417 83.1925 77.3697C83.834 78.3089 84.6124 79.2487 85.5295 80.1254C87.0717 81.5998 88.8461 82.7418 90.8574 83.4238C93.3019 84.2528 95.9984 84.3667 98.96 83.6343C99.1434 83.5889 99.3279 83.7046 99.3721 83.8927C99.4163 84.0807 99.3035 84.2699 99.1201 84.3152C96.0347 85.0783 93.2084 84.9589 90.6429 84.0889C88.5318 83.373 86.6742 82.1774 85.0636 80.6377C84.1096 79.7256 83.3006 78.7489 82.6329 77.7716C82.4168 77.4552 82.2298 77.1592 82.0716 76.8899L82.0327 76.8232C81.9908 76.751 81.9532 76.6844 81.9198 76.6238L81.8617 76.5163C81.8466 76.4878 81.8357 76.4667 81.8289 76.4531C81.7426 76.2811 81.8087 76.07 81.9764 75.9815Z" fill="#000091"/>
<path fill-rule="evenodd" clip-rule="evenodd" d="M98.2885 79.3711C98.429 79.242 98.645 79.2542 98.7708 79.3983C98.8967 79.5424 98.8848 79.7638 98.7443 79.8929C94.9052 83.4186 90.9428 85.4881 86.992 86.3593C84.1377 86.9887 81.5597 86.9446 79.3888 86.4908C79.0361 86.4171 78.7251 86.3379 78.4583 86.2583L78.3605 86.2286C78.2493 86.194 78.1689 86.1663 78.1205 86.148C77.9436 86.081 77.8531 85.8796 77.9185 85.6981C77.9815 85.5232 78.1664 85.4307 78.3382 85.4844L78.4261 85.5152L78.4924 85.5371C78.5392 85.5523 78.5914 85.5686 78.6489 85.5857C78.8982 85.66 79.1911 85.7346 79.5252 85.8044C81.6081 86.2398 84.0918 86.2823 86.8483 85.6745C90.6831 84.8289 94.5379 82.8156 98.2885 79.3711Z" fill="#000091"/>
<path fill-rule="evenodd" clip-rule="evenodd" d="M99.1669 79.4737C99.2961 79.3328 99.5123 79.326 99.6497 79.4585C99.7871 79.5909 99.7938 79.8126 99.6646 79.9535C99.4781 80.1569 99.2906 80.3573 99.1022 80.5546C95.1024 84.7416 90.8123 87.4335 86.515 88.9259C85.0007 89.4518 83.5901 89.7894 82.318 89.9762C81.8969 90.038 81.5175 90.0791 81.1832 90.1033L81.1123 90.1083C80.9204 90.1211 80.7751 90.1263 80.6792 90.1272L80.6387 90.1273C80.45 90.1259 80.2982 89.968 80.2996 89.7746C80.3009 89.5881 80.4441 89.4366 80.6235 89.4273L80.6436 89.4269L80.7142 89.4261C80.79 89.4246 80.8959 89.4202 81.0306 89.4117L81.068 89.4093C81.4019 89.3871 81.7878 89.3464 82.2212 89.2828C83.4527 89.102 84.8225 88.7741 86.2958 88.2624C90.494 86.8045 94.6915 84.1706 98.6142 80.0644C98.7994 79.8705 98.9836 79.6737 99.1669 79.4737Z" fill="#000091"/>
<path fill-rule="evenodd" clip-rule="evenodd" d="M97.9617 81.5881C98.0588 81.4222 98.2687 81.3685 98.4304 81.4681C98.5921 81.5677 98.6445 81.7829 98.5473 81.9487C97.0194 84.5576 95.0761 86.7094 92.8142 88.4478C90.8616 89.9484 88.7731 91.0677 86.664 91.8666C85.9033 92.1547 85.1856 92.3832 84.5179 92.5618C84.3037 92.6191 84.105 92.6684 83.9179 92.7117L83.8384 92.7299C83.7804 92.743 83.7258 92.755 83.6718 92.7666L83.4885 92.8052C83.3037 92.8444 83.123 92.7226 83.0848 92.5332C83.0479 92.3506 83.1571 92.1717 83.3305 92.124L83.3621 92.1167C83.3893 92.1111 83.4519 92.098 83.48 92.0921L83.5836 92.0698C83.6186 92.0622 83.6542 92.0542 83.6913 92.0459L83.8454 92.0102C84.0025 91.973 84.1684 91.9313 84.3455 91.884C84.9921 91.711 85.6884 91.4893 86.4273 91.2095C88.4776 90.4328 90.5081 89.3447 92.4045 87.8873C94.5979 86.2015 96.4809 84.1165 97.9617 81.5881Z" fill="#000091"/>
<path fill-rule="evenodd" clip-rule="evenodd" d="M90.3757 43.4293H84.7057C82.3262 43.4293 80.3906 41.4446 80.3906 39.0047V28.8595H94.6794V39.0047C94.6794 41.4446 92.7552 43.4293 90.3757 43.4293Z" fill="white"/>
<path fill-rule="evenodd" clip-rule="evenodd" d="M94.6794 28.5093H80.3906C80.202 28.5093 80.0491 28.6661 80.0491 28.8595V39.0047C80.0491 41.6381 82.1375 43.7796 84.7057 43.7796H90.3757C92.942 43.7796 95.021 41.64 95.021 39.0047V28.8595C95.021 28.6661 94.868 28.5093 94.6794 28.5093ZM80.7322 29.2097H94.3378V39.0047C94.3378 41.2537 92.5642 43.0791 90.3757 43.0791H84.7057L84.6401 43.0785C82.4793 43.0425 80.7322 41.2288 80.7322 39.0047V29.2097Z" fill="#000091"/>
<path fill-rule="evenodd" clip-rule="evenodd" d="M77.9429 10.1919C76.5539 13.7643 76.3034 33.0156 87.4725 33.0156C98.6417 33.0156 97.7878 14.4181 96.3987 11.7913C95.0097 9.16451 82.5199 -1.56438 77.9429 10.1919Z" fill="white"/>
<path fill-rule="evenodd" clip-rule="evenodd" d="M82.4574 4.77934C80.4023 5.45793 78.7729 7.16479 77.6591 9.97661L77.6255 10.0622C77.2431 11.0456 76.9769 13.0053 76.9336 15.2583C76.8841 17.8368 77.1219 20.5574 77.6651 23.0206C78.3091 25.9404 79.3517 28.3927 80.8146 30.1771C82.5128 32.2484 84.7322 33.3658 87.4724 33.3658C90.2075 33.3658 92.3939 32.2889 94.0355 30.2946C95.4439 28.5835 96.4158 26.2391 96.9792 23.4597C97.4507 21.134 97.6153 18.5787 97.5017 16.1986C97.4024 14.1179 97.093 12.3697 96.6989 11.6243C96.3014 10.8727 95.1786 9.66066 93.7872 8.50759C92.1442 7.14599 90.2985 5.99203 88.4899 5.27148C86.2994 4.39883 84.2486 4.18786 82.4574 4.77934ZM78.2463 10.3576L78.26 10.3217C79.303 7.64256 80.7976 6.06332 82.6668 5.44609C84.2898 4.91015 86.1863 5.10524 88.2425 5.9244C89.98 6.6166 91.7664 7.73347 93.3578 9.05237L93.4778 9.1525C94.7492 10.2218 95.7634 11.3247 96.0983 11.9582C96.4302 12.5858 96.7247 14.2502 96.8194 16.2329C96.9303 18.5562 96.7695 21.0526 96.3104 23.3172C95.1266 29.1569 92.2388 32.6653 87.4724 32.6653C82.6898 32.6653 79.684 28.9991 78.3314 22.8661C77.801 20.4611 77.5682 17.7965 77.6166 15.2721L77.6205 15.0963C77.6716 13.0236 77.9171 11.2355 78.2463 10.3576Z" fill="#000091"/>
<path fill-rule="evenodd" clip-rule="evenodd" d="M94.1899 11.4878C94.1899 11.4878 93.8142 22.8004 100.258 23.5709C100.258 23.5709 103.879 24.2481 104.778 22.5436C104.778 22.5436 100.725 21.5162 101.01 19.5783C101.01 19.5783 103.082 22.9872 105.985 19.8234C105.985 19.8234 100.429 17.7687 100.258 12.8537C100.133 9.29299 95.169 8.54582 94.1899 11.4878Z" fill="#000091"/>
<path fill-rule="evenodd" clip-rule="evenodd" d="M81.2218 11.7796C81.2218 11.7796 81.7228 22.9405 76.1325 24.6333C76.1325 24.6333 72.8649 25.719 72.3981 24.2247C72.3981 24.2247 74.9484 22.31 74.9484 20.5122C74.9484 20.5122 71.7605 24.7033 69.9844 22.0882C69.9844 22.0882 74.2084 18.1656 74.6183 13.5074C74.9143 10.1452 80.8233 9.11781 81.2218 11.7796Z" fill="#000091"/>
<path fill-rule="evenodd" clip-rule="evenodd" d="M86.7926 20.1723C86.8185 19.9806 86.9909 19.8468 87.1778 19.8733C87.358 19.8989 87.4858 20.0643 87.4715 20.2478L87.4693 20.2683L86.9679 23.982L88.3777 23.9099C88.5594 23.9005 88.715 24.0386 88.7343 24.2216L88.7359 24.2422C88.745 24.4285 88.6104 24.588 88.4318 24.6078L88.4118 24.6095L86.5901 24.7029C86.3829 24.7135 86.2161 24.5343 86.2326 24.3253L86.2347 24.305L86.7926 20.1723Z" fill="#000091"/>
<path fill-rule="evenodd" clip-rule="evenodd" d="M89.6922 14.9272C90.5371 14.7488 91.2776 14.94 91.8903 15.3656C92.0482 15.4753 92.1856 15.5931 92.3024 15.7116C92.3749 15.7851 92.426 15.8449 92.4558 15.8841C92.5716 16.0368 92.5448 16.2568 92.3959 16.3756C92.2527 16.4898 92.0488 16.4687 91.9303 16.3312L91.9055 16.3003C91.8892 16.2807 91.8612 16.2493 91.8219 16.2095C91.7338 16.1201 91.6285 16.0299 91.5071 15.9455C91.0381 15.6197 90.4809 15.4759 89.8299 15.6133C89.6452 15.6523 89.4646 15.5303 89.4265 15.3409C89.3885 15.1514 89.5074 14.9662 89.6922 14.9272Z" fill="#000091"/>
<path fill-rule="evenodd" clip-rule="evenodd" d="M83.902 14.8743C84.3059 14.8289 84.7285 14.8706 85.1413 14.967C85.3192 15.0086 85.4562 15.0507 85.5379 15.0806C85.7155 15.1456 85.8082 15.3459 85.7448 15.5281C85.6837 15.7038 85.4998 15.7984 85.3274 15.7467L85.2596 15.724C85.2502 15.721 85.2396 15.7176 85.228 15.7141C85.1574 15.6923 85.0773 15.6705 84.9896 15.65C84.6449 15.5695 84.2942 15.5349 83.9764 15.5706C83.5422 15.6194 83.2223 15.7929 83.0273 16.1189C82.9287 16.2838 82.7184 16.3355 82.5576 16.2344C82.3968 16.1333 82.3464 15.9176 82.445 15.7527C82.7622 15.2222 83.2738 14.945 83.902 14.8743Z" fill="#000091"/>
<path fill-rule="evenodd" clip-rule="evenodd" d="M107.613 9.66653H99.9509C98.4367 4.1328 93.4612 0.0700684 87.5408 0.0700684C80.4249 0.0700684 74.6638 5.95403 74.6638 13.2039H81.2332H100.418H107.613C108.57 13.2039 109.333 12.41 109.333 11.4411C109.333 10.4604 108.558 9.66653 107.613 9.66653Z" fill="#F95C5E"/>
<path fill-rule="evenodd" clip-rule="evenodd" d="M89.7383 9.01275H78.7969C78.7969 6.7479 81.2447 4.90332 84.2733 4.90332C87.3018 4.90332 89.7383 6.7479 89.7383 9.01275Z" fill="#000091"/>
<path fill-rule="evenodd" clip-rule="evenodd" d="M90.4849 26.5663C90.6385 26.454 90.8518 26.4906 90.9613 26.6481C91.0709 26.8056 91.0351 27.0243 90.8816 27.1366C90.5284 27.3949 90.1225 27.5883 89.675 27.7247C88.9042 27.9597 88.1003 28.0088 87.3879 27.9539L87.3036 27.9468C87.2531 27.9421 87.2144 27.9377 87.1886 27.9342C87.0015 27.9088 86.8701 27.7327 86.8948 27.5409C86.9188 27.356 87.0793 27.2241 87.2584 27.2377L87.3163 27.2442L87.3732 27.2499C87.3937 27.2518 87.4157 27.2536 87.4391 27.2554C88.0757 27.3045 88.8018 27.2601 89.4803 27.0533C89.8592 26.9378 90.1971 26.7768 90.4849 26.5663Z" fill="#000091"/>
<path fill-rule="evenodd" clip-rule="evenodd" d="M84.8081 19.6303C84.8103 19.1532 84.5674 18.7652 84.2655 18.7638C83.9637 18.7624 83.7173 19.148 83.7151 19.6251C83.7129 20.1022 83.9559 20.4902 84.2577 20.4916C84.5595 20.4931 84.8059 20.1075 84.8081 19.6303Z" fill="#000091"/>
<path fill-rule="evenodd" clip-rule="evenodd" d="M90.6179 20.5956C90.9146 20.5392 91.0864 20.1131 91.0015 19.644C90.9166 19.1749 90.6073 18.8404 90.3105 18.8968C90.0138 18.9533 89.842 19.3793 89.9269 19.8484C90.0117 20.3175 90.3211 20.6521 90.6179 20.5956Z" fill="#000091"/>
<path fill-rule="evenodd" clip-rule="evenodd" d="M60.9329 37.4169C60.9329 37.4169 61.7412 26.3845 63.8248 26.688C64.7242 26.8165 68.1171 31.0426 70.1779 34.008" fill="#F95C5E"/>
<path fill-rule="evenodd" clip-rule="evenodd" d="M62.1592 28.1537C62.6156 26.9079 63.1529 26.2364 63.8719 26.3411C64.4164 26.4189 65.406 27.3749 66.8241 29.0549C68.0069 30.4562 69.3776 32.2529 70.456 33.8047C70.5655 33.9622 70.5297 34.1809 70.3761 34.2932C70.2225 34.4054 70.0092 34.3687 69.8997 34.2112C68.8658 32.7234 67.5579 31.0051 66.4143 29.6402L66.2224 29.4127C65.0072 27.9825 64.0629 27.0756 63.7767 27.0348C63.1723 26.9467 62.4492 28.9204 61.9155 32.1086C61.7203 33.2747 61.5579 34.5257 61.427 35.7769L61.3939 36.0994C61.3728 36.3103 61.3535 36.5127 61.3359 36.7053L61.3109 36.9866C61.303 37.0778 61.2959 37.1615 61.2897 37.2375L61.2735 37.4431C61.2594 37.636 61.0954 37.7806 60.9073 37.7661C60.7259 37.7522 60.5883 37.5953 60.5914 37.4112L60.5947 37.3588L60.6169 37.0828L60.6304 36.9246C60.6624 36.5556 60.7014 36.1447 60.7478 35.7022C60.8801 34.4374 61.0443 33.1723 61.2422 31.9901L61.2784 31.7769C61.5276 30.3315 61.8118 29.1229 62.1355 28.2193L62.1592 28.1537Z" fill="#000091"/>
<path fill-rule="evenodd" clip-rule="evenodd" d="M64.2892 27.6082C64.4286 27.4779 64.6447 27.4882 64.7717 27.6312C64.8939 27.7687 64.8893 27.9788 64.7648 28.1106L64.7493 28.126C64.7564 28.1193 64.7594 28.1163 64.7586 28.1176L64.7573 28.1193C64.7428 28.1385 64.7241 28.1676 64.702 28.2081C64.6291 28.3419 64.5525 28.5379 64.4786 28.8066L64.4574 28.8862C64.1495 30.0724 64.0264 32.0452 64.1998 34.9908C64.2112 35.1839 64.0678 35.3498 63.8795 35.3615C63.6912 35.3732 63.5293 35.2261 63.5179 35.033L63.5063 34.8289C63.3425 31.8571 63.4818 29.8512 63.8211 28.6166C63.9758 28.0538 64.1453 27.7426 64.2892 27.6082Z" fill="#000091"/>
<path fill-rule="evenodd" clip-rule="evenodd" d="M71.5327 32.2216C71.5327 32.2216 74.7662 26.9097 76.5195 28.1239C77.271 28.6492 79.104 32.8054 80.106 35.5606" fill="#F95C5E"/>
<path fill-rule="evenodd" clip-rule="evenodd" d="M74.3702 28.2645C75.2497 27.5837 76.0508 27.3766 76.712 27.8345C77.4708 28.365 79.1957 32.0547 80.4261 35.4382C80.492 35.6195 80.4021 35.8212 80.2254 35.8888C80.0486 35.9563 79.8519 35.8642 79.786 35.683L79.7158 35.4913C78.5594 32.3521 76.8965 28.8113 76.3284 28.4142C75.9737 28.1685 75.4547 28.3027 74.7818 28.8236C74.3246 29.1775 73.831 29.686 73.3216 30.3079C72.9455 30.7669 72.583 31.2601 72.2482 31.7533L72.1625 31.8804C72.093 31.9843 72.0284 32.0829 71.9689 32.1751L71.8808 32.3135L71.8225 32.4071C71.7226 32.5712 71.5119 32.6212 71.3519 32.5188C71.1978 32.4202 71.1469 32.2162 71.2325 32.0547L71.2522 32.0213L71.3429 31.8766L71.3625 31.8459C71.4576 31.697 71.5665 31.5314 71.6875 31.3531C72.0334 30.8437 72.4079 30.3341 72.7985 29.8573C73.3383 29.1985 73.8658 28.655 74.3702 28.2645Z" fill="#000091"/>
<path fill-rule="evenodd" clip-rule="evenodd" d="M76.2556 28.4137C76.3951 28.2834 76.6111 28.2938 76.7381 28.4368C76.8603 28.5743 76.8556 28.7844 76.7311 28.9162L76.6528 28.9928L76.6392 29.0064C76.5748 29.0711 76.5027 29.1467 76.4248 29.2324C76.2013 29.478 75.9775 29.7536 75.7692 30.0515C75.0914 31.0209 74.7383 31.9867 74.8642 32.8537C74.8947 33.0638 74.9535 33.2671 75.0423 33.464C75.1214 33.6396 75.0468 33.8477 74.8756 33.9289C74.7043 34.01 74.5014 33.9335 74.4222 33.7579C74.3059 33.5 74.2286 33.2324 74.1886 32.9569C74.031 31.8724 74.4427 30.7465 75.2141 29.6433C75.4406 29.3193 75.6828 29.021 75.9252 28.7546L76.0042 28.6688C76.1133 28.552 76.1998 28.4658 76.2556 28.4137Z" fill="#000091"/>
<path fill-rule="evenodd" clip-rule="evenodd" d="M81.9277 35.4556C80.2654 34.1831 78.0452 33.4359 78.0452 33.4359L70.9862 32.5603C69.0621 32.2218 67.0924 32.3268 65.2252 32.8872L63.8703 33.2841C57.6425 35.9926 59.874 42.2385 62.9823 46.1028C62.8001 49.2899 62.7545 57.5555 66.9444 61.3731C71.009 65.0856 71.4075 55.349 71.3733 50.7843C72.1362 50.9244 72.9445 50.9944 73.7757 50.9944C73.8554 55.1505 74.3791 64.7937 77.8061 60.8244C81.1193 56.9951 81.3584 50.9127 81.2901 48.2976C81.4381 48.1808 81.5861 48.0641 81.7341 47.9357C87.9733 42.6705 83.4078 36.588 81.9277 35.4556Z" fill="#F95C5E"/>
<path fill-rule="evenodd" clip-rule="evenodd" d="M69.6655 32.3618L71.5897 32.3968L69.6655 32.3618Z" fill="#F95C5E"/>
<path fill-rule="evenodd" clip-rule="evenodd" d="M73.3754 39.4665C73.408 38.6935 73.0475 38.0496 72.57 38.0284C72.0926 38.0071 71.679 38.6166 71.6463 39.3896C71.6137 40.1626 71.9742 40.8065 72.4517 40.8277C72.9291 40.849 73.3427 40.2395 73.3754 39.4665Z" fill="#000091"/>
<path fill-rule="evenodd" clip-rule="evenodd" d="M79.0734 40.2786C79.1061 39.5056 78.7455 38.8617 78.268 38.8405C77.7906 38.8193 77.377 39.4287 77.3443 40.2018C77.3117 40.9748 77.6722 41.6186 78.1497 41.6399C78.6271 41.6611 79.0407 41.0516 79.0734 40.2786Z" fill="#000091"/>
<path fill-rule="evenodd" clip-rule="evenodd" d="M77.1912 41.8648L75.916 42.7404C75.7339 42.8688 75.4606 42.8221 75.3012 42.647L74.3449 41.5146C74.1171 41.2461 74.3221 40.8842 74.6978 40.9309L76.9407 41.1877C77.3165 41.2227 77.4759 41.6664 77.1912 41.8648Z" fill="#000091"/>
<path fill-rule="evenodd" clip-rule="evenodd" d="M75.7752 41.9349L75.7953 41.9359C75.9833 41.9514 76.1236 42.1202 76.1085 42.313C76.0776 42.7097 76.2202 43.411 76.4285 43.8138L76.4603 43.8748C76.6078 44.1526 76.6393 44.1325 76.8386 43.7791C76.9331 43.6117 77.1421 43.5545 77.3053 43.6514C77.4686 43.7482 77.5244 43.9625 77.43 44.1299C76.9261 45.0229 76.2345 44.9343 75.8249 44.1419C75.5559 43.6216 75.3862 42.7872 75.4276 42.2571C75.4421 42.0712 75.5957 41.9309 75.7752 41.9349Z" fill="#000091"/>
<path fill-rule="evenodd" clip-rule="evenodd" d="M75.8209 41.9466L75.8409 41.9477C76.029 41.9631 76.1692 42.1319 76.1542 42.3247C76.1096 42.8955 75.8517 43.7716 75.5484 44.2447C75.3119 44.6137 75.0167 44.8143 74.6637 44.7058C74.3346 44.6046 74.0941 44.249 73.8859 43.6382C73.8237 43.4556 73.9176 43.2558 74.0957 43.192C74.2738 43.1282 74.4686 43.2245 74.5308 43.4071C74.6114 43.6436 74.6918 43.8175 74.7677 43.9297C74.7922 43.966 74.8147 43.9934 74.8343 44.0126L74.8437 44.0213L74.8464 44.0194C74.8783 43.9941 74.918 43.9487 74.9612 43.8848L74.9775 43.86C75.2123 43.4937 75.4373 42.7297 75.4732 42.2689C75.4877 42.0829 75.6413 41.9426 75.8209 41.9466Z" fill="#000091"/>
<path fill-rule="evenodd" clip-rule="evenodd" d="M87.5102 37.2875C89.4828 36.9196 91.5367 37.154 93.6438 38.1001C93.8166 38.1777 93.8953 38.3842 93.8197 38.5614C93.744 38.7386 93.5426 38.8193 93.3698 38.7417C91.3884 37.8521 89.4726 37.6335 87.6324 37.9766C86.1486 38.2534 84.7738 38.8826 83.5283 39.7592C82.9241 40.1844 82.3903 40.64 81.9329 41.0951C81.7911 41.2361 81.6661 41.3678 81.5584 41.4876L81.5188 41.5319C81.4946 41.5591 81.4725 41.5844 81.4525 41.6077L81.3921 41.6795C81.3884 41.684 81.3856 41.6874 81.3838 41.6897C81.2644 41.8394 81.0492 41.8615 80.9032 41.7391C80.7572 41.6166 80.7356 41.396 80.855 41.2463L80.8958 41.1965C80.9252 41.1614 80.9645 41.1158 81.0133 41.0607C81.139 40.9189 81.2872 40.7614 81.4572 40.5923C81.941 40.1111 82.5042 39.6304 83.1418 39.1816C84.462 38.2525 85.9241 37.5833 87.5102 37.2875Z" fill="#000091"/>
<path fill-rule="evenodd" clip-rule="evenodd" d="M87.82 39.7323C89.9785 39.6608 92.1072 40.2824 94.1453 41.7286C94.3004 41.8387 94.3391 42.0569 94.2318 42.2159C94.1244 42.375 93.9116 42.4147 93.7565 42.3046C91.8408 40.9452 89.8563 40.3657 87.8421 40.4324C86.2611 40.4849 84.7437 40.9303 83.3412 41.641C82.8162 41.9071 82.3448 42.1921 81.9348 42.4765C81.81 42.5631 81.699 42.6441 81.6025 42.7178L81.5208 42.7812L81.44 42.8465C81.2949 42.9701 81.0795 42.9495 80.9591 42.8006C80.8386 42.6518 80.8587 42.431 81.0039 42.3075L81.0527 42.2671C81.0784 42.2463 81.1109 42.2205 81.15 42.1902L81.2398 42.1216C81.3332 42.0513 81.4374 41.9759 81.552 41.8963C81.9866 41.5948 82.4845 41.2938 83.0385 41.0131C84.5227 40.2609 86.1328 39.7883 87.82 39.7323Z" fill="#000091"/>
<path fill-rule="evenodd" clip-rule="evenodd" d="M56.7134 37.0355C58.8209 36.1284 60.866 35.9238 62.8227 36.3138C64.3993 36.6281 65.8487 37.3119 67.155 38.2538C67.7979 38.7173 68.3647 39.2139 68.8509 39.7111C69.0216 39.8858 69.1704 40.0484 69.2965 40.1949L69.3865 40.3014C69.4166 40.3377 69.4395 40.3662 69.4551 40.3864C69.5722 40.538 69.5474 40.7583 69.3996 40.8784C69.2574 40.994 69.0533 40.9749 68.9337 40.8385L68.8881 40.7821C68.8593 40.7467 68.8247 40.7053 68.7843 40.6584C68.6676 40.5228 68.5287 40.371 68.3684 40.207C67.9087 39.7369 67.3713 39.2661 66.762 38.8268C65.5298 37.9383 64.1671 37.2954 62.6923 37.0014C60.8671 36.6376 58.9594 36.8285 56.9778 37.6814C56.8038 37.7563 56.6036 37.6724 56.5306 37.494C56.4576 37.3157 56.5394 37.1104 56.7134 37.0355Z" fill="#000091"/>
<path fill-rule="evenodd" clip-rule="evenodd" d="M56.166 40.6515C58.2128 39.2463 60.3374 38.6567 62.4818 38.7532C64.1621 38.8288 65.7613 39.3178 67.2338 40.0851C67.796 40.378 68.3006 40.692 68.7408 41.0065C68.8956 41.1171 69.0316 41.2202 69.1479 41.3131L69.2298 41.3796C69.2586 41.4033 69.2806 41.422 69.2956 41.4352C69.4389 41.561 69.4557 41.7821 69.3331 41.929C69.2152 42.0704 69.0113 42.0917 68.8684 41.9814L68.7887 41.9147C68.7703 41.8996 68.75 41.8832 68.7279 41.8655C68.6211 41.7802 68.4949 41.6845 68.3503 41.5812C67.9349 41.2845 67.4571 40.9872 66.9244 40.7096C65.5331 39.9847 64.0261 39.5238 62.4519 39.453C60.4508 39.3629 58.4702 39.9126 56.546 41.2335C56.3893 41.3412 56.1771 41.2981 56.0722 41.1374C55.9672 40.9766 56.0092 40.7591 56.166 40.6515Z" fill="#000091"/>
<path fill-rule="evenodd" clip-rule="evenodd" d="M67.6253 55.6344C67.8048 55.5751 67.9973 55.6761 68.0552 55.8602C68.1859 56.2755 68.2683 56.718 68.3068 57.1837C68.3965 58.2709 68.2475 59.4248 67.9451 60.5613C67.8691 60.8469 67.7882 61.1121 67.7067 61.3524L67.6566 61.4965C67.6125 61.6209 67.5775 61.7121 67.5553 61.766C67.482 61.9442 67.2817 62.0278 67.1079 61.9526C66.9403 61.8802 66.8585 61.6866 66.9186 61.513L66.9547 61.4201L66.9934 61.316C67.007 61.2786 67.0213 61.2387 67.0361 61.1961C67.1211 60.9516 67.2064 60.6763 67.2861 60.377C67.5691 59.3131 67.7081 58.2367 67.6261 57.2428C67.5918 56.8281 67.5191 56.4377 67.4051 56.0753C67.3472 55.8912 67.4458 55.6938 67.6253 55.6344Z" fill="#000091"/>
<path fill-rule="evenodd" clip-rule="evenodd" d="M69.3672 56.0197C69.5468 55.9603 69.7393 56.0614 69.7972 56.2455C69.9278 56.6608 70.0103 57.1033 70.0487 57.569C70.1384 58.6561 69.9894 59.8101 69.687 60.9466C69.6111 61.2322 69.5302 61.4974 69.4486 61.7376L69.3986 61.8817C69.3544 62.0062 69.3194 62.0974 69.2973 62.1512C69.224 62.3295 69.0236 62.413 68.8498 62.3379C68.6822 62.2654 68.6004 62.0718 68.6605 61.8983L68.6967 61.8053L68.7354 61.7013C68.749 61.6639 68.7632 61.6239 68.778 61.5814C68.8631 61.3369 68.9484 61.0616 69.028 60.7622C69.311 59.6984 69.45 58.6219 69.368 57.628C69.3338 57.2133 69.261 56.8229 69.147 56.4605C69.0891 56.2765 69.1877 56.0791 69.3672 56.0197Z" fill="#000091"/>
<path fill-rule="evenodd" clip-rule="evenodd" d="M75.9366 55.109C76.1161 55.0497 76.3086 55.1508 76.3665 55.3348C76.4971 55.7501 76.5796 56.1926 76.618 56.6583C76.7077 57.7455 76.5588 58.8994 76.2564 60.0359C76.1804 60.3215 76.0995 60.5867 76.0179 60.827L75.9679 60.9711C75.9238 61.0955 75.8887 61.1867 75.8666 61.2406C75.7933 61.4188 75.593 61.5024 75.4192 61.4272C75.2515 61.3548 75.1698 61.1612 75.2299 60.9876L75.266 60.8947L75.3047 60.7906C75.3183 60.7533 75.3325 60.7133 75.3473 60.6707C75.4324 60.4262 75.5177 60.151 75.5973 59.8516C75.8804 58.7877 76.0194 57.7113 75.9373 56.7174C75.9031 56.3027 75.8304 55.9123 75.7164 55.5499C75.6584 55.3658 75.757 55.1684 75.9366 55.109Z" fill="#000091"/>
<path fill-rule="evenodd" clip-rule="evenodd" d="M77.929 54.9106C78.1085 54.8512 78.301 54.9523 78.3589 55.1364C78.4896 55.5516 78.572 55.9941 78.6105 56.4599C78.7002 57.547 78.5512 58.7009 78.2488 59.8375C78.1728 60.123 78.0919 60.3882 78.0104 60.6285L77.9604 60.7726C77.9162 60.8971 77.8812 60.9882 77.859 61.0421C77.7857 61.2203 77.5854 61.3039 77.4116 61.2288C77.244 61.1563 77.1622 60.9627 77.2223 60.7892L77.2584 60.6962L77.2972 60.5921C77.3107 60.5548 77.325 60.5148 77.3398 60.4723C77.4248 60.2277 77.5101 59.9525 77.5898 59.6531C77.8728 58.5892 78.0118 57.5128 77.9298 56.5189C77.8956 56.1042 77.8228 55.7138 77.7088 55.3514C77.6509 55.1673 77.7495 54.9699 77.929 54.9106Z" fill="#000091"/>
<path fill-rule="evenodd" clip-rule="evenodd" d="M100.395 72.3821L96.877 73.8647C93.2223 73.0242 91.9813 73.1759 90.4556 73.8647C89.1804 74.4368 89.2943 75.219 91.8105 75.7327C94.3267 76.2463 94.987 76.69 94.987 76.69C90.2734 85.5159 97.6057 85.621 97.6057 85.621C96.9453 86.5199 93.894 89.9406 96.0117 89.602C98.3571 89.2284 101.295 85.2708 102.41 82.8658L102.513 82.7257C102.558 82.6323 104.619 81.2547 106.054 80.0522C105.439 77.7524 102.171 73.3277 100.395 72.3821Z" fill="white"/>
<path fill-rule="evenodd" clip-rule="evenodd" d="M100.265 72.058L96.8464 73.4988L96.5495 73.4321C93.3737 72.7294 91.9985 72.7853 90.3179 73.5441C89.5044 73.909 89.0962 74.4197 89.4142 74.9935C89.6751 75.4642 90.4511 75.8122 91.7437 76.0761L91.9174 76.112C92.9166 76.3218 93.6763 76.5325 94.2277 76.7338L94.2728 76.7504C94.3438 76.7768 94.4088 76.8023 94.4681 76.8266L94.517 76.8469L94.5135 76.8538C93.2616 79.2943 92.8493 81.2322 93.1673 82.7255C93.4411 84.0108 94.2329 84.8922 95.3629 85.427L95.4497 85.4671C95.9141 85.6764 96.4046 85.815 96.8945 85.8969L96.945 85.905L96.4247 86.5665C96.3469 86.6661 96.2796 86.753 96.2312 86.8166C96.1003 86.9891 95.9795 87.1527 95.8675 87.31L95.786 87.4253C95.3346 88.0712 95.0527 88.5843 94.9635 88.9866C94.8076 89.6901 95.2519 90.0778 96.0643 89.948C97.2442 89.76 98.5822 88.7691 99.9266 87.2292L100 87.1444C101.076 85.8952 102.078 84.3682 102.678 83.1021L102.703 83.0486L102.772 82.9543L102.789 82.9411C102.805 82.9279 102.826 82.9118 102.851 82.8927L103.079 82.7249L103.926 82.1151C104.4 81.7727 104.745 81.5185 105.121 81.2332L105.166 81.1988C105.329 81.075 105.485 80.9545 105.635 80.8373L105.723 80.7674C105.918 80.6131 106.101 80.4651 106.27 80.3233C106.374 80.2357 106.419 80.0931 106.383 79.9596C105.745 77.5714 102.419 73.0647 100.552 72.0711C100.463 72.0236 100.358 72.0189 100.265 72.058ZM100.372 72.7701L100.394 72.7829C102.046 73.8072 104.904 77.6667 105.641 79.87L105.66 79.9278L105.619 79.9612C105.519 80.0429 105.415 80.1268 105.306 80.2128C105.162 80.3263 105.012 80.4432 104.855 80.5635L104.582 80.7704C104.186 81.0688 103.802 81.3486 103.232 81.7589L102.656 82.1734L102.427 82.3425C102.299 82.4383 102.261 82.4727 102.23 82.5251L102.223 82.5382L102.137 82.6556C102.123 82.6742 102.112 82.6942 102.102 82.7153C101.522 83.9648 100.503 85.5185 99.4176 86.762C98.1694 88.1917 96.9444 89.0989 95.9592 89.2558C95.8332 89.276 95.7347 89.2797 95.6649 89.2702L95.6506 89.2681C95.6418 89.2666 95.6344 89.2651 95.6282 89.2637L95.6164 89.2604L95.6159 89.2496C95.6155 89.2239 95.6195 89.1876 95.6296 89.1419C95.6967 88.839 95.9736 88.3485 96.4191 87.7232C96.5088 87.5973 96.6047 87.4666 96.7077 87.3298L96.8164 87.1867C97.0983 86.8202 97.788 85.9547 97.8784 85.8316C98.0428 85.6078 97.8969 85.2896 97.6292 85.2715L97.5595 85.2688C97.5371 85.2677 97.5095 85.266 97.477 85.2636L97.4517 85.2616C97.3174 85.2509 97.1669 85.2328 97.0045 85.2056C96.5409 85.1281 96.0779 84.9939 95.6492 84.791C94.7005 84.342 94.0587 83.6277 93.8347 82.5761C93.5428 81.2056 93.9714 79.3206 95.2865 76.8581C95.3721 76.6979 95.3232 76.4971 95.1741 76.3969L95.1507 76.382C95.1154 76.3603 95.0632 76.3316 94.9917 76.2966L94.9255 76.2649C94.7988 76.206 94.6435 76.1421 94.4568 76.0739L94.3549 76.0374C93.7829 75.8361 93.0255 75.6297 92.0557 75.4261L91.8771 75.3891C90.7729 75.1637 90.136 74.8781 90.0082 74.6475L90.0019 74.6347C89.9932 74.6128 90.0004 74.5967 90.0396 74.5476C90.1281 74.4368 90.3169 74.3091 90.5924 74.1855L90.6879 74.1431C92.2411 73.4639 93.5336 73.4547 96.8022 74.2064C96.8705 74.2221 96.942 74.2159 97.0068 74.1886L100.372 72.7701Z" fill="#000091"/>
<path fill-rule="evenodd" clip-rule="evenodd" d="M96.0914 83.8114C94.5316 86.2981 92.2545 88.096 92.9945 88.5046C94.3266 89.2984 97.2186 87.0219 98.471 84.7337" fill="white"/>
<path fill-rule="evenodd" clip-rule="evenodd" d="M95.8039 83.622C95.906 83.4593 96.1173 83.4123 96.276 83.5169C96.4346 83.6215 96.4805 83.8382 96.3785 84.0009C96.1163 84.4188 95.8232 84.8364 95.491 85.2715L95.4072 85.3807C95.0052 85.9008 93.761 87.3783 93.5967 87.5922L93.5422 87.6641C93.367 87.8977 93.2588 88.072 93.2127 88.1924L93.2023 88.2219L93.2301 88.2357C94.2982 88.7349 96.8894 86.8487 98.1348 84.631L98.1729 84.5623C98.2652 84.3937 98.4734 84.3337 98.638 84.4283C98.8025 84.523 98.861 84.7365 98.7686 84.9052C97.3641 87.4714 94.3709 89.6499 92.8772 88.8385L92.8324 88.813C92.5219 88.6415 92.4427 88.3213 92.5626 87.9754C92.6368 87.7614 92.7863 87.5193 93.0267 87.2025L93.0601 87.1588C93.2342 86.9321 94.4445 85.4945 94.8535 84.9692L94.8718 84.9456C95.2257 84.4878 95.5331 84.0537 95.8039 83.622Z" fill="#000091"/>
<path fill-rule="evenodd" clip-rule="evenodd" d="M93.1995 82.6906C92.1178 84.1733 88.9071 86.835 90.9224 87.1736C92.9376 87.5122 95.5221 84.757 96.2621 83.7997C97.0022 82.8424 97.2185 82.282 97.2185 82.282" fill="white"/>
<path fill-rule="evenodd" clip-rule="evenodd" d="M96.901 82.1531C96.9705 81.9732 97.1689 81.8851 97.3443 81.9563C97.5197 82.0275 97.6056 82.231 97.5362 82.4109L97.5229 82.4439C97.4856 82.5332 97.418 82.6722 97.3136 82.8572C97.122 83.1967 96.8639 83.5851 96.5299 84.0172C96.0017 84.7005 95.1416 85.5829 94.2762 86.2522C93.0466 87.2032 91.8865 87.6905 90.8672 87.5192C90.0162 87.3763 89.7411 86.8009 90.061 86.0566C90.2671 85.5769 90.6813 85.0355 91.4121 84.2186L91.6153 83.9931L92.301 83.2347C92.6641 82.8294 92.7583 82.7107 92.926 82.4808C93.039 82.3259 93.2531 82.2943 93.4041 82.4101C93.5552 82.526 93.586 82.7455 93.4731 82.9004L93.375 83.0332C93.2313 83.2244 93.1007 83.379 92.7383 83.7819L92.0798 84.5096C92.0207 84.5749 91.9671 84.6345 91.9155 84.6921L91.7836 84.8405C91.2004 85.5015 90.8569 85.9582 90.6975 86.3133L90.6861 86.3391C90.541 86.6767 90.5815 86.7614 90.9777 86.828C91.7675 86.9607 92.7705 86.5394 93.8648 85.693C94.6815 85.0613 95.5008 84.2208 95.9946 83.5821C96.3081 83.1765 96.5474 82.8163 96.7223 82.5064C96.7747 82.4135 96.8176 82.3317 96.8517 82.2614L96.8896 82.18L96.901 82.1531Z" fill="#000091"/>
<path fill-rule="evenodd" clip-rule="evenodd" d="M94.9071 76.865C93.3359 79.5968 90.0911 81.2546 89.7154 83.4144C89.3396 85.5742 92.2429 83.7997 93.7686 82.4221C95.2942 81.0328 95.5333 80.2039 95.5333 80.2039" fill="white"/>
<path fill-rule="evenodd" clip-rule="evenodd" d="M94.6129 76.6871C94.7088 76.5205 94.9182 76.4651 95.0807 76.5634C95.2431 76.6616 95.2972 76.8764 95.2014 77.043C94.703 77.9095 94.0661 78.6704 93.0911 79.6416L92.8777 79.8521C92.6254 80.0984 92.068 80.6371 91.9425 80.7603L91.7809 80.9201C91.4874 81.2123 91.2583 81.4532 91.0556 81.6859C90.474 82.3533 90.1486 82.9185 90.0516 83.476C89.9861 83.8525 90.0316 84.0048 90.1195 84.0467C90.2441 84.106 90.5227 84.0705 90.9055 83.9183C91.6675 83.6152 92.7262 82.8967 93.5418 82.1603C94.1885 81.5714 94.6434 81.0472 94.9399 80.5963C95.031 80.4577 95.0999 80.3369 95.1495 80.2345L95.1639 80.2044C95.1737 80.1832 95.1821 80.1642 95.1891 80.1474L95.2058 80.1046C95.2593 79.9192 95.4493 79.8133 95.6302 79.8681C95.8111 79.923 95.9144 80.1178 95.8609 80.3033C95.8483 80.3469 95.8228 80.4149 95.7804 80.506C95.7153 80.6461 95.6252 80.8071 95.5063 80.9879C95.1766 81.4892 94.6836 82.0573 93.9943 82.685C93.1222 83.4725 91.9993 84.2345 91.1525 84.5714C90.6117 84.7865 90.1694 84.8428 89.8317 84.6819C89.4062 84.4793 89.2653 84.0072 89.3791 83.353C89.5024 82.6442 89.8879 81.9747 90.5461 81.2192L90.623 81.132C90.8438 80.8839 91.0939 80.6252 91.413 80.3105L91.6483 80.0809C91.8805 79.8556 92.2497 79.4982 92.4266 79.3253L92.4796 79.2733C93.4921 78.2763 94.1301 77.5266 94.6129 76.6871Z" fill="#000091"/>
<path fill-rule="evenodd" clip-rule="evenodd" d="M95.7493 70.0992C95.7968 69.912 95.9832 69.7996 96.1658 69.8482L96.2024 69.8583C96.3012 69.8863 96.4547 69.9355 96.6563 70.0087L96.6973 70.0237C97.1083 70.1749 97.565 70.3714 98.0559 70.6184C99.455 71.3223 100.853 72.2904 102.157 73.5645C105.548 76.8763 107.71 81.6336 108.057 88.0767C108.067 88.2698 107.923 88.435 107.735 88.4457C107.546 88.4563 107.385 88.3084 107.375 88.1153C107.038 81.8512 104.952 77.2611 101.686 74.0717C100.435 72.8494 99.0943 71.9211 97.755 71.2472C97.2876 71.012 96.8543 70.8256 96.4666 70.683L96.3686 70.6476C96.3053 70.6251 96.246 70.6048 96.1908 70.5867L96.1112 70.5611C96.0592 70.5448 96.0224 70.534 96.0019 70.5283L95.9941 70.5262C95.8115 70.4776 95.7019 70.2864 95.7493 70.0992Z" fill="white"/>
<path fill-rule="evenodd" clip-rule="evenodd" d="M166.897 98.4863C167.086 98.4863 167.239 98.6431 167.239 98.8366C167.239 99.0231 167.097 99.1756 166.917 99.1862L166.897 99.1868H1.04542C0.856781 99.1868 0.703857 99.03 0.703857 98.8366C0.703857 98.65 0.846053 98.4976 1.02535 98.4869L1.04542 98.4863H166.897Z" fill="#000091"/>
</svg>
