<svg width="234" height="139" viewBox="0 0 234 139" fill="none" xmlns="http://www.w3.org/2000/svg">
<path fill-rule="evenodd" clip-rule="evenodd" d="M162.331 58.0613C184.974 56.4069 188.215 73.7298 187.359 86.907C186.487 100.396 184.194 137.241 184.194 137.241C184.332 137.436 130.408 137.436 130.561 137.241C130.561 137.241 132.717 100.396 133.588 86.907C134.444 73.7298 139.887 56.3874 162.331 58.0613Z" fill="#FE7624"/>
<path fill-rule="evenodd" clip-rule="evenodd" d="M179.482 93.3093L177.498 125.866C177.202 130.67 176.972 134.36 176.777 137.386C176.757 137.707 176.535 137.946 176.283 137.92C176.031 137.894 175.843 137.612 175.863 137.291L176.258 131.032C176.428 128.309 176.622 125.151 176.851 121.413L178.712 90.885L178.967 86.8395C179.391 80.2954 178.703 74.4056 176.626 69.7073C174.079 63.9462 169.547 60.2164 162.694 58.9702C162.444 58.9245 162.269 58.6288 162.305 58.3095C162.341 57.9903 162.573 57.7684 162.824 57.814C169.951 59.1102 174.734 63.0467 177.425 69.1345C179.583 74.0151 180.304 80.0563 179.894 86.7325L179.553 92.1694C179.53 92.5366 179.507 92.9164 179.482 93.3093Z" fill="#2E186A"/>
<path fill-rule="evenodd" clip-rule="evenodd" d="M133.588 104.152C133.588 104.133 121.388 106.585 121.388 106.585L120.088 122.098L120.547 134.282C123.177 134.36 126.02 134.127 129.032 133.426C130.928 132.978 132.961 130.915 133.512 128.56C134.414 124.648 134.628 113.865 133.588 104.152Z" fill="white"/>
<path fill-rule="evenodd" clip-rule="evenodd" d="M133.661 103.575L133.606 103.568L133.569 103.568C133.56 103.568 133.557 103.569 133.55 103.569L133.508 103.575L133.384 103.598L131.165 104.035L125.49 105.17L121.316 106.008C121.111 106.049 120.954 106.26 120.932 106.523L119.632 122.036C119.63 122.065 119.629 122.096 119.63 122.125L120.089 134.31C120.1 134.616 120.296 134.859 120.536 134.866C123.356 134.949 126.218 134.674 129.115 134C131.236 133.499 133.366 131.233 133.951 128.726L133.981 128.595C134.942 124.214 135.022 113.225 134.043 104.073L134.036 104.074L134.032 104.048C134.016 103.937 134.009 103.92 133.973 103.834L133.881 103.713C133.844 103.666 133.837 103.661 133.815 103.644L133.729 103.599C133.696 103.582 133.686 103.58 133.661 103.575ZM133.195 104.816L133.219 105.054C134.101 113.979 133.989 124.419 133.072 128.395C132.588 130.463 130.741 132.428 128.949 132.851L128.691 132.91C126.118 133.488 123.571 133.745 121.06 133.709L120.985 133.708L120.548 122.115L121.807 107.092L131.117 105.227L133.195 104.816Z" fill="#2E186A"/>
<path fill-rule="evenodd" clip-rule="evenodd" d="M125.241 137.825L127.687 119.665C127.687 119.665 125.394 116.025 125.577 110.887C125.592 110.556 125.608 110.205 125.638 109.855C125.623 109.777 120.807 107.792 120.532 107.052C120.715 102.867 123.391 91.7535 128.1 89.1843C129.613 88.2889 133.267 86.9654 134.016 86.6345C137.502 85.1357 144.826 82.6833 151.186 84.2988C151.186 84.2988 160.909 86.3231 163.08 87.958C164.257 88.8534 170.144 93.6999 171.26 107.111C171.275 107.325 161.093 111.86 161.093 111.86L160.084 137.805" fill="#5D21D1"/>
<path fill-rule="evenodd" clip-rule="evenodd" d="M140.116 78.1479L140.025 85.2912L138.037 85.7778C137.701 86.4006 133.94 93.7191 142.44 94.6534C147.99 95.2762 154.106 91.1304 157.393 86.206L151.95 84.318L150.314 71.063L140.116 78.1479Z" fill="white"/>
<path fill-rule="evenodd" clip-rule="evenodd" d="M139.897 77.6353L139.87 77.6552C139.741 77.7601 139.661 77.9412 139.658 78.1383L139.572 84.8071L137.951 85.2043C137.832 85.2333 137.728 85.3205 137.659 85.4469C137.442 85.8503 137.19 86.405 136.967 87.0647C136.618 88.0956 136.428 89.1308 136.467 90.1282C136.579 92.9499 138.453 94.8012 142.401 95.2351C147.762 95.8368 154.092 92.0533 157.742 86.5841L157.76 86.5565C157.953 86.2305 157.829 85.7519 157.513 85.6426L152.357 83.8537L150.767 70.9723C150.718 70.5732 150.373 70.3568 150.095 70.5504L139.897 77.6353ZM149.962 71.9727L151.497 84.4086L151.503 84.446C151.54 84.6559 151.665 84.8242 151.83 84.8813L156.558 86.5215L156.504 86.5949C152.973 91.3742 147.276 94.6098 142.481 94.0717C138.944 93.683 137.469 92.2254 137.383 90.0693C137.352 89.2748 137.511 88.4074 137.809 87.5272C137.921 87.1967 138.047 86.8823 138.179 86.5912L138.208 86.5261C138.238 86.4624 138.266 86.4028 138.293 86.3475L138.314 86.3046L140.112 85.8645L140.139 85.8567C140.338 85.7918 140.48 85.565 140.484 85.3007L140.571 78.4974L149.962 71.9727Z" fill="#2E186A"/>
<rect width="2.85598" height="5.26008" transform="matrix(0.689713 0.724082 -0.54365 0.839312 160.336 41.312)" fill="#FE7624"/>
<path fill-rule="evenodd" clip-rule="evenodd" d="M164.013 43.9302C166.495 43.9302 168.508 41.3682 168.508 38.2078C168.508 35.0474 166.495 32.4854 164.013 32.4854C161.53 32.4854 159.518 35.0474 159.518 38.2078C159.518 41.3682 161.53 43.9302 164.013 43.9302Z" fill="#2E186A"/>
<path fill-rule="evenodd" clip-rule="evenodd" d="M158.998 43.5411C155.65 40.6604 151.797 38.4804 147.684 38.9281C135.01 41.0497 131.937 51.2294 135.102 57.5357V57.5357C137.089 50.2562 138.771 47.8426 141.263 46.9278C142.15 52.0468 148.464 59.7935 154.885 62.246V62.246C154.901 62.2265 153.173 69.5839 152.623 69.3309C152.424 69.7202 150.375 73.2432 150.375 73.2432L151.675 81.457L166.123 83.6954C166.994 83.9873 167.911 83.1504 167.942 82.0215C168.11 75.0339 169.67 53.0395 158.998 43.5411Z" fill="#2E186A"/>
<path fill-rule="evenodd" clip-rule="evenodd" d="M150.819 71.0437L151.614 71.5692C151.614 71.5692 156.43 74.1385 157.851 68.2993C158.937 63.8615 155.421 62.8688 153.647 62.6353" fill="white"/>
<path fill-rule="evenodd" clip-rule="evenodd" d="M153.191 62.5752C153.217 62.2544 153.442 62.0212 153.694 62.0544C155.004 62.2269 156.186 62.6374 157.079 63.4072C158.357 64.5091 158.841 66.2159 158.29 68.4722C157.713 70.8403 156.558 72.1622 155.023 72.5769C154.097 72.8271 153.123 72.7285 152.184 72.4156L152.067 72.3757C151.785 72.2761 151.569 72.1787 151.436 72.1078L151.419 72.0981L151.402 72.0875L150.607 71.5619C150.382 71.4133 150.295 71.0608 150.412 70.7746C150.524 70.499 150.785 70.3854 151.005 70.51L151.03 70.5255L151.807 71.0388L151.849 71.0599C151.869 71.0694 151.893 71.0805 151.921 71.093L151.949 71.1059C152.087 71.1669 152.243 71.2283 152.416 71.2858C153.228 71.5566 154.066 71.6414 154.833 71.4344C156.045 71.1069 156.936 70.0872 157.413 68.1257C157.844 66.365 157.51 65.19 156.564 64.3741C155.824 63.7357 154.772 63.3705 153.6 63.2161C153.348 63.1829 153.165 62.8959 153.191 62.5752Z" fill="#2E186A"/>
<path fill-rule="evenodd" clip-rule="evenodd" d="M135.102 57.5551V57.5551C137.089 50.2756 138.679 48.1345 141.171 47.2197C142.043 52.2609 147.547 59.5989 154.717 62.2265C154.641 63.297 154.733 62.3433 154.519 63.4917C154.228 64.64 153.907 65.9441 153.586 67.0341C152.164 71.0632 150.375 73.2821 150.375 73.2821V73.2821C147.761 76.8051 144.214 78.9461 140.239 78.1092C133.313 76.6493 133.97 63.9004 134.368 61.156C134.551 59.774 135.087 57.5551 135.102 57.5551C135.087 57.5551 135.087 57.5551 135.102 57.5551Z" fill="white"/>
<path fill-rule="evenodd" clip-rule="evenodd" d="M140.959 46.6906C138.169 47.7554 136.57 50.3977 134.669 57.3635L134.67 57.3641L134.647 57.4446C134.473 58.0677 134.081 59.9065 133.933 60.9324L133.916 61.0588C133.582 63.3629 133.56 67.1119 134.109 70.2418C134.927 74.8966 136.869 77.9909 140.164 78.6854L140.281 78.7092C144.103 79.4614 147.75 77.6075 150.621 73.8003L150.703 73.6905L150.748 73.633C150.819 73.5412 150.916 73.4085 151.037 73.2355C151.284 72.8812 151.552 72.4646 151.833 71.9872C152.627 70.6373 153.373 69.0622 154.004 67.2735L154.015 67.2393C154.158 66.7556 154.304 66.2187 154.475 65.5614L154.627 64.9711L154.955 63.6708L154.96 63.6488L155.003 63.4275C155.026 63.3103 155.045 63.2234 155.06 63.1625L155.077 63.0998L155.086 63.0736L155.09 63.0641C155.117 62.9843 155.127 62.9333 155.135 62.8425L155.174 62.2795C155.194 62.0006 155.055 61.743 154.844 61.6655C151.532 60.4516 148.397 58.1355 145.893 55.1989C143.603 52.5129 142.038 49.5139 141.619 47.0943C141.562 46.765 141.299 46.5654 141.044 46.6588L140.959 46.6906ZM140.789 47.9952L140.85 47.9665L140.852 47.9733C141.448 50.5182 143.041 53.441 145.271 56.0578L145.387 56.1922C147.857 59.0505 150.901 61.3284 154.134 62.6136L154.228 62.6504L154.227 62.6579L154.214 62.7032C154.207 62.7265 154.2 62.7517 154.193 62.7795L154.185 62.8092C154.16 62.9106 154.131 63.0481 154.096 63.2329L154.077 63.3333L153.701 64.8166L153.573 65.312C153.43 65.8632 153.303 66.3252 153.182 66.7408L153.162 66.8102L153.167 66.7949C152.565 68.5014 151.854 70.0033 151.099 71.2872C150.834 71.738 150.582 72.1295 150.351 72.46L150.273 72.5709C150.248 72.6061 150.224 72.6395 150.201 72.6711L150.119 72.7816L150.042 72.8812C147.327 76.5399 143.895 78.2873 140.314 77.5332C137.447 76.9289 135.748 74.2235 135.005 69.9871C134.484 67.0218 134.505 63.4288 134.819 61.262C134.897 60.6744 135.047 59.8825 135.233 59.0236L135.281 58.8083C135.32 58.6309 135.359 58.4598 135.396 58.3032L135.47 57.992L135.52 57.7937L135.523 57.7848C135.528 57.7724 135.531 57.7598 135.535 57.747L135.637 57.3768C137.295 51.4048 138.643 49.0248 140.789 47.9952Z" fill="#2E186A"/>
<path fill-rule="evenodd" clip-rule="evenodd" d="M140.448 55.9114C140.553 55.6179 140.825 55.4883 141.056 55.622C141.278 55.7508 141.381 56.0774 141.294 56.3637L141.283 56.3954L138.16 65.1285L139.592 65.613C139.828 65.6929 139.972 65.9931 139.924 66.2939L139.918 66.3273C139.855 66.6278 139.619 66.8111 139.383 66.7496L139.357 66.7417L137.4 66.08C137.134 65.9902 136.992 65.6271 137.089 65.3056L137.1 65.2736L140.448 55.9114Z" fill="#2E186A"/>
<path fill-rule="evenodd" clip-rule="evenodd" d="M143.531 55.9315C144.498 55.5135 145.321 55.9629 145.952 56.9133C146.106 57.1458 146.237 57.3925 146.347 57.6394C146.414 57.7898 146.46 57.9104 146.486 57.9872C146.585 58.2838 146.477 58.6269 146.244 58.7537C146.02 58.8759 145.761 58.7523 145.654 58.4774L145.623 58.3934C145.606 58.3494 145.581 58.2884 145.549 58.2149C145.465 58.0273 145.365 57.8396 145.251 57.6667C144.84 57.0478 144.381 56.7973 143.827 57.0373C143.587 57.1411 143.326 56.9776 143.245 56.6723C143.163 56.3669 143.292 56.0353 143.531 55.9315Z" fill="#2E186A"/>
<path fill-rule="evenodd" clip-rule="evenodd" d="M141.194 69.3719C141.37 69.1403 141.661 69.1345 141.842 69.359C142.024 69.5834 142.029 69.9531 141.853 70.1846C141.502 70.645 141.054 70.9129 140.543 71.0183C140.056 71.1185 139.55 71.0679 139.061 70.9249L138.971 70.8977C138.828 70.8523 138.717 70.808 138.644 70.7744C138.407 70.6638 138.284 70.3285 138.371 70.0256C138.455 69.7335 138.703 69.5781 138.934 69.6666L138.999 69.6944C139.009 69.6984 139.02 69.703 139.033 69.708C139.102 69.7346 139.18 69.7615 139.266 69.7867C139.65 69.8988 140.043 69.9381 140.396 69.8654C140.705 69.8019 140.96 69.6565 141.157 69.4177L141.194 69.3719Z" fill="#2E186A"/>
<path fill-rule="evenodd" clip-rule="evenodd" d="M136.068 53.8965C136.816 53.4772 137.583 53.7004 138.301 54.2941C138.566 54.5135 138.767 54.7336 138.886 54.8911C139.063 55.1226 139.058 55.4923 138.876 55.7167C138.702 55.9322 138.427 55.9355 138.249 55.7305L138.202 55.6713C138.182 55.6481 138.155 55.6167 138.121 55.579C138.026 55.475 137.919 55.3705 137.801 55.2734C137.317 54.8724 136.847 54.7359 136.439 54.9651C136.354 55.0129 136.269 55.0769 136.186 55.1589L136.144 55.2014C135.949 55.4076 135.66 55.3737 135.498 55.1257C135.336 54.8777 135.363 54.5096 135.558 54.3034C135.72 54.1321 135.89 53.9966 136.068 53.8965Z" fill="#2E186A"/>
<path fill-rule="evenodd" clip-rule="evenodd" d="M143.329 60.303C143.454 59.5896 143.262 58.9276 142.899 58.8243C142.537 58.7211 142.141 59.2157 142.016 59.929C141.891 60.6424 142.083 61.3044 142.446 61.4077C142.808 61.5109 143.204 61.0163 143.329 60.303Z" fill="#2E186A"/>
<path fill-rule="evenodd" clip-rule="evenodd" d="M137.061 58.7854C137.186 58.072 136.994 57.41 136.631 57.3068C136.269 57.2035 135.873 57.6981 135.748 58.4115C135.622 59.1248 135.815 59.7868 136.177 59.8901C136.54 59.9933 136.935 59.4987 137.061 58.7854Z" fill="#2E186A"/>
<path fill-rule="evenodd" clip-rule="evenodd" d="M140.592 58.8739C139.968 62.8608 141.573 66.8476 144.259 67.7406C146.945 68.6336 149.576 66.0551 150.2 62.0682C150.823 58.0814 149.218 54.0945 146.532 53.2015C143.846 52.3085 141.215 54.887 140.592 58.8739ZM141.52 59.183C142.058 55.7417 144.255 53.5902 146.362 54.2906C148.47 54.9911 149.809 58.3177 149.271 61.7591C148.733 65.2005 146.537 67.3519 144.429 66.6515C142.321 65.951 140.982 62.6244 141.52 59.183Z" fill="#FE7624"/>
<path fill-rule="evenodd" clip-rule="evenodd" d="M129.497 56.1713C128.874 60.1581 130.479 64.145 133.165 65.038C135.85 65.9309 138.482 63.3525 139.105 59.3656C139.728 55.3787 138.124 51.3919 135.438 50.4989C132.752 49.6059 130.121 52.1844 129.497 56.1713ZM130.426 56.4804C130.964 53.039 133.16 50.8876 135.268 51.588C137.375 52.2885 138.715 55.6151 138.177 59.0565C137.638 62.4978 135.442 64.6493 133.335 63.9489C131.227 63.2484 129.887 59.9218 130.426 56.4804Z" fill="#FE7624"/>
<path fill-rule="evenodd" clip-rule="evenodd" d="M138.328 57.8528C138.391 57.5523 138.627 57.3692 138.863 57.4309L138.889 57.4388L141.473 58.3146C141.718 58.3976 141.863 58.7175 141.798 59.0291C141.735 59.3296 141.5 59.5127 141.263 59.451L141.237 59.4432L138.653 58.5673C138.408 58.4843 138.263 58.1644 138.328 57.8528Z" fill="#FE7624"/>
<path fill-rule="evenodd" clip-rule="evenodd" d="M149.304 60.2493C149.39 59.9583 149.639 59.8061 149.869 59.8976L149.895 59.9087L155.292 62.4975C155.529 62.6112 155.649 62.948 155.559 63.2498C155.473 63.5408 155.224 63.6929 154.994 63.6015L154.968 63.5903L149.571 61.0016C149.334 60.8879 149.215 60.5511 149.304 60.2493Z" fill="#FE7624"/>
<path fill-rule="evenodd" clip-rule="evenodd" d="M48.0633 30.9866C48.0633 30.5973 45.6324 26.0622 44.8833 24.544C44.1341 23.0258 45.9382 21.6633 47.146 23.9406C48.3385 26.2179 49.1488 28.2421 49.1488 28.2421" fill="white"/>
<path fill-rule="evenodd" clip-rule="evenodd" d="M45.1179 22.2731C45.9203 21.8852 46.8686 22.3743 47.5275 23.6167C48.0559 24.6258 48.5489 25.6577 48.9936 26.6577L49.0949 26.8868C49.1772 27.0741 49.2541 27.252 49.3253 27.4194L49.4326 27.6739L49.5461 27.949C49.5508 27.9607 49.5546 27.9701 49.5574 27.977C49.6724 28.2644 49.5827 28.616 49.357 28.7624C49.1396 28.9034 48.8755 28.8027 48.7535 28.5385L48.7359 28.497L48.6664 28.3272C48.6458 28.2775 48.6233 28.2236 48.599 28.1655L48.5185 27.9752C48.4215 27.7473 48.3136 27.4988 48.1954 27.2331C47.761 26.2563 47.2793 25.2481 46.7658 24.2674C46.3319 23.4493 45.8176 23.1841 45.4435 23.3649C45.1645 23.4997 45.0742 23.8335 45.2715 24.2334L45.3692 24.4294C45.4547 24.5999 45.559 24.805 45.6884 25.057L46.8011 27.2126C48.1384 29.8095 48.5219 30.5994 48.5219 30.9866C48.5219 31.3091 48.3165 31.5705 48.0632 31.5705C47.8461 31.5705 47.6642 31.3784 47.6167 31.1205L47.6114 31.0886L47.6071 31.0757C47.5946 31.0396 47.5761 30.9918 47.552 30.9336L47.5204 30.8588C47.4451 30.6831 47.3359 30.4474 47.195 30.1558L47.0085 29.7742C46.8134 29.3793 46.5779 28.9133 46.2882 28.3478L44.8557 25.5696C44.7023 25.2698 44.5863 25.04 44.4948 24.8546C43.9875 23.8266 44.3008 22.6681 45.1179 22.2731Z" fill="#2E186A"/>
<path fill-rule="evenodd" clip-rule="evenodd" d="M50.4483 37.5849C50.4483 37.5849 48.3079 33.0887 48.1091 31.2396C47.9104 29.3905 47.681 20.6317 47.9868 19.7558C48.2926 18.8799 49.5615 18.8799 49.5921 21.0015C49.6227 23.1231 49.5921 27.6582 49.5921 27.6582" fill="white"/>
<path fill-rule="evenodd" clip-rule="evenodd" d="M47.5675 19.5187C47.8171 18.8038 48.4571 18.4491 49.0403 18.7019C49.6581 18.9696 50.0334 19.804 50.0505 20.9908L50.0565 21.5065C50.0612 22.0347 50.0637 22.677 50.0641 23.4133L50.0637 24.3568C50.0633 24.6415 50.0627 24.9313 50.0618 25.2242L50.0568 26.5467L50.0506 27.6633C50.0484 27.9857 49.8413 28.2449 49.588 28.2421C49.3438 28.2395 49.1457 27.9942 49.1339 27.6875L49.1339 27.5631L49.1401 26.4005L49.1445 25.2202C49.1453 24.9279 49.146 24.6388 49.1464 24.3548L49.1462 22.9345C49.1447 22.1582 49.1405 21.5074 49.1334 21.0123C49.1228 20.2757 48.9527 19.8975 48.7447 19.8074C48.6102 19.7491 48.4623 19.831 48.4058 19.993C48.1859 20.6229 48.3314 29.0026 48.5634 31.1605C48.6217 31.7027 48.8972 32.6178 49.3348 33.7677C49.4414 34.0475 49.5562 34.3381 49.6782 34.637C49.8901 35.1563 50.1148 35.6807 50.3418 36.1913L50.4781 36.4958C50.5327 36.6168 50.585 36.7318 50.6346 36.84L50.8404 37.2822C50.9717 37.558 50.9025 37.9171 50.6859 38.0843C50.4772 38.2452 50.208 38.1695 50.0711 37.9174L50.0283 37.8292L49.9523 37.6666C49.8708 37.4914 49.7802 37.2936 49.6826 37.0772C49.4037 36.4589 49.1248 35.8144 48.8641 35.1753C48.7384 34.8671 48.6198 34.567 48.5093 34.2769L48.4268 34.0579C47.9965 32.9039 47.7255 31.9788 47.6545 31.3188L47.6406 31.1796C47.5464 30.1666 47.4492 27.7648 47.4043 25.3801L47.3943 24.7959C47.3499 21.9197 47.3921 20.0211 47.5675 19.5187Z" fill="#2E186A"/>
<path fill-rule="evenodd" clip-rule="evenodd" d="M48.9194 34.4319C48.4302 32.2519 48.1091 30.5002 48.1703 29.9162C48.3538 28.0088 50.0202 19.4835 50.6012 18.8217C51.1822 18.16 52.2524 19.6392 51.809 21.7219L50.6929 27.7557C50.6929 27.7557 52.39 21.2353 52.7875 20.554C53.185 19.8728 54.7903 20.9044 53.5825 24.8361C52.3747 28.7484 52.5123 29.1571 52.5123 29.1571C52.5123 29.1571 54.1482 24.5052 54.6221 23.7267C55.0961 22.9481 56.6555 24.8945 54.6374 29.0014L59.5451 42.198L51.8702 46.2855C51.8702 46.2855 50.0049 39.3368 48.9194 34.4319" fill="white"/>
<path fill-rule="evenodd" clip-rule="evenodd" d="M50.2954 18.3864C50.8283 17.7794 51.5446 18.0991 51.9716 18.9201C52.1746 19.3103 52.3053 19.785 52.3525 20.3047L52.3548 20.3322L52.3632 20.3143C52.3791 20.2803 52.3943 20.2504 52.4087 20.2244L52.4193 20.2057C52.8674 19.4378 53.7603 19.7347 54.1846 20.674C54.459 21.2815 54.5499 22.097 54.437 23.0869L54.4283 23.1596L54.4509 23.1394C54.7013 22.9251 55.0227 22.9204 55.3085 23.118L55.3426 23.1427C55.6487 23.3744 55.8842 23.8158 56.0062 24.3757C56.2636 25.5558 56.0217 27.1285 55.2149 28.9114L55.1577 29.0357L59.9596 41.948C60.0676 42.2383 59.9709 42.5825 59.7475 42.722L59.7221 42.7366L52.0472 46.824C51.8108 46.9499 51.5413 46.8046 51.4457 46.5067L51.4326 46.4609L51.0943 45.1847C51.0182 44.8956 50.9383 44.5906 50.8551 44.2719C50.4196 42.6021 49.9841 40.8944 49.5774 39.2472L49.4424 38.6982C49.3981 38.5169 49.3543 38.3373 49.3111 38.1596L49.1549 37.5121C48.9339 36.5913 48.7339 35.7332 48.5576 34.9475L48.4005 34.2422C47.9024 31.9882 47.6577 30.5201 47.712 29.8771L47.715 29.8451C47.8086 28.8722 48.2617 26.3099 48.7696 23.8661L48.8651 23.4104C49.4656 20.5705 49.9396 18.7917 50.2954 18.3864ZM50.9456 19.2537L50.9286 19.2464C50.9186 19.2429 50.9166 19.2458 50.907 19.2568C50.5249 19.6921 48.8755 27.5759 48.6319 29.9238L48.6249 29.9933C48.5818 30.4055 48.8333 31.8988 49.314 34.0632L49.4398 34.6274C49.6279 35.4657 49.8436 36.3887 50.0834 37.3839L50.1875 37.8148C50.2734 38.1685 50.3618 38.5295 50.4525 38.897C50.8069 40.3326 51.1836 41.8151 51.563 43.2782L51.887 44.5203L52.1466 45.505L58.925 41.8951L54.2229 29.2512C54.1604 29.0833 54.1647 28.8883 54.233 28.7259L54.2486 28.6916C55.0794 27.0009 55.3224 25.6052 55.1224 24.6881C55.0751 24.4715 55.0068 24.3114 54.9398 24.2178L54.9233 24.196L54.8817 24.2808C54.7096 24.6399 54.4257 25.3387 54.0745 26.2633L53.9888 26.4896L53.9329 26.6385C53.735 27.1659 53.5292 27.7268 53.3252 28.2919L53.0486 29.0634L52.9309 29.3956C52.7676 29.8601 52.2482 29.8548 52.0907 29.387C52.0742 29.3381 52.0634 29.2878 52.0569 29.2354C51.9989 28.7695 52.2752 27.4744 53.1553 24.6233C53.6462 23.0255 53.6698 21.877 53.3894 21.2562C53.3134 21.0879 53.2255 20.9893 53.1515 20.9549L53.1327 20.9473L53.1119 20.9951C52.9776 21.3179 52.6838 22.2654 52.3117 23.5753L52.2134 23.9233L52.1023 24.3209L51.9543 24.8562C51.83 25.3083 51.7036 25.7741 51.5776 26.2439L51.3284 27.1784L51.1283 27.9393C50.9473 28.6348 50.1391 28.3561 50.2407 27.6565L50.2465 27.6218L51.3626 21.5879L51.3663 21.569C51.5355 20.7742 51.4534 20.0389 51.2068 19.5649C51.1177 19.3935 51.0201 19.287 50.9456 19.2537Z" fill="#2E186A"/>
<path fill-rule="evenodd" clip-rule="evenodd" d="M122.397 86.0309C122.397 86.0309 125.439 84.1623 126.632 84.0845C127.824 84.0066 133.481 84.4932 134.016 84.8825C134.551 85.2718 134.444 86.5953 133.084 86.4396C131.708 86.3034 128.834 85.8752 128.834 85.8752" fill="white"/>
<path fill-rule="evenodd" clip-rule="evenodd" d="M126.608 83.5013L126.703 83.4962C128.328 83.4252 133.671 83.9587 134.244 84.3755C134.718 84.7207 134.906 85.4752 134.678 86.1092C134.443 86.7596 133.863 87.0965 133.101 87.0272L132.869 87.0033C132.493 86.9632 132.016 86.9048 131.458 86.8314L130.914 86.7585C130.548 86.7087 130.173 86.6563 129.8 86.6032L128.78 86.4551C128.528 86.4176 128.348 86.1275 128.378 85.8072C128.406 85.4984 128.619 85.2742 128.86 85.2921L129.532 85.3895L130.274 85.4952C130.397 85.5126 130.521 85.5298 130.644 85.5469L131.365 85.6449L131.993 85.7267C132.358 85.773 132.679 85.8111 132.947 85.8397L133.125 85.858C133.564 85.9083 133.785 85.7842 133.844 85.6216C133.875 85.5359 133.849 85.4337 133.789 85.3894C133.419 85.1206 128.08 84.5923 126.696 84.6652L126.655 84.6676C126.309 84.6902 125.693 84.914 124.912 85.2893C124.715 85.3839 124.51 85.4868 124.299 85.5968C123.896 85.8068 123.489 86.0323 123.1 86.2577L122.906 86.3716L122.596 86.5567C122.368 86.6969 122.094 86.575 121.984 86.2845C121.874 85.9941 121.969 85.645 122.197 85.5049L122.34 85.4187C122.453 85.3511 122.581 85.2758 122.72 85.1949C123.119 84.9635 123.536 84.7322 123.952 84.5159C124.17 84.4021 124.383 84.2952 124.588 84.1967L124.754 84.1182C125.542 83.749 126.168 83.53 126.608 83.5013Z" fill="#2E186A"/>
<path fill-rule="evenodd" clip-rule="evenodd" d="M117.871 85.9137C117.871 85.9137 121.311 85.4466 124.522 84.6875Z" fill="white"/>
<path fill-rule="evenodd" clip-rule="evenodd" d="M124.438 84.1134C124.687 84.0546 124.927 84.2639 124.973 84.5809C125.019 84.898 124.855 85.2028 124.606 85.2616C124.407 85.3087 124.204 85.3553 123.998 85.4015C122.762 85.678 121.446 85.9293 120.125 86.1521L119.525 86.2511C119.187 86.3059 118.867 86.3556 118.57 86.4002L117.92 86.4944C117.668 86.5286 117.442 86.2964 117.415 85.9757C117.388 85.655 117.571 85.3674 117.823 85.3331L118.199 85.2794L118.59 85.2212C118.934 85.169 119.307 85.1101 119.702 85.0448C121.113 84.8118 122.523 84.5457 123.839 84.2513C124.042 84.2058 124.242 84.1598 124.438 84.1134Z" fill="#2E186A"/>
<path fill-rule="evenodd" clip-rule="evenodd" d="M122.58 85.3494C124.002 85.0185 127.136 84.0648 127.503 84.1816C128.711 84.5319 134.016 87.0039 134.383 87.6462C134.75 88.3079 133.726 89.2811 132.426 88.6388L128.665 86.9649C128.665 86.9649 132.686 89.2811 133.084 89.7483C133.481 90.2154 132.686 91.792 130.286 90.196C127.885 88.6194 127.61 88.7167 127.61 88.7167C127.61 88.7167 130.439 90.7993 130.913 91.3638C131.387 91.9283 129.995 93.3686 127.534 90.9161L122.718 93.2323C121.602 93.174 113.331 89.8067 113.85 88.8529C114.37 87.8992 117.963 81.4761 117.963 81.4761L122.58 85.3494Z" fill="white"/>
<path fill-rule="evenodd" clip-rule="evenodd" d="M127.459 91.5763L127.518 91.6309C128.599 92.6225 129.601 93.0134 130.398 92.8476C130.789 92.7663 131.112 92.5473 131.3 92.224L131.321 92.1854C131.452 91.9394 131.494 91.654 131.441 91.3916L131.438 91.3774L131.448 91.3804C132.025 91.5411 132.522 91.5036 132.92 91.2798L132.955 91.2593C133.567 90.8888 133.847 90.031 133.487 89.4465L133.472 89.4223L133.493 89.4202C133.764 89.3882 134.018 89.2968 134.241 89.15C134.839 88.7555 135.128 87.977 134.758 87.3094C134.516 86.8853 133.44 86.252 131.679 85.3845L131.422 85.259C129.894 84.5143 128.287 83.818 127.638 83.6219L127.582 83.6056C127.324 83.5386 126.807 83.6403 125.454 83.9964L123.147 84.6139C122.985 84.6562 122.862 84.6876 122.746 84.7159L122.678 84.7322L118.215 80.9885C118.017 80.8222 117.754 80.8766 117.607 81.1087L117.356 81.5553L113.802 87.9244C113.649 88.201 113.538 88.4021 113.474 88.52C113.22 88.9849 113.397 89.4055 113.748 89.767C113.954 89.9777 114.257 90.2047 114.657 90.4553C115.354 90.8919 116.351 91.4014 117.517 91.9287L117.669 91.9969C119.796 92.9492 122.085 93.7836 122.699 93.8158C122.761 93.819 122.822 93.8063 122.88 93.7786L127.459 91.5763ZM118.08 82.2735L122.328 85.837C122.427 85.9198 122.547 85.9509 122.663 85.9238L122.956 85.8537C123.084 85.8223 123.224 85.7865 123.412 85.7368L125.478 85.1832C125.92 85.0664 126.25 84.9829 126.542 84.9145L126.711 84.8756C126.913 84.8303 127.079 84.7975 127.207 84.7774C127.271 84.7675 127.324 84.761 127.365 84.7579L127.411 84.7557L127.418 84.7556L127.488 84.7778C128.101 84.9762 129.495 85.5792 130.863 86.2375L131.162 86.3825L131.439 86.5195C132.716 87.1552 133.729 87.7356 133.965 87.9391L133.983 87.9555L133.972 87.9725C133.941 88.0161 133.889 88.0666 133.819 88.113C133.529 88.3038 133.1 88.3279 132.643 88.1187L132.578 88.0876L128.817 86.4137C128.273 86.1718 127.953 87.1578 128.451 87.4818L129.169 87.9001L129.558 88.1293C129.881 88.3203 130.201 88.5113 130.509 88.6973L130.882 88.9238C131.333 89.1989 131.722 89.443 132.034 89.6475L132.196 89.7543L132.327 89.843C132.437 89.9187 132.531 89.9854 132.604 90.0396L132.684 90.1008L132.676 90.1109C132.647 90.1446 132.605 90.18 132.548 90.2118C132.164 90.4283 131.483 90.318 130.56 89.719L130.21 89.4906C128.607 88.451 127.875 88.1023 127.573 88.1345L127.56 88.1362C127.526 88.1422 127.526 88.1422 127.488 88.1541C127.105 88.2894 127.032 88.9329 127.357 89.2039L127.418 89.2496L127.904 89.6118C128.241 89.8644 128.577 90.1202 128.897 90.3676L129.206 90.6074L129.449 90.7993C129.83 91.1019 130.138 91.3566 130.345 91.5419L130.441 91.6291L130.424 91.6377C130.377 91.6605 130.318 91.6808 130.25 91.695C129.669 91.816 128.813 91.4496 127.817 90.4563L127.791 90.4324C127.668 90.3266 127.512 90.3026 127.372 90.3699L122.652 92.6395L122.633 92.6363C121.969 92.5238 119.776 91.7103 117.824 90.8281L117.606 90.729C116.601 90.2677 115.74 89.8253 115.127 89.4476L115.006 89.3717L114.89 89.2966C114.685 89.1613 114.521 89.0389 114.404 88.9342L114.379 88.9106L115.495 86.9016L118.08 82.2735Z" fill="#2E186A"/>
<path fill-rule="evenodd" clip-rule="evenodd" d="M108.27 9.14816C108.27 9.14816 99.0512 0.525596 97.9045 1.0122L92.7522 0.428276C86.7438 -0.252965 81.4386 5.3916 80.8882 13.041L74.207 55.2779L104.662 60.4164L107.445 20.7098C107.643 20.593 107.842 20.4568 108.026 20.3011C110.227 18.413 110.243 13.7222 108.27 9.14816Z" fill="#2E186A"/>
<path fill-rule="evenodd" clip-rule="evenodd" d="M121.556 82.3911L111.251 73.1651L114.263 60.5524C115.441 54.0709 114.432 45.8765 108.943 43.4825C106.298 42.3341 105.411 42.0227 105.105 41.8864V41.8864C105.105 41.8864 87.8598 35.9694 85.7193 34.9378C84.2516 34.2371 78.075 34.5485 73.5495 40.0373L63.566 49.7694L58.5513 31.3369L46.6873 37.5265L54.4998 67.1313C54.4998 67.1313 57.0683 78.5956 63.9329 74.3524L74.4516 66.5863C74.528 71.0435 74.5586 77.2331 72.7545 83.6952C70.0943 93.2131 68.7336 103.237 68.7489 113.319C68.7642 125.446 68.7947 136.637 68.7947 136.637L113.789 137.143C113.789 137.143 106.374 93.8554 106.374 90.1183C106.344 89.8458 106.344 89.5538 106.329 89.2619C110.135 92.3372 114.86 95.0622 114.86 95.0622L121.556 82.3911Z" fill="#FE7624"/>
<path fill-rule="evenodd" clip-rule="evenodd" d="M106.725 51.0812C106.966 50.9837 107.224 51.1539 107.301 51.4613L107.686 52.9823C107.997 54.1992 108.373 55.6652 108.474 56.0689L108.555 56.3944C108.939 57.9436 109.21 59.1522 109.422 60.2995C109.985 63.34 110.088 65.8246 109.663 68.2334C109.1 71.4253 107.588 74.4478 104.886 77.6312L104.779 77.7556L107.956 98.5123C108.003 98.8175 107.853 99.1135 107.62 99.1896L107.593 99.1971C107.354 99.2566 107.121 99.0666 107.061 98.7691L107.055 98.7356L103.83 77.6561C103.799 77.4547 103.853 77.2476 103.973 77.1104C106.732 73.9499 108.23 71.0269 108.768 67.9775C109.159 65.7631 109.062 63.4493 108.529 60.5672L108.486 60.3354C108.279 59.2485 108.013 58.0802 107.64 56.585L107.408 55.6685C107.113 54.5114 106.601 52.5173 106.426 51.8143C106.35 51.5069 106.483 51.1787 106.725 51.0812Z" fill="#2E186A"/>
<path fill-rule="evenodd" clip-rule="evenodd" d="M75.0479 66.6643L84.0682 59.521Z" fill="white"/>
<path fill-rule="evenodd" clip-rule="evenodd" d="M83.8257 59.0252C84.0408 58.8549 84.3236 58.9388 84.4574 59.2126C84.5862 59.4763 84.5299 59.8199 84.3335 59.9971L84.3102 60.0168L75.2898 67.1601C75.0748 67.3305 74.7919 67.2466 74.6581 66.9727C74.5293 66.709 74.5856 66.3654 74.782 66.1882L74.8053 66.1685L83.8257 59.0252Z" fill="#2E186A"/>
<path fill-rule="evenodd" clip-rule="evenodd" d="M63.819 49.5815C64.0187 49.3832 64.3069 49.4286 64.4627 49.6829L64.5369 49.8077L64.5729 49.8696C64.6574 50.0158 64.7512 50.1839 64.852 50.3715C65.1393 50.9065 65.4264 51.4937 65.6948 52.1165C66.228 53.3539 66.6207 54.5752 66.8134 55.7352C67.008 56.9062 66.9905 57.974 66.7171 58.9075C66.6286 59.2096 66.3644 59.3632 66.1271 59.2506C65.8897 59.1379 65.769 58.8016 65.8575 58.4994C66.0633 57.797 66.0773 56.9475 65.916 55.9768C65.7444 54.9441 65.384 53.8234 64.8905 52.6782C64.6376 52.0911 64.3661 51.5358 64.0948 51.0307L64.0154 50.8843C63.9637 50.79 63.9144 50.702 63.8681 50.621L63.7544 50.4259C63.7484 50.4159 63.7433 50.4076 63.7393 50.401C63.5836 50.1467 63.6192 49.7798 63.819 49.5815Z" fill="#2E186A"/>
<path fill-rule="evenodd" clip-rule="evenodd" d="M101.039 32.1737L101.13 40.7379L104.662 42.0809C104.815 42.84 103.454 55.8225 94.4798 52.4942C88.5937 50.3142 86.4227 42.003 86.071 35.3658L90.9787 37.4485L90.6577 21.3906L101.039 32.1737Z" fill="white"/>
<path fill-rule="evenodd" clip-rule="evenodd" d="M90.1991 21.4057L90.5034 36.6313L86.2161 34.812C85.9066 34.6807 85.5914 34.991 85.6134 35.4053C85.813 39.1722 86.5418 42.8623 87.7946 45.8748C89.2958 49.4846 91.4814 51.992 94.3517 53.055C98.502 54.5942 101.497 52.9512 103.382 49.1311C104.053 47.7721 104.537 46.2137 104.843 44.6362L104.873 44.4779C105.083 43.3463 105.178 42.2932 105.106 41.936L105.098 41.8993C105.051 41.7182 104.938 41.5766 104.793 41.5216L101.584 40.3013L101.497 32.1659C101.495 31.9933 101.434 31.8306 101.329 31.7214L90.9476 20.9384C90.6438 20.6228 90.1891 20.9066 90.1991 21.4057ZM91.1415 22.647L100.583 32.4542L100.672 40.746L100.673 40.7822C100.687 41.0221 100.816 41.228 100.999 41.2975L104.205 42.5165L104.203 42.5526C104.197 42.6321 104.19 42.7193 104.181 42.8127C104.139 43.2604 104.061 43.7947 103.952 44.3567C103.669 45.8209 103.219 47.2655 102.605 48.5099C100.93 51.9046 98.3485 53.3209 94.6081 51.9337C91.9935 50.9654 89.9971 48.675 88.6053 45.3284L88.541 45.172C87.4989 42.6063 86.8458 39.5116 86.5934 36.3097L86.5849 36.1996L90.8336 38.0026C91.1353 38.1306 91.4453 37.8385 91.4372 37.4338L91.1415 22.647Z" fill="#2E186A"/>
<path fill-rule="evenodd" clip-rule="evenodd" d="M86.671 24.5909C86.7858 24.3034 87.0619 24.1889 87.2877 24.335C87.5135 24.4812 87.6035 24.8327 87.4887 25.1202C87.0633 26.1853 86.9095 27.6703 87.0901 29.2267C87.4261 32.0965 88.7694 34.156 90.007 33.9688C90.2586 33.9307 90.4867 34.1595 90.5166 34.4797C90.5465 34.8 90.3668 35.0904 90.1153 35.1285C88.2735 35.407 86.5828 32.8148 86.1827 29.3981C85.9755 27.6125 86.1545 25.884 86.671 24.5909Z" fill="#FE7624"/>
<path fill-rule="evenodd" clip-rule="evenodd" d="M107.479 23.8511C107.594 23.5637 107.87 23.4491 108.096 23.5953C108.321 23.7415 108.411 24.093 108.297 24.3804C107.871 25.4455 107.717 26.9305 107.898 28.487C108.234 31.3568 109.577 33.4162 110.815 33.229C111.066 33.191 111.295 33.4197 111.324 33.74C111.354 34.0602 111.175 34.3507 110.923 34.3887C109.081 34.6673 107.391 32.075 106.991 28.6584C106.783 26.8727 106.962 25.1443 107.479 23.8511Z" fill="#FE7624"/>
<path fill-rule="evenodd" clip-rule="evenodd" d="M91.3963 23.2898C92.1829 21.2307 91.4418 18.7077 89.7408 17.6544C88.0399 16.6012 86.0233 17.4166 85.2366 19.4757C84.45 21.5349 85.1911 24.0579 86.8921 25.1111C88.593 26.1644 90.6096 25.3489 91.3963 23.2898Z" fill="white"/>
<path fill-rule="evenodd" clip-rule="evenodd" d="M84.6653 19.0043C83.8535 21.24 84.8385 24.1098 86.8502 25.4203C88.8619 26.7307 91.1556 25.9968 91.9675 23.7611C92.7793 21.5255 91.7943 18.6557 89.7826 17.3452C87.7709 16.0347 85.4772 16.7687 84.6653 19.0043ZM85.529 19.567C86.1365 17.8943 87.8759 17.3377 89.4201 18.3436C90.9643 19.3495 91.7113 21.5257 91.1038 23.1985C90.4963 24.8712 88.7568 25.4278 87.2127 24.4219C85.6685 23.416 84.9215 21.2397 85.529 19.567Z" fill="#2E186A"/>
<path fill-rule="evenodd" clip-rule="evenodd" d="M111.892 21.8243C112.587 20.0068 111.931 17.7788 110.427 16.8478C108.924 15.9169 107.142 16.6355 106.448 18.4529C105.753 20.2703 106.409 22.4984 107.913 23.4293C109.416 24.3603 111.198 23.6417 111.892 21.8243Z" fill="white"/>
<path fill-rule="evenodd" clip-rule="evenodd" d="M105.893 18.0038C105.164 20.0102 106.05 22.5849 107.855 23.7608C109.66 24.9367 111.719 24.28 112.447 22.2736C113.176 20.2673 112.29 17.6926 110.485 16.5167C108.68 15.3407 106.621 15.9975 105.893 18.0038ZM106.756 18.5665C107.28 17.1234 108.785 16.6435 110.123 17.515C111.461 18.3865 112.108 20.2678 111.584 21.7109C111.06 23.154 109.555 23.6339 108.217 22.7624C106.879 21.891 106.232 20.0096 106.756 18.5665Z" fill="#2E186A"/>
<path fill-rule="evenodd" clip-rule="evenodd" d="M101.154 34.7896C106.21 33.6589 109.375 25.9705 108.222 17.617C107.07 9.26361 102.036 3.40843 96.9801 4.53912C91.9239 5.66982 88.7593 13.3582 89.9118 21.7117C91.0644 30.0651 96.0976 35.9203 101.154 34.7896Z" fill="white"/>
<path fill-rule="evenodd" clip-rule="evenodd" d="M97.2728 4.42973C91.7309 5.88165 88.1002 13.8918 89.0878 22.2784C90.0755 30.6649 95.319 36.3502 100.861 34.8982C106.403 33.4463 110.034 25.4361 109.046 17.0496C108.058 8.66301 102.815 2.9778 97.2728 4.42973ZM97.403 5.53749C102.369 4.23665 107.192 9.46511 108.114 17.2941C109.036 25.123 105.697 32.4896 100.731 33.7905C95.7648 35.0913 90.9419 29.8628 90.0198 22.0339C89.0977 14.205 92.4371 6.83833 97.403 5.53749Z" fill="#2E186A"/>
<path fill-rule="evenodd" clip-rule="evenodd" d="M100.894 16.1731C101.131 16.0961 101.372 16.2688 101.445 16.5614L101.452 16.5944L102.722 22.923C102.836 23.5069 102.503 24.0898 102.044 24.1147L100.194 24.1739C99.9406 24.1821 99.7302 23.9273 99.7238 23.6049C99.7176 23.294 99.9035 23.0338 100.144 23.0083L100.171 23.0065L101.781 22.9549L100.563 16.8833C100.503 16.582 100.639 16.2756 100.868 16.1825L100.894 16.1731Z" fill="#2E186A"/>
<path fill-rule="evenodd" clip-rule="evenodd" d="M95.491 12.6452C96.2178 12.1291 96.9868 11.9404 97.7325 12.3085C97.9953 12.4382 98.2432 12.6352 98.4727 12.9008C98.6601 13.1177 98.674 13.487 98.5036 13.7256C98.3332 13.9643 98.0431 13.9818 97.8557 13.7649C97.7087 13.5949 97.5573 13.4745 97.4009 13.3973C96.9558 13.1776 96.4495 13.3018 95.9379 13.6651C95.8174 13.7507 95.7073 13.8426 95.6106 13.9338L95.5559 13.9867C95.5456 13.997 95.5365 14.0062 95.5287 14.0142L95.5025 14.0422C95.313 14.2562 95.0231 14.2341 94.855 13.9928C94.6869 13.7515 94.7043 13.3824 94.8939 13.1685C95.0165 13.03 95.2212 12.8369 95.491 12.6452Z" fill="#2E186A"/>
<path fill-rule="evenodd" clip-rule="evenodd" d="M102.771 12.4161C103.259 12.2761 103.767 12.2369 104.256 12.3645C104.942 12.543 105.5 13.0342 105.848 13.879C105.965 14.1646 105.879 14.5175 105.655 14.6673C105.439 14.8115 105.173 14.7147 105.049 14.4523L105.035 14.4213C104.822 13.9035 104.5 13.62 104.073 13.5086C103.729 13.419 103.345 13.4487 102.973 13.5553C102.913 13.5726 102.857 13.5908 102.807 13.609L102.721 13.6427L102.709 13.648C102.47 13.758 102.207 13.6014 102.121 13.2983C102.034 12.9952 102.157 12.6602 102.396 12.5502C102.474 12.5139 102.603 12.4644 102.771 12.4161Z" fill="#2E186A"/>
<path fill-rule="evenodd" clip-rule="evenodd" d="M99.0726 19.4757C99.0967 18.7131 98.788 18.078 98.383 18.0572C97.9781 18.0364 97.6302 18.6378 97.606 19.4004C97.5818 20.163 97.8906 20.7981 98.2955 20.8189C98.7005 20.8397 99.0484 20.2383 99.0726 19.4757Z" fill="#2E186A"/>
<path fill-rule="evenodd" clip-rule="evenodd" d="M104.53 21.0014C104.926 20.9688 105.216 20.3249 105.177 19.5633C105.139 18.8017 104.786 18.2107 104.39 18.2433C103.994 18.2758 103.705 18.9197 103.743 19.6813C103.782 20.4429 104.134 21.0339 104.53 21.0014Z" fill="#2E186A"/>
<path fill-rule="evenodd" clip-rule="evenodd" d="M95.7182 24.2891C95.7969 27.6201 96.7515 29.2897 98.3046 29.4648C98.8895 29.5307 99.4951 29.3727 100.09 29.0727C100.388 28.9223 100.618 28.7706 100.757 28.6633C101.039 28.4447 101.053 27.9292 100.783 27.687L96.4408 23.7942C96.1317 23.5171 95.7069 23.8081 95.7182 24.2891ZM96.7101 25.4639L99.6034 28.0579C99.1797 28.2498 98.762 28.344 98.3856 28.3015C97.5417 28.2064 96.9528 27.4296 96.7292 25.6274L96.7101 25.4639Z" fill="#2E186A"/>
<path fill-rule="evenodd" clip-rule="evenodd" d="M109.808 21.4165C111.626 21.0762 113.118 23.7891 113.54 27.437C113.939 30.8916 112.862 34.0374 110.997 34.3866L110.964 34.3913L110.93 34.3928H110.869C110.616 34.3928 110.41 34.1314 110.41 33.8089C110.41 33.4979 110.601 33.2437 110.842 33.226L110.869 33.225L110.894 33.2248L110.901 33.2235C112.118 32.95 112.947 30.5253 112.642 27.6939L112.632 27.6071C112.275 24.5153 111.088 22.3574 109.942 22.5719C109.691 22.6189 109.458 22.3982 109.421 22.0792C109.385 21.7601 109.558 21.4634 109.808 21.4165Z" fill="#FE7624"/>
<path fill-rule="evenodd" clip-rule="evenodd" d="M88.7255 22.4675C90.5936 22.1177 92.3332 24.7283 92.7318 28.1959C93.1314 31.6506 92.0543 34.7964 90.1891 35.1456L90.1558 35.1503L90.1223 35.1518H90.0612C89.8079 35.1518 89.6025 34.8904 89.6025 34.5679C89.6025 34.2569 89.7935 34.0027 90.0342 33.985L90.0612 33.984L90.0863 33.9838L90.093 33.9825C91.3105 33.709 92.1392 31.2843 91.8339 28.4524L91.8242 28.3656C91.4897 25.455 90.1124 23.3882 88.859 23.6229C88.6083 23.6698 88.3753 23.4492 88.3384 23.1301C88.3016 22.8111 88.4749 22.5144 88.7255 22.4675Z" fill="#FE7624"/>
<path fill-rule="evenodd" clip-rule="evenodd" d="M96.0085 0.836789L95.9932 0.875717C92.8896 1.42071 89.4037 3.2114 87.4468 5.81958C85.1535 8.91436 85.0465 14.4032 86.2696 17.9457C87.2327 17.0893 88.5629 16.9335 89.7401 17.6537C89.8012 17.6926 89.8624 17.7316 89.9083 17.7705C94.4643 15.4154 94.5255 6.59814 94.5255 5.81958C95.5345 6.85118 96.8341 8.6224 96.4824 10.5299L112.719 11.9897C112.719 12.0091 116.052 -3.25066 96.0085 0.836789ZM93.7763 6.30618C93.9904 6.09208 94.2044 5.9169 94.4337 5.74173C94.449 5.76119 94.4643 5.78065 94.4796 5.78065L93.7763 6.30618Z" fill="#2E186A"/>
<path fill-rule="evenodd" clip-rule="evenodd" d="M142.823 131.577H123.146L117.489 100.006C117.367 99.325 116.908 98.8384 116.373 98.8384H74.1916C73.4424 98.8384 72.9073 99.7532 73.0755 100.707L79.3897 135.976C79.512 136.657 79.9707 137.144 80.5058 137.144C80.5058 137.144 136.462 137.144 138.878 137.144C143.648 137.144 142.823 131.577 142.823 131.577Z" fill="#5D21D1"/>
<path fill-rule="evenodd" clip-rule="evenodd" d="M157.118 108.162L158.234 120.755C158.234 120.755 141.737 123.538 134.399 124.356C134.062 124.395 127.87 129.377 128.543 129.786C132.533 132.2 128.038 134.438 133.298 133.543C133.298 133.543 150.299 135.937 166.077 132.258C167.973 131.81 170.006 129.747 170.556 127.392C171.474 123.499 171.688 112.697 170.633 103.004C170.663 102.965 157.118 108.162 157.118 108.162Z" fill="white"/>
<path fill-rule="evenodd" clip-rule="evenodd" d="M170.623 102.419L170.573 102.424C170.563 102.425 170.559 102.426 170.553 102.428L170.514 102.438L170.457 102.458L170.158 102.568L168.143 103.332L163.717 105.023L156.985 107.602L156.959 107.613C156.762 107.706 156.638 107.958 156.662 108.227L157.727 120.25L155.101 120.686L154.571 120.773C151.838 121.221 149.042 121.669 146.344 122.087L145.252 122.255L143.855 122.468C139.86 123.072 136.612 123.523 134.359 123.774C134.057 123.809 132.421 125.078 130.835 126.449L130.572 126.678C129.855 127.306 129.254 127.872 128.832 128.323C128.553 128.621 128.351 128.87 128.224 129.082C128.13 129.238 128.067 129.385 128.043 129.553C127.998 129.866 128.112 130.171 128.346 130.313C129.119 130.781 129.568 131.243 129.787 131.706C129.927 132 129.964 132.222 129.979 132.696L129.981 132.763C130.002 133.568 130.132 133.969 130.678 134.199L130.705 134.21C131.152 134.387 131.889 134.363 133.197 134.148L133.303 134.13L133.643 134.174C133.766 134.19 133.901 134.206 134.046 134.223L134.629 134.289C135.273 134.359 135.987 134.428 136.766 134.494L136.934 134.508C145.315 135.203 154.403 135.061 162.954 133.497C164.044 133.298 165.112 133.076 166.159 132.832C168.28 132.331 170.41 130.065 170.996 127.558L171.026 127.428C172.002 123.074 172.082 112.066 171.087 102.923L171.073 102.926L171.073 102.922C171.057 102.712 171.028 102.679 170.88 102.511L170.732 102.44C170.667 102.411 170.656 102.413 170.623 102.419ZM170.249 103.752L170.265 103.906C171.161 112.821 171.048 123.275 170.117 127.224C169.633 129.295 167.786 131.26 165.993 131.684C164.959 131.925 163.902 132.144 162.824 132.341C154.346 133.892 145.316 134.033 136.994 133.343L136.662 133.315C135.844 133.244 135.1 133.17 134.438 133.095L133.963 133.04C133.829 133.024 133.705 133.009 133.592 132.994L133.348 132.962C133.311 132.957 133.274 132.957 133.237 132.964L133.019 133C131.888 133.183 131.258 133.202 130.984 133.098L130.941 133.08C130.913 133.067 130.907 133.05 130.903 132.936L130.898 132.723C130.879 132.018 130.82 131.625 130.573 131.103L130.543 131.043C130.274 130.505 129.838 130.016 129.197 129.559L129.149 129.525L129.16 129.513C129.233 129.425 129.321 129.326 129.422 129.218L129.521 129.113C129.963 128.653 130.598 128.065 131.35 127.415C132.013 126.842 132.737 126.247 133.362 125.758L133.486 125.662C133.768 125.443 134.013 125.259 134.202 125.124L134.245 125.094C134.327 125.037 134.395 124.991 134.447 124.958L134.491 124.931L134.832 124.892C137.206 124.618 140.56 124.147 144.646 123.524L145.723 123.359C145.965 123.322 146.209 123.284 146.455 123.246C148.909 122.866 151.445 122.461 153.941 122.054L156.228 121.678L158.294 121.333L158.32 121.328C158.554 121.271 158.717 120.994 158.69 120.689L157.616 108.58L169.129 104.176L170.249 103.752Z" fill="#2E186A"/>
<path fill-rule="evenodd" clip-rule="evenodd" d="M127.457 131.713C125.623 134.399 123.452 135.177 123.758 133.445C123.865 132.803 128.222 127.158 129.812 126.166C131.035 125.407 132.87 124.589 135.392 124.219" fill="white"/>
<path fill-rule="evenodd" clip-rule="evenodd" d="M124.199 133.612C124.189 133.673 124.186 133.722 124.187 133.757L124.188 133.778L124.197 133.781C124.269 133.798 124.418 133.78 124.62 133.698L124.659 133.682C125.371 133.378 126.303 132.514 127.111 131.33C127.278 131.086 127.567 131.061 127.758 131.272C127.95 131.484 127.97 131.853 127.804 132.096C126.895 133.427 125.832 134.413 124.951 134.789C123.89 135.243 123.069 134.685 123.309 133.324C123.476 132.322 128.097 126.586 129.611 125.641C131.15 124.685 133.061 123.973 135.34 123.639C135.591 123.602 135.819 123.832 135.848 124.152C135.877 124.473 135.696 124.762 135.445 124.799C133.269 125.118 131.459 125.793 130.014 126.69C129.353 127.102 128.01 128.541 126.549 130.355L126.369 130.579C125.833 131.252 125.329 131.917 124.931 132.475L124.775 132.697C124.612 132.931 124.476 133.136 124.373 133.302L124.346 133.346C124.296 133.429 124.255 133.499 124.227 133.554L124.205 133.598C124.201 133.603 124.201 133.6 124.203 133.584L124.199 133.612Z" fill="#2E186A"/>
<path fill-rule="evenodd" clip-rule="evenodd" d="M130.546 129.455C130.546 129.455 128.726 130 127.61 131.538C126.494 133.095 125.638 134.068 125.837 134.399C126.02 134.73 127.213 135.08 127.977 134.185C128.956 132.569 131.738 131.499 131.738 131.499C131.433 131.538 129.506 132.355 128.574 133.367C127.656 134.36 127.167 136.306 129.674 134.866C129.674 134.866 132.243 133.893 133.237 133.484" fill="white"/>
<path fill-rule="evenodd" clip-rule="evenodd" d="M130.441 128.887C130.687 128.813 130.934 129.007 130.992 129.321C131.05 129.635 130.897 129.95 130.651 130.024L130.629 130.03C130.603 130.039 130.563 130.053 130.51 130.072C130.39 130.116 130.255 130.171 130.11 130.238C129.693 130.429 129.277 130.673 128.892 130.972C128.525 131.257 128.206 131.578 127.949 131.931L127.529 132.506C127.162 133.005 126.695 133.638 126.576 133.812L126.507 133.914C126.475 133.962 126.446 134.007 126.42 134.049L126.381 134.113L126.414 134.123C126.488 134.144 126.569 134.158 126.653 134.165L126.704 134.168C127.057 134.183 127.386 134.059 127.632 133.794L127.643 133.782L127.656 133.761C127.699 133.694 127.744 133.627 127.792 133.561L127.834 133.504L127.838 133.498C127.955 133.31 128.09 133.131 128.236 132.967L128.276 132.923C129.103 132.026 131.047 131 131.693 130.918C132.235 130.849 132.397 131.819 131.898 132.047L131.707 132.125L131.567 132.186C131.47 132.228 131.367 132.275 131.258 132.327C130.794 132.547 130.33 132.801 129.9 133.083C129.331 133.455 128.871 133.846 128.556 134.236L128.54 134.256L128.521 134.289C128.409 134.478 128.331 134.657 128.3 134.779L128.296 134.795L128.31 134.795C128.528 134.792 128.885 134.666 129.368 134.4L129.486 134.334L129.514 134.319L129.557 134.301L130.16 134.072L131.139 133.697L132.083 133.331C132.511 133.164 132.856 133.027 133.096 132.929C133.337 132.829 133.595 132.998 133.673 133.305C133.751 133.612 133.619 133.941 133.378 134.04L132.999 134.193C132.817 134.265 132.608 134.348 132.373 134.44L131.782 134.669L131.016 134.964L129.833 135.415L129.792 135.439C129.202 135.771 128.731 135.944 128.365 135.962L128.321 135.963C127.875 135.97 127.53 135.72 127.412 135.251L127.404 135.216L127.398 135.219C126.643 135.482 125.806 135.299 125.482 134.771L125.472 134.753C125.292 134.453 125.319 134.125 125.454 133.791L125.471 133.751C125.55 133.566 125.67 133.362 125.844 133.104L125.885 133.044C126.078 132.762 127.048 131.456 127.273 131.142C127.594 130.7 127.979 130.313 128.414 129.975C128.857 129.631 129.328 129.355 129.799 129.139L129.902 129.093C130.137 128.989 130.323 128.922 130.441 128.887Z" fill="#2E186A"/>
<path fill-rule="evenodd" clip-rule="evenodd" d="M193.352 43.3266C199.119 43.3266 203.794 37.3747 203.794 30.0327C203.794 22.6907 199.119 16.7388 193.352 16.7388C187.585 16.7388 182.91 22.6907 182.91 30.0327C182.91 37.3747 187.585 43.3266 193.352 43.3266Z" fill="white"/>
<path fill-rule="evenodd" clip-rule="evenodd" d="M193.352 16.1548C187.331 16.1548 182.451 22.3681 182.451 30.0326C182.451 37.6972 187.331 43.9105 193.352 43.9105C199.372 43.9105 204.253 37.6972 204.253 30.0326C204.253 22.3681 199.372 16.1548 193.352 16.1548ZM193.352 17.3226C198.866 17.3226 203.335 23.0131 203.335 30.0326C203.335 37.0522 198.866 42.7427 193.352 42.7427C187.838 42.7427 183.368 37.0522 183.368 30.0326C183.368 23.0131 187.838 17.3226 193.352 17.3226Z" fill="#5D21D1"/>
<path fill-rule="evenodd" clip-rule="evenodd" d="M197.726 21.5126C197.867 21.245 198.152 21.1739 198.363 21.3538C198.565 21.527 198.624 21.8699 198.502 22.134L198.487 22.1641L194.161 30.3585C194.031 30.6041 193.779 30.6859 193.574 30.5544L193.549 30.5369L188.473 26.7609C188.254 26.5982 188.18 26.2406 188.308 25.9621C188.431 25.694 188.696 25.5971 188.911 25.7355L188.935 25.7526L193.64 29.2518L197.726 21.5126Z" fill="#5D21D1"/>
<path fill-rule="evenodd" clip-rule="evenodd" d="M85.1079 137.144H52.4206C52.0231 137.144 51.6868 136.735 51.6868 136.209V127.762C51.6868 127.256 52.0078 126.828 52.4206 126.828H85.1079C85.5054 126.828 85.8417 127.236 85.8417 127.762V136.209C85.8417 136.735 85.5054 137.144 85.1079 137.144Z" fill="#2E186A"/>
<path fill-rule="evenodd" clip-rule="evenodd" d="M81.3163 134.788C82.2451 134.788 82.998 133.795 82.998 132.569C82.998 131.344 82.2451 130.351 81.3163 130.351C80.3875 130.351 79.6345 131.344 79.6345 132.569C79.6345 133.795 80.3875 134.788 81.3163 134.788Z" fill="white"/>
<path fill-rule="evenodd" clip-rule="evenodd" d="M72.0513 134.788H54.8362C54.4846 134.788 54.1941 134.418 54.1941 133.971V131.149C54.1941 130.701 54.4846 130.331 54.8362 130.331H72.0513C72.403 130.331 72.6934 130.701 72.6934 131.149V133.971C72.6934 134.438 72.403 134.788 72.0513 134.788Z" fill="white"/>
<path fill-rule="evenodd" clip-rule="evenodd" d="M90.4895 126.789H57.8022C57.4047 126.789 57.0684 126.38 57.0684 125.854V117.407C57.0684 116.901 57.3894 116.473 57.8022 116.473H90.4895C90.887 116.473 91.2233 116.881 91.2233 117.407V125.854C91.2233 126.36 90.9023 126.789 90.4895 126.789Z" fill="#FEBA91"/>
<path fill-rule="evenodd" clip-rule="evenodd" d="M86.7133 124.433C87.6421 124.433 88.395 123.44 88.395 122.215C88.395 120.989 87.6421 119.996 86.7133 119.996C85.7844 119.996 85.0315 120.989 85.0315 122.215C85.0315 123.44 85.7844 124.433 86.7133 124.433Z" fill="white"/>
<path fill-rule="evenodd" clip-rule="evenodd" d="M77.4482 124.433H60.2178C59.8662 124.433 59.5757 124.064 59.5757 123.616V120.794C59.5757 120.346 59.8662 119.976 60.2178 119.976H77.4329C77.7845 119.976 78.075 120.346 78.075 120.794V123.616C78.075 124.083 77.7998 124.433 77.4482 124.433Z" fill="white"/>
<path fill-rule="evenodd" clip-rule="evenodd" d="M233.454 136.91C233.707 136.91 233.913 137.171 233.913 137.494C233.913 137.805 233.722 138.059 233.481 138.077L233.454 138.078H0.5612C0.307889 138.078 0.102539 137.816 0.102539 137.494C0.102539 137.183 0.293483 136.928 0.534251 136.911L0.5612 136.91H233.454Z" fill="#2E186A"/>
</svg>
