<svg width="234" height="139" viewBox="0 0 234 139" fill="none" xmlns="http://www.w3.org/2000/svg">
<path fill-rule="evenodd" clip-rule="evenodd" d="M41.482 137.912H77.5136V88.7861C77.5136 86.3374 75.9893 84.3442 74.1166 84.3442H35.0655C33.1928 84.3442 31.6685 86.3374 31.6685 88.7861V125.061C31.6685 132.16 36.0526 137.912 41.482 137.912Z" fill="#FE7624"/>
<path fill-rule="evenodd" clip-rule="evenodd" d="M54.7362 78.3836C54.7362 78.3836 53.5168 65.4188 53.9233 59.5154C54.3298 53.6119 56.4348 32.6177 60.9786 21.8359C65.5225 11.054 73.0859 17.3371 73.0859 17.3371C73.0859 17.3371 79.5896 21.722 76.8023 31.8395C74.015 41.9379 66.1612 63.4257 63.9837 67.336C61.8206 71.2463 56.8703 79.01 54.7362 78.3836Z" fill="#FAA184"/>
<path fill-rule="evenodd" clip-rule="evenodd" d="M51.615 58.8321C51.615 58.8321 52.4424 38.5213 48.8567 28.7455C45.271 18.9697 39.348 11.206 34.267 16.1413C29.186 21.0767 34.688 35.9017 37.6204 41.5584C40.5674 47.2151 51.615 58.8321 51.615 58.8321Z" fill="white"/>
<path fill-rule="evenodd" clip-rule="evenodd" d="M53.9957 82.8067C51.6003 82.7878 39.6092 81.0604 37.0106 70.3545C34.4846 59.9333 42.1352 54.0678 46.9548 59.2499C51.76 64.4131 53.9957 82.8067 53.9957 82.8067Z" fill="#FAA184"/>
<path fill-rule="evenodd" clip-rule="evenodd" d="M57.6687 81.4399C59.4398 78.0041 65.4934 68.3612 71.6342 69.2154C77.7749 70.0696 77.5136 76.9222 73.0423 79.7315C68.5856 82.5599 57.6687 81.4399 57.6687 81.4399Z" fill="white"/>
<path fill-rule="evenodd" clip-rule="evenodd" d="M35.4719 113.216C35.4864 110.217 35.2251 106.876 34.7024 103.877C38.4043 101.675 40.1464 96.9295 38.3898 94.8415C37.4172 93.6836 35.138 96.7397 33.7153 99.7009C33.1201 97.8407 32.3942 96.3601 31.5087 95.5249C28.4165 92.6206 28.1988 99.4162 28.6633 105.396C28.3004 105.016 27.8504 104.655 27.3713 104.503C26.0793 104.105 25.0486 106.269 25.4405 108.072C25.7599 109.572 27.6616 110.027 29.0408 108.926C29.1714 109.951 29.3166 110.881 29.4472 111.584C29.4763 111.774 29.5198 111.963 29.5634 112.134C28.9391 111.755 28.3439 111.527 27.952 111.679C27.2406 111.925 25.7018 113.064 25.9486 114.583C26.1954 116.12 26.9213 117.108 28.4891 116.652C29.1859 116.443 29.8392 115.95 30.3473 115.437C31.4071 119.404 32.8588 122.954 33.8895 121.967C34.7896 121.094 35.3122 118.398 35.4428 115.001C35.7041 115.171 36.0816 115.418 36.6187 115.703C37.9398 116.424 38.4043 113.824 37.7946 112.95C37.2575 112.248 36.3719 112.381 35.4719 113.216Z" fill="white"/>
<path fill-rule="evenodd" clip-rule="evenodd" d="M35.8579 95.3861C35.1854 96.171 34.4716 97.256 33.8382 98.4321L33.7878 98.5263L33.7856 98.52C33.2028 96.9557 32.534 95.7897 31.7634 95.0628C30.0488 93.4524 28.8171 94.338 28.3287 96.9956L28.3114 97.0917C28.0117 98.8042 27.9704 101.267 28.1393 104.13L28.1483 104.28L28.0849 104.239C27.8836 104.113 27.6795 104.015 27.4738 103.95C25.8485 103.448 24.5353 105.99 25.0215 108.228L25.0343 108.285C25.4226 109.935 27.1779 110.529 28.6696 109.793L28.7117 109.772L28.715 109.795C28.7791 110.25 28.846 110.687 28.9129 111.087L28.9331 111.207L28.9313 111.206C28.5269 111.054 28.1752 111.016 27.8751 111.116L27.8282 111.132C27.3617 111.294 26.754 111.712 26.3045 112.225C25.6886 112.928 25.3724 113.777 25.5225 114.701C25.8461 116.717 26.8947 117.698 28.5835 117.208L28.6646 117.182C29.1508 117.022 29.6334 116.738 30.0914 116.364L30.13 116.331L30.1385 116.361C30.6575 118.194 31.2199 119.772 31.7637 120.869C32.1164 121.581 32.4624 122.097 32.8108 122.397C33.2602 122.783 33.7374 122.818 34.1467 122.426L34.1806 122.393C35.0778 121.479 35.6289 119.184 35.8282 116.012L35.836 115.882L35.8926 115.916L36.025 115.993C36.1586 116.07 36.2975 116.147 36.455 116.23C37.2947 116.689 38.0159 116.177 38.3349 115.136C38.6038 114.259 38.5378 113.17 38.1161 112.566L38.1025 112.548L38.0695 112.506C37.5274 111.833 36.7619 111.763 35.9611 112.204L35.9022 112.237L35.9011 112.146C35.8592 109.531 35.6217 106.777 35.2138 104.266L35.2022 104.195L35.225 104.181C38.8596 101.792 40.72 96.8417 38.6827 94.4199C38 93.6073 37.0315 94.0489 35.9352 95.2968L35.8579 95.3861ZM38.0965 95.2624C39.5964 97.0453 37.901 101.349 34.522 103.358C34.3339 103.47 34.2318 103.74 34.2777 104.003C34.7832 106.904 35.0509 110.197 35.0363 113.212C35.034 113.676 35.4344 113.949 35.7238 113.68L35.7684 113.64C36.4949 112.985 37.117 112.906 37.4655 113.327L37.4783 113.343L37.4729 113.334C37.643 113.578 37.6811 114.207 37.5263 114.713C37.3798 115.191 37.1559 115.361 36.8184 115.194L36.7864 115.177C36.3576 114.95 36.0782 114.779 35.6375 114.491C35.3564 114.307 35.0235 114.561 35.0078 114.972L34.9981 115.204C34.853 118.477 34.3358 120.825 33.6299 121.509C33.436 121.695 33.0432 121.357 32.4947 120.25C31.9234 119.097 31.3105 117.316 30.7584 115.249C30.6604 114.882 30.3165 114.749 30.0812 114.986C29.5445 115.527 28.9562 115.928 28.3917 116.097C27.1988 116.443 26.6026 115.886 26.3747 114.466C26.2361 113.613 27.1309 112.575 28.0212 112.244L28.0636 112.229C28.3038 112.136 28.7727 112.281 29.3796 112.65C29.7261 112.861 30.0973 112.428 29.9765 111.954C29.9364 111.797 29.9059 111.659 29.8843 111.534L29.8703 111.449C29.7361 110.728 29.594 109.803 29.4703 108.832C29.4195 108.434 29.0771 108.23 28.8137 108.44C27.6537 109.366 26.0888 108.994 25.86 107.919C25.5358 106.428 26.385 104.784 27.2712 105.057C27.6319 105.172 28.0174 105.449 28.3912 105.84C28.6926 106.155 29.1355 105.84 29.0965 105.338C28.8352 101.974 28.8421 99.0764 29.1756 97.2617L29.1997 97.1344C29.5586 95.2997 30.1296 94.9306 31.2545 95.9872C32.0222 96.7113 32.7128 98.0433 33.3134 99.9205C33.4496 100.346 33.8962 100.394 34.084 100.004L34.1751 99.8162C35.6715 96.7734 37.5705 94.6362 38.0965 95.2624Z" fill="#2E186A"/>
<path fill-rule="evenodd" clip-rule="evenodd" d="M49.7713 112.343C49.1471 111.868 48.0002 111.754 46.9114 112.172C48.6244 107.939 49.8294 103.193 48.0147 102.889C46.0259 102.7 44.4871 104.693 43.3547 107.085C42.7886 105.851 41.7288 104.731 40.9304 104.579C39.4641 104.313 38.5931 105.338 38.9706 107.028C39.2609 108.28 40.7997 110.008 42.1208 110.236C41.6127 111.735 41.2497 113.121 41.003 114.013C40.19 116.955 39.9722 122.156 39.9722 122.156C39.9722 122.156 41.0175 121.929 43.0934 119.822C43.558 119.366 44.6177 117.031 45.2855 115.759C45.6775 115.949 46.2436 116.12 47.0421 116.234C50.9472 116.822 50.8311 113.14 49.7713 112.343Z" fill="white"/>
<path fill-rule="evenodd" clip-rule="evenodd" d="M43.3408 106.07L43.3063 106.015C42.651 104.977 41.7461 104.159 40.9929 104.015C39.2172 103.694 38.0828 105.086 38.5524 107.187L38.5658 107.243C38.9012 108.576 40.2272 110.09 41.492 110.627L41.5144 110.636L41.4503 110.838C41.3392 111.19 41.2304 111.551 41.1214 111.926L41.056 112.152C41.0042 112.333 40.9537 112.512 40.9003 112.703L40.5933 113.819C40.3558 114.679 40.1561 115.755 39.9886 117.002C39.8378 118.124 39.7211 119.323 39.6339 120.522L39.6122 120.831C39.5984 121.033 39.586 121.227 39.575 121.411L39.5556 121.753L39.5372 122.125C39.522 122.489 39.7687 122.778 40.0437 122.718L40.084 122.708C40.1366 122.693 40.2086 122.669 40.2999 122.631C40.4814 122.555 40.6947 122.445 40.9396 122.294C41.5986 121.889 42.3757 121.26 43.2705 120.362L43.3603 120.271C43.6515 119.986 44.0227 119.322 44.6908 117.985L45.2919 116.774L45.4629 116.434L45.4936 116.445C45.8777 116.587 46.3424 116.701 46.8909 116.785L46.9947 116.8C48.9125 117.089 50.1917 116.415 50.6654 115.042C51.0675 113.877 50.7458 112.419 49.9884 111.849L49.9422 111.815C49.396 111.424 48.601 111.273 47.7771 111.377L47.7074 111.386L47.7538 111.263C48.46 109.373 48.9781 107.596 49.2116 106.177L49.2353 106.027C49.5565 103.926 49.2376 102.52 48.0699 102.325L48.0463 102.322C46.2586 102.151 44.7239 103.494 43.4019 105.956L43.3408 106.07ZM47.9272 103.453L47.9706 103.457L47.9593 103.454C48.464 103.539 48.6265 104.318 48.3601 105.937C48.0983 107.528 47.4315 109.669 46.5264 111.905C46.3462 112.351 46.6643 112.86 47.0339 112.718C47.9806 112.355 49.0181 112.429 49.5523 112.835C49.9125 113.106 50.094 113.929 49.8714 114.574C49.5806 115.417 48.6994 115.892 47.1643 115.679L47.0918 115.668C46.3738 115.566 45.8243 115.413 45.4366 115.225C45.2495 115.135 45.0393 115.222 44.9263 115.437L44.8463 115.591C44.8003 115.68 44.7515 115.776 44.6986 115.88L43.9249 117.435C43.3723 118.538 43.0199 119.169 42.8437 119.354L42.832 119.366C41.9425 120.269 41.1898 120.882 40.5688 121.264L40.4845 121.315L40.4535 121.333L40.4606 121.222C40.4727 121.033 40.4861 120.835 40.501 120.63C40.5862 119.459 40.7002 118.288 40.8465 117.199C40.9994 116.06 41.1791 115.079 41.3854 114.306L41.62 113.45C41.7119 113.116 41.7902 112.836 41.8715 112.552C42.0844 111.81 42.2938 111.13 42.5188 110.466C42.6366 110.119 42.4658 109.721 42.1776 109.671C41.083 109.482 39.6432 107.967 39.3872 106.863C39.1108 105.625 39.6797 104.927 40.8704 105.143C41.511 105.265 42.4693 106.262 42.9812 107.378C43.1489 107.743 43.5532 107.747 43.7249 107.384C44.9713 104.752 46.369 103.34 47.9272 103.453Z" fill="#2E186A"/>
<path fill-rule="evenodd" clip-rule="evenodd" d="M32.7136 138.063H40.6545C46.2 138.063 50.7003 132.179 50.7003 124.928V124.434C50.7003 121.682 49.0018 119.461 46.8968 119.461H26.4712C24.3662 119.461 22.6677 121.682 22.6677 124.434V124.928C22.6677 132.179 27.168 138.063 32.7136 138.063Z" fill="#FEBA91"/>
<path fill-rule="evenodd" clip-rule="evenodd" d="M177.652 31.0419C209.024 28.9539 213.495 50.6504 212.334 67.1269C211.144 84.002 207.296 138.158 207.296 138.158C207.485 138.386 132.591 138.386 132.809 138.158C132.809 138.158 136.656 84.002 137.847 67.1269C139.008 50.6504 146.571 28.9539 177.652 31.0419Z" fill="#FE7624"/>
<path fill-rule="evenodd" clip-rule="evenodd" d="M177.815 31.0663C177.845 30.7542 178.063 30.5328 178.302 30.5718C188.106 32.1743 194.671 37.0529 198.37 44.6183C201.374 50.7591 202.36 58.3871 201.763 66.8383L196.697 138.154C196.675 138.467 196.463 138.697 196.223 138.668C195.984 138.639 195.807 138.362 195.83 138.049L200.896 66.7329C201.477 58.5136 200.522 51.1312 197.637 45.2318C194.085 37.9695 187.754 33.2645 178.194 31.702C177.955 31.663 177.786 31.3784 177.815 31.0663Z" fill="white"/>
<path fill-rule="evenodd" clip-rule="evenodd" d="M189.992 114.905C185.709 107.825 181.746 105.205 178.001 104.959C176.607 96.8723 174.967 88.7479 173.181 82.4269C161.205 39.9259 111.89 62.4007 106.199 65.5138C98.4179 69.7658 90.3029 78.5166 83.8863 94.4426C81.7958 94.4426 79.444 94.7463 76.9181 95.2588C67.5981 97.119 61.1089 108.451 62.3283 118.892C64.0849 138.975 72.6065 138.31 80.8812 137.608C81.2732 137.931 81.7377 138.12 82.2458 138.12H179.786C179.888 138.12 180.004 138.101 180.106 138.101H187.016C193.026 131.401 194.434 121.72 189.992 114.905Z" fill="#5D21D1"/>
<path fill-rule="evenodd" clip-rule="evenodd" d="M119.874 47.8984L120.368 62.2489C120.368 62.2489 119.236 73.6192 127.496 74.3595C137.817 75.2707 139.835 64.9254 139.835 64.9254L140.561 50.7078L119.874 47.8984Z" fill="white"/>
<path fill-rule="evenodd" clip-rule="evenodd" d="M119.439 47.9237L119.931 62.2264L119.924 62.3151C119.919 62.3853 119.913 62.4722 119.907 62.5748C119.806 64.3982 119.941 66.5016 120.504 68.5181C121.539 72.2253 123.779 74.5969 127.466 74.9273C132.279 75.3523 135.756 73.4638 138.082 70.0493C138.818 68.9675 139.382 67.8089 139.797 66.649C139.942 66.2413 140.059 65.8616 140.149 65.519L140.187 65.3722C140.221 65.236 140.244 65.1326 140.257 65.0658C140.264 65.0321 140.268 64.9977 140.27 64.963L140.996 50.7454C141.011 50.4398 140.839 50.1727 140.606 50.1411L119.919 47.3317C119.654 47.2958 119.427 47.576 119.439 47.9237ZM120.332 48.5327L140.099 51.217L139.404 64.8299L139.395 64.8694C139.377 64.9484 139.354 65.0412 139.326 65.1468C139.245 65.453 139.14 65.7963 139.007 66.1672C138.627 67.2316 138.108 68.2975 137.431 69.2918C135.283 72.4454 132.068 74.192 127.525 73.791C124.195 73.4926 122.244 71.4263 121.323 68.1275C120.808 66.2864 120.683 64.334 120.776 62.6573L120.786 62.4953L120.8 62.3222C120.803 62.2893 120.804 62.2561 120.803 62.223L120.332 48.5327Z" fill="#2E186A"/>
<path fill-rule="evenodd" clip-rule="evenodd" d="M118.553 27.6444C118.553 27.6444 111.091 23.3165 110.888 32.3899C110.67 41.4444 117.435 40.2865 117.435 40.2865" fill="white"/>
<path fill-rule="evenodd" clip-rule="evenodd" d="M114.704 26.0485C115.621 26.0078 116.592 26.2143 117.555 26.5822C117.862 26.6994 118.146 26.8249 118.4 26.9508L118.474 26.9877C118.591 27.0467 118.677 27.0938 118.73 27.1241C118.95 27.2516 119.049 27.5881 118.951 27.8755C118.857 28.1528 118.615 28.2832 118.4 28.1779L118.307 28.1267L118.228 28.085C118.186 28.0633 118.141 28.0402 118.092 28.0161C117.858 27.9002 117.595 27.784 117.311 27.6755C116.429 27.3387 115.546 27.1507 114.733 27.1868C112.638 27.2798 111.404 28.7935 111.323 32.4081C111.233 36.175 112.356 38.2919 114.31 39.2391C115.253 39.6959 116.254 39.8196 117.121 39.7504L117.208 39.7428C117.246 39.7392 117.278 39.7356 117.305 39.7323L117.379 39.7221C117.617 39.6813 117.836 39.901 117.867 40.2128C117.898 40.5247 117.73 40.8106 117.492 40.8514L117.416 40.8626C117.377 40.8677 117.328 40.8732 117.271 40.8787C116.27 40.9742 115.117 40.8447 114.008 40.307C111.707 39.192 110.35 36.6353 110.453 32.3735C110.547 28.1417 112.162 26.1614 114.704 26.0485Z" fill="#2E186A"/>
<path fill-rule="evenodd" clip-rule="evenodd" d="M147.283 34.8198C147.283 34.8198 155.528 33.4341 153.815 42.0899C152.102 50.7458 145.715 47.1961 145.715 47.1961" fill="white"/>
<path fill-rule="evenodd" clip-rule="evenodd" d="M147.582 34.2109C148.588 34.1133 149.701 34.1636 150.761 34.4728C152.027 34.8421 153.044 35.5428 153.703 36.6589C154.502 38.0115 154.705 39.8669 154.237 42.2324C153.55 45.7052 152.078 47.6407 150.076 48.2671C148.895 48.6365 147.648 48.5205 146.45 48.1069C146.24 48.0343 146.046 47.9571 145.871 47.879L145.797 47.8455C145.679 47.7908 145.593 47.747 145.545 47.72C145.323 47.597 145.22 47.2626 145.314 46.9732C145.405 46.6941 145.646 46.5587 145.861 46.6596L145.932 46.6965L145.989 46.7247C146.009 46.7346 146.03 46.7448 146.053 46.7554L146.087 46.7716C146.259 46.8511 146.456 46.931 146.672 47.0057C147.743 47.3754 148.853 47.4786 149.873 47.1594C151.558 46.6323 152.786 45.0169 153.394 41.9471C154.135 38.2014 153.009 36.2954 150.571 35.5844C149.608 35.3034 148.575 35.2567 147.646 35.3467L147.546 35.3572C147.514 35.3607 147.484 35.3643 147.456 35.3679L147.355 35.3818L147.338 35.3844C147.1 35.4245 146.881 35.2041 146.851 34.8922C146.82 34.5802 146.989 34.2949 147.227 34.2548L147.288 34.2454C147.351 34.2363 147.436 34.2257 147.541 34.215L147.582 34.2109Z" fill="#2E186A"/>
<path fill-rule="evenodd" clip-rule="evenodd" d="M146.658 43.6463C142.463 60.4835 135.204 65.5517 127.104 62.8562C119.018 60.1608 113.603 49.2271 116.637 33.7187C119.671 18.2103 126.944 6.9349 136.772 10.5225C149.373 15.1162 150.462 28.4227 146.658 43.6463Z" fill="white"/>
<path fill-rule="evenodd" clip-rule="evenodd" d="M123.855 14.5491C120.443 18.8399 117.789 25.5312 116.215 33.5775C114.738 41.1278 115.174 47.9547 117.314 53.3542C119.332 58.4475 122.782 62.0032 126.996 63.408C135.948 66.3866 143.053 59.9528 147.073 43.8227C149.132 35.5799 149.611 28.5489 148.283 22.9299C146.806 16.6804 143.12 12.3064 137.073 10.0419L136.889 9.97396C132.032 8.20077 127.566 9.88219 123.855 14.5491ZM136.655 11.0709C142.538 13.2154 146.05 17.3411 147.451 23.2663C148.717 28.6231 148.253 35.4299 146.244 43.4694C142.357 59.0717 135.676 65.1209 127.211 62.3043C123.237 60.9794 119.991 57.6337 118.087 52.8302C116.05 47.6909 115.633 41.1501 117.059 33.8597C118.596 26.0039 121.176 19.4984 124.459 15.3699C127.955 10.9731 132.106 9.4103 136.655 11.0709Z" fill="#2E186A"/>
<path fill-rule="evenodd" clip-rule="evenodd" d="M129.99 32.2881C130.073 31.9929 130.324 31.8416 130.549 31.9502C130.767 32.0549 130.882 32.363 130.816 32.6495L130.808 32.6813L127.529 44.3361L130.715 45.1565C130.943 45.215 131.094 45.4955 131.063 45.7922L131.059 45.8252C131.014 46.1227 130.799 46.3202 130.573 46.2795L130.547 46.2739L126.86 45.3248C126.606 45.2594 126.453 44.9211 126.527 44.6014L126.535 44.5695L129.99 32.2881Z" fill="#2E186A"/>
<path fill-rule="evenodd" clip-rule="evenodd" d="M136.579 27.4018C138.169 26.553 139.58 27.2451 140.735 28.8642C141.009 29.2487 141.248 29.6588 141.451 30.0691L141.501 30.1723C141.597 30.3722 141.665 30.5313 141.705 30.6338C141.813 30.9146 141.727 31.2571 141.512 31.3987C141.305 31.535 141.055 31.4354 140.94 31.1771L140.898 31.0756L140.879 31.0297C140.834 30.9274 140.781 30.8123 140.72 30.6877C140.543 30.3304 140.335 29.9728 140.098 29.6409C139.165 28.333 138.109 27.8151 136.908 28.4562C136.685 28.5751 136.431 28.4354 136.34 28.1442C136.249 27.853 136.356 27.5206 136.579 27.4018Z" fill="#2E186A"/>
<path fill-rule="evenodd" clip-rule="evenodd" d="M134.321 51.1205C134.443 50.8496 134.71 50.7596 134.918 50.9195C135.125 51.0793 135.194 51.4285 135.071 51.6993C134.499 52.9681 133.657 53.6693 132.64 53.8754C131.861 54.0332 131.044 53.8941 130.248 53.5694L130.132 53.5205C129.85 53.3986 129.631 53.2796 129.496 53.1932C129.28 53.0549 129.191 52.7138 129.297 52.4313C129.402 52.1489 129.663 52.0319 129.879 52.1702L129.901 52.1834C129.93 52.2015 129.978 52.2287 130.041 52.2626C130.179 52.3371 130.336 52.4121 130.508 52.4822C131.188 52.7595 131.878 52.8771 132.506 52.7499C133.274 52.5944 133.886 52.0846 134.321 51.1205Z" fill="#2E186A"/>
<path fill-rule="evenodd" clip-rule="evenodd" d="M123.809 24.4639C124.906 24.0142 126.048 24.3679 127.147 25.2109C127.41 25.4122 127.649 25.6276 127.863 25.8435L127.953 25.9369C128.037 26.0248 128.1 26.0958 128.14 26.1441C128.316 26.3574 128.327 26.7176 128.164 26.9488C128.008 27.171 127.747 27.193 127.57 27.0047L127.497 26.9219L127.436 26.855C127.403 26.82 127.368 26.7828 127.329 26.7438C127.144 26.5564 126.935 26.3684 126.706 26.1932C125.799 25.4971 124.888 25.2151 124.07 25.5507C123.721 25.6937 123.389 25.9494 123.075 26.3331C122.9 26.5479 122.624 26.5359 122.46 26.3062C122.295 26.0766 122.305 25.7162 122.48 25.5014C122.888 25.0022 123.334 24.6587 123.809 24.4639Z" fill="#2E186A"/>
<path fill-rule="evenodd" clip-rule="evenodd" d="M137.599 37.9509C137.754 36.6879 137.372 35.558 136.747 35.4272C136.121 35.2964 135.489 36.2143 135.334 37.4773C135.18 38.7403 135.562 39.8702 136.187 40.0009C136.813 40.1317 137.445 39.2139 137.599 37.9509Z" fill="#2E186A"/>
<path fill-rule="evenodd" clip-rule="evenodd" d="M125.268 35.6559C125.423 34.3929 125.041 33.2631 124.415 33.1323C123.79 33.0015 123.158 33.9194 123.003 35.1824C122.849 36.4454 123.231 37.5753 123.856 37.706C124.482 37.8368 125.114 36.9189 125.268 35.6559Z" fill="#2E186A"/>
<path fill-rule="evenodd" clip-rule="evenodd" d="M161.582 69.4241C160.246 48.7146 159.796 26.3157 157.009 19.5201C151.507 6.09972 143.044 6.95392 143.044 6.95392V6.95392C138.732 -1.87277 118.176 -4.85296 110.191 20.9058C109.712 22.4623 110.366 24.1327 111.512 24.6263C106.359 41.0078 108.899 81.8574 108.899 81.8574L121.747 84.382L121.181 69.1773C120.005 65.8934 120.368 62.2678 120.368 62.2678L120.208 57.6741C117.218 53.631 115.476 47.6706 115.824 40.2865C113.835 40.0208 110.714 38.5971 110.859 32.39C111.048 24.5693 116.622 26.7143 118.147 27.4546C118.51 26.2398 118.887 25.0818 119.308 23.9619C123.155 22.766 127.583 20.0895 131.677 14.5088L127.931 22.3674C127.931 22.3674 134.754 23.6012 139.574 19.2923C140.779 25.1388 143.784 31.9534 148.313 34.4021C148.299 34.516 148.284 34.6298 148.27 34.7437C148.517 34.7437 148.792 34.7437 149.083 34.7627C149.809 35.0664 150.564 35.2563 151.362 35.2942V35.2942C153.119 36.0915 154.599 37.9327 153.772 42.0708C152.059 50.7267 145.671 47.177 145.671 47.177L145.686 47.0252C144.132 52.1314 142.26 55.9278 140.14 58.6043L139.821 64.9253C139.821 64.9253 139.719 65.4378 139.458 66.1971C139.371 69.3671 139.109 80.7944 139.487 84.363C150.622 84.2301 162.148 78.1748 161.582 69.4241Z" fill="#2E186A"/>
<path fill-rule="evenodd" clip-rule="evenodd" d="M153.525 107.047L153.453 96.3406L151.362 98.2199C151.362 98.2199 151.231 98.4097 151.435 101.94C151.71 106.591 147.878 106.192 147.588 105.034C147.297 103.877 147.98 97.0999 148.923 95.0309C149.504 93.7211 152.451 90.8738 154.57 88.9186C155.935 87.6658 157.735 87.476 159.23 88.4631C162.381 90.5131 168.55 97.3087 169.392 100.631C169.755 102.035 171.526 110.179 171.526 110.179L173.573 116.158L162.787 122.042L159.753 113.178C155.238 114.298 153.583 107.312 153.583 107.312" fill="white"/>
<path fill-rule="evenodd" clip-rule="evenodd" d="M154.32 88.4524C155.822 87.0738 157.794 86.8768 159.424 87.9531C163.029 90.2991 168.985 97.2148 169.805 100.448L169.844 100.603C169.947 101.02 170.121 101.775 170.354 102.811L170.875 105.144L171.238 106.792L171.936 109.983L173.971 115.925C174.067 116.207 173.974 116.536 173.765 116.669L173.741 116.683L162.955 122.568C162.745 122.682 162.504 122.566 162.401 122.306L162.389 122.275L159.492 113.809L159.469 113.813C157.378 114.162 155.711 112.942 154.457 110.717L154.414 110.64C154.032 109.951 153.718 109.216 153.466 108.48L153.418 108.336C153.293 107.961 153.211 107.665 153.167 107.481C153.157 107.438 153.151 107.394 153.148 107.352L153.148 107.331L153.147 107.329C153.115 107.256 153.095 107.173 153.09 107.085L153.089 107.051L153.024 97.4164L151.763 98.5504L151.758 98.6603C151.744 99.1398 151.768 100.076 151.852 101.592L151.869 101.896C152.007 104.236 151.191 105.74 149.836 106.215C148.724 106.606 147.418 106.185 147.174 105.212C146.8 103.724 147.618 96.8837 148.519 94.8066L148.546 94.7451C149.082 93.5359 151.181 91.3477 154.32 88.4524ZM159.034 88.9713C157.689 88.0836 156.06 88.2464 154.821 89.3838L154.382 89.7913C151.669 92.3178 149.758 94.3315 149.311 95.2921L149.297 95.3224C148.908 96.1747 148.512 98.1049 148.237 100.345L148.2 100.651C147.971 102.626 147.893 104.426 148.001 104.857L148.006 104.864C148.015 104.878 148.04 104.909 148.085 104.948C148.174 105.023 148.301 105.091 148.454 105.14C148.805 105.253 149.227 105.25 149.61 105.115C150.546 104.787 151.09 103.808 151.005 102.065L150.966 101.366C150.877 99.6717 150.866 98.7183 150.907 98.2832L150.91 98.2587C150.928 98.0768 150.957 97.9567 151.038 97.8388C151.053 97.8166 151.07 97.796 151.088 97.7773L151.115 97.7505L153.206 95.8712C153.486 95.6188 153.867 95.8671 153.887 96.3039L153.888 96.3355L153.96 107.028L153.97 107.052C153.978 107.071 153.985 107.091 153.991 107.112L154.018 107.217C154.028 107.257 154.042 107.31 154.06 107.372C154.114 107.565 154.181 107.781 154.261 108.015C154.49 108.683 154.775 109.351 155.119 109.972C156.269 112.049 157.76 113.092 159.672 112.618C159.861 112.571 160.051 112.693 160.139 112.914L160.15 112.945L163.011 121.303L172.993 115.857L171.129 110.411C171.124 110.399 171.12 110.386 171.117 110.373L171.092 110.266L170.775 108.811L170.401 107.107L169.772 104.264C169.391 102.554 169.118 101.361 168.993 100.865L168.979 100.81C168.247 97.9242 162.453 91.1965 159.034 88.9713Z" fill="white"/>
<path fill-rule="evenodd" clip-rule="evenodd" d="M143.987 127.965C140.184 127.965 137.135 126.37 134.827 123.181C132.533 119.992 131.401 115.835 131.401 110.71C131.401 105.186 132.562 100.801 134.9 97.5555C137.251 94.2716 140.431 92.6392 144.437 92.6392C148.139 92.6392 151.115 94.2337 153.394 97.4037C155.674 100.593 156.806 104.75 156.806 109.875C156.806 115.456 155.644 119.86 153.322 123.105C152.77 123.884 152.189 124.548 151.565 125.118L154.773 128.041C156.08 129.237 155.456 132.008 153.888 132.008V132.008C153.569 132.008 153.249 131.875 152.988 131.628L148.342 127.206C147.007 127.699 145.555 127.965 143.987 127.965ZM144.205 96.2458C141.374 96.2458 139.095 97.5365 137.324 100.137C135.567 102.738 134.682 106.135 134.682 110.349C134.682 114.545 135.538 117.942 137.251 120.524C138.979 123.086 141.214 124.358 143.973 124.358C146.92 124.358 149.242 123.143 150.941 120.695C152.639 118.246 153.496 114.829 153.496 110.425C153.496 105.889 152.668 102.396 151.028 99.9662C149.373 97.4796 147.108 96.2458 144.205 96.2458Z" fill="white"/>
<path fill-rule="evenodd" clip-rule="evenodd" d="M155.514 92.3164C155.514 92.3164 150.651 96.0749 150.593 100.403C150.534 104.731 151.406 108.888 153.336 109.002C155.267 109.116 154.672 107.009 154.672 107.009" fill="white"/>
<path fill-rule="evenodd" clip-rule="evenodd" d="M155.292 91.8259C155.499 91.6659 155.766 91.7556 155.889 92.0264C156.007 92.2871 155.947 92.6206 155.758 92.7878L155.632 92.8896C155.612 92.9055 155.592 92.9223 155.57 92.9402L155.537 92.9679C155.374 93.1041 155.192 93.2635 154.995 93.4443C154.434 93.9613 153.872 94.5446 153.349 95.1801C151.912 96.928 151.051 98.7201 151.028 100.413C150.967 104.973 151.923 108.348 153.356 108.433C154.017 108.472 154.25 108.266 154.308 107.893C154.334 107.727 154.325 107.529 154.291 107.336L154.281 107.283C154.275 107.252 154.269 107.229 154.266 107.215L154.263 107.206C154.18 106.911 154.295 106.583 154.521 106.474C154.747 106.365 154.997 106.516 155.08 106.811L155.094 106.862C155.108 106.918 155.124 106.992 155.14 107.081C155.199 107.419 155.216 107.772 155.162 108.121C155.012 109.078 154.383 109.633 153.317 109.57C151.2 109.445 150.088 105.522 150.157 100.393C150.185 98.3175 151.162 96.2848 152.756 94.3461C153.31 93.6725 153.902 93.0578 154.494 92.513L154.647 92.374C154.772 92.2617 154.89 92.1582 155.002 92.0638L155.127 91.9587C155.202 91.8968 155.258 91.8523 155.292 91.8259Z" fill="white"/>
<path fill-rule="evenodd" clip-rule="evenodd" d="M156.748 95.3726C156.748 95.3726 152.552 99.0361 153.206 101.561C153.844 104.085 155.296 109.571 156.153 110.255C157.677 111.488 158.432 108.926 158.432 108.926" fill="white"/>
<path fill-rule="evenodd" clip-rule="evenodd" d="M156.506 94.8987C156.706 94.724 156.976 94.7945 157.11 95.056C157.239 95.3079 157.193 95.6451 157.011 95.8257L156.985 95.8495L156.902 95.9242L156.844 95.978C156.724 96.0883 156.59 96.2157 156.446 96.3581C156.034 96.7649 155.622 97.2093 155.239 97.675C154.595 98.4568 154.103 99.216 153.823 99.9037C153.583 100.492 153.516 100.985 153.619 101.382L153.753 101.908C154.824 106.08 155.854 109.349 156.382 109.77C156.94 110.222 157.342 110.046 157.718 109.409C157.809 109.257 157.887 109.091 157.952 108.925L157.976 108.864C157.994 108.816 158.007 108.777 158.016 108.749L158.025 108.721C158.112 108.427 158.364 108.281 158.588 108.394C158.813 108.507 158.925 108.837 158.838 109.13L158.822 109.183C158.8 109.25 158.769 109.34 158.727 109.446C158.639 109.67 158.533 109.894 158.407 110.106C157.785 111.159 156.914 111.54 155.926 110.74C155.092 110.075 154.057 106.739 152.793 101.743C152.603 101.009 152.712 100.209 153.054 99.3685C153.387 98.549 153.938 97.7013 154.646 96.8408C155.052 96.3464 155.487 95.8779 155.921 95.4491L156.049 95.3243C156.132 95.2437 156.211 95.1683 156.286 95.0985L156.495 94.9086C156.499 94.905 156.502 94.9017 156.506 94.8987Z" fill="#2E186A"/>
<path fill-rule="evenodd" clip-rule="evenodd" d="M159.085 98.2197C159.085 98.2197 154.643 99.1309 156.37 105.129C157.503 109.059 158.533 110.482 159.782 111.052C161.03 111.621 162.134 109.153 161.059 107.502L159.825 105.072C159.825 105.072 161.364 107.426 161.93 104.75C161.93 104.75 161.19 109.818 162.99 111.621" fill="white"/>
<path fill-rule="evenodd" clip-rule="evenodd" d="M159.017 97.6574C159.255 97.6086 159.478 97.821 159.515 98.1317C159.551 98.4313 159.401 98.7129 159.178 98.7764L159.121 98.7899C159.107 98.7935 159.089 98.7982 159.068 98.8042L159.046 98.8106C158.95 98.8382 158.843 98.875 158.727 98.922C158.395 99.0564 158.063 99.2437 157.756 99.4904C156.474 100.521 155.995 102.209 156.778 104.929L156.844 105.155C157.832 108.513 158.732 109.97 159.925 110.514C160.768 110.899 161.498 109.055 160.728 107.871L160.711 107.845L160.696 107.817L159.463 105.388C159.165 104.801 159.782 104.179 160.14 104.678L160.182 104.74C160.197 104.761 160.217 104.789 160.242 104.821C160.315 104.918 160.397 105.015 160.483 105.104C160.685 105.313 160.877 105.441 161.02 105.458C161.206 105.48 161.364 105.293 161.511 104.598C161.657 103.907 162.437 104.133 162.363 104.822L162.345 104.957C162.342 104.976 162.34 104.997 162.337 105.02L162.32 105.166C162.309 105.267 162.298 105.377 162.287 105.495C162.2 106.466 162.183 107.484 162.279 108.424C162.407 109.691 162.727 110.64 163.255 111.169C163.446 111.361 163.482 111.718 163.336 111.968C163.19 112.217 162.916 112.265 162.725 112.073C162.288 111.636 161.967 111.036 161.744 110.304L161.726 110.244L161.701 110.312L161.678 110.372C161.267 111.41 160.452 111.961 159.638 111.59C158.127 110.9 157.059 109.134 155.963 105.33C155.029 102.088 155.67 99.8305 157.3 98.5201C157.674 98.2193 158.072 97.9949 158.47 97.834L158.563 97.7973C158.76 97.7225 158.916 97.6781 159.017 97.6574ZM161.351 106.548L161.331 106.555C161.281 106.572 161.229 106.584 161.177 106.591L161.122 106.596L161.343 107.032L161.343 106.972C161.344 106.852 161.346 106.732 161.349 106.612L161.351 106.548Z" fill="#2E186A"/>
<path fill-rule="evenodd" clip-rule="evenodd" d="M175.054 97.2705C174.938 98.4094 177.086 105.224 160.392 120.448L162.569 123.675L177.667 118.891L175.054 97.2705Z" fill="#5D21D1"/>
<path fill-rule="evenodd" clip-rule="evenodd" d="M94.2806 131.305C94.2806 131.305 100.276 130.85 94.6726 133.242C86.6301 135.045 79.5457 128.439 76.8601 123.788C75.0599 120.675 74.8422 116.48 76.2939 113.064C79.1683 105.186 83.625 107.843 83.625 107.843C83.625 107.843 91.2175 112.627 94.9339 112.779" fill="white"/>
<path fill-rule="evenodd" clip-rule="evenodd" d="M78.5074 108.35C80.0706 106.8 81.738 106.558 83.243 107.077C83.5025 107.167 83.6939 107.259 83.8141 107.331L84.061 107.484L84.1531 107.54C84.4004 107.691 84.6783 107.857 84.9824 108.036L85.0847 108.096C86.0686 108.671 87.1092 109.246 88.1591 109.783C88.9403 110.182 89.6971 110.545 90.4189 110.862L90.6384 110.957C92.4184 111.723 93.8932 112.167 94.9475 112.21C95.1879 112.22 95.3767 112.483 95.3692 112.797C95.3617 113.111 95.1607 113.358 94.9203 113.348C93.7178 113.299 92.0944 112.799 90.1416 111.941C89.4056 111.618 88.6357 111.249 87.8419 110.844C86.7781 110.3 85.725 109.718 84.7291 109.135L84.5238 109.015C84.2889 108.876 84.0702 108.745 83.8697 108.624L83.5652 108.437L83.4443 108.362L83.4166 108.347C83.4036 108.34 83.387 108.331 83.3668 108.321L83.3455 108.311C83.2526 108.266 83.1438 108.221 83.0207 108.179C81.754 107.741 80.3585 107.944 79.0338 109.258C78.1741 110.111 77.3989 111.397 76.7342 113.181L76.6869 113.309L76.6746 113.34C75.3053 116.563 75.5129 120.515 77.2076 123.446C78.6661 125.971 81.1463 128.616 83.9502 130.425C87.3124 132.594 90.9137 133.468 94.4761 132.707L94.568 132.687L94.7812 132.595C95.3333 132.353 95.7684 132.138 96.0905 131.95L96.1973 131.886L96.1763 131.884C96.0654 131.871 95.9434 131.861 95.8117 131.854L95.6611 131.847C95.3189 131.835 94.9499 131.84 94.5925 131.857L94.3815 131.869L94.3059 131.874C94.0658 131.892 93.8598 131.653 93.8458 131.339C93.8324 131.036 94.0024 130.775 94.2298 130.74L94.2662 130.736L94.4666 130.724C94.4968 130.722 94.5282 130.721 94.5608 130.719C94.9352 130.701 95.3216 130.695 95.6849 130.708L95.841 130.715C96.172 130.733 96.4559 130.767 96.6846 130.823C97.1402 130.935 97.4204 131.111 97.4905 131.577C97.6126 132.388 96.842 132.915 94.8077 133.783C94.7876 133.792 94.767 133.798 94.7462 133.803C90.9505 134.654 87.122 133.741 83.5648 131.446C80.6409 129.56 78.0542 126.802 76.5127 124.132C74.6289 120.874 74.3815 116.492 75.8676 112.896L75.9066 112.803L75.9499 112.686C76.656 110.79 77.494 109.382 78.4411 108.417L78.5074 108.35Z" fill="#2E186A"/>
<path fill-rule="evenodd" clip-rule="evenodd" d="M108.391 96.8151H97.3147V108.641H107.564C108.319 108.641 108.943 109.438 108.943 110.444V110.444C108.943 111.431 108.333 112.248 107.564 112.248H97.3147V127.395H94.0193V95.5053C94.0193 94.2335 94.8032 93.2085 95.7759 93.2085H108.377C109.132 93.2085 109.756 94.0057 109.756 95.0118V95.0308C109.77 96.0178 109.161 96.8151 108.391 96.8151Z" fill="white"/>
<path fill-rule="evenodd" clip-rule="evenodd" d="M83.8428 128.211C83.8428 128.211 88.9238 133.583 96.9517 130.413C100.726 128.914 97.997 127.319 97.997 127.319" fill="white"/>
<path fill-rule="evenodd" clip-rule="evenodd" d="M97.5993 127.087C97.6975 126.8 97.955 126.671 98.1746 126.8C98.3212 126.885 98.5266 127.033 98.736 127.239C99.1849 127.682 99.4525 128.206 99.374 128.845C99.2825 129.589 98.7232 130.183 97.6807 130.694C97.4966 130.784 97.296 130.872 97.0776 130.959C92.8003 132.648 89.0004 132.166 85.8167 130.335C85.1872 129.972 84.6347 129.584 84.1628 129.194L84.0703 129.116C83.8324 128.915 83.6644 128.756 83.5689 128.655C83.3819 128.457 83.3529 128.098 83.5041 127.854C83.6495 127.619 83.9086 127.574 84.0946 127.747L84.1602 127.813C84.1753 127.828 84.1937 127.846 84.2152 127.866L84.2378 127.888C84.3466 127.99 84.4769 128.106 84.6281 128.231C85.0645 128.592 85.579 128.953 86.1675 129.292C89.1702 131.019 92.759 131.474 96.8251 129.869C97.0256 129.789 97.2089 129.709 97.3752 129.627C97.8111 129.414 98.1218 129.199 98.3151 128.994C98.4491 128.852 98.5045 128.742 98.514 128.664C98.5274 128.555 98.4292 128.363 98.2118 128.149C98.1256 128.064 98.031 127.986 97.9364 127.918L97.8799 127.878C97.8578 127.863 97.8401 127.852 97.8276 127.845L97.8193 127.84C97.5997 127.711 97.5012 127.374 97.5993 127.087Z" fill="#2E186A"/>
<path fill-rule="evenodd" clip-rule="evenodd" d="M84.9751 123.846C86.7462 125.022 88.2415 127.319 91.4352 127.357C96.1388 127.414 98.5341 127.566 99.71 126.389C100.886 125.212 101.017 123.865 97.184 122.726" fill="white"/>
<path fill-rule="evenodd" clip-rule="evenodd" d="M96.7594 122.6C96.8127 122.293 97.046 122.101 97.2806 122.171L97.4577 122.224C99.2629 122.781 100.303 123.423 100.695 124.242C101.125 125.142 100.789 126.027 99.9748 126.842C99.3771 127.44 98.5451 127.741 97.274 127.873L97.0062 127.898C96.2818 127.961 95.5956 127.976 93.9965 127.96L91.4313 127.927C89.5585 127.905 88.2716 127.26 86.57 125.816L86.3403 125.619L85.8128 125.162C85.6854 125.053 85.5793 124.963 85.4749 124.878C85.2181 124.666 84.9941 124.497 84.7778 124.353C84.5634 124.211 84.4779 123.868 84.5869 123.588C84.6959 123.307 84.958 123.196 85.1725 123.338C85.4148 123.499 85.6608 123.685 85.9384 123.913L86.1058 124.053C86.1635 124.101 86.2239 124.153 86.2896 124.209L86.9561 124.786C88.547 126.15 89.6871 126.746 91.3466 126.786L94.0025 126.821C95.7057 126.838 96.3561 126.82 97.1243 126.746L97.2804 126.729C98.3537 126.61 99.0197 126.363 99.4453 125.937C99.9472 125.435 100.076 125.096 99.9559 124.845C99.7163 124.344 98.7857 123.786 97.0875 123.281C96.853 123.211 96.7061 122.906 96.7594 122.6Z" fill="#2E186A"/>
<path fill-rule="evenodd" clip-rule="evenodd" d="M87.298 114.829C87.298 114.829 91.1741 118.227 95.4276 118.208C99.6811 118.189 102.439 120.562 100.683 121.701C98.9262 122.821 92.771 123.504 89.9982 122.327C87.2254 121.15 85.8027 119.556 85.8027 119.556" fill="white"/>
<path fill-rule="evenodd" clip-rule="evenodd" d="M86.9362 114.512C87.0652 114.261 87.3209 114.187 87.518 114.338L87.6354 114.436L87.7018 114.491C87.839 114.602 87.9993 114.727 88.1812 114.862C88.7027 115.248 89.2897 115.635 89.9281 115.996C91.7569 117.03 93.6284 117.647 95.4261 117.639C97.4749 117.63 99.3522 118.167 100.522 119.023C101.823 119.976 102.116 121.407 100.874 122.213C98.8314 123.515 92.5386 124.004 89.8637 122.869C89.3043 122.631 88.7738 122.367 88.2723 122.08C87.484 121.629 86.8033 121.145 86.2311 120.659L86.1346 120.576C85.8385 120.32 85.6332 120.116 85.5193 119.988C85.3367 119.784 85.3155 119.424 85.472 119.185C85.6286 118.946 85.9035 118.919 86.0861 119.123L86.1164 119.156C86.1427 119.184 86.1812 119.223 86.2318 119.273L86.3231 119.362C86.4342 119.467 86.5617 119.582 86.7055 119.704C87.2387 120.157 87.8778 120.611 88.6214 121.037C89.097 121.309 89.6008 121.56 90.1326 121.786C92.5959 122.831 98.6555 122.36 100.489 121.191C100.747 121.023 100.8 120.915 100.78 120.819C100.739 120.618 100.505 120.317 100.096 120.017C99.0871 119.278 97.3989 118.787 95.5311 118.778L95.4291 118.778C93.496 118.786 91.5124 118.133 89.5823 117.041C88.9138 116.663 88.2993 116.258 87.7518 115.853L87.6117 115.748C87.4984 115.662 87.3937 115.58 87.2982 115.504L87.1386 115.373C87.1023 115.343 87.0745 115.319 87.0555 115.302C86.8557 115.127 86.8023 114.773 86.9362 114.512Z" fill="#2E186A"/>
<path fill-rule="evenodd" clip-rule="evenodd" d="M129.906 127.396V127.396C129.223 127.396 128.599 126.845 128.352 126.029L125.797 117.81H113.893L111.512 125.972C111.266 126.826 110.641 127.377 109.945 127.377V127.377C108.754 127.377 107.941 125.782 108.391 124.34L117.552 95.2399C117.943 93.9871 118.873 93.1709 119.903 93.1709V93.1709C120.934 93.1709 121.863 93.9871 122.255 95.221L131.459 124.321C131.909 125.801 131.096 127.396 129.906 127.396ZM124.723 114.203L120.324 99.6248C120.179 99.1503 119.54 99.0743 119.366 99.6248L114.996 114.203H124.723Z" fill="white"/>
<path fill-rule="evenodd" clip-rule="evenodd" d="M233.456 137.684C233.697 137.684 233.892 137.939 233.892 138.253C233.892 138.556 233.711 138.804 233.482 138.822L233.456 138.823H0.499967C0.259439 138.823 0.0644531 138.568 0.0644531 138.253C0.0644531 137.95 0.24576 137.702 0.474377 137.685L0.499967 137.684H233.456Z" fill="#2E186A"/>
</svg>
