<svg width="234" height="139" viewBox="0 0 234 139" fill="none" xmlns="http://www.w3.org/2000/svg">
<path fill-rule="evenodd" clip-rule="evenodd" d="M168.261 76.2569C168.43 76.1035 168.677 76.1345 168.812 76.3263C168.948 76.518 168.921 76.7979 168.751 76.9513L168.705 76.9949L168.675 77.0242C168.617 77.0804 168.551 77.1468 168.477 77.2237L168.44 77.263C168.182 77.5332 167.895 77.8609 167.584 78.2468C166.692 79.3544 165.799 80.7034 164.965 82.2998C163.336 85.4171 162.135 89.0814 161.543 93.3128C160.811 98.5466 161.052 104.388 162.451 110.858C162.502 111.096 162.373 111.337 162.163 111.395C161.952 111.454 161.74 111.308 161.688 111.069C160.265 104.486 160.019 98.5258 160.768 93.1737C161.375 88.8283 162.611 85.0581 164.289 81.8466C165.152 80.1962 166.077 78.7986 167.004 77.6475C167.306 77.2718 167.589 76.9472 167.847 76.6731L167.906 76.6108C168.072 76.4362 168.193 76.3185 168.261 76.2569Z" fill="#2E186A"/>
<path fill-rule="evenodd" clip-rule="evenodd" d="M164.228 105.019C163.927 104.723 163.783 104.293 163.822 103.848C164.646 95.251 168.074 86.4018 173.412 83.1556C178.893 79.8205 182.635 89.0847 175.034 97.6819C169.317 104.159 166.256 105.212 165.091 105.345C164.777 105.375 164.463 105.256 164.228 105.019V105.019Z" fill="#FEBA91"/>
<path fill-rule="evenodd" clip-rule="evenodd" d="M152.2 103.035C154.45 103.254 156.227 104.652 157.576 106.825C158.086 107.647 158.499 108.526 158.824 109.405C158.925 109.678 159.012 109.935 159.084 110.17L159.11 110.257C159.157 110.414 159.187 110.528 159.203 110.593C159.261 110.829 159.139 111.074 158.93 111.14C158.728 111.203 158.52 111.076 158.454 110.855L158.428 110.759L158.406 110.68C158.394 110.637 158.381 110.591 158.366 110.541C158.295 110.303 158.207 110.036 158.1 109.748C157.796 108.925 157.409 108.102 156.933 107.336C155.707 105.361 154.124 104.115 152.132 103.921C151.916 103.9 151.756 103.684 151.775 103.439C151.793 103.204 151.97 103.027 152.177 103.033L152.2 103.035Z" fill="#2E186A"/>
<path fill-rule="evenodd" clip-rule="evenodd" d="M178.137 83.5971C178.284 83.7637 178.29 84.0298 178.155 84.2046L178.126 84.2392L177.972 84.4163L177.828 84.5831C177.762 84.6614 177.69 84.7449 177.615 84.8337L177.499 84.9707C176.99 85.5755 176.421 86.2677 175.809 87.036C174.06 89.2315 172.31 91.5955 170.678 94.0366C168.735 96.9428 167.091 99.7633 165.843 102.422C165.447 103.265 165.093 104.087 164.783 104.887C164.696 105.112 164.465 105.214 164.266 105.115C164.068 105.017 163.977 104.754 164.064 104.529C164.382 103.709 164.745 102.866 165.15 102.004C166.42 99.2992 168.086 96.4407 170.052 93.4996C171.699 91.0364 173.463 88.6533 175.226 86.4401L175.442 86.1698C175.942 85.5468 176.411 84.9764 176.84 84.4651L177.105 84.1512C177.198 84.0422 177.284 83.9413 177.364 83.8489L177.582 83.5975C177.735 83.4237 177.984 83.4235 178.137 83.5971Z" fill="#2E186A"/>
<path fill-rule="evenodd" clip-rule="evenodd" d="M175.193 95.3197L175.327 95.3121C175.589 95.2982 175.813 95.2929 175.994 95.2932L176.172 95.2959C176.389 95.304 176.558 95.5096 176.551 95.755C176.544 95.9917 176.375 96.1791 176.169 96.1849L176.108 96.1838C175.9 96.1798 175.605 96.1852 175.235 96.2078C174.679 96.2416 174.071 96.3079 173.423 96.4143C171.644 96.7064 169.847 97.2498 168.127 98.1042C167.928 98.2028 167.697 98.1004 167.61 97.8754C167.523 97.6505 167.613 97.3882 167.812 97.2896C169.602 96.4008 171.466 95.837 173.31 95.5342C173.982 95.4238 174.614 95.3549 175.193 95.3197Z" fill="#2E186A"/>
<path fill-rule="evenodd" clip-rule="evenodd" d="M171.745 84.6055C171.935 84.7251 172.002 84.996 171.897 85.2104L171.805 85.399C171.776 85.4609 171.743 85.5291 171.708 85.6033L171.58 85.8737C171.463 86.1225 171.337 86.3936 171.205 86.6844C170.685 87.827 170.164 89.0382 169.679 90.2637C169.295 91.2331 168.949 92.1721 168.65 93.0661L168.575 93.2935C167.783 95.7046 167.391 97.6417 167.497 98.8998C167.517 99.1443 167.359 99.3614 167.143 99.3847C166.928 99.4081 166.736 99.2288 166.715 98.9843C166.591 97.5125 167.034 95.3876 167.916 92.751C168.221 91.8394 168.573 90.8843 168.963 89.8995C169.454 88.6581 169.981 87.4327 170.507 86.2766L170.655 85.9539C170.768 85.7096 170.874 85.4813 170.974 85.2706L171.116 84.973L171.211 84.7772C171.317 84.5627 171.556 84.4858 171.745 84.6055Z" fill="#2E186A"/>
<path fill-rule="evenodd" clip-rule="evenodd" d="M169.84 100.677C170.389 100.624 170.867 100.609 171.234 100.614L171.359 100.617C171.576 100.626 171.745 100.832 171.737 101.078C171.729 101.315 171.56 101.501 171.354 101.506L171.276 101.505C170.927 101.497 170.455 101.511 169.906 101.563C169.076 101.642 168.258 101.795 167.497 102.036C166.78 102.264 166.145 102.562 165.612 102.937C165.428 103.066 165.186 103.002 165.072 102.793C164.957 102.584 165.014 102.31 165.198 102.181C165.799 101.759 166.502 101.429 167.285 101.18C168.099 100.922 168.964 100.76 169.84 100.677Z" fill="#2E186A"/>
<path fill-rule="evenodd" clip-rule="evenodd" d="M157.451 97.1633C157.045 97.4894 156.575 97.5338 156.208 97.3115C149.052 92.8498 143.008 84.5194 142.916 75.5368C142.812 66.3023 152.938 64.3605 156.588 78.6793C159.335 89.4554 158.681 94.3025 158.184 96.0367C158.04 96.4814 157.778 96.8964 157.451 97.1633V97.1633Z" fill="#FEBA91"/>
<path fill-rule="evenodd" clip-rule="evenodd" d="M145.358 69.5741C145.461 69.3581 145.699 69.2776 145.89 69.3944C149.247 71.4511 151.957 76.2412 154.119 82.9395C155.138 86.0966 155.968 89.4756 156.623 92.854L156.698 93.2449C156.87 94.1496 157.019 95.0014 157.145 95.7872L157.198 96.1199C157.253 96.4654 157.299 96.7723 157.336 97.0372L157.382 97.3655C157.413 97.6084 157.265 97.8343 157.05 97.87C156.836 97.9057 156.636 97.7376 156.605 97.4946L156.569 97.2319L156.538 97.0177C156.51 96.8239 156.478 96.6099 156.441 96.3769L156.426 96.2759C156.272 95.3014 156.083 94.2151 155.856 93.0449C155.208 89.7026 154.388 86.3607 153.382 83.245C151.281 76.7339 148.661 72.1026 145.516 70.1768C145.326 70.06 145.255 69.7901 145.358 69.5741Z" fill="#2E186A"/>
<path fill-rule="evenodd" clip-rule="evenodd" d="M142.964 76.7328C143.053 76.5088 143.285 76.409 143.483 76.5097C145.086 77.3269 146.917 78.3434 148.697 79.4653L148.926 79.6106C151.431 81.2072 153.358 82.73 154.471 84.1164C154.617 84.2982 154.605 84.5794 154.444 84.7446C154.284 84.9098 154.036 84.8964 153.89 84.7147C152.816 83.3767 150.862 81.8481 148.315 80.2425C146.557 79.1345 144.745 78.1284 143.161 77.3208C142.963 77.22 142.875 76.9567 142.964 76.7328Z" fill="#2E186A"/>
<path fill-rule="evenodd" clip-rule="evenodd" d="M156.119 78.1179C156.335 78.0951 156.526 78.2748 156.546 78.5193C156.717 80.5858 156.804 82.5823 156.762 84.3294L156.756 84.5449C156.689 86.7873 156.406 88.402 155.827 89.2651C155.696 89.4606 155.449 89.4985 155.277 89.3498C155.104 89.2011 155.071 88.9222 155.202 88.7267C156.073 87.4296 156.167 83.4768 155.765 78.6021C155.745 78.3575 155.903 78.1408 156.119 78.1179Z" fill="#2E186A"/>
<path fill-rule="evenodd" clip-rule="evenodd" d="M146.261 86.9966C146.398 86.8058 146.645 86.7764 146.813 86.9309C147.721 87.7642 149.063 88.6467 150.719 89.5433C151.881 90.1722 153.128 90.7709 154.375 91.3188L154.591 91.413C154.875 91.5364 155.144 91.6506 155.395 91.755L155.736 91.8948L156.035 92.0142C156.24 92.0938 156.349 92.3467 156.279 92.579C156.211 92.803 156.001 92.9261 155.802 92.8632L155.733 92.8369L155.568 92.7712C155.521 92.7526 155.472 92.7327 155.421 92.7116L155.125 92.5902C154.807 92.4578 154.46 92.3099 154.091 92.148C152.827 91.5925 151.563 90.9854 150.381 90.3457L150.155 90.2226C148.551 89.3405 147.242 88.4685 146.319 87.622C146.151 87.4675 146.125 87.1874 146.261 86.9966Z" fill="#2E186A"/>
<path fill-rule="evenodd" clip-rule="evenodd" d="M152.964 101.168C153.114 99.9185 152.945 98.8612 152.587 98.8062C152.229 98.7512 151.817 99.7193 151.668 100.969C151.518 102.218 151.687 103.275 152.045 103.33C152.403 103.385 152.815 102.417 152.964 101.168Z" fill="#FE7624"/>
<path fill-rule="evenodd" clip-rule="evenodd" d="M152.053 103.326C152.264 103.035 151.803 102.209 151.023 101.479C150.243 100.75 149.439 100.394 149.227 100.684C149.016 100.975 149.477 101.802 150.257 102.531C151.037 103.26 151.841 103.616 152.053 103.326Z" fill="#FE7624"/>
<path fill-rule="evenodd" clip-rule="evenodd" d="M154.131 102.892C155.104 102.314 155.754 101.546 155.583 101.176C155.412 100.806 154.484 100.975 153.512 101.553C152.539 102.13 151.889 102.898 152.06 103.268C152.231 103.638 153.158 103.469 154.131 102.892Z" fill="#FE7624"/>
<path fill-rule="evenodd" clip-rule="evenodd" d="M150.738 104.911C151.625 104.36 152.215 103.646 152.055 103.315C151.895 102.985 151.047 103.164 150.16 103.715C149.273 104.266 148.683 104.981 148.843 105.311C149.003 105.641 149.851 105.462 150.738 104.911Z" fill="#FE7624"/>
<path fill-rule="evenodd" clip-rule="evenodd" d="M153.593 107.122C153.895 106.966 153.797 105.988 153.374 104.937C152.952 103.887 152.364 103.163 152.061 103.319C151.759 103.475 151.856 104.453 152.279 105.504C152.702 106.554 153.29 107.278 153.593 107.122Z" fill="#FE7624"/>
<path fill-rule="evenodd" clip-rule="evenodd" d="M170.054 75.4456C170.787 73.9964 170.877 72.495 170.257 72.0922C169.636 71.6894 168.539 72.5377 167.806 73.987C167.074 75.4362 166.983 76.9376 167.604 77.3404C168.225 77.7432 169.322 76.8949 170.054 75.4456Z" fill="#FE7624"/>
<path fill-rule="evenodd" clip-rule="evenodd" d="M170.103 78.7389C171.563 78.7053 172.734 78.0146 172.719 77.1961C172.704 76.3776 171.51 75.7413 170.05 75.7749C168.591 75.8085 167.42 76.4992 167.435 77.3177C167.449 78.1362 168.644 78.7724 170.103 78.7389Z" fill="#FE7624"/>
<path fill-rule="evenodd" clip-rule="evenodd" d="M167.421 77.3743C167.937 76.9397 167.72 75.618 166.935 74.4222C166.151 73.2264 165.097 72.6093 164.58 73.0439C164.064 73.4785 164.282 74.8002 165.066 75.996C165.851 77.1918 166.905 77.8089 167.421 77.3743Z" fill="#FE7624"/>
<path fill-rule="evenodd" clip-rule="evenodd" d="M168.372 79.7298C168.908 78.3691 168.872 77.0281 168.291 76.7346C167.71 76.4411 166.805 77.3063 166.269 78.667C165.734 80.0278 165.77 81.3688 166.351 81.6623C166.931 81.9558 167.837 81.0906 168.372 79.7298Z" fill="#FE7624"/>
<path fill-rule="evenodd" clip-rule="evenodd" d="M166.52 78.5041C167.691 78.361 168.589 77.7107 168.527 77.0514C168.464 76.3921 167.464 75.9737 166.293 76.1167C165.122 76.2598 164.224 76.9102 164.286 77.5694C164.349 78.2287 165.349 78.6471 166.52 78.5041Z" fill="#FE7624"/>
<path fill-rule="evenodd" clip-rule="evenodd" d="M172.784 112.179L167.943 137.022H152.571L147.731 112.179C147.456 110.756 148.241 109.362 149.314 109.362H171.214C172.286 109.377 173.071 110.77 172.784 112.179Z" fill="white"/>
<path fill-rule="evenodd" clip-rule="evenodd" d="M171.219 108.918L149.314 108.918C147.967 108.918 147.023 110.595 147.347 112.274L152.188 137.118C152.228 137.321 152.387 137.466 152.571 137.466H167.943C168.127 137.466 168.287 137.321 168.326 137.118L173.167 112.275C173.506 110.617 172.566 108.936 171.219 108.918ZM171.213 109.807L171.24 109.808C172.019 109.846 172.617 110.917 172.41 112.034L167.628 136.577H152.887L148.114 112.083C147.889 110.918 148.514 109.807 149.314 109.807H171.213Z" fill="#2E186A"/>
<path fill-rule="evenodd" clip-rule="evenodd" d="M145.219 66.2874C144.761 62.8485 142.458 60.047 139.397 59.3207C136.872 58.7278 134.308 58.12 133.602 57.9125L133.51 58.3572L117.405 56.949L117.235 54.3699L110.445 54.444C102.779 55.2444 97.049 69.1185 94.21 77.5527L92.6401 82.2367L104.598 77.0932C104.558 79.6279 104.768 82.1774 105.33 84.5639C108.221 96.8075 102.517 100.513 102.517 100.513L99.4038 116.566L95.6099 116.27V137.748L136.061 137.659L135.433 100.632L145.219 66.2874ZM135.433 86.9059V86.728L135.446 86.9059H135.433Z" fill="#FE7624"/>
<path fill-rule="evenodd" clip-rule="evenodd" d="M135.878 119.442L95.9894 119.872L95.623 137.748H136.061L135.878 119.442Z" fill="#2E186A"/>
<path fill-rule="evenodd" clip-rule="evenodd" d="M108.589 66.6545C108.684 66.4341 108.92 66.3434 109.114 66.4518C109.302 66.5562 109.383 66.8072 109.303 67.0224L109.293 67.0471L106.899 72.5612C106.803 72.7815 106.568 72.8723 106.374 72.7639C106.186 72.6595 106.105 72.4085 106.185 72.1932L106.195 72.1686L108.589 66.6545Z" fill="#2E186A"/>
<path fill-rule="evenodd" clip-rule="evenodd" d="M136.135 46.3138C136.341 46.2372 136.563 46.3642 136.63 46.5975C136.967 47.7576 136.959 49.2182 136.595 50.6537C135.891 53.433 134.058 55.3338 132.379 54.8452C132.169 54.7841 132.042 54.5417 132.096 54.3039C132.15 54.066 132.364 53.9227 132.574 53.9838C133.75 54.3261 135.239 52.7824 135.841 50.4082C136.163 49.1374 136.17 47.858 135.885 46.8751C135.817 46.6418 135.929 46.3905 136.135 46.3138Z" fill="#FE7624"/>
<path fill-rule="evenodd" clip-rule="evenodd" d="M116.25 42.5934C116.456 42.5167 116.677 42.6437 116.745 42.877C117.081 44.0371 117.074 45.4978 116.71 46.9333C116.005 49.7125 114.172 51.6133 112.494 51.1247C112.284 51.0636 112.157 50.8213 112.211 50.5834C112.265 50.3455 112.479 50.2022 112.689 50.2633C113.865 50.6056 115.354 49.062 115.956 46.6877C116.278 45.417 116.284 44.1375 115.999 43.1547C115.932 42.9213 116.044 42.67 116.25 42.5934Z" fill="#FE7624"/>
<path fill-rule="evenodd" clip-rule="evenodd" d="M137.16 27.6C134.374 24.5762 133.877 10.791 143.244 2.9646C152.728 -4.95076 158.694 5.42518 159.976 8.12292C161.258 10.8207 161.664 17.7577 153.631 23.0939C145.598 28.4301 140.339 31.0389 137.16 27.6Z" fill="#2E186A"/>
<path fill-rule="evenodd" clip-rule="evenodd" d="M132.019 32.9066L132.189 33.0697C133.235 34.0776 134.858 33.9442 135.8 32.7881L138.455 29.5567C139.41 28.4005 139.332 26.6514 138.285 25.6435L138.115 25.4804C137.069 24.4725 135.446 24.6059 134.504 25.7621L131.849 28.9934C130.894 30.1644 130.972 31.9135 132.019 32.9066Z" fill="#FE7624"/>
<path fill-rule="evenodd" clip-rule="evenodd" d="M126.82 37.1843C130.291 33.397 131.46 28.3909 129.43 26.0027C127.401 23.6146 122.941 24.7488 119.47 28.5361C115.999 32.3234 114.83 37.3295 116.86 39.7177C118.889 42.1058 123.349 40.9716 126.82 37.1843Z" fill="#2E186A"/>
<path fill-rule="evenodd" clip-rule="evenodd" d="M125.163 37.0569C127.937 41.4445 131.665 43.5493 134.818 43.4604C138.167 43.3714 140.601 35.1596 137.827 30.7721C135.054 26.3845 127.492 23.5089 124.876 25.4952C122.259 27.4962 122.39 32.6694 125.163 37.0569Z" fill="#2E186A"/>
<path fill-rule="evenodd" clip-rule="evenodd" d="M135.821 46.3244C137.324 45.7663 138.164 44.0021 137.696 42.3839C137.228 40.7658 135.63 39.9065 134.126 40.4646C132.623 41.0227 131.783 42.7869 132.251 44.405C132.719 46.0231 134.317 46.8825 135.821 46.3244Z" fill="white"/>
<path fill-rule="evenodd" clip-rule="evenodd" d="M134.077 40.1299C132.331 40.8114 131.309 42.8236 131.806 44.6313C132.303 46.4391 134.125 47.3402 135.871 46.6587C137.616 45.9772 138.638 43.965 138.142 42.1572C137.645 40.3495 135.822 39.4484 134.077 40.1299ZM134.303 40.9536C135.635 40.4335 137.008 41.1125 137.378 42.4556C137.747 43.7987 136.976 45.3149 135.644 45.835C134.313 46.3551 132.939 45.6761 132.57 44.333C132.201 42.9899 132.971 41.4737 134.303 40.9536Z" fill="#2E186A"/>
<path fill-rule="evenodd" clip-rule="evenodd" d="M116.417 42.4254C117.921 41.8673 118.761 40.1031 118.293 38.485C117.825 36.8669 116.227 36.0075 114.723 36.5656C113.219 37.1237 112.38 38.8879 112.848 40.5061C113.315 42.1242 114.914 42.9835 116.417 42.4254Z" fill="white"/>
<path fill-rule="evenodd" clip-rule="evenodd" d="M114.673 36.2312C112.928 36.9128 111.906 38.9249 112.402 40.7327C112.899 42.5404 114.722 43.4415 116.467 42.76C118.213 42.0785 119.235 40.0663 118.738 38.2586C118.241 36.4508 116.419 35.5497 114.673 36.2312ZM114.9 37.0549C116.232 36.5348 117.605 37.2138 117.974 38.5569C118.343 39.9 117.573 41.4162 116.241 41.9363C114.909 42.4564 113.536 41.7774 113.166 40.4343C112.797 39.0912 113.568 37.575 114.9 37.0549Z" fill="#2E186A"/>
<path fill-rule="evenodd" clip-rule="evenodd" d="M121.618 50.6346L120.336 55.0222L116.856 54.7702C116.516 55.3186 113.651 65.7094 122.416 67.162C128.172 68.1255 132.189 63.3526 134.975 58.7131L130.187 57.5421L133.353 45.0613L121.618 50.6346Z" fill="white"/>
<path fill-rule="evenodd" clip-rule="evenodd" d="M121.466 50.2246L121.443 50.237C121.349 50.2896 121.278 50.3823 121.245 50.495L120.059 54.5566L116.881 54.3265C116.745 54.3166 116.613 54.3879 116.535 54.5146C116.376 54.7702 116.126 55.678 115.963 56.6509C115.74 57.9829 115.677 59.3689 115.832 60.6862C116.27 64.3889 118.326 66.9337 122.359 67.6021C125.146 68.0685 127.69 67.2728 130.035 65.4024C131.934 63.8881 133.628 61.7461 135.3 58.9633L135.312 58.9408C135.449 58.6824 135.322 58.3431 135.058 58.2785L130.68 57.2078L133.73 45.1842C133.821 44.8254 133.505 44.507 133.201 44.6513L121.466 50.2246ZM132.75 45.8299L129.81 57.4193L129.804 57.4449C129.757 57.6841 129.89 57.9244 130.104 57.9768L134.318 59.0072L134.309 59.0224C132.798 61.452 131.265 63.3335 129.583 64.6752C127.396 66.4202 125.05 67.1535 122.473 66.7222C118.799 66.1133 117.003 63.8903 116.61 60.5681C116.467 59.3536 116.526 58.0609 116.734 56.8163L116.743 56.763C116.842 56.1877 116.976 55.636 117.074 55.3102L117.097 55.2332L120.311 55.4661L120.335 55.467C120.504 55.4675 120.655 55.3453 120.708 55.162L121.934 50.9665L132.75 45.8299Z" fill="#2E186A"/>
<path fill-rule="evenodd" clip-rule="evenodd" d="M133.852 43.9165C135.814 36.9782 133.545 29.9524 128.783 28.224C124.022 26.4956 118.571 30.7191 116.61 37.6575C114.648 44.5958 116.917 51.6216 121.678 53.35C126.44 55.0784 131.89 50.8549 133.852 43.9165Z" fill="white"/>
<path fill-rule="evenodd" clip-rule="evenodd" d="M115.977 37.2491C114.097 44.2511 116.683 51.5376 121.818 53.5008C126.953 55.464 132.605 51.327 134.485 44.325C136.365 37.323 133.779 30.0365 128.645 28.0733C123.51 26.1101 117.857 30.2471 115.977 37.2491ZM116.743 37.5421C118.511 30.9567 123.759 27.1158 128.423 28.8987C133.087 30.6816 135.488 37.4467 133.719 44.032C131.951 50.6174 126.703 54.4583 122.039 52.6754C117.375 50.8925 114.975 44.1274 116.743 37.5421Z" fill="#2E186A"/>
<path fill-rule="evenodd" clip-rule="evenodd" d="M123.622 37.764C123.704 37.5365 123.933 37.4272 124.134 37.5197C124.328 37.609 124.424 37.8534 124.358 38.0748L124.35 38.0992L122.572 43.0481L124.127 43.3328C124.333 43.3706 124.476 43.5842 124.455 43.8168L124.452 43.8427C124.419 44.0765 124.23 44.2381 124.025 44.2142L124.002 44.2108L122.304 43.9C121.891 43.828 121.645 43.345 121.781 42.8925L121.791 42.863L123.622 37.764Z" fill="#2E186A"/>
<path fill-rule="evenodd" clip-rule="evenodd" d="M126.786 35.119C127.684 34.4217 128.624 34.5956 129.47 35.2773C129.626 35.403 129.767 35.5372 129.89 35.6719C129.966 35.7545 130.021 35.821 130.053 35.8635C130.194 36.05 130.175 36.3307 130.01 36.4905C129.852 36.6442 129.617 36.6301 129.474 36.4631L129.434 36.4129C129.413 36.3883 129.384 36.3543 129.346 36.3131C129.249 36.2072 129.138 36.1009 129.015 36.0021C128.409 35.514 127.809 35.4029 127.23 35.8527C127.051 35.9915 126.806 35.9398 126.684 35.7372C126.561 35.5346 126.607 35.2579 126.786 35.119Z" fill="#2E186A"/>
<path fill-rule="evenodd" clip-rule="evenodd" d="M121.14 33.8666C121.627 33.7746 122.13 33.8557 122.62 34.0438C122.828 34.1238 122.988 34.2049 123.084 34.2632C123.276 34.3785 123.348 34.6478 123.247 34.8646C123.149 35.0734 122.925 35.1574 122.737 35.0604L122.691 35.0342C122.679 35.0279 122.665 35.0202 122.648 35.0113L122.63 35.0021C122.552 34.9628 122.464 34.9231 122.367 34.886C121.99 34.741 121.609 34.6796 121.269 34.7439C120.92 34.8099 120.634 35.0054 120.409 35.3698C120.285 35.5712 120.04 35.6205 119.863 35.4799C119.685 35.3393 119.641 35.0621 119.766 34.8607C120.114 34.2944 120.588 33.971 121.14 33.8666Z" fill="#2E186A"/>
<path fill-rule="evenodd" clip-rule="evenodd" d="M127.838 40.2357C127.892 39.5919 127.627 39.0364 127.246 38.9949C126.865 38.9534 126.512 39.4416 126.457 40.0854C126.403 40.7291 126.667 41.2846 127.049 41.3261C127.43 41.3676 127.783 40.8794 127.838 40.2357Z" fill="#2E186A"/>
<path fill-rule="evenodd" clip-rule="evenodd" d="M121.417 39.6562C121.531 39.0224 121.319 38.4386 120.944 38.3521C120.569 38.2657 120.172 38.7093 120.059 39.343C119.945 39.9767 120.157 40.5606 120.532 40.647C120.907 40.7335 121.304 40.2899 121.417 39.6562Z" fill="#2E186A"/>
<path fill-rule="evenodd" clip-rule="evenodd" d="M132.267 29.1118C132.267 29.1118 128.656 30.8016 128.879 33.3956L113.481 32.2543C113.481 32.2543 111.885 19.0175 130.292 25.3469L132.267 29.1118Z" fill="#2E186A"/>
<path fill-rule="evenodd" clip-rule="evenodd" d="M131.194 29.6899C131.194 29.6899 129.978 38.3613 134.923 40.7329L135.014 33.0547L131.194 29.6899Z" fill="#2E186A"/>
<path fill-rule="evenodd" clip-rule="evenodd" d="M110.775 44.9967C111.495 42.1816 113.374 40.2655 115.057 40.8251C115.265 40.8942 115.384 41.1414 115.323 41.377C115.262 41.6126 115.043 41.7476 114.835 41.6784C113.666 41.2894 112.143 42.8417 111.529 45.2442C110.922 47.6179 111.463 49.8291 112.611 50.2394L112.629 50.2453L112.66 50.2544L112.676 50.2597L112.681 50.2609C112.847 50.3051 112.973 50.4689 112.983 50.6677L112.984 50.6938C112.984 50.9394 112.808 51.1385 112.591 51.1385C112.546 51.1385 112.512 51.1316 112.476 51.1205L112.452 51.1123L112.431 51.1067C110.763 50.5691 110.07 47.8624 110.754 45.081L110.775 44.9967Z" fill="#FE7624"/>
<path fill-rule="evenodd" clip-rule="evenodd" d="M130.66 48.7174C131.38 45.9023 133.259 43.9862 134.942 44.5458C135.15 44.6149 135.269 44.8621 135.208 45.0977C135.147 45.3333 134.929 45.4683 134.721 45.3991C133.551 45.0101 132.029 46.5624 131.414 48.9649C130.807 51.3386 131.349 53.5498 132.496 53.9601L132.514 53.966L132.546 53.9751L132.562 53.9804L132.566 53.9816C132.733 54.0258 132.858 54.1896 132.868 54.3884L132.869 54.4145C132.869 54.6601 132.693 54.8592 132.476 54.8592C132.431 54.8592 132.397 54.8523 132.361 54.8412L132.337 54.833L132.317 54.8274C130.648 54.2898 129.955 51.5831 130.639 48.8017L130.66 48.7174Z" fill="#FE7624"/>
<path fill-rule="evenodd" clip-rule="evenodd" d="M127.392 44.7972C127.456 44.5624 127.675 44.4307 127.883 44.5029C128.09 44.5752 128.206 44.824 128.142 45.0587C127.761 46.4628 126.907 47.3356 125.748 47.7549C124.981 48.0327 124.181 48.084 123.462 48.0074L123.364 47.996C123.306 47.9884 123.26 47.9813 123.229 47.9756C123.015 47.9358 122.871 47.707 122.906 47.4647C122.94 47.231 123.128 47.07 123.334 47.0945L123.414 47.1071C123.445 47.1115 123.486 47.1167 123.536 47.122C124.158 47.1882 124.859 47.1434 125.51 46.9078C126.437 46.5719 127.092 45.9032 127.392 44.7972Z" fill="#2E186A"/>
<path fill-rule="evenodd" clip-rule="evenodd" d="M82.5929 120.154L78.4326 137.437H103.433L99.3778 120.005L82.5929 120.154Z" fill="#5D21D1"/>
<path fill-rule="evenodd" clip-rule="evenodd" d="M123.607 120.791H60.4703C59.7769 120.791 59.2144 120.153 59.2144 119.368L59.5676 73.2246C59.5676 72.439 59.7769 70.9863 60.4572 70.9863H123.607C124.3 70.9863 124.863 71.6237 124.863 72.4093V119.368C124.849 120.153 124.287 120.791 123.607 120.791Z" fill="#5D21D1"/>
<path fill-rule="evenodd" clip-rule="evenodd" d="M113.481 113.706H67.8751C67.0771 113.706 66.436 112.979 66.436 112.075V77.2711C66.436 76.3669 67.0771 75.6406 67.8751 75.6406H113.481C114.279 75.6406 114.92 76.3669 114.92 77.2711V112.09C114.92 112.979 114.266 113.706 113.481 113.706Z" fill="white"/>
<path fill-rule="evenodd" clip-rule="evenodd" d="M105.252 111.719H75.8945C75.2273 111.719 74.6909 111.112 74.6909 110.356V88.4623C74.6909 87.7064 75.2273 87.0986 75.8945 87.0986H105.265C105.932 87.0986 106.468 87.7064 106.468 88.4623V110.341C106.468 111.097 105.919 111.719 105.252 111.719Z" fill="#2E186A"/>
<path fill-rule="evenodd" clip-rule="evenodd" d="M90.5864 124.541C88.7006 124.541 87.1719 126.273 87.1719 128.41C87.1719 130.546 88.7006 132.279 90.5864 132.279C92.4722 132.279 94.001 130.546 94.001 128.41C94.001 126.273 92.4722 124.541 90.5864 124.541ZM90.5864 125.43C92.0387 125.43 93.216 126.764 93.216 128.41C93.216 130.055 92.0387 131.389 90.5864 131.389C89.1341 131.389 87.9568 130.055 87.9568 128.41C87.9568 126.764 89.1341 125.43 90.5864 125.43Z" fill="white"/>
<path fill-rule="evenodd" clip-rule="evenodd" d="M97.1818 120.417C97.3853 120.363 97.589 120.499 97.6477 120.723L97.6536 120.748L100.99 136.861C101.039 137.1 100.908 137.339 100.697 137.395C100.494 137.449 100.29 137.313 100.231 137.089L100.225 137.064L96.8894 120.952C96.8399 120.713 96.9708 120.473 97.1818 120.417Z" fill="white"/>
<path fill-rule="evenodd" clip-rule="evenodd" d="M117.248 73.6692H64.1069C63.0922 73.6692 62.2754 74.5946 62.2754 75.7444V114.936C62.2754 116.086 63.0922 117.011 64.1069 117.011H117.248C118.263 117.011 119.08 116.086 119.08 114.936V75.7444C119.08 74.5946 118.263 73.6692 117.248 73.6692ZM64.1069 74.5586H117.248C117.829 74.5586 118.295 75.0858 118.295 75.7444V114.936C118.295 115.594 117.829 116.122 117.248 116.122H64.1069C63.5257 116.122 63.0603 115.594 63.0603 114.936V75.7444C63.0603 75.0858 63.5257 74.5586 64.1069 74.5586Z" fill="white"/>
<path fill-rule="evenodd" clip-rule="evenodd" d="M121.84 70.9419C122.049 70.9419 122.22 71.127 122.232 71.3604L122.233 71.3866V120.346C122.233 120.592 122.057 120.791 121.84 120.791C121.631 120.791 121.46 120.606 121.448 120.372L121.448 120.346V71.3866C121.448 71.141 121.623 70.9419 121.84 70.9419Z" fill="white"/>
<path fill-rule="evenodd" clip-rule="evenodd" d="M109.948 77.1823H55.8652L63.0868 74.3215C63.5316 74.1436 64.0026 74.0547 64.4735 74.0547H117.628L109.948 77.1823Z" fill="#FE7624"/>
<path fill-rule="evenodd" clip-rule="evenodd" d="M117.628 73.6099H64.4734C63.9549 73.6099 63.44 73.7085 62.956 73.902L55.7355 76.7624C55.3183 76.9276 55.4231 77.6268 55.865 77.6268H109.948C109.994 77.6268 110.038 77.618 110.081 77.6006L117.76 74.473C118.175 74.3044 118.068 73.6099 117.628 73.6099ZM115.375 74.4992L109.88 76.7375H58.1763L63.2161 74.7411C63.6168 74.5809 64.0433 74.4992 64.4733 74.4992H115.375Z" fill="#2E186A"/>
<path fill-rule="evenodd" clip-rule="evenodd" d="M61.386 77.1672H55.8651C55.8651 77.1672 55.8521 81.5548 55.8521 81.6141C55.8521 83.2446 57.0949 84.5638 58.6255 84.5638C60.1562 84.5638 61.399 83.2446 61.399 81.6141C61.399 81.4955 61.386 77.1672 61.386 77.1672Z" fill="#FE7624"/>
<path fill-rule="evenodd" clip-rule="evenodd" d="M61.3859 76.7227H55.865C55.6565 76.7227 55.4859 76.9069 55.4733 77.1398L55.4595 81.6142C55.4595 83.496 56.8826 85.0086 58.6254 85.0086C60.3509 85.0086 61.7629 83.5261 61.791 81.6705L61.7783 77.1658C61.7776 76.9208 61.6021 76.7227 61.3859 76.7227ZM56.2561 77.612H60.9947L61.0065 81.6142C61.0065 82.9916 59.9456 84.1192 58.6255 84.1192C57.3053 84.1192 56.2444 82.9916 56.2444 81.6142L56.2561 77.612Z" fill="#2E186A"/>
<path fill-rule="evenodd" clip-rule="evenodd" d="M66.7761 77.1672H61.2553C61.2553 77.1672 61.2422 81.5548 61.2422 81.6141C61.2422 83.2446 62.485 84.5638 64.0157 84.5638C65.5463 84.5638 66.7892 83.2446 66.7892 81.6141C66.8023 81.4955 66.7761 77.1672 66.7761 77.1672Z" fill="white"/>
<path fill-rule="evenodd" clip-rule="evenodd" d="M66.776 76.7227H61.2552C61.0466 76.7227 60.876 76.9069 60.8634 77.1398L60.8496 81.6142C60.8496 83.496 62.2727 85.0086 64.0156 85.0086L64.0678 85.0081C65.7524 84.9789 67.1256 83.5366 67.1796 81.7255L67.1839 81.4609C67.1868 81.1495 67.185 80.4894 67.1801 79.3898L67.1685 77.1643C67.167 76.9199 66.9917 76.7227 66.776 76.7227ZM61.6462 77.612H66.386L66.3994 80.5675C66.4009 81.1532 66.401 81.5471 66.3996 81.559C66.3976 81.5773 66.3966 81.5957 66.3966 81.6142C66.3966 82.9916 65.3357 84.1192 64.0156 84.1192C62.6954 84.1192 61.6346 82.9916 61.6346 81.6142L61.6462 77.612Z" fill="#2E186A"/>
<path fill-rule="evenodd" clip-rule="evenodd" d="M72.1789 77.1672H66.6581C66.6581 77.1672 66.645 81.5548 66.645 81.6141C66.645 83.2446 67.8879 84.5638 69.4185 84.5638C70.9492 84.5638 72.192 83.2446 72.192 81.6141C72.192 81.4955 72.1789 77.1672 72.1789 77.1672Z" fill="#FE7624"/>
<path fill-rule="evenodd" clip-rule="evenodd" d="M72.1788 76.7227H66.658C66.4495 76.7227 66.2788 76.9069 66.2663 77.1398L66.2524 81.6142C66.2524 83.496 67.6756 85.0086 69.4184 85.0086C71.1438 85.0086 72.5559 83.5261 72.584 81.6705L72.5713 77.1658C72.5706 76.9208 72.3951 76.7227 72.1788 76.7227ZM67.0491 77.612H71.7877L71.7994 81.6142C71.7994 82.9916 70.7386 84.1192 69.4184 84.1192C68.0983 84.1192 67.0374 82.9916 67.0374 81.6142L67.0491 77.612Z" fill="#2E186A"/>
<path fill-rule="evenodd" clip-rule="evenodd" d="M77.5691 77.1672H72.0482C72.0482 77.1672 72.0352 81.5548 72.0352 81.6141C72.0352 83.2446 73.278 84.5638 74.8087 84.5638C76.3393 84.5638 77.5822 83.2446 77.5822 81.6141C77.5822 81.4955 77.5691 77.1672 77.5691 77.1672Z" fill="white"/>
<path fill-rule="evenodd" clip-rule="evenodd" d="M77.569 76.7227H72.0481C71.8396 76.7227 71.669 76.9069 71.6564 77.1398L71.6426 81.6142C71.6426 83.496 73.0657 85.0086 74.8086 85.0086C76.534 85.0086 77.946 83.5261 77.9741 81.6705L77.9614 77.1658C77.9607 76.9208 77.7852 76.7227 77.569 76.7227ZM72.4392 77.612H77.1778L77.1896 81.6142C77.1896 82.9916 76.1287 84.1192 74.8086 84.1192C73.4884 84.1192 72.4275 82.9916 72.4275 81.6142L72.4392 77.612Z" fill="#2E186A"/>
<path fill-rule="evenodd" clip-rule="evenodd" d="M82.9592 77.1672H77.4384C77.4384 77.1672 77.4253 81.5548 77.4253 81.6141C77.4253 83.2446 78.6681 84.5638 80.1988 84.5638C81.7294 84.5638 82.9723 83.2446 82.9723 81.6141C82.9854 81.4955 82.9592 77.1672 82.9592 77.1672Z" fill="#FE7624"/>
<path fill-rule="evenodd" clip-rule="evenodd" d="M82.9591 76.7227H77.4383C77.2298 76.7227 77.0591 76.9069 77.0465 77.1398L77.0327 81.6142C77.0327 83.496 78.4558 85.0086 80.1987 85.0086L80.2509 85.0081C81.9355 84.9789 83.3087 83.5366 83.3627 81.7255L83.367 81.4609C83.3699 81.1495 83.3681 80.4894 83.3632 79.3898L83.3516 77.1643C83.3501 76.9199 83.1748 76.7227 82.9591 76.7227ZM77.8293 77.612H82.5691L82.5825 80.5675C82.584 81.1532 82.5841 81.5471 82.5827 81.559C82.5807 81.5773 82.5797 81.5957 82.5797 81.6142C82.5797 82.9916 81.5188 84.1192 80.1987 84.1192C78.8785 84.1192 77.8177 82.9916 77.8177 81.6142L77.8293 77.612Z" fill="#2E186A"/>
<path fill-rule="evenodd" clip-rule="evenodd" d="M88.362 77.1672H82.8412C82.8412 77.1672 82.8281 81.5548 82.8281 81.6141C82.8281 83.2446 84.071 84.5638 85.6016 84.5638C87.1323 84.5638 88.3751 83.2446 88.3751 81.6141C88.3751 81.4955 88.362 77.1672 88.362 77.1672Z" fill="white"/>
<path fill-rule="evenodd" clip-rule="evenodd" d="M88.3619 76.7227H82.8411C82.6326 76.7227 82.462 76.9069 82.4494 77.1398L82.4355 81.6142C82.4355 83.496 83.8587 85.0086 85.6015 85.0086C87.3269 85.0086 88.739 83.5261 88.7671 81.6705L88.7544 77.1658C88.7537 76.9208 88.5782 76.7227 88.3619 76.7227ZM83.2321 77.612H87.9708L87.9826 81.6142C87.9826 82.9916 86.9217 84.1192 85.6015 84.1192C84.2814 84.1192 83.2205 82.9916 83.2205 81.6142L83.2321 77.612Z" fill="#2E186A"/>
<path fill-rule="evenodd" clip-rule="evenodd" d="M93.7522 77.1672H88.2313C88.2313 77.1672 88.2183 81.5548 88.2183 81.6141C88.2183 83.2446 89.4611 84.5638 90.9918 84.5638C92.5224 84.5638 93.7653 83.2446 93.7653 81.6141C93.7653 81.4955 93.7522 77.1672 93.7522 77.1672Z" fill="#FE7624"/>
<path fill-rule="evenodd" clip-rule="evenodd" d="M93.7521 76.7227H88.2312C88.0227 76.7227 87.8521 76.9069 87.8395 77.1398L87.8257 81.6142C87.8257 83.496 89.2488 85.0086 90.9917 85.0086C92.7171 85.0086 94.1291 83.5261 94.1572 81.6705L94.1446 77.1658C94.1438 76.9208 93.9683 76.7227 93.7521 76.7227ZM88.6223 77.612H93.3609L93.3727 81.6142C93.3727 82.9916 92.3118 84.1192 90.9917 84.1192C89.6715 84.1192 88.6106 82.9916 88.6106 81.6142L88.6223 77.612Z" fill="#2E186A"/>
<path fill-rule="evenodd" clip-rule="evenodd" d="M99.1423 77.1672H93.6215C93.6215 77.1672 93.6084 81.5548 93.6084 81.6141C93.6084 83.2446 94.8512 84.5638 96.3819 84.5638C97.9126 84.5638 99.1554 83.2446 99.1554 81.6141C99.1685 81.4955 99.1423 77.1672 99.1423 77.1672Z" fill="white"/>
<path fill-rule="evenodd" clip-rule="evenodd" d="M99.1422 76.7227H93.6214C93.4051 76.7227 93.2296 76.9208 93.2289 77.1658L93.2158 81.6142C93.2158 83.496 94.6389 85.0086 96.3818 85.0086L96.434 85.0081C98.1186 84.9789 99.4919 83.5366 99.5459 81.7255L99.5501 81.4609C99.553 81.1495 99.5512 80.4894 99.5463 79.3898L99.5347 77.1643C99.5332 76.9199 99.3579 76.7227 99.1422 76.7227ZM94.0124 77.612H98.7522L98.7656 80.5675C98.7671 81.1532 98.7671 81.5471 98.7658 81.559C98.7638 81.5773 98.7628 81.5957 98.7628 81.6142C98.7628 82.9916 97.7019 84.1192 96.3818 84.1192C95.0766 84.1192 94.0249 83.0171 94.0012 81.661L94.0124 77.612Z" fill="#2E186A"/>
<path fill-rule="evenodd" clip-rule="evenodd" d="M104.545 77.1672H99.0243C99.0243 77.1672 99.0112 81.5548 99.0112 81.6141C99.0112 83.2446 100.254 84.5638 101.785 84.5638C103.315 84.5638 104.558 83.2446 104.558 81.6141C104.558 81.4955 104.545 77.1672 104.545 77.1672Z" fill="#FE7624"/>
<path fill-rule="evenodd" clip-rule="evenodd" d="M104.545 76.7227H99.0242C98.8157 76.7227 98.6451 76.9069 98.6325 77.1398L98.6187 81.6142C98.6187 83.496 100.042 85.0086 101.785 85.0086C103.51 85.0086 104.922 83.5261 104.95 81.6705L104.938 77.1658C104.937 76.9208 104.761 76.7227 104.545 76.7227ZM99.4152 77.612H104.154L104.166 81.6142C104.166 82.9916 103.105 84.1192 101.785 84.1192C100.464 84.1192 99.4036 82.9916 99.4036 81.6142L99.4152 77.612Z" fill="#2E186A"/>
<path fill-rule="evenodd" clip-rule="evenodd" d="M109.935 77.1672H104.414C104.414 77.1672 104.401 81.5548 104.401 81.6141C104.401 83.2446 105.644 84.5638 107.175 84.5638C108.706 84.5638 109.948 83.2446 109.948 81.6141C109.948 81.4955 109.935 77.1672 109.935 77.1672Z" fill="white"/>
<path fill-rule="evenodd" clip-rule="evenodd" d="M109.935 76.7227H104.414C104.198 76.7227 104.023 76.9208 104.022 77.1658L104.009 81.6142C104.009 83.496 105.432 85.0086 107.175 85.0086C108.9 85.0086 110.312 83.5261 110.34 81.6705L110.328 77.1658C110.327 76.9208 110.151 76.7227 109.935 76.7227ZM104.805 77.612H109.544L109.556 81.6152C109.556 82.9916 108.495 84.1192 107.175 84.1192C105.87 84.1192 104.818 83.0171 104.794 81.661L104.805 77.612Z" fill="#2E186A"/>
<path fill-rule="evenodd" clip-rule="evenodd" d="M68.9441 73.6219C69.1477 73.5379 69.373 73.6568 69.4472 73.8876C69.5187 74.1101 69.4237 74.3553 69.2342 74.4479L69.2127 74.4576L61.5987 77.6C61.395 77.6841 61.1698 77.5652 61.0956 77.3344C61.024 77.1119 61.1191 76.8666 61.3086 76.774L61.33 76.7644L68.9441 73.6219Z" fill="#2E186A"/>
<path fill-rule="evenodd" clip-rule="evenodd" d="M74.138 73.6219C74.3417 73.5379 74.5669 73.657 74.641 73.8878C74.7124 74.1104 74.6173 74.3556 74.4277 74.448L74.4063 74.4577L66.7792 77.6001C66.5754 77.684 66.3503 77.565 66.2762 77.3342C66.2047 77.1116 66.2999 76.8664 66.4895 76.7739L66.5109 76.7643L74.138 73.6219Z" fill="#2E186A"/>
<path fill-rule="evenodd" clip-rule="evenodd" d="M79.6068 73.6219C79.8105 73.5379 80.0357 73.657 80.1097 73.8878C80.1812 74.1104 80.086 74.3556 79.8965 74.448L79.875 74.4577L72.2479 77.6001C72.0442 77.684 71.819 77.565 71.7449 77.3342C71.6735 77.1116 71.7687 76.8664 71.9582 76.7739L71.9796 76.7643L79.6068 73.6219Z" fill="#2E186A"/>
<path fill-rule="evenodd" clip-rule="evenodd" d="M85.0096 73.6219C85.2133 73.5379 85.4385 73.657 85.5126 73.8878C85.584 74.1104 85.4888 74.3556 85.2993 74.448L85.2779 74.4577L77.6507 77.6001C77.447 77.684 77.2218 77.565 77.1478 77.3342C77.0763 77.1116 77.1715 76.8664 77.361 76.7739L77.3825 76.7643L85.0096 73.6219Z" fill="#2E186A"/>
<path fill-rule="evenodd" clip-rule="evenodd" d="M90.4123 73.6219C90.616 73.5379 90.8412 73.6568 90.9154 73.8876C90.987 74.1101 90.8919 74.3553 90.7024 74.4479L90.681 74.4576L83.067 77.6C82.8633 77.6841 82.638 77.5652 82.5638 77.3344C82.4923 77.1119 82.5874 76.8666 82.7769 76.774L82.7983 76.7644L90.4123 73.6219Z" fill="#2E186A"/>
<path fill-rule="evenodd" clip-rule="evenodd" d="M95.9333 73.6219C96.137 73.5379 96.3622 73.6568 96.4364 73.8876C96.508 74.1101 96.4129 74.3553 96.2234 74.4479L96.202 74.4576L88.5879 77.6C88.3843 77.6841 88.159 77.5652 88.0848 77.3344C88.0133 77.1119 88.1084 76.8666 88.2978 76.774L88.3193 76.7644L95.9333 73.6219Z" fill="#2E186A"/>
<path fill-rule="evenodd" clip-rule="evenodd" d="M101.232 73.6219C101.435 73.5379 101.661 73.6568 101.735 73.8876C101.806 74.1101 101.711 74.3553 101.522 74.4479L101.5 74.4576L93.8863 77.6C93.6826 77.6841 93.4574 77.5652 93.3832 77.3344C93.3116 77.1119 93.4067 76.8666 93.5962 76.774L93.6176 76.7644L101.232 73.6219Z" fill="#2E186A"/>
<path fill-rule="evenodd" clip-rule="evenodd" d="M106.779 73.6219C106.982 73.5379 107.207 73.6568 107.282 73.8876C107.353 74.1101 107.258 74.3553 107.069 74.4479L107.047 74.4576L99.4332 77.6C99.2295 77.6841 99.0042 77.5652 98.9301 77.3344C98.8585 77.1119 98.9536 76.8666 99.1431 76.774L99.1645 76.7644L106.779 73.6219Z" fill="#2E186A"/>
<path fill-rule="evenodd" clip-rule="evenodd" d="M111.802 73.6219C112.006 73.5379 112.231 73.6568 112.306 73.8876C112.377 74.1101 112.282 74.3553 112.093 74.4479L112.071 74.4576L104.457 77.6C104.253 77.6841 104.028 77.5652 103.954 77.3344C103.882 77.1119 103.977 76.8666 104.167 76.774L104.188 76.7644L111.802 73.6219Z" fill="#2E186A"/>
<path fill-rule="evenodd" clip-rule="evenodd" d="M105.893 111.719H51.757C51.4168 111.719 51.1421 111.408 51.1421 111.023V109.6C51.1421 109.214 51.4168 108.903 51.757 108.903H105.893C106.233 108.903 106.507 109.214 106.507 109.6V111.023C106.507 111.408 106.233 111.719 105.893 111.719Z" fill="#FE7624"/>
<path fill-rule="evenodd" clip-rule="evenodd" d="M56.4148 108.948H93.3599C94.6289 108.948 95.6624 107.777 95.6624 106.339V92.85C95.6624 91.4122 94.6289 90.2412 93.3599 90.2412H56.4148C55.1458 90.2412 54.1123 91.4122 54.1123 92.85V106.339C54.1123 107.777 55.1458 108.948 56.4148 108.948Z" fill="#FEBA91"/>
<path fill-rule="evenodd" clip-rule="evenodd" d="M79.6102 90.2708V108.77H78.8252V90.2708H79.6102Z" fill="white"/>
<path fill-rule="evenodd" clip-rule="evenodd" d="M57.6051 104.99H65.5986C66.0826 104.99 66.462 104.545 66.462 104.012V100.751C66.462 100.202 66.0696 99.7722 65.5986 99.7722H57.6051C57.1211 99.7722 56.7417 100.217 56.7417 100.751V104.012C56.7417 104.545 57.1211 104.99 57.6051 104.99Z" fill="white"/>
<path fill-rule="evenodd" clip-rule="evenodd" d="M83.4431 137.748H40.3361C39.9306 137.748 39.6035 137.378 39.6035 136.918V135.347C39.6035 134.887 39.9306 134.517 40.3361 134.517H83.4431C83.8487 134.517 84.1757 134.887 84.1757 135.347V136.918C84.1888 137.378 83.8487 137.748 83.4431 137.748Z" fill="#FE7624"/>
<path fill-rule="evenodd" clip-rule="evenodd" d="M128.46 137.748H115.273C114.868 137.748 114.541 137.378 114.541 136.918V135.347C114.541 134.887 114.868 134.517 115.273 134.517H128.46C128.866 134.517 129.193 134.887 129.193 135.347V136.918C129.193 137.378 128.866 137.748 128.46 137.748Z" fill="#FE7624"/>
<path fill-rule="evenodd" clip-rule="evenodd" d="M110.288 95.918L108.235 90.2112C107.607 89.0254 108.548 87.9878 109.582 88.8772C109.974 89.2181 110.472 89.7073 110.943 90.5966C112.303 93.1461 115.312 98.4823 115.142 98.2748C114.972 98.0673 110.288 95.918 110.288 95.918Z" fill="white"/>
<path fill-rule="evenodd" clip-rule="evenodd" d="M107.873 90.3915L107.882 90.4087L109.925 96.086C109.962 96.1878 110.03 96.2703 110.117 96.3181L110.149 96.334L110.899 96.6801L111.466 96.9438C111.78 97.09 112.089 97.2351 112.388 97.3761L113.151 97.7381C113.548 97.9282 113.892 98.0953 114.171 98.2347L114.366 98.3327C114.517 98.4094 114.641 98.4742 114.735 98.526L114.806 98.5657C114.82 98.5737 114.833 98.5812 114.844 98.5881L114.892 98.6176L114.903 98.6282L114.923 98.6451C114.934 98.6542 114.946 98.6616 114.983 98.684L115.015 98.7006C115.073 98.7285 115.1 98.7247 115.284 98.6983L115.376 98.6229C115.502 98.5164 115.507 98.4922 115.537 98.3471L115.54 98.2714C115.541 98.2368 115.54 98.2261 115.534 98.1943L115.524 98.1498C115.52 98.1296 115.517 98.1239 115.511 98.1068C115.5 98.0737 115.486 98.0444 115.465 98.0008L115.422 97.9165C115.396 97.8668 115.364 97.8059 115.325 97.733L115.091 97.3027L112.462 92.5421C111.996 91.6956 111.627 91.0182 111.336 90.4737L111.279 90.3666C110.868 89.5909 110.439 89.0719 109.881 88.5773L109.819 88.5231C108.469 87.3613 107.067 88.7884 107.873 90.3915ZM109.345 89.2314L109.343 89.2302C109.839 89.661 110.208 90.0932 110.565 90.7488L110.856 91.2905C111.123 91.7859 111.445 92.3748 111.831 93.0778L114.135 97.2452L113.837 97.1007C113.678 97.0243 113.506 96.9419 113.319 96.853L112.869 96.6396C112.455 96.4437 112.018 96.239 111.576 96.0334L110.589 95.5764L108.598 90.0434C108.59 90.0224 108.581 90.002 108.571 89.9825C108.153 89.1936 108.674 88.6542 109.345 89.2314Z" fill="#2E186A"/>
<path fill-rule="evenodd" clip-rule="evenodd" d="M126.236 93.8874L115.391 96.5999L110.079 93.5316L102.989 91.0859C102.125 90.8042 101.484 92.0345 102.151 92.7312C102.505 93.0869 107.842 95.1176 107.842 95.1176L101.052 94.2579C100.359 94.169 99.9012 95.088 100.346 95.7106C100.791 96.3331 101.589 96.3776 102.662 96.6592C103.316 96.8223 107.515 97.3855 107.515 97.3855L101.523 97.8599C100.045 98.0526 100.084 100.454 102.91 100.054C104.375 99.8461 106.155 99.8609 107.397 99.4755L103.342 100.795C102.007 101.714 103.381 103.418 109.098 101.462C112.578 104.634 114.397 105.227 117.536 103.137C117.549 103.122 128.042 101.18 128.042 101.18L126.236 93.8874Z" fill="white"/>
<path fill-rule="evenodd" clip-rule="evenodd" d="M101.89 93.0636L101.9 93.0729C102.099 93.2605 102.84 93.5976 104.177 94.1448L104.395 94.2337L101.096 93.8161C100.052 93.6822 99.376 95.0601 100.041 95.9904C100.384 96.4704 100.802 96.6699 101.658 96.8751L102.132 96.9846C102.301 97.0237 102.437 97.057 102.573 97.0925L102.656 97.1117C102.788 97.1401 102.986 97.176 103.246 97.2187L103.491 97.2583L101.496 97.4163L101.478 97.4182C100.536 97.5409 99.9553 98.434 100.232 99.3267C100.511 100.223 101.5 100.684 102.898 100.503L103.044 100.483C102.158 101.171 102.321 102.253 103.465 102.633L103.506 102.647C104.601 102.991 106.464 102.795 108.928 101.983L109.013 101.954L109.074 102.009C112.628 105.195 114.568 105.594 117.64 103.583L117.675 103.56L118.906 103.327L123.66 102.443L128.105 101.619C128.336 101.576 128.483 101.315 128.419 101.06L126.614 93.7673L126.607 93.7425C126.543 93.5303 126.347 93.4042 126.152 93.4532L115.443 96.1313L110.257 93.1355C110.237 93.1237 110.216 93.1139 110.194 93.1063L103.103 90.6605C101.849 90.2515 100.932 92.0075 101.857 93.0276L101.89 93.0636ZM109.932 93.9454L115.212 96.9962L115.24 97.0105C115.314 97.0455 115.396 97.054 115.475 97.0342L125.958 94.4121L127.545 100.822L117.881 102.619L117.498 102.692L117.139 102.765C117.063 102.783 117.259 102.754 117.27 102.796L117.27 102.798L117.167 102.865C114.399 104.65 112.777 104.244 109.344 101.115C109.243 101.023 109.109 100.994 108.985 101.036L108.805 101.097C106.422 101.893 104.66 102.085 103.721 101.791L103.657 101.77L103.6 101.75C103.174 101.593 103.163 101.451 103.502 101.205L107.506 99.903C108.005 99.7404 107.795 98.8912 107.294 99.0467L107.227 99.0669C106.636 99.2423 106.001 99.3244 104.667 99.4337L104.145 99.4765C103.556 99.5261 103.233 99.5598 102.861 99.6124C101.758 99.7687 101.11 99.4742 100.973 99.0316L100.966 99.0081C100.886 98.7019 101.1 98.3779 101.534 98.3067L101.562 98.3025L107.542 97.8292C108.009 97.7923 108.034 97.0357 107.587 96.9482L107.506 96.9366L106.791 96.8391L106.214 96.7594C106.023 96.7328 105.833 96.7062 105.646 96.6797L104.68 96.541C103.659 96.3917 102.963 96.2792 102.746 96.225L102.587 96.1843C102.532 96.1707 102.475 96.157 102.415 96.1427L101.876 96.0182C101.15 95.8478 100.85 95.7098 100.651 95.4308C100.43 95.1216 100.659 94.6551 101.008 94.6999L107.799 95.5596C108.258 95.6178 108.408 94.8915 107.99 94.7054L107.959 94.6932L107.164 94.3874L106.632 94.1808C106.189 94.0077 105.749 93.8344 105.328 93.6658L104.683 93.4059C103.447 92.9025 102.546 92.5019 102.422 92.407L102.415 92.4013L102.417 92.4042C102.06 92.0318 102.406 91.3588 102.88 91.5132L109.932 93.9454ZM117.81 103.457C117.756 103.53 118.052 103.482 117.956 103.503L117.675 103.56L117.735 103.52C117.764 103.501 117.79 103.478 117.814 103.451L117.81 103.457Z" fill="#2E186A"/>
<path fill-rule="evenodd" clip-rule="evenodd" d="M133.68 69.3408L144.905 64.6272L150.635 95.3252C151.015 98.5417 149.157 101.536 146.37 102.233L117.458 106.857C116.608 106.931 115.849 106.279 115.679 105.331L115.666 95.2659C115.469 94.1838 116.15 93.1314 117.118 92.998L136.035 90.8783L133.68 69.3408Z" fill="#FE7624"/>
<path fill-rule="evenodd" clip-rule="evenodd" d="M126.697 91.7018C126.483 91.7442 126.28 91.5825 126.242 91.3406C126.206 91.1074 126.338 90.8847 126.538 90.831L126.561 90.8258L135.209 89.1063C135.222 89.1036 135.236 89.1017 135.25 89.1007L135.278 89.0996L135.323 89.0996L135.406 89.1012C135.437 89.1021 135.471 89.1034 135.508 89.1051C135.658 89.112 135.821 89.125 135.995 89.1456C136.48 89.203 136.964 89.3084 137.42 89.4752C138.706 89.9458 139.559 90.8208 139.696 92.1922C139.72 92.4362 139.565 92.6564 139.35 92.684C139.134 92.7115 138.94 92.536 138.916 92.292C138.82 91.33 138.201 90.6959 137.178 90.3216C136.78 90.1757 136.348 90.0815 135.914 90.0301C135.783 90.0147 135.659 90.004 135.544 89.9973L135.476 89.9937C135.433 89.9917 135.396 89.9905 135.363 89.9897L135.311 89.9889L126.697 91.7018Z" fill="#2E186A"/>
<path fill-rule="evenodd" clip-rule="evenodd" d="M133.219 72.7695C133.425 72.7358 133.618 72.8915 133.659 73.1206L133.663 73.1464L135.643 88.7503L135.656 88.7419C135.704 88.7114 135.754 88.6813 135.805 88.6517L135.882 88.6076C136.934 88.0187 138.042 87.8509 139.095 88.3836C139.635 88.6566 140.13 89.1069 140.57 89.7448C140.703 89.9383 140.673 90.2178 140.502 90.369C140.331 90.5203 140.085 90.486 139.951 90.2925C139.588 89.766 139.194 89.4078 138.775 89.1957C137.971 88.7891 137.092 88.9222 136.23 89.4049C136.053 89.5043 135.891 89.6107 135.75 89.7166L135.694 89.7589C135.677 89.7725 135.66 89.7856 135.645 89.7981L135.602 89.8335L135.586 89.8479C135.355 90.0562 135.014 89.9109 134.957 89.5889L134.953 89.5631L132.886 73.2729C132.855 73.0298 133.004 72.8044 133.219 72.7695Z" fill="#2E186A"/>
<path fill-rule="evenodd" clip-rule="evenodd" d="M142.668 119.442C142.354 119.398 142.04 119.383 141.713 119.412C138.9 119.65 136.846 122.688 137.539 125.949C137.709 126.75 138.05 127.491 138.521 128.113C139.423 129.284 140.666 129.922 141.987 129.937V132.916C141.987 135.51 143.845 137.63 146.148 137.63H153.16C155.449 137.63 157.32 135.525 157.32 132.916V121.28C157.32 120.272 156.601 119.457 155.711 119.457H142.668V119.442ZM140.378 126.868C139.855 126.364 139.541 125.653 139.489 124.882C139.384 123.281 140.457 121.873 141.87 121.754C141.909 121.754 141.948 121.754 141.987 121.754V127.58C141.399 127.565 140.836 127.313 140.378 126.868Z" fill="#5D21D1"/>
<path fill-rule="evenodd" clip-rule="evenodd" d="M150.085 131.271V131.908C150.085 132.175 149.889 132.397 149.654 132.397V132.397C149.418 132.397 149.222 132.175 149.222 131.908V131.241C148.79 131.167 148.385 131.004 148.032 130.767C147.809 130.618 147.718 130.307 147.835 130.04V130.025C147.966 129.729 148.28 129.625 148.529 129.788C148.934 130.055 149.405 130.218 149.745 130.218C150.112 130.218 150.347 130.07 150.347 129.773C150.347 128.854 147.927 129.403 147.927 127.565C147.927 126.764 148.424 126.216 149.222 126.053V125.445C149.222 125.178 149.418 124.956 149.654 124.956V124.956C149.889 124.956 150.085 125.178 150.085 125.445V126.023C150.439 126.068 150.792 126.172 151.106 126.32C151.368 126.438 151.472 126.794 151.354 127.076L151.341 127.105C151.224 127.387 150.936 127.491 150.687 127.372C150.308 127.194 149.915 127.076 149.654 127.076C149.353 127.076 149.144 127.194 149.144 127.446C149.144 128.35 151.564 127.832 151.564 129.714C151.577 130.633 150.949 131.167 150.085 131.271Z" fill="white"/>
<path fill-rule="evenodd" clip-rule="evenodd" d="M233.498 136.518C233.715 136.517 233.892 136.715 233.892 136.961C233.893 137.198 233.73 137.392 233.524 137.406L233.501 137.407L0.501441 138.445C0.284684 138.446 0.108277 138.247 0.107425 138.002C0.106603 137.765 0.269321 137.571 0.475297 137.556L0.498355 137.555L233.498 136.518Z" fill="#2E186A"/>
</svg>
