
<svg width="168" height="76" viewBox="0 0 168 76" fill="none" xmlns="http://www.w3.org/2000/svg">
<path fill-rule="evenodd" clip-rule="evenodd" d="M24.4552 75.6165H20.8682V24.7416C20.8682 24.1057 21.3763 23.5808 22.014 23.5808H23.3193C23.947 23.5808 24.4652 24.0956 24.4652 24.7416V75.6165H24.4552Z" fill="#6A6AF4"/>
<path fill-rule="evenodd" clip-rule="evenodd" d="M89.6794 66.7942V75.6165H86.0924V66.8245" fill="#6A6AF4"/>
<rect x="14.5809" y="29.1023" width="23.515" height="8.86272" fill="#F95C5E"/>
<path fill-rule="evenodd" clip-rule="evenodd" d="M26.727 29.1023H20.3501L14.5809 37.7026V37.9751H20.7785L26.727 29.1023Z" fill="white"/>
<path fill-rule="evenodd" clip-rule="evenodd" d="M33.9509 37.9751L37.9763 31.9691L37.9564 29.1023H33.5224L27.564 37.9751H33.9509Z" fill="white"/>
<rect x="14.5809" y="44.8191" width="23.4851" height="8.86272" fill="#F95C5E"/>
<path fill-rule="evenodd" clip-rule="evenodd" d="M26.727 44.8191H20.3501L14.5809 53.4194V53.6818H20.7785L26.727 44.8191Z" fill="white"/>
<path fill-rule="evenodd" clip-rule="evenodd" d="M33.9509 53.6818L38.0162 47.6152L37.9664 44.8191H33.5224L27.564 53.6818H33.9509Z" fill="white"/>
<path fill-rule="evenodd" clip-rule="evenodd" d="M145.737 0.767822H43.048C40.0864 0.767822 37.6874 3.20149 37.6874 6.19851V61.6258C37.6874 64.6262 40.0896 67.0565 43.048 67.0565H145.727C148.493 67.0565 150.729 64.7911 150.729 61.9892V5.83512C150.739 3.03875 148.498 0.767822 145.737 0.767822ZM43.048 1.37348H145.737C148.167 1.37348 150.14 3.37235 150.131 5.83396V61.9892C150.131 64.4566 148.162 66.4509 145.727 66.4509H43.048C40.4196 66.4509 38.2852 64.2915 38.2852 61.6258V6.19851C38.2852 3.53579 40.4167 1.37348 43.048 1.37348Z" fill="#6A6AF4"/>
<path fill-rule="evenodd" clip-rule="evenodd" d="M145.936 61.6259V5.88566C145.936 3.03909 143.664 1.08081 140.874 1.08081H145.348C148.148 1.08081 150.41 3.03909 150.41 5.88566V61.6259L150.111 64.1091L145.936 61.6259Z" fill="#6A6AF4"/>
<path fill-rule="evenodd" clip-rule="evenodd" d="M44.2337 5.84529C45.0316 5.84529 45.6785 5.18999 45.6785 4.38163C45.6785 3.57327 45.0316 2.91797 44.2337 2.91797C43.4358 2.91797 42.7889 3.57327 42.7889 4.38163C42.7889 5.18999 43.4358 5.84529 44.2337 5.84529Z" fill="#F95C5E"/>
<path fill-rule="evenodd" clip-rule="evenodd" d="M49.8634 5.84529C50.6613 5.84529 51.3081 5.18999 51.3081 4.38163C51.3081 3.57327 50.6613 2.91797 49.8634 2.91797C49.0654 2.91797 48.4186 3.57327 48.4186 4.38163C48.4186 5.18999 49.0654 5.84529 49.8634 5.84529Z" fill="#F95C5E"/>
<path fill-rule="evenodd" clip-rule="evenodd" d="M55.503 5.84529C56.3009 5.84529 56.9478 5.18999 56.9478 4.38163C56.9478 3.57327 56.3009 2.91797 55.503 2.91797C54.7051 2.91797 54.0582 3.57327 54.0582 4.38163C54.0582 5.18999 54.7051 5.84529 55.503 5.84529Z" fill="#F95C5E"/>
<path fill-rule="evenodd" clip-rule="evenodd" d="M111.83 7.41992C111.989 7.42003 112.119 7.54619 112.128 7.70516L112.128 7.72295L112.088 66.8851C112.088 67.0524 111.954 67.1879 111.789 67.1878C111.63 67.1876 111.5 67.0615 111.491 66.9025L111.491 66.8847L111.53 7.72254C111.531 7.5553 111.664 7.41981 111.83 7.41992Z" fill="#6A6AF4"/>
<path fill-rule="evenodd" clip-rule="evenodd" d="M145.936 7.46021C146.101 7.46021 146.235 7.59579 146.235 7.76303C146.235 7.9243 146.111 8.05613 145.954 8.06534L145.936 8.06586H38.0062C37.8411 8.06586 37.7073 7.93028 37.7073 7.76303C37.7073 7.60176 37.8317 7.46993 37.9886 7.46072L38.0062 7.46021H145.936Z" fill="#6A6AF4"/>
<path fill-rule="evenodd" clip-rule="evenodd" d="M124.115 23.2881H123.886C123.637 23.2881 123.447 23.0862 123.447 22.8439V22.1878C123.447 21.9354 123.647 21.7437 123.886 21.7437H124.115C124.364 21.7437 124.553 21.9455 124.553 22.1878V22.8439C124.553 23.0862 124.364 23.2881 124.115 23.2881Z" fill="#F95C5E"/>
<path fill-rule="evenodd" clip-rule="evenodd" d="M122.511 23.2879H115.825C115.546 23.2879 115.327 23.0658 115.327 22.7832V22.2381C115.327 21.9555 115.546 21.7334 115.825 21.7334H122.511C122.79 21.7334 123.009 21.9555 123.009 22.2381V22.7832C123.009 23.0557 122.79 23.2879 122.511 23.2879Z" fill="#6A6AF4"/>
<path fill-rule="evenodd" clip-rule="evenodd" d="M123.208 30.4852H115.825C115.546 30.4852 115.327 30.2631 115.327 29.9805V29.4354C115.327 29.1527 115.546 28.9307 115.825 28.9307H123.208C123.487 28.9307 123.706 29.1527 123.706 29.4354V29.9805C123.706 30.2631 123.487 30.4852 123.208 30.4852Z" fill="#6A6AF4"/>
<path fill-rule="evenodd" clip-rule="evenodd" d="M129.944 28.0928H117.937C117.658 28.0928 117.439 27.8708 117.439 27.5881V27.043C117.439 26.7604 117.658 26.5383 117.937 26.5383H129.944C130.223 26.5383 130.442 26.7604 130.442 27.043V27.5881C130.442 27.8607 130.223 28.0928 129.944 28.0928Z" fill="#F95C5E"/>
<path fill-rule="evenodd" clip-rule="evenodd" d="M127.851 19.6944H115.845C115.566 19.6944 115.347 19.4723 115.347 19.1897V18.6446C115.347 18.362 115.566 18.1399 115.845 18.1399H127.851C128.13 18.1399 128.35 18.362 128.35 18.6446V19.1897C128.35 19.4622 128.12 19.6944 127.851 19.6944Z" fill="#F95C5E"/>
<path fill-rule="evenodd" clip-rule="evenodd" d="M127.851 38.1668H115.845C115.566 38.1668 115.347 37.9447 115.347 37.6621V37.117C115.347 36.8344 115.566 36.6123 115.845 36.6123H127.851C128.13 36.6123 128.35 36.8344 128.35 37.117V37.6621C128.35 37.9447 128.12 38.1668 127.851 38.1668Z" fill="#F95C5E"/>
<path fill-rule="evenodd" clip-rule="evenodd" d="M137.696 28.0928H131.668C131.389 28.0928 131.169 27.8708 131.169 27.5881V27.043C131.169 26.7604 131.389 26.5383 131.668 26.5383H137.696C137.975 26.5383 138.194 26.7604 138.194 27.043V27.5881C138.194 27.8607 137.965 28.0928 137.696 28.0928Z" fill="#F95C5E"/>
<path fill-rule="evenodd" clip-rule="evenodd" d="M140.127 25.6904H139.898C139.649 25.6904 139.459 25.4885 139.459 25.2463V24.5901C139.459 24.3378 139.659 24.146 139.898 24.146H140.127C140.376 24.146 140.565 24.3479 140.565 24.5901V25.2463C140.565 25.4885 140.366 25.6904 140.127 25.6904Z" fill="#6A6AF4"/>
<path fill-rule="evenodd" clip-rule="evenodd" d="M128.27 25.6903H115.825C115.546 25.6903 115.327 25.4682 115.327 25.1855V24.6405C115.327 24.3578 115.546 24.1357 115.825 24.1357H128.27C128.549 24.1357 128.768 24.3578 128.768 24.6405V25.1855C128.768 25.4581 128.549 25.6903 128.27 25.6903Z" fill="#6A6AF4"/>
<path fill-rule="evenodd" clip-rule="evenodd" d="M132.236 23.2879H125.55C125.271 23.2879 125.052 23.0658 125.052 22.7832V22.2381C125.052 21.9555 125.271 21.7334 125.55 21.7334H132.236C132.515 21.7334 132.734 21.9555 132.734 22.2381V22.7832C132.734 23.0557 132.515 23.2879 132.236 23.2879Z" fill="#6A6AF4"/>
<path fill-rule="evenodd" clip-rule="evenodd" d="M138.353 25.6903H129.864C129.585 25.6903 129.366 25.4683 129.366 25.1856V24.6304C129.366 24.3478 129.585 24.1257 129.864 24.1257H138.353C138.632 24.1257 138.852 24.3478 138.852 24.6304V25.1856C138.852 25.4683 138.623 25.6903 138.353 25.6903Z" fill="#F95C5E"/>
<path fill-rule="evenodd" clip-rule="evenodd" d="M122.511 44.2637H115.825C115.546 44.2637 115.327 44.0417 115.327 43.759V43.2139C115.327 42.9313 115.546 42.7092 115.825 42.7092H122.511C122.79 42.7092 123.009 42.9313 123.009 43.2139V43.759C123.009 44.0417 122.79 44.2637 122.511 44.2637Z" fill="#6A6AF4"/>
<path fill-rule="evenodd" clip-rule="evenodd" d="M123.208 51.471H115.825C115.546 51.471 115.327 51.2489 115.327 50.9663V50.4212C115.327 50.1386 115.546 49.9165 115.825 49.9165H123.208C123.487 49.9165 123.706 50.1386 123.706 50.4212V50.9663C123.706 51.2388 123.487 51.471 123.208 51.471Z" fill="#6A6AF4"/>
<path fill-rule="evenodd" clip-rule="evenodd" d="M129.944 49.0687H117.937C117.658 49.0687 117.439 48.8466 117.439 48.564V48.0189C117.439 47.7362 117.658 47.5142 117.937 47.5142H129.944C130.223 47.5142 130.442 47.7362 130.442 48.0189V48.564C130.442 48.8466 130.223 49.0687 129.944 49.0687Z" fill="#F95C5E"/>
<path fill-rule="evenodd" clip-rule="evenodd" d="M137.696 49.0687H131.668C131.389 49.0687 131.169 48.8466 131.169 48.564V48.0189C131.169 47.7362 131.389 47.5142 131.668 47.5142H137.696C137.975 47.5142 138.194 47.7362 138.194 48.0189V48.564C138.194 48.8466 137.965 49.0687 137.696 49.0687Z" fill="#F95C5E"/>
<path fill-rule="evenodd" clip-rule="evenodd" d="M140.127 46.6763H139.898C139.649 46.6763 139.459 46.4744 139.459 46.2321V45.576C139.459 45.3236 139.659 45.1318 139.898 45.1318H140.127C140.376 45.1318 140.565 45.3337 140.565 45.576V46.2321C140.565 46.4744 140.366 46.6763 140.127 46.6763Z" fill="#6A6AF4"/>
<path fill-rule="evenodd" clip-rule="evenodd" d="M142.08 44.2637H141.851C141.602 44.2637 141.412 44.0618 141.412 43.8195V43.1634C141.412 42.911 141.612 42.7192 141.851 42.7192H142.08C142.329 42.7192 142.518 42.9211 142.518 43.1634V43.8195C142.518 44.0618 142.319 44.2637 142.08 44.2637Z" fill="#6A6AF4"/>
<path fill-rule="evenodd" clip-rule="evenodd" d="M128.27 46.6661H115.825C115.546 46.6661 115.327 46.444 115.327 46.1614V45.6163C115.327 45.3336 115.546 45.1116 115.825 45.1116H128.27C128.549 45.1116 128.768 45.3336 128.768 45.6163V46.1614C128.768 46.444 128.549 46.6661 128.27 46.6661Z" fill="#6A6AF4"/>
<path fill-rule="evenodd" clip-rule="evenodd" d="M132.236 44.2637H123.936C123.657 44.2637 123.437 44.0417 123.437 43.759V43.2139C123.437 42.9313 123.657 42.7092 123.936 42.7092H132.236C132.515 42.7092 132.734 42.9313 132.734 43.2139V43.759C132.734 44.0417 132.515 44.2637 132.236 44.2637Z" fill="#F95C5E"/>
<path fill-rule="evenodd" clip-rule="evenodd" d="M140.516 44.2637H133.83C133.551 44.2637 133.332 44.0417 133.332 43.759V43.2139C133.332 42.9313 133.551 42.7092 133.83 42.7092H140.516C140.795 42.7092 141.014 42.9313 141.014 43.2139V43.759C141.014 44.0417 140.795 44.2637 140.516 44.2637Z" fill="#F95C5E"/>
<path fill-rule="evenodd" clip-rule="evenodd" d="M124.115 41.9421H123.886C123.637 41.9421 123.447 41.7402 123.447 41.498V40.8419C123.447 40.5895 123.647 40.3977 123.886 40.3977H124.115C124.364 40.3977 124.553 40.5996 124.553 40.8419V41.498C124.553 41.7402 124.364 41.9421 124.115 41.9421Z" fill="#F95C5E"/>
<path fill-rule="evenodd" clip-rule="evenodd" d="M122.511 41.942H115.825C115.546 41.942 115.327 41.7199 115.327 41.4372V40.8922C115.327 40.6095 115.546 40.3875 115.825 40.3875H122.511C122.79 40.3875 123.009 40.6095 123.009 40.8922V41.4372C123.009 41.7098 122.79 41.942 122.511 41.942Z" fill="#6A6AF4"/>
<path fill-rule="evenodd" clip-rule="evenodd" d="M132.236 41.942H125.55C125.271 41.942 125.052 41.7199 125.052 41.4372V40.8922C125.052 40.6095 125.271 40.3875 125.55 40.3875H132.236C132.515 40.3875 132.734 40.6095 132.734 40.8922V41.4372C132.734 41.7098 132.515 41.942 132.236 41.942Z" fill="#6A6AF4"/>
<path fill-rule="evenodd" clip-rule="evenodd" d="M138.353 46.6762H129.864C129.585 46.6762 129.366 46.4541 129.366 46.1715V45.6163C129.366 45.3336 129.585 45.1116 129.864 45.1116H138.353C138.632 45.1116 138.852 45.3336 138.852 45.6163V46.1715C138.852 46.444 138.623 46.6762 138.353 46.6762Z" fill="#F95C5E"/>
<path fill-rule="evenodd" clip-rule="evenodd" d="M96.694 46.9185H85.0362C84.1866 46.9185 83.5017 47.6162 83.5017 48.473V60.5759C83.5017 61.4327 84.1866 62.1304 85.0362 62.1304H96.694C97.5436 62.1304 98.2285 61.4327 98.2285 60.5759V48.473C98.2285 47.6123 97.5398 46.9185 96.694 46.9185ZM85.0362 47.5241H96.694C97.2103 47.5241 97.6306 47.9476 97.6306 48.473V60.5759C97.6306 61.099 97.2127 61.5248 96.694 61.5248H85.0362C84.5175 61.5248 84.0996 61.099 84.0996 60.5759V48.473C84.0996 47.9499 84.5175 47.5241 85.0362 47.5241Z" fill="#6A6AF4"/>
<path fill-rule="evenodd" clip-rule="evenodd" d="M80.5324 48.917C80.6975 48.917 80.8314 49.0526 80.8314 49.2198C80.8314 49.3811 80.7069 49.5129 80.55 49.5221L80.5324 49.5226H71.3955C71.2304 49.5226 71.0966 49.3871 71.0966 49.2198C71.0966 49.0585 71.221 48.9267 71.3779 48.9175L71.3955 48.917H80.5324Z" fill="#6A6AF4"/>
<path fill-rule="evenodd" clip-rule="evenodd" d="M80.5922 52.9851C80.7573 52.9851 80.8911 53.1207 80.8911 53.2879C80.8911 53.4492 80.7667 53.581 80.6098 53.5902L80.5922 53.5908H53.9386C53.7735 53.5908 53.6396 53.4552 53.6396 53.2879C53.6396 53.1267 53.7641 52.9948 53.921 52.9856L53.9386 52.9851H80.5922Z" fill="#6A6AF4"/>
<path fill-rule="evenodd" clip-rule="evenodd" d="M80.5922 55.4077C80.7573 55.4077 80.8911 55.5433 80.8911 55.7105C80.8911 55.8718 80.7667 56.0036 80.6098 56.0129L80.5922 56.0134H53.9386C53.7735 56.0134 53.6396 55.8778 53.6396 55.7105C53.6396 55.5493 53.7641 55.4174 53.921 55.4082L53.9386 55.4077H80.5922Z" fill="#6A6AF4"/>
<path fill-rule="evenodd" clip-rule="evenodd" d="M80.5922 57.8303C80.7573 57.8303 80.8911 57.9659 80.8911 58.1331C80.8911 58.2944 80.7667 58.4262 80.6098 58.4355L80.5922 58.436H53.9386C53.7735 58.436 53.6396 58.3004 53.6396 58.1331C53.6396 57.9719 53.7641 57.84 53.921 57.8308L53.9386 57.8303H80.5922Z" fill="#6A6AF4"/>
<path fill-rule="evenodd" clip-rule="evenodd" d="M80.5922 60.3135C80.7573 60.3135 80.8911 60.4491 80.8911 60.6163C80.8911 60.7776 80.7667 60.9094 80.6098 60.9186L80.5922 60.9191H53.9386C53.7735 60.9191 53.6396 60.7835 53.6396 60.6163C53.6396 60.455 53.7641 60.3232 53.921 60.314L53.9386 60.3135H80.5922Z" fill="#6A6AF4"/>
<path fill-rule="evenodd" clip-rule="evenodd" d="M97.4083 47.3212C97.5245 47.2023 97.7137 47.2014 97.831 47.3191C97.9436 47.4321 97.9489 47.6133 97.8464 47.7328L97.833 47.7474L84.3518 61.5361C84.2356 61.6549 84.0463 61.6558 83.929 61.5381C83.8164 61.4251 83.8111 61.2439 83.9136 61.1245L83.927 61.1099L97.4083 47.3212Z" fill="#6A6AF4"/>
<path fill-rule="evenodd" clip-rule="evenodd" d="M66.832 27.7598H55.1741C54.3284 27.7598 53.6396 28.4536 53.6396 29.3143V41.4172C53.6396 42.274 54.3246 42.9717 55.1741 42.9717H66.832C67.6815 42.9717 68.3664 42.274 68.3664 41.4172V29.3143C68.3664 28.4575 67.6815 27.7598 66.832 27.7598ZM55.1741 28.3654H66.832C67.3506 28.3654 67.7686 28.7912 67.7686 29.3143V41.4172C67.7686 41.9403 67.3506 42.3661 66.832 42.3661H55.1741C54.6555 42.3661 54.2375 41.9403 54.2375 41.4172V29.3143C54.2375 28.7889 54.6578 28.3654 55.1741 28.3654Z" fill="#6A6AF4"/>
<path fill-rule="evenodd" clip-rule="evenodd" d="M80.4726 29.7583C80.6377 29.7583 80.7716 29.8939 80.7716 30.0611C80.7716 30.2224 80.6471 30.3542 80.4902 30.3634L80.4726 30.364H71.3357C71.1706 30.364 71.0367 30.2284 71.0367 30.0611C71.0367 29.8999 71.1612 29.768 71.3181 29.7588L71.3357 29.7583H80.4726Z" fill="#6A6AF4"/>
<path fill-rule="evenodd" clip-rule="evenodd" d="M97.9296 33.8264C98.0947 33.8264 98.2286 33.962 98.2286 34.1292C98.2286 34.2905 98.1041 34.4223 97.9472 34.4316L97.9296 34.4321H71.276C71.1109 34.4321 70.9771 34.2965 70.9771 34.1292C70.9771 33.968 71.1015 33.8361 71.2584 33.8269L71.276 33.8264H97.9296Z" fill="#6A6AF4"/>
<path fill-rule="evenodd" clip-rule="evenodd" d="M97.9296 36.249C98.0947 36.249 98.2286 36.3846 98.2286 36.5519C98.2286 36.7131 98.1041 36.845 97.9472 36.8542L97.9296 36.8547H71.276C71.1109 36.8547 70.9771 36.7191 70.9771 36.5519C70.9771 36.3906 71.1015 36.2587 71.2584 36.2495L71.276 36.249H97.9296Z" fill="#6A6AF4"/>
<path fill-rule="evenodd" clip-rule="evenodd" d="M97.9296 38.6716C98.0947 38.6716 98.2286 38.8072 98.2286 38.9745C98.2286 39.1357 98.1041 39.2676 97.9472 39.2768L97.9296 39.2773H71.276C71.1109 39.2773 70.9771 39.1417 70.9771 38.9745C70.9771 38.8132 71.1015 38.6814 71.2584 38.6721L71.276 38.6716H97.9296Z" fill="#6A6AF4"/>
<path fill-rule="evenodd" clip-rule="evenodd" d="M97.9296 41.0942C98.0947 41.0942 98.2286 41.2298 98.2286 41.3971C98.2286 41.5583 98.1041 41.6902 97.9472 41.6994L97.9296 41.6999H71.276C71.1109 41.6999 70.9771 41.5643 70.9771 41.3971C70.9771 41.2358 71.1015 41.104 71.2584 41.0948L71.276 41.0942H97.9296Z" fill="#6A6AF4"/>
<path fill-rule="evenodd" clip-rule="evenodd" d="M67.5064 28.1825C67.6225 28.0637 67.8118 28.0628 67.9291 28.1804C68.0417 28.2934 68.047 28.4747 67.9445 28.5941L67.9311 28.6087L54.4399 42.4075C54.3237 42.5263 54.1344 42.5272 54.0172 42.4095C53.9046 42.2966 53.8992 42.1153 54.0018 41.9959L54.0151 41.9813L67.5064 28.1825Z" fill="#6A6AF4"/>
<path fill-rule="evenodd" clip-rule="evenodd" d="M106.409 12.1643H42.6394C41.8167 12.1643 41.1548 12.8349 41.1548 13.6683V23.7424C41.1548 24.5758 41.8167 25.2464 42.6394 25.2464H106.409C107.232 25.2464 107.894 24.5758 107.894 23.7424V13.6683C107.894 12.8349 107.232 12.1643 106.409 12.1643ZM42.6394 12.77H106.409C106.901 12.77 107.296 13.1694 107.296 13.6683V23.7424C107.296 24.2413 106.901 24.6408 106.409 24.6408H42.6394C42.1469 24.6408 41.7526 24.2413 41.7526 23.7424V13.6683C41.7526 13.1694 42.1469 12.77 42.6394 12.77Z" fill="#6A6AF4"/>
<path fill-rule="evenodd" clip-rule="evenodd" d="M117.638 70.6097C118.057 70.6501 118.535 70.6904 119.043 70.7409C119.073 70.6299 119.103 70.5188 119.133 70.4078L119.183 61.434C119.183 60.8082 119.691 60.3035 120.309 60.3035L126.307 60.3338C129.286 58.2443 132.883 57.0128 136.749 57.033C146.733 57.0935 154.904 65.4414 154.884 75.5558L117.429 75.5256C116.273 75.5256 115.327 74.5666 115.337 73.3957V72.7093C115.357 71.4677 116.413 70.4986 117.638 70.6097Z" fill="#F95C5E"/>
<path fill-rule="evenodd" clip-rule="evenodd" d="M122.848 63.3998C122.96 63.2765 123.149 63.2681 123.271 63.381C123.392 63.494 123.401 63.6855 123.289 63.8089C121.75 65.5114 120.778 67.1262 120.259 68.6102C120.072 69.1469 119.956 69.6346 119.897 70.068C119.874 70.2418 119.861 70.3917 119.857 70.5165L119.855 70.5693L119.867 70.5738C122.752 71.6522 126.43 72.4595 130.717 73.0259L130.867 73.0456C134.214 73.4819 137.786 73.755 141.419 73.8946L141.706 73.9053C144.124 73.9935 146.279 74.0141 148.02 73.9946L148.455 73.9888L148.578 73.9866L148.611 73.716C148.62 73.6402 148.629 73.5649 148.638 73.4907L148.666 73.2721L148.698 73.0273L148.723 72.8544C148.757 72.6198 148.786 72.4488 148.811 72.3465L148.815 72.3309C149.169 70.9426 149.87 70.0166 150.817 69.4919C151.565 69.0771 152.341 68.9648 152.996 69.0169L153.052 69.0219C153.073 69.0241 153.09 69.0262 153.103 69.028C153.266 69.0517 153.38 69.2052 153.356 69.3707C153.334 69.5304 153.192 69.643 153.035 69.6295L152.988 69.6241C152.978 69.6231 152.965 69.6219 152.949 69.6207C152.4 69.577 151.735 69.6733 151.104 70.0231C150.317 70.4595 149.727 71.2285 149.409 72.4229L149.394 72.484C149.372 72.5654 149.341 72.7545 149.303 73.0185L149.283 73.1683C149.275 73.2267 149.267 73.2876 149.259 73.3508L149.231 73.5667C149.217 73.6767 149.204 73.7892 149.19 73.9024L149.143 74.3177C149.127 74.462 149.012 74.5736 148.871 74.5857L148.849 74.5869L148.597 74.5921C148.513 74.5936 148.421 74.5951 148.32 74.5966L147.927 74.6013C146.195 74.619 144.067 74.5974 141.684 74.5106C137.935 74.3739 134.246 74.0967 130.791 73.6463C126.297 73.0604 122.453 72.2131 119.456 71.0646C119.349 71.0238 119.275 70.9255 119.264 70.811L119.261 70.7716L119.26 70.758C119.251 70.5699 119.261 70.3106 119.305 69.986C119.369 69.5119 119.495 68.984 119.696 68.4081C120.242 66.8461 121.256 65.1613 122.848 63.3998Z" fill="#6A6AF4"/>
<path fill-rule="evenodd" clip-rule="evenodd" d="M62.3483 71.9321H59.678L50.1026 46.4038C49.5745 45.0007 47.9504 45.0209 47.4522 46.4442L38.4746 71.9321H35.874C35.336 71.9321 34.8876 72.4772 34.8876 73.1535V74.7686C34.8876 75.4449 35.326 75.99 35.874 75.99H62.3483C62.8864 75.99 63.3348 75.4449 63.3348 74.7686V73.1535C63.3248 72.4772 62.8864 71.9321 62.3483 71.9321Z" fill="#F95C5E"/>
<path fill-rule="evenodd" clip-rule="evenodd" d="M59.2296 71.6294C59.3946 71.6294 59.5285 71.765 59.5285 71.9322C59.5285 72.0935 59.404 72.2253 59.2471 72.2345L59.2296 72.235H38.8731C38.708 72.235 38.5742 72.0995 38.5742 71.9322C38.5742 71.7709 38.6987 71.6391 38.8556 71.6299L38.8731 71.6294H59.2296Z" fill="#6A6AF4"/>
<path fill-rule="evenodd" clip-rule="evenodd" d="M58.3029 68.1871H39.7998L41.2944 63.9172H56.7087L58.3029 68.1871Z" fill="white"/>
<path fill-rule="evenodd" clip-rule="evenodd" d="M43.0481 58.961H54.8156L53.2114 54.6912H44.5527L43.0481 58.961Z" fill="white"/>
<path fill-rule="evenodd" clip-rule="evenodd" d="M81.0805 73.7288H79.5959L74.2751 59.5464C73.9862 58.7692 73.0795 58.7793 72.8005 59.5666L67.8185 73.7288H66.3737C66.0748 73.7288 65.8257 74.0316 65.8257 74.4051V75.3035C65.8257 75.677 66.0748 75.9798 66.3737 75.9798H81.0805C81.3795 75.9798 81.6286 75.677 81.6286 75.3035V74.4051C81.6286 74.0316 81.3894 73.7288 81.0805 73.7288Z" fill="#F95C5E"/>
<path fill-rule="evenodd" clip-rule="evenodd" d="M79.3568 73.426C79.5219 73.426 79.6557 73.5616 79.6557 73.7289C79.6557 73.8901 79.5313 74.022 79.3744 74.0312L79.3568 74.0317H68.0477C67.8826 74.0317 67.7488 73.8961 67.7488 73.7289C67.7488 73.5676 67.8732 73.4358 68.0301 73.4265L68.0477 73.426H79.3568Z" fill="#6A6AF4"/>
<path fill-rule="evenodd" clip-rule="evenodd" d="M78.8385 71.6492H68.5657L69.3927 69.2771H77.9517L78.8385 71.6492Z" fill="white"/>
<path fill-rule="evenodd" clip-rule="evenodd" d="M70.3691 66.5316H76.9055L76.0088 64.1594H71.1962L70.3691 66.5316Z" fill="white"/>
<path fill-rule="evenodd" clip-rule="evenodd" d="M166.96 75.354C167.125 75.354 167.259 75.4896 167.259 75.6568C167.259 75.8181 167.135 75.9499 166.978 75.9591L166.96 75.9597H1.00998C0.84489 75.9597 0.71106 75.8241 0.71106 75.6568C0.71106 75.4956 0.835502 75.3637 0.992415 75.3545L1.00998 75.354H166.96Z" fill="#6A6AF4"/>
</svg>
