<svg width="40" height="40" viewBox="0 0 40 40" fill="none" xmlns="http://www.w3.org/2000/svg">
<path fill-rule="evenodd" clip-rule="evenodd" d="M7.5 7C7.2243 7 7 6.7757 7 6.5C7 6.22428 7.2243 6 7.5 6C7.7757 6 8 6.22428 8 6.5C8 6.7757 7.7757 7 7.5 7Z" fill="#ECECFE"/>
<path fill-rule="evenodd" clip-rule="evenodd" d="M2.5 35C2.2243 35 2 34.7757 2 34.5C2 34.2243 2.2243 34 2.5 34C2.7757 34 3 34.2243 3 34.5C3 34.7757 2.7757 35 2.5 35Z" fill="#ECECFE"/>
<path fill-rule="evenodd" clip-rule="evenodd" d="M37.5 32C37.2243 32 37 31.7757 37 31.5C37 31.2243 37.2243 31 37.5 31C37.7757 31 38 31.2243 38 31.5C38 31.7757 37.7757 32 37.5 32Z" fill="#ECECFE"/>
<path fill-rule="evenodd" clip-rule="evenodd" d="M29.5 6C29.2243 6 29 5.7757 29 5.5C29 5.22428 29.2243 5 29.5 5C29.7757 5 30 5.22428 30 5.5C30 5.7757 29.7757 6 29.5 6Z" fill="#ECECFE"/>
<path d="M7.00318 18.8011C7.04312 18.3392 7.45444 18 7.92857 18H9.5L9.55831 18.0034C9.80698 18.0322 10 18.2436 10 18.5L9.99664 18.5583C9.96775 18.807 9.75642 19 9.5 19H8V21H9.5L9.55831 21.0034C9.80698 21.0322 10 21.2436 10 21.5C10 21.7761 9.77614 22 9.5 22H7.92857L7.85428 21.9972C7.38761 21.9621 7 21.5992 7 21.125V18.875L7.00318 18.8011Z" fill="#E1000F"/>
<path d="M13.9968 18.8011C13.9569 18.3392 13.5456 18 13.0714 18H11.5L11.4417 18.0034C11.193 18.0322 11 18.2436 11 18.5L11.0034 18.5583C11.0322 18.807 11.2436 19 11.5 19H13V21H11.5L11.4417 21.0034C11.193 21.0322 11 21.2436 11 21.5C11 21.7761 11.2239 22 11.5 22H13.0714L13.1457 21.9972C13.6124 21.9621 14 21.5992 14 21.125V18.875L13.9968 18.8011Z" fill="#E1000F"/>
<path d="M32.0714 18C32.5456 18 32.9569 18.3392 32.9968 18.8011L33 18.875V21.125C33 21.5992 32.6124 21.9621 32.1457 21.9972L32.0714 22H30.5C30.2239 22 30 21.7761 30 21.5C30 21.2436 30.193 21.0322 30.4417 21.0034L30.5 21H32V19H30.5C30.2436 19 30.0322 18.807 30.0034 18.5583L30 18.5C30 18.2436 30.193 18.0322 30.4417 18.0034L30.5 18H32.0714Z" fill="#E1000F"/>
<path d="M26.0032 18.8011C26.0431 18.3392 26.4544 18 26.9286 18H28.5L28.5583 18.0034C28.807 18.0322 29 18.2436 29 18.5L28.9966 18.5583C28.9678 18.807 28.7564 19 28.5 19H27V21H28.5L28.5583 21.0034C28.807 21.0322 29 21.2436 29 21.5C29 21.7761 28.7761 22 28.5 22H26.9286L26.8543 21.9972C26.3876 21.9621 26 21.5992 26 21.125V18.875L26.0032 18.8011Z" fill="#E1000F"/>
<path fill-rule="evenodd" clip-rule="evenodd" d="M7 24C6.44772 24 6 24.4477 6 25V28C6 28.5523 6.44772 29 7 29H9C9.55228 29 10 28.5523 10 28V25C10 24.4477 9.55228 24 9 24H7ZM9 28V25H7V28H9Z" fill="#E1000F"/>
<path fill-rule="evenodd" clip-rule="evenodd" d="M12 24C11.4477 24 11 24.4477 11 25V28C11 28.5523 11.4477 29 12 29H14C14.5523 29 15 28.5523 15 28V25C15 24.4477 14.5523 24 14 24H12ZM14 28V25H12V28H14Z" fill="#E1000F"/>
<path fill-rule="evenodd" clip-rule="evenodd" d="M26 24C25.4477 24 25 24.4477 25 25V28C25 28.5523 25.4477 29 26 29H28C28.5523 29 29 28.5523 29 28V25C29 24.4477 28.5523 24 28 24H26ZM28 28V25H26V28H28Z" fill="#E1000F"/>
<path fill-rule="evenodd" clip-rule="evenodd" d="M31 24C30.4477 24 30 24.4477 30 25V28C30 28.5523 30.4477 29 31 29H33C33.5523 29 34 28.5523 34 28V25C34 24.4477 33.5523 24 33 24H31ZM33 28V25H31V28H33Z" fill="#E1000F"/>
<path d="M17.8536 6.14645C17.6583 5.95118 17.3417 5.95118 17.1464 6.14645L10.1464 13.1464L10.1049 13.1936C9.95234 13.3897 9.9662 13.6733 10.1464 13.8536C10.3417 14.0488 10.6583 14.0488 10.8536 13.8536L17.8536 6.85355L17.8951 6.80645C18.0477 6.6103 18.0338 6.32669 17.8536 6.14645Z" fill="#000091"/>
<path d="M20.2924 7.09438C20.1009 6.95596 19.8338 6.9698 19.6573 7.1359L14.3091 12.1695L14.2661 12.2154C14.1077 12.4068 14.113 12.6907 14.2877 12.8763L14.3335 12.9193C14.5249 13.0777 14.8088 13.0724 14.9944 12.8977L19.9995 8.1865L28.0129 15.7282L28.0769 15.7835C28.253 15.9232 28.4719 16 28.6983 16H33.5L33.5583 15.9966C33.807 15.9678 34 15.7564 34 15.5C34 15.2239 33.7761 15 33.5 15H28.6983L20.3427 7.1359L20.2924 7.09438Z" fill="#000091"/>
<path d="M35.5 15C35.2436 15 35.0322 15.193 35.0034 15.4417L35 15.5V32H30.5C30.2436 32 30.0322 32.193 30.0034 32.4417L30 32.5C30 32.7564 30.193 32.9678 30.4417 32.9966L30.5 33H35.5C35.7564 33 35.9678 32.807 35.9966 32.5583L36 32.5V15.5C36 15.2239 35.7761 15 35.5 15Z" fill="#000091"/>
<path d="M10.5 32C10.7761 32 11 32.2239 11 32.5C11 32.7564 10.807 32.9678 10.5583 32.9966L10.5 33H6.5C6.22386 33 6 32.7761 6 32.5C6 32.2436 6.19302 32.0322 6.44169 32.0034L6.5 32H10.5Z" fill="#000091"/>
<path d="M5 32.5C5 32.7761 4.77614 33 4.5 33C4.22386 33 4 32.7761 4 32.5C4 32.2239 4.22386 32 4.5 32C4.77614 32 5 32.2239 5 32.5Z" fill="#000091"/>
<path fill-rule="evenodd" clip-rule="evenodd" d="M26 30.5C26 30.2239 25.7761 30 25.5 30H24V22.5L23.9966 22.4417C23.9678 22.193 23.7564 22 23.5 22H16.5L16.4417 22.0034C16.193 22.0322 16 22.2436 16 22.5V30H14.5L14.4417 30.0034C14.193 30.0322 14 30.2436 14 30.5C14 30.7761 14.2239 31 14.5 31H25.5L25.5583 30.9966C25.807 30.9678 26 30.7564 26 30.5ZM20.5 25.5V30H23V22.9995H17V30H19.5V25.5C19.5 25.2239 19.7239 25 20 25C20.2564 25 20.4678 25.193 20.4966 25.4417L20.5 25.5Z" fill="#000091"/>
<path d="M20.5 15C20.7761 15 21 15.2239 21 15.5C21 15.7564 20.807 15.9678 20.5583 15.9966L20.5 16H19.5C19.2436 16 19.0322 15.807 19.0034 15.5583C19.0011 15.5392 19 15.5197 19 15.5V14.5C19 14.2239 19.2239 14 19.5 14C19.7564 14 19.9678 14.193 19.9966 14.4417L20 14.5V15H20.5Z" fill="#000091"/>
<path fill-rule="evenodd" clip-rule="evenodd" d="M17 15C17 13.3431 18.3431 12 20 12C21.6569 12 23 13.3431 23 15C23 16.6569 21.6569 18 20 18C18.3431 18 17 16.6569 17 15ZM20 13C21.1046 13 22 13.8954 22 15C22 16.1046 21.1046 17 20 17C18.8954 17 18 16.1046 18 15C18 13.8954 18.8954 13 20 13Z" fill="#000091"/>
<path d="M23 20.5C23 20.2239 22.7761 20 22.5 20H17.5L17.4417 20.0034C17.193 20.0322 17 20.2436 17 20.5C17 20.7761 17.2239 21 17.5 21H22.5L22.5583 20.9966C22.807 20.9678 23 20.7564 23 20.5Z" fill="#000091"/>
<path d="M28 32.5C28 32.2239 27.7761 32 27.5 32H12.5L12.4417 32.0034C12.193 32.0322 12 32.2436 12 32.5C12 32.7761 12.2239 33 12.5 33H27.5L27.5583 32.9966C27.807 32.9678 28 32.7564 28 32.5Z" fill="#000091"/>
<path d="M12.1464 14.1464C12.3417 13.9512 12.6583 13.9512 12.8536 14.1464C13.0338 14.3267 13.0477 14.6103 12.8951 14.8064L12.8536 14.8536L11.8536 15.8536C11.7754 15.9317 11.6741 15.9813 11.5657 15.9957L11.5 16H5V30.5C5 30.7564 4.80698 30.9678 4.55831 30.9966L4.5 31C4.24358 31 4.03225 30.807 4.00336 30.5583L4 30.5V15.5C4 15.2436 4.19302 15.0322 4.44169 15.0034L4.5 15H11.292L12.1464 14.1464Z" fill="#000091"/>
<path d="M33.5 13C33.7761 13 34 13.2239 34 13.5C34 13.7564 33.807 13.9678 33.5583 13.9966L33.5 14H29.5C29.2239 14 29 13.7761 29 13.5C29 13.2436 29.193 13.0322 29.4417 13.0034L29.5 13H33.5Z" fill="#000091"/>
<path d="M35.5 14C35.7761 14 36 13.7761 36 13.5C36 13.2239 35.7761 13 35.5 13C35.2239 13 35 13.2239 35 13.5C35 13.7761 35.2239 14 35.5 14Z" fill="#000091"/>
</svg>
