<svg width="80" height="81" viewBox="0 0 80 81" fill="none" xmlns="http://www.w3.org/2000/svg">
<path fill-rule="evenodd" clip-rule="evenodd" d="M15 14.3103C14.4486 14.3103 14 13.8617 14 13.3103C14 12.7589 14.4486 12.3103 15 12.3103C15.5514 12.3103 16 12.7589 16 13.3103C16 13.8617 15.5514 14.3103 15 14.3103Z" fill="#CACAFB"/>
<path fill-rule="evenodd" clip-rule="evenodd" d="M5 70.3103C4.4486 70.3103 4 69.8617 4 69.3103C4 68.7589 4.4486 68.3103 5 68.3103C5.5514 68.3103 6 68.7589 6 69.3103C6 69.8617 5.5514 70.3103 5 70.3103Z" fill="#CACAFB"/>
<path fill-rule="evenodd" clip-rule="evenodd" d="M75 64.3103C74.4486 64.3103 74 63.8617 74 63.3103C74 62.7589 74.4486 62.3103 75 62.3103C75.5514 62.3103 76 62.7589 76 63.3103C76 63.8617 75.5514 64.3103 75 64.3103Z" fill="#CACAFB"/>
<path fill-rule="evenodd" clip-rule="evenodd" d="M59 12.3103C58.4486 12.3103 58 11.8617 58 11.3103C58 10.7589 58.4486 10.3103 59 10.3103C59.5514 10.3103 60 10.7589 60 11.3103C60 11.8617 59.5514 12.3103 59 12.3103Z" fill="#CACAFB"/>
<path d="M14.0064 37.9125C14.0862 36.9886 14.9089 36.3103 15.8571 36.3103H19L19.1166 36.317C19.614 36.3748 20 36.7975 20 37.3103L19.9933 37.4269C19.9355 37.9243 19.5128 38.3103 19 38.3103H16V42.3103H19L19.1166 42.317C19.614 42.3748 20 42.7975 20 43.3103C20 43.8626 19.5523 44.3103 19 44.3103H15.8571L15.7086 44.3047C14.7752 44.2345 14 43.5088 14 42.5603V38.0603L14.0064 37.9125Z" fill="#E1000F"/>
<path d="M27.9936 37.9125C27.9138 36.9886 27.0911 36.3103 26.1429 36.3103H23L22.8834 36.317C22.386 36.3748 22 36.7975 22 37.3103L22.0067 37.4269C22.0645 37.9243 22.4872 38.3103 23 38.3103H26V42.3103H23L22.8834 42.317C22.386 42.3748 22 42.7975 22 43.3103C22 43.8626 22.4477 44.3103 23 44.3103H26.1429L26.2914 44.3047C27.2248 44.2345 28 43.5088 28 42.5603V38.0603L27.9936 37.9125Z" fill="#E1000F"/>
<path d="M64.1429 36.3103C65.0911 36.3103 65.9138 36.9886 65.9936 37.9125L66 38.0603V42.5603C66 43.5088 65.2248 44.2345 64.2915 44.3047L64.1429 44.3103H61C60.4477 44.3103 60 43.8626 60 43.3103C60 42.7975 60.386 42.3748 60.8834 42.317L61 42.3103H64V38.3103H61C60.4872 38.3103 60.0645 37.9243 60.0067 37.4269L60 37.3103C60 36.7975 60.386 36.3748 60.8834 36.317L61 36.3103H64.1429Z" fill="#E1000F"/>
<path d="M52.0064 37.9125C52.0862 36.9886 52.9089 36.3103 53.8571 36.3103H57L57.1166 36.317C57.614 36.3748 58 36.7975 58 37.3103L57.9933 37.4269C57.9355 37.9243 57.5128 38.3103 57 38.3103H54V42.3103H57L57.1166 42.317C57.614 42.3748 58 42.7975 58 43.3103C58 43.8626 57.5523 44.3103 57 44.3103H53.8571L53.7085 44.3047C52.7752 44.2345 52 43.5088 52 42.5603V38.0603L52.0064 37.9125Z" fill="#E1000F"/>
<path fill-rule="evenodd" clip-rule="evenodd" d="M14 48.3103C12.8954 48.3103 12 49.2057 12 50.3103V56.3103C12 57.4149 12.8954 58.3103 14 58.3103H18C19.1046 58.3103 20 57.4149 20 56.3103V50.3103C20 49.2057 19.1046 48.3103 18 48.3103H14ZM18 56.3103V50.3103H14V56.3103H18Z" fill="#E1000F"/>
<path fill-rule="evenodd" clip-rule="evenodd" d="M24 48.3103C22.8954 48.3103 22 49.2057 22 50.3103V56.3103C22 57.4149 22.8954 58.3103 24 58.3103H28C29.1046 58.3103 30 57.4149 30 56.3103V50.3103C30 49.2057 29.1046 48.3103 28 48.3103H24ZM28 56.3103V50.3103H24V56.3103H28Z" fill="#E1000F"/>
<path fill-rule="evenodd" clip-rule="evenodd" d="M52 48.3103C50.8954 48.3103 50 49.2057 50 50.3103V56.3103C50 57.4149 50.8954 58.3103 52 58.3103H56C57.1046 58.3103 58 57.4149 58 56.3103V50.3103C58 49.2057 57.1046 48.3103 56 48.3103H52ZM56 56.3103V50.3103H52V56.3103H56Z" fill="#E1000F"/>
<path fill-rule="evenodd" clip-rule="evenodd" d="M62 48.3103C60.8954 48.3103 60 49.2057 60 50.3103V56.3103C60 57.4149 60.8954 58.3103 62 58.3103H66C67.1046 58.3103 68 57.4149 68 56.3103V50.3103C68 49.2057 67.1046 48.3103 66 48.3103H62ZM66 56.3103V50.3103H62V56.3103H66Z" fill="#E1000F"/>
<path d="M35.7071 12.6032C35.3166 12.2127 34.6834 12.2127 34.2929 12.6032L20.2929 26.6032L20.2097 26.6974C19.9047 27.0897 19.9324 27.6569 20.2929 28.0174C20.6834 28.4079 21.3166 28.4079 21.7071 28.0174L35.7071 14.0174L35.7903 13.9232C36.0953 13.5309 36.0676 12.9637 35.7071 12.6032Z" fill="#000091"/>
<path d="M40.5849 14.4991C40.2017 14.2222 39.6676 14.2499 39.3146 14.5821L28.6182 24.6494L28.5322 24.741C28.2154 25.1239 28.2259 25.6917 28.5753 26.0629L28.667 26.1489C29.0498 26.4657 29.6176 26.4552 29.9889 26.1058L39.999 16.6833L56.0258 31.7667L56.1538 31.8773C56.506 32.1567 56.9437 32.3103 57.3966 32.3103H67L67.1166 32.3036C67.614 32.2458 68 31.8231 68 31.3103C68 30.758 67.5523 30.3103 67 30.3103H57.3966L40.6854 14.5821L40.5849 14.4991Z" fill="#000091"/>
<path d="M71 30.3103C70.4872 30.3103 70.0645 30.6963 70.0067 31.1937L70 31.3103V64.3103H61C60.4872 64.3103 60.0645 64.6963 60.0067 65.1937L60 65.3103C60 65.8231 60.386 66.2458 60.8834 66.3036L61 66.3103H71C71.5128 66.3103 71.9355 65.9243 71.9933 65.4269L72 65.3103V31.3103C72 30.758 71.5523 30.3103 71 30.3103Z" fill="#000091"/>
<path d="M21 64.3103C21.5523 64.3103 22 64.758 22 65.3103C22 65.8231 21.614 66.2458 21.1166 66.3036L21 66.3103H13C12.4477 66.3103 12 65.8626 12 65.3103C12 64.7975 12.386 64.3748 12.8834 64.317L13 64.3103H21Z" fill="#000091"/>
<path d="M10 65.3103C10 65.8626 9.55228 66.3103 9 66.3103C8.44772 66.3103 8 65.8626 8 65.3103C8 64.758 8.44772 64.3103 9 64.3103C9.55228 64.3103 10 64.758 10 65.3103Z" fill="#000091"/>
<path fill-rule="evenodd" clip-rule="evenodd" d="M52 61.3103C52 60.758 51.5523 60.3103 51 60.3103H48V45.3103L47.9933 45.1937C47.9355 44.6963 47.5128 44.3103 47 44.3103H33L32.8834 44.317C32.386 44.3748 32 44.7975 32 45.3103V60.3103H29L28.8834 60.317C28.386 60.3748 28 60.7975 28 61.3103C28 61.8626 28.4477 62.3103 29 62.3103H51L51.1166 62.3036C51.614 62.2458 52 61.8231 52 61.3103ZM41 51.3103V60.3103H46V46.3093H34V60.3103H39V51.3103C39 50.758 39.4477 50.3103 40 50.3103C40.5128 50.3103 40.9355 50.6963 40.9933 51.1937L41 51.3103Z" fill="#000091"/>
<path d="M41 30.3103C41.5523 30.3103 42 30.758 42 31.3103C42 31.8231 41.614 32.2458 41.1166 32.3036L41 32.3103H39C38.4872 32.3103 38.0645 31.9243 38.0067 31.4269C38.0023 31.3887 38 31.3497 38 31.3103V29.3103C38 28.758 38.4477 28.3103 39 28.3103C39.5128 28.3103 39.9355 28.6963 39.9933 29.1937L40 29.3103V30.3103H41Z" fill="#000091"/>
<path fill-rule="evenodd" clip-rule="evenodd" d="M34 30.3103C34 26.9966 36.6863 24.3103 40 24.3103C43.3137 24.3103 46 26.9966 46 30.3103C46 33.624 43.3137 36.3103 40 36.3103C36.6863 36.3103 34 33.624 34 30.3103ZM40 26.3103C42.2091 26.3103 44 28.1012 44 30.3103C44 32.5194 42.2091 34.3103 40 34.3103C37.7909 34.3103 36 32.5194 36 30.3103C36 28.1012 37.7909 26.3103 40 26.3103Z" fill="#000091"/>
<path d="M46 41.3103C46 40.758 45.5523 40.3103 45 40.3103H35L34.8834 40.317C34.386 40.3748 34 40.7975 34 41.3103C34 41.8626 34.4477 42.3103 35 42.3103H45L45.1166 42.3036C45.614 42.2458 46 41.8231 46 41.3103Z" fill="#000091"/>
<path d="M56 65.3103C56 64.758 55.5523 64.3103 55 64.3103H25L24.8834 64.317C24.386 64.3748 24 64.7975 24 65.3103C24 65.8626 24.4477 66.3103 25 66.3103H55L55.1166 66.3036C55.614 66.2458 56 65.8231 56 65.3103Z" fill="#000091"/>
<path d="M24.2929 28.6032C24.6834 28.2127 25.3166 28.2127 25.7071 28.6032C26.0676 28.9637 26.0953 29.5309 25.7903 29.9232L25.7071 30.0174L23.7071 32.0174C23.5508 32.1737 23.3481 32.2729 23.1314 32.3016L23 32.3103H10V61.3103C10 61.8231 9.61396 62.2458 9.11662 62.3036L9 62.3103C8.48716 62.3103 8.06449 61.9243 8.00673 61.4269L8 61.3103V31.3103C8 30.7975 8.38604 30.3748 8.88338 30.317L9 30.3103H22.584L24.2929 28.6032Z" fill="#000091"/>
<path d="M67 26.3103C67.5523 26.3103 68 26.758 68 27.3103C68 27.8231 67.614 28.2458 67.1166 28.3036L67 28.3103H59C58.4477 28.3103 58 27.8626 58 27.3103C58 26.7975 58.386 26.3748 58.8834 26.317L59 26.3103H67Z" fill="#000091"/>
<path d="M71 28.3103C71.5523 28.3103 72 27.8626 72 27.3103C72 26.758 71.5523 26.3103 71 26.3103C70.4477 26.3103 70 26.758 70 27.3103C70 27.8626 70.4477 28.3103 71 28.3103Z" fill="#000091"/>
</svg>
