
<svg width="291" height="202" viewBox="0 0 291 202" fill="none" xmlns="http://www.w3.org/2000/svg">
<path fill-rule="evenodd" clip-rule="evenodd" d="M63.621 121.889H28.6511C26.569 121.889 24.8906 120.212 24.8906 118.132V105.715C24.8906 103.635 26.569 101.958 28.6511 101.958H63.621C65.7031 101.958 67.3815 103.635 67.3815 105.715V118.132C67.3815 120.212 65.7031 121.889 63.621 121.889Z" fill="#FCBFB7"/>
<path fill-rule="evenodd" clip-rule="evenodd" d="M61.1559 106.203C61.5079 106.203 61.7933 106.488 61.7933 106.84C61.7933 107.179 61.5279 107.456 61.1933 107.476L61.1559 107.477H32.2409C31.8889 107.477 31.6035 107.192 31.6035 106.84C31.6035 106.501 31.8689 106.224 32.2034 106.204L32.2409 106.203H61.1559Z" fill="#000091"/>
<path fill-rule="evenodd" clip-rule="evenodd" d="M54.931 109.408C55.283 109.408 55.5684 109.693 55.5684 110.045C55.5684 110.384 55.303 110.661 54.9684 110.681L54.931 110.682H32.2409C31.8889 110.682 31.6035 110.397 31.6035 110.045C31.6035 109.706 31.8689 109.429 32.2034 109.409L32.2409 109.408H54.931Z" fill="#000091"/>
<path fill-rule="evenodd" clip-rule="evenodd" d="M61.1559 112.974C61.5079 112.974 61.7933 113.259 61.7933 113.611C61.7933 113.95 61.5279 114.227 61.1933 114.247L61.1559 114.248H32.2409C31.8889 114.248 31.6035 113.963 31.6035 113.611C31.6035 113.272 31.8689 112.995 32.2034 112.975L32.2409 112.974H61.1559Z" fill="#000091"/>
<path fill-rule="evenodd" clip-rule="evenodd" d="M54.931 116.179C55.283 116.179 55.5684 116.464 55.5684 116.816C55.5684 117.155 55.303 117.432 54.9684 117.451L54.931 117.453H32.2409C31.8889 117.453 31.6035 117.167 31.6035 116.816C31.6035 116.477 31.8689 116.2 32.2034 116.18L32.2409 116.179H54.931Z" fill="#000091"/>
<path fill-rule="evenodd" clip-rule="evenodd" d="M26.1654 109.09C28.6881 109.09 30.7332 107.047 30.7332 104.527C30.7332 102.006 28.6881 99.9633 26.1654 99.9633C23.6427 99.9633 21.5977 102.006 21.5977 104.527C21.5977 107.047 23.6427 109.09 26.1654 109.09Z" fill="#6A6AF4"/>
<path fill-rule="evenodd" clip-rule="evenodd" d="M235.496 170.027H57.8422C55.2715 170.027 53.1895 168.095 53.1895 165.697V77.2102H240.128V165.676C240.128 168.074 238.046 170.027 235.496 170.027Z" fill="white"/>
<path fill-rule="evenodd" clip-rule="evenodd" d="M240.127 76.5734H53.1881C52.8361 76.5734 52.5508 76.8585 52.5508 77.2102V165.697C52.5508 168.455 54.9258 170.663 57.8409 170.663H235.495C238.389 170.663 240.764 168.434 240.764 165.676V77.2102C240.764 76.8585 240.479 76.5734 240.127 76.5734ZM53.8255 77.8469H239.489V165.676C239.489 167.712 237.702 169.39 235.495 169.39H57.8409L57.7667 169.389C55.5707 169.353 53.8255 167.708 53.8255 165.697V77.8469Z" fill="#000091"/>
<path fill-rule="evenodd" clip-rule="evenodd" d="M52.6578 78.7596L52.4453 56.813C52.4453 54.075 54.5486 51.8676 57.1193 51.8676L236.154 51.6342C238.746 51.6342 240.828 53.8628 240.828 56.5796V78.7596H52.6578Z" fill="#6A6AF4"/>
<path fill-rule="evenodd" clip-rule="evenodd" d="M149.134 55.0089C150.69 55.0089 151.965 56.1868 152.001 57.6817L152.002 57.7469V66.0883C152.002 66.44 151.717 66.7251 151.365 66.7251C151.025 66.7251 150.748 66.46 150.729 66.1257L150.727 66.0883V57.7469C150.727 56.9589 150.054 56.3094 149.188 56.2832L149.134 56.2824H132.69C132.338 56.2824 132.053 55.9973 132.053 55.6457C132.053 55.3066 132.318 55.0294 132.653 55.01L132.69 55.0089H149.134Z" fill="white"/>
<path fill-rule="evenodd" clip-rule="evenodd" d="M132.753 55.0302C134.576 55.0302 136.348 55.9834 137.491 57.5148L137.506 57.5347L137.519 57.5552L143.217 66.5553H240.849V67.8288H142.866C142.662 67.8288 142.471 67.7313 142.351 67.5683L142.327 67.5324L136.456 58.258L136.415 58.2037C135.522 57.051 134.187 56.3334 132.837 56.3045L132.753 56.3036H94.4898C93.0987 56.3036 91.7442 57.02 90.8283 58.2032L90.7865 58.2578L84.9156 67.5324C84.8071 67.7038 84.624 67.8125 84.4232 67.8271L84.3799 67.8288L52.5118 67.9773L52.5059 66.7039L84.0247 66.557L89.7299 57.5449L89.7511 57.5148C90.8796 56.0036 92.5913 55.0635 94.3932 55.031L94.4898 55.0302H132.753Z" fill="white"/>
<path fill-rule="evenodd" clip-rule="evenodd" d="M60.2414 62.3952C61.8137 62.3952 63.0883 61.1218 63.0883 59.551C63.0883 57.9803 61.8137 56.7069 60.2414 56.7069C58.6691 56.7069 57.3945 57.9803 57.3945 59.551C57.3945 61.1218 58.6691 62.3952 60.2414 62.3952Z" fill="white"/>
<path fill-rule="evenodd" clip-rule="evenodd" d="M69.6106 62.3952C71.1828 62.3952 72.4574 61.1218 72.4574 59.551C72.4574 57.9803 71.1828 56.7069 69.6106 56.7069C68.0383 56.7069 66.7637 57.9803 66.7637 59.551C66.7637 61.1218 68.0383 62.3952 69.6106 62.3952Z" fill="white"/>
<path fill-rule="evenodd" clip-rule="evenodd" d="M79.0012 62.3952C80.5735 62.3952 81.8481 61.1218 81.8481 59.551C81.8481 57.9803 80.5735 56.7069 79.0012 56.7069C77.4289 56.7069 76.1543 57.9803 76.1543 59.551C76.1543 61.1218 77.4289 62.3952 79.0012 62.3952Z" fill="white"/>
<path fill-rule="evenodd" clip-rule="evenodd" d="M129.213 60.5343C129.435 60.279 129.816 60.2431 130.081 60.4458L130.112 60.4712L132.704 62.7211C132.97 62.9517 132.998 63.3539 132.767 63.6193C132.545 63.8746 132.164 63.9105 131.899 63.7079L131.868 63.6824L129.276 61.4325C129.01 61.2019 128.982 60.7997 129.213 60.5343Z" fill="white"/>
<path fill-rule="evenodd" clip-rule="evenodd" d="M131.897 60.4853C132.167 60.2593 132.569 60.2945 132.795 60.5639C133.013 60.823 132.989 61.2043 132.747 61.4342L132.717 61.461L130.082 63.6684C129.812 63.8944 129.41 63.8591 129.184 63.5897C128.967 63.3306 128.991 62.9493 129.233 62.7195L129.263 62.6926L131.897 60.4853Z" fill="white"/>
<path fill-rule="evenodd" clip-rule="evenodd" d="M144.974 59.0416C145.313 59.044 145.589 59.3109 145.606 59.6453L145.606 59.6827L145.585 62.7816C145.583 63.1332 145.296 63.4164 144.944 63.4139C144.604 63.4116 144.328 63.1446 144.311 62.8103L144.311 62.7729L144.332 59.674C144.334 59.3224 144.622 59.0392 144.974 59.0416Z" fill="white"/>
<path fill-rule="evenodd" clip-rule="evenodd" d="M146.52 60.5911C146.872 60.5911 147.158 60.8761 147.158 61.2278C147.158 61.5669 146.892 61.8441 146.558 61.8635L146.52 61.8646H143.397C143.045 61.8646 142.76 61.5795 142.76 61.2278C142.76 60.8887 143.025 60.6115 143.36 60.5921L143.397 60.5911H146.52Z" fill="white"/>
<path fill-rule="evenodd" clip-rule="evenodd" d="M185.483 120.212H102.605C100.565 120.212 98.9082 118.556 98.9082 116.519V105.949C98.9082 103.911 100.565 102.256 102.605 102.256H185.483C187.523 102.256 189.18 103.911 189.18 105.949V116.54C189.159 118.556 187.523 120.212 185.483 120.212Z" fill="#6A6AF4"/>
<path fill-rule="evenodd" clip-rule="evenodd" d="M185.931 124.754H102.5C100.385 124.754 98.6758 126.461 98.6758 128.575V132.926C98.6758 135.039 100.385 136.746 102.5 136.746H185.931C188.046 136.746 189.755 135.039 189.755 132.926V128.575C189.755 126.461 188.046 124.754 185.931 124.754ZM102.5 126.028H185.931C187.342 126.028 188.48 127.165 188.48 128.575V132.926C188.48 134.336 187.342 135.473 185.931 135.473H102.5C101.089 135.473 99.9505 134.336 99.9505 132.926V128.575C99.9505 127.165 101.089 126.028 102.5 126.028Z" fill="#000091"/>
<path fill-rule="evenodd" clip-rule="evenodd" d="M126.698 132.586H108.257C107.535 132.586 106.961 132.013 106.961 131.291V130.081C106.961 129.36 107.535 128.787 108.257 128.787H126.698C127.42 128.787 127.994 129.36 127.994 130.081V131.291C127.994 132.013 127.399 132.586 126.698 132.586Z" fill="#F95C5E"/>
<path fill-rule="evenodd" clip-rule="evenodd" d="M184.762 132.586H173.97C173.247 132.586 172.674 132.013 172.674 131.291V130.081C172.674 129.36 173.247 128.787 173.97 128.787H184.762C185.485 128.787 186.058 129.36 186.058 130.081V131.291C186.058 132.013 185.485 132.586 184.762 132.586Z" fill="#F95C5E"/>
<path fill-rule="evenodd" clip-rule="evenodd" d="M167.872 132.586H132.478C131.755 132.586 131.182 132.013 131.182 131.291V130.081C131.182 129.36 131.755 128.787 132.478 128.787H167.872C168.595 128.787 169.168 129.36 169.168 130.081V131.291C169.168 132.013 168.595 132.586 167.872 132.586Z" fill="#F95C5E"/>
<path fill-rule="evenodd" clip-rule="evenodd" d="M233.265 70.4819C233.617 70.4819 233.903 70.767 233.903 71.1186C233.903 71.4577 233.637 71.7349 233.303 71.7543L233.265 71.7554H229.696C229.344 71.7554 229.059 71.4703 229.059 71.1186C229.059 70.7795 229.324 70.5023 229.659 70.483L229.696 70.4819H233.265Z" fill="white"/>
<path fill-rule="evenodd" clip-rule="evenodd" d="M233.265 72.4558C233.617 72.4558 233.903 72.7409 233.903 73.0926C233.903 73.4317 233.637 73.7089 233.303 73.7282L233.265 73.7293H229.696C229.344 73.7293 229.059 73.4442 229.059 73.0926C229.059 72.7535 229.324 72.4763 229.659 72.4569L229.696 72.4558H233.265Z" fill="white"/>
<path fill-rule="evenodd" clip-rule="evenodd" d="M233.265 74.4297C233.617 74.4297 233.903 74.7148 233.903 75.0664C233.903 75.4055 233.637 75.6827 233.303 75.7021L233.265 75.7032H229.696C229.344 75.7032 229.059 75.4181 229.059 75.0664C229.059 74.7273 229.324 74.4501 229.659 74.4308L229.696 74.4297H233.265Z" fill="white"/>
<path fill-rule="evenodd" clip-rule="evenodd" d="M223.407 71.9464C223.322 71.6705 223.088 71.4795 222.791 71.4795H221.325L220.879 70.0998C220.794 69.8451 220.539 69.6541 220.262 69.6541C219.986 69.6541 219.731 69.8239 219.646 70.0998L219.2 71.4795H217.734C217.458 71.4795 217.203 71.6493 217.118 71.9252C217.033 72.1799 217.118 72.477 217.352 72.6468L218.542 73.4958L218.095 74.8754C218.01 75.1301 218.095 75.4273 218.329 75.5971C218.435 75.682 218.563 75.7244 218.712 75.7244C218.86 75.7244 218.966 75.682 219.094 75.5971L220.305 74.7056L221.495 75.3848C221.728 75.5122 222.005 75.491 222.217 75.3212C222.429 75.1514 222.493 74.8754 222.429 74.6207L222.005 73.2836L223.109 72.6468C223.364 72.5195 223.492 72.2223 223.407 71.9464Z" fill="white"/>
<path fill-rule="evenodd" clip-rule="evenodd" d="M211.022 75.5759H85.3338C84.7389 75.5759 84.2715 75.1089 84.2715 74.5146V72.5195C84.2715 71.9252 84.7389 71.4583 85.3338 71.4583H211.022C211.617 71.4583 212.084 71.9252 212.084 72.5195V74.5146C212.084 75.1089 211.617 75.5759 211.022 75.5759Z" fill="white"/>
<path fill-rule="evenodd" clip-rule="evenodd" d="M63.3171 70.8409C63.5763 70.6029 63.9795 70.6198 64.2177 70.8788C64.4468 71.1277 64.4399 71.5097 64.2086 71.7503L64.1798 71.7785L62.5887 73.2394L64.2631 74.7659C64.5131 74.9939 64.5397 75.375 64.3305 75.6349L64.3042 75.6655C64.0761 75.9153 63.6946 75.9419 63.4344 75.7328L63.4038 75.7066L61.2155 73.7115C60.9495 73.4689 60.9389 73.0571 61.1844 72.8012L61.2139 72.7723L63.3171 70.8409Z" fill="white"/>
<path fill-rule="evenodd" clip-rule="evenodd" d="M66.9778 72.6469C67.3298 72.6469 67.6151 72.9319 67.6151 73.2836C67.6151 73.6227 67.3498 73.8999 67.0152 73.9193L66.9778 73.9203H61.6452C61.2932 73.9203 61.0078 73.6353 61.0078 73.2836C61.0078 72.9445 61.2732 72.6673 61.6077 72.6479L61.6452 72.6469H66.9778Z" fill="white"/>
<path fill-rule="evenodd" clip-rule="evenodd" d="M73.7961 70.8788C74.0251 70.6298 74.4067 70.6046 74.6661 70.8145L74.6966 70.8409L76.7999 72.7723C77.0651 73.0159 77.0742 73.4276 76.8278 73.6827L76.7983 73.7115L74.61 75.7066C74.35 75.9437 73.9468 75.9253 73.7096 75.6655C73.4814 75.4157 73.4896 75.0338 73.7218 74.794L73.7507 74.7659L75.4249 73.2394L73.834 71.7785C73.5848 71.5496 73.5595 71.1684 73.7697 70.9092L73.7961 70.8788Z" fill="white"/>
<path fill-rule="evenodd" clip-rule="evenodd" d="M76.3684 72.6469C76.7204 72.6469 77.0058 72.9319 77.0058 73.2836C77.0058 73.6227 76.7404 73.8999 76.4058 73.9193L76.3684 73.9203H71.0358C70.6838 73.9203 70.3984 73.6353 70.3984 73.2836C70.3984 72.9445 70.6638 72.6673 70.9983 72.6479L71.0358 72.6469H76.3684Z" fill="white"/>
<path fill-rule="evenodd" clip-rule="evenodd" d="M227.669 60.0402C227.739 59.6955 228.075 59.4727 228.42 59.5425C228.753 59.6098 228.972 59.9247 228.925 60.2561L228.919 60.293L228.717 61.2856L229.786 61.4014C230.123 61.4379 230.371 61.7313 230.354 62.0657L230.351 62.103C230.314 62.4402 230.021 62.6872 229.686 62.6704L229.649 62.6674L227.885 62.4764C227.525 62.4374 227.272 62.1073 227.323 61.7536L227.329 61.717L227.669 60.0402Z" fill="white"/>
<path fill-rule="evenodd" clip-rule="evenodd" d="M230.171 59.4818C230.456 59.275 230.854 59.3379 231.061 59.6223C231.261 59.8957 231.21 60.2744 230.953 60.487L230.921 60.5117L228.35 62.3795C228.065 62.5864 227.667 62.5235 227.46 62.2391C227.261 61.9656 227.311 61.5869 227.569 61.3743L227.6 61.3496L230.171 59.4818Z" fill="white"/>
<path fill-rule="evenodd" clip-rule="evenodd" d="M232.461 56.6782C232.499 56.3412 232.794 56.0954 233.128 56.1135L233.166 56.1166L234.865 56.3076C235.223 56.3478 235.473 56.6737 235.426 57.0246L235.42 57.0623L235.08 58.8028C235.012 59.1479 234.678 59.3731 234.332 59.3058C233.999 59.2408 233.777 58.9276 233.822 58.5958L233.829 58.5589L234.036 57.4958L233.023 57.3821C232.686 57.3442 232.44 57.0498 232.458 56.7155L232.461 56.6782Z" fill="white"/>
<path fill-rule="evenodd" clip-rule="evenodd" d="M234.441 56.4467C234.725 56.2398 235.124 56.3027 235.331 56.5871C235.53 56.8606 235.48 57.2393 235.222 57.4519L235.19 57.4766L232.62 59.3444C232.335 59.5512 231.936 59.4883 231.729 59.2039C231.53 58.9305 231.581 58.5518 231.838 58.3392L231.87 58.3145L234.441 56.4467Z" fill="white"/>
<path fill-rule="evenodd" clip-rule="evenodd" d="M207.644 184.12H157.632C155.295 184.12 153.383 182.21 153.383 179.875V158.183C153.383 155.848 155.295 153.938 157.632 153.938H207.644C209.981 153.938 211.893 155.848 211.893 158.183V179.875C211.893 182.231 209.981 184.12 207.644 184.12Z" fill="#FCBFB7"/>
<path fill-rule="evenodd" clip-rule="evenodd" d="M167.682 172.637C171.026 172.637 173.737 169.929 173.737 166.588C173.737 163.247 171.026 160.539 167.682 160.539C164.338 160.539 161.627 163.247 161.627 166.588C161.627 169.929 164.338 172.637 167.682 172.637Z" fill="#F95C5E"/>
<path fill-rule="evenodd" clip-rule="evenodd" d="M201.567 176.288H194.004C193.239 176.288 192.623 175.673 192.623 174.908V174.144C192.623 173.38 193.239 172.765 194.004 172.765H201.567C202.332 172.765 202.948 173.38 202.948 174.144V174.908C202.948 175.673 202.332 176.288 201.567 176.288Z" fill="#F95C5E"/>
<path fill-rule="evenodd" clip-rule="evenodd" d="M154.679 159.987C157.202 159.987 159.247 157.944 159.247 155.424C159.247 152.904 157.202 150.861 154.679 150.861C152.156 150.861 150.111 152.904 150.111 155.424C150.111 157.944 152.156 159.987 154.679 159.987Z" fill="#6A6AF4"/>
<path fill-rule="evenodd" clip-rule="evenodd" d="M177.688 165.654L202.353 165.718L177.688 165.654Z" fill="white"/>
<path fill-rule="evenodd" clip-rule="evenodd" d="M177.69 165.018L202.356 165.081C202.708 165.082 202.992 165.368 202.991 165.72C202.991 166.059 202.725 166.335 202.39 166.354L202.352 166.355L177.686 166.291C177.334 166.29 177.05 166.004 177.051 165.653C177.052 165.314 177.318 165.037 177.652 165.019L177.69 165.018Z" fill="#000091"/>
<path fill-rule="evenodd" clip-rule="evenodd" d="M177.965 168.753L202.61 168.838L177.965 168.753Z" fill="white"/>
<path fill-rule="evenodd" clip-rule="evenodd" d="M177.966 168.117L202.61 168.201C202.962 168.203 203.247 168.489 203.246 168.84C203.244 169.179 202.978 169.456 202.643 169.474L202.606 169.475L177.961 169.39C177.609 169.389 177.325 169.103 177.326 168.751C177.327 168.412 177.594 168.136 177.928 168.117L177.966 168.117Z" fill="#000091"/>
<path fill-rule="evenodd" clip-rule="evenodd" d="M258.207 136.491L214.187 136.364C211.637 136.364 209.577 134.284 209.598 131.737L209.704 95.2937C209.704 92.7467 211.786 90.6879 214.336 90.7091L258.356 90.8365C260.906 90.8365 262.966 92.9165 262.945 95.4635L262.839 131.907C262.818 134.432 260.757 136.491 258.207 136.491Z" fill="#F95C5E"/>
<path fill-rule="evenodd" clip-rule="evenodd" d="M253.597 125.242L244.143 125.221C243.484 125.221 242.953 124.69 242.953 124.032L242.974 114.439C242.974 113.781 243.506 113.25 244.164 113.25L253.618 113.271C254.277 113.271 254.808 113.802 254.808 114.46L254.787 124.053C254.787 124.711 254.256 125.242 253.597 125.242Z" fill="#FCBFB7"/>
<path fill-rule="evenodd" clip-rule="evenodd" d="M251.792 109.132L221.05 109.048C220.052 109.048 219.266 108.241 219.266 107.243L219.287 102.404C219.287 101.407 220.094 100.621 221.093 100.621L251.835 100.706C252.833 100.706 253.619 101.513 253.619 102.51L253.598 107.35C253.577 108.347 252.77 109.132 251.792 109.132Z" fill="#FCBFB7"/>
<path fill-rule="evenodd" clip-rule="evenodd" d="M219.692 123.523L239.132 123.587C239.484 123.588 239.768 123.874 239.767 124.225C239.766 124.565 239.5 124.841 239.165 124.859L239.128 124.86L219.688 124.796C219.336 124.795 219.052 124.509 219.053 124.158C219.054 123.819 219.32 123.542 219.655 123.524L219.692 123.523Z" fill="white"/>
<path fill-rule="evenodd" clip-rule="evenodd" d="M219.692 118.45L239.132 118.514C239.484 118.515 239.768 118.801 239.767 119.153C239.766 119.492 239.5 119.768 239.165 119.786L239.128 119.787L219.688 119.724C219.336 119.723 219.052 119.437 219.053 119.085C219.054 118.746 219.32 118.469 219.655 118.451L219.692 118.45Z" fill="white"/>
<path fill-rule="evenodd" clip-rule="evenodd" d="M219.714 113.377L239.153 113.441C239.505 113.442 239.79 113.728 239.788 114.08C239.787 114.419 239.521 114.695 239.186 114.714L239.149 114.715L219.709 114.651C219.357 114.65 219.073 114.364 219.074 114.012C219.075 113.673 219.342 113.397 219.676 113.378L219.714 113.377Z" fill="white"/>
<path fill-rule="evenodd" clip-rule="evenodd" d="M211.808 96.6309C214.331 96.6309 216.376 94.5878 216.376 92.0676C216.376 89.5473 214.331 87.5042 211.808 87.5042C209.285 87.5042 207.24 89.5473 207.24 92.0676C207.24 94.5878 209.285 96.6309 211.808 96.6309Z" fill="#6A6AF4"/>
<path fill-rule="evenodd" clip-rule="evenodd" d="M60.4132 163.001H6.91728C5.15391 163.001 3.73047 161.579 3.73047 159.818V145.321C3.73047 143.559 5.15391 142.137 6.91728 142.137H60.4132C62.1766 142.137 63.6001 143.559 63.6001 145.321V159.818C63.6001 161.558 62.1766 163.001 60.4132 163.001Z" fill="#F95C5E"/>
<path fill-rule="evenodd" clip-rule="evenodd" d="M54.6354 149.523C54.9874 149.523 55.2727 149.809 55.2727 150.16C55.2727 150.499 55.0074 150.776 54.6728 150.796L54.6354 150.797H11.7409C11.3889 150.797 11.1035 150.512 11.1035 150.16C11.1035 149.821 11.3689 149.544 11.7034 149.525L11.7409 149.523H54.6354Z" fill="white"/>
<path fill-rule="evenodd" clip-rule="evenodd" d="M49.6215 154.129C49.9735 154.129 50.2588 154.414 50.2588 154.766C50.2588 155.105 49.9935 155.382 49.6589 155.402L49.6215 155.403H11.7409C11.3889 155.403 11.1035 155.118 11.1035 154.766C11.1035 154.427 11.3689 154.15 11.7034 154.13L11.7409 154.129H49.6215Z" fill="white"/>
<path fill-rule="evenodd" clip-rule="evenodd" d="M5.1537 147.486C7.67641 147.486 9.72147 145.443 9.72147 142.922C9.72147 140.402 7.67641 138.359 5.1537 138.359C2.631 138.359 0.585938 140.402 0.585938 142.922C0.585938 145.443 2.631 147.486 5.1537 147.486Z" fill="#6A6AF4"/>
<path fill-rule="evenodd" clip-rule="evenodd" d="M175.414 39.5784C173.439 16.0612 152.746 -1.38573 129.206 0.588184C105.666 2.5621 88.202 23.2352 90.1778 46.7524C91.3676 60.8882 99.3133 72.8166 110.573 79.6722L106.494 86.3156C109.724 88.8839 112.401 91.919 113.866 93.7231L115.099 94.933C115.099 92.9378 115.439 83.514 121.239 82.7499C123.193 82.4952 124.255 83.4291 124.787 85.1483C128.526 85.8487 132.392 86.0822 136.365 85.7426C159.927 83.7687 177.412 63.0956 175.414 39.5784ZM135.579 76.1701C117.351 77.6983 101.31 64.1781 99.7807 45.9671C98.2511 27.7561 111.784 11.7313 130.013 10.1818C148.242 8.65365 164.282 22.1739 165.833 40.3849C167.384 58.5959 153.829 74.6419 135.579 76.1701Z" fill="#F95C5E"/>
<path fill-rule="evenodd" clip-rule="evenodd" d="M115.119 95.315C115.119 95.315 114.758 83.5989 121.259 82.7711C127.76 81.9221 124.51 94.1476 123.873 105.036C123.235 115.903 122.067 124.075 122.279 130.93C122.492 137.786 131.733 200.845 131.733 200.845L89.5612 200.994L90.0286 140.779C90.0286 140.779 71.1414 127.259 71.8 107.647C73.096 91.8129 84.2711 84.4903 93.9803 82.0494C103.689 79.5874 115.119 95.315 115.119 95.315Z" fill="white"/>
<path fill-rule="evenodd" clip-rule="evenodd" d="M93.8245 81.4323C88.3186 82.8164 83.2196 85.4927 79.2883 89.3727C74.6317 93.9685 71.7831 100.054 71.1658 107.595L71.164 107.625C70.8659 116.505 74.3813 124.798 80.4109 132.265C82.4298 134.765 84.5919 136.99 86.7548 138.916C87.5127 139.59 88.217 140.179 88.8502 140.68L88.9324 140.745C89.0676 140.851 89.1931 140.948 89.3084 141.036L89.3897 141.097L88.9249 200.989C88.9221 201.343 89.2097 201.632 89.5645 201.631L131.737 201.482C132.112 201.481 132.402 201.158 132.369 200.79L132.346 200.625L131.026 191.541L130.334 186.743C129.458 180.657 128.59 174.567 127.766 168.713L127.315 165.498C124.634 146.336 123.004 133.725 122.917 130.911C122.85 128.757 122.916 126.388 123.106 123.427L123.164 122.561C123.233 121.562 123.315 120.492 123.421 119.196L123.896 113.55C124.147 110.516 124.33 108.055 124.481 105.557L124.51 105.073C124.561 104.202 124.631 103.286 124.72 102.291L124.781 101.635C124.875 100.654 124.981 99.6443 125.145 98.159L125.33 96.452C125.909 91.0537 126.018 89.1197 125.794 86.9179C125.448 83.5018 123.999 81.7713 121.178 82.1397C118.104 82.5311 116.206 85.0321 115.218 88.8612C114.883 90.1618 114.673 91.5468 114.563 92.946L114.553 93.083L114.534 93.3509L114.524 93.5126L114.273 93.2055C114.162 93.0703 114.047 92.9325 113.929 92.7921C112.583 91.1888 111.092 89.5855 109.495 88.0873C105.572 84.4065 101.668 81.9549 97.9604 81.3139C96.5263 81.0659 95.1437 81.0977 93.8245 81.4323ZM97.743 82.5687C101.151 83.158 104.865 85.49 108.622 89.0156C110.179 90.4764 111.637 92.0436 112.953 93.6106L113.179 93.8814C113.511 94.2825 113.815 94.66 114.087 95.0085L114.278 95.2555C114.343 95.3404 114.403 95.4192 114.458 95.4916L114.605 95.6891C114.966 96.1865 115.746 95.9325 115.758 95.3319L115.756 95.2197C115.747 94.6717 115.766 93.9224 115.834 93.0452C115.938 91.7147 116.137 90.4009 116.452 89.1789C117.324 85.7985 118.908 83.7125 121.341 83.4027C123.29 83.1482 124.222 84.2337 124.516 86.9541L124.54 87.1835C124.741 89.3063 124.606 91.3263 123.982 97.0619L123.726 99.4112C123.623 100.376 123.546 101.139 123.474 101.924L123.429 102.427C123.356 103.256 123.297 104.032 123.251 104.777L123.194 105.721C123.061 107.886 122.903 110.039 122.696 112.582L122.211 118.36C122.07 120.063 121.967 121.385 121.883 122.61L121.834 123.347C121.641 126.345 121.575 128.751 121.643 130.95C121.727 133.663 123.168 144.936 125.579 162.28L126.293 167.39L126.634 169.816C127.419 175.387 128.242 181.158 129.072 186.924L130.539 197.068L130.997 200.211L90.2045 200.355L90.667 140.784C90.6686 140.577 90.5693 140.382 90.4009 140.261L90.2076 140.118L90.0132 139.971C89.9219 139.901 89.8242 139.825 89.7202 139.743L89.6411 139.681C89.027 139.196 88.3416 138.622 87.6027 137.965C85.4894 136.084 83.3753 133.907 81.403 131.465L81.2281 131.247C75.5397 124.128 72.2218 116.275 72.4306 107.924L72.4376 107.684L72.4363 107.699C73.0287 100.461 75.7442 94.6607 80.1841 90.2787C83.9435 86.5685 88.8396 83.9986 94.1368 82.6669C95.2767 82.3779 96.4793 82.3502 97.743 82.5687Z" fill="#000091"/>
<path fill-rule="evenodd" clip-rule="evenodd" d="M69.6548 140.248C68.7625 141.691 70.0585 144.111 72.5655 145.661L73.8614 146.467C76.3684 148.016 79.1091 148.101 80.0014 146.658L90.8365 128.808L81.2336 121.528L69.6548 140.248Z" fill="#F95C5E"/>
<path fill-rule="evenodd" clip-rule="evenodd" d="M85.8052 110.573C85.9359 110.246 86.3068 110.087 86.6337 110.218C96.8115 114.285 108.706 124.526 107.884 128.532C107.11 132.308 103.146 133.721 97.6076 132.55C95.7613 132.152 92.914 130.633 89.2788 128.245L89.131 128.148C88.4007 127.666 87.647 127.155 86.8739 126.617C85.1565 125.424 83.4144 124.153 81.7233 122.876L81.2634 122.528C80.8355 122.203 80.4317 121.893 80.0558 121.602L79.4363 121.12L78.8609 120.667C78.5858 120.448 78.5407 120.047 78.7603 119.772C78.9715 119.508 79.3504 119.456 79.6238 119.648L79.6824 119.693L80.2221 120.117L80.8365 120.595C81.2096 120.884 81.6103 121.191 82.0352 121.514C83.8558 122.898 85.7446 124.281 87.6017 125.572C88.2711 126.037 88.9253 126.482 89.5616 126.905L89.8332 127.085C93.4064 129.441 96.2134 130.947 97.874 131.305C102.807 132.348 106.037 131.196 106.636 128.277C106.907 126.956 104.52 123.779 100.539 120.352C96.2729 116.679 90.9452 113.312 86.1602 111.4C85.8334 111.27 85.6744 110.899 85.8052 110.573Z" fill="#000091"/>
<path fill-rule="evenodd" clip-rule="evenodd" d="M88.7509 99.4827C88.8937 99.1756 89.2505 99.0359 89.5618 99.1583L89.6068 99.1779L89.8793 99.3075L90.2449 99.4854C90.3754 99.5496 90.5145 99.6186 90.6619 99.6924L91.0029 99.8644C91.7527 100.245 92.5717 100.677 93.4445 101.157C96.3219 102.739 99.1996 104.518 101.888 106.457C105.075 108.755 107.781 111.126 109.858 113.544L109.991 113.7L110.08 113.799C113.194 117.281 114.413 121.395 113.575 124.551L113.549 124.647C112.641 127.884 109.761 129.119 106.619 127.277C106.315 127.099 106.214 126.709 106.392 126.406C106.57 126.102 106.96 126.001 107.264 126.179C109.673 127.591 111.636 126.75 112.322 124.304C113.085 121.582 112.002 117.862 109.133 114.652L109.025 114.531C107.006 112.145 104.324 109.784 101.142 107.49C98.4995 105.584 95.6648 103.831 92.8299 102.272L92.4368 102.057C91.6585 101.635 90.9278 101.253 90.257 100.914L89.8803 100.726C89.7443 100.659 89.6167 100.596 89.4978 100.538L89.0604 100.328C88.7411 100.18 88.6026 99.8017 88.7509 99.4827Z" fill="#000091"/>
<path fill-rule="evenodd" clip-rule="evenodd" d="M90.3369 90.1126C90.44 89.7895 90.777 89.6059 91.1017 89.6889L91.1613 89.7068L91.3919 89.7838L91.6302 89.8661C91.8258 89.9345 92.0422 90.0124 92.2783 90.0998L92.6422 90.2363C93.4422 90.54 94.3158 90.8959 95.2466 91.3049C98.3147 92.6528 101.383 94.2977 104.25 96.2511C108.747 99.3147 112.324 102.85 114.634 106.885C116.683 110.464 117.55 113.387 117.406 115.731C117.288 117.646 116.505 119.079 115.281 120.069C114.814 120.447 114.315 120.732 113.815 120.939C113.51 121.066 113.266 121.14 113.112 121.173C112.768 121.249 112.428 121.031 112.353 120.687C112.281 120.356 112.481 120.029 112.803 119.938L112.888 119.917C112.906 119.912 112.928 119.906 112.955 119.898C113.065 119.864 113.19 119.82 113.326 119.763C113.719 119.6 114.113 119.375 114.479 119.079C115.434 118.307 116.038 117.2 116.134 115.653C116.261 113.588 115.463 110.898 113.527 107.517C111.325 103.67 107.881 100.266 103.532 97.3032C100.735 95.3977 97.7343 93.789 94.7335 92.4706C93.7534 92.04 92.8391 91.6699 92.0114 91.3596L91.8353 91.294C91.5686 91.1952 91.3285 91.1093 91.1171 91.036L90.8946 90.9601L90.7506 90.9126C90.4152 90.8058 90.23 90.4476 90.3369 90.1126Z" fill="#000091"/>
<path fill-rule="evenodd" clip-rule="evenodd" d="M114.748 94.355C115.056 94.1843 115.444 94.2952 115.615 94.6026C118.019 98.9298 119.18 102.474 119.292 105.324C119.381 107.594 118.804 109.315 117.773 110.536C117.43 110.941 117.061 111.262 116.688 111.507C116.456 111.659 116.266 111.755 116.141 111.805C115.814 111.934 115.443 111.773 115.314 111.446C115.19 111.131 115.335 110.775 115.639 110.635L115.702 110.608C115.759 110.581 115.858 110.528 115.988 110.443C116.261 110.263 116.538 110.023 116.798 109.714C117.622 108.739 118.095 107.33 118.018 105.374C117.915 102.745 116.815 99.3865 114.5 95.2208C114.329 94.9133 114.44 94.5257 114.748 94.355Z" fill="#000091"/>
<path fill-rule="evenodd" clip-rule="evenodd" d="M290.31 200.484C290.662 200.484 290.948 200.77 290.948 201.121C290.948 201.46 290.682 201.738 290.348 201.757L290.31 201.758H1.60611C1.25411 201.758 0.96875 201.473 0.96875 201.121C0.96875 200.782 1.23409 200.505 1.56866 200.486L1.60611 200.484H290.31Z" fill="#000091"/>
</svg>
