<svg width="40" height="40" viewBox="0 0 40 40" fill="none" xmlns="http://www.w3.org/2000/svg">
<path fill-rule="evenodd" clip-rule="evenodd" d="M3 17C3.275 17 3.5 16.775 3.5 16.5C3.5 16.225 3.275 16 3 16C2.725 16 2.5 16.225 2.5 16.5C2.5 16.775 2.725 17 3 17Z" fill="#ECECFE"/>
<path fill-rule="evenodd" clip-rule="evenodd" d="M23 3C23.275 3 23.5 2.775 23.5 2.5C23.5 2.225 23.275 2 23 2C22.725 2 22.5 2.225 22.5 2.5C22.5 2.775 22.725 3 23 3Z" fill="#ECECFE"/>
<path fill-rule="evenodd" clip-rule="evenodd" d="M33 31C33.275 31 33.5 30.775 33.5 30.5C33.5 30.225 33.275 30 33 30C32.725 30 32.5 30.225 32.5 30.5C32.5 30.775 32.725 31 33 31Z" fill="#ECECFE"/>
<path fill-rule="evenodd" clip-rule="evenodd" d="M37 15C37.275 15 37.5 14.775 37.5 14.5C37.5 14.225 37.275 14 37 14C36.725 14 36.5 14.225 36.5 14.5C36.5 14.775 36.725 15 37 15Z" fill="#ECECFE"/>
<path fill-rule="evenodd" clip-rule="evenodd" d="M18 36.5C18.275 36.5 18.5 36.275 18.5 36C18.5 35.725 18.275 35.5 18 35.5C17.725 35.5 17.5 35.725 17.5 36C17.5 36.275 17.725 36.5 18 36.5Z" fill="#ECECFE"/>
<path fill-rule="evenodd" clip-rule="evenodd" d="M20.0001 13.1451C17.0566 13.1451 14.6716 15.5301 14.6716 18.4737C14.6716 18.6675 14.6838 18.8682 14.7045 19.0629C14.7052 19.0695 14.7058 19.076 14.7062 19.0826C15.0074 21.7359 17.2627 23.8022 20.0001 23.8022C22.9437 23.8022 25.3287 21.4172 25.3287 18.4737C25.3287 15.5301 22.9437 13.1451 20.0001 13.1451ZM13.7082 19.1508C13.7087 19.1589 13.7094 19.167 13.7103 19.1751C14.059 22.3376 16.741 24.8022 20.0001 24.8022C23.496 24.8022 26.3287 21.9695 26.3287 18.4737C26.3287 14.9778 23.496 12.1451 20.0001 12.1451C16.5043 12.1451 13.6716 14.9778 13.6716 18.4737C13.6716 18.7017 13.6855 18.9317 13.7082 19.1508Z" fill="#E1000F"/>
<path fill-rule="evenodd" clip-rule="evenodd" d="M20.0001 24.8021C15.4509 24.8021 11.7595 28.4894 11.7595 33.0427C11.7595 33.3188 11.5357 33.5427 11.2595 33.5427C10.9834 33.5427 10.7595 33.3188 10.7595 33.0427C10.7595 27.9368 14.899 23.8021 20.0001 23.8021C25.1013 23.8021 29.2406 27.9414 29.2406 33.0427C29.2406 33.3188 29.0167 33.5427 28.7406 33.5427C28.4645 33.5427 28.2406 33.3188 28.2406 33.0427C28.2406 28.4937 24.5491 24.8021 20.0001 24.8021Z" fill="#E1000F"/>
<path d="M28.697 10.8412C29.2493 10.8412 29.697 10.3935 29.697 9.84119C29.697 9.2889 29.2493 8.84119 28.697 8.84119C28.1447 8.84119 27.697 9.2889 27.697 9.84119C27.697 10.3935 28.1447 10.8412 28.697 10.8412Z" fill="#E1000F"/>
<path fill-rule="evenodd" clip-rule="evenodd" d="M32.0224 17.1442C32.2985 17.1464 32.5206 17.3721 32.5183 17.6482L32.4826 22.0452C32.4804 22.3214 32.2547 22.5434 31.9786 22.5412C31.7025 22.5389 31.4804 22.3133 31.4827 22.0371L31.5184 17.6401C31.5206 17.364 31.7463 17.1419 32.0224 17.1442Z" fill="#000091"/>
<path fill-rule="evenodd" clip-rule="evenodd" d="M7.28868 6.14704C7.38321 6.05219 7.51183 5.99923 7.64574 6.00001L32.1014 6.14271C32.2342 6.14349 32.3612 6.19703 32.4544 6.29153C32.5477 6.38604 32.5995 6.51375 32.5985 6.6465L32.5316 15.445C32.5295 15.7212 32.3039 15.9433 32.0278 15.9412C31.7517 15.9391 31.5295 15.7135 31.5316 15.4374L31.5947 7.13977L8.14746 7.00295L8.2855 22.0366C8.28804 22.3128 8.06625 22.5387 7.79012 22.5412C7.51399 22.5437 7.28808 22.3219 7.28555 22.0458L7.14284 6.50459C7.14161 6.37069 7.19415 6.24189 7.28868 6.14704Z" fill="#000091"/>
<path fill-rule="evenodd" clip-rule="evenodd" d="M7.42731 21.6925C7.52144 21.5958 7.65063 21.5413 7.78555 21.5413H12.1826C12.4587 21.5413 12.6826 21.7651 12.6826 22.0413C12.6826 22.3174 12.4587 22.5413 12.1826 22.5413H7.99658L4.6847 25.9427H9.5515C9.82764 25.9427 10.0515 26.1666 10.0515 26.4427C10.0515 26.7189 9.82764 26.9427 9.5515 26.9427H3.50001C3.299 26.9427 3.11752 26.8224 3.03936 26.6372C2.9612 26.452 3.00154 26.238 3.14177 26.0939L7.42731 21.6925Z" fill="#000091"/>
<path d="M9.99736 26.4428C9.99736 26.6891 9.7977 26.8887 9.55141 26.8887C9.30513 26.8887 9.10547 26.6891 9.10547 26.4428C9.10547 26.1965 9.30513 25.9968 9.55141 25.9968C9.7977 25.9968 9.99736 26.1965 9.99736 26.4428Z" fill="#000091"/>
<path d="M9.99736 26.4428C9.99736 26.6891 9.7977 26.8887 9.55141 26.8887C9.30513 26.8887 9.10547 26.6891 9.10547 26.4428C9.10547 26.1965 9.30513 25.9968 9.55141 25.9968C9.7977 25.9968 9.99736 26.1965 9.99736 26.4428Z" fill="#000091"/>
<path d="M9.99736 26.4428C9.99736 26.6891 9.7977 26.8887 9.55141 26.8887C9.30513 26.8887 9.10547 26.6891 9.10547 26.4428C9.10547 26.1965 9.30513 25.9968 9.55141 25.9968C9.7977 25.9968 9.99736 26.1965 9.99736 26.4428Z" fill="#000091"/>
<path d="M9.99736 26.4428C9.99736 26.6891 9.7977 26.8887 9.55141 26.8887C9.30513 26.8887 9.10547 26.6891 9.10547 26.4428C9.10547 26.1965 9.30513 25.9968 9.55141 25.9968C9.7977 25.9968 9.99736 26.1965 9.99736 26.4428Z" fill="#000091"/>
<path d="M9.99736 26.4428C9.99736 26.6891 9.7977 26.8887 9.55141 26.8887C9.30513 26.8887 9.10547 26.6891 9.10547 26.4428C9.10547 26.1965 9.30513 25.9968 9.55141 25.9968C9.7977 25.9968 9.99736 26.1965 9.99736 26.4428Z" fill="#000091"/>
<path fill-rule="evenodd" clip-rule="evenodd" d="M11.25 26.4426C11.25 26.1665 11.4739 25.9426 11.75 25.9426H12.2985C12.5747 25.9426 12.7985 26.1665 12.7985 26.4426C12.7985 26.7188 12.5747 26.9426 12.2985 26.9426H11.75C11.4739 26.9426 11.25 26.7188 11.25 26.4426Z" fill="#000091"/>
<path fill-rule="evenodd" clip-rule="evenodd" d="M27.0854 22.0413C27.0854 21.7651 27.3093 21.5413 27.5854 21.5413H31.9825C32.1128 21.5413 32.238 21.5922 32.3314 21.6831L36.8488 26.0846C36.9945 26.2266 37.0397 26.4427 36.9631 26.6311C36.8865 26.8195 36.7033 26.9427 36.4999 26.9427H27.7014C27.4253 26.9427 27.2014 26.7189 27.2014 26.4427C27.2014 26.1666 27.4253 25.9427 27.7014 25.9427H35.2703L31.7792 22.5413H27.5854C27.3093 22.5413 27.0854 22.3174 27.0854 22.0413Z" fill="#000091"/>
<path fill-rule="evenodd" clip-rule="evenodd" d="M9.6001 8.84119C9.6001 8.56504 9.82396 8.34119 10.1001 8.34119H23.3001C23.5762 8.34119 23.8001 8.56504 23.8001 8.84119C23.8001 9.11733 23.5762 9.34119 23.3001 9.34119H10.1001C9.82396 9.34119 9.6001 9.11733 9.6001 8.84119Z" fill="#000091"/>
<path fill-rule="evenodd" clip-rule="evenodd" d="M9.6001 11.0442C9.6001 10.768 9.82396 10.5442 10.1001 10.5442H14.5016C14.7777 10.5442 15.0016 10.768 15.0016 11.0442C15.0016 11.3203 14.7777 11.5442 14.5016 11.5442H10.1001C9.82396 11.5442 9.6001 11.3203 9.6001 11.0442Z" fill="#000091"/>
<path fill-rule="evenodd" clip-rule="evenodd" d="M9.6001 13.2427C9.6001 12.9665 9.82396 12.7427 10.1001 12.7427H12.2986C12.5748 12.7427 12.7986 12.9665 12.7986 13.2427C12.7986 13.5188 12.5748 13.7427 12.2986 13.7427H10.1001C9.82396 13.7427 9.6001 13.5188 9.6001 13.2427Z" fill="#000091"/>
</svg>
