<svg width="418" height="211" viewBox="0 0 418 211" fill="none" xmlns="http://www.w3.org/2000/svg">
<path fill-rule="evenodd" clip-rule="evenodd" d="M335.307 73.2683C332.691 73.2683 330.189 73.8343 327.885 74.8406L290.522 89.7143L253.728 81.7271H235.643C235.7 70.0923 231.776 52.2941 188.413 61.1617C166.206 65.5327 164.386 76.3814 169.134 86.8213L75.7831 79.6203C74.4183 79.3058 70.2668 79.18 70.2668 79.18C59.3194 79.9347 50.6184 90.3432 50.6184 103.11C50.6184 115.154 58.3811 125.122 68.4754 126.82L68.1342 135.688L145.903 137.669L141.496 210.78L275.537 209.271L261.775 124.587L332.008 120.971L331.696 117.575C332.861 117.795 334.056 117.921 335.278 117.921C346.425 117.921 355.467 107.921 355.467 95.5947C355.524 83.268 346.482 73.2683 335.307 73.2683Z" fill="#FE7624"/>
<path fill-rule="evenodd" clip-rule="evenodd" d="M188.129 83.6768L182.129 86.3811C182.129 86.3811 201.493 97.4814 202.687 142.134C204.934 170.844 204.308 209.994 204.308 209.994L217.559 209.837C217.559 209.837 214.061 126.726 219.89 112.324C225.719 97.9216 222.847 91.318 219.947 88.2993C217.018 85.2805 188.129 83.6768 188.129 83.6768Z" fill="white"/>
<path fill-rule="evenodd" clip-rule="evenodd" d="M187.588 65.7842V81.6957C187.532 84.3057 188.527 86.7899 190.347 88.488C193.759 91.664 201.18 97.4185 209.028 107.324C209.028 107.324 221.284 97.3556 220.004 81.8215L187.588 65.7842Z" fill="white"/>
<path fill-rule="evenodd" clip-rule="evenodd" d="M186.735 65.7842V81.6957C186.673 84.5291 187.748 87.2368 189.692 89.1094L189.821 89.2309C190.308 89.6739 195.43 94.178 197.471 96.1005C201.365 99.769 204.931 103.584 208.387 107.946C208.679 108.314 209.177 108.374 209.534 108.084L209.657 107.981C209.743 107.908 209.853 107.811 209.986 107.692L210.044 107.639C210.436 107.285 210.871 106.866 211.339 106.386C212.67 105.018 214 103.423 215.242 101.614C219.261 95.7622 221.459 89.0801 220.854 81.7359C220.826 81.3962 220.634 81.0997 220.352 80.9604L187.937 64.9231C187.373 64.6439 186.735 65.1006 186.735 65.7842ZM188.442 67.2398L219.194 82.4539L219.202 82.5949C219.576 89.1482 217.538 95.1527 213.884 100.473C212.704 102.19 211.44 103.706 210.177 105.004L210.032 105.152C209.743 105.445 209.469 105.711 209.213 105.95L209.13 106.027L208.965 105.822C205.789 101.896 202.51 98.399 198.971 95.0372L198.379 94.4783C196.153 92.4005 191.162 88.0137 190.896 87.7662C189.283 86.2612 188.39 84.055 188.441 81.7184L188.442 67.2398Z" fill="#2E186A"/>
<path fill-rule="evenodd" clip-rule="evenodd" d="M235.729 80.6265V81.6957C235.729 83.8654 235.558 85.8151 235.501 87.3559C235.075 98.0474 230.411 103.739 228.563 107.984C239.852 105.689 251.538 92.1671 253.841 81.6957C251.51 79.3373 239.852 78.1423 235.729 80.6265Z" fill="#2E186A"/>
<path fill-rule="evenodd" clip-rule="evenodd" d="M187.105 110.343C183.778 108.645 172.603 98.1417 168.367 84.7144C164.699 82.5133 155.372 83.6767 152.415 85.5635C164.016 112.104 187.105 110.374 187.105 110.343Z" fill="#2E186A"/>
<path fill-rule="evenodd" clip-rule="evenodd" d="M191.583 107.454C192.193 107.289 192.809 107.702 192.958 108.376L193.136 109.191L193.479 110.796C193.546 111.116 193.616 111.448 193.687 111.791L193.796 112.313C194.423 115.343 195.05 118.538 195.635 121.751C195.999 123.746 196.335 125.687 196.638 127.554L196.728 128.113C197.65 133.876 198.208 138.65 198.308 142.126C198.328 142.82 197.835 143.401 197.207 143.423C196.579 143.445 196.054 142.9 196.034 142.205L196.022 141.844C195.902 138.603 195.38 134.171 194.536 128.853L194.488 128.551C194.165 126.533 193.801 124.424 193.405 122.248C192.869 119.303 192.297 116.373 191.722 113.572L191.471 112.356C191.382 111.93 191.296 111.522 191.214 111.132L190.875 109.55L190.749 108.976C190.599 108.301 190.973 107.62 191.583 107.454Z" fill="#2E186A"/>
<path fill-rule="evenodd" clip-rule="evenodd" d="M225.247 106.566C225.861 106.711 226.252 107.38 226.121 108.059L225.969 108.864L225.795 109.815C225.735 110.151 225.672 110.505 225.606 110.877L225.567 111.102C225.15 113.483 224.733 116.047 224.344 118.694C223.881 121.847 223.489 124.908 223.19 127.795L223.13 128.389C222.562 134.091 222.407 138.753 222.754 141.986C222.828 142.676 222.383 143.301 221.759 143.383C221.135 143.465 220.57 142.972 220.495 142.283C220.11 138.699 220.295 133.661 220.93 127.51C221.233 124.58 221.63 121.481 222.099 118.291C222.491 115.616 222.912 113.028 223.333 110.624L223.49 109.739C223.553 109.384 223.614 109.048 223.672 108.731L223.896 107.532C224.028 106.853 224.633 106.42 225.247 106.566Z" fill="#2E186A"/>
<path fill-rule="evenodd" clip-rule="evenodd" d="M185.428 54.5581C185.428 54.5581 177.38 54.7468 178.802 62.7025C180.252 70.6897 189.152 66.0672 189.152 66.0672L187.958 54.7153L185.428 54.5581Z" fill="white"/>
<path fill-rule="evenodd" clip-rule="evenodd" d="M185.475 53.6163L185.44 53.6149L185.395 53.6154L185.297 53.6198C185.191 53.6256 185.06 53.636 184.906 53.6526C184.593 53.6861 184.255 53.7379 183.9 53.8119C182.905 54.0191 181.941 54.3624 181.069 54.8791C178.53 56.3833 177.279 59.0428 177.965 62.8854C178.636 66.5809 180.819 68.2938 183.866 68.3401C185.136 68.3594 186.472 68.0908 187.801 67.6331C188.182 67.5017 188.54 67.3621 188.868 67.2211L189.158 67.0927C189.319 67.0192 189.44 66.9603 189.515 66.9211C189.847 66.7487 190.042 66.361 190 65.9582L188.805 54.6063C188.758 54.1507 188.42 53.7992 188.006 53.7735L185.475 53.6163ZM185.417 55.5021L187.194 55.6125L188.231 65.4704L188.101 65.5256C187.849 65.6301 187.578 65.7335 187.293 65.8318C186.123 66.2351 184.956 66.4698 183.89 66.4536C181.598 66.4187 180.139 65.2738 179.639 62.5168C179.103 59.5207 179.975 57.6676 181.875 56.5422C182.577 56.126 183.38 55.8401 184.216 55.666C184.705 55.564 185.114 55.5169 185.387 55.5037L185.417 55.5021Z" fill="#2E186A"/>
<path fill-rule="evenodd" clip-rule="evenodd" d="M208.374 29.4331C210.507 29.2444 225.037 28.2382 226.629 41.6654C228.222 55.0927 226.516 69.9036 225.151 76.6644C223.786 83.4252 195.948 80.3121 194.384 79.6832C192.821 79.0543 190.944 77.0417 190.944 77.0417L187.134 56.4134C187.105 56.4449 185.57 31.5399 208.374 29.4331Z" fill="white"/>
<path fill-rule="evenodd" clip-rule="evenodd" d="M208.306 28.4927C197.999 29.445 191.603 34.9385 188.405 43.3598C187.291 46.2933 186.652 49.3771 186.385 52.4157C186.29 53.4842 186.25 54.4742 186.25 55.3498C186.25 55.6207 186.254 55.8664 186.261 56.0777L186.27 56.3078L186.279 56.4429L186.286 56.5234L186.294 56.5817L190.108 77.2305C190.142 77.4166 190.227 77.5868 190.35 77.719L190.44 77.8139C190.534 77.9107 190.661 78.0395 190.818 78.1919C191.175 78.5395 191.559 78.887 191.957 79.2132C192.416 79.5891 192.865 79.9131 193.298 80.17C193.572 80.3324 193.836 80.4666 194.093 80.5697C195.372 81.084 203.617 81.8783 209.841 81.8883L210.406 81.8876C219.566 81.8484 225.256 80.4728 225.983 76.8699C227.924 67.2565 228.835 53.0093 227.475 41.5428C226.724 35.207 223.236 31.3498 217.957 29.5421C216.055 28.891 214.021 28.5438 211.943 28.4343C210.549 28.3608 209.372 28.3984 208.306 28.4927ZM211.862 30.3189C213.806 30.4214 215.701 30.7448 217.452 31.3444C222.14 32.9497 225.127 36.2529 225.784 41.7881C227.115 53.0172 226.218 67.0475 224.318 76.4588C223.858 78.7414 218.311 80.0152 209.844 80.0016L209.296 79.9986C203.337 79.9453 195.674 79.1979 194.676 78.7966C194.502 78.7265 194.31 78.6295 194.105 78.5076C193.752 78.2983 193.37 78.0227 192.973 77.6972C192.617 77.405 192.268 77.09 191.944 76.775L191.814 76.6469L191.725 76.5578L187.977 56.2678L187.969 56.0971L187.963 55.9096C187.958 55.744 187.956 55.5554 187.956 55.3493C187.956 54.5333 187.994 53.6043 188.083 52.5988C188.335 49.7369 188.936 46.8346 189.978 44.0904C192.938 36.2968 198.796 31.2646 208.445 30.3732C209.442 30.2851 210.548 30.2496 211.862 30.3189Z" fill="#2E186A"/>
<path fill-rule="evenodd" clip-rule="evenodd" d="M189.835 56.2562C191.2 57.7341 194.839 66.2559 195.749 70.2495C195.749 70.2495 204.791 66.9162 217.758 66.6961C217.758 66.6961 224.809 66.8533 227.653 67.7653C227.653 67.7653 227.056 81.8529 221.312 89.1483C215.597 96.4436 203.483 94.3997 197.797 90.0287C192.11 85.6578 191.171 83.5509 189.863 78.8656C188.555 74.1802 185.086 56.6964 185.086 56.6964L189.835 56.2562Z" fill="#968BB4"/>
<path fill-rule="evenodd" clip-rule="evenodd" d="M186.11 59.275C186.11 59.275 182.328 52.7972 180.878 46.0678C179.513 39.7472 182.157 33.1122 187.475 30.2507C191.91 27.8608 195.209 29.7475 195.209 29.7475C195.209 29.7475 190.489 20.8799 197.569 13.0499C200.071 10.2827 203.483 8.77333 207.009 8.89911C215.625 9.18212 218.298 17.2322 218.298 17.2322C218.298 17.2322 227.539 -1.54083 246.448 9.59091C248.353 10.723 250.514 13.8361 251.538 15.9429C257.794 28.6784 237.179 43.7723 226.459 44.9672C214.687 46.2879 207.777 44.1182 203.995 40.9422C206.81 42.766 203.654 62.2623 186.11 59.275Z" fill="#2E186A"/>
<path fill-rule="evenodd" clip-rule="evenodd" d="M208.847 75.2025C209.449 75.0954 210.016 75.5308 210.141 76.1826L210.158 76.2849C210.169 76.344 210.192 76.4437 210.227 76.5712C210.305 76.8524 210.413 77.1329 210.55 77.3859C210.957 78.1349 211.497 78.4787 212.388 78.3333L212.473 78.3183C213.091 78.199 213.68 78.6571 213.788 79.3414C213.896 80.0258 213.482 80.6773 212.863 80.7965C210.922 81.1708 209.473 80.289 208.6 78.6809C208.36 78.2387 208.182 77.7743 208.053 77.3106C207.974 77.0276 207.928 76.7979 207.905 76.6442C207.805 75.9584 208.227 75.3129 208.847 75.2025Z" fill="#2E186A"/>
<path fill-rule="evenodd" clip-rule="evenodd" d="M217.542 60.0379C218.147 59.9607 218.696 60.4237 218.794 61.0811L218.802 61.1433L220.082 73.4071C220.171 74.2634 219.475 74.9567 218.722 74.7831L218.67 74.77L214.775 73.6694C214.166 73.4974 213.799 72.8124 213.954 72.1393C214.105 71.4873 214.691 71.0857 215.281 71.2176L215.338 71.232L217.633 71.8802L216.542 61.4317C216.473 60.7625 216.891 60.1555 217.486 60.0467L217.542 60.0379Z" fill="#2E186A"/>
<path fill-rule="evenodd" clip-rule="evenodd" d="M221.653 62.5767C222.281 62.5767 222.791 61.7039 222.791 60.6271C222.791 59.5504 222.281 58.6775 221.653 58.6775C221.025 58.6775 220.516 59.5504 220.516 60.6271C220.516 61.7039 221.025 62.5767 221.653 62.5767Z" fill="#2E186A"/>
<path fill-rule="evenodd" clip-rule="evenodd" d="M210.706 62.3567C211.334 62.3567 211.843 61.4838 211.843 60.407C211.843 59.3303 211.334 58.4574 210.706 58.4574C210.078 58.4574 209.569 59.3303 209.569 60.407C209.569 61.4838 210.078 62.3567 210.706 62.3567Z" fill="#2E186A"/>
<path fill-rule="evenodd" clip-rule="evenodd" d="M206.258 50.1744C207.551 49.128 209.144 48.6077 210.987 48.9117C211.609 49.0141 212.037 49.6542 211.945 50.3413C211.852 51.0283 211.273 51.5023 210.652 51.3998C209.441 51.2002 208.437 51.5281 207.601 52.2047C207.366 52.3952 207.163 52.599 206.997 52.7997C206.955 52.8501 206.918 52.8967 206.887 52.9386L206.835 53.0113C206.477 53.5819 205.768 53.7235 205.252 53.3273C204.736 52.9312 204.608 52.1475 204.966 51.5768C205.038 51.4628 205.156 51.2975 205.321 51.0981C205.585 50.7811 205.896 50.4671 206.258 50.1744Z" fill="#2E186A"/>
<path fill-rule="evenodd" clip-rule="evenodd" d="M221.425 48.624C222.133 48.5008 222.884 48.4958 223.621 48.6961C224.907 49.0453 225.894 49.9737 226.323 51.5154C226.508 52.1793 226.171 52.8832 225.571 53.0875C224.97 53.2918 224.334 52.9191 224.149 52.2552C223.97 51.6102 223.627 51.288 223.079 51.1392C222.678 51.0303 222.214 51.0333 221.779 51.1091C221.735 51.1167 221.694 51.1246 221.658 51.1324L221.571 51.1526C220.963 51.3282 220.342 50.9257 220.183 50.2536C220.024 49.5815 220.388 48.8943 220.996 48.7187L221.077 48.6969C221.166 48.6742 221.284 48.6486 221.425 48.624Z" fill="#2E186A"/>
<path fill-rule="evenodd" clip-rule="evenodd" d="M380.148 111.412L385.665 103.771C385.665 103.771 387.627 93.3306 388.992 89.6829C390.357 86.0352 395.333 83.1108 393.769 88.3937C392.176 93.6765 392.745 95.8777 392.745 95.8777C392.745 95.8777 399.854 87.5132 402.839 81.1926C405.882 74.7148 407.872 81.0983 407.872 81.0983C407.872 81.0983 411.796 79.3059 411.512 82.2618C411.512 82.2618 415.237 82.1989 413.417 85.7837C413.417 85.7837 417.625 83.6768 416.744 87.7648C417.085 92.5445 409.436 107.041 402.128 111.066L399.228 115.531L395.731 121.443" fill="white"/>
<path fill-rule="evenodd" clip-rule="evenodd" d="M405.491 77.3457C406.517 77.3313 407.318 78.0535 407.969 79.1875C408.104 79.4214 408.226 79.6638 408.336 79.909L408.343 79.9256L408.353 79.9226C408.727 79.8031 409.1 79.7124 409.461 79.6616L409.616 79.6423C411.006 79.4904 412.079 80.0262 412.327 81.3328L412.339 81.4004L412.43 81.4186C412.57 81.4483 412.709 81.485 412.847 81.5295L412.983 81.5766C414.171 82.012 414.848 82.9453 414.764 84.2529L414.756 84.3629L414.906 84.3389L415.058 84.3197C416.918 84.118 418.071 85.3178 417.615 87.7785L417.602 87.8411L417.604 87.8801C417.693 90.5227 415.907 95.2686 413.122 100.039L413.019 100.213C409.947 105.428 406.261 109.714 402.808 111.74L402.701 111.802L399.931 116.065L396.445 121.959C396.196 122.379 395.697 122.508 395.308 122.262L395.264 122.232C394.884 121.958 394.768 121.405 394.99 120.976L395.017 120.926L398.514 115.015L398.535 114.981L401.436 110.516C401.517 110.391 401.624 110.29 401.748 110.221C404.964 108.45 408.58 104.294 411.59 99.1834L411.78 98.8575C414.39 94.3489 416.039 89.883 415.894 87.839C415.887 87.7407 415.894 87.6418 415.914 87.5459L415.946 87.3935C416.173 86.268 415.996 86.1138 415.224 86.1974C414.953 86.2269 414.648 86.3031 414.334 86.4122C414.184 86.4644 414.042 86.5205 413.915 86.5763L413.769 86.6431C413.018 87.0188 412.27 86.1163 412.673 85.3218L412.751 85.1648C413.316 83.9962 413.148 83.6246 412.447 83.3675C412.256 83.2978 412.043 83.2512 411.826 83.2256C411.747 83.2162 411.673 83.2103 411.606 83.2073L411.525 83.205C411.013 83.2136 410.61 82.725 410.664 82.1619C410.723 81.5499 410.558 81.4353 409.783 81.5199C409.489 81.5521 409.161 81.6283 408.825 81.7355C408.701 81.7751 408.582 81.8169 408.471 81.8591L408.362 81.9014C408.307 81.9233 408.264 81.9414 408.234 81.9545L408.198 81.9702C407.76 82.1704 407.262 81.9365 407.084 81.458L407.038 81.3207C407.013 81.2506 406.978 81.155 406.932 81.0405C406.817 80.7517 406.681 80.4634 406.53 80.1997C406.163 79.5623 405.793 79.2284 405.513 79.2323C405.067 79.2386 404.398 79.92 403.595 81.6294C403.021 82.8465 402.279 84.178 401.392 85.6077C400.708 86.7102 399.944 87.8593 399.114 89.0426C397.857 90.8365 396.511 92.6216 395.166 94.3169C394.852 94.7124 394.553 95.0842 394.272 95.4293L393.784 96.0243L393.367 96.5238C392.913 97.0574 392.107 96.841 391.925 96.1369C391.901 96.046 391.875 95.9047 391.851 95.7113C391.649 94.0856 391.909 91.5812 392.958 88.1001C393.124 87.5385 393.207 87.0869 393.216 86.7554C393.219 86.6377 393.213 86.5513 393.205 86.493L393.198 86.4569L393.171 86.4581C393.09 86.4641 392.98 86.4913 392.847 86.5439L392.789 86.568C391.702 87.0374 390.337 88.555 389.78 90.0436C389.507 90.7723 389.189 91.8458 388.838 93.2047L388.792 93.3836C388.565 94.2699 388.328 95.2605 388.083 96.3368C387.704 98.0039 387.326 99.792 386.966 101.58L386.83 102.265C386.771 102.56 386.716 102.843 386.664 103.111L386.5 103.962C386.477 104.083 386.433 104.198 386.371 104.3L386.331 104.359L380.815 112C380.521 112.408 379.984 112.474 379.616 112.149C379.262 111.836 379.193 111.276 379.449 110.871L379.482 110.823L384.871 103.357L385.077 102.298C385.147 101.942 385.222 101.565 385.301 101.171C385.664 99.3668 386.046 97.5625 386.429 95.8767L386.564 95.289C386.765 94.4204 386.961 93.6109 387.15 92.8699L387.246 92.4993C387.595 91.1644 387.914 90.0945 388.203 89.3222C388.935 87.3663 390.642 85.4701 392.168 84.8106C393.129 84.3953 394.031 84.48 394.566 85.3024C395.055 86.0538 395.026 87.1788 394.578 88.692C394.012 90.5685 393.698 92.1036 393.567 93.32L393.549 93.4916L393.884 93.0723C395.208 91.4039 396.532 89.6474 397.766 87.8867C398.576 86.7307 399.321 85.6106 399.985 84.54C400.786 83.249 401.46 82.0489 401.985 80.9605L402.082 80.7578C403.144 78.4977 404.257 77.3631 405.491 77.3457Z" fill="#2E186A"/>
<path fill-rule="evenodd" clip-rule="evenodd" d="M399.2 94.274C399.2 94.274 406.621 86.2239 407.844 81.1297L399.2 94.274Z" fill="white"/>
<path fill-rule="evenodd" clip-rule="evenodd" d="M407.019 80.8877C407.14 80.3841 407.607 80.0842 408.063 80.2179C408.518 80.3516 408.789 80.8681 408.668 81.3717C408.333 82.7676 407.584 84.3803 406.49 86.1859C405.851 87.2402 405.103 88.3433 404.269 89.4791C403.291 90.8106 402.245 92.1189 401.199 93.35L400.798 93.8174C400.668 93.9673 400.543 94.1112 400.422 94.2487L400.124 94.5859L399.797 94.9474C399.461 95.3123 398.921 95.3065 398.591 94.9345C398.274 94.5775 398.266 94.0127 398.564 93.6453L398.97 93.1921L399.199 92.9332C399.434 92.6657 399.688 92.373 399.955 92.058C400.975 90.8578 401.995 89.5826 402.944 88.2894C403.748 87.1956 404.465 86.1377 405.073 85.1352C406.072 83.4878 406.742 82.0444 407.019 80.8877Z" fill="#2E186A"/>
<path fill-rule="evenodd" clip-rule="evenodd" d="M402.1 96.821C402.783 95.7519 408.981 89.8087 410.886 82.2303L402.1 96.821Z" fill="white"/>
<path fill-rule="evenodd" clip-rule="evenodd" d="M402.765 97.4127C402.485 97.7979 401.978 97.8807 401.608 97.5918C401.223 97.2913 401.132 96.7027 401.403 96.277L401.448 96.2087C401.537 96.0799 401.656 95.9284 401.841 95.709L402.906 94.47C402.986 94.3754 403.064 94.2837 403.143 94.1906C404.227 92.9106 405.162 91.7117 406.06 90.4002C407.966 87.6172 409.352 84.8109 410.065 81.9776C410.191 81.4756 410.661 81.1818 411.115 81.3214C411.569 81.4609 411.835 81.981 411.708 82.483C410.952 85.4911 409.525 88.4192 407.583 91.2994L407.42 91.5393C405.95 93.6866 402.796 97.4201 402.793 97.3737L402.796 97.366L402.765 97.4127Z" fill="#2E186A"/>
<path fill-rule="evenodd" clip-rule="evenodd" d="M405.057 99.5254C406.536 97.3242 411 94.7456 413.559 86.0667L405.057 99.5254Z" fill="white"/>
<path fill-rule="evenodd" clip-rule="evenodd" d="M406.527 96.5494L406.699 96.3687C407.751 95.2622 408.528 94.3374 409.312 93.1988C410.724 91.1469 411.872 88.7456 412.748 85.7742C412.894 85.2789 413.376 85.0083 413.824 85.1698C414.272 85.3313 414.516 85.8638 414.37 86.3591C413.434 89.5336 412.197 92.1232 410.669 94.3417C409.823 95.571 408.989 96.5631 407.879 97.7317L406.283 99.4011C405.902 99.8082 405.93 99.808 405.742 100.088C405.461 100.506 404.927 100.593 404.549 100.283C404.17 99.972 404.091 99.3811 404.372 98.9628C404.575 98.6606 404.822 98.3557 405.146 97.9965L405.356 97.7671L406.527 96.5494Z" fill="#2E186A"/>
<path fill-rule="evenodd" clip-rule="evenodd" d="M231.748 168.077L255.235 113.739C257.794 106.506 261.519 99.0851 268.343 97.2299C284.238 92.8904 309.488 89.2112 328.397 88.5509C333.572 88.3622 338.52 90.9093 341.705 95.406L365.732 126.694L382.793 103.173L403.18 117.575L373.921 162.008C368.433 168.171 359.562 168.611 353.619 163.014L341.676 150.562L346.027 209.837H271.755L272.068 194.837L231.748 168.077Z" fill="#2E186A"/>
<path fill-rule="evenodd" clip-rule="evenodd" d="M310.967 90.9722L304.512 72.7023L284.835 86.5698L286.598 100.217C293.935 123.047 312.389 94.9972 310.967 90.9722Z" fill="white"/>
<path fill-rule="evenodd" clip-rule="evenodd" d="M304.054 71.9067L284.377 85.7742C284.095 85.9733 283.944 86.3366 283.991 86.7032L285.754 100.351C285.762 100.413 285.776 100.474 285.795 100.533C287.611 106.184 290.249 109.274 293.557 109.9C296.381 110.434 299.477 109.121 302.595 106.406C307.829 101.848 312.734 93.3814 311.762 90.6289L305.307 72.359C305.111 71.8054 304.507 71.5873 304.054 71.9067ZM285.758 87.0383L304.095 74.1145L310.172 91.3155C310.247 91.526 310.153 92.1962 309.832 93.1245C309.469 94.1751 308.859 95.4582 308.073 96.8162C306.326 99.8303 303.957 102.818 301.539 104.924C298.764 107.341 296.106 108.467 293.845 108.04L293.753 108.022C291.242 107.498 289.116 105.032 287.52 100.259L287.43 99.9886L285.758 87.0383Z" fill="#2E186A"/>
<path fill-rule="evenodd" clip-rule="evenodd" d="M272.807 40.4391C272.807 40.4391 290.522 50.1558 283.442 61.9479C283.442 61.9479 280.257 66.9163 277.215 66.3503C277.215 66.3503 279.035 62.2309 276.333 60.5328C276.333 60.5328 276.618 72.1991 267.831 70.8155C267.831 70.8155 270.504 65.344 269.111 59.275C266.154 46.6339 268.144 38.6467 272.807 40.4391Z" fill="#2E186A"/>
<path fill-rule="evenodd" clip-rule="evenodd" d="M309.005 54.904C309.005 54.904 310.142 31.9173 289.1 30.3136C287.138 30.1564 273.717 29.4331 272.409 41.8227C271.528 50.0929 272.011 58.9291 272.836 65.7528C272.836 65.7842 274.201 78.6455 279.433 85.2805C284.665 91.9155 294.816 90.1231 299.877 86.0038C304.939 81.8844 305.763 79.9347 306.901 75.5953C308.038 71.2558 309.005 54.9355 309.005 54.9355V54.904Z" fill="white"/>
<path fill-rule="evenodd" clip-rule="evenodd" d="M271.518 42.1363C270.789 49.3629 271.012 57.5363 271.935 65.4147L271.985 65.8333L271.993 65.9479C272.071 66.9464 272.621 70.2885 273.314 73.1454L273.349 73.2878C274.623 78.4707 276.399 82.868 278.79 85.9005C281.409 89.222 285.319 90.7727 289.746 90.6179C293.627 90.4823 297.626 89.0075 300.383 86.7636L300.821 86.4042C305.243 82.747 306.427 80.7929 307.72 75.8579C308.171 74.1386 308.61 70.6613 309.042 65.8837C309.239 63.6999 309.423 61.3745 309.589 59.0375L309.674 57.8146C309.7 57.4309 309.725 57.0608 309.748 56.7061L309.856 54.9972L309.863 54.7722C309.893 53.6169 309.828 52.0593 309.593 50.2407C309.233 47.4724 308.546 44.7321 307.45 42.1624C304.304 34.7872 298.395 30.0764 289.159 29.3725C288.214 29.2967 287.092 29.2753 285.797 29.3616C283.879 29.4896 282 29.8377 280.247 30.4656C275.375 32.2106 272.183 35.8348 271.562 41.7133L271.518 42.1363ZM289.039 31.2545C297.644 31.9104 303.018 36.1947 305.907 42.9673C306.925 45.3534 307.567 47.9153 307.904 50.5087C308.108 52.0818 308.175 53.4396 308.162 54.4679L308.157 54.757L308.152 54.9006L308.064 56.3077C308.041 56.6529 308.017 57.0139 307.992 57.3888L307.932 58.2551C307.77 60.5811 307.591 62.9068 307.397 65.1011L307.344 65.6962C306.931 70.2754 306.506 73.6579 306.101 75.2567L306.081 75.3326C304.851 80.0262 303.855 81.5953 299.372 85.244C296.898 87.257 293.234 88.6084 289.692 88.7322C285.741 88.8702 282.328 87.5162 280.076 84.6605C277.888 81.886 276.208 77.7248 274.996 72.7929L274.903 72.4078C274.238 69.6053 273.721 66.3897 273.69 65.7997L273.689 65.7528C273.689 65.711 273.686 65.6693 273.681 65.6278C272.729 57.7495 272.488 49.5466 273.214 42.3464L273.257 41.9321C273.793 36.8568 276.49 33.7946 280.773 32.2606C282.376 31.6863 284.116 31.364 285.9 31.2449C287.112 31.1641 288.16 31.1841 289.039 31.2545Z" fill="#2E186A"/>
<path fill-rule="evenodd" clip-rule="evenodd" d="M280.034 59.7157C280.081 59.1973 280.499 58.8191 280.968 58.8709C281.42 58.9209 281.754 59.3525 281.735 59.8481L281.732 59.9035L280.831 69.8627L283.22 69.1501C283.658 69.0192 284.11 69.2914 284.251 69.762L284.266 69.8151C284.384 70.3001 284.138 70.7989 283.712 70.9557L283.664 70.9716L280.082 72.0408C279.521 72.2081 278.982 71.7216 279.007 71.0906L279.01 71.0361L280.034 59.7157Z" fill="#2E186A"/>
<path fill-rule="evenodd" clip-rule="evenodd" d="M278.943 57.7912C278.96 56.8015 278.504 55.9889 277.923 55.9762C277.342 55.9635 276.857 56.7555 276.839 57.7453C276.821 58.735 277.278 59.5476 277.859 59.5603C278.44 59.573 278.925 58.7809 278.943 57.7912Z" fill="#2E186A"/>
<path fill-rule="evenodd" clip-rule="evenodd" d="M288.155 59.9246C288.728 59.8169 289.071 58.9385 288.921 57.9626C288.771 56.9866 288.185 56.2827 287.612 56.3903C287.039 56.498 286.696 57.3764 286.846 58.3523C286.996 59.3283 287.582 60.0322 288.155 59.9246Z" fill="#2E186A"/>
<path fill-rule="evenodd" clip-rule="evenodd" d="M286.442 48.3227C288.124 47.9116 289.608 48.3048 290.837 49.2064C291.146 49.4335 291.416 49.6773 291.647 49.9233L291.747 50.0335C291.84 50.1381 291.91 50.2254 291.956 50.2897C292.25 50.6965 292.191 51.2902 291.823 51.6157C291.469 51.9286 290.959 51.8797 290.659 51.5138L290.603 51.4418C290.576 51.4079 290.529 51.3522 290.462 51.2807C290.303 51.1111 290.113 50.9394 289.894 50.7787C289.028 50.1435 288.006 49.8727 286.811 50.165C286.351 50.2775 285.895 49.9563 285.794 49.4476C285.692 48.9388 285.982 48.4352 286.442 48.3227Z" fill="#2E186A"/>
<path fill-rule="evenodd" clip-rule="evenodd" d="M274.537 48.1344C275.334 48.0282 276.164 48.1041 276.971 48.2928L277.13 48.3315C277.384 48.3959 277.583 48.4587 277.712 48.5061C278.159 48.6709 278.4 49.2052 278.251 49.6994C278.108 50.176 277.653 50.4414 277.22 50.3121L277.07 50.2621L277.037 50.2517C276.914 50.2135 276.773 50.1749 276.618 50.1387C275.979 49.9892 275.326 49.9296 274.741 50.0076C273.951 50.1127 273.389 50.4504 273.06 51.0726C272.822 51.5222 272.3 51.6734 271.893 51.4102C271.486 51.147 271.35 50.5691 271.588 50.1195C272.217 48.9312 273.259 48.3045 274.537 48.1344Z" fill="#2E186A"/>
<path fill-rule="evenodd" clip-rule="evenodd" d="M291.233 39.8416C291.233 39.8416 286.143 71.0357 304.683 72.1363C304.683 72.1363 315.488 73.0482 317.535 68.6143C317.535 68.6143 309.431 64.9352 309.972 59.9668C309.972 59.9668 319.583 69.4948 326.435 61.1303C326.435 61.1303 313.668 60.2184 313.64 47.5772C313.611 38.5209 293.394 32.2318 291.233 39.8416Z" fill="#2E186A"/>
<path fill-rule="evenodd" clip-rule="evenodd" d="M324.957 40.4076L313.697 39.7787C311.792 31.6343 306.36 20.2825 290.864 19.9995C266.637 19.5592 268.23 45.4389 268.23 45.4389L324.587 48.4577C326.606 48.5835 328.312 46.854 328.397 44.6528C328.511 42.4202 326.976 40.5334 324.957 40.4076Z" fill="#FE7624"/>
<path fill-rule="evenodd" clip-rule="evenodd" d="M290.22 71.601C290.362 71.1041 290.841 70.8283 291.291 70.985C291.74 71.1417 291.989 71.6716 291.848 72.1685C291.798 72.3413 291.701 72.6034 291.543 72.9254C291.289 73.4452 290.953 73.962 290.522 74.4438C289.191 75.93 287.273 76.7572 284.731 76.6001C284.26 76.571 283.9 76.1258 283.927 75.6056C283.953 75.0854 284.356 74.6872 284.826 74.7163C286.878 74.8431 288.32 74.2209 289.309 73.1164C289.62 72.7689 289.862 72.3973 290.042 72.0286C290.136 71.8368 290.191 71.6933 290.215 71.6206L290.22 71.601Z" fill="#2E186A"/>
<path fill-rule="evenodd" clip-rule="evenodd" d="M269.847 145.986C270.012 145.498 270.504 145.25 270.945 145.433C271.37 145.609 271.594 146.12 271.462 146.594L271.445 146.647L257.456 188.06C257.291 188.548 256.799 188.796 256.358 188.614C255.932 188.438 255.709 187.927 255.841 187.453L255.857 187.4L269.847 145.986Z" fill="white"/>
<path fill-rule="evenodd" clip-rule="evenodd" d="M364.17 126.662C364.579 126.403 365.1 126.559 365.335 127.011C365.56 127.446 365.438 127.997 365.064 128.269L364.907 128.374C364.876 128.396 364.839 128.421 364.797 128.451C364.606 128.587 364.391 128.751 364.158 128.94C363.491 129.485 362.822 130.127 362.2 130.86C360.075 133.362 359.018 136.244 359.548 139.482C359.632 139.995 359.324 140.485 358.861 140.578C358.397 140.671 357.953 140.331 357.869 139.818C357.23 135.914 358.494 132.468 360.956 129.568C361.654 128.747 362.399 128.031 363.146 127.422L363.311 127.289C363.685 126.991 363.982 126.782 364.17 126.662Z" fill="white"/>
<path fill-rule="evenodd" clip-rule="evenodd" d="M357.729 126.163C359.537 125.266 361.439 125.231 363.206 125.702C363.622 125.812 363.933 125.926 364.118 126.008C364.555 126.203 364.766 126.753 364.589 127.236C364.419 127.702 363.951 127.936 363.526 127.777L363.386 127.72C363.367 127.713 363.346 127.705 363.322 127.697C363.173 127.642 363.001 127.588 362.807 127.536C361.375 127.155 359.841 127.183 358.427 127.884C356.655 128.763 355.238 130.631 354.317 133.777C354.172 134.273 353.691 134.545 353.242 134.384C352.794 134.224 352.548 133.692 352.694 133.196C353.758 129.562 355.496 127.27 357.729 126.163Z" fill="white"/>
<path fill-rule="evenodd" clip-rule="evenodd" d="M280.968 198.768H244.06C243.15 198.768 242.268 198.296 241.728 197.447L216.052 158.675C214.658 156.568 216.023 153.58 218.383 153.58H255.292C256.201 153.58 257.083 154.052 257.623 154.901L283.3 193.674C284.693 195.812 283.328 198.768 280.968 198.768Z" fill="#5D21D1"/>
<path fill-rule="evenodd" clip-rule="evenodd" d="M245.623 175.183C245.623 175.183 237.207 182.762 237.065 182.888C236.922 183.013 246.135 194.114 246.135 194.114L255.718 183.202L245.623 175.183Z" fill="white"/>
<path fill-rule="evenodd" clip-rule="evenodd" d="M248.467 177.416C249.889 176.85 254.353 173.8 255.633 174.334C258.277 175.466 254.381 178.422 251.566 181.127" fill="white"/>
<path fill-rule="evenodd" clip-rule="evenodd" d="M251.634 174.665L251.886 174.532C253.87 173.496 255.069 173.09 255.941 173.455C257.596 174.163 257.751 175.659 256.709 177.2L256.641 177.3C256.063 178.131 255.36 178.84 253.573 180.489L252.74 181.259C252.507 181.476 252.314 181.658 252.126 181.839C251.77 182.181 251.231 182.139 250.922 181.745C250.613 181.352 250.651 180.756 251.007 180.415L251.412 180.03C251.556 179.894 251.712 179.749 251.891 179.584L252.86 178.689C254.248 177.398 254.849 176.778 255.286 176.154L255.417 175.96C255.777 175.423 255.75 175.396 255.331 175.217C255.088 175.115 253.962 175.522 252.373 176.366L252.113 176.505L251.563 176.807C251.142 177.041 250.245 177.545 250.05 177.652L249.661 177.864C249.274 178.072 248.989 178.211 248.756 178.304C248.313 178.48 247.824 178.226 247.664 177.736C247.511 177.263 247.719 176.744 248.131 176.549L248.262 176.494C248.455 176.409 248.728 176.27 249.106 176.064L250.934 175.044L251.225 174.885C251.366 174.808 251.502 174.735 251.634 174.665Z" fill="#2E186A"/>
<path fill-rule="evenodd" clip-rule="evenodd" d="M251.965 187.259C251.965 187.259 256.969 182.919 258.505 186.724C259.13 188.296 253.671 193.107 248.496 194.837C243.548 196.472 227.454 202.573 227.397 185.875C227.397 183.139 227.966 179.492 229.729 173.202C232.003 165.247 235.984 168.611 235.643 171.504C235.302 174.397 235.501 179.9 235.501 179.9C235.501 179.9 243.605 172.699 248.496 172.573C254.495 172.385 249.747 177.259 240.079 183.768" fill="white"/>
<path fill-rule="evenodd" clip-rule="evenodd" d="M228.915 172.918C230.044 168.972 231.815 167.019 233.795 167.353C235.468 167.634 236.681 169.606 236.499 171.535L236.461 171.88C236.381 172.664 236.332 173.676 236.31 174.856C236.292 175.817 236.292 176.83 236.306 177.836L236.31 178.036L236.362 177.994C237.332 177.209 238.365 176.424 239.429 175.681L239.784 175.434C241.05 174.566 242.28 173.814 243.451 173.21C245.36 172.226 247.046 171.667 248.471 171.631C250.248 171.575 251.372 171.913 251.83 172.896C252.294 173.894 251.855 174.999 250.795 176.293C249.124 178.332 245.575 181.172 240.522 184.574C240.12 184.845 239.595 184.704 239.35 184.259C239.105 183.814 239.233 183.233 239.635 182.962L240.218 182.568C244.827 179.431 248.063 176.817 249.53 175.026C249.889 174.588 250.126 174.217 250.237 173.937C250.264 173.87 250.281 173.814 250.29 173.771L250.294 173.748C250.263 173.731 250.195 173.697 250.072 173.657L250.029 173.644C249.692 173.542 249.185 173.496 248.515 173.517C247.365 173.546 245.886 174.036 244.172 174.92C243.068 175.489 241.895 176.207 240.684 177.038C239.535 177.826 238.415 178.671 237.369 179.517L237.102 179.734C236.928 179.877 236.764 180.013 236.61 180.143L236.327 180.383L236.035 180.636C235.489 181.121 234.677 180.712 234.649 179.938L234.632 179.415C234.628 179.251 234.623 179.074 234.619 178.886C234.589 177.532 234.579 176.13 234.604 174.817L234.613 174.39C234.643 173.201 234.703 172.184 234.797 171.382C234.913 170.399 234.275 169.342 233.538 169.218C232.591 169.058 231.448 170.319 230.543 173.482L230.339 174.218C228.857 179.618 228.25 183.149 228.25 185.871C228.277 193.862 231.986 196.776 238.603 196.28C240.516 196.137 242.542 195.713 244.782 195.053L245.063 194.97C245.488 194.842 245.909 194.71 246.362 194.562L248.249 193.934C250.573 193.157 253.143 191.655 255.161 189.969C256.077 189.203 256.812 188.452 257.266 187.823C257.471 187.539 257.607 187.295 257.67 187.114L257.69 187.052L257.694 187.033L257.664 186.967C257.292 186.175 256.688 185.958 255.734 186.187L255.652 186.208C255.094 186.353 254.475 186.643 253.837 187.035C253.489 187.248 253.159 187.478 252.858 187.708L252.71 187.822L252.515 187.981L252.491 188.001C252.12 188.322 251.584 188.251 251.293 187.841C251.003 187.431 251.067 186.838 251.438 186.516L251.575 186.401C251.659 186.333 251.764 186.25 251.889 186.154C252.233 185.892 252.609 185.63 253.009 185.385C253.772 184.916 254.529 184.562 255.26 184.371C257.042 183.906 258.531 184.475 259.285 186.344C259.833 187.72 258.54 189.511 256.19 191.474C254.079 193.237 251.426 194.804 248.957 195.667L247.316 196.217L246.841 196.373C246.379 196.523 245.948 196.659 245.511 196.79C243.059 197.528 240.841 198.003 238.719 198.162C235.36 198.414 232.555 197.83 230.442 196.169C227.912 194.181 226.561 190.779 226.544 185.875L226.546 185.61C226.584 182.579 227.284 178.736 228.915 172.918Z" fill="#2E186A"/>
<path fill-rule="evenodd" clip-rule="evenodd" d="M244.572 186.724C244.572 186.724 248.751 183.831 251.566 181.127L252.334 180.309C252.334 180.309 256.599 176.913 258.874 178.737C261.149 180.561 255.945 185.403 250.031 189.271" fill="white"/>
<path fill-rule="evenodd" clip-rule="evenodd" d="M256.137 177.378C257.381 177.11 258.49 177.264 259.375 177.973C260.259 178.682 260.479 179.766 260.083 180.938C259.779 181.839 259.112 182.826 258.124 183.908C256.385 185.811 253.63 188.014 250.465 190.083C250.06 190.348 249.536 190.2 249.297 189.751C249.057 189.303 249.191 188.724 249.597 188.459C252.651 186.462 255.3 184.344 256.923 182.567C258.481 180.862 258.82 179.859 258.373 179.501C257.926 179.142 257.284 179.053 256.463 179.23C255.802 179.372 255.073 179.676 254.324 180.096C253.938 180.312 253.571 180.545 253.239 180.777L253.106 180.871C253.064 180.901 253.024 180.93 252.986 180.958L252.877 181.04L252.158 181.806L252.126 181.839C251.951 182.007 251.769 182.178 251.58 182.351C251.048 182.839 250.463 183.346 249.834 183.867C248.781 184.739 247.655 185.611 246.529 186.441L246.099 186.756C245.959 186.858 245.824 186.955 245.695 187.049L245.19 187.408L245.024 187.524C244.625 187.8 244.098 187.666 243.848 187.225C243.608 186.799 243.711 186.244 244.076 185.956L244.131 185.916L244.518 185.643L244.802 185.44C245.046 185.265 245.307 185.074 245.583 184.871C246.684 184.059 247.785 183.207 248.811 182.357C249.419 181.854 249.982 181.366 250.491 180.899C250.61 180.789 250.727 180.681 250.84 180.574L250.993 180.427L251.742 179.63C251.757 179.614 251.772 179.599 251.788 179.585L251.836 179.544L251.941 179.462C252.038 179.388 252.168 179.293 252.328 179.182C252.704 178.919 253.116 178.657 253.554 178.412C254.431 177.921 255.301 177.558 256.137 177.378Z" fill="#2E186A"/>
<path fill-rule="evenodd" clip-rule="evenodd" d="M84.5979 141.254L60.8833 117.198C60.8833 117.198 67.537 102.198 86.8442 91.8211C97.4219 86.1295 140.557 97.67 148.149 101.192C155.713 104.714 165.665 136.946 165.665 136.946L152.614 141.945C152.614 141.945 146.358 157.825 146.898 160.215C147.922 164.869 149.23 210.34 149.23 210.34H81.0435L84.5979 141.254Z" fill="#5D21D1"/>
<path fill-rule="evenodd" clip-rule="evenodd" d="M145.409 115.189C145.768 114.852 146.306 114.901 146.611 115.299L146.708 115.429C146.767 115.511 146.843 115.616 146.933 115.746C147.178 116.099 147.449 116.513 147.741 116.985C148.57 118.329 149.398 119.88 150.17 121.618C152.147 126.069 153.423 130.967 153.662 136.196C153.965 142.844 152.559 149.574 149.118 156.249C148.885 156.701 148.364 156.859 147.954 156.601C147.545 156.343 147.403 155.767 147.636 155.314C150.914 148.957 152.245 142.584 151.958 136.292C151.731 131.338 150.519 126.684 148.639 122.45C147.904 120.795 147.117 119.321 146.332 118.049L146.153 117.762C145.977 117.484 145.81 117.231 145.656 117.006L145.49 116.768L145.309 116.518C145.005 116.121 145.049 115.526 145.409 115.189Z" fill="white"/>
<path fill-rule="evenodd" clip-rule="evenodd" d="M98.7151 129.687C99.0264 129.296 99.5654 129.258 99.9191 129.602C100.259 129.933 100.304 130.497 100.03 130.888L99.9959 130.934L88.9348 144.833C88.6183 145.231 88.0714 145.26 87.7218 144.909L87.6824 144.867L83.8722 140.527C83.544 140.153 83.5519 139.556 83.8899 139.193C84.2144 138.845 84.7251 138.839 85.0558 139.17L85.0961 139.213L88.2634 142.82L98.7151 129.687Z" fill="white"/>
<path fill-rule="evenodd" clip-rule="evenodd" d="M89.2612 194.522C89.2612 194.522 84.8822 201.755 77.7167 203.862C73.4515 205.12 67.793 206.598 66.7693 205.56C64.8358 203.61 70.9777 200.686 71.8876 200.151" fill="white"/>
<path fill-rule="evenodd" clip-rule="evenodd" d="M89.7358 193.739C90.1273 194.028 90.2322 194.614 89.97 195.047L89.9085 195.147C89.851 195.238 89.771 195.36 89.6691 195.512C89.4308 195.866 89.15 196.258 88.8277 196.68C87.91 197.88 86.8408 199.08 85.6279 200.201C83.3025 202.35 80.7313 203.952 77.9365 204.773L76.9374 205.065C70.7563 206.849 67.3524 207.431 66.1946 206.257C65.2939 205.349 65.3632 204.167 66.1348 203.109C66.6802 202.362 67.5771 201.63 68.7705 200.869C69.2319 200.574 69.7098 200.293 70.2375 199.999L71.4159 199.358C71.45 199.339 71.4749 199.326 71.4874 199.318C71.9034 199.074 72.4199 199.249 72.6409 199.709C72.862 200.169 72.7039 200.74 72.2878 200.984L72.1974 201.035C71.9497 201.172 71.347 201.496 71.2243 201.563C70.6339 201.887 70.1151 202.189 69.6233 202.503C68.5985 203.157 67.8424 203.773 67.4625 204.294L67.3982 204.384C67.2042 204.662 67.213 204.731 67.3458 204.865C67.524 205.045 68.8932 205.023 70.8821 204.642C72.6669 204.301 74.8507 203.731 77.4975 202.95C80.0298 202.206 82.3869 200.737 84.5339 198.753C85.6665 197.706 86.6674 196.583 87.5248 195.462C87.7864 195.119 88.0175 194.799 88.2172 194.508L88.386 194.257C88.4127 194.217 88.4376 194.178 88.4608 194.143L88.5524 193.998C88.8145 193.565 89.3443 193.449 89.7358 193.739Z" fill="#2E186A"/>
<path fill-rule="evenodd" clip-rule="evenodd" d="M72.627 196.126C66.741 195.214 62.3052 198.044 64.6937 200.277C65.5752 201.126 78.7973 202.101 82.4654 200.686C85.3089 199.617 86.0766 198.579 90.5977 194.428L86.3041 191.818L81.4702 193.39L72.627 196.126Z" fill="white"/>
<path fill-rule="evenodd" clip-rule="evenodd" d="M65.2391 199.551L65.2232 199.533C65.2196 199.528 65.2222 199.527 65.2297 199.529L65.266 199.541C65.3627 199.577 65.4963 199.616 65.6622 199.656L65.7352 199.673C66.1277 199.764 66.6564 199.856 67.2908 199.943L67.4283 199.961C68.7907 200.142 70.5289 200.29 72.3239 200.376L72.9458 200.404C77.0732 200.568 80.599 200.372 82.1229 199.818L82.272 199.762C83.1914 199.411 83.8604 199.07 84.5266 198.612L84.6686 198.513C85.192 198.141 85.7508 197.673 86.5501 196.947L87.0844 196.455C87.8726 195.724 89.4155 194.288 90.0529 193.702C90.4154 193.37 90.9532 193.425 91.2541 193.826C91.555 194.226 91.5051 194.821 91.1426 195.154L87.7466 198.302L87.5063 198.52C86.6482 199.295 86.0388 199.795 85.4268 200.215C84.6922 200.72 83.9546 201.104 83.0082 201.476L82.7464 201.577L82.6389 201.616C78.9918 202.907 65.4865 202.292 64.1431 200.997C62.4483 199.413 63.0712 197.366 65.1697 196.182C67.0154 195.14 69.8263 194.74 72.7454 195.192C73.2119 195.264 73.5372 195.741 73.4718 196.257C73.4064 196.773 72.9752 197.133 72.5087 197.06C69.9171 196.659 67.4565 197.01 65.9452 197.863C64.8223 198.496 64.6559 198.98 65.2172 199.53L65.2391 199.551Z" fill="#2E186A"/>
<path fill-rule="evenodd" clip-rule="evenodd" d="M89.8868 195.403C91.5929 193.107 92.6734 191.095 93.2137 189.271C93.2137 189.271 94.3227 185.592 93.8961 183.831C91.8204 175.278 89.0907 158.675 79.2807 144.115L82.7782 139.367L62.5895 118.896C60.0873 122.984 57.6987 126.852 55.7083 130.122C52.2961 135.656 52.6089 142.983 56.476 148.14L79.6788 179.051L78.2002 184.177C76.0107 185.309 70.4091 188.516 70.4091 188.516C64.3525 190.906 67.6225 192.887 70.4659 192.699C73.3094 192.51 77.603 190.309 78.2002 189.806C78.2002 189.806 72.1151 193.233 68.4186 192.604C66.0017 192.667 64.4378 195.309 64.5515 196.126C64.6652 196.944 67.3381 196.849 71.2052 197.132C75.0723 197.415 78.8257 194.963 78.8257 194.963" fill="white"/>
<path fill-rule="evenodd" clip-rule="evenodd" d="M91.7906 178.47L91.5401 177.375C90.9653 174.88 90.4522 172.797 89.8764 170.67C88.1904 164.442 86.2143 158.858 83.6694 153.57C82.1597 150.434 80.4765 147.469 78.5966 144.679C78.3748 144.35 78.3721 143.902 78.584 143.571L78.6193 143.519L81.6086 139.461L62.7408 120.329L56.4131 130.653C53.2474 135.788 53.5025 142.567 57.0246 147.392L57.1324 147.538L80.3351 178.449C80.5085 178.68 80.5714 178.987 80.5072 179.276L80.4914 179.338L79.0128 184.464C78.9405 184.714 78.7769 184.92 78.5614 185.031L78.0644 185.293C77.485 185.601 76.7356 186.011 75.8488 186.504L74.9716 186.993L73.7589 187.675C73.4846 187.829 73.2079 187.986 72.9301 188.143L70.8013 189.354C70.7671 189.374 70.7319 189.391 70.6957 189.405L70.4345 189.51C69.2436 190 68.4485 190.476 68.0462 190.893C67.9521 190.991 67.8946 191.069 67.8648 191.122L67.8601 191.131L67.863 191.135C67.9601 191.25 68.2088 191.405 68.5699 191.53L68.6437 191.555C68.8847 191.632 69.1509 191.69 69.4275 191.726L69.5239 191.736L69.6494 191.733C70.2282 191.712 70.8748 191.617 71.5776 191.454L71.7408 191.416C72.7314 191.174 73.7936 190.812 74.8864 190.36C75.6275 190.053 76.3381 189.725 76.9917 189.396L77.2119 189.284C77.2825 189.248 77.3504 189.213 77.4154 189.179L77.7179 189.017C77.7611 188.994 77.793 188.976 77.813 188.965C78.7391 188.443 79.5439 189.859 78.7171 190.556C77.531 191.555 72.9969 193.476 70.517 193.64C70.2173 193.66 69.9171 193.66 69.6223 193.641L69.4238 193.625L69.2903 193.624C68.9904 193.62 68.7022 193.598 68.426 193.558L68.3754 193.55L68.3408 193.552C67.5594 193.602 66.8231 194.008 66.2215 194.658L66.147 194.741C65.8818 195.042 65.6656 195.371 65.5271 195.67L65.4995 195.731L65.5333 195.74C65.5701 195.749 65.6096 195.757 65.6517 195.766L65.7168 195.779C66.1825 195.868 66.8058 195.925 67.9428 195.992L69.6327 196.086C70.2324 196.121 70.7479 196.154 71.2615 196.191C72.8913 196.31 74.6497 195.915 76.3886 195.178C76.927 194.95 77.4226 194.705 77.8629 194.462L78.0372 194.364C78.0923 194.332 78.1443 194.302 78.1932 194.272L78.3917 194.151C78.7973 193.886 79.3204 194.034 79.5601 194.483C79.7998 194.931 79.6653 195.51 79.2597 195.775L79.1513 195.844C79.0258 195.921 78.8492 196.026 78.6265 196.149C78.1384 196.419 77.5922 196.688 76.9992 196.94C75.0492 197.766 73.0596 198.214 71.1489 198.074L70.4671 198.027C70.2344 198.012 69.994 197.997 69.7387 197.982L67.7274 197.869C66.6397 197.803 66.0068 197.744 65.4848 197.649L65.4273 197.638C64.4245 197.447 63.8265 197.119 63.7084 196.27C63.5293 194.982 64.734 193.197 66.3597 192.271L66.462 192.214L66.4478 192.193C66.4335 192.171 66.4196 192.149 66.4062 192.126L66.3675 192.058C65.9163 191.222 66.1373 190.285 66.8797 189.516C67.4931 188.881 68.5141 188.276 69.9702 187.689L70.067 187.65L71.3157 186.938L72.1529 186.463C72.5708 186.227 72.9865 185.992 73.395 185.762L74.817 184.966C75.6771 184.487 76.4199 184.079 77.0215 183.755L77.5001 183.499L78.7239 179.256L55.8194 148.742C51.7504 143.316 51.3842 135.628 54.8931 129.772L59.2555 122.649C60.5405 120.555 61.6554 118.739 61.8831 118.367C62.165 117.906 62.7406 117.817 63.1255 118.162L63.166 118.2L83.3546 138.672C83.6743 138.996 83.7214 139.53 83.4722 139.915L83.4395 139.963L80.3589 144.144L80.5114 144.376C82.1349 146.863 83.6104 149.481 84.9529 152.225L85.1754 152.684C87.7786 158.093 89.7947 163.79 91.5108 170.129L91.6684 170.715C92.163 172.572 92.6179 174.424 93.1142 176.566L93.5277 178.375L94.2907 181.756C94.4552 182.476 94.5897 183.049 94.7201 183.587C94.8903 184.289 94.8816 185.174 94.7444 186.227C94.6718 186.783 94.5648 187.369 94.4323 187.967C94.3435 188.369 94.2484 188.752 94.1532 189.106L94.0697 189.409C94.0512 189.474 94.0358 189.527 94.0243 189.565C93.442 191.531 92.2983 193.644 90.5458 196.002C90.2467 196.404 89.7091 196.463 89.3452 196.132C88.9812 195.801 88.9287 195.206 89.2278 194.804C90.8095 192.676 91.8346 190.804 92.3594 189.121L92.434 188.871L92.4955 188.651C92.5028 188.624 92.5103 188.597 92.5179 188.568C92.6056 188.243 92.6933 187.888 92.7751 187.519C92.8954 186.975 92.9918 186.448 93.0558 185.957C93.1628 185.136 93.1693 184.476 93.0722 184.076L92.952 183.575C92.8294 183.059 92.6978 182.489 92.538 181.785L91.7906 178.47Z" fill="#2E186A"/>
<path fill-rule="evenodd" clip-rule="evenodd" d="M120.938 186.755L131.97 187.101L141.411 138.046C141.61 136.946 142.406 136.191 143.344 136.222L213.095 137.386C214.374 137.417 215.312 138.895 215.028 140.405L206.185 192.73C205.559 195.969 201.863 198.485 199.218 198.422C182.072 198.107 130.662 197.038 128.643 197.007C119.345 196.818 120.938 186.755 120.938 186.755Z" fill="#2E186A"/>
<path fill-rule="evenodd" clip-rule="evenodd" d="M187.532 189.208C187.532 189.208 193.702 185.057 195.01 188.454C196.318 191.85 185.683 197.101 185.683 197.101" fill="white"/>
<path fill-rule="evenodd" clip-rule="evenodd" d="M191.179 186.446C193.358 185.825 195.069 186.199 195.795 188.084C196.284 189.354 195.783 190.676 194.608 192.022C193.722 193.036 192.435 194.085 190.846 195.154C189.791 195.864 188.665 196.541 187.54 197.164L187.209 197.345C186.994 197.462 186.788 197.572 186.595 197.673L186.213 197.871L186.031 197.962C185.601 198.175 185.097 197.961 184.904 197.486C184.712 197.01 184.905 196.452 185.336 196.24L185.5 196.157L185.726 196.04C186.043 195.876 186.396 195.687 186.776 195.476C187.863 194.875 188.949 194.222 189.959 193.542C191.435 192.549 192.615 191.587 193.381 190.711C194.131 189.851 194.374 189.21 194.225 188.823C193.925 188.044 193.067 187.856 191.605 188.273C191.014 188.441 190.376 188.7 189.717 189.025C189.274 189.243 188.849 189.477 188.459 189.711L188.303 189.806L188.096 189.935C188.035 189.974 187.994 190.001 187.975 190.014C187.572 190.285 187.048 190.144 186.803 189.698C186.558 189.253 186.686 188.673 187.088 188.402L187.239 188.304C187.345 188.236 187.482 188.151 187.646 188.052C188.073 187.796 188.537 187.54 189.022 187.301C189.762 186.937 190.487 186.643 191.179 186.446Z" fill="#2E186A"/>
<path fill-rule="evenodd" clip-rule="evenodd" d="M160.121 197.101C175.077 204.805 183.608 203.767 188.299 194.082C191.797 186.85 196.091 175.561 193.19 175.152C190.176 175.592 186.764 187.101 186.764 187.101C186.764 187.101 192.65 173.234 189.494 173.674C187.077 174.051 185.029 177.762 182.527 186.284C182.527 186.284 186.337 176.881 186.252 175.152C186.053 170.278 182.328 167.542 178.376 185.906L180.48 176.819C181.134 172.668 177.551 174.617 175.618 178.863C173.542 183.422 169.845 190.655 168.509 195.057" fill="white"/>
<path fill-rule="evenodd" clip-rule="evenodd" d="M170.937 186.782L171.349 185.892L171.843 184.838C172.214 184.056 174.295 179.666 174.836 178.482L174.856 178.438C175.855 176.244 177.35 174.455 178.684 173.825C179.664 173.361 180.455 173.541 180.926 174.194L180.967 174.253L180.998 174.186C181.731 172.633 182.47 171.594 183.211 171.056L183.269 171.015C184.347 170.27 185.454 170.551 186.179 171.632C186.571 172.217 186.846 173.024 186.992 173.946L187.008 174.056L187.022 174.043C187.742 173.318 188.493 172.899 189.3 172.753L189.387 172.738C190.145 172.632 190.77 173.014 191.069 173.757C191.231 174.16 191.292 174.646 191.275 175.224L191.272 175.295L191.338 175.227C191.442 175.122 191.546 175.024 191.65 174.935L191.729 174.869C192.165 174.511 192.614 174.285 193.078 174.217C193.151 174.206 193.225 174.206 193.298 174.216C194.556 174.393 195.063 175.59 194.994 177.307C194.942 178.587 194.581 180.291 193.953 182.359C192.874 185.906 191.01 190.476 189.051 194.528C184.073 204.804 175 205.806 159.76 197.956C159.333 197.736 159.148 197.175 159.347 196.703C159.546 196.23 160.054 196.026 160.481 196.246C175.002 203.726 183.093 202.832 187.547 193.637C189.418 189.769 191.202 185.412 192.258 182.011L192.335 181.758C192.917 179.843 193.246 178.291 193.289 177.223C193.309 176.733 193.266 176.38 193.184 176.186L193.168 176.15C193.166 176.145 193.163 176.141 193.161 176.137L193.156 176.128L193.124 176.141C193.028 176.182 192.921 176.247 192.804 176.337L192.745 176.384C191.978 177.014 191.092 178.438 190.178 180.42L190.099 180.591L190.066 180.696C189.894 181.234 189.708 181.79 189.509 182.361L189.388 182.705C188.983 183.849 188.55 184.992 188.117 186.08L187.989 186.399C187.927 186.554 187.867 186.702 187.809 186.843L187.536 187.502C187.089 188.556 185.667 187.952 185.939 186.861L185.966 186.766L186.117 186.277L186.218 185.957C186.324 185.628 186.44 185.274 186.567 184.901C187.05 183.477 187.581 182.053 188.147 180.72C188.216 180.556 188.286 180.394 188.355 180.236L188.527 179.849L188.575 179.695C189.092 178.033 189.426 176.65 189.534 175.656L189.545 175.547C189.582 175.157 189.577 174.856 189.546 174.668L189.538 174.622L189.496 174.63C188.543 174.842 187.591 175.827 186.584 177.76L186.542 177.84L186.519 177.916C186.305 178.614 186.034 179.42 185.711 180.335L185.499 180.93C185.397 181.216 185.29 181.509 185.181 181.807C184.852 182.699 184.506 183.614 184.155 184.518L183.827 185.359L183.306 186.67C182.865 187.757 181.383 187.126 181.716 185.992L181.868 185.477C182.932 181.91 183.925 179.175 184.928 177.168L184.966 177.092L185.051 176.806C185.278 176.025 185.402 175.472 185.401 175.222L185.4 175.195C185.357 174.134 185.127 173.231 184.808 172.755C184.597 172.441 184.471 172.409 184.174 172.615C182.989 173.433 181.539 176.668 180.091 182.34L179.987 182.749L179.202 186.14C178.927 187.329 177.336 186.915 177.535 185.745L177.546 185.688C177.774 184.628 178.004 183.626 178.235 182.681L178.343 182.243L179.644 176.622L179.655 176.554C179.703 176.216 179.716 175.937 179.698 175.723L179.692 175.661C179.684 175.59 179.672 175.531 179.659 175.486L179.652 175.464L179.638 175.466C179.58 175.473 179.501 175.495 179.404 175.537L179.354 175.56C178.458 175.983 177.27 177.389 176.44 179.157L175.89 180.341C174.988 182.269 173.381 185.66 173.303 185.822L172.972 186.529C172.866 186.757 172.762 186.98 172.661 187.198L172.362 187.846C170.868 191.106 169.874 193.525 169.318 195.357C169.168 195.851 168.684 196.117 168.237 195.951C167.791 195.786 167.55 195.251 167.7 194.757L167.779 194.501C168.392 192.556 169.421 190.079 170.937 186.782Z" fill="#2E186A"/>
<rect width="4.8794" height="9.32939" transform="matrix(-0.947781 0.318922 -0.265283 -0.964171 121.241 24.8674)" fill="#FE7624"/>
<path fill-rule="evenodd" clip-rule="evenodd" d="M113.999 19.0561C118.695 19.0561 122.501 14.8465 122.501 9.65382C122.501 4.46111 118.695 0.251587 113.999 0.251587C109.304 0.251587 105.497 4.46111 105.497 9.65382C105.497 14.8465 109.304 19.0561 113.999 19.0561Z" fill="#2E186A"/>
<path fill-rule="evenodd" clip-rule="evenodd" d="M117.696 21.1315C125.174 19.4334 135.013 19.968 141.951 23.9616C162.879 37.3888 162.793 53.7405 153.637 60.7844C154.32 48.1432 152.756 43.1119 148.946 39.7158C144.481 46.7596 129.013 53.4575 116.388 52.0425C116.388 51.9796 115.194 64.5578 116.303 64.6207C116.416 65.3754 118.009 72.3563 118.009 72.3563L115.023 85.5321L85.1666 76.6015C83.4605 76.3499 82.3515 74.3374 82.9487 72.6079C86.5883 61.8221 93.6117 26.9803 117.696 21.1315Z" fill="#2E186A"/>
<path fill-rule="evenodd" clip-rule="evenodd" d="M135.496 85.4691L134.359 96.538L137.828 97.8273C138.311 98.8964 142.946 114.431 127.506 113.519C117.44 112.921 105.128 100.091 103.791 92.1671L106.72 92.1042C111.071 91.6954 113.914 88.7709 115.194 84.1484L118.663 71.5702L135.496 85.4691Z" fill="white"/>
<path fill-rule="evenodd" clip-rule="evenodd" d="M114.378 83.8733L114.336 84.0224C113.115 88.2764 110.544 90.7465 106.78 91.151L106.673 91.1615L103.775 91.2239C103.248 91.2352 102.856 91.7671 102.953 92.3401C103.651 96.4805 107.095 101.824 111.82 106.306C116.837 111.067 122.532 114.168 127.46 114.461C134.658 114.886 138.511 111.889 139.474 106.602C139.813 104.741 139.763 102.72 139.429 100.69L139.385 100.43C139.156 99.135 138.815 97.901 138.591 97.4054L138.564 97.3508C138.46 97.1547 138.295 97.0059 138.099 96.9331L135.284 95.8868L136.344 85.5757C136.378 85.2424 136.249 84.914 136.006 84.7133L119.173 70.8143C118.7 70.4235 118.019 70.6702 117.847 71.295L114.378 83.8733ZM119.124 73.1287L134.593 85.9006L133.511 96.4315L133.507 96.489C133.487 96.9093 133.722 97.2967 134.087 97.4323L137.182 98.5826L137.195 98.6241C137.24 98.7653 137.29 98.9346 137.339 99.1176C137.495 99.6914 137.638 100.343 137.751 101.027C138.048 102.84 138.093 104.63 137.802 106.23C137.013 110.56 133.935 112.954 127.551 112.577C123.054 112.31 117.688 109.388 112.93 104.874L112.775 104.727C108.862 100.974 105.92 96.6299 104.907 93.1798L104.88 93.0872L106.737 93.0474L106.792 93.0442C111.393 92.6119 114.595 89.5333 116.009 84.4246L119.124 73.1287Z" fill="#2E186A"/>
<path fill-rule="evenodd" clip-rule="evenodd" d="M118.464 68.6772L116.757 68.8344C116.757 68.8344 106.891 68.8973 107.715 58.8662C108.341 51.2563 115.08 52.5771 118.293 53.6462" fill="white"/>
<path fill-rule="evenodd" clip-rule="evenodd" d="M111.864 52.0772C113.863 51.6269 116.169 51.9544 118.539 52.7429C118.99 52.893 119.246 53.4191 119.11 53.918C118.974 54.4169 118.498 54.6997 118.047 54.5496C115.924 53.843 113.869 53.5512 112.204 53.926C110.074 54.4057 108.814 55.9271 108.565 58.9516C108.227 63.0605 109.743 65.5376 112.552 66.89C113.459 67.3266 114.441 67.6094 115.425 67.766C115.774 67.8214 116.098 67.8567 116.389 67.8761L116.533 67.8844L116.725 67.8908L118.393 67.7371C118.846 67.6954 119.245 68.0527 119.308 68.5438L119.314 68.5989C119.351 69.0995 119.028 69.5414 118.584 69.6111L118.535 69.6173L116.828 69.7746L116.795 69.7769L116.759 69.7778L116.639 69.7763C116.561 69.7744 116.466 69.7704 116.355 69.7637L116.286 69.7594C115.95 69.7371 115.579 69.6966 115.183 69.6335C114.057 69.4545 112.931 69.1301 111.872 68.62C108.422 66.9595 106.457 63.7489 106.866 58.7808C107.183 54.9178 109.003 52.7214 111.864 52.0772Z" fill="#2E186A"/>
<path fill-rule="evenodd" clip-rule="evenodd" d="M153.637 60.8158C154.32 48.1747 152.756 43.615 148.946 40.2504C144.538 47.1998 130.747 53.9292 116.701 52.1368C116.217 53.8349 116.615 52.3255 116.331 54.2122C116.16 56.1933 116.018 58.4259 115.933 60.3441C116.103 67.608 117.98 72.4192 117.98 72.4192C120.539 79.8718 125.515 85.9723 132.937 87.8905C145.875 91.2551 151.988 71.3501 152.87 66.8848C153.325 64.6207 153.637 60.8158 153.637 60.8158Z" fill="white"/>
<path fill-rule="evenodd" clip-rule="evenodd" d="M148.247 39.7087C146.128 43.0505 141.678 46.3485 136.145 48.5858C130.09 51.0341 123.288 52.0277 116.798 51.1997C116.392 51.1478 116.01 51.4221 115.887 51.8535L115.663 52.6359L115.628 52.771C115.598 52.893 115.586 52.9826 115.587 53.0967L115.589 53.1561C115.59 53.1722 115.592 53.1972 115.593 53.2031L115.59 53.2601L115.58 53.3786C115.564 53.5309 115.535 53.7528 115.49 54.0571L115.482 54.1228C115.314 56.0713 115.169 58.315 115.081 60.2978C115.08 60.3214 115.08 60.345 115.08 60.3686C115.156 63.5932 115.559 66.5857 116.179 69.2753C116.38 70.1473 116.592 70.9331 116.805 71.6259L116.893 71.9087C116.983 72.1914 117.061 72.4203 117.123 72.5933L117.183 72.7541C120.032 81.053 125.46 86.9267 132.743 88.8091C138.889 90.4076 144.042 87.2757 148.122 80.867C150.814 76.6381 152.882 71.0754 153.664 67.2807L153.703 67.086C153.906 66.0737 154.095 64.7168 154.265 63.1658C154.313 62.7305 154.357 62.3033 154.397 61.8942L154.456 61.2564C154.469 61.1079 154.48 60.9882 154.487 60.9017C155.148 48.6634 153.826 43.3525 149.478 39.5132C149.093 39.1737 148.53 39.2633 148.247 39.7087ZM117.297 53.1789L117.303 53.156L117.513 53.1785C123.996 53.8413 130.715 52.7903 136.731 50.3578L136.944 50.271C142.184 48.117 146.516 45.0364 148.992 41.7345L149.079 41.617L149.177 41.7183C152.392 45.06 153.371 49.9169 152.786 60.7596L152.728 61.3969C152.692 61.7877 152.651 62.199 152.606 62.6203L152.572 62.938C152.415 64.3649 152.243 65.619 152.063 66.5495L152.037 66.6802C151.332 70.2496 149.324 75.7007 146.727 79.7808C143.008 85.6225 138.494 88.3665 133.132 86.9721C126.439 85.2422 121.437 79.8289 118.778 72.0843L118.713 71.9102L118.683 71.8256C118.631 71.6763 118.573 71.5048 118.512 71.3119L118.474 71.1936C118.258 70.5054 118.04 69.7075 117.832 68.8091L117.768 68.5236C117.236 66.1343 116.883 63.4942 116.795 60.6606L116.786 60.3561L116.806 59.935C116.887 58.2501 117.006 56.4093 117.142 54.7496L117.177 54.3345L117.224 54.0144C117.279 53.6204 117.297 53.4118 117.298 53.2269L117.297 53.1789Z" fill="#2E186A"/>
<path fill-rule="evenodd" clip-rule="evenodd" d="M144.341 53.1121C144.795 53.0962 145.177 53.4758 145.217 53.9699L145.22 54.0252L145.704 70.943C145.72 71.5099 145.285 71.9597 144.781 71.913L144.73 71.9066L140.949 71.3092C140.482 71.2355 140.158 70.7576 140.225 70.2419C140.289 69.7445 140.693 69.3935 141.14 69.4351L141.19 69.4414L143.966 69.88L143.515 54.0848C143.501 53.5827 143.844 53.1598 144.291 53.1155L144.341 53.1121Z" fill="#2E186A"/>
<path fill-rule="evenodd" clip-rule="evenodd" d="M133.887 51.1084C135.179 50.2237 136.551 49.875 137.891 50.4468C138.319 50.6296 138.724 50.9041 139.102 51.2713C139.456 51.6153 139.49 52.2114 139.179 52.6026C138.868 52.9939 138.329 53.0321 137.975 52.688C137.747 52.466 137.514 52.3086 137.277 52.207C136.531 51.8887 135.669 52.1079 134.785 52.7126C134.566 52.8627 134.365 53.0241 134.188 53.1846L134.088 53.2781C134.04 53.3235 134.007 53.3574 133.989 53.3768C133.652 53.7414 133.112 53.7352 132.782 53.363C132.453 52.9908 132.458 52.3936 132.795 52.029C133.019 51.786 133.393 51.4465 133.887 51.1084Z" fill="#2E186A"/>
<path fill-rule="evenodd" clip-rule="evenodd" d="M133.79 73.7275C134.252 73.6235 134.702 73.953 134.797 74.4636C134.982 75.4707 135.537 76.0587 136.423 76.3701C137.022 76.5809 137.678 76.6313 138.239 76.5877L138.348 76.5773C138.815 76.5127 139.241 76.8794 139.3 77.3964C139.358 77.9134 139.027 78.3849 138.559 78.4495L138.496 78.4572C138.459 78.4612 138.413 78.4656 138.359 78.4698C137.601 78.5286 136.744 78.4628 135.906 78.1682C134.471 77.6635 133.445 76.5772 133.125 74.8402C133.031 74.3296 133.329 73.8315 133.79 73.7275Z" fill="#2E186A"/>
<path fill-rule="evenodd" clip-rule="evenodd" d="M149.28 53.4384C150.126 53.18 150.999 53.0791 151.845 53.2352C153.055 53.4586 154.049 54.194 154.675 55.4996C154.896 55.9598 154.738 56.5309 154.322 56.7751C153.905 57.0193 153.389 56.8441 153.168 56.3839C152.802 55.62 152.27 55.2266 151.564 55.0962C150.999 54.9918 150.361 55.0655 149.734 55.257C149.614 55.2937 149.502 55.3323 149.402 55.371L149.246 55.4344L149.202 55.4542C148.77 55.6626 148.267 55.4445 148.079 54.967C147.89 54.4895 148.087 53.9334 148.519 53.725L148.607 53.6841C148.768 53.6125 148.997 53.5247 149.28 53.4384Z" fill="#2E186A"/>
<path fill-rule="evenodd" clip-rule="evenodd" d="M137.507 60.4692C137.695 59.2889 137.283 58.2224 136.587 58.0871C135.891 57.9517 135.174 58.7988 134.987 59.979C134.799 61.1592 135.211 62.2257 135.907 62.3611C136.603 62.4964 137.32 61.6494 137.507 60.4692Z" fill="#2E186A"/>
<path fill-rule="evenodd" clip-rule="evenodd" d="M150.779 62.9718C150.967 61.7916 150.555 60.7251 149.859 60.5897C149.163 60.4544 148.447 61.3014 148.259 62.4816C148.071 63.6618 148.483 64.7283 149.179 64.8637C149.875 64.999 150.592 64.152 150.779 62.9718Z" fill="#2E186A"/>
<path fill-rule="evenodd" clip-rule="evenodd" d="M125.045 55.1716C124.061 61.9433 127.185 68.3154 132.17 69.3271C137.155 70.3387 141.897 65.563 142.881 58.7913C143.864 52.0197 140.74 45.6475 135.756 44.6359C130.771 43.6243 126.028 48.4 125.045 55.1716ZM126.749 55.5178C127.599 49.665 131.565 45.6722 135.49 46.4685C139.414 47.2648 142.026 52.5924 141.176 58.4451C140.326 64.2979 136.36 68.2907 132.436 67.4944C128.511 66.6981 125.899 61.3706 126.749 55.5178Z" fill="#FE7624"/>
<path fill-rule="evenodd" clip-rule="evenodd" d="M145.977 59.986C144.993 66.7577 148.117 73.1298 153.102 74.1414C158.087 75.1531 162.829 70.3774 163.813 63.6057C164.796 56.834 161.672 50.4619 156.688 49.4503C151.703 48.4387 146.96 53.2143 145.977 59.986ZM147.681 60.3322C148.531 54.4794 152.497 50.4866 156.422 51.2829C160.346 52.0792 162.959 57.4067 162.108 63.2595C161.258 69.1123 157.292 73.1051 153.368 72.3088C149.443 71.5125 146.831 66.185 147.681 60.3322Z" fill="#FE7624"/>
<path fill-rule="evenodd" clip-rule="evenodd" d="M141.106 57.6696C141.167 57.1718 141.569 56.818 142.016 56.8564L142.066 56.8623L147.071 57.617C147.537 57.6874 147.864 58.163 147.801 58.6792C147.739 59.177 147.337 59.5309 146.89 59.4924L146.84 59.4865L141.836 58.7318C141.369 58.6614 141.042 58.1858 141.106 57.6696Z" fill="#FE7624"/>
<path fill-rule="evenodd" clip-rule="evenodd" d="M115.535 52.1059L126.426 52.5147C126.897 52.5324 127.265 52.9688 127.249 53.4896C127.234 53.9917 126.866 54.3888 126.418 54.4007L126.368 54.4004L115.477 53.9916C115.007 53.9739 114.638 53.5375 114.654 53.0168C114.669 52.5146 115.037 52.1175 115.485 52.1057L115.535 52.1059Z" fill="#FE7624"/>
<path fill-rule="evenodd" clip-rule="evenodd" d="M81.5554 123.172L96.2846 117.701L88.0954 99.6826L71.6602 109.148L81.5554 123.172Z" fill="white"/>
<path fill-rule="evenodd" clip-rule="evenodd" d="M89.4036 101.381C89.4036 101.381 94.4649 109.399 96.0573 111.946C98.6164 116.066 97.9055 120.783 93.6403 118.927" fill="white"/>
<path fill-rule="evenodd" clip-rule="evenodd" d="M88.9151 100.607C89.2866 100.32 89.7925 100.406 90.0706 100.793L90.1151 100.86L96.7602 111.412C98.1398 113.633 98.7104 116.132 98.2258 117.945C97.6448 120.118 95.7524 120.86 93.3279 119.805C92.8895 119.615 92.6739 119.067 92.8463 118.582C93.0188 118.097 93.514 117.859 93.9524 118.049C95.5181 118.73 96.3208 118.416 96.5898 117.41C96.9028 116.239 96.4861 114.358 95.4286 112.602L92.2672 107.571L88.7039 101.921C88.4343 101.493 88.5288 100.905 88.9151 100.607Z" fill="#2E186A"/>
<path fill-rule="evenodd" clip-rule="evenodd" d="M85.6216 107.23C85.6216 107.23 94.7207 118.927 95.3747 122.292C96.0287 125.657 92.2469 127.732 89.1191 122.481" fill="white"/>
<path fill-rule="evenodd" clip-rule="evenodd" d="M85.0653 106.514C85.4225 106.175 85.9611 106.219 86.2683 106.614L86.6933 107.166L86.9232 107.467C87.1977 107.828 87.4941 108.219 87.8079 108.638C88.9609 110.176 90.1141 111.758 91.1914 113.298C91.4317 113.641 91.6659 113.979 91.8935 114.311L92.1188 114.642C94.4838 118.12 95.9275 120.647 96.2087 122.094C96.624 124.23 95.6073 126.142 93.8356 126.542C92.0232 126.951 90.0078 125.688 88.4067 123C88.1475 122.565 88.2564 121.979 88.6498 121.693C89.0433 121.406 89.5723 121.527 89.8315 121.962C91.0842 124.065 92.4592 124.927 93.4946 124.693C94.2989 124.512 94.7637 123.638 94.5407 122.49C94.3344 121.429 92.9424 118.993 90.7551 115.775C90.4625 115.345 90.1577 114.903 89.842 114.452C88.7777 112.931 87.6363 111.365 86.4947 109.842L85.8568 108.996L85.1963 108.131L84.9749 107.845C84.6677 107.45 84.7082 106.854 85.0653 106.514Z" fill="#2E186A"/>
<path fill-rule="evenodd" clip-rule="evenodd" d="M82.0105 110.343C82.0105 110.343 90.6546 121.632 89.6025 125.437C88.4652 129.713 82.9772 121.066 80.9868 118.581" fill="white"/>
<path fill-rule="evenodd" clip-rule="evenodd" d="M81.4592 109.623C81.8049 109.299 82.3159 109.332 82.6253 109.689L82.6729 109.748L82.9449 110.11L83.3111 110.606C83.4907 110.851 83.681 111.114 83.88 111.393C84.7901 112.667 85.7002 114.01 86.551 115.361C87.1262 116.275 87.6548 117.162 88.127 118.014C90.0096 121.409 90.897 123.981 90.4209 125.703C89.9766 127.373 88.8217 127.932 87.4801 127.285C86.597 126.859 85.6 125.929 84.4149 124.531C83.9987 124.04 83.564 123.496 83.0941 122.883L82.682 122.336C81.9213 121.316 80.6128 119.537 80.3484 119.207C80.0359 118.817 80.0685 118.221 80.4211 117.875C80.7737 117.53 81.3129 117.566 81.6253 117.956L81.7444 118.109C82.2873 118.818 83.9289 121.055 84.3953 121.663C84.7979 122.188 85.1716 122.658 85.5271 123.083L85.6595 123.24C86.6957 124.463 87.5513 125.261 88.1623 125.556L88.2412 125.593C88.5878 125.751 88.6453 125.693 88.7868 125.161C89.0634 124.16 88.2886 121.915 86.6726 119C86.2188 118.182 85.7081 117.325 85.1509 116.439C84.3215 115.122 83.4314 113.809 82.5412 112.563L82.2006 112.089C82.0537 111.886 81.9132 111.694 81.7799 111.514L81.3595 110.952C81.055 110.555 81.0997 109.959 81.4592 109.623Z" fill="#2E186A"/>
<path fill-rule="evenodd" clip-rule="evenodd" d="M89.4034 101.381L94.0667 103.865C94.1804 103.928 94.3226 103.991 94.4648 104.054C97.3651 105.091 98.4457 104.022 98.8437 102.733C99.2418 101.412 98.8437 99.9656 97.9054 99.0223C92.4459 93.4249 78.6267 91.7898 78.6267 91.7898C75.2714 91.3495 66.4566 95.4375 68.0489 103.645C69.6413 111.852 74.8733 122.292 79.7925 125.342C84.6833 128.361 85.8775 124.808 81.0152 118.613C80.9583 118.519 77.404 113.613 77.404 113.613" fill="white"/>
<path fill-rule="evenodd" clip-rule="evenodd" d="M70.9736 93.7173C73.347 91.7661 76.5352 90.621 78.6076 90.8388L78.9698 90.884L79.2941 90.9287C79.4099 90.9452 79.5332 90.9632 79.6637 90.9828L80.1199 91.0533C80.7411 91.152 81.4135 91.2695 82.1264 91.4069C84.6742 91.898 87.2231 92.541 89.6085 93.3557C93.4563 94.67 96.5084 96.3034 98.4793 98.3242C99.6777 99.529 100.154 101.368 99.6511 103.038C98.9933 105.168 97.1917 105.981 94.3194 104.992L94.2023 104.951L94.1481 104.929L93.9361 104.834C93.85 104.795 93.7883 104.764 93.7272 104.731L89.0333 102.231C88.6089 102.004 88.4306 101.441 88.635 100.971C88.8319 100.519 89.3119 100.32 89.7262 100.507L89.7737 100.531L94.4859 103.041C94.5126 103.055 94.5434 103.07 94.583 103.088L94.753 103.165L94.832 103.193C96.8322 103.887 97.6714 103.531 98.0171 102.489L98.0346 102.435C98.317 101.497 98.0414 100.434 97.3256 99.7141C95.5749 97.9192 92.7299 96.3966 89.105 95.1584C86.7961 94.3698 84.3152 93.7439 81.8334 93.2656C81.0511 93.1148 80.3193 92.9887 79.6535 92.8858L79.4341 92.8524C79.2237 92.8208 79.0334 92.7935 78.8645 92.7705L78.5263 92.7266C76.9138 92.515 74.0778 93.5163 71.9915 95.2315C69.4387 97.3302 68.2399 100.132 68.8831 103.447C70.5109 111.837 75.749 121.753 80.2083 124.518C82.1399 125.711 83.1163 125.703 83.2358 125.195C83.4673 124.21 82.4932 121.935 80.3711 119.231L80.3369 119.185L80.2781 119.098L77.9338 115.854L76.7384 114.203C76.4438 113.796 76.503 113.203 76.8707 112.877C77.2242 112.564 77.7341 112.612 78.0347 112.978L78.225 113.237L81.5346 117.817L81.669 118.007L81.7689 118.135C84.1206 121.167 85.2633 123.838 84.9046 125.59L84.887 125.67C84.6319 126.755 83.822 127.371 82.7365 127.379C81.8159 127.386 80.6797 126.97 79.3754 126.165C74.418 123.091 68.9359 112.713 67.215 103.843C66.4188 99.739 67.9219 96.2263 70.9736 93.7173Z" fill="#2E186A"/>
<path fill-rule="evenodd" clip-rule="evenodd" d="M338.292 111.663L323.307 107.261L330.444 88.6766L347.363 97.0097L338.292 111.663Z" fill="white"/>
<path fill-rule="evenodd" clip-rule="evenodd" d="M329.222 90.469C329.222 90.469 324.615 98.8335 323.194 101.475C320.862 105.752 321.857 110.437 326.009 108.267" fill="white"/>
<path fill-rule="evenodd" clip-rule="evenodd" d="M329.666 89.6633C330.053 89.9243 330.186 90.4722 329.976 90.9097L329.674 91.4622L327.207 95.95L324.261 101.34L323.924 101.962C322.913 103.818 322.581 105.787 322.971 106.963C323.299 107.952 324.122 108.21 325.644 107.414C326.07 107.192 326.579 107.393 326.78 107.864C326.981 108.335 326.799 108.898 326.373 109.12C324.014 110.353 322.077 109.746 321.369 107.614C320.79 105.867 321.19 103.39 322.389 101.125L323.259 99.5197L325.272 95.8401L328.493 89.9783C328.738 89.5333 329.263 89.3923 329.666 89.6633Z" fill="#2E186A"/>
<path fill-rule="evenodd" clip-rule="evenodd" d="M333.345 96.0349C333.345 96.0349 324.928 108.362 324.473 111.758C324.018 115.154 327.885 116.978 330.729 111.506" fill="white"/>
<path fill-rule="evenodd" clip-rule="evenodd" d="M333.859 95.2821C334.235 95.596 334.309 96.1876 334.026 96.6034L333.647 97.1628L333.225 97.7951C333.077 98.0164 332.924 98.2479 332.765 98.4885L332.645 98.6707C331.609 100.247 330.572 101.869 329.605 103.445C329.372 103.827 329.144 104.202 328.924 104.569L328.76 104.844C326.732 108.252 325.462 110.815 325.317 111.896C325.162 113.056 325.674 113.897 326.483 114.023C327.526 114.185 328.849 113.229 329.989 111.036C330.224 110.584 330.745 110.429 331.154 110.688C331.562 110.948 331.703 111.524 331.468 111.976C330.014 114.775 328.075 116.176 326.245 115.892C324.459 115.614 323.34 113.777 323.629 111.619C323.827 110.146 325.142 107.491 327.335 103.806C327.61 103.344 327.897 102.871 328.193 102.387C329.049 100.99 329.958 99.5613 330.873 98.1597L331.266 97.5608C331.469 97.2513 331.665 96.9559 331.851 96.6765L332.401 95.8553L332.664 95.4664C332.948 95.0507 333.483 94.9681 333.859 95.2821Z" fill="#2E186A"/>
<path fill-rule="evenodd" clip-rule="evenodd" d="M337.127 98.9279C337.127 98.9279 329.165 110.783 330.388 114.525C331.781 118.707 336.757 109.714 338.577 107.072" fill="white"/>
<path fill-rule="evenodd" clip-rule="evenodd" d="M337.635 98.1706C337.999 98.4693 338.086 99.0271 337.843 99.4414L337.791 99.5213L337.524 99.9273L337.252 100.348C337.096 100.592 336.929 100.854 336.755 101.132C335.959 102.403 335.164 103.743 334.422 105.088C333.918 106.002 333.457 106.886 333.048 107.731L332.903 108.033C331.502 110.985 330.871 113.228 331.188 114.199L331.225 114.305C331.375 114.734 331.447 114.745 331.774 114.578C332.321 114.298 333.081 113.528 333.984 112.348C334.37 111.844 334.776 111.275 335.214 110.628L335.417 110.326C336.025 109.409 337.628 106.893 337.898 106.501C338.184 106.086 338.719 106.006 339.094 106.322C339.469 106.638 339.541 107.23 339.256 107.644L339.079 107.911C338.568 108.693 337.263 110.737 336.75 111.506L336.716 111.556C336.207 112.315 335.737 112.979 335.286 113.567L335.078 113.836C334.112 115.064 333.269 115.892 332.49 116.29C331.232 116.933 330.109 116.416 329.586 114.846C329.023 113.123 329.801 110.437 331.544 106.84C331.969 105.962 332.446 105.048 332.965 104.106C333.641 102.88 334.359 101.662 335.082 100.494L335.353 100.058C335.566 99.717 335.768 99.399 335.956 99.1073L336.322 98.5467L336.442 98.3654C336.723 97.9472 337.257 97.8599 337.635 98.1706Z" fill="#2E186A"/>
<path fill-rule="evenodd" clip-rule="evenodd" d="M329.222 90.469L324.729 93.2676C324.616 93.3305 324.473 93.4249 324.36 93.4878C321.545 94.7456 320.379 93.7393 319.924 92.4815C319.44 91.1922 319.782 89.7143 320.635 88.708C325.781 82.7334 339.458 80.1548 339.458 80.1548C342.785 79.4945 351.828 82.9535 350.69 91.2551C349.553 99.5568 344.946 110.343 340.198 113.707C335.478 117.041 334.084 113.582 338.605 107.072C338.662 106.978 341.932 101.821 341.932 101.821" fill="white"/>
<path fill-rule="evenodd" clip-rule="evenodd" d="M347.213 81.5531C350.404 83.845 352.102 87.2451 351.534 91.3965C350.3 100.403 345.432 111.119 340.657 114.502C339.399 115.39 338.287 115.88 337.367 115.934C336.283 115.998 335.44 115.439 335.125 114.374C334.625 112.681 335.579 109.962 337.727 106.792L337.915 106.517L341.234 101.279C341.504 100.853 342.036 100.749 342.422 101.048C342.793 101.336 342.894 101.891 342.66 102.313L342.111 103.183L339.315 107.596L339.282 107.647C337.309 110.487 336.461 112.821 336.747 113.787C336.895 114.287 337.874 114.229 339.737 112.913C344.029 109.873 348.679 99.6345 349.847 91.1138C350.306 87.7619 348.953 85.0522 346.284 83.1355C344.144 81.5989 341.319 80.7953 339.693 81.0682L339.38 81.1289L339.079 81.1916C338.971 81.2145 338.856 81.2394 338.734 81.2664L338.305 81.363C337.72 81.4971 337.086 81.6527 336.414 81.8299C334.014 82.4626 331.615 83.2393 329.382 84.1635C325.752 85.6659 322.932 87.409 321.257 89.3533C320.595 90.1336 320.377 91.2262 320.716 92.1312C321.097 93.1853 321.969 93.514 323.937 92.6584L324.006 92.6281L324.27 92.4685L324.329 92.4344L328.803 89.6471C329.199 89.4009 329.696 89.5408 329.938 89.9568L329.965 90.006C330.188 90.4432 330.061 90.9928 329.685 91.2613L329.641 91.291L325.148 94.0896L325.02 94.1648L324.819 94.287C324.792 94.303 324.768 94.3167 324.741 94.3316C324.721 94.3428 324.7 94.3531 324.679 94.3625C321.819 95.6405 319.898 94.9504 319.136 92.8429C318.534 91.2367 318.909 89.3648 320.017 88.0574C321.912 85.8579 324.934 83.99 328.784 82.3965C331.09 81.442 333.555 80.6442 336.018 79.9946C336.88 79.7674 337.681 79.5749 338.4 79.4161L338.867 79.3155L339.308 79.2263C341.369 78.8172 344.69 79.7414 347.213 81.5531Z" fill="#2E186A"/>
<path fill-rule="evenodd" clip-rule="evenodd" d="M397.778 208.862C398.249 208.862 398.631 209.284 398.631 209.805C398.631 210.307 398.276 210.718 397.828 210.747L397.778 210.748H1.1421C0.670982 210.748 0.289062 210.326 0.289062 209.805C0.289062 209.303 0.644189 208.892 1.09198 208.863L1.1421 208.862H397.778Z" fill="#2E186A"/>
</svg>
