
<svg width="252" height="115" viewBox="0 0 252 115" fill="none" xmlns="http://www.w3.org/2000/svg">
<path fill-rule="evenodd" clip-rule="evenodd" d="M201.906 39.8154C200.334 39.8154 198.83 40.123 197.446 40.6698L174.992 48.7525L152.88 44.4121H142.012C142.046 38.0895 139.688 28.4176 113.628 33.2364C100.282 35.6117 99.1886 41.5071 102.042 47.1804L45.9419 43.2672C45.1216 43.0963 42.6268 43.0279 42.6268 43.0279C36.0478 43.4381 30.8188 49.0942 30.8188 56.032C30.8188 62.5768 35.4839 67.9938 41.5502 68.9165L41.3452 73.7354L88.0813 74.812L85.4327 114.542L165.986 113.722L157.716 67.7033L199.923 65.7381L199.735 63.8926C200.436 64.0122 201.154 64.0806 201.889 64.0806C208.587 64.0806 214.021 58.6465 214.021 51.948C214.055 45.2494 208.621 39.8154 201.906 39.8154Z" fill="#F95C5E"/>
<path fill-rule="evenodd" clip-rule="evenodd" d="M113.457 45.4717L109.852 46.9413C109.852 46.9413 121.489 52.9734 122.206 77.2386C123.556 92.8401 123.18 114.115 123.18 114.115L131.143 114.029C131.143 114.029 129.042 68.8654 132.545 61.039C136.048 53.2126 134.322 49.6241 132.579 47.9836C130.819 46.3432 113.457 45.4717 113.457 45.4717Z" fill="white"/>
<path fill-rule="evenodd" clip-rule="evenodd" d="M113.133 35.7485V44.3952C113.099 45.8135 113.697 47.1634 114.79 48.0862C116.841 49.8121 121.301 52.9392 126.017 58.322C126.017 58.322 133.382 52.9051 132.613 44.4635L113.133 35.7485Z" fill="white"/>
<path fill-rule="evenodd" clip-rule="evenodd" d="M112.62 35.7486V44.3952C112.583 45.9349 113.229 47.4063 114.397 48.424L114.474 48.49C114.767 48.7307 117.845 51.1783 119.072 52.2231C121.412 54.2166 123.555 56.2898 125.632 58.6599C125.807 58.8601 126.107 58.8927 126.321 58.735L126.395 58.6792C126.447 58.6394 126.513 58.5869 126.593 58.522L126.628 58.4934C126.863 58.3007 127.125 58.0733 127.406 57.8123C128.206 57.0688 129.005 56.2021 129.752 55.2192C132.167 52.0392 133.487 48.408 133.124 44.417C133.107 44.2324 132.992 44.0713 132.823 43.9956L113.342 35.2806C113.003 35.1289 112.62 35.3771 112.62 35.7486ZM113.645 36.5396L132.126 44.8072L132.132 44.8838C132.356 48.4451 131.131 51.708 128.935 54.5991C128.227 55.5322 127.467 56.356 126.708 57.0612L126.62 57.142C126.447 57.3012 126.282 57.4457 126.128 57.5754L126.078 57.6172L125.98 57.5061C124.07 55.3723 122.1 53.4721 119.974 51.6453L119.617 51.3415C118.28 50.2124 115.28 47.8285 115.12 47.694C114.151 46.8762 113.615 45.6773 113.645 44.4076L113.645 36.5396Z" fill="#000091"/>
<path fill-rule="evenodd" clip-rule="evenodd" d="M142.063 43.8142V44.3952C142.063 45.5743 141.961 46.6337 141.926 47.4711C141.67 53.281 138.868 56.374 137.757 58.6809C144.541 57.4335 151.564 50.0855 152.948 44.3952C151.547 43.1136 144.541 42.4642 142.063 43.8142Z" fill="#000091"/>
<path fill-rule="evenodd" clip-rule="evenodd" d="M112.842 59.9626C110.843 59.0398 104.127 53.3323 101.581 46.0357C99.3767 44.8395 93.7718 45.4718 91.9946 46.4971C98.9666 60.9195 112.842 59.9796 112.842 59.9626Z" fill="#000091"/>
<path fill-rule="evenodd" clip-rule="evenodd" d="M115.533 58.3929C115.9 58.3029 116.27 58.5272 116.36 58.8938L116.467 59.3365L116.673 60.209C116.713 60.3829 116.755 60.5632 116.798 60.7494L116.863 61.0332C117.24 62.6799 117.617 64.4159 117.968 66.1618C118.187 67.246 118.389 68.3007 118.571 69.3156L118.625 69.6189C119.179 72.7507 119.515 75.3451 119.575 77.234C119.586 77.6114 119.29 77.9269 118.913 77.9388C118.536 77.9508 118.22 77.6546 118.208 77.2772L118.201 77.0806C118.129 75.3195 117.815 72.911 117.308 70.0212L117.279 69.8571C117.085 68.7607 116.866 67.6143 116.628 66.4318C116.306 64.8318 115.962 63.2393 115.617 61.7172L115.466 61.0563C115.412 60.8252 115.361 60.6033 115.311 60.3916L115.108 59.5316L115.032 59.2197C114.942 58.8531 115.166 58.4829 115.533 58.3929Z" fill="#000091"/>
<path fill-rule="evenodd" clip-rule="evenodd" d="M135.764 57.9098C136.133 57.9889 136.368 58.3522 136.289 58.7214L136.198 59.1588L136.093 59.6757C136.057 59.8583 136.019 60.0508 135.98 60.2528L135.956 60.3751C135.705 61.6688 135.455 63.0619 135.221 64.5009C134.943 66.2142 134.707 67.8774 134.528 69.4464L134.492 69.769C134.15 72.8677 134.057 75.4011 134.266 77.1578C134.31 77.5327 134.043 77.8727 133.668 77.9172C133.293 77.9618 132.953 77.694 132.908 77.3191C132.677 75.372 132.788 72.6339 133.17 69.2913C133.351 67.6992 133.59 66.015 133.872 64.2817C134.108 62.8282 134.361 61.4217 134.614 60.1152L134.708 59.6343C134.746 59.4416 134.783 59.2588 134.817 59.0863L134.952 58.435C135.031 58.0659 135.395 57.8308 135.764 57.9098Z" fill="#000091"/>
<path fill-rule="evenodd" clip-rule="evenodd" d="M111.834 29.6479C111.834 29.6479 106.998 29.7505 107.852 34.0738C108.724 38.4142 114.072 35.9022 114.072 35.9022L113.355 29.7334L111.834 29.6479Z" fill="white"/>
<path fill-rule="evenodd" clip-rule="evenodd" d="M111.862 29.136L111.841 29.1353L111.814 29.1355L111.755 29.1379C111.692 29.1411 111.613 29.1468 111.52 29.1558C111.332 29.174 111.129 29.2021 110.916 29.2423C110.318 29.3549 109.739 29.5415 109.214 29.8222C107.689 30.6397 106.937 32.0849 107.349 34.1731C107.752 36.1813 109.064 37.1121 110.895 37.1373C111.659 37.1478 112.462 37.0018 113.26 36.7531C113.489 36.6816 113.704 36.6058 113.901 36.5292L114.076 36.4594C114.172 36.4195 114.245 36.3874 114.29 36.3661C114.49 36.2725 114.607 36.0618 114.581 35.8429L113.864 29.674C113.835 29.4264 113.632 29.2354 113.383 29.2214L111.862 29.136ZM111.827 30.1608L112.895 30.2208L113.518 35.5778L113.44 35.6078C113.289 35.6646 113.126 35.7207 112.955 35.7742C112.252 35.9933 111.55 36.1209 110.91 36.1121C109.532 36.0931 108.656 35.4709 108.355 33.9728C108.033 32.3446 108.557 31.3376 109.699 30.726C110.121 30.4999 110.603 30.3445 111.106 30.2499C111.4 30.1945 111.645 30.1689 111.81 30.1617L111.827 30.1608Z" fill="#000091"/>
<path fill-rule="evenodd" clip-rule="evenodd" d="M125.624 15.9946C126.905 15.892 135.637 15.3452 136.594 22.6419C137.551 29.9385 136.526 37.9871 135.706 41.661C134.886 45.335 118.156 43.6432 117.216 43.3015C116.276 42.9597 115.149 41.8661 115.149 41.8661L112.859 30.6562C112.842 30.6733 111.919 17.1395 125.624 15.9946Z" fill="white"/>
<path fill-rule="evenodd" clip-rule="evenodd" d="M125.583 15.4835C119.388 16.001 115.545 18.9862 113.623 23.5625C112.953 25.1566 112.57 26.8324 112.409 28.4837C112.352 29.0643 112.328 29.6023 112.328 30.0781C112.328 30.2253 112.33 30.3588 112.334 30.4737L112.34 30.5987L112.345 30.6721L112.349 30.7159L112.354 30.7476L114.646 41.9686C114.667 42.0697 114.718 42.1622 114.792 42.234L114.846 42.2856C114.902 42.3382 114.979 42.4082 115.073 42.491C115.288 42.6799 115.519 42.8687 115.758 43.046C116.033 43.2503 116.303 43.4263 116.563 43.5659C116.728 43.6542 116.887 43.7271 117.041 43.7832C117.81 44.0626 122.764 44.4942 126.505 44.4997L126.845 44.4993C132.349 44.478 135.769 43.7305 136.206 41.7726C137.372 36.5485 137.92 28.8062 137.103 22.5751C136.651 19.1321 134.555 17.036 131.382 16.0537C130.24 15.6999 129.017 15.5112 127.768 15.4517C126.93 15.4118 126.223 15.4322 125.583 15.4835ZM127.72 16.4758C128.888 16.5315 130.027 16.7073 131.079 17.0331C133.897 17.9055 135.691 19.7005 136.086 22.7084C136.886 28.8106 136.347 36.4349 135.205 41.5492C134.928 42.7896 131.595 43.4818 126.507 43.4744L126.177 43.4728C122.597 43.4438 117.991 43.0377 117.391 42.8196C117.287 42.7815 117.172 42.7288 117.048 42.6626C116.836 42.5488 116.607 42.399 116.368 42.2222C116.154 42.0634 115.945 41.8922 115.75 41.721L115.672 41.6514L115.618 41.603L113.366 30.577L113.361 30.4842L113.357 30.3824C113.355 30.2923 113.353 30.1899 113.353 30.0779C113.353 29.6344 113.376 29.1296 113.429 28.5832C113.581 27.028 113.942 25.4508 114.568 23.9596C116.347 19.7243 119.868 16.9898 125.666 16.5053C126.265 16.4575 126.93 16.4382 127.72 16.4758Z" fill="#000091"/>
<path fill-rule="evenodd" clip-rule="evenodd" d="M114.483 30.5708C115.303 31.3739 117.49 36.0048 118.037 38.175C118.037 38.175 123.471 36.3637 131.263 36.2441C131.263 36.2441 135.501 36.3295 137.21 36.8251C137.21 36.8251 136.851 44.4806 133.399 48.445C129.965 52.4095 122.685 51.2988 119.267 48.9235C115.85 46.5482 115.286 45.4033 114.5 42.8572C113.714 40.3111 111.629 30.81 111.629 30.81L114.483 30.5708Z" fill="#6A6AF4"/>
<path fill-rule="evenodd" clip-rule="evenodd" d="M112.244 32.2111C112.244 32.2111 109.971 28.6909 109.1 25.0341C108.28 21.5993 109.869 17.9937 113.064 16.4387C115.73 15.14 117.712 16.1653 117.712 16.1653C117.712 16.1653 114.876 11.3464 119.131 7.09147C120.634 5.58771 122.685 4.76748 124.804 4.83583C129.982 4.98962 131.588 9.3642 131.588 9.3642C131.588 9.3642 137.141 -0.837445 148.505 5.21177C149.65 5.82694 150.949 7.51867 151.564 8.66358C155.323 15.5843 142.934 23.7866 136.492 24.436C129.418 25.1537 125.265 23.9746 122.992 22.2487C124.684 23.2398 122.787 33.8345 112.244 32.2111Z" fill="#000091"/>
<path fill-rule="evenodd" clip-rule="evenodd" d="M125.908 40.8662C126.27 40.808 126.611 41.0446 126.686 41.3988L126.696 41.4544C126.703 41.4866 126.716 41.5407 126.738 41.61C126.785 41.7628 126.849 41.9152 126.932 42.0527C127.176 42.4598 127.501 42.6466 128.036 42.5676L128.087 42.5594C128.459 42.4946 128.813 42.7435 128.878 43.1154C128.943 43.4873 128.694 43.8413 128.322 43.9062C127.155 44.1095 126.285 43.6304 125.76 42.7565C125.616 42.5162 125.508 42.2638 125.431 42.0118C125.384 41.858 125.356 41.7332 125.342 41.6497C125.282 41.277 125.536 40.9262 125.908 40.8662Z" fill="#000091"/>
<path fill-rule="evenodd" clip-rule="evenodd" d="M131.134 32.6257C131.497 32.5837 131.827 32.8353 131.886 33.1925L131.891 33.2263L132.66 39.8907C132.714 40.356 132.295 40.7328 131.843 40.6385L131.812 40.6313L129.471 40.0332C129.105 39.9398 128.884 39.5675 128.977 39.2018C129.068 38.8475 129.42 38.6292 129.775 38.7009L129.809 38.7087L131.188 39.061L130.533 33.383C130.491 33.0194 130.742 32.6895 131.1 32.6304L131.134 32.6257Z" fill="#000091"/>
<path fill-rule="evenodd" clip-rule="evenodd" d="M133.604 34.0052C133.981 34.0052 134.287 33.5308 134.287 32.9457C134.287 32.3606 133.981 31.8862 133.604 31.8862C133.226 31.8862 132.92 32.3606 132.92 32.9457C132.92 33.5308 133.226 34.0052 133.604 34.0052Z" fill="#000091"/>
<path fill-rule="evenodd" clip-rule="evenodd" d="M127.025 33.8855C127.403 33.8855 127.709 33.4112 127.709 32.8261C127.709 32.2409 127.403 31.7666 127.025 31.7666C126.648 31.7666 126.342 32.2409 126.342 32.8261C126.342 33.4112 126.648 33.8855 127.025 33.8855Z" fill="#000091"/>
<path fill-rule="evenodd" clip-rule="evenodd" d="M124.352 27.2657C125.129 26.697 126.086 26.4143 127.194 26.5795C127.568 26.6352 127.825 26.983 127.77 27.3563C127.714 27.7297 127.366 27.9873 126.993 27.9316C126.265 27.8231 125.662 28.0013 125.159 28.369C125.018 28.4725 124.896 28.5832 124.796 28.6923C124.771 28.7197 124.749 28.745 124.73 28.7678L124.699 28.8073C124.483 29.1174 124.058 29.1943 123.747 28.979C123.437 28.7638 123.36 28.3379 123.576 28.0278C123.619 27.9658 123.69 27.876 123.789 27.7676C123.947 27.5954 124.135 27.4247 124.352 27.2657Z" fill="#000091"/>
<path fill-rule="evenodd" clip-rule="evenodd" d="M133.467 26.423C133.892 26.3561 134.344 26.3534 134.787 26.4622C135.56 26.652 136.153 27.1565 136.41 27.9942C136.522 28.3551 136.319 28.7375 135.958 28.8486C135.597 28.9596 135.215 28.7571 135.104 28.3963C134.996 28.0458 134.79 27.8707 134.461 27.7898C134.22 27.7307 133.941 27.7323 133.679 27.7735C133.653 27.7776 133.629 27.7819 133.607 27.7861L133.555 27.7971C133.189 27.8925 132.816 27.6738 132.721 27.3086C132.625 26.9433 132.844 26.5699 133.209 26.4745L133.257 26.4627C133.311 26.4503 133.382 26.4364 133.467 26.423Z" fill="#000091"/>
<path fill-rule="evenodd" clip-rule="evenodd" d="M228.854 60.5436L232.169 56.3912C232.169 56.3912 233.348 50.7179 234.168 48.7357C234.988 46.7534 237.979 45.1642 237.039 48.0351C236.082 50.9059 236.424 52.102 236.424 52.102C236.424 52.102 240.696 47.5566 242.49 44.1219C244.318 40.6017 245.514 44.0706 245.514 44.0706C245.514 44.0706 247.873 43.0966 247.702 44.7029C247.702 44.7029 249.94 44.6687 248.847 46.6167C248.847 46.6167 251.376 45.4718 250.846 47.6933C251.051 50.2907 246.454 58.1683 242.063 60.3556L240.32 62.7821L238.218 65.9947" fill="white"/>
<path fill-rule="evenodd" clip-rule="evenodd" d="M244.083 42.0314C244.7 42.0235 245.181 42.416 245.573 43.0322C245.654 43.1593 245.727 43.2911 245.793 43.4243L245.797 43.4333L245.803 43.4317C246.028 43.3668 246.252 43.3175 246.469 43.2899L246.562 43.2794C247.397 43.1968 248.043 43.488 248.191 44.198L248.198 44.2348L248.253 44.2447C248.338 44.2608 248.421 44.2807 248.504 44.3049L248.586 44.3305C249.3 44.5671 249.707 45.0743 249.656 45.7849L249.651 45.8447L249.742 45.8316L249.833 45.8212C250.95 45.7116 251.644 46.3635 251.369 47.7007L251.362 47.7348L251.363 47.7559C251.417 49.192 250.343 51.771 248.669 54.3632L248.608 54.458C246.761 57.2921 244.546 59.6209 242.471 60.7219L242.406 60.7555L240.742 63.0723L238.647 66.2754C238.498 66.5035 238.197 66.5735 237.964 66.44L237.937 66.4237C237.709 66.2744 237.639 65.9743 237.773 65.7407L237.789 65.714L239.891 62.5014L239.903 62.483L241.646 60.0565C241.695 59.9888 241.759 59.9339 241.834 59.8967C243.767 58.9341 245.94 56.6754 247.749 53.8984L247.863 53.7213C249.432 51.2712 250.423 48.8444 250.335 47.7336C250.331 47.6802 250.335 47.6265 250.347 47.5743L250.366 47.4915C250.503 46.8799 250.396 46.7961 249.933 46.8416C249.77 46.8576 249.586 46.899 249.398 46.9582C249.308 46.9866 249.222 47.0171 249.146 47.0474L249.058 47.0837C248.607 47.2879 248.157 46.7975 248.4 46.3657L248.446 46.2804C248.786 45.6454 248.685 45.4434 248.263 45.3037C248.149 45.2658 248.021 45.2405 247.891 45.2266C247.843 45.2215 247.798 45.2183 247.758 45.2166L247.71 45.2154C247.402 45.2201 247.159 44.9546 247.192 44.6486C247.227 44.316 247.128 44.2537 246.663 44.2997C246.486 44.3172 246.289 44.3586 246.087 44.4168C246.013 44.4384 245.941 44.4611 245.874 44.484L245.809 44.507C245.776 44.5189 245.75 44.5287 245.732 44.5359L245.71 44.5444C245.447 44.6532 245.147 44.5261 245.041 44.266L245.013 44.1914C244.998 44.1534 244.977 44.1014 244.949 44.0392C244.88 43.8822 244.799 43.7256 244.708 43.5823C244.487 43.2359 244.265 43.0544 244.096 43.0566C243.828 43.06 243.427 43.4303 242.944 44.3592C242.599 45.0206 242.153 45.7442 241.62 46.5211C241.209 47.1202 240.75 47.7447 240.251 48.3877C239.496 49.3625 238.687 50.3326 237.878 51.2538C237.69 51.4688 237.51 51.6708 237.341 51.8583L237.048 52.1817L236.797 52.4531C236.525 52.7431 236.04 52.6255 235.931 52.2428C235.917 52.1935 235.9 52.1167 235.886 52.0116C235.765 51.1282 235.921 49.7672 236.552 47.8755C236.651 47.5703 236.701 47.3249 236.706 47.1448C236.708 47.0808 236.705 47.0338 236.7 47.0022L236.696 46.9826L236.679 46.9832C236.631 46.9864 236.565 47.0012 236.485 47.0298L236.45 47.0429C235.797 47.298 234.976 48.1227 234.642 48.9316C234.478 49.3276 234.287 49.911 234.076 50.6495L234.048 50.7467C233.912 51.2283 233.769 51.7666 233.622 52.3515C233.394 53.2574 233.167 54.2291 232.951 55.201L232.869 55.573C232.834 55.7335 232.8 55.887 232.769 56.0328L232.671 56.4954C232.657 56.5611 232.63 56.6233 232.593 56.6786L232.569 56.711L229.254 60.8634C229.077 61.0847 228.755 61.1208 228.534 60.9442C228.321 60.7743 228.279 60.4696 228.433 60.2497L228.453 60.2237L231.692 56.1666L231.815 55.5909C231.857 55.3976 231.902 55.1928 231.95 54.9784C232.168 53.9981 232.397 53.0176 232.628 52.1015L232.709 51.7821C232.83 51.3101 232.947 50.8702 233.061 50.4675L233.119 50.2661C233.328 49.5407 233.521 48.9593 233.694 48.5396C234.134 47.4767 235.159 46.4463 236.077 46.0879C236.655 45.8622 237.197 45.9083 237.518 46.3552C237.812 46.7635 237.794 47.3748 237.525 48.1971C237.185 49.2169 236.996 50.0511 236.917 50.7121L236.907 50.8054L237.108 50.5775C237.904 49.6709 238.699 48.7163 239.441 47.7595C239.928 47.1313 240.375 46.5227 240.775 45.9409C241.256 45.2393 241.661 44.5871 241.977 43.9957L242.035 43.8855C242.673 42.6574 243.341 42.0408 244.083 42.0314Z" fill="#000091"/>
<path fill-rule="evenodd" clip-rule="evenodd" d="M240.303 51.2307C240.303 51.2307 244.763 46.8562 245.498 44.0879L240.303 51.2307Z" fill="white"/>
<path fill-rule="evenodd" clip-rule="evenodd" d="M245.002 43.956C245.075 43.6823 245.355 43.5194 245.629 43.592C245.903 43.6646 246.066 43.9453 245.993 44.219C245.792 44.9775 245.342 45.8539 244.684 46.8351C244.3 47.408 243.85 48.0075 243.349 48.6247C242.761 49.3483 242.132 50.0593 241.504 50.7282L241.263 50.9822C241.185 51.0637 241.11 51.1419 241.037 51.2166L240.858 51.3998L240.662 51.5963C240.46 51.7946 240.135 51.7914 239.937 51.5893C239.746 51.3953 239.742 51.0884 239.92 50.8887L240.165 50.6424L240.302 50.5017C240.444 50.3564 240.596 50.1973 240.757 50.0261C241.37 49.3739 241.982 48.681 242.553 47.9782C243.036 47.3838 243.467 46.8089 243.832 46.2642C244.432 45.3689 244.835 44.5845 245.002 43.956Z" fill="#000091"/>
<path fill-rule="evenodd" clip-rule="evenodd" d="M242.045 52.6145C242.456 52.0335 246.181 48.8038 247.326 44.6855L242.045 52.6145Z" fill="white"/>
<path fill-rule="evenodd" clip-rule="evenodd" d="M242.445 52.9361C242.276 53.1454 241.972 53.1903 241.75 53.0334C241.518 52.8701 241.463 52.5502 241.627 52.3189L241.654 52.2818C241.707 52.2118 241.779 52.1295 241.889 52.0103L242.529 51.3369C242.578 51.2855 242.625 51.2357 242.672 51.1851C243.324 50.4895 243.885 49.838 244.425 49.1253C245.57 47.613 246.404 46.088 246.832 44.5483C246.908 44.2755 247.19 44.1159 247.463 44.1917C247.736 44.2675 247.895 44.5502 247.82 44.8229C247.365 46.4576 246.507 48.0488 245.34 49.6139L245.242 49.7443C244.359 50.9112 242.464 52.9401 242.462 52.9148L242.464 52.9107L242.445 52.9361Z" fill="#000091"/>
<path fill-rule="evenodd" clip-rule="evenodd" d="M243.823 54.0842C244.711 52.8881 247.394 51.4868 248.932 46.7705L243.823 54.0842Z" fill="white"/>
<path fill-rule="evenodd" clip-rule="evenodd" d="M244.706 52.4671L244.81 52.3689C245.441 51.7676 245.908 51.2651 246.38 50.6463C247.229 49.5313 247.918 48.2264 248.445 46.6117C248.532 46.3425 248.822 46.1954 249.091 46.2832C249.36 46.371 249.507 46.6604 249.419 46.9295C248.857 48.6546 248.113 50.0618 247.195 51.2674C246.687 51.9354 246.186 52.4746 245.519 53.1096L244.559 54.0168C244.33 54.238 244.347 54.2379 244.234 54.39C244.065 54.6173 243.744 54.6647 243.517 54.4959C243.29 54.327 243.242 54.0059 243.411 53.7786C243.533 53.6144 243.681 53.4487 243.876 53.2535L244.002 53.1289L244.706 52.4671Z" fill="#000091"/>
<path fill-rule="evenodd" clip-rule="evenodd" d="M139.67 91.3365L153.785 61.8082C155.323 57.8779 157.562 53.8451 161.663 52.8369C171.215 50.4787 186.389 48.4794 197.753 48.1206C200.863 48.018 203.837 49.4022 205.75 51.8458L220.19 68.8485L230.443 56.0666L242.695 63.8929L225.111 88.0385C221.813 91.3878 216.482 91.627 212.91 88.5854L205.733 81.8184L208.348 114.03H163.713L163.901 105.879L139.67 91.3365Z" fill="#000091"/>
<path fill-rule="evenodd" clip-rule="evenodd" d="M187.278 49.436L183.399 39.5078L171.574 47.0437L172.633 54.46C177.042 66.866 188.132 51.6233 187.278 49.436Z" fill="white"/>
<path fill-rule="evenodd" clip-rule="evenodd" d="M183.123 39.0756L171.298 46.6115C171.128 46.7197 171.038 46.9171 171.066 47.1163L172.126 54.5326C172.13 54.5664 172.139 54.5996 172.15 54.6318C173.241 57.7028 174.827 59.382 176.815 59.7218C178.512 60.0119 180.373 59.2988 182.246 57.8234C185.392 55.3464 188.34 50.7454 187.755 49.2497L183.876 39.3214C183.759 39.0206 183.396 38.9021 183.123 39.0756ZM172.128 47.2985L183.148 40.2754L186.8 49.6227C186.845 49.7371 186.789 50.1014 186.596 50.6058C186.378 51.1768 186.011 51.874 185.538 52.612C184.489 54.2499 183.065 55.8734 181.612 57.0179C179.944 58.3312 178.347 58.9435 176.988 58.7112L176.933 58.7012C175.424 58.4166 174.146 57.0764 173.187 54.4829L173.133 54.3359L172.128 47.2985Z" fill="#000091"/>
<path fill-rule="evenodd" clip-rule="evenodd" d="M164.346 21.9755C164.346 21.9755 174.992 27.2557 170.737 33.6638C170.737 33.6638 168.823 36.3637 166.994 36.0561C166.994 36.0561 168.088 33.8176 166.465 32.8948C166.465 32.8948 166.635 39.2345 161.355 38.4826C161.355 38.4826 162.961 35.5093 162.124 32.2113C160.347 25.3418 161.543 21.0014 164.346 21.9755Z" fill="#000091"/>
<path fill-rule="evenodd" clip-rule="evenodd" d="M186.099 29.8361C186.099 29.8361 186.783 17.3447 174.137 16.4732C172.958 16.3877 164.893 15.9947 164.107 22.7275C163.577 27.2216 163.867 32.0234 164.363 35.7316C164.363 35.7486 165.183 42.7377 168.327 46.3433C171.472 49.9489 177.572 48.9749 180.614 46.7363C183.655 44.4978 184.151 43.4383 184.835 41.0802C185.518 38.722 186.099 29.8532 186.099 29.8532V29.8361Z" fill="white"/>
<path fill-rule="evenodd" clip-rule="evenodd" d="M163.571 22.8977C163.133 26.8248 163.267 31.2664 163.821 35.5477L163.851 35.7751L163.856 35.8374C163.903 36.38 164.234 38.1962 164.65 39.7487L164.671 39.8261C165.437 42.6425 166.504 45.0322 167.941 46.6801C169.515 48.485 171.864 49.3277 174.525 49.2436C176.857 49.1699 179.261 48.3685 180.917 47.1491L181.181 46.9538C183.838 44.9664 184.549 43.9045 185.327 41.2227C185.598 40.2884 185.862 38.3988 186.121 35.8025C186.24 34.6158 186.35 33.3521 186.45 32.0822L186.501 31.4176C186.517 31.2091 186.531 31.008 186.545 30.8152L186.61 29.8866L186.615 29.7643C186.633 29.1365 186.594 28.2901 186.452 27.3018C186.236 25.7975 185.823 24.3083 185.165 22.9119C183.274 18.9041 179.723 16.3441 174.172 15.9616C173.604 15.9204 172.93 15.9088 172.152 15.9557C170.999 16.0252 169.87 16.2144 168.816 16.5556C165.889 17.5039 163.97 19.4734 163.597 22.6679L163.571 22.8977ZM174.1 16.9843C179.271 17.3407 182.501 19.6689 184.237 23.3493C184.849 24.646 185.235 26.0381 185.437 27.4474C185.56 28.3023 185.6 29.0402 185.593 29.599L185.589 29.7561L185.586 29.8341L185.533 30.5988C185.52 30.7863 185.505 30.9825 185.49 31.1862L185.454 31.657C185.357 32.921 185.249 34.1848 185.133 35.3772L185.101 35.7006C184.852 38.1891 184.597 40.0272 184.354 40.896L184.342 40.9373C183.603 43.4878 183.004 44.3406 180.31 46.3233C178.823 47.4172 176.621 48.1516 174.493 48.2188C172.118 48.2939 170.067 47.5581 168.714 46.0062C167.399 44.4985 166.389 42.2373 165.661 39.5571L165.605 39.3478C165.205 37.8249 164.894 36.0775 164.876 35.7569L164.875 35.7314C164.875 35.7087 164.874 35.686 164.871 35.6635C164.299 31.3823 164.154 26.9246 164.59 23.0119L164.616 22.7868C164.938 20.0287 166.559 18.3647 169.132 17.5311C170.096 17.219 171.141 17.0438 172.214 16.9791C172.942 16.9352 173.572 16.9461 174.1 16.9843Z" fill="#000091"/>
<path fill-rule="evenodd" clip-rule="evenodd" d="M168.689 32.4509C168.717 32.1692 168.968 31.9637 169.25 31.9918C169.521 32.019 169.722 32.2536 169.711 32.5229L169.709 32.553L169.168 37.965L170.603 37.5777C170.867 37.5066 171.138 37.6545 171.223 37.9103L171.232 37.9391C171.303 38.2027 171.155 38.4738 170.899 38.5589L170.87 38.5676L168.717 39.1486C168.38 39.2395 168.056 38.9752 168.071 38.6323L168.073 38.6027L168.689 32.4509Z" fill="#000091"/>
<path fill-rule="evenodd" clip-rule="evenodd" d="M168.033 31.4052C168.043 30.8673 167.769 30.4257 167.42 30.4188C167.071 30.4119 166.779 30.8423 166.768 31.3802C166.758 31.918 167.032 32.3596 167.381 32.3665C167.73 32.3734 168.022 31.943 168.033 31.4052Z" fill="#000091"/>
<path fill-rule="evenodd" clip-rule="evenodd" d="M173.569 32.5642C173.913 32.5057 174.119 32.0284 174.029 31.498C173.939 30.9676 173.587 30.5851 173.242 30.6436C172.898 30.7021 172.692 31.1794 172.782 31.7098C172.872 32.2402 173.225 32.6227 173.569 32.5642Z" fill="#000091"/>
<path fill-rule="evenodd" clip-rule="evenodd" d="M172.54 26.2599C173.55 26.0365 174.442 26.2502 175.18 26.7401C175.367 26.8635 175.529 26.996 175.667 27.1297L175.728 27.1896C175.783 27.2464 175.825 27.2939 175.853 27.3288C176.03 27.5499 175.994 27.8725 175.773 28.0494C175.561 28.2194 175.254 28.1928 175.074 27.994L175.04 27.9549C175.024 27.9365 174.995 27.9062 174.955 27.8673C174.86 27.7752 174.745 27.6819 174.614 27.5945C174.093 27.2494 173.479 27.1022 172.761 27.261C172.485 27.3222 172.211 27.1476 172.15 26.8712C172.089 26.5947 172.263 26.3211 172.54 26.2599Z" fill="#000091"/>
<path fill-rule="evenodd" clip-rule="evenodd" d="M165.385 26.1571C165.864 26.0994 166.363 26.1406 166.848 26.2432L166.943 26.2642C167.096 26.2992 167.216 26.3333 167.293 26.3591C167.562 26.4487 167.707 26.739 167.617 27.0076C167.531 27.2666 167.258 27.4108 166.998 27.3405L166.908 27.3133L166.888 27.3077C166.813 27.287 166.729 27.266 166.636 27.2463C166.252 27.1651 165.86 27.1327 165.508 27.1751C165.033 27.2322 164.696 27.4157 164.498 27.7538C164.355 27.9982 164.041 28.0803 163.796 27.9373C163.552 27.7942 163.47 27.4802 163.613 27.2359C163.991 26.5901 164.617 26.2496 165.385 26.1571Z" fill="#000091"/>
<path fill-rule="evenodd" clip-rule="evenodd" d="M175.418 21.651C175.418 21.651 172.36 38.6024 183.501 39.2005C183.501 39.2005 189.995 39.6961 191.225 37.2866C191.225 37.2866 186.355 35.2873 186.68 32.5874C186.68 32.5874 192.455 37.7651 196.574 33.2196C196.574 33.2196 188.901 32.7241 188.884 25.8546C188.867 20.9332 176.717 17.5156 175.418 21.651Z" fill="#000091"/>
<path fill-rule="evenodd" clip-rule="evenodd" d="M195.685 21.9585L188.918 21.6167C187.774 17.1909 184.51 11.022 175.197 10.8683C160.638 10.629 161.594 24.6926 161.594 24.6926L195.463 26.3331C196.676 26.4014 197.702 25.4616 197.753 24.2654C197.821 23.0521 196.899 22.0268 195.685 21.9585Z" fill="#F95C5E"/>
<path fill-rule="evenodd" clip-rule="evenodd" d="M174.81 38.9094C174.895 38.6394 175.183 38.4895 175.453 38.5747C175.723 38.6598 175.873 38.9477 175.788 39.2178C175.758 39.3117 175.7 39.4541 175.605 39.6291C175.452 39.9116 175.25 40.1924 174.991 40.4542C174.191 41.2619 173.039 41.7113 171.511 41.626C171.228 41.6102 171.012 41.3682 171.028 41.0855C171.043 40.8029 171.285 40.5865 171.568 40.6023C172.801 40.6712 173.668 40.3331 174.262 39.7329C174.449 39.5441 174.595 39.3421 174.703 39.1418C174.759 39.0375 174.793 38.9595 174.806 38.9201L174.81 38.9094Z" fill="#000091"/>
<path fill-rule="evenodd" clip-rule="evenodd" d="M162.567 79.3319C162.666 79.0667 162.961 78.932 163.227 79.0311C163.482 79.1266 163.617 79.4047 163.537 79.6622L163.527 79.6907L155.12 102.196C155.021 102.461 154.726 102.596 154.46 102.497C154.205 102.401 154.07 102.123 154.15 101.866L154.16 101.837L162.567 79.3319Z" fill="white"/>
<path fill-rule="evenodd" clip-rule="evenodd" d="M219.251 68.8308C219.497 68.6899 219.81 68.7747 219.951 69.0203C220.087 69.2568 220.013 69.5561 219.788 69.7037L219.694 69.7609C219.675 69.7727 219.653 69.7867 219.628 69.8028C219.513 69.8769 219.384 69.9656 219.244 70.0687C218.843 70.3646 218.441 70.7135 218.067 71.1117C216.79 72.4715 216.155 74.0379 216.474 75.7972C216.524 76.0758 216.339 76.3425 216.06 76.393C215.782 76.4434 215.515 76.2585 215.465 75.9799C215.08 73.8582 215.84 71.9859 217.32 70.4099C217.739 69.9634 218.187 69.5743 218.636 69.2435L218.735 69.1713C218.959 69.0097 219.138 68.8958 219.251 68.8308Z" fill="white"/>
<path fill-rule="evenodd" clip-rule="evenodd" d="M215.38 68.5596C216.467 68.0724 217.61 68.0535 218.672 68.309C218.921 68.3691 219.109 68.4308 219.22 68.4757C219.482 68.5817 219.609 68.8804 219.503 69.143C219.401 69.3961 219.119 69.5231 218.864 69.4368L218.78 69.4061C218.769 69.4021 218.756 69.3978 218.741 69.3931C218.652 69.3637 218.548 69.3339 218.432 69.3059C217.571 69.0988 216.65 69.1141 215.8 69.4952C214.735 69.9726 213.883 70.9876 213.33 72.6974C213.242 72.9668 212.953 73.1145 212.684 73.0272C212.415 72.94 212.267 72.651 212.354 72.3816C212.994 70.4067 214.039 69.1611 215.38 68.5596Z" fill="white"/>
<path fill-rule="evenodd" clip-rule="evenodd" d="M169.25 108.015H147.07C146.523 108.015 145.993 107.758 145.668 107.297L130.238 86.2273C129.4 85.0824 130.221 83.459 131.639 83.459H153.819C154.366 83.459 154.896 83.7153 155.221 84.1767L170.651 105.246C171.489 106.408 170.668 108.015 169.25 108.015Z" fill="#6A6AF4"/>
<path fill-rule="evenodd" clip-rule="evenodd" d="M148.009 95.1987C148.009 95.1987 142.951 99.317 142.866 99.3853C142.78 99.4537 148.317 105.486 148.317 105.486L154.076 99.5562L148.009 95.1987Z" fill="white"/>
<path fill-rule="evenodd" clip-rule="evenodd" d="M149.718 96.4118C150.572 96.1042 153.255 94.4466 154.024 94.7371C155.613 95.3523 153.272 96.9586 151.58 98.4282" fill="white"/>
<path fill-rule="evenodd" clip-rule="evenodd" d="M151.621 94.9169L151.773 94.8448C152.965 94.2816 153.685 94.0614 154.209 94.2593C155.204 94.6444 155.297 95.4572 154.671 96.2946L154.63 96.3492C154.283 96.8007 153.86 97.1856 152.786 98.0821L152.286 98.5003C152.146 98.6181 152.03 98.7171 151.917 98.8154C151.703 99.0011 151.379 98.9783 151.193 98.7646C151.008 98.5509 151.031 98.2271 151.244 98.0414L151.488 97.8322C151.574 97.7588 151.668 97.6799 151.776 97.59L152.358 97.1035C153.192 96.4021 153.553 96.0655 153.816 95.726L153.895 95.6207C154.111 95.329 154.094 95.3143 153.843 95.2169C153.697 95.1618 153.02 95.3825 152.065 95.8412L151.909 95.9169L151.578 96.0808C151.325 96.2082 150.786 96.482 150.669 96.5404L150.436 96.6555C150.203 96.7683 150.032 96.8439 149.892 96.8943C149.625 96.9902 149.331 96.852 149.236 96.5856C149.143 96.3288 149.268 96.0465 149.516 95.9407L149.595 95.9107C149.711 95.8649 149.874 95.7895 150.102 95.6774L151.201 95.1232L151.375 95.0365C151.46 94.9947 151.542 94.9551 151.621 94.9169Z" fill="#000091"/>
<path fill-rule="evenodd" clip-rule="evenodd" d="M151.82 101.761C151.82 101.761 154.827 99.4026 155.75 101.47C156.126 102.325 152.845 104.939 149.735 105.879C146.762 106.768 137.09 110.083 137.056 101.009C137.056 99.5222 137.397 97.54 138.457 94.1224C139.824 89.7991 142.216 91.6275 142.011 93.1996C141.806 94.7717 141.926 97.7621 141.926 97.7621C141.926 97.7621 146.796 93.849 149.735 93.7806C153.341 93.6781 150.487 96.3267 144.677 99.864" fill="white"/>
<path fill-rule="evenodd" clip-rule="evenodd" d="M137.968 93.9676C138.646 91.8233 139.711 90.762 140.901 90.9432C141.906 91.0963 142.635 92.1681 142.525 93.2159L142.503 93.4033C142.455 93.8298 142.425 94.3793 142.412 95.0209C142.401 95.5427 142.401 96.0933 142.41 96.6403L142.412 96.749L142.443 96.7259C143.026 96.2994 143.647 95.8729 144.286 95.4689L144.5 95.3351C145.26 94.8634 146 94.4544 146.704 94.1263C147.85 93.5915 148.864 93.2879 149.72 93.268C150.788 93.2376 151.464 93.4214 151.739 93.9558C152.017 94.4978 151.754 95.0985 151.117 95.8014C150.113 96.9097 147.98 98.4529 144.944 100.302C144.702 100.449 144.386 100.372 144.239 100.13C144.092 99.8886 144.169 99.5732 144.41 99.4259L144.761 99.2114C147.531 97.5069 149.475 96.0862 150.357 95.113C150.573 94.8749 150.715 94.6736 150.782 94.5214C150.798 94.4848 150.808 94.4546 150.813 94.4313L150.816 94.4188C150.797 94.4095 150.757 94.3908 150.683 94.3693L150.657 94.362C150.454 94.3068 150.149 94.2815 149.747 94.2929C149.056 94.309 148.167 94.5753 147.137 95.0555C146.473 95.3649 145.769 95.7548 145.04 96.2064C144.35 96.6345 143.677 97.094 143.049 97.5535L142.888 97.6718C142.784 97.7491 142.685 97.8233 142.592 97.8938L142.422 98.0241L142.247 98.1616C141.919 98.4252 141.43 98.203 141.414 97.7825L141.404 97.4984C141.401 97.4091 141.398 97.3128 141.396 97.2105C141.378 96.4748 141.372 95.7132 141.387 94.9996L141.392 94.7676C141.41 94.1211 141.446 93.5689 141.503 93.1331C141.573 92.5989 141.189 92.0243 140.746 91.9568C140.177 91.8701 139.49 92.555 138.946 94.274L138.824 94.6743C137.933 97.6088 137.568 99.5274 137.568 101.007C137.585 105.349 139.813 106.932 143.79 106.663C144.94 106.585 146.157 106.355 147.503 105.996L147.672 105.951C147.928 105.882 148.181 105.81 148.453 105.73L149.587 105.388C150.983 104.966 152.528 104.15 153.741 103.233C154.291 102.817 154.733 102.409 155.006 102.067C155.129 101.913 155.211 101.78 155.249 101.682L155.26 101.648L155.263 101.638L155.245 101.602C155.021 101.172 154.658 101.054 154.085 101.178L154.036 101.189C153.7 101.269 153.328 101.426 152.945 101.639C152.736 101.755 152.537 101.88 152.357 102.005L152.268 102.067L152.15 102.153L152.136 102.164C151.913 102.339 151.591 102.3 151.416 102.077C151.242 101.854 151.281 101.532 151.503 101.357L151.586 101.295C151.636 101.258 151.699 101.212 151.775 101.16C151.981 101.018 152.207 100.876 152.447 100.743C152.906 100.488 153.361 100.295 153.8 100.192C154.871 99.9388 155.766 100.248 156.219 101.264C156.548 102.011 155.771 102.984 154.359 104.051C153.091 105.01 151.496 105.861 150.012 106.33L149.026 106.629L148.741 106.714C148.463 106.795 148.204 106.869 147.941 106.94C146.468 107.341 145.135 107.6 143.86 107.686C141.841 107.823 140.156 107.505 138.885 106.603C137.365 105.522 136.553 103.674 136.543 101.009L136.544 100.865C136.567 99.2178 136.988 97.1292 137.968 93.9676Z" fill="#000091"/>
<path fill-rule="evenodd" clip-rule="evenodd" d="M147.377 101.47C147.377 101.47 149.889 99.8982 151.581 98.4286L152.042 97.9843C152.042 97.9843 154.605 96.1388 155.972 97.1299C157.339 98.121 154.212 100.753 150.658 102.854" fill="white"/>
<path fill-rule="evenodd" clip-rule="evenodd" d="M154.327 96.3914C155.075 96.2459 155.741 96.3293 156.273 96.7149C156.804 97.1 156.937 97.6893 156.699 98.3263C156.516 98.8158 156.115 99.352 155.521 99.94C154.477 100.974 152.821 102.171 150.919 103.296C150.675 103.44 150.361 103.359 150.217 103.115C150.073 102.872 150.153 102.557 150.397 102.413C152.232 101.328 153.824 100.177 154.8 99.2114C155.736 98.2845 155.94 97.7396 155.671 97.545C155.403 97.35 155.017 97.3017 154.523 97.3978C154.126 97.4751 153.688 97.6405 153.238 97.8683C153.006 97.9859 152.786 98.1124 152.586 98.2387L152.506 98.2897C152.481 98.3061 152.457 98.3219 152.434 98.337L152.369 98.3813L151.936 98.7979L151.917 98.8157C151.812 98.9069 151.702 98.9997 151.589 99.094C151.269 99.3592 150.917 99.6346 150.539 99.9178C149.907 100.392 149.23 100.865 148.554 101.316L148.295 101.488C148.211 101.543 148.13 101.596 148.052 101.647L147.749 101.842L147.649 101.905C147.409 102.055 147.093 101.982 146.942 101.742C146.798 101.511 146.86 101.209 147.079 101.053L147.112 101.031L147.345 100.883L147.516 100.773C147.662 100.677 147.819 100.574 147.985 100.463C148.647 100.022 149.308 99.5589 149.925 99.0973C150.29 98.8236 150.628 98.5585 150.934 98.3047C151.006 98.2451 151.076 98.1863 151.144 98.1282L151.236 98.0484L151.686 97.6151C151.695 97.6066 151.704 97.5985 151.714 97.5907L151.743 97.5683L151.806 97.5238C151.864 97.4839 151.942 97.4322 152.038 97.3717C152.264 97.2291 152.512 97.0868 152.775 96.9536C153.302 96.6865 153.825 96.4891 154.327 96.3914Z" fill="#000091"/>
<path fill-rule="evenodd" clip-rule="evenodd" d="M51.2393 76.7599L36.9878 63.6874C36.9878 63.6874 40.9864 55.5363 52.5893 49.8972C58.9461 46.8043 84.8689 53.0756 89.4314 54.9895C93.9768 56.9034 99.9577 74.4188 99.9577 74.4188L92.1142 77.1358C92.1142 77.1358 88.3548 85.7653 88.6795 87.064C89.2947 89.5931 90.0807 114.303 90.0807 114.303H49.1033L51.2393 76.7599Z" fill="#6A6AF4"/>
<path fill-rule="evenodd" clip-rule="evenodd" d="M87.7843 62.5957C88.0003 62.4126 88.3238 62.4394 88.5068 62.6554L88.5652 62.7263C88.6009 62.7706 88.6462 62.828 88.7002 62.8983C88.8474 63.0901 89.0107 63.315 89.186 63.5719C89.6843 64.3022 90.1817 65.1447 90.6457 66.0894C91.8337 68.5084 92.6004 71.1701 92.744 74.0116C92.9267 77.624 92.0817 81.2815 90.0135 84.9085C89.8733 85.1545 89.5602 85.2402 89.3142 85.0999C89.0683 84.9597 88.9826 84.6466 89.1228 84.4007C91.0928 80.9458 91.8929 77.4827 91.7201 74.0633C91.584 71.3714 90.8555 68.8426 89.7254 66.5414C89.2838 65.6422 88.811 64.8414 88.3391 64.1498L88.2314 63.994C88.1256 63.8428 88.0257 63.7056 87.9328 63.5829L87.8334 63.4536L87.7246 63.3182C87.5415 63.1022 87.5683 62.7787 87.7843 62.5957Z" fill="white"/>
<path fill-rule="evenodd" clip-rule="evenodd" d="M59.7231 70.4747C59.9102 70.2622 60.2341 70.2415 60.4466 70.4286C60.651 70.6085 60.678 70.9149 60.5135 71.1271L60.4928 71.1521L53.8455 78.7051C53.6553 78.9212 53.3266 78.9371 53.1166 78.7464L53.0929 78.7235L50.8031 76.3654C50.6058 76.1622 50.6106 75.8377 50.8137 75.6405C51.0087 75.4511 51.3156 75.4479 51.5144 75.6277L51.5386 75.6511L53.442 77.6114L59.7231 70.4747Z" fill="white"/>
<path fill-rule="evenodd" clip-rule="evenodd" d="M54.0415 105.708C54.0415 105.708 51.4099 109.638 47.1037 110.783C44.5405 111.466 41.1399 112.269 40.5248 111.705C39.3628 110.646 43.0538 109.057 43.6006 108.766" fill="white"/>
<path fill-rule="evenodd" clip-rule="evenodd" d="M54.3269 105.282C54.5621 105.439 54.6251 105.757 54.4676 105.993L54.4306 106.047C54.3961 106.096 54.348 106.163 54.2868 106.245C54.1436 106.437 53.9748 106.651 53.7811 106.88C53.2297 107.532 52.5871 108.184 51.8582 108.793C50.4607 109.961 48.9155 110.832 47.2359 111.278L46.6355 111.437C42.9209 112.406 40.8753 112.722 40.1795 112.084C39.6382 111.591 39.6799 110.948 40.1436 110.374C40.4713 109.968 41.0103 109.57 41.7275 109.156C42.0048 108.996 42.292 108.843 42.6091 108.684L43.3173 108.335C43.3378 108.325 43.3528 108.318 43.3603 108.314C43.6103 108.181 43.9207 108.276 44.0535 108.526C44.1863 108.776 44.0913 109.086 43.8413 109.219L43.787 109.247C43.6381 109.321 43.2759 109.497 43.2022 109.534C42.8474 109.709 42.5356 109.873 42.24 110.044C41.6242 110.4 41.1698 110.735 40.9415 111.018L40.9028 111.066C40.7862 111.218 40.7915 111.255 40.8713 111.328C40.9784 111.426 41.8012 111.413 42.9965 111.207C44.0691 111.021 45.3815 110.711 46.9721 110.287C48.4939 109.883 49.9105 109.085 51.2007 108.006C51.8813 107.438 52.4829 106.827 52.9981 106.218C53.1553 106.032 53.2942 105.858 53.4143 105.7L53.5157 105.563C53.5317 105.541 53.5467 105.521 53.5606 105.501L53.6157 105.422C53.7732 105.187 54.0916 105.124 54.3269 105.282Z" fill="#000091"/>
<path fill-rule="evenodd" clip-rule="evenodd" d="M44.0451 106.579C40.5079 106.083 37.8421 107.621 39.2775 108.835C39.8073 109.296 47.7533 109.826 49.9576 109.057C51.6665 108.476 52.1278 107.912 54.8449 105.656L52.2645 104.238L49.3596 105.092L44.0451 106.579Z" fill="white"/>
<path fill-rule="evenodd" clip-rule="evenodd" d="M39.6052 108.44L39.5956 108.43C39.5934 108.427 39.595 108.427 39.5995 108.428L39.6214 108.435C39.6795 108.454 39.7598 108.475 39.8594 108.497L39.9033 108.506C40.1392 108.556 40.4569 108.606 40.8381 108.653L40.9208 108.663C41.7395 108.761 42.7842 108.842 43.8629 108.889L44.2366 108.903C46.717 108.993 48.8359 108.886 49.7517 108.585L49.8413 108.555C50.3938 108.364 50.7959 108.179 51.1962 107.93L51.2815 107.876C51.5961 107.674 51.9319 107.42 52.4123 107.025L52.7334 106.758C53.2071 106.361 54.1342 105.58 54.5173 105.262C54.7351 105.081 55.0583 105.111 55.2392 105.329C55.42 105.547 55.39 105.87 55.1722 106.051L53.1313 107.761L52.9869 107.88C52.4712 108.301 52.105 108.572 51.7372 108.801C51.2957 109.075 50.8525 109.284 50.2837 109.486L50.1264 109.541L50.0618 109.562C47.87 110.264 39.7539 109.929 38.9465 109.226C37.928 108.365 38.3024 107.253 39.5634 106.609C40.6726 106.043 42.3619 105.826 44.1162 106.071C44.3965 106.111 44.592 106.37 44.5527 106.65C44.5134 106.93 44.2543 107.126 43.9739 107.087C42.4165 106.868 40.9377 107.059 40.0295 107.523C39.3547 107.867 39.2547 108.13 39.592 108.429L39.6052 108.44Z" fill="#000091"/>
<path fill-rule="evenodd" clip-rule="evenodd" d="M54.4173 106.186C55.4426 104.938 56.0919 103.845 56.4166 102.854C56.4166 102.854 57.083 100.854 56.8267 99.8974C55.5793 95.2494 53.9388 86.2269 48.0434 78.3151L50.1452 75.7348L38.0126 64.6104C36.5089 66.8318 35.0735 68.9337 33.8773 70.7108C31.8267 73.7183 32.0147 77.6999 34.3387 80.5024L48.2826 97.3L47.394 100.085C46.0783 100.701 42.7119 102.444 42.7119 102.444C39.0721 103.742 41.0372 104.819 42.7461 104.716C44.4549 104.614 47.0352 103.418 47.394 103.144C47.394 103.144 43.7372 105.007 41.5157 104.665C40.0632 104.699 39.1234 106.135 39.1917 106.579C39.2601 107.023 40.8664 106.972 43.1904 107.126C45.5143 107.28 47.77 105.947 47.77 105.947" fill="white"/>
<path fill-rule="evenodd" clip-rule="evenodd" d="M55.5616 96.9844L55.4111 96.389C55.0656 95.0332 54.7573 93.9012 54.4112 92.7453C53.398 89.3611 52.2105 86.3268 50.6811 83.4532C49.7738 81.7486 48.7622 80.1375 47.6325 78.6214C47.4992 78.4424 47.4976 78.1992 47.625 78.0192L47.6461 77.9913L49.4426 75.7858L38.1038 65.3894L34.3011 70.9996C32.3986 73.7899 32.552 77.4739 34.6686 80.0958L34.7333 80.1749L48.6773 96.9726C48.7815 97.0981 48.8193 97.2652 48.7807 97.4223L48.7712 97.4558L47.8827 100.241C47.8392 100.377 47.7409 100.489 47.6114 100.55L47.3127 100.692C46.9645 100.859 46.5141 101.082 45.9812 101.35L45.454 101.616L44.7253 101.986C44.5604 102.07 44.3941 102.155 44.2272 102.241L42.9478 102.899C42.9273 102.909 42.9061 102.919 42.8844 102.926L42.7274 102.984C42.0118 103.25 41.5339 103.509 41.2921 103.735C41.2356 103.788 41.201 103.83 41.1831 103.86L41.1803 103.864L41.1821 103.866C41.2404 103.929 41.3898 104.013 41.6069 104.081L41.6512 104.095C41.796 104.137 41.956 104.168 42.1222 104.187L42.1801 104.193L42.2556 104.192C42.6034 104.18 42.992 104.128 43.4144 104.04L43.5124 104.019C44.1078 103.888 44.7461 103.691 45.4028 103.445C45.8482 103.279 46.2752 103.1 46.668 102.922L46.8003 102.861C46.8428 102.841 46.8836 102.822 46.9227 102.804L47.1045 102.716C47.1304 102.703 47.1496 102.693 47.1616 102.687C47.7182 102.404 48.2018 103.173 47.705 103.552C46.9921 104.095 44.2673 105.139 42.777 105.228C42.5969 105.239 42.4165 105.239 42.2393 105.228L42.12 105.22L42.0398 105.219C41.8596 105.217 41.6863 105.205 41.5204 105.183L41.49 105.179L41.4692 105.18C40.9996 105.207 40.5571 105.428 40.1955 105.781L40.1508 105.826C39.9914 105.989 39.8615 106.168 39.7783 106.331L39.7617 106.364L39.782 106.369C39.8041 106.374 39.8278 106.378 39.8531 106.383L39.8922 106.39C40.1721 106.438 40.5467 106.47 41.23 106.506L42.2455 106.557C42.606 106.576 42.9157 106.594 43.2244 106.614C44.2038 106.679 45.2606 106.464 46.3056 106.064C46.6291 105.94 46.927 105.807 47.1916 105.674L47.2963 105.621C47.3294 105.604 47.3607 105.587 47.3901 105.572L47.5094 105.505C47.7532 105.361 48.0675 105.442 48.2116 105.686C48.3556 105.93 48.2748 106.244 48.031 106.388L47.9659 106.425C47.8905 106.468 47.7843 106.524 47.6505 106.591C47.3572 106.738 47.0289 106.884 46.6725 107.021C45.5007 107.47 44.305 107.713 43.1567 107.637L42.747 107.612C42.6072 107.603 42.4627 107.595 42.3092 107.587L41.1005 107.526C40.4469 107.49 40.0665 107.458 39.7528 107.406L39.7183 107.401C39.1156 107.297 38.7563 107.119 38.6853 106.657C38.5776 105.957 39.3017 104.987 40.2786 104.484L40.3401 104.453L40.3316 104.442C40.3229 104.43 40.3146 104.418 40.3066 104.405L40.2833 104.368C40.0121 103.914 40.145 103.405 40.5911 102.987C40.9597 102.641 41.5733 102.313 42.4484 101.994L42.5065 101.973L43.257 101.586L43.7601 101.328C44.0112 101.199 44.2611 101.072 44.5066 100.947L45.3611 100.514C45.878 100.254 46.3244 100.032 46.6859 99.856L46.9736 99.7171L47.709 97.4114L33.9443 80.8296C31.499 77.8808 31.2789 73.7028 33.3876 70.5207L36.0092 66.6501C36.7815 65.512 37.4515 64.5251 37.5883 64.323C37.7578 64.0727 38.1037 64.0241 38.335 64.2115L38.3593 64.2325L50.4919 75.3569C50.684 75.533 50.7123 75.8236 50.5626 76.0328L50.5429 76.0585L48.6916 78.3309L48.7832 78.4567C49.7589 79.8085 50.6456 81.2307 51.4524 82.7223L51.5862 82.9715C53.1505 85.9108 54.3621 89.0065 55.3934 92.4512L55.4882 92.7701C55.7854 93.7791 56.0588 94.7853 56.357 95.9497L56.6055 96.9323L57.0641 98.7696C57.163 99.1608 57.2437 99.4727 57.3221 99.7648C57.4244 100.147 57.4192 100.627 57.3367 101.199C57.2931 101.502 57.2288 101.82 57.1492 102.145C57.0958 102.363 57.0386 102.572 56.9814 102.764L56.9313 102.929C56.9201 102.964 56.9109 102.993 56.904 103.013C56.5541 104.081 55.8667 105.23 54.8135 106.511C54.6338 106.73 54.3107 106.762 54.092 106.582C53.8733 106.402 53.8417 106.079 54.0215 105.86C54.972 104.704 55.5881 103.687 55.9034 102.772L55.9483 102.636L55.9852 102.517C55.9896 102.502 55.9941 102.487 55.9987 102.472C56.0514 102.295 56.1041 102.102 56.1533 101.901C56.2255 101.606 56.2835 101.319 56.3219 101.053C56.3862 100.607 56.3901 100.248 56.3318 100.03L56.2596 99.7582C56.1859 99.4778 56.1068 99.168 56.0108 98.7855L55.5616 96.9844Z" fill="#000091"/>
<path fill-rule="evenodd" clip-rule="evenodd" d="M73.0779 101.487L79.7081 101.675L85.3814 75.017C85.501 74.4189 85.9795 74.0088 86.5434 74.0259L128.461 74.6582C129.23 74.6753 129.794 75.4784 129.623 76.2986L124.308 104.733C123.932 106.493 121.711 107.86 120.122 107.826C109.817 107.655 78.9221 107.074 77.7088 107.057C72.121 106.955 73.0779 101.487 73.0779 101.487Z" fill="#000091"/>
<path fill-rule="evenodd" clip-rule="evenodd" d="M113.098 102.819C113.098 102.819 116.806 100.564 117.592 102.409C118.378 104.255 111.987 107.108 111.987 107.108" fill="white"/>
<path fill-rule="evenodd" clip-rule="evenodd" d="M115.29 101.318C116.599 100.981 117.628 101.184 118.064 102.208C118.358 102.899 118.057 103.617 117.351 104.348C116.818 104.899 116.045 105.469 115.09 106.051C114.456 106.436 113.779 106.804 113.103 107.142L112.904 107.241C112.775 107.305 112.652 107.364 112.535 107.419L112.306 107.527L112.196 107.577C111.938 107.692 111.635 107.576 111.519 107.317C111.404 107.059 111.52 106.756 111.778 106.64L111.877 106.595L112.013 106.532C112.203 106.443 112.415 106.34 112.644 106.226C113.297 105.899 113.95 105.544 114.557 105.175C115.444 104.635 116.153 104.112 116.613 103.636C117.064 103.169 117.21 102.82 117.121 102.61C116.94 102.187 116.425 102.085 115.546 102.311C115.191 102.403 114.807 102.543 114.411 102.72C114.145 102.838 113.89 102.965 113.656 103.092L113.562 103.144L113.438 103.214C113.401 103.236 113.376 103.25 113.365 103.257C113.123 103.404 112.807 103.328 112.66 103.086C112.513 102.844 112.59 102.529 112.832 102.381L112.922 102.328C112.986 102.291 113.068 102.245 113.167 102.191C113.423 102.052 113.702 101.913 113.994 101.783C114.438 101.585 114.874 101.426 115.29 101.318Z" fill="#000091"/>
<path fill-rule="evenodd" clip-rule="evenodd" d="M96.625 107.109C105.613 111.295 110.74 110.731 113.559 105.468C115.661 101.538 118.242 95.4033 116.499 95.1811C114.687 95.4203 112.637 101.675 112.637 101.675C112.637 101.675 116.174 94.1387 114.277 94.378C112.825 94.583 111.594 96.5994 110.09 101.23C110.09 101.23 112.38 96.121 112.329 95.1811C112.209 92.5324 109.971 91.0458 107.596 101.025L108.86 96.0868C109.253 93.8311 107.1 94.8906 105.938 97.1975C104.691 99.6753 102.469 103.606 101.666 105.998" fill="white"/>
<path fill-rule="evenodd" clip-rule="evenodd" d="M103.126 101.501L103.373 101.017L103.67 100.445C103.893 100.02 105.143 97.6339 105.468 96.9903L105.48 96.9667C106.081 95.7744 106.979 94.8023 107.781 94.4596C108.37 94.2078 108.846 94.3056 109.128 94.6601L109.153 94.6922L109.172 94.6559C109.612 93.8122 110.056 93.2477 110.501 92.9552L110.537 92.9327C111.184 92.528 111.85 92.6807 112.285 93.268C112.521 93.5861 112.686 94.0246 112.774 94.5256L112.783 94.5856L112.792 94.5781C113.224 94.1842 113.676 93.9565 114.161 93.8771L114.213 93.8692C114.669 93.8117 115.044 94.0188 115.224 94.423C115.321 94.642 115.358 94.9059 115.348 95.2201L115.346 95.2585L115.385 95.2218C115.448 95.1646 115.51 95.1116 115.573 95.0629L115.62 95.0271C115.883 94.8324 116.152 94.7096 116.431 94.6727C116.475 94.6669 116.52 94.6668 116.563 94.6724C117.319 94.7687 117.624 95.419 117.582 96.352C117.552 97.0478 117.334 97.9736 116.957 99.0972C116.309 101.025 115.189 103.508 114.011 105.71C111.02 111.294 105.567 111.839 96.4086 107.573C96.152 107.454 96.0408 107.149 96.1604 106.892C96.2799 106.635 96.5849 106.524 96.8415 106.644C105.568 110.709 110.431 110.223 113.107 105.226C114.232 103.124 115.304 100.757 115.938 98.9082L115.985 98.7706C116.335 97.73 116.532 96.8868 116.558 96.3066C116.57 96.0402 116.544 95.8483 116.495 95.743L116.485 95.7235C116.484 95.7208 116.482 95.7183 116.481 95.716L116.478 95.7112L116.459 95.7181C116.401 95.7408 116.337 95.776 116.267 95.825L116.231 95.8506C115.77 96.1926 115.238 96.9666 114.688 98.0438L114.641 98.1365L114.621 98.1939C114.518 98.4862 114.406 98.7884 114.287 99.0983L114.214 99.2852C113.97 99.9069 113.71 100.528 113.45 101.12L113.373 101.293C113.336 101.377 113.3 101.457 113.265 101.534L113.101 101.892C112.832 102.465 111.977 102.137 112.141 101.544L112.157 101.492L112.248 101.227L112.309 101.052C112.372 100.874 112.442 100.682 112.518 100.479C112.808 99.7051 113.128 98.9311 113.468 98.2064C113.51 98.1173 113.551 98.0297 113.593 97.9435L113.696 97.7334L113.725 97.6495C114.035 96.7463 114.236 95.9948 114.301 95.4546L114.308 95.3954C114.33 95.1834 114.328 95.0202 114.309 94.9178L114.304 94.8926L114.279 94.8974C113.706 95.0124 113.134 95.5477 112.528 96.598L112.503 96.6418L112.49 96.6828C112.361 97.0623 112.198 97.5005 112.004 97.9976L111.877 98.321C111.815 98.4763 111.751 98.6352 111.685 98.7974C111.488 99.2824 111.28 99.7793 111.069 100.27L110.872 100.728L110.558 101.44C110.293 102.031 109.403 101.688 109.603 101.072L109.695 100.792C110.334 98.8535 110.93 97.367 111.533 96.2762L111.556 96.2351L111.607 96.0796C111.744 95.6554 111.818 95.3549 111.817 95.2191L111.817 95.204C111.791 94.6276 111.653 94.1372 111.461 93.8785C111.335 93.7077 111.259 93.6903 111.08 93.8022C110.368 94.2469 109.497 96.0046 108.627 99.0868L108.564 99.3091L108.092 101.152C107.927 101.798 106.971 101.573 107.09 100.937L107.097 100.906C107.234 100.331 107.372 99.7859 107.511 99.2722L107.576 99.0341L108.358 95.9798L108.364 95.9425C108.393 95.7589 108.401 95.6077 108.39 95.4915L108.387 95.4577C108.382 95.4187 108.375 95.387 108.367 95.3625L108.362 95.3506L108.354 95.3514C108.319 95.3552 108.272 95.3674 108.214 95.3901L108.184 95.4024C107.645 95.6326 106.931 96.3965 106.432 97.3572L106.102 98.0007C105.56 99.0485 104.594 100.891 104.547 100.979L104.348 101.363C104.284 101.487 104.222 101.608 104.162 101.727L103.982 102.079C103.084 103.851 102.486 105.165 102.152 106.161C102.062 106.429 101.771 106.574 101.503 106.484C101.235 106.394 101.09 106.103 101.18 105.835L101.228 105.695C101.596 104.639 102.214 103.293 103.126 101.501Z" fill="#000091"/>
<rect x="73.2603" y="13.5137" width="2.90501" height="5.1094" transform="rotate(163.076 73.2603 13.5137)" fill="#F95C5E"/>
<path fill-rule="evenodd" clip-rule="evenodd" d="M68.9082 10.3554C71.73 10.3554 74.0176 8.06791 74.0176 5.24608C74.0176 2.42426 71.73 0.136719 68.9082 0.136719C66.0864 0.136719 63.7988 2.42426 63.7988 5.24608C63.7988 8.06791 66.0864 10.3554 68.9082 10.3554Z" fill="#000091"/>
<path fill-rule="evenodd" clip-rule="evenodd" d="M71.1298 11.4833C75.624 10.5605 81.5365 10.851 85.706 13.0212C98.2829 20.3178 98.2316 29.2037 92.7292 33.0314C93.1393 26.162 92.1995 23.4279 89.9097 21.5824C87.2268 25.4101 77.9309 29.0499 70.3437 28.2809C70.3437 28.2468 69.626 35.082 70.2924 35.1162C70.3608 35.5263 71.3177 39.3199 71.3177 39.3199L69.5235 46.4798L51.5809 41.6268C50.5556 41.4901 49.8892 40.3965 50.248 39.4566C52.4353 33.5954 56.6561 14.6617 71.1298 11.4833Z" fill="#000091"/>
<path fill-rule="evenodd" clip-rule="evenodd" d="M81.8267 46.4456L81.1432 52.4606L83.228 53.1612C83.5185 53.7422 86.3039 62.1838 77.025 61.6882C70.9758 61.3635 63.5766 54.3916 62.7734 50.0853L64.5335 50.0512C67.148 49.829 68.8568 48.2398 69.6258 45.7278L71.7106 38.8926L81.8267 46.4456Z" fill="white"/>
<path fill-rule="evenodd" clip-rule="evenodd" d="M69.1355 45.5785L69.1103 45.6596C68.3768 47.9713 66.8318 49.3136 64.5694 49.5334L64.5051 49.5391L62.7636 49.573C62.4469 49.5792 62.2115 49.8682 62.2696 50.1796C62.6892 52.4296 64.7588 55.3332 67.5982 57.7692C70.6138 60.3563 74.0362 62.0414 76.9976 62.2003C81.3234 62.4314 83.639 60.803 84.2176 57.9299C84.4214 56.9185 84.3909 55.8205 84.1907 54.7171L84.164 54.5759C84.0263 53.872 83.8213 53.2015 83.6866 52.9322L83.6705 52.9025C83.6081 52.7959 83.5091 52.7151 83.3914 52.6755L81.6994 52.1069L82.3362 46.5037C82.3568 46.3225 82.2796 46.1441 82.1335 46.035L72.0173 38.482C71.7329 38.2696 71.3239 38.4037 71.2203 38.7433L69.1355 45.5785ZM71.9882 39.7397L81.2843 46.6802L80.6339 52.4029L80.6314 52.4342C80.6194 52.6626 80.7608 52.8731 80.98 52.9468L82.8402 53.5719L82.8481 53.5944C82.8747 53.6712 82.9047 53.7632 82.9346 53.8626C83.0284 54.1744 83.1144 54.5283 83.1818 54.9001C83.3606 55.8856 83.3877 56.858 83.2125 57.7274C82.7386 60.0807 80.889 61.3814 77.0524 61.1765C74.3494 61.0314 71.1246 59.4437 68.2658 56.991L68.1727 56.9107C65.8209 54.8713 64.0528 52.5107 63.444 50.6359L63.428 50.5856L64.5436 50.5639L64.577 50.5622C67.3418 50.3273 69.2662 48.6543 70.1161 45.8781L71.9882 39.7397Z" fill="#000091"/>
<path fill-rule="evenodd" clip-rule="evenodd" d="M71.5913 37.3206L70.566 37.406C70.566 37.406 64.6364 37.4402 65.132 31.989C65.5079 27.8537 69.5578 28.5714 71.4888 29.1524" fill="white"/>
<path fill-rule="evenodd" clip-rule="evenodd" d="M67.6249 28.2998C68.8266 28.0551 70.2124 28.2331 71.6364 28.6615C71.9076 28.7431 72.0612 29.029 71.9796 29.3002C71.8981 29.5713 71.6121 29.7249 71.341 29.6434C70.0649 29.2594 68.8298 29.1008 67.8295 29.3045C66.5492 29.5652 65.7919 30.3919 65.6425 32.0355C65.4395 34.2684 66.3502 35.6145 68.0388 36.3494C68.5839 36.5866 69.1736 36.7403 69.7654 36.8254C69.9747 36.8555 70.1695 36.8747 70.3443 36.8852L70.431 36.8898L70.5461 36.8932L71.5487 36.8097C71.8208 36.787 72.0609 36.9812 72.0988 37.2481L72.1021 37.278C72.1248 37.5501 71.9307 37.7902 71.6638 37.8281L71.6338 37.8315L70.6085 37.9169L70.5888 37.9182L70.5668 37.9187L70.4946 37.9179C70.4481 37.9168 70.391 37.9147 70.3241 37.911L70.2829 37.9087C70.0807 37.8965 69.8579 37.8745 69.6194 37.8403C68.9429 37.743 68.2665 37.5667 67.6297 37.2895C65.5564 36.3872 64.376 34.6424 64.6214 31.9427C64.8122 29.8434 65.9055 28.6499 67.6249 28.2998Z" fill="#000091"/>
<path fill-rule="evenodd" clip-rule="evenodd" d="M92.7292 33.0487C93.1394 26.1793 92.1995 23.7015 89.9097 21.873C87.261 25.6495 78.9733 29.3064 70.5317 28.3324C70.2412 29.2551 70.4804 28.4349 70.3095 29.4602C70.207 30.5368 70.1216 31.75 70.0703 32.7924C70.1728 36.7398 71.3007 39.3543 71.3007 39.3543C72.8386 43.4042 75.829 46.7193 80.289 47.7616C88.0642 49.5901 91.7381 38.7733 92.2679 36.3467C92.5413 35.1164 92.7292 33.0487 92.7292 33.0487Z" fill="white"/>
<path fill-rule="evenodd" clip-rule="evenodd" d="M89.4899 21.5787C88.2163 23.3947 85.5419 25.1869 82.2169 26.4027C78.5783 27.7331 74.4902 28.2731 70.5904 27.8231C70.3463 27.7949 70.1165 27.944 70.0427 28.1784L69.9082 28.6036L69.8869 28.677C69.8691 28.7433 69.8617 28.792 69.8627 28.854L69.8639 28.8863C69.8643 28.895 69.8654 28.9086 69.8658 28.9118L69.8642 28.9428L69.8581 29.0072C69.8488 29.0899 69.8314 29.2105 69.8038 29.3759L69.7992 29.4116C69.6983 30.4704 69.6112 31.6897 69.5582 32.7672C69.5576 32.78 69.5575 32.7929 69.5578 32.8057C69.6033 34.558 69.8456 36.1842 70.2183 37.6458C70.3392 38.1196 70.4665 38.5466 70.5941 38.9231L70.6472 39.0768C70.7012 39.2304 70.7479 39.3548 70.7853 39.4488L70.8214 39.5362C72.5339 44.046 75.7956 47.2379 80.1723 48.2608C83.8662 49.1295 86.9626 47.4275 89.4146 43.9449C91.0326 41.6469 92.2754 38.624 92.7451 36.5619L92.7687 36.4561C92.8909 35.906 93.004 35.1686 93.1066 34.3257C93.1353 34.0892 93.1617 33.857 93.1854 33.6347L93.2212 33.2881C93.2292 33.2074 93.2354 33.1424 93.2397 33.0954C93.637 26.4448 92.8424 23.5588 90.2295 21.4724C89.9985 21.2879 89.6597 21.3366 89.4899 21.5787ZM70.89 28.8987L70.8939 28.8862L71.0198 28.8984C74.9159 29.2586 78.954 28.6875 82.569 27.3656L82.697 27.3184C85.8461 26.1479 88.4494 24.4739 89.9375 22.6795L89.9896 22.6157L90.049 22.6707C91.9807 24.4867 92.5692 27.126 92.2175 33.0181L92.1829 33.3645C92.161 33.5769 92.1364 33.8003 92.1095 34.0293L92.0888 34.2019C91.9945 34.9773 91.891 35.6589 91.7829 36.1645L91.7674 36.2355C91.3439 38.1752 90.1373 41.1375 88.5763 43.3547C86.3412 46.5292 83.6284 48.0203 80.4064 47.2626C76.3841 46.3225 73.3781 43.3808 71.7799 39.1722L71.7413 39.0776L71.7232 39.0316C71.6917 38.9505 71.6571 38.8573 71.62 38.7525L71.5975 38.6882C71.4676 38.3142 71.3363 37.8807 71.2118 37.3924L71.173 37.2373C70.8532 35.9389 70.6413 34.5042 70.5883 32.9643L70.5833 32.7989L70.5949 32.5701C70.6434 31.6545 70.715 30.6541 70.7972 29.7522L70.8181 29.5267L70.8461 29.3527C70.8793 29.1386 70.8902 29.0252 70.8904 28.9247L70.89 28.8987Z" fill="#000091"/>
<path fill-rule="evenodd" clip-rule="evenodd" d="M87.1423 28.8621C87.4152 28.8535 87.645 29.0597 87.6691 29.3282L87.6709 29.3583L87.9614 38.5517C87.9711 38.8598 87.7096 39.1042 87.4069 39.0788L87.3765 39.0754L85.1038 38.7507C84.8235 38.7107 84.6288 38.451 84.6688 38.1707C84.7074 37.9005 84.9502 37.7097 85.2188 37.7323L85.2488 37.7357L86.9172 37.9741L86.6461 29.3907C86.6375 29.1178 86.8438 28.888 87.1122 28.8639L87.1423 28.8621Z" fill="#000091"/>
<path fill-rule="evenodd" clip-rule="evenodd" d="M80.8601 27.7735C81.6367 27.2927 82.461 27.1032 83.2661 27.4139C83.5235 27.5133 83.7671 27.6624 83.994 27.862C84.2066 28.0489 84.2273 28.3729 84.0404 28.5855C83.8534 28.7981 83.5294 28.8188 83.3169 28.6318C83.1797 28.5112 83.04 28.4256 82.897 28.3705C82.4488 28.1975 81.9306 28.3166 81.3998 28.6452C81.2681 28.7268 81.1473 28.8145 81.0409 28.9017L80.9805 28.9525C80.952 28.9772 80.9319 28.9956 80.9212 29.0061C80.7189 29.2043 80.3944 29.2009 80.1962 28.9987C79.9981 28.7964 80.0015 28.4718 80.2037 28.2737C80.3385 28.1417 80.5634 27.9572 80.8601 27.7735Z" fill="#000091"/>
<path fill-rule="evenodd" clip-rule="evenodd" d="M80.802 40.0651C81.0794 40.0086 81.3502 40.1877 81.4067 40.4651C81.5182 41.0124 81.8519 41.3319 82.3841 41.5012C82.7443 41.6157 83.1385 41.6431 83.4758 41.6194L83.5407 41.6138C83.8216 41.5787 84.0778 41.7779 84.113 42.0589C84.1481 42.3398 83.9488 42.596 83.6679 42.6311L83.63 42.6353C83.6076 42.6375 83.58 42.6399 83.5476 42.6422C83.0923 42.6741 82.5769 42.6384 82.0734 42.4783C81.211 42.204 80.5943 41.6137 80.402 40.6698C80.3455 40.3923 80.5246 40.1216 80.802 40.0651Z" fill="#000091"/>
<path fill-rule="evenodd" clip-rule="evenodd" d="M90.1104 29.0394C90.6189 28.899 91.1438 28.8441 91.6521 28.929C92.379 29.0504 92.9766 29.45 93.353 30.1595C93.4857 30.4096 93.3906 30.7199 93.1405 30.8526C92.8904 30.9853 92.58 30.8902 92.4473 30.6401C92.2271 30.2249 91.9074 30.0111 91.4832 29.9403C91.1435 29.8836 90.7602 29.9236 90.3834 30.0277C90.3113 30.0476 90.2444 30.0686 90.1838 30.0896L90.09 30.1241L90.0636 30.1348C89.8041 30.2481 89.5019 30.1295 89.3886 29.8701C89.2754 29.6106 89.3939 29.3084 89.6534 29.1951L89.7065 29.1729C89.8033 29.134 89.9407 29.0863 90.1104 29.0394Z" fill="#000091"/>
<path fill-rule="evenodd" clip-rule="evenodd" d="M83.0358 32.86C83.1486 32.2186 82.901 31.6391 82.4827 31.5655C82.0644 31.492 81.6339 31.9522 81.5211 32.5936C81.4083 33.235 81.656 33.8145 82.0743 33.8881C82.4925 33.9616 82.923 33.5013 83.0358 32.86Z" fill="#000091"/>
<path fill-rule="evenodd" clip-rule="evenodd" d="M91.0119 34.2203C91.1247 33.579 90.877 32.9994 90.4588 32.9259C90.0405 32.8523 89.61 33.3126 89.4972 33.954C89.3844 34.5953 89.632 35.1749 90.0503 35.2484C90.4686 35.322 90.8991 34.8617 91.0119 34.2203Z" fill="#000091"/>
<path fill-rule="evenodd" clip-rule="evenodd" d="M75.634 30.0598C74.9948 33.7827 76.7938 37.2463 79.7403 37.7522C82.6869 38.258 85.538 35.5927 86.1771 31.8698C86.8162 28.1468 85.0173 24.6833 82.0707 24.1774C79.1242 23.6716 76.2731 26.3369 75.634 30.0598ZM76.6445 30.2333C77.1966 27.0172 79.5791 24.79 81.8973 25.1879C84.2154 25.5859 85.7187 28.4802 85.1666 31.6963C84.6145 34.9124 82.232 37.1396 79.9138 36.7416C77.5956 36.3437 76.0924 33.4494 76.6445 30.2333Z" fill="#F95C5E"/>
<path fill-rule="evenodd" clip-rule="evenodd" d="M88.2135 32.676C87.5744 36.3989 89.3734 39.8625 92.3199 40.3684C95.2665 40.8742 98.1176 38.2089 98.7567 34.486C99.3958 30.763 97.5969 27.2995 94.6503 26.7936C91.7038 26.2878 88.8527 28.9531 88.2135 32.676ZM89.2241 32.8495C89.7762 29.6334 92.1587 27.4062 94.4768 27.8042C96.795 28.2021 98.2983 31.0964 97.7462 34.3125C97.1941 37.5286 94.8116 39.7558 92.4934 39.3578C90.1752 38.9599 88.672 36.0656 89.2241 32.8495Z" fill="#F95C5E"/>
<path fill-rule="evenodd" clip-rule="evenodd" d="M85.1981 31.3389C85.235 31.0684 85.4766 30.8762 85.7454 30.8971L85.7753 30.9003L88.7829 31.3104C89.0634 31.3486 89.2598 31.6071 89.2215 31.8876C89.1846 32.1581 88.943 32.3504 88.6743 32.3295L88.6443 32.3263L85.6368 31.9162C85.3563 31.8779 85.1599 31.6195 85.1981 31.3389Z" fill="#F95C5E"/>
<path fill-rule="evenodd" clip-rule="evenodd" d="M69.8313 28.3156L76.3761 28.5377C76.659 28.5473 76.8806 28.7845 76.871 29.0675C76.8618 29.3403 76.6409 29.5561 76.3714 29.5626L76.3413 29.5624L69.7965 29.3403C69.5136 29.3307 69.292 29.0935 69.3016 28.8105C69.3108 28.5377 69.5317 28.3219 69.8012 28.3154L69.8313 28.3156Z" fill="#F95C5E"/>
<path fill-rule="evenodd" clip-rule="evenodd" d="M49.411 66.9343L58.2627 63.961L53.3413 54.1694L43.4644 59.313L49.411 66.9343Z" fill="white"/>
<path fill-rule="evenodd" clip-rule="evenodd" d="M54.127 55.0923C54.127 55.0923 57.1686 59.4498 58.1256 60.8339C59.6635 63.0725 59.2363 65.6357 56.6731 64.6275" fill="white"/>
<path fill-rule="evenodd" clip-rule="evenodd" d="M53.8335 54.6719C54.0567 54.5161 54.3608 54.5626 54.5279 54.7728L54.5547 54.8094L58.5481 60.5436C59.3772 61.7503 59.7201 63.1087 59.4289 64.0936C59.0797 65.2743 57.9424 65.6776 56.4854 65.1045C56.222 65.0009 56.0924 64.7033 56.196 64.4398C56.2997 64.1764 56.5973 64.0468 56.8607 64.1504C57.8016 64.5205 58.284 64.3494 58.4457 63.8029C58.6338 63.1667 58.3834 62.1443 57.7478 61.1904L55.848 58.4562L53.7066 55.3857C53.5445 55.1535 53.6014 54.834 53.8335 54.6719Z" fill="#000091"/>
<path fill-rule="evenodd" clip-rule="evenodd" d="M51.8545 58.2705C51.8545 58.2705 57.3227 64.6273 57.7157 66.4557C58.1088 68.2842 55.836 69.412 53.9563 66.5583" fill="white"/>
<path fill-rule="evenodd" clip-rule="evenodd" d="M51.5201 57.8818C51.7348 57.6972 52.0585 57.7215 52.2431 57.9362L52.4985 58.2361L52.6366 58.3996C52.8016 58.5954 52.9798 58.8084 53.1684 59.0358C53.8613 59.8714 54.5543 60.7311 55.2017 61.5679C55.3461 61.7546 55.4868 61.9383 55.6236 62.1188L55.759 62.2983C57.1803 64.1887 58.0479 65.5617 58.2169 66.348C58.4665 67.509 57.8555 68.5479 56.7907 68.7651C55.7016 68.9872 54.4904 68.301 53.5282 66.8402C53.3724 66.6038 53.4379 66.2859 53.6743 66.1301C53.9107 65.9744 54.2287 66.0398 54.3844 66.2762C55.1373 67.4192 55.9636 67.8874 56.5858 67.7605C57.0692 67.6619 57.3485 67.1869 57.2145 66.5634C57.0905 65.9866 56.254 64.6628 54.9395 62.9144C54.7637 62.6805 54.5805 62.4406 54.3907 62.1953C53.7511 61.3685 53.0652 60.5176 52.3791 59.6903L51.9958 59.2306L51.5988 58.7605L51.4658 58.6048C51.2812 58.3901 51.3055 58.0665 51.5201 57.8818Z" fill="#000091"/>
<path fill-rule="evenodd" clip-rule="evenodd" d="M49.684 59.9624C49.684 59.9624 54.8788 66.0971 54.2466 68.1647C53.563 70.4887 50.265 65.7895 49.0688 64.4395" fill="white"/>
<path fill-rule="evenodd" clip-rule="evenodd" d="M49.3532 59.5711C49.5609 59.3952 49.868 59.4133 50.054 59.607L50.0826 59.6392L50.246 59.8358L50.4661 60.1054C50.574 60.2388 50.6884 60.3817 50.808 60.5332C51.3549 61.2256 51.9018 61.9553 52.4131 62.6896C52.7588 63.1861 53.0765 63.6683 53.3603 64.1311C54.4916 65.9761 55.0249 67.3739 54.7388 68.3093C54.4718 69.2172 53.7777 69.5209 52.9715 69.1692C52.4408 68.9376 51.8416 68.4322 51.1294 67.6724C50.8793 67.4056 50.6181 67.1102 50.3357 66.7771L50.088 66.4797C49.6309 65.9257 48.8445 64.9588 48.6856 64.7794C48.4978 64.5675 48.5174 64.2435 48.7293 64.0558C48.9412 63.868 49.2652 63.8876 49.453 64.0995L49.5246 64.1827C49.8508 64.5678 50.8373 65.7834 51.1177 66.114C51.3596 66.3993 51.5842 66.6547 51.7978 66.8857L51.8774 66.9712C52.5001 67.6354 53.0143 68.0692 53.3815 68.2294L53.4289 68.2496C53.6372 68.3357 53.6717 68.3038 53.7568 68.0148C53.923 67.4712 53.4574 66.2508 52.4862 64.667C52.2135 64.2223 51.9066 63.7565 51.5717 63.2755C51.0733 62.5596 50.5384 61.8459 50.0034 61.1687L49.7987 60.9113C49.7105 60.8012 49.626 60.6969 49.5459 60.5989L49.2932 60.2936C49.1103 60.0776 49.1371 59.7541 49.3532 59.5711Z" fill="#000091"/>
<path fill-rule="evenodd" clip-rule="evenodd" d="M54.1274 55.0922L56.9299 56.4421C56.9982 56.4763 57.0837 56.5105 57.1691 56.5447C58.9121 57.1086 59.5615 56.5276 59.8007 55.8269C60.0399 55.1092 59.8007 54.3232 59.2368 53.8105C55.9558 50.7688 47.651 49.8803 47.651 49.8803C45.6346 49.641 40.3373 51.8625 41.2942 56.3225C42.2511 60.7825 45.3954 66.4558 48.3516 68.1133C51.2908 69.7538 52.0085 67.8228 49.0864 64.4565C49.0522 64.4052 46.9162 61.7395 46.9162 61.7395" fill="white"/>
<path fill-rule="evenodd" clip-rule="evenodd" d="M43.0515 50.9277C44.4778 49.8674 46.3938 49.2451 47.6392 49.3635L47.8569 49.3881L48.0518 49.4123C48.1214 49.4213 48.1955 49.4311 48.2739 49.4417L48.548 49.4801C48.9214 49.5337 49.3255 49.5975 49.7539 49.6722C51.2851 49.939 52.8168 50.2885 54.2504 50.7312C56.5627 51.4454 58.3969 52.3331 59.5814 53.4312C60.3016 54.0859 60.588 55.0854 60.2856 55.9926C59.8903 57.1504 58.8076 57.5923 57.0814 57.0547L57.0111 57.0324L56.9785 57.0206L56.8511 56.969C56.7993 56.9474 56.7623 56.9309 56.7256 56.9131L53.9047 55.554C53.6496 55.4311 53.5425 55.1247 53.6653 54.8697C53.7837 54.624 54.0721 54.5156 54.3211 54.6176L54.3497 54.6303L57.1815 55.9945C57.1976 56.002 57.2161 56.0101 57.2398 56.0201L57.342 56.0617L57.3895 56.0769C58.5915 56.4539 59.0958 56.2605 59.3036 55.6944L59.3141 55.6648C59.4839 55.1556 59.3182 54.5776 58.888 54.1865C57.8359 53.2111 56.1262 52.3837 53.9478 51.7109C52.5602 51.2823 51.0693 50.9422 49.5778 50.6822C49.1077 50.6003 48.6679 50.5318 48.2678 50.4759L48.1359 50.4577C48.0095 50.4405 47.8951 50.4257 47.7936 50.4132L47.5904 50.3893C46.6213 50.2744 44.917 50.8185 43.6632 51.7506C42.1291 52.8911 41.4087 54.4134 41.7952 56.2149C42.7734 60.7742 45.9213 66.1631 48.6012 67.6657C49.762 68.3136 50.3488 68.3096 50.4206 68.0335C50.5597 67.4982 49.9743 66.2617 48.699 64.7925L48.6785 64.7673L48.6431 64.7201L47.2343 62.9571L46.5159 62.06C46.3389 61.8391 46.3745 61.5164 46.5954 61.3394C46.8079 61.1692 47.1143 61.1955 47.295 61.3942L47.4093 61.5353L49.3982 64.0238L49.479 64.1272L49.5391 64.1966C50.9523 65.8445 51.6391 67.2961 51.4235 68.2479L51.4129 68.2914C51.2596 68.8812 50.7729 69.2156 50.1205 69.22C49.5673 69.2238 48.8845 68.998 48.1007 68.5605C45.1214 66.8901 41.8269 61.2502 40.7927 56.43C40.3143 54.2 41.2175 52.2911 43.0515 50.9277Z" fill="#000091"/>
<path fill-rule="evenodd" clip-rule="evenodd" d="M203.7 60.6799L194.694 58.2876L198.983 48.1885L209.151 52.7168L203.7 60.6799Z" fill="white"/>
<path fill-rule="evenodd" clip-rule="evenodd" d="M198.249 49.1626C198.249 49.1626 195.481 53.7081 194.626 55.1435C193.225 57.4675 193.823 60.0136 196.318 58.8345" fill="white"/>
<path fill-rule="evenodd" clip-rule="evenodd" d="M198.515 48.7248C198.748 48.8666 198.828 49.1643 198.702 49.4021L198.52 49.7024L197.038 52.1411L195.267 55.0702L195.065 55.4082C194.457 56.4167 194.257 57.4869 194.492 58.126C194.689 58.6634 195.183 58.8036 196.099 58.371C196.355 58.2501 196.66 58.3595 196.781 58.6155C196.902 58.8715 196.793 59.177 196.537 59.298C195.119 59.9681 193.955 59.6379 193.529 58.4793C193.181 57.5304 193.422 56.1843 194.142 54.9535L194.665 54.0809L195.875 52.0814L197.811 48.896C197.958 48.6542 198.273 48.5775 198.515 48.7248Z" fill="#000091"/>
<path fill-rule="evenodd" clip-rule="evenodd" d="M200.727 52.187C200.727 52.187 195.669 58.8856 195.395 60.7311C195.122 62.5766 197.446 63.5677 199.155 60.5944" fill="white"/>
<path fill-rule="evenodd" clip-rule="evenodd" d="M201.036 51.7779C201.262 51.9485 201.306 52.27 201.136 52.4959L200.909 52.7999L200.655 53.1435C200.566 53.2638 200.474 53.3896 200.379 53.5203L200.306 53.6193C199.683 54.4757 199.06 55.3571 198.48 56.2139C198.339 56.4213 198.202 56.6251 198.07 56.8248L197.972 56.9738C196.753 58.8261 195.989 60.219 195.902 60.8062C195.809 61.4367 196.117 61.8939 196.603 61.9621C197.23 62.0502 198.025 61.5307 198.71 60.3389C198.851 60.0935 199.165 60.0088 199.41 60.1499C199.656 60.291 199.74 60.6043 199.599 60.8498C198.725 62.3709 197.559 63.1318 196.46 62.9775C195.387 62.8267 194.714 61.8284 194.888 60.6559C195.007 59.8554 195.797 58.4127 197.115 56.4101C197.28 56.1591 197.453 55.9016 197.631 55.6386C198.145 54.8798 198.691 54.1033 199.241 53.3416L199.477 53.0162C199.6 52.848 199.717 52.6875 199.829 52.5357L200.159 52.0894L200.318 51.8781C200.488 51.6521 200.81 51.6073 201.036 51.7779Z" fill="#000091"/>
<path fill-rule="evenodd" clip-rule="evenodd" d="M202.999 53.7593C202.999 53.7593 198.214 60.2015 198.949 62.235C199.787 64.5077 202.777 59.6205 203.871 58.1851" fill="white"/>
<path fill-rule="evenodd" clip-rule="evenodd" d="M203.305 53.3477C203.523 53.51 203.576 53.8132 203.429 54.0383L203.398 54.0817L203.238 54.3024L203.075 54.5307C202.98 54.6635 202.88 54.806 202.776 54.9571C202.297 55.6479 201.819 56.376 201.373 57.1069C201.071 57.6033 200.794 58.084 200.548 58.5429L200.461 58.7073C199.619 60.3114 199.24 61.5303 199.43 62.0578L199.452 62.1157C199.543 62.3488 199.586 62.3544 199.782 62.2636C200.111 62.1117 200.568 61.6932 201.111 61.052C201.342 60.7783 201.586 60.4689 201.849 60.1174L201.972 59.9531C202.337 59.4549 203.3 58.0875 203.463 57.8744C203.634 57.6492 203.956 57.6057 204.181 57.7773C204.406 57.9489 204.45 58.2706 204.278 58.4958L204.172 58.6409C203.865 59.0658 203.081 60.1766 202.773 60.5945L202.752 60.6219C202.446 61.0341 202.164 61.3949 201.893 61.7145L201.768 61.8608C201.187 62.5278 200.68 62.9779 200.212 63.1943C199.457 63.5437 198.781 63.2627 198.467 62.4092C198.129 61.4731 198.597 60.0133 199.644 58.0587C199.899 57.5819 200.186 57.0849 200.498 56.5731C200.904 55.907 201.336 55.2449 201.77 54.6101L201.933 54.3734C202.061 54.1881 202.183 54.0152 202.296 53.8568L202.515 53.5521L202.588 53.4536C202.756 53.2263 203.077 53.1789 203.305 53.3477Z" fill="#000091"/>
<path fill-rule="evenodd" clip-rule="evenodd" d="M198.249 49.1625L195.549 50.6834C195.481 50.7175 195.395 50.7688 195.327 50.803C193.635 51.4865 192.935 50.9397 192.661 50.2562C192.371 49.5555 192.576 48.7524 193.088 48.2056C196.181 44.9588 204.401 43.5576 204.401 43.5576C206.4 43.1987 211.834 45.0784 211.151 49.5897C210.467 54.101 207.699 59.9622 204.845 61.7907C202.008 63.602 201.171 61.7223 203.888 58.1851C203.922 58.1338 205.887 55.3313 205.887 55.3313" fill="white"/>
<path fill-rule="evenodd" clip-rule="evenodd" d="M209.061 44.3175C210.979 45.5629 211.999 47.4106 211.657 49.6666C210.916 54.561 207.99 60.3842 205.121 62.2228C204.365 62.7053 203.697 62.9713 203.144 63.0008C202.492 63.0357 201.986 62.7319 201.797 62.153C201.496 61.2332 202.069 59.7557 203.36 58.0326L203.473 57.8832L205.468 55.0371C205.63 54.8053 205.95 54.7491 206.182 54.9117C206.404 55.068 206.465 55.3695 206.325 55.5986L205.995 56.0713L204.314 58.4695L204.294 58.4974C203.109 60.0409 202.599 61.3093 202.771 61.8343C202.86 62.1058 203.448 62.0744 204.568 61.3591C207.147 59.7068 209.942 54.1432 210.644 49.513C210.92 47.6914 210.106 46.2189 208.502 45.1774C207.216 44.3424 205.519 43.9057 204.541 44.054L204.353 44.0869L204.172 44.121C204.108 44.1335 204.038 44.147 203.965 44.1616L203.707 44.2141C203.356 44.287 202.975 44.3716 202.571 44.4679C201.129 44.8117 199.687 45.2338 198.345 45.736C196.163 46.5524 194.469 47.4997 193.462 48.5562C193.065 48.9803 192.933 49.574 193.137 50.0658C193.366 50.6386 193.89 50.8173 195.073 50.3523L195.114 50.3358L195.273 50.2491L195.308 50.2306L197.997 48.7159C198.235 48.5821 198.533 48.6581 198.679 48.8842L198.695 48.911C198.829 49.1485 198.753 49.4472 198.527 49.5931L198.5 49.6092L195.8 51.1301L195.724 51.1709L195.603 51.2373C195.587 51.246 195.572 51.2535 195.556 51.2615C195.544 51.2676 195.531 51.2732 195.519 51.2783C193.8 51.9729 192.646 51.5979 192.187 50.4526C191.826 49.5798 192.051 48.5625 192.717 47.852C193.856 46.6568 195.672 45.6417 197.986 44.7758C199.371 44.2571 200.853 43.8235 202.333 43.4706C202.851 43.3471 203.332 43.2425 203.764 43.1562L204.045 43.1015L204.31 43.0531C205.549 42.8307 207.545 43.3329 209.061 44.3175Z" fill="#000091"/>
<path fill-rule="evenodd" clip-rule="evenodd" d="M239.448 113.5C239.731 113.5 239.961 113.729 239.961 114.012C239.961 114.285 239.748 114.508 239.478 114.524L239.448 114.525H1.0854C0.802273 114.525 0.572754 114.295 0.572754 114.012C0.572754 113.739 0.786172 113.516 1.05528 113.5L1.0854 113.5H239.448Z" fill="#000091"/>
</svg>
