
<svg width="299" height="199" viewBox="0 0 299 199" fill="none" xmlns="http://www.w3.org/2000/svg">
<path d="M154 31.2065L157.26 28.2566C158.464 29.7704 159.9 30.8572 161.763 30.8572C163.354 30.8572 164.17 29.9256 164.17 28.7612C164.17 25.3454 154.815 26.6263 154.815 19.7561C154.815 16.3015 157.726 13.7009 161.802 13.7009C164.791 13.7009 167.508 15.1371 168.905 17.039L165.645 19.9113C164.635 18.6693 163.354 17.6601 161.841 17.6601C160.288 17.6601 159.551 18.514 159.551 19.5232C159.551 22.8613 168.905 21.6968 168.905 28.4507C168.827 32.565 165.528 34.8163 161.841 34.8163C158.347 34.8163 155.863 33.419 154 31.2065Z" fill="#000091"/>
<path d="M227.301 31.2066L230.561 28.2567C231.765 29.7705 233.201 30.8573 235.064 30.8573C236.655 30.8573 237.47 29.9257 237.47 28.7613C237.47 25.3456 228.116 26.6265 228.116 19.7562C228.116 16.3017 231.027 13.701 235.103 13.701C238.091 13.701 240.808 15.1372 242.206 17.0391L238.945 19.9115C237.936 18.6694 236.655 17.6602 235.141 17.6602C233.589 17.6602 232.851 18.5141 232.851 19.5233C232.851 22.8614 242.206 21.697 242.206 28.4508C242.128 32.5652 238.829 34.8164 235.141 34.8164C231.648 34.8164 229.164 33.4191 227.301 31.2066Z" fill="#000091"/>
<path d="M219.253 25.5782V14.4771H224.221V25.3453C224.221 31.2063 220.806 34.8161 215.061 34.8161C209.316 34.8161 205.939 31.2063 205.939 25.3453V14.4771H210.908V25.5782C210.908 28.4117 212.383 30.1583 215.1 30.1583C217.778 30.1583 219.253 28.4117 219.253 25.5782Z" fill="#000091"/>
<path d="M197.082 34.0401V14.4773H202.012V34.0401H197.082Z" fill="#000091"/>
<path d="M196.344 7.83859C196.344 9.58527 197.819 11.0602 199.565 11.0602C201.312 11.0602 202.748 9.58527 202.748 7.83859C202.748 6.09192 201.312 4.61694 199.565 4.61694C197.819 4.61694 196.344 6.09192 196.344 7.83859Z" fill="#F95C5E"/>
<path d="M181.314 34.0396V14.4768H186.244V16.4175C187.525 15.0978 189.194 14.0886 191.406 14.0886C192.066 14.0886 192.648 14.2051 193.114 14.3603V19.2122C192.493 19.0569 191.833 18.9405 190.941 18.9405C188.534 18.9405 186.981 20.2602 186.244 21.5023V34.0396H181.314Z" fill="#000091"/>
<path d="M172.547 34.0402V14.4774H177.476V34.0402H172.547Z" fill="#000091"/>
<path d="M171.795 7.83859C171.795 9.58527 173.27 11.0602 175.017 11.0602C176.763 11.0602 178.199 9.58527 178.199 7.83859C178.199 6.09192 176.763 4.61694 175.017 4.61694C173.27 4.61694 171.795 6.09192 171.795 7.83859Z" fill="#F95C5E"/>
<path d="M193.816 6.97047C194.1 5.12901 195.269 3.55481 196.865 2.7049C190.924 -0.411509 183.765 -0.386295 177.844 2.78055C179.406 3.67386 180.509 5.27744 180.743 7.11036C184.849 5.09321 189.677 5.04658 193.816 6.97047Z" fill="#000091"/>
<path fill-rule="evenodd" clip-rule="evenodd" d="M4.87968 66.3611C8.39953 64.0574 13.416 62.6588 20.4557 63.5638C20.4557 63.5638 27.4123 41.24 48.864 49.7691C48.864 49.7691 57.7606 26.6226 81.4295 36.8247L83.1201 37.6748C89.9936 42.2548 92.9037 49.7691 92.9037 49.7691C114.328 41.2126 121.312 63.5638 121.312 63.5638C143.041 60.8213 145.258 79.8267 145.258 79.8267H8.98156C1.63699 79.8267 -1.27313 70.3651 4.87968 66.3611Z" fill="white"/>
<path fill-rule="evenodd" clip-rule="evenodd" d="M63.9447 34.2656C59.6936 35.52 56.0993 38.0465 53.1197 41.4606C51.5942 43.2086 50.3276 45.0785 49.3041 46.9491L49.1981 47.1444C48.9199 47.6617 48.6772 48.1486 48.469 48.5976L48.4154 48.7141L48.3482 48.6893C42.7314 46.6223 37.7471 46.5032 33.3881 48.0639C29.6603 49.3986 26.5586 51.8924 24.0292 55.1988C22.6731 56.9715 21.5669 58.8668 20.6897 60.7624L20.599 60.9603C20.3611 61.4841 20.1552 61.9772 19.9801 62.4318L19.8905 62.6676L19.8865 62.6671C13.5343 61.9675 8.39223 63.0763 4.42173 65.6749C-2.41347 70.123 0.805917 80.6494 8.98229 80.6494H145.259C145.756 80.6494 146.142 80.2209 146.085 79.7323L146.069 79.6113C146.047 79.4571 146.011 79.238 145.957 78.9612C145.843 78.371 145.685 77.7157 145.475 77.0114C144.879 75.0015 143.992 72.9917 142.755 71.1112C140.898 68.2873 138.415 66.0125 135.227 64.4977L135.054 64.4164C131.457 62.7521 127.11 62.1152 121.961 62.6603L121.878 62.6692L121.852 62.5996C121.643 62.0432 121.385 61.4252 121.077 60.7606C120.198 58.8641 119.091 56.9678 117.734 55.1942C115.202 51.8839 112.099 49.3877 108.372 48.0529L108.212 47.9965C103.946 46.5143 99.0882 46.636 93.6318 48.6108L93.3512 48.7139L93.3737 48.7622C93.1227 48.213 92.8176 47.6028 92.4569 46.9469C91.428 45.0761 90.1561 43.2059 88.6259 41.4578C87.1218 39.7394 85.4442 38.231 83.5853 36.9924C83.5571 36.9737 83.5278 36.9566 83.4976 36.9414L81.8069 36.0912L81.7623 36.0704C75.1176 33.2064 69.1802 32.7208 63.9447 34.2656ZM81.0769 37.5698L82.6965 38.3843L82.6565 38.3573C84.3872 39.5105 85.9567 40.9217 87.3689 42.5351C88.8153 44.1875 90.0214 45.9608 90.9963 47.7335C91.3369 48.3528 91.6238 48.9268 91.8585 49.4402L91.9712 49.6915C92.0056 49.7699 92.037 49.8429 92.0652 49.9102L92.128 50.0636C92.2944 50.4932 92.7844 50.7043 93.2156 50.5321C98.7971 48.3029 103.633 48.1057 107.806 49.6001C111.202 50.8162 114.057 53.113 116.408 56.1872C117.686 57.8581 118.734 59.6523 119.565 61.4463C119.856 62.0735 120.098 62.6548 120.294 63.1749L120.388 63.4295C120.408 63.4825 120.425 63.533 120.442 63.5811L120.518 63.8069C120.638 64.1888 121.017 64.4305 121.418 64.38C126.675 63.7164 131.005 64.317 134.507 65.9811C137.406 67.3583 139.663 69.4263 141.361 72.0087C142.503 73.7449 143.326 75.6101 143.88 77.4753L143.937 77.6694C144.047 78.0548 144.141 78.4223 144.219 78.7685L144.27 79.004H8.98229C2.45311 79.004 -0.117626 70.5984 5.33729 67.0486C9.10348 64.5836 14.0676 63.5721 20.3493 64.3797C20.7342 64.4292 21.0999 64.2088 21.2347 63.8534L21.3026 63.6507L21.3527 63.5068C21.3796 63.4311 21.409 63.3498 21.4412 63.2632L21.4742 63.1748C21.6698 62.6551 21.9116 62.0741 22.2016 61.4475C23.0312 59.6547 24.0778 57.8616 25.3551 56.1919C27.7039 53.1216 30.5575 50.8272 33.9539 49.6112C38.1276 48.1169 42.9666 48.3108 48.5547 50.5326C48.9864 50.7042 49.4764 50.492 49.6418 50.0616L49.7041 49.9084L49.7643 49.7664C49.8072 49.6667 49.8555 49.5573 49.9094 49.4386C50.1425 48.9254 50.4277 48.3516 50.7664 47.7325C51.736 45.9605 52.9367 44.1879 54.3783 42.5361C57.164 39.3442 60.5001 36.9991 64.4199 35.8424C69.2112 34.4287 74.6765 34.8552 80.8839 37.4873L81.0769 37.5698Z" fill="#6A6AF4"/>
<path fill-rule="evenodd" clip-rule="evenodd" d="M95.1219 184.288C98.6417 181.984 103.658 180.585 110.698 181.49C110.698 181.49 117.654 159.167 139.106 167.696C139.106 167.696 148.003 144.549 171.672 154.751L173.362 155.601C180.236 160.181 183.146 167.696 183.146 167.696C204.57 159.139 211.554 181.49 211.554 181.49C233.283 178.748 235.5 197.753 235.5 197.753H99.2237C91.8792 197.726 88.9691 188.264 95.1219 184.288Z" fill="white"/>
<path fill-rule="evenodd" clip-rule="evenodd" d="M154.186 152.192C149.934 153.446 146.34 155.973 143.361 159.387C141.835 161.135 140.569 163.005 139.545 164.875L139.439 165.071C139.161 165.588 138.918 166.075 138.71 166.524L138.656 166.641L138.589 166.616C132.972 164.549 127.988 164.43 123.629 165.99C119.901 167.325 116.8 169.819 114.27 173.125C112.914 174.898 111.808 176.793 110.931 178.689L110.84 178.887C110.602 179.41 110.396 179.904 110.221 180.358L110.131 180.594L110.127 180.593C103.775 179.894 98.6332 181.003 94.6627 183.601C87.8268 188.019 91.046 198.545 99.2201 198.576L235.5 198.576C235.997 198.576 236.383 198.147 236.326 197.659L236.31 197.538C236.288 197.384 236.252 197.164 236.198 196.888C236.084 196.297 235.926 195.642 235.716 194.938C235.119 192.928 234.233 190.918 232.996 189.038C231.139 186.214 228.656 183.939 225.468 182.424L225.294 182.343C221.698 180.678 217.351 180.042 212.202 180.587L212.119 180.596L212.093 180.526C211.883 179.97 211.626 179.352 211.318 178.687C210.439 176.79 209.332 174.894 207.975 173.121C205.443 169.81 202.34 167.314 198.613 165.979L198.453 165.923C194.187 164.441 189.329 164.562 183.873 166.537L183.592 166.64L183.615 166.689C183.364 166.139 183.059 165.529 182.698 164.873C181.669 163.002 180.397 161.132 178.867 159.384C177.363 157.666 175.685 156.157 173.826 154.919C173.798 154.9 173.769 154.883 173.739 154.868L172.048 154.018L172.003 153.997C165.359 151.133 159.421 150.647 154.186 152.192ZM171.318 155.496L172.937 156.311L172.897 156.284C174.628 157.437 176.198 158.848 177.61 160.461C179.056 162.114 180.262 163.887 181.237 165.66C181.578 166.279 181.865 166.853 182.099 167.367L182.212 167.618C182.247 167.696 182.278 167.769 182.306 167.837L182.369 167.99C182.535 168.42 183.025 168.631 183.457 168.459C189.038 166.229 193.874 166.032 198.047 167.527C201.443 168.743 204.298 171.039 206.649 174.114C207.927 175.784 208.975 177.579 209.806 179.373C210.097 180 210.339 180.581 210.535 181.101L210.629 181.356C210.648 181.409 210.666 181.459 210.683 181.507L210.759 181.733C210.879 182.115 211.258 182.357 211.659 182.306C216.916 181.643 221.246 182.243 224.748 183.907C227.647 185.285 229.904 187.353 231.602 189.935C232.744 191.671 233.567 193.537 234.121 195.402L234.178 195.596C234.307 196.045 234.412 196.471 234.497 196.866L234.51 196.93L99.2232 196.93C92.6949 196.906 90.124 188.5 95.576 184.976C99.3444 182.51 104.309 181.499 110.59 182.306C110.975 182.356 111.341 182.135 111.476 181.78L111.544 181.577L111.594 181.433C111.62 181.358 111.65 181.276 111.682 181.19L111.715 181.101C111.911 180.581 112.153 180.001 112.443 179.374C113.272 177.581 114.319 175.788 115.596 174.118C117.945 171.048 120.798 168.754 124.195 167.538C128.369 166.043 133.208 166.237 138.796 168.459C139.227 168.631 139.717 168.418 139.883 167.988L139.945 167.835L140.005 167.693C140.048 167.593 140.096 167.484 140.15 167.365C140.383 166.852 140.669 166.278 141.007 165.659C141.977 163.887 143.178 162.114 144.619 160.463C147.405 157.271 150.741 154.925 154.661 153.769C159.452 152.355 164.917 152.782 171.125 155.414L171.318 155.496Z" fill="#6A6AF4"/>
<path fill-rule="evenodd" clip-rule="evenodd" d="M156.982 114.245C160.502 111.941 165.518 110.542 172.558 111.447C172.558 111.447 179.514 89.1237 200.966 97.6528C200.966 97.6528 209.863 74.5063 233.532 84.7083L235.222 85.5585C242.096 90.1384 245.006 97.6528 245.006 97.6528C266.43 89.0963 273.414 111.447 273.414 111.447C295.143 108.705 297.36 127.71 297.36 127.71H161.111C153.739 127.71 150.829 118.249 156.982 114.245Z" fill="white"/>
<path fill-rule="evenodd" clip-rule="evenodd" d="M216.047 82.1492C211.796 83.4036 208.202 85.9302 205.222 89.3443C203.697 91.0923 202.43 92.9622 201.407 94.8328L201.301 95.0281C201.023 95.5453 200.78 96.0323 200.572 96.4812L200.518 96.5978L200.451 96.573C194.834 94.5059 189.85 94.3869 185.491 95.9476C181.763 97.2822 178.661 99.7761 176.132 103.082C174.776 104.855 173.67 106.75 172.792 108.646L172.702 108.844C172.464 109.368 172.258 109.861 172.083 110.315L171.993 110.551L171.989 110.551C165.637 109.851 160.495 110.96 156.524 113.559C149.684 118.01 152.915 128.533 161.113 128.533H297.361C297.858 128.533 298.244 128.105 298.187 127.616L298.172 127.495C298.15 127.341 298.114 127.122 298.06 126.845C297.946 126.255 297.787 125.599 297.578 124.895C296.981 122.885 296.094 120.875 294.858 118.995C293 116.171 290.518 113.896 287.33 112.381L287.156 112.3C283.56 110.636 279.213 109.999 274.063 110.544L273.981 110.553L273.955 110.483C273.745 109.927 273.488 109.309 273.18 108.644C272.301 106.748 271.194 104.851 269.837 103.078C267.305 99.7676 264.202 97.2713 260.474 95.9365L260.315 95.8802C256.049 94.398 251.191 94.5196 245.734 96.4945L245.454 96.5975L245.476 96.6459C245.225 96.0966 244.92 95.4865 244.56 94.8306C243.531 92.9598 242.259 91.0896 240.729 89.3414C239.224 87.6231 237.547 86.1147 235.688 84.8761C235.66 84.8573 235.631 84.8403 235.6 84.8251L233.91 83.9749L233.865 83.9541C227.22 81.09 221.283 80.6044 216.047 82.1492ZM233.18 85.4535L234.799 86.268L234.759 86.241C236.49 87.3942 238.059 88.8054 239.472 90.4188C240.918 92.0712 242.124 93.8445 243.099 95.6171C243.44 96.2364 243.727 96.8104 243.961 97.3239L244.074 97.5752C244.108 97.6536 244.14 97.7266 244.168 97.7939L244.231 97.9472C244.397 98.3769 244.887 98.588 245.318 98.4158C250.9 96.1866 255.735 95.9894 259.908 97.4838C263.304 98.6999 266.159 100.997 268.511 104.071C269.789 105.742 270.837 107.536 271.668 109.33C271.959 109.957 272.201 110.538 272.397 111.059L272.491 111.313C272.51 111.366 272.528 111.417 272.545 111.465L272.621 111.691C272.74 112.072 273.12 112.314 273.521 112.264C278.778 111.6 283.108 112.201 286.61 113.865C289.509 115.242 291.765 117.31 293.464 119.892C294.606 121.629 295.429 123.494 295.983 125.359L296.039 125.553C296.168 126.003 296.274 126.428 296.359 126.823L296.372 126.887L161.113 126.888C154.561 126.888 151.981 118.485 157.44 114.932C161.206 112.467 166.17 111.456 172.452 112.263C172.837 112.313 173.203 112.093 173.337 111.737L173.405 111.534L173.455 111.39C173.482 111.315 173.512 111.233 173.544 111.147L173.577 111.058C173.773 110.539 174.014 109.958 174.304 109.331C175.134 107.538 176.18 105.745 177.458 104.076C179.807 101.005 182.66 98.7109 186.057 97.4949C190.23 96.0005 195.069 96.1945 200.657 98.4163C201.089 98.5879 201.579 98.3756 201.745 97.9453L201.807 97.7921L201.867 97.65C201.91 97.5504 201.958 97.441 202.012 97.3223C202.245 96.809 202.53 96.2353 202.869 95.6162C203.839 93.8442 205.039 92.0715 206.481 90.4198C209.267 87.2278 212.603 84.8827 216.523 83.7261C221.314 82.3124 226.779 82.7388 232.987 85.371L233.18 85.4535Z" fill="#6A6AF4"/>
<path fill-rule="evenodd" clip-rule="evenodd" d="M186.167 147.84H56.8747C54.1586 147.84 51.9414 145.646 51.9414 142.958V66.8822C51.9414 64.1946 54.1586 62.0006 56.8747 62.0006H186.167C188.883 62.0006 191.1 64.1946 191.1 66.8822V142.958C191.1 145.646 188.883 147.84 186.167 147.84Z" fill="#6A6AF4"/>
<path fill-rule="evenodd" clip-rule="evenodd" d="M187.072 63.846C187.435 63.5676 187.957 63.6331 188.238 63.9922C188.509 64.3375 188.458 64.8286 188.131 65.1133L188.09 65.1465L124.597 113.851C122.801 115.24 120.377 115.262 118.563 113.919L118.476 113.853L54.9803 65.1465C54.6174 64.8681 54.5512 64.3513 54.8326 63.9922C55.1031 63.6469 55.5964 63.5731 55.9566 63.8154L55.9991 63.846L119.498 112.554C120.697 113.482 122.285 113.501 123.502 112.608L123.576 112.552L187.072 63.846Z" fill="white"/>
<path fill-rule="evenodd" clip-rule="evenodd" d="M92.7417 92.9218C93.0709 92.6051 93.5973 92.6124 93.9174 92.9382C94.2247 93.251 94.2302 93.7435 93.9388 94.0627L93.9009 94.1016L54.0185 132.469C53.6892 132.786 53.1628 132.778 52.8427 132.452C52.5354 132.14 52.53 131.647 52.8213 131.328L52.8593 131.289L92.7417 92.9218Z" fill="white"/>
<path fill-rule="evenodd" clip-rule="evenodd" d="M149.485 92.9382C149.793 92.6254 150.29 92.6062 150.621 92.8853L150.661 92.9218L190.543 131.289C190.873 131.606 190.88 132.127 190.56 132.452C190.253 132.765 189.755 132.784 189.425 132.505L189.384 132.469L149.502 94.1016C149.173 93.7849 149.165 93.264 149.485 92.9382Z" fill="white"/>
<path fill-rule="evenodd" clip-rule="evenodd" d="M186.665 192.241C208.11 192.241 225.494 175.039 225.494 153.819C225.494 132.599 208.11 115.397 186.665 115.397C165.22 115.397 147.836 132.599 147.836 153.819C147.836 175.039 165.22 192.241 186.665 192.241Z" fill="#F95C5E"/>
<path fill-rule="evenodd" clip-rule="evenodd" d="M217.236 117.179C215.628 116.192 213.494 116.686 212.496 118.276L204.015 131.769C198.971 127.738 192.569 125.324 185.612 125.324C169.427 125.324 156.262 138.351 156.262 154.367C156.262 170.383 169.427 183.41 185.612 183.41C201.798 183.41 214.963 170.383 214.963 154.367C214.963 147.758 212.718 141.669 208.949 136.76L218.316 121.841C219.342 120.251 218.843 118.166 217.236 117.179ZM212.801 154.367C212.801 169.204 200.606 181.271 185.612 181.271C170.618 181.271 158.424 169.204 158.424 154.367C158.424 139.53 170.618 127.463 185.612 127.463C192.153 127.463 198.167 129.767 202.851 133.579L187.497 158.015L178.6 146.304C177.464 144.796 175.302 144.494 173.778 145.619C172.253 146.743 171.949 148.882 173.085 150.391L185.003 166.077C185.668 166.928 186.665 167.449 187.746 167.449C187.802 167.449 187.857 167.449 187.885 167.449C189.021 167.394 190.047 166.791 190.656 165.858L207.701 138.762C210.916 143.15 212.801 148.553 212.801 154.367Z" fill="white"/>
</svg>
