<svg width="299" height="199" viewBox="0 0 299 199" fill="none" xmlns="http://www.w3.org/2000/svg">
<path fill-rule="evenodd" clip-rule="evenodd" d="M4.88164 66.1677C8.40149 63.8641 13.418 62.4654 20.4577 63.3704C20.4577 63.3704 27.4142 41.0467 48.8659 49.5758C48.8659 49.5758 57.7625 26.4293 81.4315 36.6313L83.1221 37.4815C89.9955 42.0614 92.9056 49.5758 92.9056 49.5758C114.33 41.0193 121.314 63.3704 121.314 63.3704C143.043 60.6279 145.26 79.6333 145.26 79.6333H8.98351C1.63894 79.6333 -1.27117 70.1718 4.88164 66.1677Z" fill="white"/>
<path fill-rule="evenodd" clip-rule="evenodd" d="M63.9457 34.0722C59.6945 35.3266 56.1003 37.8532 53.1207 41.2673C51.5952 43.0152 50.3285 44.8851 49.305 46.7557L49.1991 46.9511C48.9209 47.4683 48.6782 47.9553 48.47 48.4042L48.4164 48.5208L48.3492 48.496C42.7324 46.4289 37.7481 46.3099 33.389 47.8705C29.6612 49.2052 26.5596 51.699 24.0302 55.0054C22.674 56.7782 21.5678 58.6735 20.6907 60.569L20.6 60.7669C20.3621 61.2907 20.1562 61.7838 19.9811 62.2385L19.8915 62.4742L19.8874 62.4737C13.5353 61.7742 8.3932 62.8829 4.42271 65.4816C-2.41249 69.9297 0.806893 80.4561 8.98327 80.4561H145.26C145.757 80.4561 146.143 80.0275 146.086 79.539L146.07 79.418C146.048 79.2638 146.012 79.0446 145.958 78.7678C145.844 78.1776 145.686 77.5223 145.476 76.818C144.88 74.8082 143.993 72.7983 142.756 70.9178C140.899 68.0939 138.416 65.8191 135.228 64.3044L135.055 64.223C131.458 62.5587 127.111 61.9219 121.962 62.4669L121.879 62.4759L121.853 62.4062C121.644 61.8499 121.386 61.2318 121.078 60.5672C120.199 58.6707 119.092 56.7744 117.735 55.0008C115.203 51.6906 112.1 49.1943 108.373 47.8595L108.213 47.8031C103.947 46.321 99.0891 46.4426 93.6327 48.4174L93.3521 48.5205L93.3746 48.5688C93.1236 48.0196 92.8186 47.4095 92.4579 46.7536C91.429 44.8827 90.1571 43.0126 88.6269 41.2644C87.1227 39.5461 85.4451 38.0377 83.5863 36.7991C83.5581 36.7803 83.5288 36.7633 83.4985 36.748L81.8079 35.8979L81.7633 35.877C75.1186 33.013 69.1811 32.5274 63.9457 34.0722ZM81.0778 37.3765L82.6975 38.191L82.6574 38.1639C84.3882 39.3172 85.9577 40.7284 87.3699 42.3417C88.8163 43.9941 90.0224 45.7675 90.9973 47.5401C91.3379 48.1594 91.6248 48.7334 91.8595 49.2468L91.9722 49.4982C92.0066 49.5766 92.038 49.6496 92.0662 49.7169L92.129 49.8702C92.2953 50.2998 92.7854 50.511 93.2166 50.3388C98.7981 48.1096 103.634 47.9124 107.807 49.4068C111.203 50.6229 114.058 52.9196 116.409 55.9939C117.687 57.6647 118.735 59.459 119.566 61.253C119.857 61.8801 120.099 62.4614 120.295 62.9815L120.389 63.2362C120.409 63.2892 120.426 63.3397 120.443 63.3877L120.519 63.6135C120.639 63.9954 121.018 64.2372 121.419 64.1866C126.676 63.523 131.006 64.1237 134.508 65.7877C137.407 67.165 139.664 69.2329 141.362 71.8154C142.504 73.5516 143.327 75.4167 143.881 77.282L143.938 77.4761C144.048 77.8614 144.142 78.2289 144.22 78.5751L144.271 78.8106H8.98327C2.45409 78.8106 -0.116649 70.405 5.33826 66.8552C9.10446 64.3903 14.0686 63.3788 20.3503 64.1863C20.7351 64.2358 21.1009 64.0155 21.2357 63.66L21.3036 63.4574L21.3537 63.3135C21.3805 63.2378 21.41 63.1565 21.4421 63.0698L21.4752 62.9814C21.6708 62.4617 21.9126 61.8808 22.2026 61.2541C23.0322 59.4613 24.0787 57.6683 25.3561 55.9986C27.7049 52.9282 30.5585 50.6338 33.9548 49.4178C38.1286 47.9235 42.9676 48.1175 48.5557 50.3392C48.9874 50.5109 49.4774 50.2986 49.6428 49.8683L49.7051 49.715L49.7653 49.573C49.8081 49.4734 49.8565 49.3639 49.9104 49.2452C50.1435 48.732 50.4287 48.1582 50.7674 47.5392C51.7369 45.7672 52.9377 43.9945 54.3792 42.3428C57.165 39.1508 60.5011 36.8057 64.4209 35.6491C69.2121 34.2353 74.6774 34.6618 80.8848 37.294L81.0778 37.3765Z" fill="#6A6AF4"/>
<path fill-rule="evenodd" clip-rule="evenodd" d="M95.1224 184.094C98.6422 181.791 103.659 180.392 110.698 181.297C110.698 181.297 117.655 158.973 139.107 167.502C139.107 167.502 148.003 144.356 171.672 154.558L173.363 155.408C180.236 159.988 183.146 167.502 183.146 167.502C204.57 158.946 211.555 181.297 211.555 181.297C233.283 178.554 235.501 197.56 235.501 197.56H99.2242C91.8797 197.532 88.9695 188.071 95.1224 184.094Z" fill="white"/>
<path fill-rule="evenodd" clip-rule="evenodd" d="M154.187 151.999C149.936 153.253 146.342 155.78 143.362 159.194C141.837 160.942 140.57 162.812 139.546 164.682L139.44 164.878C139.162 165.395 138.92 165.882 138.711 166.331L138.658 166.447L138.591 166.422C132.974 164.355 127.99 164.236 123.63 165.797C119.903 167.132 116.801 169.626 114.272 172.932C112.915 174.705 111.809 176.6 110.932 178.496L110.841 178.693C110.603 179.217 110.398 179.71 110.222 180.165L110.133 180.401L110.129 180.4C103.777 179.701 98.6346 180.809 94.6641 183.408C87.8282 187.826 91.0475 198.352 99.2216 198.383L235.501 198.383C235.998 198.383 236.384 197.954 236.327 197.465L236.311 197.344C236.29 197.19 236.254 196.971 236.2 196.694C236.085 196.104 235.927 195.449 235.718 194.745C235.121 192.735 234.234 190.725 232.997 188.844C231.14 186.02 228.658 183.746 225.469 182.231L225.296 182.15C221.699 180.485 217.352 179.848 212.203 180.393L212.121 180.402L212.095 180.333C211.885 179.776 211.627 179.158 211.319 178.494C210.441 176.597 209.333 174.701 207.977 172.927C205.445 169.617 202.342 167.121 198.614 165.786L198.454 165.73C194.189 164.247 189.331 164.369 183.874 166.344L183.594 166.447L183.616 166.495C183.365 165.946 183.06 165.336 182.699 164.68C181.67 162.809 180.399 160.939 178.868 159.191C177.364 157.473 175.687 155.964 173.828 154.726C173.8 154.707 173.77 154.69 173.74 154.675L172.049 153.824L172.005 153.804C165.36 150.94 159.423 150.454 154.187 151.999ZM171.319 155.303L172.939 156.117L172.899 156.09C174.63 157.244 176.199 158.655 177.611 160.268C179.058 161.921 180.264 163.694 181.239 165.467C181.579 166.086 181.866 166.66 182.101 167.173L182.214 167.425C182.248 167.503 182.279 167.576 182.308 167.643L182.37 167.797C182.537 168.226 183.027 168.437 183.458 168.265C189.039 166.036 193.875 165.839 198.048 167.333C201.444 168.549 204.299 170.846 206.651 173.92C207.929 175.591 208.977 177.385 209.808 179.179C210.098 179.807 210.341 180.388 210.537 180.908L210.631 181.163C210.65 181.216 210.668 181.266 210.685 181.314L210.761 181.54C210.88 181.922 211.26 182.164 211.66 182.113C216.918 181.45 221.247 182.05 224.75 183.714C227.648 185.091 229.905 187.159 231.604 189.742C232.745 191.478 233.568 193.343 234.122 195.208L234.179 195.403C234.308 195.852 234.414 196.277 234.499 196.673L234.512 196.737L99.2247 196.737C92.6964 196.713 90.1255 188.307 95.5775 184.783C99.3459 182.317 104.31 181.305 110.592 182.113C110.977 182.162 111.342 181.942 111.477 181.587L111.545 181.384L111.595 181.24C111.622 181.164 111.651 181.083 111.684 180.996L111.717 180.908C111.912 180.388 112.154 179.807 112.444 179.181C113.274 177.388 114.32 175.595 115.598 173.925C117.946 170.855 120.8 168.56 124.196 167.344C128.37 165.85 133.209 166.044 138.797 168.266C139.229 168.437 139.719 168.225 139.884 167.795L139.947 167.642L140.007 167.5C140.05 167.4 140.098 167.29 140.152 167.172C140.385 166.659 140.67 166.085 141.009 165.466C141.978 163.694 143.179 161.921 144.621 160.269C147.406 157.077 150.742 154.732 154.662 153.576C159.454 152.162 164.919 152.588 171.126 155.22L171.319 155.303Z" fill="#6A6AF4"/>
<path fill-rule="evenodd" clip-rule="evenodd" d="M156.983 114.051C160.503 111.748 165.52 110.349 172.559 111.254C172.559 111.254 179.516 88.9302 200.967 97.4593C200.967 97.4593 209.864 74.3128 233.533 84.5148L235.224 85.365C242.097 89.9449 245.007 97.4593 245.007 97.4593C266.431 88.9028 273.415 111.254 273.415 111.254C295.144 108.511 297.361 127.517 297.361 127.517H161.113C153.741 127.517 150.83 118.055 156.983 114.051Z" fill="white"/>
<path fill-rule="evenodd" clip-rule="evenodd" d="M216.047 81.9558C211.796 83.2101 208.202 85.7367 205.222 89.1508C203.697 90.8988 202.43 92.7687 201.407 94.6393L201.301 94.8346C201.023 95.3518 200.78 95.8388 200.572 96.2878L200.518 96.4043L200.451 96.3795C194.834 94.3125 189.85 94.1934 185.491 95.7541C181.763 97.0887 178.661 99.5826 176.132 102.889C174.776 104.662 173.67 106.557 172.792 108.453L172.702 108.65C172.464 109.174 172.258 109.667 172.083 110.122L171.993 110.358L171.989 110.357C165.637 109.658 160.495 110.766 156.524 113.365C149.684 117.817 152.915 128.34 161.113 128.34H297.361C297.858 128.34 298.244 127.911 298.187 127.423L298.172 127.301C298.15 127.147 298.114 126.928 298.06 126.651C297.946 126.061 297.787 125.406 297.578 124.702C296.981 122.692 296.094 120.682 294.858 118.801C293 115.977 290.518 113.703 287.33 112.188L287.156 112.107C283.56 110.442 279.213 109.805 274.063 110.35L273.981 110.359L273.955 110.29C273.745 109.733 273.488 109.115 273.18 108.451C272.301 106.554 271.194 104.658 269.837 102.884C267.305 99.5741 264.202 97.0779 260.474 95.743L260.315 95.6867C256.049 94.2045 251.191 94.3261 245.734 96.301L245.454 96.4041L245.476 96.4524C245.225 95.9031 244.92 95.293 244.56 94.6371C243.531 92.7663 242.259 90.8961 240.729 89.148C239.224 87.4296 237.547 85.9212 235.688 84.6826C235.66 84.6638 235.631 84.6468 235.6 84.6316L233.91 83.7814L233.865 83.7606C227.22 80.8966 221.283 80.4109 216.047 81.9558ZM233.18 85.26L234.799 86.0745L234.759 86.0475C236.49 87.2007 238.059 88.6119 239.472 90.2253C240.918 91.8777 242.124 93.651 243.099 95.4236C243.44 96.043 243.727 96.617 243.961 97.1304L244.074 97.3817C244.108 97.4601 244.14 97.5331 244.168 97.6004L244.231 97.7538C244.397 98.1834 244.887 98.3945 245.318 98.2223C250.9 95.9931 255.735 95.7959 259.908 97.2903C263.304 98.5064 266.159 100.803 268.511 103.877C269.789 105.548 270.837 107.343 271.668 109.137C271.959 109.764 272.201 110.345 272.397 110.865L272.491 111.12C272.51 111.173 272.528 111.223 272.545 111.271L272.621 111.497C272.74 111.879 273.12 112.121 273.521 112.07C278.778 111.407 283.108 112.007 286.61 113.671C289.509 115.049 291.765 117.116 293.464 119.699C294.606 121.435 295.429 123.3 295.983 125.166L296.039 125.36C296.168 125.809 296.274 126.234 296.359 126.63L296.372 126.694L161.113 126.694C154.561 126.694 151.981 118.291 157.44 114.739C161.206 112.274 166.17 111.262 172.452 112.07C172.837 112.119 173.203 111.899 173.337 111.544L173.405 111.341L173.455 111.197C173.482 111.121 173.512 111.04 173.544 110.953L173.577 110.865C173.773 110.345 174.014 109.764 174.304 109.138C175.134 107.345 176.18 105.552 177.458 103.882C179.807 100.812 182.66 98.5174 186.057 97.3014C190.23 95.8071 195.069 96.001 200.657 98.2228C201.089 98.3944 201.579 98.1821 201.745 97.7518L201.807 97.5986L201.867 97.4566C201.91 97.3569 201.958 97.2475 202.012 97.1288C202.245 96.6156 202.53 96.0418 202.869 95.4227C203.839 93.6507 205.039 91.8781 206.481 90.2263C209.267 87.0343 212.603 84.6892 216.523 83.5326C221.314 82.1189 226.779 82.5454 232.987 85.1775L233.18 85.26Z" fill="#6A6AF4"/>
<path fill-rule="evenodd" clip-rule="evenodd" d="M186.167 147.647H56.8752C54.1591 147.647 51.9419 145.453 51.9419 142.765V66.689C51.9419 64.0014 54.1591 61.8074 56.8752 61.8074H186.167C188.883 61.8074 191.101 64.0014 191.101 66.689V142.765C191.101 145.453 188.883 147.647 186.167 147.647Z" fill="#6A6AF4"/>
<path fill-rule="evenodd" clip-rule="evenodd" d="M187.072 63.6528C187.435 63.3744 187.957 63.4398 188.238 63.7989C188.509 64.1442 188.458 64.6353 188.131 64.9201L188.09 64.9532L124.597 113.658C122.801 115.047 120.377 115.069 118.563 113.726L118.476 113.66L54.9803 64.9532C54.6174 64.6749 54.5512 64.1581 54.8326 63.7989C55.1031 63.4536 55.5964 63.3798 55.9566 63.6222L55.9991 63.6528L119.498 112.361C120.697 113.289 122.285 113.307 123.502 112.415L123.576 112.359L187.072 63.6528Z" fill="white"/>
<path fill-rule="evenodd" clip-rule="evenodd" d="M92.7412 92.7284C93.0705 92.4117 93.5969 92.419 93.917 92.7448C94.2242 93.0576 94.2297 93.5502 93.9383 93.8693L93.9004 93.9083L54.018 132.275C53.6887 132.592 53.1623 132.585 52.8422 132.259C52.5349 131.946 52.5295 131.454 52.8208 131.135L52.8588 131.096L92.7412 92.7284Z" fill="white"/>
<path fill-rule="evenodd" clip-rule="evenodd" d="M149.486 92.7448C149.793 92.4321 150.291 92.4128 150.621 92.692L150.662 92.7284L190.544 131.096C190.873 131.412 190.881 131.933 190.561 132.259C190.253 132.572 189.756 132.591 189.425 132.312L189.385 132.275L149.502 93.9083C149.173 93.5915 149.166 93.0706 149.486 92.7448Z" fill="white"/>
<path fill-rule="evenodd" clip-rule="evenodd" d="M186.667 192.047C208.111 192.047 225.496 174.845 225.496 153.625C225.496 132.405 208.111 115.203 186.667 115.203C165.222 115.203 147.837 132.405 147.837 153.625C147.837 174.845 165.222 192.047 186.667 192.047Z" fill="#F95C5E"/>
<path fill-rule="evenodd" clip-rule="evenodd" d="M217.236 116.986C215.629 115.998 213.495 116.492 212.497 118.083L204.016 131.576C198.972 127.544 192.57 125.131 185.613 125.131C169.427 125.131 156.263 138.158 156.263 154.174C156.263 170.19 169.427 183.216 185.613 183.216C201.799 183.216 214.964 170.19 214.964 154.174C214.964 147.564 212.719 141.476 208.95 136.567L218.317 121.648C219.343 120.057 218.844 117.973 217.236 116.986ZM212.802 154.174C212.802 169.01 200.607 181.077 185.613 181.077C170.619 181.077 158.424 169.01 158.424 154.174C158.424 139.337 170.619 127.27 185.613 127.27C192.154 127.27 198.168 129.574 202.852 133.386L187.498 157.821L178.601 146.111C177.465 144.602 175.303 144.301 173.779 145.425C172.254 146.55 171.95 148.689 173.086 150.197L185.004 165.884C185.669 166.734 186.666 167.255 187.747 167.255C187.803 167.255 187.858 167.255 187.886 167.255C189.022 167.2 190.048 166.597 190.657 165.665L207.702 138.569C210.917 142.957 212.802 148.36 212.802 154.174Z" fill="white"/>
</svg>
