<svg width="75" height="119" viewBox="0 0 75 119" fill="none" xmlns="http://www.w3.org/2000/svg">
<rect width="49.5797" height="42.7508" transform="matrix(-1 0 0 1 74.502 75.4365)" fill="white"/>
<path fill-rule="evenodd" clip-rule="evenodd" d="M24.9219 74.9385H74.5015C74.7768 74.9385 75 75.1616 75 75.4369V118.188C75 118.463 74.7768 118.686 74.5015 118.686H24.9219C24.6466 118.686 24.4234 118.463 24.4234 118.188V75.4369C24.4234 75.1616 24.6466 74.9385 24.9219 74.9385ZM25.4204 75.9353V117.689H74.0032V75.9353H25.4204Z" fill="#161616"/>
<path fill-rule="evenodd" clip-rule="evenodd" d="M8.27539 34.7287C8.27539 34.7287 5.16835 33.8814 3.39053 32.2032C2.34378 31.1897 0.981332 29.8439 1.01456 29.3953C1.06441 28.5645 2.809 29.8439 3.09146 30.01" fill="white"/>
<path fill-rule="evenodd" clip-rule="evenodd" d="M1.7765 29.7919L1.83871 29.8241C1.91641 29.8651 1.99798 29.9108 2.08346 29.9611L2.19239 30.0265C2.40644 30.1583 2.81715 30.4274 2.8382 30.4398C3.07548 30.5794 3.38098 30.5002 3.52056 30.2629C3.65497 30.0344 3.5865 29.7427 3.36936 29.5967L2.93686 29.3171C2.83543 29.2524 2.73492 29.1891 2.66196 29.1453C2.53758 29.0705 2.41848 29.0028 2.3036 28.9422C1.95897 28.7606 1.66744 28.6489 1.40674 28.624C0.942645 28.5798 0.567369 28.8399 0.520049 29.3193L0.516935 29.3586C0.471101 29.9774 1.12628 30.7054 3.04785 32.5659C3.57545 33.0639 4.23221 33.5158 4.98928 33.9259C5.67991 34.3 6.41638 34.6197 7.15248 34.8865C7.37779 34.9681 7.58925 35.0397 7.78291 35.1012L8.00419 35.1695C8.06489 35.1877 8.11182 35.2011 8.14371 35.2098C8.40929 35.2822 8.68332 35.1256 8.75575 34.86C8.82818 34.5944 8.6716 34.3204 8.40601 34.248L8.34552 34.2308C8.30323 34.2185 8.25525 34.2041 8.20196 34.1878L8.161 34.1751C7.9597 34.1125 7.73473 34.0371 7.49214 33.9492C6.79941 33.6982 6.10707 33.3976 5.46412 33.0493C4.7777 32.6775 4.19011 32.2732 3.73673 31.8453L3.33201 31.4512C2.85181 30.9805 2.50567 30.6272 2.20631 30.297L2.16752 30.2541C2.03563 30.1076 1.92124 29.9739 1.82547 29.8542L1.7765 29.7919Z" fill="#161616"/>
<path fill-rule="evenodd" clip-rule="evenodd" d="M6.59606 31.971C6.59606 31.971 5.11731 30.6916 4.60224 29.6283C4.08717 28.5649 3.73825 27.7508 3.9044 27.6012C4.07055 27.4517 5.03423 27.7175 5.41638 28.3489C5.83176 29.4123 7.55974 30.8578 7.55974 30.8578C7.34374 30.7747 6.29698 29.595 5.79853 28.864C5.31669 28.1329 5.28346 27.0031 6.79544 28.2658C6.79544 28.2658 8.37388 29.6781 8.98864 30.0935C8.98864 30.0935 11.7634 31.1402 12.4612 32.3199C12.9264 33.1175 16.5984 39.2152 19.4894 43.1862C21.2673 45.0471 24.6235 56.4451 19.1571 55.1824C18.0107 54.9498 16.7313 53.8698 16.3492 52.8895L9.07172 35.0947C7.39358 34.3968 6.26375 33.6491 5.53269 33.0011C4.58562 32.1538 1.94381 28.6314 1.96042 28.2658C2.02688 27.2689 3.65517 27.6843 4.48593 29.4953" fill="white"/>
<path fill-rule="evenodd" clip-rule="evenodd" d="M5.20046 27.45L5.19858 27.4488C4.62938 27.074 3.91365 26.9227 3.57185 27.2303C3.48468 27.3088 3.42554 27.3905 3.39038 27.4806L3.38708 27.4895L3.33701 27.4628C3.28333 27.4348 3.22935 27.4092 3.1752 27.3861L3.12098 27.3638C2.30138 27.0392 1.52184 27.3642 1.46331 28.2429C1.44701 28.6032 1.98367 29.4178 2.98779 30.7521L3.09876 30.899C3.93065 31.995 4.7485 32.9672 5.20296 33.3738C6.03486 34.1111 7.1712 34.8159 8.61528 35.4416L8.68931 35.4733L15.8856 53.0702C16.3297 54.2093 17.7217 55.3704 18.9839 55.6544L19.0458 55.6677C20.56 56.0174 21.6595 55.5178 22.2184 54.3116C22.666 53.3453 22.7507 51.9591 22.5351 50.2914C22.1722 47.4842 20.9395 44.0742 19.9178 42.9147L19.8755 42.8677L19.8081 42.7752C18.6392 41.1614 17.269 39.104 15.8098 36.8051L15.3819 36.1281C14.337 34.4678 13.2948 32.7578 12.8911 32.0658C12.5681 31.5196 11.9272 31.012 11.0503 30.5155C10.6372 30.2817 10.1973 30.0659 9.75761 29.8723C9.62951 29.8159 9.50891 29.7648 9.39783 29.7192L9.22432 29.6493L9.21551 29.6433C9.03889 29.5185 8.77385 29.308 8.44649 29.0348L8.23373 28.8558C8.03528 28.6876 7.82878 28.5096 7.62257 28.3295L7.11586 27.8829C6.70965 27.5436 6.36949 27.3328 6.07739 27.2457C5.74795 27.1475 5.43306 27.2022 5.2262 27.4212L5.20046 27.45ZM4.5023 28.1934L4.53461 28.2098C4.71888 28.3069 4.87404 28.4344 4.96853 28.5719L4.97301 28.5787L4.97918 28.594C5.07041 28.8091 5.20144 29.0342 5.36804 29.2707L5.41908 29.342C5.60422 29.5966 5.82711 29.8611 6.07999 30.1322C6.29162 30.3591 6.51491 30.5807 6.7401 30.7916L6.80134 30.8482L6.80616 30.8533C7.03796 31.0858 7.23793 31.2569 7.36179 31.3141L7.38172 31.3225C7.89851 31.5213 8.29873 30.8595 7.90173 30.4936L7.79194 30.399L7.7 30.3181C7.66806 30.2898 7.63487 30.26 7.60058 30.2289L7.54834 30.1814L7.44418 30.0847L7.40335 30.0416C7.34209 29.9762 7.27722 29.9053 7.21005 29.8302L7.15927 29.7731C6.79782 29.3646 6.43424 28.9097 6.21563 28.5892C6.17103 28.5215 6.13126 28.4487 6.09843 28.3759L6.08988 28.3554L6.10457 28.3653C6.2 28.429 6.30916 28.5103 6.43069 28.6098L6.47236 28.6443L6.75626 28.8957L6.8102 28.9432C7.01904 29.1266 7.23037 29.3101 7.43612 29.4859L7.69245 29.7034L7.86765 29.85C8.22614 30.1479 8.51185 30.3718 8.71049 30.506C8.74267 30.5278 8.77728 30.5457 8.81362 30.5594L8.95874 30.6167L9.08284 30.6676C9.16852 30.7033 9.25992 30.7424 9.35597 30.7846C9.76718 30.9657 10.1781 31.1672 10.5592 31.383C11.2952 31.7997 11.8227 32.2175 12.0316 32.5706L12.2313 32.9088C12.7047 33.7033 13.5596 35.1009 14.4313 36.489L14.8612 37.1705C16.4064 39.6101 17.857 41.7892 19.0874 43.4791C19.1004 43.4971 19.1146 43.5141 19.1299 43.5301C19.9892 44.4295 21.2003 47.7414 21.5464 50.4191C21.7401 51.917 21.6658 53.1326 21.3138 53.8924C20.9584 54.6595 20.3359 54.9424 19.2572 54.6934C18.3121 54.5017 17.1832 53.5808 16.8302 52.7466L9.534 34.9055C9.48375 34.7826 9.38658 34.6849 9.26402 34.6339C7.79099 34.0214 6.6605 33.3334 5.86597 32.6292L5.81261 32.5802C5.4053 32.1966 4.65031 31.2943 3.88829 30.2901L3.78436 30.1526C3.39455 29.6346 3.04481 29.1445 2.79553 28.7661L2.7297 28.6651C2.64578 28.535 2.57748 28.4232 2.52691 28.3331L2.49532 28.2753L2.47591 28.2374L2.48053 28.2365C2.52715 28.2288 2.61168 28.2385 2.72295 28.2788L2.75395 28.2906C3.20602 28.4696 3.70196 28.9793 4.03378 29.7027C4.06111 29.7623 4.09871 29.8139 4.14351 29.8564L4.17332 29.8822L4.19145 29.9189C4.25514 30.0425 4.32977 30.1692 4.41465 30.2991L4.46681 30.3774C4.6527 30.6515 4.88051 30.9362 5.14133 31.2278C5.38834 31.504 5.6517 31.7718 5.91498 32.0218L6.02236 32.1227C6.05703 32.155 6.09054 32.1858 6.12276 32.2151L6.26162 32.3395L6.27084 32.3475C6.47903 32.5276 6.79381 32.5048 6.97393 32.2967C7.14712 32.0965 7.13274 31.7977 6.9463 31.6149L6.83752 31.5175L6.74842 31.4363C6.70198 31.3936 6.65282 31.3476 6.6014 31.2988C6.35651 31.0663 6.11169 30.8173 5.88441 30.5632C5.65112 30.3024 5.45019 30.0513 5.29181 29.8178C5.19279 29.6718 5.11217 29.5352 5.05175 29.4105L4.94421 29.1869C4.77331 28.8287 4.64361 28.542 4.54839 28.3091L4.5023 28.1934Z" fill="#161616"/>
<path fill-rule="evenodd" clip-rule="evenodd" d="M19.2734 41.758L15.236 34.4141L8.87234 35.926L14.3221 49.4508L19.2734 41.758Z" fill="#666666"/>
<path fill-rule="evenodd" clip-rule="evenodd" d="M45.209 95.5567L45.0096 118.519H41.5869L41.3875 111.358C41.3875 111.358 39.9918 118.353 35.2233 118.668C30.4381 118.984 26.3175 117.672 26.3508 117.489C26.3674 117.389 26.2012 115.993 26.0517 114.614C25.9188 113.418 27.0486 112.255 28.2781 112.338C30.1224 112.438 32.5316 112.305 33.9937 111.075C36.6023 108.899 36.27 93.0645 36.27 93.0645L45.209 95.5567Z" fill="#161616"/>
<path fill-rule="evenodd" clip-rule="evenodd" d="M39.3613 95.5567L36.0549 118.519H32.6322L32.4993 114.432C32.4993 114.432 31.0537 118.369 26.2686 118.685C21.4834 119.001 17.3628 117.688 17.3961 117.505C17.4127 117.406 17.2465 116.01 17.097 114.631C16.9641 113.435 18.0939 112.272 19.3234 112.355C21.1677 112.454 22.7295 109.962 24.1917 108.733C26.8003 106.556 27.3153 93.0811 27.3153 93.0811L39.3613 95.5567Z" fill="#161616"/>
<path fill-rule="evenodd" clip-rule="evenodd" d="M17.8933 72.0307C19.1228 69.2227 34.0433 60.9483 34.0433 60.9483C34.0433 60.9483 27.447 43.2366 31.1688 38.0194C34.4088 33.633 40.2573 33.849 40.2573 33.849L50.9409 33.4502V33.4004H52.6855C54.563 33.4004 57.1217 35.4108 57.4042 37.5708C57.9193 41.5584 59.4645 47.0581 60.5278 51.6438C63.0201 59.2868 65.5456 70.6848 60.478 75.4534C60.4448 75.5198 47.5348 75.4534 47.5348 75.4534L47.5182 110.927H21.7813C21.7647 110.943 16.6804 74.822 17.8933 72.0307Z" fill="#666666"/>
<path fill-rule="evenodd" clip-rule="evenodd" d="M48.5467 28.0921C48.4236 27.8458 48.1242 27.746 47.8779 27.8691C47.6317 27.9923 47.5319 28.2917 47.655 28.5379C47.8992 29.0263 47.9873 29.7078 47.8739 30.4166C47.6808 31.6854 46.9328 32.5861 46.3144 32.5419L46.2841 32.5389C46.0108 32.5054 45.7621 32.6997 45.7286 32.9729C45.695 33.2462 45.8893 33.4949 46.1626 33.5284C47.4396 33.6852 48.5922 32.3231 48.8589 30.5703C49.0034 29.667 48.8881 28.775 48.5467 28.0921Z" fill="#929292"/>
<path fill-rule="evenodd" clip-rule="evenodd" d="M35.3533 27.6438C35.2302 27.3976 34.9308 27.2978 34.6846 27.4209C34.4383 27.544 34.3385 27.8434 34.4617 28.0896C34.7059 28.5781 34.7939 29.2596 34.6805 29.9683C34.4875 31.2371 33.7395 32.1379 33.121 32.0936L33.0907 32.0907C32.8175 32.0571 32.5688 32.2514 32.5352 32.5247C32.5017 32.7979 32.696 33.0466 32.9692 33.0802C34.2462 33.237 35.3988 31.8748 35.6655 30.1221C35.81 29.2188 35.6948 28.3267 35.3533 27.6438Z" fill="#929292"/>
<path fill-rule="evenodd" clip-rule="evenodd" d="M47.286 17.2834C45.259 15.7881 43.9131 7.9291 49.4127 2.66209C54.9954 -2.67138 59.6311 2.7784 60.6612 4.2073C61.6914 5.63621 62.4723 9.59062 57.6539 13.329C52.8189 17.0508 49.5955 18.9948 47.286 17.2834Z" fill="#161616"/>
<path fill-rule="evenodd" clip-rule="evenodd" d="M44.3276 20.756L44.4605 20.839C45.2082 21.3209 46.2549 21.1215 46.7866 20.3738L48.2654 18.2969C48.7971 17.5492 48.6143 16.5523 47.8666 16.0705L47.7337 15.9874C46.986 15.5056 45.9392 15.7049 45.4076 16.4526L43.9288 18.5295C43.3971 19.2772 43.5799 20.2741 44.3276 20.756Z" fill="#929292"/>
<path fill-rule="evenodd" clip-rule="evenodd" d="M45.3512 27.3459C44.9287 26.4596 45.345 25.3794 46.281 24.9332C47.2171 24.487 48.3184 24.8438 48.7409 25.7301C49.1634 26.6164 48.7471 27.6967 47.811 28.1429C46.875 28.589 45.7737 28.2322 45.3512 27.3459Z" fill="white"/>
<path fill-rule="evenodd" clip-rule="evenodd" d="M49.1904 25.5165C49.7341 26.657 49.2043 28.0316 48.0251 28.5937C46.8459 29.1558 45.4445 28.7017 44.9009 27.5613C44.3572 26.4208 44.887 25.0462 46.0662 24.4841C47.2454 23.922 48.6468 24.376 49.1904 25.5165ZM48.2905 25.9454C47.9892 25.3132 47.188 25.0536 46.4951 25.3839C45.8023 25.7142 45.4994 26.5 45.8007 27.1322C46.1021 27.7644 46.9033 28.0239 47.5961 27.6937C48.289 27.3634 48.5918 26.5776 48.2905 25.9454Z" fill="#161616"/>
<path fill-rule="evenodd" clip-rule="evenodd" d="M32.4567 26.7414C32.0342 25.8551 32.4505 24.7749 33.3865 24.3287C34.3225 23.8825 35.4238 24.2393 35.8463 25.1256C36.2688 26.012 35.8525 27.0922 34.9165 27.5384C33.9805 27.9846 32.8792 27.6277 32.4567 26.7414Z" fill="white"/>
<path fill-rule="evenodd" clip-rule="evenodd" d="M36.2979 24.91C36.8415 26.0505 36.3118 27.4251 35.1326 27.9872C33.9533 28.5493 32.5519 28.0953 32.0083 26.9548C31.4646 25.8143 31.9944 24.4397 33.1736 23.8776C34.3528 23.3155 35.7542 23.7696 36.2979 24.91ZM35.3979 25.3389C35.0966 24.7068 34.2954 24.4472 33.6025 24.7775C32.9097 25.1077 32.6068 25.8936 32.9082 26.5258C33.2095 27.1579 34.0107 27.4175 34.7036 27.0872C35.3964 26.757 35.6993 25.9711 35.3979 25.3389Z" fill="#161616"/>
<path fill-rule="evenodd" clip-rule="evenodd" d="M39.41 31.8217L39.3103 34.4801L37.0839 34.9786C36.951 35.3441 36.8181 41.6246 42.5669 40.8437C46.3385 40.3286 48.0998 36.9558 49.1133 33.8653L45.9066 34.0813L45.8899 26.5713L39.41 31.8217Z" fill="white"/>
<path fill-rule="evenodd" clip-rule="evenodd" d="M46.3895 26.5696L46.4049 33.5476L49.0809 33.3674C49.4335 33.3437 49.6981 33.6842 49.588 34.0201C48.9724 35.8973 48.237 37.4196 47.2642 38.6317C46.0527 40.1413 44.5264 41.0787 42.6354 41.337C39.8793 41.7114 38.0761 40.6105 37.1647 38.5414C36.5884 37.2331 36.4139 35.365 36.6166 34.8076L36.6292 34.7762C36.6929 34.6323 36.8212 34.5262 36.9761 34.4915L38.8279 34.0769L38.913 31.8024C38.9184 31.6587 38.9856 31.5243 39.0973 31.4338L45.5772 26.1834C45.9027 25.9197 46.3886 26.1507 46.3895 26.5696ZM45.3954 27.6139L39.9011 32.0657L39.8098 34.4981L39.8077 34.5287C39.7867 34.7415 39.6315 34.9186 39.4206 34.9658L37.5452 35.3856L37.5452 35.3793C37.5399 35.5907 37.5487 35.8437 37.5738 36.1119C37.6394 36.8145 37.8034 37.5176 38.0773 38.1394C38.8153 39.815 40.2018 40.6614 42.5012 40.3491L42.5909 40.3362C45.3324 39.9241 47.1029 37.9106 48.3623 34.5096L48.3979 34.4124L45.9414 34.578C45.6541 34.5973 45.4101 34.3698 45.4095 34.0817L45.3954 27.6139Z" fill="#161616"/>
<path fill-rule="evenodd" clip-rule="evenodd" d="M39.1386 33.3521C35.9167 32.7601 33.9218 28.9221 34.6829 24.7797C35.444 20.6373 38.6729 17.759 41.8948 18.351C45.1167 18.943 47.1115 22.781 46.3504 26.9234C45.5893 31.0658 42.3605 33.944 39.1386 33.3521Z" fill="white"/>
<path fill-rule="evenodd" clip-rule="evenodd" d="M41.9827 17.8605C45.5061 18.5079 47.6451 22.6232 46.8385 27.0132C46.0319 31.4033 42.5698 34.4894 39.0464 33.8421C35.5229 33.1947 33.384 29.0794 34.1905 24.6894C34.9971 20.2994 38.4593 17.2132 41.9827 17.8605ZM41.8025 18.8408C38.8822 18.3043 35.8866 20.9746 35.171 24.8694C34.4554 28.7642 36.3062 32.3249 39.2265 32.8614C42.1469 33.398 45.1424 30.7277 45.858 26.8329C46.5736 22.9381 44.7229 19.3774 41.8025 18.8408Z" fill="#161616"/>
<path fill-rule="evenodd" clip-rule="evenodd" d="M39.62 23.8302C39.3634 23.7622 39.1005 23.9073 39.0188 24.1563L39.0105 24.1844L38.1989 27.2489C38.0794 27.6674 38.3756 28.096 38.7985 28.116L38.8297 28.1167L39.9595 28.1499C40.2347 28.158 40.4643 27.9415 40.4724 27.6664C40.4802 27.401 40.2792 27.178 40.0181 27.1552L39.9889 27.1535L39.2612 27.1321L39.9742 24.4397C40.0422 24.1831 39.8971 23.9202 39.6481 23.8385L39.62 23.8302Z" fill="#161616"/>
<path fill-rule="evenodd" clip-rule="evenodd" d="M43.0235 22.1428C42.524 21.8597 41.9871 21.753 41.455 21.9583C41.2705 22.0294 41.0972 22.1368 40.9381 22.28C40.7335 22.4641 40.7169 22.7793 40.901 22.9839C41.0781 23.1807 41.3763 23.2036 41.5809 23.0413L41.605 23.021C41.6748 22.9582 41.7439 22.9153 41.8137 22.8884C42.0166 22.8101 42.2668 22.8599 42.532 23.0101C42.5985 23.0478 42.6595 23.0884 42.7128 23.1284L42.7385 23.1482C42.7531 23.1596 42.7623 23.1674 42.7657 23.1705C42.9704 23.3547 43.2855 23.3381 43.4697 23.1335C43.6539 22.9288 43.6373 22.6137 43.4326 22.4295C43.3457 22.3512 43.2064 22.2464 43.0235 22.1428Z" fill="#161616"/>
<path fill-rule="evenodd" clip-rule="evenodd" d="M38.4556 21.9726C38.1265 21.8953 37.7837 21.8718 37.4468 21.9385C36.9611 22.0346 36.5589 22.3111 36.3106 22.7836C36.1826 23.0273 36.2764 23.3287 36.52 23.4567C36.7547 23.58 37.0429 23.4977 37.1782 23.2738L37.1931 23.2473C37.2941 23.0552 37.4375 22.9566 37.6404 22.9164C37.8177 22.8813 38.0253 22.8956 38.2277 22.9431L38.2776 22.9555C38.308 22.9634 38.3325 22.9707 38.3499 22.9763L38.3706 22.9835C38.6283 23.0805 38.9158 22.9503 39.0128 22.6927C39.1098 22.4351 38.9796 22.1476 38.722 22.0506L38.6722 22.033C38.6165 22.0144 38.5434 21.9932 38.4556 21.9726Z" fill="#161616"/>
<path fill-rule="evenodd" clip-rule="evenodd" d="M40.9697 25.3405C40.9575 24.9645 41.1483 24.6531 41.396 24.645C41.6436 24.637 41.8543 24.9353 41.8665 25.3113C41.8787 25.6873 41.6879 25.9987 41.4403 26.0068C41.1927 26.0148 40.982 25.7165 40.9697 25.3405Z" fill="#161616"/>
<path fill-rule="evenodd" clip-rule="evenodd" d="M37.1514 26.1507C36.9043 26.1328 36.726 25.8141 36.7532 25.4389C36.7803 25.0636 37.0027 24.7739 37.2498 24.7918C37.4969 24.8097 37.6752 25.1284 37.6481 25.5037C37.6209 25.8789 37.3985 26.1686 37.1514 26.1507Z" fill="#161616"/>
<path fill-rule="evenodd" clip-rule="evenodd" d="M33.7693 26.3282C32.4864 26.1291 31.4712 27.5504 31.1895 29.4216C30.9206 31.208 31.6239 32.8613 32.9186 33.0622C32.9355 33.0648 32.9524 33.0665 32.9695 33.0674L32.995 33.0681H33.0283C33.3036 33.0681 33.5267 32.8449 33.5267 32.5696C33.5267 32.3041 33.3192 32.0872 33.0576 32.072L33.0412 32.0715L33.0132 32.065C32.4254 31.9134 31.9979 30.8761 32.1666 29.6314L32.1753 29.57C32.3822 28.1958 33.0407 27.2569 33.5904 27.31L33.6164 27.3133C33.8885 27.3555 34.1432 27.1692 34.1854 26.8972C34.2277 26.6252 34.0413 26.3704 33.7693 26.3282Z" fill="#929292"/>
<path fill-rule="evenodd" clip-rule="evenodd" d="M47.1287 26.9426C45.8295 26.741 44.6508 28.1058 44.3828 29.8865C44.1138 31.6729 44.8171 33.3262 46.1118 33.5271C46.1287 33.5297 46.1457 33.5314 46.1627 33.5323L46.1883 33.533H46.2215C46.4968 33.533 46.72 33.3098 46.72 33.0345C46.72 32.769 46.5124 32.5521 46.2508 32.5369L46.235 32.5364L46.2064 32.5299C45.6186 32.3783 45.1911 31.341 45.3598 30.0963L45.3686 30.0349C45.5617 28.7522 46.3191 27.8584 46.9456 27.9238L46.9758 27.9277C47.2479 27.97 47.5026 27.7837 47.5448 27.5116C47.587 27.2396 47.4007 26.9848 47.1287 26.9426Z" fill="#929292"/>
<path fill-rule="evenodd" clip-rule="evenodd" d="M42.9645 28.0195C42.8989 29.7322 42.2361 30.6382 41.1591 30.7341C40.7549 30.7702 40.3452 30.6844 39.9454 30.5229C39.7467 30.4427 39.5919 30.3613 39.4956 30.3017C39.1905 30.1127 39.1791 29.6728 39.4741 29.4683L42.1824 27.5908C42.5201 27.3566 42.9802 27.6088 42.9645 28.0195ZM41.8029 29.067L40.8369 29.7366L40.8708 29.7403C40.9401 29.7463 41.0071 29.7468 41.0708 29.7411C41.387 29.7129 41.6352 29.5295 41.7908 29.1013L41.8029 29.067Z" fill="#161616"/>
<path fill-rule="evenodd" clip-rule="evenodd" d="M42.6496 16.5688L42.6663 16.5854C44.5936 16.8679 46.7536 17.7485 47.9499 19.0445C50.0766 21.3373 49.0963 26.2388 46.9364 26.5711C46.7536 26.6044 46.5708 26.621 46.3881 26.621C46.4047 26.5047 46.4213 26.3717 46.4379 26.2554C46.4878 25.8068 46.5044 25.3582 46.5044 24.9096C43.5469 23.813 43.5635 19.3768 43.5635 19.0112C42.9321 19.5097 42.118 20.3571 42.334 21.3041L35.8042 21.7195C35.1728 22.7995 34.7408 24.0622 34.5913 25.4247C34.5913 25.4413 34.5913 25.4579 34.5913 25.4745C33.9765 24.5939 33.9599 23.2315 34.4584 21.8026L32.2486 21.9355C32.2486 21.9355 30.2215 14.4753 42.6496 16.5688Z" fill="#161616"/>
<path fill-rule="evenodd" clip-rule="evenodd" d="M49.5918 43.9537C49.5562 43.6807 49.3061 43.4882 49.0332 43.5238C48.7699 43.558 48.5815 43.7918 48.6003 44.0532L48.6032 44.0824L49.3112 49.519L35.9869 49.5509C35.7215 49.5515 35.505 49.7596 35.4905 50.0213L35.4897 50.0505C35.4903 50.316 35.6983 50.5325 35.96 50.547L35.9893 50.5478L49.8796 50.5146C50.17 50.5139 50.396 50.2669 50.3757 49.9814L50.3727 49.9518L49.5918 43.9537Z" fill="white"/>
<path fill-rule="evenodd" clip-rule="evenodd" d="M61.161 52.1535C61.0934 51.8866 60.8223 51.7251 60.5554 51.7927C60.2886 51.8604 60.1271 52.1315 60.1947 52.3984C60.736 54.5343 58.9452 57.0833 56.8377 57.1754L56.7737 57.1774L36.6195 57.1608C36.3442 57.1606 36.1209 57.3835 36.1206 57.6588C36.1204 57.9243 36.3278 58.1414 36.5894 58.1568L36.6187 58.1577L56.7832 58.1742C59.5871 58.1185 61.8615 54.9176 61.161 52.1535Z" fill="white"/>
<path fill-rule="evenodd" clip-rule="evenodd" d="M52.5857 49.8851C51.7017 49.3039 50.7621 49.2313 49.9079 49.4549C49.7427 49.4981 49.6181 49.5433 49.5409 49.5779C49.2896 49.6904 49.1772 49.9853 49.2898 50.2366C49.3983 50.4788 49.6764 50.592 49.9214 50.4989L49.9714 50.4782C50.0088 50.4637 50.0732 50.4421 50.1603 50.4193C50.7642 50.2613 51.4203 50.312 52.0381 50.7181C52.3546 50.9262 52.6503 51.2236 52.9202 51.624C53.0741 51.8522 53.3839 51.9126 53.6121 51.7587C53.8404 51.6048 53.9007 51.295 53.7468 51.0668C53.4047 50.5591 53.0151 50.1674 52.5857 49.8851Z" fill="white"/>
<path fill-rule="evenodd" clip-rule="evenodd" d="M54.4505 49.2001C52.9129 47.9259 51.3887 47.8563 50.088 48.5235C49.9149 48.6122 49.7611 48.7077 49.6274 48.8041L49.5687 48.8475C49.5143 48.8887 49.4728 48.9231 49.4447 48.9485C49.2406 49.1333 49.2249 49.4485 49.4097 49.6526C49.5873 49.8488 49.8856 49.8709 50.0897 49.7081L50.13 49.6741C50.1519 49.6562 50.1788 49.6355 50.2106 49.6126C50.305 49.5445 50.4165 49.4754 50.5429 49.4105C51.5085 48.9152 52.6047 48.9652 53.8143 49.9677C54.0263 50.1434 54.3405 50.114 54.5162 49.902C54.6918 49.69 54.6624 49.3758 54.4505 49.2001Z" fill="white"/>
<path fill-rule="evenodd" clip-rule="evenodd" d="M52.703 55.3659L42.5179 55.4656L39.1617 39.6812C39.0952 39.3322 38.7961 39.083 38.4805 39.083L13.6574 39.4652C13.2088 39.4652 12.8765 39.947 12.9762 40.4288L16.1331 57.26C16.3491 58.3068 17.6616 59.1043 18.6087 59.0877C24.7065 58.988 49.2637 58.6391 49.9948 58.6224C53.268 58.6058 52.703 55.3659 52.703 55.3659Z" fill="#929292"/>
<path fill-rule="evenodd" clip-rule="evenodd" d="M9.86841 58.2236C9.60295 58.2236 9.38597 58.4311 9.3708 58.6928L9.36996 58.7221V117.689C9.36996 117.965 9.59312 118.188 9.86841 118.188C10.1339 118.188 10.3509 117.98 10.366 117.719L10.3669 117.689V59.2204H65.8118L65.8117 117.689C65.8117 117.955 66.0192 118.172 66.2809 118.187L66.3101 118.188C66.5756 118.188 66.7926 117.98 66.8077 117.719L66.8086 117.689V58.7221C66.8086 58.4566 66.6011 58.2396 66.3394 58.2245L66.3101 58.2236H9.86841Z" fill="#161616"/>
</svg>
