<svg width="81" height="80" viewBox="0 0 81 80" fill="none" xmlns="http://www.w3.org/2000/svg">
<path fill-rule="evenodd" clip-rule="evenodd" d="M68.0996 13C67.5482 13 67.0996 12.5514 67.0996 12C67.0996 11.4486 67.5482 11 68.0996 11C68.651 11 69.0996 11.4486 69.0996 12C69.0996 12.5514 68.651 13 68.0996 13Z" fill="#CACAFB"/>
<path fill-rule="evenodd" clip-rule="evenodd" d="M41.0996 76C40.5482 76 40.0996 75.5514 40.0996 75C40.0996 74.4486 40.5482 74 41.0996 74C41.651 74 42.0996 74.4486 42.0996 75C42.0996 75.5514 41.651 76 41.0996 76Z" fill="#CACAFB"/>
<path fill-rule="evenodd" clip-rule="evenodd" d="M15.0996 10C14.5482 10 14.0996 9.5514 14.0996 9C14.0996 8.44855 14.5482 8 15.0996 8C15.651 8 16.0996 8.44855 16.0996 9C16.0996 9.5514 15.651 10 15.0996 10Z" fill="#CACAFB"/>
<path fill-rule="evenodd" clip-rule="evenodd" d="M37.4386 46.579L31.0565 39.0346L30.934 38.9028C30.1713 38.166 29.0144 38.1525 28.253 38.8636C27.4494 39.614 27.3776 40.8956 28.0902 41.7377L36.2862 51.425C36.3384 51.4867 36.3956 51.5441 36.4571 51.5966C37.087 52.1347 38.0338 52.0603 38.5719 51.4304L56.1029 30.9071L56.2136 30.7646C56.8119 29.9039 56.6984 28.7348 55.9532 28.0322C55.1391 27.2646 53.8778 27.3362 53.149 28.1894L37.4386 46.579Z" fill="#E1000F"/>
<path d="M11.5402 45.0358C8.75896 29.2629 19.2908 14.2218 35.0638 11.4406C45.0848 9.67361 55.1287 13.2682 61.7732 20.7262C62.1406 21.1386 62.1042 21.7707 61.6918 22.1381C61.2794 22.5055 60.6473 22.469 60.2799 22.0566C54.092 15.1111 44.7421 11.7649 35.4111 13.4102C20.7259 15.9996 10.9204 30.0034 13.5098 44.6885C16.0992 59.3736 30.1029 69.1792 44.7881 66.5898C59.4732 64.0004 69.2788 49.9967 66.6894 35.3115C66.5935 34.7676 66.9566 34.249 67.5005 34.153C68.0444 34.0571 68.5631 34.4203 68.659 34.9642C71.4402 50.7371 60.9083 65.7782 45.1354 68.5594C29.3624 71.3406 14.3213 60.8087 11.5402 45.0358Z" fill="#000091"/>
<path d="M70.3236 46.9243C70.4464 46.3859 70.9825 46.049 71.5209 46.1718C72.0594 46.2946 72.3963 46.8307 72.2735 47.3691C70.9284 53.2654 67.9819 58.6503 63.7924 62.9707C63.4079 63.3671 62.7748 63.3769 62.3784 62.9924C61.9819 62.6079 61.9721 61.9749 62.3566 61.5784C66.2929 57.5191 69.0605 52.4613 70.3236 46.9243Z" fill="#000091"/>
<path d="M72.0996 42C71.5473 42 71.0996 42.4477 71.0996 43C71.0996 43.5523 71.5473 44 72.0996 44C72.6519 44 73.0996 43.5523 73.0996 43C73.0996 42.4477 72.6519 42 72.0996 42Z" fill="#000091"/>
</svg>
