<svg width="684" height="295" viewBox="0 0 684 295" fill="none" xmlns="http://www.w3.org/2000/svg">
<path fill-rule="evenodd" clip-rule="evenodd" d="M258.973 186.642C243.461 192.872 210.805 209.188 196.029 210.577C158.523 213.78 123.902 201.123 105.396 195.7C98.1186 193.553 89.8919 195.023 84.5555 199.423C81.0058 202.391 77.3107 206.699 74.5889 212.96C65.9084 235.722 79.2661 236.241 79.2661 236.241C93.5884 240.372 149.512 256.49 153.137 259.15C156.66 261.745 165.182 270.355 166.389 277.836C166.451 278.219 166.468 278.605 166.486 278.988C167.415 299.278 195.337 295.681 189.048 273.381C186.657 261.673 182.675 256.75 187.022 246.772C194.915 246.089 205.89 245.275 211.452 245.364C220.344 245.504 229.76 242.345 227.307 237.246C231.948 236.898 236.611 236.755 241.273 236.819C257.797 236.354 258.229 226.22 248.971 225.122C254.657 224.52 259.294 223.901 261.382 222.848C264.588 221.231 272.322 215.952 266.112 210.293C264.531 208.85 259.946 208.765 253.983 209.438C263.095 204.651 270.56 200.432 274.462 197.768C281.095 193.238 279.461 178.409 258.973 186.642Z" fill="#5D21D1"/>
<path fill-rule="evenodd" clip-rule="evenodd" d="M244.861 225.322L245.368 225.324L245.851 225.328L246.311 225.334L246.957 225.348L247.357 225.359L247.733 225.373L248.085 225.389C248.142 225.392 248.197 225.395 248.252 225.398C248.979 225.439 249.527 225.93 249.474 226.495C249.421 227.06 248.788 227.485 248.061 227.444L247.787 227.43L247.344 227.412L247.026 227.402L246.517 227.39L245.969 227.381L245.382 227.375L244.758 227.373L244.321 227.374L243.397 227.379L242.662 227.387L241.625 227.402L240.525 227.423L239.063 227.458L238.14 227.483L236.527 227.531L234.823 227.587L233.395 227.638L231.531 227.709L229.182 227.805L227.132 227.893L224.565 228.009L221.886 228.136L219.097 228.272L216.201 228.419L215.213 228.471C214.485 228.508 213.856 228.081 213.807 227.516C213.758 226.95 214.309 226.461 215.037 226.424L218.868 226.228L222.12 226.069L225.972 225.89L228.524 225.778L231.289 225.664L232.933 225.601L234.818 225.533L236.895 225.466L238.567 225.418L239.626 225.391L240.884 225.364L241.839 225.347L242.965 225.332L243.813 225.325L244.416 225.322L244.861 225.322Z" fill="white"/>
<path fill-rule="evenodd" clip-rule="evenodd" d="M226.743 237.25C227.469 237.201 228.11 237.619 228.174 238.183C228.237 238.747 227.699 239.245 226.973 239.294C226.514 239.325 226.053 239.358 225.591 239.391L224.474 239.475L223.071 239.585L221.679 239.702L220.58 239.798L219.499 239.896L218.18 240.021L217.157 240.123L215.926 240.25L214.985 240.352L213.871 240.479L213.239 240.554L212.638 240.628L211.886 240.724L211.362 240.795L210.722 240.887L210.287 240.953L210.02 240.996L209.655 241.059L209.479 241.091L209.189 241.139L208.94 241.176L208.565 241.229L207.913 241.311L207.156 241.399L206.142 241.508L205.164 241.607L203.513 241.764L202.081 241.893L200.29 242.049L198.086 242.233L195.688 242.427L192.203 242.699L189.704 242.89C189.597 242.898 189.49 242.906 189.382 242.914C188.656 242.969 188.01 242.556 187.94 241.992C187.869 241.428 188.401 240.927 189.127 240.872L193.649 240.525L196.924 240.265L199.167 240.08L200.554 239.962L202.864 239.757L204.518 239.602L205.802 239.474L206.513 239.399L207.268 239.314L207.916 239.234L208.286 239.185L208.531 239.149L208.748 239.115L208.935 239.083L209.304 239.018L209.715 238.95L210.013 238.904L210.492 238.833L211.009 238.761L211.562 238.687L212.148 238.611L212.767 238.535L213.638 238.432L214.794 238.301L216.017 238.171L217.038 238.066L218.09 237.963L219.443 237.835L221.11 237.686L222.24 237.591L223.086 237.522C224.303 237.424 225.53 237.333 226.743 237.25Z" fill="white"/>
<path fill-rule="evenodd" clip-rule="evenodd" d="M248.637 209.619C249.245 209.306 250.065 209.435 250.469 209.907C250.872 210.38 250.705 211.016 250.097 211.329C246.513 213.173 242.803 215.043 239.052 216.896L237.174 217.821L235.291 218.742C228.067 222.264 220.797 225.673 214.08 228.676L213.342 229.02L208.864 231.074L208.176 231.393L207.513 231.702L206.563 232.149C206.46 232.197 206.357 232.246 206.256 232.294L205.364 232.722L204.788 233.002L204.224 233.279L203.671 233.555L203.124 233.83C203.034 233.876 202.944 233.922 202.853 233.968L202.262 234.273L201.682 234.576L201.113 234.878C201.02 234.929 200.926 234.979 200.833 235.029L200.281 235.33L199.741 235.631C199.562 235.73 199.386 235.83 199.211 235.93L198.694 236.228L198.187 236.526C197.937 236.675 197.69 236.824 197.449 236.972L196.971 237.268C195.948 237.909 195.006 238.546 194.147 239.18L193.757 239.472C191.064 241.518 189.238 243.54 188.334 245.593C188.098 246.129 187.347 246.415 186.657 246.232C185.966 246.049 185.598 245.465 185.834 244.929C186.948 242.398 189.168 239.999 192.426 237.614L192.847 237.309C193.132 237.106 193.424 236.903 193.724 236.7L194.179 236.396C195.023 235.838 195.924 235.279 196.88 234.718L197.407 234.412C197.496 234.361 197.585 234.31 197.675 234.259L198.218 233.952C198.676 233.697 199.144 233.44 199.624 233.183L200.206 232.874C200.304 232.823 200.402 232.771 200.501 232.72L201.098 232.41L201.401 232.255C201.585 232.16 201.77 232.067 201.956 231.973L202.517 231.692L203.086 231.41L203.666 231.127L204.259 230.84L204.868 230.548L205.496 230.251L206.145 229.946L207.163 229.473L212.06 227.224L212.735 226.91C218.564 224.305 224.805 221.394 231.067 218.372L232.946 217.462C233.572 217.158 234.198 216.852 234.824 216.546L236.698 215.627C237.322 215.319 237.945 215.012 238.567 214.703L240.428 213.778L242.278 212.852C243.507 212.234 244.728 211.617 245.937 211.001L247.742 210.079C248.041 209.926 248.34 209.772 248.637 209.619Z" fill="white"/>
<path fill-rule="evenodd" clip-rule="evenodd" d="M521.099 220.116C506.838 212.738 500.334 208.429 495.168 211.189C488.627 205.321 469.584 197.04 465.321 201.396C462.862 199.748 460.149 198.343 457.243 197.214C449.047 185.487 434.725 170.859 430.686 165.142C425.261 157.473 411.594 162.113 413.51 172.442C414.774 179.236 426.881 197.556 435.02 209.305C433.699 216.424 436.187 221.426 438.482 224.349C437.683 225.032 436.947 225.758 436.28 226.52C432.567 230.719 428.793 242.365 428.951 246.195C429.101 249.402 434.743 260.712 445.625 267.736L445.669 292.723H524.882V277.956C524.882 277.956 543.948 231.591 521.099 220.116Z" fill="#5D21D1"/>
<path fill-rule="evenodd" clip-rule="evenodd" d="M460.702 245.036C460.862 244.483 461.57 244.136 462.281 244.26C477.5 246.923 486.293 251.958 489.878 258.657C490.158 259.18 489.839 259.781 489.165 259.998C488.491 260.215 487.718 259.967 487.438 259.444C484.209 253.411 476.135 248.788 461.7 246.262C460.989 246.137 460.542 245.588 460.702 245.036Z" fill="white"/>
<path fill-rule="evenodd" clip-rule="evenodd" d="M494.495 209.122C494.992 208.708 495.828 208.684 496.363 209.07C496.897 209.456 496.927 210.105 496.43 210.52C494.588 212.057 492.905 213.555 491.372 215.013L490.838 215.526C490.662 215.696 490.488 215.866 490.316 216.035L489.806 216.541C488.379 217.97 487.101 219.359 485.962 220.705L485.567 221.178C485.176 221.65 484.804 222.116 484.448 222.577L484.098 223.036C482.893 224.637 481.895 226.173 481.09 227.641C480.151 229.356 479.551 230.846 479.221 232.101C479.121 232.483 479.053 232.815 479.012 233.097L478.991 233.254L478.972 233.449L478.969 233.506C478.969 234.072 478.378 234.532 477.648 234.532C476.918 234.532 476.327 234.072 476.327 233.506L476.328 233.427L476.334 233.329L476.344 233.21L476.368 232.996C476.416 232.624 476.501 232.188 476.632 231.691C476.997 230.3 477.65 228.678 478.659 226.838C479.621 225.083 480.84 223.243 482.337 221.322L482.717 220.84C485.226 217.696 488.474 214.338 492.553 210.779L493.187 210.23C493.615 209.863 494.05 209.494 494.495 209.122Z" fill="white"/>
<path fill-rule="evenodd" clip-rule="evenodd" d="M505.2 230.651C505.868 230.877 506.174 231.482 505.883 232.001L505.69 232.33L505.564 232.539L505.366 232.859L505.152 233.197C505.078 233.312 505.001 233.429 504.922 233.549L504.677 233.916C503.715 235.338 502.623 236.761 501.417 238.094L501.143 238.392L500.869 238.684C500.778 238.78 500.686 238.876 500.594 238.97L500.318 239.25L500.041 239.523L499.763 239.79L499.484 240.051C499.438 240.094 499.391 240.136 499.345 240.179L499.064 240.429C495.602 243.479 491.927 244.996 488.066 244.272C487.357 244.139 486.921 243.585 487.092 243.034C487.263 242.483 487.977 242.145 488.686 242.278C491.773 242.856 495.132 241.152 498.44 237.779L498.712 237.498C498.893 237.308 499.074 237.114 499.255 236.914C500.39 235.66 501.425 234.311 502.337 232.962C502.417 232.844 502.494 232.728 502.569 232.615L502.787 232.281L502.989 231.962C503.022 231.911 503.054 231.859 503.085 231.809L503.314 231.432L503.46 231.181C503.752 230.662 504.531 230.425 505.2 230.651Z" fill="white"/>
<path fill-rule="evenodd" clip-rule="evenodd" d="M463.795 199.664C464.234 199.211 465.063 199.121 465.645 199.463C466.228 199.804 466.344 200.447 465.904 200.899C463.822 203.041 461.597 206.39 460.098 209.965C458.195 214.505 457.54 219.104 458.467 223.428C458.587 223.987 458.101 224.516 457.381 224.609C456.662 224.702 455.981 224.324 455.861 223.766C454.857 219.089 455.559 214.164 457.585 209.331C459.174 205.541 461.534 201.989 463.795 199.664Z" fill="white"/>
<path fill-rule="evenodd" clip-rule="evenodd" d="M499.662 236.62C500.267 236.342 501.04 236.482 501.428 236.928L501.487 237.001L501.533 237.054L501.598 237.125L501.734 237.261L501.849 237.369C502.217 237.707 502.678 238.049 503.237 238.369C506.386 240.174 510.96 240.549 517.364 238.484C518.038 238.267 518.811 238.515 519.091 239.038C519.371 239.561 519.052 240.161 518.378 240.379C511.131 242.716 505.576 242.26 501.668 240.02C500.936 239.6 500.326 239.149 499.831 238.694L499.672 238.544L499.533 238.406C499.447 238.318 499.373 238.238 499.312 238.167L499.23 238.068C499.218 238.053 499.207 238.039 499.196 238.025C498.825 237.537 499.033 236.908 499.662 236.62Z" fill="white"/>
<path fill-rule="evenodd" clip-rule="evenodd" d="M488.351 245.166C498.082 245.299 505.564 247.037 511.067 249.87C513.102 250.917 514.723 252.045 515.972 253.18C516.417 253.584 516.784 253.963 517.079 254.306L517.194 254.442L517.333 254.616L517.404 254.711L517.459 254.788C517.799 255.289 517.551 255.909 516.906 256.173C516.284 256.428 515.52 256.259 515.16 255.798L515.076 255.683L514.997 255.583L514.924 255.495L514.881 255.445C514.643 255.167 514.338 254.854 513.963 254.513C512.87 253.519 511.432 252.519 509.607 251.579C504.532 248.967 497.541 247.343 488.305 247.217C487.575 247.207 486.994 246.74 487.007 246.173C487.02 245.607 487.621 245.156 488.351 245.166Z" fill="white"/>
<path fill-rule="evenodd" clip-rule="evenodd" d="M435.676 223.778C441.966 218.895 450.641 219.493 461.291 224.039L461.633 224.187L461.975 224.337L462.491 224.566L463.012 224.801L463.364 224.962L464.079 225.296L464.629 225.558L465.386 225.923L465.973 226.212L466.581 226.514L467.21 226.83L468.088 227.276L469.255 227.877L469.997 228.262L477.275 232.089L478.525 232.739L479.33 233.155L480.115 233.558L480.885 233.95L481.642 234.333L482.391 234.709L483.135 235.079C483.258 235.141 483.382 235.202 483.505 235.263C483.566 235.293 483.623 235.326 483.676 235.363C488.096 238.425 489.988 241.368 489.603 244.154C489.297 246.375 487.601 248.258 485.017 249.829C484.047 250.419 483.015 250.924 481.982 251.348L481.723 251.453L481.481 251.548L481.258 251.632L481.053 251.707L480.869 251.772L480.707 251.827L480.567 251.872C479.89 252.083 479.121 251.828 478.849 251.302C478.587 250.795 478.883 250.222 479.511 249.992L479.715 249.924L479.881 249.866C480.141 249.775 480.432 249.664 480.747 249.534C481.649 249.164 482.552 248.722 483.388 248.214C485.462 246.952 486.758 245.514 486.976 243.936C487.254 241.925 485.803 239.629 482.104 237.024L481.994 236.948L481.338 236.622L480.584 236.246L479.441 235.668L478.664 235.272L477.468 234.658L476.226 234.013L469.301 230.371L467.806 229.593L466.657 229.001L465.794 228.563L464.975 228.151L464.194 227.765L463.63 227.491L463.083 227.228L462.55 226.976L462.029 226.733L461.517 226.499L461.012 226.272L460.513 226.051L460.181 225.907C460.126 225.884 460.071 225.86 460.016 225.836C450.279 221.68 442.782 221.163 437.545 225.228C437.029 225.629 436.192 225.629 435.676 225.228C435.16 224.828 435.16 224.178 435.676 223.778Z" fill="white"/>
<path fill-rule="evenodd" clip-rule="evenodd" d="M447.985 195.845C451.857 195.596 455.939 196.338 459.968 197.72C461.062 198.095 462.079 198.494 463.003 198.896L463.427 199.084L463.757 199.235L464.045 199.37L464.29 199.488L464.49 199.588L464.598 199.643C465.203 199.961 465.362 200.598 464.953 201.068C464.545 201.537 463.724 201.661 463.119 201.343L462.95 201.258L462.716 201.144L462.446 201.017C462.399 200.995 462.35 200.972 462.301 200.95L461.992 200.81C461.065 200.397 460.026 199.983 458.901 199.597C455.239 198.341 451.566 197.673 448.203 197.889C441.846 198.298 437.239 201.817 435.024 209.585C434.866 210.138 434.161 210.487 433.449 210.364C432.736 210.242 432.286 209.694 432.444 209.141C434.896 200.539 440.405 196.333 447.985 195.845Z" fill="white"/>
<path fill-rule="evenodd" clip-rule="evenodd" d="M282.597 61.4447L443.612 33.4072C443.612 33.4072 443.031 80.4076 394.462 88.0051C345.893 95.6025 296.007 102.068 296.007 102.068C296.007 102.068 301.041 96.7377 282.597 61.4447Z" fill="#FE7624"/>
<path fill-rule="evenodd" clip-rule="evenodd" d="M406.842 292.723C412.211 281.423 411.075 250.913 408.644 231.355C400.628 166.992 379.378 144.507 346.867 175.885C346.867 175.885 338.966 194.753 336.737 218.937L333.478 278.773L406.847 292.74" fill="#968BB4"/>
<path fill-rule="evenodd" clip-rule="evenodd" d="M285.156 221.169C285.059 212.809 368.275 213.175 377.357 217.456C386.438 221.737 382.747 242.16 355.182 242.153C327.616 242.146 285.279 231.796 285.156 221.169Z" fill="#2E186A"/>
<path fill-rule="evenodd" clip-rule="evenodd" d="M268.97 189.056C268.97 189.056 269.684 141.392 332.39 132.14C395.096 122.888 422.759 149.52 430.162 182.04L268.97 189.056Z" fill="#FEBA91"/>
<path fill-rule="evenodd" clip-rule="evenodd" d="M285.377 154.387C295.394 151.039 304.696 151.659 312.378 157.616C323.517 166.264 337.492 173.504 352.03 177.021C370.813 181.565 389.235 179.686 406.522 169.911C410.521 167.671 414.298 165.202 417.822 162.525C418.344 162.129 419.18 162.136 419.691 162.541C420.201 162.946 420.192 163.595 419.67 163.991C416.052 166.74 412.174 169.275 408.073 171.572C390.087 181.742 370.796 183.71 351.244 178.98C340.75 176.441 330.583 172.043 321.511 166.592L320.736 166.123C317.132 163.919 313.707 161.55 310.51 159.067C303.682 153.772 295.527 153.228 286.422 156.271C285.752 156.495 284.975 156.255 284.686 155.735C284.398 155.214 284.707 154.611 285.377 154.387Z" fill="white"/>
<path fill-rule="evenodd" clip-rule="evenodd" d="M316.214 136.483C316.347 135.926 317.037 135.559 317.754 135.662C323.664 136.514 328.981 139.044 333.523 143.436L333.837 143.744L334.923 144.825L336.691 146.604L340.428 150.395L347.315 157.412L347.946 158.038L348.558 158.639L348.956 159.025L349.346 159.4L349.728 159.765L350.102 160.119L350.469 160.462L350.83 160.796L351.184 161.12L351.531 161.434L351.873 161.738L352.209 162.033L352.54 162.32L352.865 162.597L353.186 162.866L353.502 163.127L353.813 163.379L354.121 163.624L354.425 163.861L354.726 164.09L355.024 164.312C355.122 164.385 355.221 164.457 355.318 164.527L355.611 164.735L355.901 164.937L356.189 165.132L356.475 165.321L356.76 165.504L357.044 165.682C357.091 165.711 357.139 165.739 357.186 165.768C361.455 168.359 365.524 169.025 371.042 167.924C373.695 167.394 375.935 165.507 377.904 162.261L378.078 161.97L378.249 161.674L378.418 161.373L378.586 161.066L378.751 160.754C378.779 160.702 378.806 160.649 378.833 160.596L378.996 160.274L379.158 159.946L379.319 159.611L379.478 159.268L379.637 158.917C379.663 158.858 379.69 158.799 379.716 158.739L379.874 158.377L380.031 158.005C380.057 157.943 380.084 157.88 380.11 157.816L380.267 157.431L380.425 157.037L380.582 156.633C380.609 156.565 380.635 156.496 380.661 156.427L380.899 155.794L381.139 155.136L381.3 154.684L381.463 154.219L381.71 153.5L381.96 152.752L382.216 151.975L382.389 151.44L382.892 149.852L383.844 146.814L384.074 146.092L384.37 145.177L384.585 144.526L384.863 143.7L385.067 143.113L385.266 142.55L385.462 142.012L385.591 141.666L385.719 141.331L385.91 140.845L386.036 140.532L386.161 140.228L386.286 139.933L386.411 139.646L386.536 139.366L386.662 139.094L386.787 138.828L386.914 138.57L387.04 138.318L387.168 138.071L387.297 137.831L387.427 137.596L387.558 137.365L387.691 137.14L387.826 136.918L387.962 136.701C388.286 136.193 389.079 135.985 389.733 136.237C390.387 136.488 390.654 137.104 390.33 137.611L390.266 137.713L390.139 137.918L390.014 138.129L389.89 138.344L389.766 138.565C389.746 138.603 389.726 138.64 389.705 138.678L389.583 138.908L389.462 139.144L389.341 139.387L389.221 139.637L389.1 139.894L388.98 140.158L388.86 140.43L388.739 140.711L388.618 141L388.496 141.299L388.374 141.606L388.188 142.085L388.063 142.417L387.872 142.934L387.679 143.476L387.481 144.044L387.278 144.638L387.14 145.049L386.857 145.91L386.637 146.591L385.041 151.661L384.774 152.489L384.512 153.285L384.255 154.052L384.002 154.79L383.835 155.267L383.586 155.961L383.422 156.409L383.258 156.846C383.231 156.918 383.203 156.99 383.176 157.061L383.013 157.483L382.85 157.895L382.687 158.297L382.524 158.69L382.36 159.074L382.196 159.45C382.169 159.512 382.141 159.574 382.114 159.635L381.948 159.999L381.782 160.355L381.614 160.705L381.445 161.047L381.274 161.383L381.101 161.714L380.926 162.038L380.749 162.357C380.719 162.41 380.689 162.463 380.659 162.515L380.478 162.827L380.294 163.135C378.024 166.878 375.271 169.197 371.7 169.911C365.385 171.171 360.472 170.367 355.558 167.384L355.253 167.197L354.948 167.003L354.642 166.805C354.54 166.737 354.438 166.669 354.335 166.6L354.027 166.389L353.717 166.172L353.406 165.948L353.092 165.717L352.776 165.48C352.723 165.439 352.67 165.399 352.617 165.358L352.296 165.109L351.972 164.853L351.645 164.589L351.314 164.317C351.258 164.271 351.203 164.224 351.147 164.177L350.809 163.893L350.467 163.599L350.119 163.297L349.767 162.985L349.409 162.664L349.044 162.334L348.674 161.994L348.106 161.464L347.719 161.099L347.124 160.53L346.718 160.137L346.303 159.733L345.881 159.318L344.973 158.413L337.456 150.753L334.209 147.464L332.477 145.724L331.763 145.015L331.656 144.91C327.46 140.776 322.632 138.452 317.272 137.679C316.554 137.576 316.081 137.04 316.214 136.483Z" fill="white"/>
<path fill-rule="evenodd" clip-rule="evenodd" d="M290.555 79.4707C290.555 79.4707 281.029 105.036 301.565 116.678C322.102 128.321 346.844 136.086 370.671 135.423C394.497 134.759 410.418 119.821 410.81 97.5959C398.28 95.4657 290.555 79.4707 290.555 79.4707Z" fill="#FEBA91"/>
<path fill-rule="evenodd" clip-rule="evenodd" d="M309.267 105.091C312.33 104.527 315.433 104.641 318.685 105.37C321.704 106.047 324.81 107.231 328.465 109.014L329.005 109.28L329.631 109.593L330.056 109.809L330.709 110.146L331.157 110.38L331.854 110.747L332.584 111.137L333.353 111.552L334.803 112.344L339.117 114.71L339.794 115.077L340.775 115.604L341.717 116.104L342.327 116.423C342.427 116.475 342.527 116.527 342.626 116.578L343.215 116.882L343.793 117.176L344.36 117.461L344.919 117.738C345.011 117.784 345.103 117.829 345.195 117.874L345.742 118.139C345.833 118.182 345.924 118.226 346.014 118.269L346.553 118.524C346.643 118.566 346.732 118.608 346.821 118.649L347.355 118.896L347.888 119.137L348.42 119.374C348.509 119.413 348.597 119.452 348.686 119.491C361.873 125.254 378.579 129.447 389.451 128.972C390.179 128.94 390.803 129.373 390.844 129.939C390.885 130.504 390.328 130.989 389.599 131.02C378.129 131.521 360.976 127.216 347.39 121.279L346.841 121.037L346.294 120.791L345.746 120.54L345.195 120.284C345.104 120.241 345.011 120.198 344.919 120.154L344.364 119.889C344.271 119.844 344.177 119.799 344.084 119.754L343.52 119.479L342.948 119.195L342.368 118.904L341.778 118.603L341.176 118.293L340.561 117.973L339.933 117.642L338.96 117.124L338.29 116.764L335.44 115.207L332.373 113.523L331.586 113.096L330.605 112.569L329.911 112.202L329.247 111.855L328.608 111.525L328.193 111.314L327.785 111.109L327.382 110.909C323.775 109.131 320.782 107.976 317.952 107.341C315.119 106.706 312.475 106.609 309.877 107.087C304.227 108.127 301.889 110.892 301.737 114.744C301.714 115.31 301.105 115.755 300.376 115.738C299.646 115.72 299.073 115.247 299.095 114.681C299.281 109.975 302.333 106.367 309.267 105.091Z" fill="white"/>
<path fill-rule="evenodd" clip-rule="evenodd" d="M289.135 85.7788C289.461 85.272 290.255 85.0665 290.908 85.3197L291.027 85.3641C291.047 85.3714 291.068 85.3787 291.089 85.3859L291.219 85.4288L291.356 85.4707C291.38 85.4776 291.403 85.4844 291.427 85.4913L291.576 85.5318L291.733 85.5714L291.897 85.6101L292.07 85.648L292.252 85.6852L292.541 85.7395L292.746 85.7748L292.96 85.8094L293.183 85.8435L293.537 85.8934L293.786 85.9259L294.045 85.958L294.454 86.0052L294.888 86.0514L295.507 86.1117L296.003 86.156L296.526 86.1998L297.267 86.2575L298.061 86.3146L298.91 86.3714L299.814 86.4281L301.28 86.5137L308.522 86.9139L311.417 87.0835L313.165 87.1925L314.738 87.2977L316.015 87.39L316.912 87.4596L318.18 87.5666L319.252 87.666L320.036 87.7445L321.071 87.8556L321.863 87.946L322.519 88.0243L323.19 88.107L323.881 88.1947L324.967 88.3363L325.344 88.3865C326.888 88.5923 328.387 88.8176 329.841 89.0637L330.63 89.2C341.868 91.1831 350.33 94.4458 355.809 99.5521L355.998 99.731C367.947 111.11 384.129 121.198 396.965 125.095C397.644 125.302 397.98 125.897 397.714 126.424C397.448 126.952 396.682 127.212 396.002 127.006C382.83 123.006 366.496 112.866 354.318 101.376L353.95 101.027C348.905 96.2247 340.842 93.0999 329.962 91.1865L329.207 91.0565C328.448 90.9284 327.675 90.8059 326.889 90.6891L326.099 90.5741C325.834 90.5363 325.568 90.4992 325.3 90.4627L324.164 90.3115L323.119 90.1765L322.45 90.0929L321.799 90.0139L321.159 89.9391L320.496 89.8647L319.834 89.7939L318.86 89.6962L317.67 89.587L316.981 89.5286L315.67 89.4257L314.409 89.3349L312.854 89.2313L310.716 89.0991L307.779 88.9288L300.823 88.545L300.071 88.5015L298.89 88.4295L298.008 88.3719L297.18 88.3138L296.593 88.2697L295.853 88.2099L295.329 88.164L294.995 88.1329L294.513 88.0853L294.056 88.0364L293.764 88.003L293.482 87.9689L293.21 87.9341L292.947 87.8985L292.57 87.8435L292.33 87.8057L291.985 87.7472L291.766 87.707L291.554 87.6656L291.349 87.6232L291.152 87.5796L290.962 87.5347L290.778 87.4886L290.601 87.4412L290.43 87.3925L290.264 87.3423L290.104 87.2906L289.949 87.2375L289.8 87.1828C289.775 87.1736 289.751 87.1642 289.727 87.1549C289.074 86.9016 288.809 86.2855 289.135 85.7788Z" fill="white"/>
<path fill-rule="evenodd" clip-rule="evenodd" d="M218.094 293C224.22 275.466 248.143 258.363 284.077 248.581C338.917 233.66 400.949 241.445 422.64 265.988C430.127 274.447 431.822 283.792 428.599 293" fill="#FE7624"/>
<path fill-rule="evenodd" clip-rule="evenodd" d="M344.703 241.559C345.109 242.003 344.995 242.612 344.457 242.95L335.909 247.798L332.921 249.48L330.496 250.836L329.106 251.606L328.05 252.185L327.149 252.671L327.016 252.742C326.366 253.089 325.718 253.429 325.073 253.764L324.107 254.262C309.963 261.507 296.896 266.042 282.016 268.015C267.812 269.882 257.254 268.307 249.906 264.033C249.322 263.693 249.203 263.05 249.64 262.597C250.078 262.143 250.906 262.051 251.49 262.391C258.218 266.305 268.045 267.771 281.573 265.993C296.866 263.965 310.24 259.137 325.038 251.307L325.776 250.915L326.801 250.358L328.008 249.695L329.972 248.603L332.337 247.276L342.86 241.317C343.455 240.989 344.28 241.097 344.703 241.559Z" fill="#2E186A"/>
<path fill-rule="evenodd" clip-rule="evenodd" d="M227.425 279.677C228.054 279.39 228.864 279.552 229.234 280.041C232.866 284.83 236.998 288.971 241.645 292.24C242.185 292.62 242.226 293.269 241.736 293.689C241.246 294.109 240.411 294.141 239.87 293.76C235.008 290.339 230.715 286.038 226.957 281.081C226.587 280.593 226.796 279.964 227.425 279.677Z" fill="#2E186A"/>
<path fill-rule="evenodd" clip-rule="evenodd" d="M350.501 261.4C368.527 252.967 388.151 251.28 408.255 254.729C408.968 254.851 409.417 255.399 409.26 255.952C409.103 256.505 408.397 256.855 407.685 256.732C388.201 253.389 369.263 255.017 351.865 263.157C350.336 263.872 348.816 264.599 347.301 265.338L346.324 265.817C346.161 265.897 345.999 265.977 345.837 266.057L344.87 266.537L343.907 267.018L342.949 267.501L341.995 267.986L341.044 268.474L340.094 268.964C339.936 269.046 339.778 269.128 339.62 269.211L338.672 269.707L337.723 270.207L336.773 270.711L335.82 271.221C335.661 271.307 335.502 271.392 335.343 271.478L334.385 271.996L333.423 272.52L332.456 273.051L331.482 273.589L330.501 274.135L329.512 274.689L328.513 275.251L327.505 275.822L326.486 276.402L325.455 276.992L323.884 277.896L322.282 278.825L320.644 279.781L316.53 282.204L308.086 287.187L306.27 288.245L305.276 288.82L304.315 289.371L303.386 289.901L302.782 290.243L301.897 290.74L301.036 291.22L300.196 291.683L299.374 292.132L298.834 292.424L298.3 292.71L297.508 293.13C296.904 293.449 296.083 293.327 295.672 292.859C295.262 292.39 295.419 291.752 296.023 291.434L296.542 291.158L297.331 290.736L297.864 290.448L298.677 290.004L299.508 289.546L300.36 289.071L301.236 288.579L302.138 288.067L303.386 287.353L304.361 286.791L305.716 286.004L306.714 285.421L317.938 278.796L319.609 277.818L320.702 277.181L321.78 276.555L322.844 275.94L323.894 275.337L324.931 274.743L325.956 274.159L326.971 273.585L327.975 273.019L328.971 272.462L329.958 271.913L330.938 271.372L331.912 270.837L332.881 270.309C333.042 270.222 333.203 270.135 333.364 270.048L334.326 269.529L335.285 269.016L336.242 268.507L337.198 268.004C337.357 267.92 337.516 267.837 337.676 267.754L338.631 267.256L339.588 266.762L340.547 266.27L341.508 265.782L342.474 265.295L343.444 264.81L344.419 264.326L345.401 263.843C345.566 263.762 345.73 263.682 345.895 263.601C347.423 262.856 348.957 262.122 350.501 261.4Z" fill="#2E186A"/>
<path fill-rule="evenodd" clip-rule="evenodd" d="M354.045 279.737C355.109 274.522 362.228 271.784 376.021 271.924C387.48 272.039 397.652 273.054 409.968 275.052L411.295 275.27C411.518 275.307 411.742 275.344 411.966 275.382L413.32 275.611L414.693 275.847L419.086 276.63L426.798 278.011C426.824 278.016 426.85 278.021 426.875 278.025C427.587 278.149 428.035 278.698 427.875 279.251C427.715 279.803 427.008 280.151 426.296 280.027L414.805 277.97C414.345 277.889 413.89 277.81 413.437 277.732L412.089 277.502C411.197 277.35 410.316 277.204 409.447 277.063L408.151 276.856L406.871 276.655C395.839 274.95 386.452 274.081 375.987 273.976C363.344 273.847 357.46 276.11 356.655 280.058C356.142 282.575 357.598 285.812 360.49 289.41L360.784 289.771C360.884 289.892 360.985 290.013 361.088 290.135L361.4 290.5C361.453 290.562 361.507 290.623 361.56 290.684L361.887 291.053C361.997 291.176 362.109 291.3 362.222 291.424L362.567 291.797C362.683 291.921 362.801 292.046 362.92 292.171C363.354 292.627 363.23 293.269 362.644 293.606C362.057 293.943 361.229 293.847 360.796 293.391L360.614 293.2L360.257 292.818L359.909 292.438C359.795 292.312 359.681 292.186 359.569 292.06L359.238 291.683C359.184 291.621 359.13 291.558 359.076 291.495L358.758 291.122C355.206 286.894 353.377 283.016 354.045 279.737Z" fill="#2E186A"/>
<path fill-rule="evenodd" clip-rule="evenodd" d="M426.557 95.5222L426.858 95.4883L427.142 95.4515L427.476 95.4042L427.858 95.3461L428.138 95.3011L428.439 95.2508C429.889 95.004 431.492 94.6612 433.207 94.2068C433.897 94.0238 434.266 93.4408 434.03 92.9047C433.794 92.3685 433.044 92.0823 432.353 92.2653C430.851 92.6632 429.444 92.9695 428.166 93.1961L427.873 93.247C427.738 93.2699 427.608 93.2914 427.483 93.3115L427.12 93.3678L426.785 93.4162L426.553 93.4474L426.245 93.4848C426.235 93.4859 426.226 93.4869 426.218 93.4877C425.494 93.5604 424.984 94.0749 425.077 94.6367C425.171 95.1985 425.834 95.595 426.557 95.5222ZM439.464 92.162C441.469 91.3757 443.419 90.4754 445.296 89.4534C445.893 89.128 446.037 88.4883 445.618 88.0246C445.199 87.5608 444.375 87.4487 443.778 87.774C442.008 88.738 440.166 89.588 438.272 90.3309C437.621 90.5863 437.36 91.2033 437.689 91.709C438.018 92.2146 438.813 92.4174 439.464 92.162ZM450.553 86.1025C452.181 84.8908 453.696 83.5758 455.087 82.1534C455.528 81.7022 455.414 81.0587 454.833 80.7162C454.252 80.3737 453.423 80.4619 452.982 80.9131C451.676 82.2487 450.253 83.4834 448.724 84.6215C448.197 85.0135 448.18 85.6628 448.685 86.0718C449.19 86.4808 450.026 86.4945 450.553 86.1025ZM458.775 77.6992C459.828 76.1825 460.757 74.5784 461.555 72.8848C461.805 72.3527 461.453 71.7637 460.768 71.5691C460.082 71.3746 459.324 71.6482 459.073 72.1802C458.319 73.7814 457.442 75.2956 456.449 76.7255C456.103 77.2241 456.342 77.8463 456.985 78.1152C457.627 78.3841 458.428 78.1978 458.775 77.6992ZM463.457 67.8486C463.939 66.1931 464.312 64.4697 464.571 62.6772C464.652 62.1142 464.13 61.6066 463.405 61.5435C462.68 61.4804 462.026 61.8857 461.944 62.4487C461.697 64.1664 461.34 65.8149 460.879 67.3957C460.718 67.9483 461.165 68.4976 461.876 68.6226C462.588 68.7477 463.296 68.4011 463.457 67.8486ZM464.995 57.4629C465.032 55.7784 464.979 54.0421 464.834 52.2532C464.789 51.6878 464.161 51.2583 463.433 51.2939C462.704 51.3294 462.151 51.8166 462.197 52.382C462.338 54.1168 462.389 55.7984 462.353 57.4277C462.34 57.9941 462.922 58.4611 463.651 58.4709C464.381 58.4806 464.982 58.0293 464.995 57.4629ZM464.181 47.0771C463.899 45.4104 463.543 43.7034 463.113 41.9555C462.976 41.399 462.284 41.0341 461.567 41.1403C460.851 41.2466 460.381 41.7838 460.518 42.3403C460.938 44.0496 461.285 45.7176 461.561 47.3446C461.656 47.9063 462.32 48.3017 463.043 48.2278C463.767 48.154 464.276 47.6388 464.181 47.0771Z" fill="#2E186A"/>
<path fill-rule="evenodd" clip-rule="evenodd" d="M422.497 114.112L422.825 114.075L423.156 114.034L423.515 113.986L423.903 113.931L424.321 113.868C425.75 113.65 427.364 113.353 429.13 112.967C429.832 112.813 430.241 112.246 430.043 111.701C429.846 111.156 429.116 110.838 428.413 110.992C426.717 111.363 425.172 111.647 423.81 111.855L423.418 111.914C423.356 111.923 423.294 111.932 423.233 111.941L422.885 111.989L422.493 112.039L422.157 112.078C421.434 112.151 420.923 112.665 421.017 113.227C421.111 113.789 421.773 114.185 422.497 114.112ZM435.513 111.324C437.569 110.716 439.63 110.028 441.683 109.257C442.34 109.01 442.615 108.397 442.297 107.887C441.979 107.377 441.189 107.164 440.532 107.41C438.549 108.155 436.558 108.82 434.572 109.407C433.89 109.609 433.548 110.202 433.808 110.731C434.068 111.26 434.831 111.526 435.513 111.324ZM447.595 106.781C449.511 105.891 451.383 104.932 453.203 103.9C453.792 103.565 453.921 102.924 453.491 102.466C453.06 102.009 452.234 101.909 451.645 102.243C449.891 103.237 448.086 104.163 446.239 105.021C445.612 105.312 445.408 105.941 445.783 106.428C446.158 106.914 446.969 107.072 447.595 106.781ZM458.45 100.618C460.122 99.4651 461.727 98.2467 463.261 96.9609C463.757 96.5453 463.725 95.8963 463.189 95.5113C462.654 95.1264 461.818 95.1513 461.322 95.5669C459.847 96.8033 458.303 97.975 456.695 99.0836C456.149 99.4598 456.1 100.108 456.584 100.532C457.069 100.955 457.904 100.994 458.45 100.618ZM467.594 92.9482C468.939 91.5701 470.207 90.1311 471.395 88.6299C471.777 88.1472 471.583 87.5155 470.961 87.219C470.339 86.9224 469.526 87.0733 469.144 87.556C468.001 89.0001 466.781 90.3841 465.488 91.7092C465.047 92.1608 465.162 92.8042 465.743 93.1463C466.325 93.4884 467.154 93.3997 467.594 92.9482ZM474.638 84.0599C475.613 82.5194 476.51 80.9249 477.327 79.2753C477.589 78.7465 477.25 78.153 476.568 77.9497C475.887 77.7463 475.123 78.0101 474.861 78.5388C474.072 80.1313 473.206 81.6697 472.266 83.1551C471.944 83.6636 472.214 84.2783 472.869 84.5281C473.524 84.778 474.316 84.5683 474.638 84.0599ZM479.471 74.3336C480.086 72.696 480.629 71.0118 481.097 69.2804C481.247 68.726 480.789 68.1822 480.075 68.0659C479.361 67.9495 478.66 68.3046 478.511 68.8591C478.056 70.5392 477.531 72.1724 476.935 73.7593C476.73 74.3032 477.133 74.8726 477.833 75.0312C478.534 75.1898 479.267 74.8774 479.471 74.3336ZM482.24 64.1472C482.538 62.4647 482.772 60.7428 482.938 58.9811C482.992 58.4161 482.445 57.9244 481.718 57.8829C480.99 57.8413 480.357 58.2657 480.303 58.8307C480.14 60.5494 479.913 62.2282 479.622 63.8675C479.523 64.4288 480.028 64.9463 480.751 65.0236C481.474 65.1008 482.141 64.7084 482.24 64.1472ZM483.235 53.7901C483.27 52.0964 483.248 50.3695 483.168 48.6089C483.142 48.0427 482.53 47.6 481.801 47.62C481.071 47.64 480.501 48.1152 480.527 48.6813C480.606 50.407 480.627 52.0987 480.593 53.757C480.581 54.3234 481.163 54.79 481.892 54.7992C482.622 54.8083 483.223 54.3565 483.235 53.7901ZM482.776 43.4487C482.598 41.7624 482.37 40.0478 482.091 38.3045C482.001 37.7423 481.341 37.3432 480.617 37.4131C479.892 37.4829 479.378 37.9953 479.468 38.5575C479.743 40.2725 479.967 41.9586 480.142 43.6162C480.202 44.1808 480.839 44.601 481.567 44.5548C482.294 44.5086 482.835 44.0134 482.776 43.4487ZM481.143 33.1936C480.831 31.7051 480.483 30.1971 480.1 28.6696C479.96 28.1135 479.267 27.7505 478.55 27.8588C477.834 27.9672 477.367 28.5057 477.506 29.0618C477.884 30.5687 478.227 32.056 478.535 33.5236C478.653 34.0828 479.332 34.4622 480.052 34.371C480.772 34.2799 481.261 33.7528 481.143 33.1936Z" fill="#2E186A"/>
<ellipse cx="359.586" cy="33.7799" rx="15.8417" ry="12.2989" fill="#FEBA91"/>
<path fill-rule="evenodd" clip-rule="evenodd" d="M353.173 48.185C349.346 60.9489 330.527 66.7137 320.107 56.7809C306.305 43.6272 325.542 35.2194 330.514 32.0053C338.213 27.0236 357.701 34.2244 360.546 27.9228C364.8 18.5029 354.578 17.207 337.301 14.0545C324.384 11.6953 310.876 16.66 305.71 24.8524C307.247 16.424 310.731 1.88216 300.218 1.06497C288.521 0.158876 287.301 8.86417 287.301 8.86417C287.301 8.86417 285.918 14.1092 285.504 16.0787C278.457 9.94464 268.416 12.9091 267.138 20.6809C265.231 32.3062 263.448 40.9089 262.977 40.5123C262.977 40.5123 265.844 27.3552 256.163 26.3739C246.483 25.3926 245.364 35.534 245.364 35.534L242.814 67.7394C242.814 67.7394 226.774 80.8726 217.116 89.6565C214.857 94.1699 212.809 104.404 229.994 116.798C230.232 116.962 231.857 118.101 232.465 118.508C251.715 131.272 264.456 127.216 270.006 124.02C271.071 123.219 272.115 122.423 273.194 121.712L319.68 90.8875C372.605 89.3933 372.186 58.4426 374.322 48.3457C376.458 38.2488 357.001 35.4211 353.173 48.185Z" fill="#5D21D1"/>
<path fill-rule="evenodd" clip-rule="evenodd" d="M283.955 17.0081C284.079 16.4499 284.763 16.0757 285.482 16.1724C286.176 16.2656 286.649 16.7625 286.57 17.2984L286.559 17.3581L279.917 47.1394C279.793 47.6976 279.109 48.0717 278.39 47.9751C277.697 47.8819 277.224 47.3849 277.302 46.8491L277.314 46.7894L283.955 17.0081Z" fill="white"/>
<path fill-rule="evenodd" clip-rule="evenodd" d="M304.739 22.3595C305.182 21.9093 306.011 21.823 306.591 22.1668C307.149 22.4974 307.273 23.1053 306.888 23.5518L306.839 23.6046L290.535 40.1809C290.092 40.6311 289.263 40.7174 288.683 40.3736C288.125 40.043 288.001 39.4351 288.386 38.9886L288.435 38.9358L304.739 22.3595Z" fill="white"/>
<path fill-rule="evenodd" clip-rule="evenodd" d="M262.59 31.4332C262.695 30.8726 263.366 30.4845 264.088 30.5664C264.784 30.6453 265.274 31.1324 265.213 31.6697L265.204 31.7296L260.109 58.8267C260.003 59.3873 259.333 59.7754 258.611 59.6936C257.914 59.6146 257.425 59.1276 257.485 58.5903L257.494 58.5304L262.59 31.4332Z" fill="white"/>
<path fill-rule="evenodd" clip-rule="evenodd" d="M681.705 291.752C682.435 291.752 683.026 292.211 683.026 292.778C683.026 293.324 682.476 293.771 681.782 293.802L681.705 293.803H1.99995C1.27025 293.803 0.678711 293.344 0.678711 292.778C0.678711 292.231 1.22875 291.785 1.92232 291.754L1.99995 291.752H681.705Z" fill="#2E186A"/>
</svg>
