
<svg width="298" height="165" viewBox="0 0 298 165" fill="none" xmlns="http://www.w3.org/2000/svg">
<path fill-rule="evenodd" clip-rule="evenodd" d="M112.859 104.265C106.107 107.764 91.8916 116.928 85.4597 117.708C69.1337 119.507 54.0634 112.398 46.0078 109.352C42.84 108.146 39.259 108.972 36.9361 111.444C35.3909 113.11 33.7824 115.53 32.5977 119.046C28.8191 131.83 34.6336 132.122 34.6336 132.122C40.868 134.442 65.2113 143.495 66.7891 144.989C68.3228 146.446 72.0324 151.282 72.5577 155.484C72.5845 155.699 72.5922 155.916 72.5998 156.131C73.0043 167.526 85.1588 165.506 82.4211 152.981C81.3801 146.406 79.6471 143.641 81.5393 138.037C84.9747 137.653 89.7521 137.196 92.1734 137.246C96.044 137.324 100.143 135.55 99.075 132.687C101.095 132.491 103.125 132.411 105.154 132.447C112.347 132.186 112.535 126.494 108.505 125.877C110.98 125.539 112.999 125.192 113.908 124.6C115.303 123.692 118.67 120.727 115.967 117.548C115.278 116.738 113.283 116.69 110.687 117.068C114.653 114.38 117.903 112.01 119.601 110.514C122.488 107.97 121.777 99.641 112.859 104.265Z" fill="#6A6AF4"/>
<path fill-rule="evenodd" clip-rule="evenodd" d="M106.716 125.99L106.937 125.991L107.147 125.993L107.348 125.996L107.629 126.004L107.803 126.011L107.966 126.018L108.12 126.027C108.144 126.029 108.168 126.031 108.192 126.032C108.509 126.055 108.747 126.331 108.724 126.649C108.701 126.966 108.426 127.205 108.109 127.182L107.99 127.174L107.797 127.163L107.659 127.158L107.437 127.151L107.198 127.146L106.943 127.143L106.671 127.142L106.481 127.142L106.079 127.145L105.759 127.149L105.308 127.158L104.829 127.17L104.192 127.189L103.791 127.203L103.089 127.23L102.347 127.262L101.725 127.29L100.914 127.33L99.8911 127.384L98.9989 127.434L97.8817 127.499L96.7152 127.57L95.5011 127.647L94.2408 127.729L93.8108 127.758C93.4938 127.779 93.2197 127.539 93.1985 127.222C93.1772 126.904 93.4169 126.63 93.7338 126.608L95.4018 126.498L96.8172 126.409L98.494 126.308L99.6047 126.246L100.808 126.182L101.524 126.146L102.345 126.108L103.249 126.07L103.977 126.044L104.437 126.029L104.985 126.013L105.401 126.004L105.891 125.995L106.26 125.991L106.523 125.99L106.716 125.99Z" fill="white"/>
<path fill-rule="evenodd" clip-rule="evenodd" d="M98.8293 132.689C99.1458 132.662 99.4247 132.896 99.4523 133.213C99.48 133.53 99.2459 133.809 98.9295 133.837C98.7298 133.855 98.5292 133.873 98.3282 133.892L97.842 133.939L97.2311 134.001L96.6252 134.066L96.1468 134.12L95.6762 134.175L95.1023 134.246L94.6569 134.303L94.121 134.374L93.7112 134.431L93.2263 134.502L92.9514 134.545L92.6895 134.586L92.3623 134.64L92.1344 134.68L91.8556 134.732L91.6663 134.769L91.5501 134.793L91.3914 134.828L91.3146 134.846L91.1886 134.873L91.08 134.894L90.9169 134.924L90.6331 134.97L90.3035 135.019L89.8621 135.08L89.4364 135.136L88.7177 135.224L88.0943 135.297L87.3148 135.384L86.3553 135.488L85.3115 135.597L83.7944 135.75L82.7068 135.857C82.6603 135.861 82.6136 135.866 82.5667 135.87C82.2506 135.901 81.9694 135.669 81.9388 135.352C81.9081 135.036 82.1395 134.754 82.4557 134.723L84.4238 134.529L85.8496 134.382L86.8258 134.278L87.4297 134.212L88.4352 134.097L89.1553 134.01L89.7142 133.938L90.0234 133.896L90.3523 133.848L90.6343 133.804L90.7955 133.776L90.9021 133.756L90.9963 133.737L91.078 133.719L91.2383 133.682L91.4175 133.644L91.5469 133.618L91.7555 133.578L91.9805 133.538L92.2212 133.496L92.4766 133.454L92.7459 133.411L93.125 133.353L93.6284 133.28L94.1608 133.206L94.6049 133.147L95.0629 133.089L95.6519 133.018L96.3776 132.934L96.8696 132.88L97.2375 132.842C97.7672 132.787 98.3016 132.735 98.8293 132.689Z" fill="white"/>
<path fill-rule="evenodd" clip-rule="evenodd" d="M108.36 117.17C108.625 116.994 108.982 117.067 109.157 117.332C109.333 117.597 109.26 117.955 108.995 118.131C107.436 119.166 105.821 120.216 104.188 121.257L103.37 121.777L102.55 122.294C99.406 124.272 96.2413 126.187 93.3176 127.873L92.9961 128.066L91.0471 129.22L90.7472 129.399L90.4588 129.573L90.0451 129.824C90.0003 129.851 89.9558 129.878 89.9117 129.905L89.5232 130.146L89.2725 130.303L89.0273 130.459L88.7863 130.614L88.5485 130.768C88.5091 130.794 88.4698 130.82 88.4305 130.846L88.1732 131.017L87.9207 131.187L87.6731 131.357C87.6323 131.385 87.5916 131.413 87.5512 131.442L87.3109 131.611L87.0756 131.779C86.998 131.835 86.9212 131.892 86.8452 131.947L86.6198 132.115L86.3993 132.282C86.2903 132.366 86.1831 132.449 86.0779 132.533L85.8699 132.699C85.4246 133.059 85.0146 133.417 84.6407 133.773L84.4707 133.937C83.2986 135.086 82.5037 136.221 82.1104 137.375C82.0077 137.676 81.6807 137.836 81.3802 137.733C81.0796 137.631 80.9192 137.303 81.0219 137.002C81.5069 135.58 82.4733 134.233 83.8914 132.893L84.0748 132.722C84.1988 132.608 84.326 132.494 84.4565 132.38L84.6546 132.209C85.0222 131.896 85.4143 131.582 85.8305 131.267L86.0599 131.095C86.0986 131.066 86.1374 131.038 86.1764 131.009L86.4129 130.837C86.612 130.693 86.8161 130.549 87.025 130.405L87.2781 130.231C87.3206 130.202 87.3634 130.174 87.4064 130.145L87.6665 129.97L87.7983 129.883C87.8785 129.83 87.959 129.778 88.0399 129.725L88.284 129.567L88.5317 129.409L88.7842 129.25L89.0424 129.089L89.3076 128.925L89.5809 128.758L89.8632 128.587L90.3064 128.321L92.4382 127.058L92.7319 126.882C95.2692 125.418 97.9859 123.784 100.712 122.086L101.53 121.575C101.802 121.404 102.075 121.233 102.347 121.061L103.163 120.544C103.435 120.372 103.706 120.199 103.977 120.026L104.786 119.506L105.592 118.986C106.127 118.639 106.658 118.292 107.185 117.946L107.97 117.428C108.101 117.342 108.23 117.256 108.36 117.17Z" fill="white"/>
<path fill-rule="evenodd" clip-rule="evenodd" d="M226.961 123.065C220.753 118.921 217.922 116.502 215.673 118.051C212.826 114.756 204.537 110.105 202.681 112.551C201.611 111.625 200.43 110.837 199.165 110.203C195.597 103.616 189.363 95.4005 187.605 92.1897C185.243 87.8823 179.294 90.4882 180.128 96.2897C180.678 100.105 185.948 110.395 189.491 116.993C188.916 120.991 189.999 123.801 190.998 125.443C190.65 125.826 190.33 126.234 190.039 126.662C188.423 129.021 186.78 135.561 186.849 137.712C186.915 139.513 189.37 145.866 194.108 149.811L194.127 163.845H228.608V155.551C228.608 155.551 236.907 129.51 226.961 123.065Z" fill="#6A6AF4"/>
<path fill-rule="evenodd" clip-rule="evenodd" d="M200.67 137.061C200.74 136.751 201.048 136.556 201.358 136.626C207.983 138.122 211.81 140.949 213.371 144.712C213.493 145.006 213.354 145.343 213.06 145.465C212.767 145.587 212.43 145.448 212.308 145.154C210.903 141.765 207.388 139.169 201.105 137.75C200.795 137.68 200.601 137.372 200.67 137.061Z" fill="white"/>
<path fill-rule="evenodd" clip-rule="evenodd" d="M215.38 116.891C215.597 116.658 215.961 116.645 216.193 116.861C216.426 117.078 216.439 117.443 216.223 117.676C215.421 118.539 214.688 119.381 214.021 120.199L213.788 120.487C213.712 120.583 213.636 120.678 213.561 120.773L213.339 121.058C212.718 121.86 212.161 122.64 211.666 123.396L211.494 123.662C211.324 123.927 211.162 124.188 211.007 124.447L210.855 124.705C210.33 125.605 209.896 126.467 209.545 127.292C209.136 128.255 208.875 129.092 208.731 129.797C208.688 130.011 208.658 130.197 208.64 130.356L208.631 130.444L208.623 130.553L208.622 130.586C208.622 130.904 208.364 131.162 208.047 131.162C207.729 131.162 207.472 130.904 207.472 130.586L207.472 130.541L207.475 130.486L207.479 130.42L207.49 130.299C207.511 130.09 207.548 129.846 207.604 129.566C207.764 128.785 208.048 127.874 208.487 126.841C208.906 125.855 209.436 124.822 210.088 123.743L210.254 123.472C211.346 121.706 212.76 119.82 214.535 117.821L214.811 117.513C214.997 117.307 215.187 117.099 215.38 116.891Z" fill="white"/>
<path fill-rule="evenodd" clip-rule="evenodd" d="M220.04 128.982C220.331 129.109 220.464 129.449 220.337 129.741L220.254 129.926L220.199 130.042L220.112 130.223L220.019 130.412C219.987 130.477 219.954 130.543 219.919 130.61L219.813 130.816C219.394 131.615 218.918 132.414 218.393 133.162L218.274 133.33L218.155 133.494C218.115 133.548 218.075 133.602 218.035 133.655L217.915 133.812L217.795 133.965L217.674 134.115L217.552 134.262C217.532 134.286 217.512 134.31 217.491 134.333L217.369 134.474C215.862 136.187 214.263 137.039 212.582 136.632C212.273 136.558 212.083 136.246 212.158 135.937C212.232 135.628 212.543 135.438 212.852 135.512C214.195 135.837 215.658 134.88 217.098 132.986L217.216 132.828C217.295 132.721 217.374 132.612 217.452 132.5C217.946 131.796 218.397 131.038 218.794 130.28C218.829 130.214 218.862 130.149 218.895 130.085L218.99 129.898L219.078 129.719C219.092 129.69 219.106 129.661 219.119 129.633L219.219 129.421L219.283 129.28C219.41 128.988 219.749 128.855 220.04 128.982Z" fill="white"/>
<path fill-rule="evenodd" clip-rule="evenodd" d="M202.017 111.578C202.208 111.324 202.569 111.274 202.822 111.465C203.076 111.657 203.126 112.018 202.935 112.272C202.029 113.475 201.06 115.356 200.407 117.364C199.579 119.914 199.294 122.497 199.698 124.926C199.75 125.239 199.538 125.536 199.225 125.589C198.912 125.641 198.615 125.429 198.563 125.115C198.126 122.488 198.432 119.722 199.314 117.008C200.005 114.879 201.033 112.885 202.017 111.578Z" fill="white"/>
<path fill-rule="evenodd" clip-rule="evenodd" d="M217.629 132.335C217.893 132.179 218.229 132.257 218.398 132.508L218.424 132.549L218.444 132.579L218.472 132.618L218.531 132.695L218.581 132.756C218.741 132.945 218.942 133.137 219.186 133.317C220.556 134.331 222.547 134.542 225.335 133.382C225.628 133.26 225.965 133.399 226.087 133.693C226.209 133.987 226.07 134.324 225.776 134.446C222.622 135.758 220.204 135.502 218.502 134.244C218.184 134.009 217.919 133.755 217.703 133.499L217.634 133.415L217.573 133.338C217.536 133.288 217.504 133.243 217.477 133.204L217.441 133.148C217.436 133.14 217.431 133.131 217.427 133.124C217.265 132.85 217.356 132.496 217.629 132.335Z" fill="white"/>
<path fill-rule="evenodd" clip-rule="evenodd" d="M212.706 137.134C216.942 137.209 220.199 138.186 222.594 139.776C223.48 140.365 224.186 140.998 224.729 141.636C224.923 141.863 225.083 142.075 225.211 142.268L225.261 142.345L225.322 142.442L225.353 142.495L225.376 142.539C225.524 142.82 225.417 143.168 225.136 143.317C224.865 143.46 224.532 143.365 224.376 143.106L224.339 143.042L224.305 142.985L224.273 142.936L224.254 142.908C224.151 142.752 224.018 142.576 223.855 142.384C223.379 141.826 222.753 141.264 221.959 140.737C219.75 139.27 216.706 138.357 212.686 138.286C212.368 138.281 212.115 138.018 212.121 137.7C212.126 137.382 212.388 137.129 212.706 137.134Z" fill="white"/>
<path fill-rule="evenodd" clip-rule="evenodd" d="M189.777 125.122C192.514 122.379 196.291 122.715 200.927 125.269L201.076 125.352L201.225 125.436L201.449 125.564L201.676 125.696L201.829 125.787L202.14 125.974L202.38 126.121L202.709 126.327L202.965 126.489L203.229 126.658L203.503 126.836L203.885 127.087L204.393 127.424L204.716 127.64L207.884 129.789L208.429 130.155L208.779 130.388L209.121 130.615L209.456 130.835L209.785 131.05L210.111 131.261L210.435 131.469C210.489 131.504 210.543 131.538 210.596 131.572C210.623 131.589 210.648 131.608 210.671 131.628C212.595 133.348 213.418 135.001 213.251 136.566C213.117 137.813 212.379 138.871 211.254 139.753C210.832 140.084 210.383 140.368 209.933 140.606L209.821 140.665L209.715 140.718L209.618 140.766L209.529 140.808L209.449 140.844L209.378 140.875L209.318 140.9C209.023 141.019 208.688 140.876 208.569 140.581C208.455 140.296 208.584 139.974 208.858 139.845L208.947 139.807L209.019 139.774C209.132 139.723 209.259 139.66 209.396 139.588C209.788 139.38 210.181 139.132 210.545 138.846C211.448 138.138 212.012 137.329 212.107 136.443C212.228 135.314 211.597 134.025 209.986 132.561L209.938 132.518L209.653 132.336L209.325 132.124L208.827 131.8L208.489 131.578L207.969 131.232L207.428 130.87L204.413 128.825L203.763 128.388L203.263 128.055L202.887 127.809L202.53 127.578L202.19 127.361L201.945 127.207L201.707 127.059L201.475 126.918L201.248 126.781L201.025 126.65L200.805 126.522L200.588 126.399L200.444 126.318C200.42 126.304 200.396 126.291 200.372 126.278C196.133 123.943 192.87 123.653 190.59 125.936C190.365 126.161 190.001 126.161 189.777 125.936C189.552 125.711 189.552 125.347 189.777 125.122Z" fill="white"/>
<path fill-rule="evenodd" clip-rule="evenodd" d="M195.135 109.434C196.82 109.294 198.597 109.711 200.351 110.487C200.827 110.698 201.27 110.922 201.672 111.147L201.856 111.253L202 111.337L202.126 111.413L202.232 111.48L202.319 111.536L202.366 111.567C202.63 111.745 202.699 112.103 202.521 112.367C202.343 112.631 201.986 112.7 201.722 112.522L201.649 112.474L201.547 112.41L201.43 112.338C201.409 112.326 201.388 112.313 201.366 112.301L201.232 112.222C200.829 111.99 200.376 111.758 199.886 111.541C198.293 110.836 196.694 110.46 195.23 110.582C192.463 110.812 190.457 112.788 189.493 117.15C189.424 117.461 189.117 117.657 188.807 117.588C188.497 117.52 188.301 117.212 188.37 116.901C189.437 112.07 191.835 109.707 195.135 109.434Z" fill="white"/>
<path fill-rule="evenodd" clip-rule="evenodd" d="M123.142 33.9487L193.231 18.2017C193.231 18.2017 192.978 44.5991 171.837 48.8662C150.695 53.1333 128.98 56.7647 128.98 56.7647C128.98 56.7647 131.171 53.7708 123.142 33.9487Z" fill="#000091"/>
<path fill-rule="evenodd" clip-rule="evenodd" d="M177.226 163.845C179.562 157.498 179.068 140.362 178.01 129.378C174.521 93.2286 165.271 80.6003 151.119 98.2235C151.119 98.2235 147.679 108.82 146.709 122.403L145.291 156.01L177.227 163.854" fill="#F95C5E"/>
<path fill-rule="evenodd" clip-rule="evenodd" d="M124.256 123.657C124.214 118.962 160.438 119.167 164.391 121.571C168.344 123.976 166.737 135.446 154.738 135.442C142.739 135.438 124.31 129.625 124.256 123.657Z" fill="#6A6AF4"/>
<path fill-rule="evenodd" clip-rule="evenodd" d="M117.211 105.621C117.211 105.621 117.521 78.8512 144.817 73.6546C172.113 68.4581 184.154 83.4159 187.377 101.681L117.211 105.621Z" fill="#F95C5E"/>
<path fill-rule="evenodd" clip-rule="evenodd" d="M124.353 86.1495C128.713 84.269 132.762 84.6173 136.106 87.9631C140.955 92.8204 147.038 96.8862 153.366 98.8617C161.542 101.414 169.561 100.358 177.086 94.8685C178.827 93.6105 180.471 92.2239 182.005 90.7202C182.232 90.4977 182.596 90.5017 182.818 90.7291C183.041 90.9565 183.037 91.3213 182.81 91.5438C181.235 93.0876 179.546 94.5113 177.762 95.8014C169.932 101.513 161.535 102.618 153.024 99.9617C148.456 98.5358 144.031 96.066 140.081 93.0046L139.744 92.7407C138.175 91.5028 136.685 90.1723 135.293 88.7781C132.32 85.8038 128.771 85.4985 124.807 87.2078C124.516 87.3336 124.177 87.1987 124.052 86.9065C123.926 86.6142 124.061 86.2753 124.353 86.1495Z" fill="white"/>
<path fill-rule="evenodd" clip-rule="evenodd" d="M137.776 76.0941C137.834 75.7812 138.134 75.5747 138.446 75.6328C141.019 76.1114 143.333 77.532 145.31 79.9991L145.447 80.1719L145.92 80.7793L146.689 81.7781L148.316 83.9073L151.314 87.8484L151.589 88.2002L151.855 88.5374L152.028 88.7544L152.198 88.9652L152.364 89.1699L152.527 89.3687L152.687 89.5617L152.844 89.7491L152.998 89.9308L153.149 90.1072L153.298 90.2783L153.444 90.4441L153.588 90.6049L153.73 90.7608L153.869 90.9118L154.007 91.0582L154.142 91.2L154.276 91.3373L154.409 91.4703L154.54 91.5992L154.669 91.7239C154.712 91.7648 154.755 91.805 154.797 91.8447L154.925 91.9616L155.051 92.0748L155.176 92.1845L155.301 92.2906L155.425 92.3935L155.549 92.4931C155.569 92.5094 155.59 92.5256 155.61 92.5417C157.469 93.9969 159.24 94.371 161.642 93.7524C162.797 93.4548 163.772 92.3949 164.629 90.5719L164.704 90.4084L164.779 90.2422L164.853 90.0732L164.926 89.9011L164.998 89.7257C165.01 89.6962 165.021 89.6665 165.033 89.6367L165.104 89.4561L165.175 89.2717L165.245 89.0834L165.314 88.8909L165.383 88.6941C165.395 88.6609 165.406 88.6275 165.418 88.594L165.486 88.3903L165.555 88.1818C165.566 88.1466 165.578 88.1112 165.589 88.0756L165.658 87.8595L165.726 87.638L165.795 87.4111C165.806 87.3728 165.818 87.3342 165.829 87.2955L165.933 86.9398L166.037 86.5704L166.107 86.3162L166.178 86.0554L166.285 85.6514L166.395 85.2315L166.506 84.795L166.581 84.4944L166.8 83.6023L167.215 81.8961L167.315 81.4908L167.443 80.9771L167.537 80.6111L167.658 80.1475L167.747 79.8174L167.834 79.5016L167.919 79.1993L167.975 79.0051L168.031 78.8165L168.114 78.5436L168.169 78.368L168.223 78.1974L168.278 78.0315L168.332 77.8701L168.387 77.713L168.441 77.5601L168.496 77.4111L168.551 77.2659L168.606 77.1243L168.662 76.986L168.718 76.8509L168.774 76.7187L168.831 76.5894L168.889 76.4627L168.948 76.3384L169.007 76.2162C169.148 75.9311 169.493 75.8145 169.778 75.9557C170.062 76.0969 170.179 76.4426 170.038 76.7277L170.01 76.7845L169.955 76.9L169.9 77.0182L169.846 77.1393L169.793 77.2635C169.784 77.2845 169.775 77.3056 169.766 77.3268L169.713 77.4559L169.66 77.5885L169.607 77.7249L169.555 77.8651L169.503 78.0094L169.45 78.158L169.398 78.311L169.345 78.4686L169.293 78.6311L169.24 78.7985L169.186 78.9712L169.105 79.2402L169.051 79.4266L168.968 79.7172L168.884 80.0215L168.798 80.3402L168.709 80.6739L168.649 80.9049L168.526 81.3886L168.43 81.7709L167.735 84.6187L167.619 85.0835L167.505 85.5309L167.393 85.9616L167.283 86.3762L167.21 86.644L167.102 87.0334L167.031 87.2851L166.959 87.5308C166.947 87.5712 166.936 87.6114 166.924 87.6514L166.853 87.8882L166.782 88.1195L166.711 88.3455L166.64 88.5663L166.569 88.7821L166.497 88.9933C166.485 89.0281 166.473 89.0627 166.461 89.0971L166.389 89.3015L166.317 89.5017L166.244 89.6979L166.17 89.8903L166.096 90.0791L166.021 90.2645L165.944 90.4467L165.867 90.626C165.854 90.6557 165.841 90.6852 165.828 90.7146L165.749 90.8898L165.669 91.0626C164.681 93.1653 163.483 94.4678 161.928 94.8683C159.179 95.5763 157.041 95.1245 154.902 93.4495L154.769 93.344L154.636 93.2355L154.503 93.1238C154.459 93.0861 154.414 93.0477 154.369 93.0088L154.235 92.8904L154.101 92.7684L153.965 92.6427L153.828 92.5132L153.691 92.3797C153.668 92.3571 153.645 92.3343 153.621 92.3114L153.482 92.1717L153.341 92.0278L153.199 91.8794L153.054 91.7265C153.03 91.7006 153.006 91.6746 152.982 91.6483L152.835 91.4883L152.686 91.3235L152.534 91.1537L152.381 90.9787L152.225 90.7985L152.066 90.6129L151.905 90.4218L151.658 90.1245L151.489 89.9191L151.231 89.5997L151.054 89.379L150.873 89.1521L150.689 88.9188L150.294 88.411L147.022 84.1087L145.609 82.2611L144.855 81.2842L144.544 80.8861L144.498 80.8268C142.671 78.5051 140.569 77.1997 138.236 76.7657C137.924 76.7076 137.718 76.4069 137.776 76.0941Z" fill="white"/>
<path fill-rule="evenodd" clip-rule="evenodd" d="M126.607 44.0728C126.607 44.0728 122.46 58.4314 131.399 64.9703C140.339 71.5091 151.109 75.8703 161.48 75.4978C171.852 75.1252 178.782 66.7351 178.953 54.2527C173.499 53.0563 126.607 44.0728 126.607 44.0728Z" fill="#F95C5E"/>
<path fill-rule="evenodd" clip-rule="evenodd" d="M134.752 58.4625C136.085 58.1457 137.436 58.2097 138.851 58.6192C140.166 58.9993 141.517 59.6645 143.108 60.6657L143.343 60.815L143.616 60.991L143.801 61.1123L144.085 61.3013L144.28 61.4327L144.584 61.639L144.901 61.8579L145.236 62.091L145.867 62.5358L147.745 63.8651L148.04 64.0712L148.467 64.3669L148.877 64.6475L149.142 64.8268C149.186 64.8561 149.229 64.8853 149.273 64.9142L149.529 65.0847L149.781 65.2499L150.028 65.4101L150.271 65.5656C150.311 65.5911 150.351 65.6164 150.391 65.6416L150.629 65.7906C150.669 65.8151 150.708 65.8395 150.747 65.8637L150.982 66.007C151.021 66.0306 151.06 66.0541 151.099 66.0774L151.331 66.2158L151.563 66.3514L151.795 66.4844C151.833 66.5064 151.872 66.5283 151.911 66.5501C157.651 69.7869 164.923 72.1417 169.655 71.8751C169.972 71.8572 170.244 72.1003 170.262 72.4179C170.28 72.7356 170.037 73.0076 169.72 73.0255C164.727 73.3068 157.26 70.889 151.346 67.5541L151.108 67.4183L150.869 67.2801L150.631 67.1394L150.391 66.9956C150.351 66.9714 150.311 66.947 150.271 66.9225L150.029 66.7737C149.989 66.7485 149.948 66.7233 149.907 66.6978L149.662 66.5431L149.413 66.384L149.16 66.2203L148.903 66.0516L148.641 65.8774L148.374 65.6976L148.1 65.5118L147.677 65.2209L147.385 65.0185L146.145 64.1437L144.809 63.1982L144.467 62.9586L144.04 62.6626L143.738 62.4561L143.449 62.2611L143.171 62.0762L142.99 61.9577L142.812 61.8426L142.637 61.7302C141.067 60.7313 139.764 60.0825 138.532 59.7262C137.299 59.3695 136.148 59.3149 135.017 59.5836C132.558 60.1676 131.54 61.7203 131.474 63.8839C131.464 64.2019 131.199 64.4518 130.881 64.4421C130.564 64.4323 130.314 64.1666 130.324 63.8486C130.405 61.2053 131.733 59.1792 134.752 58.4625Z" fill="white"/>
<path fill-rule="evenodd" clip-rule="evenodd" d="M125.989 47.6156C126.131 47.331 126.476 47.2155 126.76 47.3578L126.812 47.3827C126.821 47.3868 126.83 47.3909 126.839 47.3949L126.896 47.419L126.955 47.4425C126.965 47.4464 126.976 47.4503 126.986 47.4541L127.051 47.4769L127.119 47.4991L127.191 47.5209L127.266 47.5422L127.345 47.563L127.471 47.5935L127.56 47.6134L127.653 47.6328L127.751 47.6519L127.905 47.6799L128.013 47.6982L128.126 47.7162L128.304 47.7427L128.493 47.7687L128.762 47.8026L128.978 47.8275L129.206 47.8521L129.528 47.8845L129.874 47.9165L130.243 47.9484L130.637 47.9803L131.275 48.0284L134.427 48.2532L135.688 48.3484L136.448 48.4096L137.133 48.4687L137.689 48.5205L138.079 48.5596L138.631 48.6197L139.098 48.6756L139.439 48.7196L139.89 48.782L140.235 48.8328L140.52 48.8768L140.812 48.9232L141.113 48.9725L141.586 49.052L141.75 49.0802C142.422 49.1958 143.075 49.3224 143.708 49.4606L144.051 49.5371C148.943 50.6509 152.626 52.4834 155.011 55.3513L155.094 55.4518C160.295 61.8429 167.339 67.5084 172.926 69.6974C173.222 69.8133 173.368 70.1475 173.252 70.4438C173.136 70.7401 172.803 70.8864 172.507 70.7705C166.773 68.5241 159.663 62.8289 154.362 56.3757L154.202 56.1799C152.006 53.4825 148.496 51.7275 143.76 50.6528L143.432 50.5798C143.101 50.5078 142.765 50.4391 142.423 50.3734L142.079 50.3088C141.963 50.2876 141.847 50.2668 141.731 50.2463L141.236 50.1613L140.781 50.0856L140.49 50.0386L140.207 49.9942L139.928 49.9522L139.64 49.9104L139.352 49.8707L138.927 49.8158L138.409 49.7545L138.11 49.7217L137.539 49.6638L136.99 49.6129L136.313 49.5547L135.382 49.4804L134.104 49.3848L131.076 49.1692L130.749 49.1448L130.235 49.1044L129.851 49.072L129.49 49.0394L129.235 49.0146L128.913 48.981L128.685 48.9553L128.539 48.9378L128.33 48.911L128.131 48.8836L128.003 48.8648L127.881 48.8457L127.762 48.8261L127.648 48.8061L127.484 48.7752L127.379 48.754L127.229 48.7212L127.134 48.6985L127.041 48.6753L126.952 48.6515L126.866 48.627L126.784 48.6018L126.704 48.5759L126.626 48.5493L126.552 48.5219L126.48 48.4937L126.41 48.4647L126.343 48.4349L126.278 48.4042C126.267 48.399 126.256 48.3937 126.246 48.3885C125.962 48.2462 125.847 47.9002 125.989 47.6156Z" fill="white"/>
<path fill-rule="evenodd" clip-rule="evenodd" d="M95.0645 164C97.7311 154.153 108.145 144.547 123.786 139.053C147.658 130.672 174.66 135.045 184.102 148.829C187.361 153.58 188.099 158.829 186.696 164" fill="#000091"/>
<path fill-rule="evenodd" clip-rule="evenodd" d="M150.176 135.109C150.353 135.358 150.304 135.7 150.069 135.89L146.348 138.613L145.048 139.558L143.992 140.319L143.387 140.751L142.928 141.076L142.535 141.35L142.478 141.39C142.194 141.584 141.913 141.775 141.632 141.964L141.211 142.243C135.055 146.312 129.366 148.859 122.889 149.968C116.706 151.016 112.11 150.132 108.912 147.731C108.658 147.54 108.606 147.179 108.796 146.925C108.987 146.67 109.347 146.618 109.602 146.809C112.53 149.007 116.808 149.83 122.696 148.832C129.354 147.693 135.175 144.981 141.617 140.584L141.938 140.363L142.384 140.051L142.909 139.678L143.764 139.065L144.794 138.32L149.374 134.973C149.633 134.788 149.993 134.849 150.176 135.109Z" fill="white"/>
<path fill-rule="evenodd" clip-rule="evenodd" d="M99.1265 156.517C99.4002 156.356 99.7527 156.447 99.9139 156.721C101.495 159.411 103.293 161.737 105.316 163.573C105.551 163.787 105.569 164.151 105.356 164.387C105.143 164.623 104.779 164.641 104.544 164.427C102.427 162.505 100.559 160.09 98.9226 157.306C98.7615 157.032 98.8527 156.679 99.1265 156.517Z" fill="white"/>
<path fill-rule="evenodd" clip-rule="evenodd" d="M152.7 146.252C160.547 141.516 169.089 140.568 177.84 142.506C178.151 142.574 178.346 142.882 178.278 143.192C178.209 143.503 177.902 143.699 177.592 143.631C169.111 141.753 160.868 142.667 153.294 147.239C152.628 147.641 151.967 148.049 151.308 148.464L150.882 148.733C150.811 148.778 150.741 148.823 150.67 148.868L150.249 149.137L149.83 149.408L149.413 149.679L148.998 149.951L148.584 150.225L148.171 150.501C148.102 150.547 148.033 150.593 147.964 150.639L147.551 150.918L147.138 151.199L146.725 151.482L146.31 151.768C146.241 151.816 146.172 151.864 146.102 151.913L145.685 152.204L145.267 152.498L144.845 152.796L144.422 153.098L143.994 153.405L143.564 153.716L143.129 154.031L142.69 154.352L142.247 154.678L141.798 155.009L141.114 155.517L140.417 156.039L139.704 156.576L137.913 157.937L134.237 160.735L133.447 161.33L133.014 161.652L132.596 161.962L132.191 162.26L131.929 162.452L131.544 162.731L131.169 163L130.803 163.26L130.445 163.513L130.21 163.676L129.978 163.837L129.633 164.073C129.37 164.252 129.012 164.184 128.834 163.921C128.655 163.658 128.724 163.299 128.986 163.12L129.213 162.966L129.556 162.729L129.788 162.567L130.142 162.318L130.504 162.06L130.874 161.794L131.256 161.517L131.648 161.23L132.192 160.829L132.616 160.513L133.206 160.071L133.64 159.743L138.526 156.023L139.253 155.473L139.729 155.115L140.198 154.764L140.661 154.419L141.118 154.08L141.57 153.746L142.016 153.418L142.458 153.096L142.895 152.778L143.328 152.465L143.758 152.157L144.185 151.853L144.609 151.553L145.031 151.256C145.101 151.207 145.171 151.158 145.241 151.109L145.659 150.818L146.077 150.53L146.494 150.244L146.91 149.961C146.979 149.914 147.048 149.867 147.118 149.821L147.534 149.541L147.95 149.264L148.367 148.988L148.786 148.713L149.206 148.44L149.628 148.167L150.053 147.896L150.481 147.624C150.552 147.579 150.624 147.534 150.696 147.489C151.361 147.07 152.029 146.658 152.7 146.252Z" fill="white"/>
<path fill-rule="evenodd" clip-rule="evenodd" d="M154.243 156.551C154.706 153.622 157.805 152.084 163.809 152.163C168.797 152.228 173.225 152.798 178.586 153.92L179.164 154.042C179.261 154.063 179.358 154.084 179.456 154.105L180.045 154.234L180.643 154.366L182.555 154.806L185.912 155.582C185.924 155.585 185.935 155.587 185.946 155.589C186.256 155.659 186.451 155.967 186.381 156.278C186.311 156.588 186.004 156.783 185.694 156.714L180.692 155.558C180.492 155.513 180.293 155.469 180.096 155.425L179.51 155.296C179.121 155.211 178.738 155.129 178.36 155.049L177.795 154.933L177.238 154.82C172.436 153.863 168.35 153.374 163.794 153.315C158.291 153.243 155.73 154.514 155.38 156.731C155.156 158.145 155.79 159.963 157.049 161.984L157.177 162.187C157.22 162.255 157.264 162.323 157.309 162.391L157.445 162.596C157.468 162.631 157.491 162.665 157.515 162.699L157.657 162.907C157.705 162.976 157.754 163.045 157.803 163.115L157.953 163.324C158.004 163.394 158.055 163.464 158.107 163.535C158.296 163.791 158.242 164.151 157.986 164.341C157.731 164.53 157.371 164.476 157.182 164.22L157.103 164.112L156.948 163.898L156.796 163.684C156.746 163.614 156.697 163.543 156.648 163.472L156.504 163.261C156.48 163.225 156.457 163.19 156.433 163.155L156.295 162.945C154.749 160.571 153.952 158.393 154.243 156.551Z" fill="white"/>
<path fill-rule="evenodd" clip-rule="evenodd" d="M185.808 53.0882L185.938 53.0692L186.062 53.0485L186.207 53.022L186.374 52.9893L186.496 52.9641L186.626 52.9358C187.258 52.7972 187.955 52.6047 188.702 52.3495C189.002 52.2467 189.163 51.9192 189.06 51.6181C188.958 51.317 188.631 51.1562 188.33 51.259C187.677 51.4825 187.064 51.6546 186.507 51.7818L186.38 51.8104C186.321 51.8232 186.265 51.8353 186.21 51.8466L186.052 51.8782L185.906 51.9054L185.806 51.9229L185.672 51.944C185.667 51.9446 185.663 51.9451 185.66 51.9456C185.345 51.9864 185.122 52.2753 185.163 52.5909C185.204 52.9064 185.492 53.1291 185.808 53.0882ZM191.426 51.201C192.298 50.7594 193.147 50.2537 193.964 49.6797C194.224 49.497 194.287 49.1377 194.105 48.8772C193.922 48.6168 193.563 48.5538 193.303 48.7365C192.533 49.2779 191.731 49.7553 190.907 50.1726C190.623 50.316 190.51 50.6626 190.653 50.9466C190.796 51.2306 191.142 51.3445 191.426 51.201ZM196.252 47.7977C196.961 47.1172 197.621 46.3786 198.226 45.5798C198.418 45.3263 198.369 44.9649 198.116 44.7725C197.863 44.5802 197.502 44.6297 197.31 44.8831C196.741 45.6332 196.122 46.3267 195.456 46.9659C195.227 47.1861 195.22 47.5508 195.439 47.7805C195.659 48.0102 196.023 48.0179 196.252 47.7977ZM199.832 43.078C200.29 42.2262 200.694 41.3253 201.042 40.3741C201.151 40.0752 200.997 39.7444 200.699 39.6351C200.401 39.5259 200.07 39.6795 199.961 39.9783C199.633 40.8776 199.251 41.7281 198.819 42.5312C198.668 42.8112 198.773 43.1607 199.052 43.3117C199.332 43.4627 199.681 43.3581 199.832 43.078ZM201.87 37.5455C202.08 36.6157 202.242 35.6478 202.354 34.641C202.39 34.3248 202.163 34.0398 201.847 34.0043C201.531 33.9689 201.247 34.1965 201.211 34.5127C201.103 35.4774 200.948 36.4033 200.748 37.2912C200.678 37.6015 200.872 37.91 201.182 37.9803C201.491 38.0505 201.799 37.8559 201.87 37.5455ZM202.539 31.7124C202.555 30.7664 202.532 29.7912 202.469 28.7865C202.449 28.4689 202.176 28.2277 201.859 28.2477C201.542 28.2676 201.301 28.5413 201.321 28.8588C201.382 29.8332 201.405 30.7776 201.389 31.6927C201.384 32.0108 201.637 32.2731 201.954 32.2786C202.272 32.284 202.534 32.0306 202.539 31.7124ZM202.185 25.8793C202.062 24.9433 201.907 23.9845 201.72 23.0028C201.66 22.6903 201.359 22.4853 201.047 22.545C200.735 22.6047 200.531 22.9064 200.59 23.2189C200.773 24.179 200.924 25.1158 201.044 26.0296C201.086 26.345 201.375 26.5671 201.69 26.5257C202.004 26.4842 202.226 26.1948 202.185 25.8793Z" fill="#6A6AF4"/>
<path fill-rule="evenodd" clip-rule="evenodd" d="M184.04 63.5292L184.183 63.5084L184.327 63.4851L184.483 63.4581L184.652 63.4271L184.834 63.3921C185.456 63.2693 186.158 63.1027 186.927 62.8857C187.233 62.7994 187.411 62.4812 187.325 62.1749C187.239 61.8687 186.921 61.6903 186.615 61.7766C185.877 61.9851 185.204 62.1446 184.611 62.2616L184.441 62.2945C184.414 62.2996 184.387 62.3046 184.361 62.3094L184.209 62.3364L184.038 62.3648L183.892 62.3866C183.577 62.4274 183.355 62.7164 183.396 63.0319C183.437 63.3475 183.725 63.5701 184.04 63.5292ZM189.706 61.9632C190.601 61.6216 191.498 61.2355 192.392 60.8022C192.678 60.6636 192.797 60.3191 192.659 60.0327C192.52 59.7463 192.176 59.6265 191.891 59.7651C191.027 60.1835 190.161 60.5565 189.296 60.8866C188.999 60.9999 188.85 61.3328 188.964 61.6301C189.077 61.9274 189.409 62.0765 189.706 61.9632ZM194.965 59.4118C195.799 58.9119 196.614 58.3729 197.406 57.7932C197.663 57.6056 197.719 57.2451 197.531 56.9882C197.344 56.7313 196.984 56.6751 196.728 56.8628C195.964 57.4214 195.179 57.941 194.374 58.423C194.102 58.5863 194.013 58.9401 194.176 59.2131C194.339 59.4862 194.692 59.5751 194.965 59.4118ZM199.69 55.95C200.418 55.3026 201.117 54.6184 201.784 53.8962C202 53.6627 201.986 53.2982 201.753 53.082C201.52 52.8658 201.156 52.8798 200.94 53.1133C200.298 53.8077 199.626 54.4657 198.926 55.0884C198.689 55.2997 198.667 55.6638 198.878 55.9017C199.089 56.1396 199.452 56.1613 199.69 55.95ZM203.671 51.6425C204.256 50.8685 204.808 50.0603 205.325 49.2171C205.491 48.946 205.407 48.5913 205.136 48.4247C204.865 48.2581 204.511 48.3429 204.345 48.614C203.848 49.4251 203.317 50.2024 202.754 50.9466C202.562 51.2002 202.612 51.5616 202.865 51.7537C203.118 51.9459 203.479 51.8961 203.671 51.6425ZM206.737 46.6504C207.161 45.7852 207.552 44.8897 207.907 43.9632C208.021 43.6662 207.873 43.3329 207.577 43.2187C207.28 43.1044 206.948 43.2526 206.834 43.5495C206.49 44.4439 206.113 45.308 205.704 46.1423C205.564 46.4278 205.682 46.7731 205.967 46.9134C206.252 47.0537 206.596 46.936 206.737 46.6504ZM208.841 41.1877C209.108 40.2679 209.344 39.322 209.548 38.3496C209.613 38.0382 209.414 37.7328 209.103 37.6675C208.792 37.6021 208.488 37.8016 208.422 38.113C208.225 39.0566 207.996 39.9739 207.736 40.8652C207.647 41.1706 207.823 41.4905 208.127 41.5795C208.432 41.6686 208.752 41.4931 208.841 41.1877ZM210.046 35.4666C210.176 34.5216 210.277 33.5545 210.35 32.5651C210.373 32.2477 210.135 31.9716 209.818 31.9483C209.502 31.9249 209.226 32.1633 209.203 32.4806C209.132 33.4459 209.033 34.3888 208.906 35.3095C208.863 35.6247 209.083 35.9154 209.398 35.9588C209.712 36.0022 210.003 35.7818 210.046 35.4666ZM210.479 29.6496C210.494 28.6983 210.484 27.7284 210.45 26.7396C210.438 26.4216 210.172 26.1729 209.854 26.1842C209.537 26.1954 209.289 26.4623 209.3 26.7803C209.334 27.7495 209.344 28.6996 209.329 29.631C209.324 29.9491 209.577 30.2112 209.894 30.2163C210.212 30.2214 210.474 29.9677 210.479 29.6496ZM210.279 23.8414C210.201 22.8943 210.102 21.9313 209.981 20.9522C209.942 20.6364 209.654 20.4123 209.339 20.4515C209.024 20.4908 208.8 20.7785 208.839 21.0943C208.959 22.0575 209.056 23.0045 209.132 23.9355C209.158 24.2526 209.436 24.4886 209.753 24.4626C210.069 24.4367 210.305 24.1585 210.279 23.8414ZM209.568 18.0817C209.432 17.2457 209.281 16.3987 209.114 15.5408C209.053 15.2285 208.751 15.0246 208.44 15.0854C208.128 15.1463 207.924 15.4488 207.985 15.7611C208.15 16.6074 208.299 17.4427 208.433 18.267C208.484 18.5811 208.78 18.7942 209.093 18.743C209.407 18.6918 209.62 18.3957 209.568 18.0817Z" fill="#6A6AF4"/>
<ellipse cx="156.655" cy="18.411" rx="6.89581" ry="6.90759" fill="#F95C5E"/>
<path fill-rule="evenodd" clip-rule="evenodd" d="M153.864 26.5013C152.198 33.6701 144.006 36.9078 139.47 31.3292C133.462 23.9415 141.836 19.2193 144 17.4141C147.351 14.6161 155.834 18.6604 157.073 15.1212C158.925 9.83056 154.475 9.10274 146.955 7.33215C141.332 6.00709 135.452 8.79548 133.203 13.3967C133.872 8.66297 135.389 0.49562 130.813 0.0366504C125.721 -0.472249 125.19 4.41703 125.19 4.41703C125.19 4.41703 124.588 7.36288 124.408 8.46902C121.34 5.02386 116.969 6.68883 116.413 11.0538C115.583 17.5831 114.807 22.4148 114.602 22.192C114.602 22.192 115.85 14.8024 111.636 14.2513C107.422 13.7001 106.935 19.3959 106.935 19.3959L105.825 37.484C105.825 37.484 98.843 44.8601 94.6388 49.7936C93.6553 52.3285 92.7639 58.0761 100.244 65.0375C100.348 65.1297 101.055 65.7692 101.32 65.9977C109.7 73.1664 115.246 70.8889 117.661 69.0933C118.125 68.644 118.58 68.1965 119.049 67.7971L139.284 50.4849C162.322 49.6457 162.14 32.2625 163.07 26.5916C163.999 20.9207 155.53 19.3326 153.864 26.5013Z" fill="#6A6AF4"/>
<path fill-rule="evenodd" clip-rule="evenodd" d="M123.733 8.99111C123.788 8.67759 124.085 8.46744 124.398 8.52172C124.7 8.57406 124.906 8.85317 124.872 9.15415L124.867 9.18767L121.976 25.9141C121.922 26.2276 121.624 26.4378 121.311 26.3835C121.009 26.3312 120.803 26.0521 120.838 25.7511L120.843 25.7176L123.733 8.99111Z" fill="white"/>
<path fill-rule="evenodd" clip-rule="evenodd" d="M132.781 11.9965C132.973 11.7436 133.334 11.6952 133.587 11.8883C133.829 12.074 133.884 12.4154 133.716 12.6662L133.695 12.6958L126.598 22.0058C126.405 22.2587 126.044 22.3071 125.792 22.114C125.549 21.9283 125.495 21.5869 125.662 21.3361L125.683 21.3065L132.781 11.9965Z" fill="white"/>
<path fill-rule="evenodd" clip-rule="evenodd" d="M114.433 17.0931C114.479 16.7782 114.771 16.5603 115.085 16.6062C115.388 16.6505 115.602 16.9241 115.575 17.2259L115.571 17.2595L113.353 32.4785C113.307 32.7933 113.015 33.0113 112.701 32.9653C112.398 32.921 112.185 32.6474 112.211 32.3457L112.215 32.312L114.433 17.0931Z" fill="white"/>
<path fill-rule="evenodd" clip-rule="evenodd" d="M296.872 163.299C297.189 163.299 297.447 163.557 297.447 163.875C297.447 164.182 297.207 164.433 296.905 164.451L296.872 164.452H1.00006C0.682421 164.452 0.424927 164.194 0.424927 163.875C0.424927 163.569 0.664357 163.318 0.966263 163.3L1.00006 163.299H296.872Z" fill="#6A6AF4"/>
</svg>
