<svg width="381" height="222" viewBox="0 0 381 222" fill="none" xmlns="http://www.w3.org/2000/svg">
<path fill-rule="evenodd" clip-rule="evenodd" d="M142.888 146.404C139.91 144.811 137.366 145.561 134.575 148.561C135.846 141.311 135.815 132.529 130.108 131.06C124.245 129.529 120.926 133.217 117.483 142.123C117.607 134.498 116.118 124.654 109.852 124.248C102.81 123.81 100.453 129.654 98.7154 142.623C96.513 135.373 90.4641 122.654 83.3295 125.185C76.35 127.654 76.8153 134.435 80.6928 148.248C76.8773 142.279 69.2154 133.404 64.0971 136.779C59.227 139.967 60.5608 145.186 65.9583 154.873C62.391 153.311 58.6996 153.154 55.7217 156.092C49.0524 162.717 52.2785 168.999 61.4914 180.655C70.7354 192.311 137.087 171.686 140.22 166.436C143.384 161.155 148.316 149.342 142.888 146.404Z" fill="white"/>
<path fill-rule="evenodd" clip-rule="evenodd" d="M101.423 128.057C100.142 130.404 99.2084 133.654 98.4062 138.402L98.3504 138.736L98.3433 138.718C97.0644 135.443 95.4185 132.209 93.6284 129.69C90.3701 125.106 86.7646 122.972 83.0201 124.301C79.265 125.629 77.3597 128.186 77.0232 132.243L77.0031 132.515C76.8276 135.205 77.2802 138.557 78.4257 143.298L78.4883 143.557L78.4083 143.456C76.829 141.479 75.1357 139.679 73.4787 138.289C69.7834 135.19 66.3667 134.162 63.5872 135.995C60.8714 137.772 59.8032 140.219 60.2552 143.517L60.2729 143.641C60.6278 146.051 61.765 148.963 63.8493 152.938L63.9843 153.194L63.9061 153.174C60.5569 152.338 57.5298 152.996 55.0704 155.422C51.5459 158.923 50.5156 162.493 51.7576 166.751L51.8258 166.979C52.9379 170.592 55.5678 174.666 60.7632 181.239C65.2382 186.882 81.3699 186.08 103.363 180.797C121.402 176.465 139.209 169.95 141.018 166.919C142.953 163.688 144.811 159.406 145.681 155.76C146.856 150.837 146.281 147.177 143.328 145.578L143.214 145.518C140.677 144.202 138.345 144.382 136.009 146.032L135.879 146.126L135.898 145.97C136.273 142.821 136.291 139.913 135.875 137.483C135.203 133.554 133.407 130.942 130.338 130.152L130.153 130.105C125.046 128.845 121.606 131.114 118.419 137.608L118.307 137.837L118.303 137.782C118.108 134.965 117.662 132.359 116.946 130.183C115.58 126.03 113.262 123.529 109.911 123.312C106.065 123.073 103.361 124.578 101.483 127.949L101.423 128.057ZM109.795 125.183C114.424 125.484 116.71 132.43 116.552 142.108C116.535 143.153 117.973 143.438 118.35 142.463C121.829 133.464 124.862 130.659 129.874 131.968C134.124 133.061 135.223 139.481 133.658 148.398C133.497 149.316 134.621 149.882 135.254 149.202L135.458 148.986C137.935 146.413 139.991 145.915 142.452 147.232C144.426 148.301 144.871 151.135 143.872 155.322C143.05 158.765 141.268 162.873 139.424 165.952C138.825 166.955 134.282 169.179 127.58 171.631C120.466 174.233 111.586 176.895 102.932 178.974C81.8164 184.045 65.9951 184.832 62.2187 180.07L61.5941 179.276C56.8554 173.22 54.4839 169.446 53.5438 166.223C52.5014 162.648 53.3271 159.788 56.3753 156.76C58.8076 154.36 61.9127 154.123 65.5875 155.733C66.4052 156.091 67.2065 155.198 66.77 154.414C61.1824 144.385 60.6063 140.182 64.6043 137.565C68.2296 135.175 74.696 140.598 79.9106 148.756C80.4896 149.661 81.8795 149.03 81.5885 147.993C77.4566 133.274 77.8313 128.124 83.638 126.07C86.3989 125.09 89.2835 126.797 92.1156 130.782C94.4408 134.053 96.5427 138.674 97.8258 142.897C98.118 143.859 99.5044 143.745 99.6379 142.748C101.458 129.163 103.879 124.816 109.795 125.183Z" fill="#F95C5E"/>
<path fill-rule="evenodd" clip-rule="evenodd" d="M143.415 166.186L143.477 165.999L54.2326 166.28L54.2947 166.467C49.5486 167.405 46.1674 171.967 46.9429 176.999L53.6122 220.375L144.067 220.093L150.736 176.717C151.542 171.717 148.161 167.124 143.415 166.186Z" fill="#FCBFB7"/>
<path fill-rule="evenodd" clip-rule="evenodd" d="M289.579 150.56C288.183 150.56 286.787 150.654 285.422 150.81C278.009 140.498 269.509 131.748 260.575 126.185C237.31 111.747 205.36 115.872 175.55 126.998C155.045 134.623 129.082 159.248 112.424 176.686C90.7099 178.342 74.0211 193.218 75.0138 210.249C75.2309 213.968 76.2856 217.468 77.9917 220.687L150.858 221.187C150.982 220.999 151.106 220.781 151.23 220.593L259.304 220.218C259.428 220.374 259.552 220.531 259.676 220.718L319.513 220.624C325.066 213.218 328.385 203.749 328.385 193.405C328.385 169.717 311.014 150.56 289.579 150.56Z" fill="#6A6AF4"/>
<path fill-rule="evenodd" clip-rule="evenodd" d="M262.719 127.591C235.204 144.779 210.512 145.154 194.506 142.373C179.678 139.81 168.977 134.06 165.502 131.81C164.913 132.154 164.324 132.498 163.703 132.841C166.557 134.81 177.724 141.31 193.855 144.154C199.128 145.092 204.432 145.56 209.768 145.56C215.196 145.56 220.625 145.092 226.022 144.123C239.082 141.779 251.955 136.623 264.363 128.779C263.805 128.341 263.277 127.966 262.719 127.591Z" fill="white"/>
<path fill-rule="evenodd" clip-rule="evenodd" d="M259.863 157.123C264.237 150.935 269.634 147.467 275.931 146.779C278.847 146.467 281.298 146.873 282.756 147.217C282.166 146.467 281.577 145.717 280.988 144.998C279.561 144.81 277.793 144.717 275.838 144.935C271.092 145.435 264.206 147.748 258.343 156.061C258.033 156.467 258.157 157.061 258.56 157.373C258.715 157.498 258.901 157.561 259.087 157.561C259.398 157.529 259.677 157.404 259.863 157.123Z" fill="white"/>
<path fill-rule="evenodd" clip-rule="evenodd" d="M260.204 179.092C260.731 179.092 261.135 178.686 261.166 178.186C261.228 175.436 262.313 169.186 266.129 163.311C270.534 156.467 277.048 152.279 285.423 150.779C285.02 150.217 284.617 149.654 284.183 149.092C275.807 150.811 269.045 155.342 264.547 162.28C260.793 168.092 259.366 174.467 259.273 178.124C259.273 178.655 259.677 179.092 260.204 179.092Z" fill="white"/>
<path fill-rule="evenodd" clip-rule="evenodd" d="M128.773 169.873C124.833 169.717 121.049 170.092 118.257 170.686C117.326 171.623 116.396 172.561 115.496 173.498C118.939 171.592 138.544 169.217 146.64 178.499C146.826 178.717 147.074 178.811 147.354 178.811C147.571 178.811 147.788 178.749 147.974 178.592C148.346 178.249 148.408 177.655 148.067 177.28C142.825 171.248 133.736 170.061 128.773 169.873Z" fill="white"/>
<path fill-rule="evenodd" clip-rule="evenodd" d="M111.807 176.748C111.807 176.748 111.838 176.748 111.869 176.748C111.838 176.717 111.807 176.748 111.807 176.748C111.807 176.748 111.776 176.748 111.807 176.748Z" fill="white"/>
<path fill-rule="evenodd" clip-rule="evenodd" d="M144.719 183.28C133.769 174.936 120.12 174.436 114.35 174.686C113.699 175.373 113.047 176.03 112.427 176.686C115.746 176.405 131.597 175.655 143.602 184.78C143.757 184.905 143.974 184.967 144.16 184.967C144.439 184.967 144.719 184.842 144.905 184.592C145.215 184.186 145.122 183.592 144.719 183.28Z" fill="white"/>
<path fill-rule="evenodd" clip-rule="evenodd" d="M97.4092 220.406C97.4092 220.406 107.584 190.093 136.215 195.593C164.847 201.093 204.025 212.906 204.025 212.906V220.499L97.4092 220.406Z" fill="white"/>
<path fill-rule="evenodd" clip-rule="evenodd" d="M116.458 196.841C111.592 199.129 107.42 202.655 103.896 207.079C101.631 209.923 99.7677 212.966 98.2784 216.01C97.7567 217.077 97.3185 218.068 96.9605 218.96L96.8088 219.344C96.7617 219.466 96.718 219.581 96.6777 219.689L96.5574 220.021C96.5453 220.056 96.5356 220.084 96.5283 220.106C96.3244 220.713 96.7725 221.343 97.409 221.343L204.025 221.437C204.539 221.438 204.956 221.018 204.956 220.5V212.906C204.956 212.492 204.686 212.126 204.292 212.008L203.054 211.638L201.381 211.143C199.048 210.457 196.409 209.692 193.519 208.868C185.262 206.514 176.645 204.16 168.098 201.963C163.802 200.858 159.625 199.82 155.598 198.859L154.467 198.591C147.903 197.038 141.844 195.72 136.39 194.672C128.97 193.247 122.33 194.08 116.458 196.841ZM136.042 196.514C141.778 197.616 148.193 199.02 155.169 200.684C159.185 201.642 163.352 202.678 167.638 203.779C175.719 205.857 183.865 208.075 191.708 210.301L193.012 210.672C195.635 211.42 198.05 212.119 200.217 212.755L203.095 213.605V219.561L98.7643 219.47L98.8492 219.263C99.1584 218.519 99.5241 217.705 99.948 216.839C101.381 213.911 103.174 210.982 105.348 208.253C108.704 204.039 112.658 200.696 117.246 198.54C122.763 195.946 129.005 195.162 136.042 196.514Z" fill="#000091"/>
<path fill-rule="evenodd" clip-rule="evenodd" d="M323.48 108.435C323.48 108.435 321.185 107.278 320.906 104.622C320.627 101.966 322.395 90.4031 325.249 88.7781C328.133 87.153 341.255 79.9967 343.675 80.1529C346.094 80.3092 347.087 101.528 323.48 108.435Z" fill="white"/>
<path fill-rule="evenodd" clip-rule="evenodd" d="M324.877 90.0593C329.778 72.7777 333.78 68.9027 336.106 70.5902C338.216 72.1215 333.935 83.1217 332.694 88.8406" fill="white"/>
<path fill-rule="evenodd" clip-rule="evenodd" d="M330.679 72.6965L330.829 72.4698C332.813 69.5341 334.873 68.5409 336.649 69.8297C337.697 70.5901 337.81 72.1615 337.391 74.6598L337.329 75.0121C337.049 76.5575 336.588 78.3622 335.835 80.9863L334.603 85.2208C334.027 87.221 333.834 87.9712 333.602 89.0408C333.493 89.5467 332.997 89.8671 332.494 89.7565C331.992 89.646 331.674 89.1463 331.784 88.6404L331.872 88.2418C332.072 87.3535 332.277 86.5742 332.746 84.9389L333.987 80.6726C334.816 77.7964 335.292 75.9207 335.556 74.3475L335.594 74.11C335.846 72.479 335.767 71.5 335.562 71.3511C334.848 70.8334 333.761 71.3862 332.234 73.7264L332.096 73.9414C330.136 77.0425 327.994 82.4771 325.771 90.317C325.63 90.8148 325.115 91.1031 324.62 90.9608C324.126 90.8186 323.84 90.2997 323.981 89.8018L324.141 89.241C326.408 81.3517 328.605 75.8741 330.679 72.6965Z" fill="#000091"/>
<path fill-rule="evenodd" clip-rule="evenodd" d="M346.498 86.3092C348.949 82.2778 353.013 82.4966 350.903 89.3405C348.825 96.0281 347.305 104.716 343.428 108.653C339.55 112.591 338.154 114.341 338.154 114.341C338.154 114.341 330.399 143.498 325.994 167.748C319.635 202.811 307.599 209.562 296.37 205.53C285.141 201.53 283.063 185.655 298.386 154.873C313.71 124.06 321.807 106.122 321.807 106.122" fill="white"/>
<path fill-rule="evenodd" clip-rule="evenodd" d="M345.705 85.8197C347.096 83.5313 349.119 82.2478 350.742 82.8707C352.529 83.5566 352.878 86.002 351.834 89.4811L351.609 90.2183C351.34 91.1095 351.064 92.0866 350.698 93.4201L350.024 95.8869C348.052 103.053 346.592 106.724 344.168 109.232L343.558 109.854C342.291 111.152 341.233 112.272 340.37 113.223L340.027 113.602C339.668 114.003 339.374 114.34 339.14 114.615L339.001 114.781L338.511 116.654L338.071 118.356C337.644 120.015 337.182 121.832 336.693 123.785C334.922 130.852 333.151 138.246 331.498 145.604L331.141 147.201C330.374 150.65 329.653 154.009 328.984 157.256L328.716 158.569C328.141 161.396 327.61 164.118 327.129 166.723L326.91 167.917C323.876 184.645 319.408 195.826 313.686 201.943C308.567 207.414 302.525 208.735 296.06 206.414C289.847 204.201 286.498 198.676 286.49 190.246C286.482 181.47 290.054 169.613 297.333 154.9L298.763 152.019C304.559 140.333 309.677 129.774 314.098 120.451L315.818 116.812C316.88 114.558 317.843 112.496 318.707 110.634L320.067 107.69L320.959 105.734C321.172 105.263 321.724 105.054 322.192 105.269C322.643 105.475 322.851 106 322.675 106.459L322.558 106.721L321.591 108.836L320.263 111.709C319.256 113.877 318.118 116.308 316.849 118.994L315.548 121.743C310.868 131.603 305.417 142.828 299.218 155.293C285.143 183.568 285.159 200.542 296.683 204.647C302.469 206.725 307.731 205.574 312.331 200.657C317.706 194.912 322.017 184.201 324.989 168.07L325.079 167.58C325.692 164.205 326.389 160.628 327.162 156.876C327.936 153.117 328.78 149.21 329.683 145.19C331.247 138.225 332.917 131.23 334.593 124.509L335.275 121.79C335.591 120.534 335.895 119.342 336.183 118.22L336.761 115.982L337.255 114.098C337.289 113.973 337.348 113.855 337.429 113.754L337.557 113.598L337.726 113.397C337.97 113.108 338.276 112.758 338.646 112.345L339.116 111.826C340.095 110.753 341.304 109.479 342.767 107.993L342.908 107.847C344.895 105.743 346.244 102.461 347.982 96.2782L349.098 92.2181C349.407 91.1021 349.654 90.2403 349.903 89.4264L350.015 89.0627C350.853 86.3434 350.653 84.8428 350.08 84.6229C349.507 84.4031 348.272 85.1865 347.292 86.799C347.024 87.2405 346.451 87.3793 346.013 87.1089C345.574 86.8385 345.437 86.2613 345.705 85.8197Z" fill="#000091"/>
<path fill-rule="evenodd" clip-rule="evenodd" d="M322.087 106.654C319.853 105.122 320.133 96.3097 317.62 92.4658C314.518 87.6845 311.478 82.7157 317.217 83.4657C322.149 84.0907 323.7 88.4658 324.848 90.0283" fill="white"/>
<path fill-rule="evenodd" clip-rule="evenodd" d="M313.199 86.1172C312.554 83.5002 314.068 82.1087 317.332 82.5353C320.071 82.8824 322.055 84.2478 323.661 86.427L323.736 86.5307C324.323 87.3578 325.439 89.2426 325.586 89.4585L325.594 89.4704C325.9 89.8866 325.813 90.4737 325.4 90.7817C324.987 91.0897 324.404 91.002 324.098 90.5858L324.067 90.5403C323.802 90.1455 322.641 88.1885 322.167 87.5449C320.84 85.7453 319.281 84.6721 317.096 84.3952C315.955 84.2461 315.292 84.352 315.048 84.5757C314.904 84.7078 314.856 85.015 314.986 85.5858L315.005 85.6653C315.328 86.9747 316.26 88.6502 318.292 91.7891L318.396 91.95C319.346 93.4036 319.931 95.3269 320.528 98.4026L320.648 99.0374L321.013 101.021C321.58 104.046 322.023 105.44 322.581 105.858L322.609 105.878C323.034 106.17 323.144 106.753 322.855 107.181C322.566 107.609 321.987 107.72 321.562 107.428C320.398 106.63 319.898 105.155 319.218 101.553L318.799 99.2739L318.738 98.9553C318.185 96.0623 317.657 94.2714 316.89 93.0569L316.314 92.1624C314.44 89.2346 313.566 87.6072 313.199 86.1172Z" fill="#000091"/>
<path fill-rule="evenodd" clip-rule="evenodd" d="M343.644 93.622C343.644 93.622 348.018 82.9343 349.476 77.9655C351.089 72.5591 345.444 71.7779 342.714 79.5593" fill="white"/>
<path fill-rule="evenodd" clip-rule="evenodd" d="M347.662 72.8813C350.082 72.7228 351.261 75.0965 350.398 78.1286L350.368 78.2311C349.922 79.75 349.191 81.8601 348.238 84.4245L348.068 84.8817C347.936 85.2341 347.8 85.5929 347.662 85.9576C347.058 87.5516 346.415 89.2007 345.769 90.8312L345.239 92.1605L344.689 93.5235L344.504 93.9792C344.308 94.4579 343.764 94.686 343.289 94.4886C342.831 94.2983 342.604 93.7819 342.764 93.3161L343.513 91.4585C343.594 91.2549 343.678 91.0452 343.764 90.8297C344.408 89.2141 345.053 87.5695 345.664 85.9706L346.06 84.9282L346.326 84.2204C347.32 81.5645 348.084 79.3781 348.545 77.8269L348.584 77.6955C349.178 75.704 348.688 74.6931 347.783 74.7524C346.443 74.8401 344.717 76.6607 343.59 79.8715C343.419 80.3597 342.888 80.6156 342.403 80.4431C341.918 80.2705 341.664 79.7349 341.836 79.2467C343.184 75.4038 345.437 73.027 347.662 72.8813Z" fill="#000091"/>
<path fill-rule="evenodd" clip-rule="evenodd" d="M338.494 90.8093C338.494 90.8093 347.086 71.2152 343.24 69.4652C339.735 67.8714 337.067 75.0278 332.662 88.8406" fill="white"/>
<path fill-rule="evenodd" clip-rule="evenodd" d="M337.592 72.6941C339.458 69.0589 341.354 67.5779 343.626 68.6108C345.962 69.6738 345.519 73.7318 343.43 80.3588C343.075 81.4843 342.676 82.6593 342.24 83.8701C341.678 85.4331 341.081 86.9873 340.48 88.477L340.254 89.0325C340.043 89.5481 339.846 90.0222 339.666 90.4479L339.348 91.1883C339.141 91.6619 338.591 91.8762 338.121 91.667C337.651 91.4577 337.438 90.9042 337.646 90.4306L337.888 89.8669L338.09 89.3893C338.229 89.0576 338.377 88.6998 338.533 88.3187C339.2 86.6852 339.868 84.9625 340.491 83.2314C340.918 82.0431 341.309 80.8915 341.656 79.7912L341.808 79.3024C343.374 74.1941 343.726 70.7137 342.86 70.3198C341.783 69.8301 340.635 70.7668 339.123 73.7967L338.949 74.1503C337.557 77.0325 336.067 81.2398 333.551 89.1274C333.394 89.6203 332.87 89.8916 332.381 89.7332C331.891 89.5748 331.622 89.0468 331.779 88.5539L332.32 86.8662C334.619 79.7244 336.032 75.8385 337.415 73.0449L337.592 72.6941Z" fill="#000091"/>
<path fill-rule="evenodd" clip-rule="evenodd" d="M198.069 105.06L199.279 127.154C199.279 127.154 197.232 139.092 213.672 136.873C230.051 134.686 228.035 124.904 228.035 124.904L222.978 97.4661L198.069 105.06Z" fill="white"/>
<path fill-rule="evenodd" clip-rule="evenodd" d="M222.71 96.5686L197.801 104.163C197.39 104.288 197.117 104.68 197.141 105.111L198.346 127.108L198.333 127.209C198.326 127.263 198.32 127.325 198.313 127.394C198.16 128.981 198.338 130.791 199.111 132.534C201.001 136.79 205.708 138.894 213.797 137.802C220.399 136.92 224.694 134.764 227.049 131.675C228.761 129.43 229.226 127.069 229 125.068L228.984 124.941C228.973 124.863 228.963 124.798 228.954 124.748L223.894 97.2948C223.793 96.7456 223.241 96.4068 222.71 96.5686ZM199.04 105.744L222.255 98.6663L227.13 125.123C227.136 125.161 227.143 125.212 227.151 125.28C227.327 126.837 226.956 128.72 225.574 130.533C223.547 133.191 219.7 135.122 213.552 135.944C206.22 136.933 202.332 135.195 200.811 131.768C200.189 130.367 200.042 128.867 200.166 127.575L200.18 127.443C200.187 127.38 200.194 127.337 200.198 127.314L200.207 127.244C200.211 127.197 200.212 127.15 200.21 127.102L199.04 105.744Z" fill="#000091"/>
<path fill-rule="evenodd" clip-rule="evenodd" d="M229.274 69.5905C229.274 69.5905 241.993 64.7779 242.489 78.1219C242.985 91.4659 229.274 87.9971 229.274 87.9971" fill="white"/>
<path fill-rule="evenodd" clip-rule="evenodd" d="M230.506 68.2555C232.344 67.8179 234.239 67.6611 236.039 67.9565C240.423 68.6762 243.189 71.9071 243.419 78.0867C243.657 84.4765 240.833 87.9741 236.087 89.0204C234.156 89.4463 232.121 89.4214 230.198 89.1268L229.898 89.0784C229.519 89.0141 229.23 88.9524 229.048 88.9063C228.549 88.7802 228.247 88.2708 228.372 87.7687C228.493 87.2844 228.967 86.9836 229.448 87.0758L229.65 87.1218L229.746 87.1422C229.959 87.1866 230.205 87.2312 230.478 87.2731C232.195 87.536 234.013 87.5583 235.689 87.1887C239.573 86.3326 241.762 83.6205 241.559 78.1569L241.545 77.8394C241.276 72.761 239.169 70.3702 235.74 69.8072C234.216 69.5571 232.553 69.6947 230.934 70.0802C230.621 70.1548 230.332 70.2339 230.071 70.3132L229.943 70.3528C229.848 70.3829 229.77 70.4088 229.71 70.4294L229.602 70.468C229.121 70.6501 228.584 70.4048 228.403 69.9201C228.223 69.4353 228.466 68.8948 228.947 68.7127L229.067 68.6688C229.39 68.5539 229.883 68.404 230.506 68.2555Z" fill="#000091"/>
<path fill-rule="evenodd" clip-rule="evenodd" d="M205.42 111.779C191.647 111.779 180.479 100.529 180.479 86.6533V64.7154C180.479 55.8402 187.645 48.6213 196.455 48.6213H218.293C224.962 48.6213 230.391 54.0902 230.391 60.8091V86.6221C230.391 100.497 219.223 111.779 205.42 111.779Z" fill="white"/>
<path fill-rule="evenodd" clip-rule="evenodd" d="M218.292 47.6838H196.454C187.13 47.6838 179.548 55.3225 179.548 64.7154V86.6533C179.548 101.046 191.132 112.716 205.419 112.716L205.839 112.713C219.973 112.482 231.32 100.865 231.32 86.6221V60.8091C231.32 53.5724 225.475 47.6838 218.292 47.6838ZM196.455 49.5589H218.293C224.448 49.5589 229.46 54.608 229.46 60.8091V86.6221C229.46 99.8412 218.928 110.624 205.818 110.838L205.412 110.841C192.16 110.841 181.41 100.011 181.41 86.6534V64.7154C181.41 56.358 188.159 49.5589 196.455 49.5589Z" fill="#000091"/>
<path fill-rule="evenodd" clip-rule="evenodd" d="M236.191 98.5285C236.16 89.9971 234.981 83.7782 234.671 82.2157C234.671 82.1219 234.702 81.9969 234.702 81.9031C234.702 79.9344 233.12 78.3406 231.166 78.3406V81.9031L231.259 85.4657C232.003 85.4345 232.686 85.1845 233.244 84.7782C234.392 91.9658 236.656 113.404 227.102 131.623C225.365 134.967 223.721 138.06 222.108 141.029C213.112 157.936 207.156 169.124 207.312 179.093C207.312 179.593 207.746 180.03 208.242 180.03C208.769 180.03 209.173 179.593 209.173 179.093C209.049 169.592 214.911 158.592 223.752 141.936C225.334 138.935 226.978 135.873 228.746 132.498C234.981 120.591 236.253 107.466 236.191 98.5285Z" fill="#F95C5E"/>
<path fill-rule="evenodd" clip-rule="evenodd" d="M178.06 85.872C178.494 86.122 178.96 86.2782 179.487 86.3095V79.2156C177.843 79.3718 176.54 80.6219 176.323 82.2469C176.23 82.4031 176.168 82.5906 176.168 82.7781C176.168 84.2157 176.168 117.873 186.094 133.06C196.238 148.623 199.371 157.498 200.084 172.561C200.115 173.061 200.519 173.467 201.015 173.467H201.046C201.573 173.436 201.946 172.999 201.946 172.499C201.232 156.998 198.037 147.936 187.645 132.029C179.704 119.904 178.308 94.6534 178.06 85.872Z" fill="#F95C5E"/>
<path fill-rule="evenodd" clip-rule="evenodd" d="M197.774 70.6217C198.27 70.6132 198.681 70.9966 198.718 71.4881L198.72 71.5432L199.055 91.3823L199.069 91.388C199.137 91.4099 199.211 91.4052 199.314 91.3671L199.36 91.3487C199.838 91.1425 200.468 90.4449 201.192 89.1101C201.438 88.6557 202.004 88.4885 202.455 88.7366C202.906 88.9848 203.072 89.5544 202.825 90.0088C201.125 93.1454 199.296 93.9338 197.834 92.8212C197.617 92.656 197.465 92.486 197.367 92.3449C197.275 92.2113 197.219 92.0561 197.204 91.8949L197.201 91.8254L196.86 71.575C196.851 71.0573 197.26 70.6305 197.774 70.6217Z" fill="#000091"/>
<path fill-rule="evenodd" clip-rule="evenodd" d="M207.579 94.3376C208.098 93.9954 208.798 94.251 208.979 94.8489L209.001 94.9263C209.023 95.0129 209.049 95.1268 209.073 95.2651C209.264 96.3639 209.16 97.5793 208.537 98.7431C207.498 100.682 205.252 101.946 201.635 102.305C201.123 102.356 200.668 101.979 200.617 101.464C200.567 100.949 200.941 100.49 201.452 100.439C204.498 100.137 206.183 99.1887 206.899 97.8523C207.075 97.5229 207.187 97.1812 207.246 96.8402L207.266 96.7078L207.237 96.7234C203.192 98.9182 199.151 99.0645 197.149 96.8075L197.082 96.7305C196.748 96.3366 196.795 95.7448 197.186 95.4088C197.577 95.0728 198.164 95.1198 198.498 95.5137C199.938 97.2143 203.748 96.8631 207.579 94.3376Z" fill="#000091"/>
<path fill-rule="evenodd" clip-rule="evenodd" d="M206.247 63.3076C208.278 61.7517 210.688 61.5855 213.288 63.6692C213.691 63.9915 213.757 64.5813 213.437 64.9865C213.117 65.3917 212.532 65.4589 212.13 65.1366C210.248 63.6288 208.769 63.7308 207.374 64.8C207.185 64.9446 207.017 65.0926 206.835 65.2684L206.493 65.6086C206.445 65.6551 206.404 65.6924 206.361 65.728C206.241 65.826 206.136 65.8919 205.955 65.9374C205.457 66.063 204.951 65.7576 204.827 65.2553C204.733 64.8785 204.88 64.498 205.17 64.2783L205.211 64.2491L205.414 64.0451C205.693 63.7671 205.946 63.5378 206.247 63.3076Z" fill="#000091"/>
<path fill-rule="evenodd" clip-rule="evenodd" d="M212.709 79.9344C213.566 79.9344 214.26 78.8571 214.26 77.5281C214.26 76.1992 213.566 75.1218 212.709 75.1218C211.853 75.1218 211.158 76.1992 211.158 77.5281C211.158 78.8571 211.853 79.9344 212.709 79.9344Z" fill="#000091"/>
<path fill-rule="evenodd" clip-rule="evenodd" d="M190.159 80.5282C191.016 80.5282 191.71 79.4508 191.71 78.1219C191.71 76.7929 191.016 75.7156 190.159 75.7156C189.303 75.7156 188.608 76.7929 188.608 78.1219C188.608 79.4508 189.303 80.5282 190.159 80.5282Z" fill="#000091"/>
<path fill-rule="evenodd" clip-rule="evenodd" d="M185.834 63.0118C188.157 61.145 190.704 61.0572 192.941 63.952C193.257 64.3606 193.184 64.9496 192.779 65.2677C192.373 65.5858 191.789 65.5124 191.473 65.1039C189.963 63.1497 188.588 63.1972 186.995 64.4776C186.779 64.6508 186.584 64.8277 186.369 65.04L186.004 65.4076C185.954 65.456 185.913 65.4943 185.871 65.53C185.743 65.6366 185.644 65.702 185.453 65.75C184.955 65.8756 184.45 65.5702 184.325 65.0678C184.231 64.6911 184.379 64.3106 184.668 64.0909L184.704 64.0651L184.944 63.8233C185.249 63.5156 185.519 63.2647 185.834 63.0118Z" fill="#000091"/>
<path fill-rule="evenodd" clip-rule="evenodd" d="M211.657 43.1528C205.608 43.2465 201.017 43.5278 198.287 44.059C176.077 49.1529 179.675 65.7157 179.675 65.7157C179.675 65.7157 190.532 67.8095 199.373 54.6217C199.373 54.6217 211.502 64.5907 229.463 68.622C229.742 68.5595 230.083 68.4658 230.393 68.372V69.2783C231.448 68.997 233.154 68.6845 234.922 68.8095C234.736 62.2781 233.557 54.028 228.222 48.7154C224.437 44.934 218.854 43.059 211.657 43.1528Z" fill="#000091"/>
<path fill-rule="evenodd" clip-rule="evenodd" d="M198.78 42.0367C202.319 41.5416 207.891 41.2162 212.691 41.2466C222.278 41.3489 228.686 44.9078 232.483 51.1846C233.978 53.6557 235.021 56.4681 235.723 59.6233C236.241 61.9525 236.519 64.087 236.78 67.1032C236.825 67.619 236.446 68.0736 235.934 68.1185C235.422 68.1635 234.971 67.7817 234.926 67.2659L234.876 66.705C234.298 60.4088 233.305 56.1462 230.894 52.1604C227.436 46.4442 221.626 43.2171 212.675 43.1216L212.128 43.1197C207.545 43.1166 202.349 43.4305 199.036 43.8939C198.527 43.9652 198.057 43.6072 197.987 43.0943C197.916 42.5814 198.271 42.108 198.78 42.0367Z" fill="white"/>
<path fill-rule="evenodd" clip-rule="evenodd" d="M269.943 29.5586C262.281 7.49569 240.567 -4.9108 221.428 1.83933C205.701 7.37069 196.612 24.1523 198.101 42.1839C200.986 41.6838 205.515 41.3713 211.657 41.2776C219.381 41.1838 225.399 43.2151 229.555 47.3715C235.449 53.2466 236.659 62.153 236.814 69.0906C239.668 69.8719 242.304 72.2157 242.522 78.122C242.553 78.7158 242.025 83.3096 242.149 83.2784C242.149 84.7472 242.46 86.591 243.545 88.4035C245.686 91.8723 250.028 94.0286 256.481 94.7786C256.512 94.7786 256.543 94.7786 256.605 94.7786C257.07 94.7786 257.473 94.4349 257.535 93.9661C257.597 93.4661 257.225 92.9973 256.729 92.9348C250.897 92.2473 246.988 90.4035 245.158 87.4347C244.414 86.2472 244.135 85.0284 244.042 83.9659C245.624 85.841 248.384 87.8722 252.758 87.8722C253.813 87.8722 254.961 87.7472 256.201 87.4972C256.698 87.4035 257.039 86.9035 256.915 86.4035C256.822 85.9034 256.326 85.5597 255.829 85.6847C250.184 86.8722 247.051 84.7159 245.406 82.7784C246.678 82.4971 247.919 82.1534 249.16 81.7159C268.268 74.9345 277.574 51.5903 269.943 29.5586Z" fill="#000091"/>
<path fill-rule="evenodd" clip-rule="evenodd" d="M214.045 65.7466C207.26 65.7466 201.761 71.2872 201.761 78.1218C201.761 84.9565 207.26 90.4971 214.045 90.4971C220.829 90.4971 226.329 84.9565 226.329 78.1218C226.329 71.2872 220.829 65.7466 214.045 65.7466ZM214.045 67.6216C219.802 67.6216 224.468 72.3227 224.468 78.1218C224.468 83.9209 219.802 88.622 214.045 88.622C208.289 88.622 203.623 83.9209 203.623 78.1218C203.623 72.3227 208.289 67.6216 214.045 67.6216Z" fill="#000091"/>
<path fill-rule="evenodd" clip-rule="evenodd" d="M202.44 76.9031C202.954 76.9031 203.371 77.3228 203.371 77.8406C203.371 78.3399 202.983 78.748 202.495 78.7765L202.44 78.7781H195.058C194.544 78.7781 194.127 78.3584 194.127 77.8406C194.127 77.3413 194.514 76.9332 195.003 76.9047L195.058 76.9031H202.44Z" fill="#000091"/>
<path fill-rule="evenodd" clip-rule="evenodd" d="M229.934 68.1179C230.381 67.8631 230.949 68.022 231.202 68.4727C231.446 68.9068 231.308 69.4532 230.898 69.7206L230.85 69.7502L224.429 73.4065C223.981 73.6613 223.414 73.5024 223.161 73.0517C222.917 72.6176 223.054 72.0711 223.464 71.8038L223.513 71.7742L229.934 68.1179Z" fill="#000091"/>
<path fill-rule="evenodd" clip-rule="evenodd" d="M183.332 65.7466C176.548 65.7466 171.048 71.2872 171.048 78.1218C171.048 84.9565 176.548 90.4971 183.332 90.4971C190.116 90.4971 195.616 84.9565 195.616 78.1218C195.616 71.2872 190.116 65.7466 183.332 65.7466ZM183.333 67.6217C189.089 67.6217 193.755 72.3228 193.755 78.1219C193.755 83.921 189.089 88.6221 183.333 88.6221C177.576 88.6221 172.91 83.921 172.91 78.1219C172.91 72.3228 177.576 67.6217 183.333 67.6217Z" fill="#000091"/>
<path fill-rule="evenodd" clip-rule="evenodd" d="M261.414 208.687H254.962L251.798 161.404C251.581 158.092 248.727 155.404 245.439 155.404H155.512C152.224 155.404 149.711 158.092 149.959 161.404L153.465 213.749C153.682 217.062 156.536 219.749 159.824 219.749L261.383 219.624C263.244 219.624 264.733 218.093 264.733 216.249V212.093C264.764 210.218 263.275 208.687 261.414 208.687Z" fill="#F95C5E"/>
<path fill-rule="evenodd" clip-rule="evenodd" d="M206.817 186.686C205.545 185.311 203.839 184.436 202.04 184.092C202.319 183.686 202.505 183.186 202.567 182.655C202.722 180.967 201.513 179.405 199.9 179.155C199.869 179.155 199.838 179.155 199.807 179.155C199.465 177.874 198.814 175.748 198.069 174.842C197.79 174.498 197.263 174.373 196.891 174.592C196.55 174.811 196.487 175.248 196.767 175.592C197.263 176.186 197.852 178.03 198.225 179.436C197.387 179.874 196.798 180.717 196.705 181.78C196.612 182.749 196.984 183.655 197.573 184.311C197.015 184.499 196.487 184.717 195.991 185.03C192.765 187.061 192.362 191.061 195.092 194.03C197.821 196.968 202.691 197.718 205.918 195.686C209.175 193.655 209.578 189.624 206.817 186.686Z" fill="white"/>
<path fill-rule="evenodd" clip-rule="evenodd" d="M205.454 174.686C205.454 174.686 200.801 173.748 200.181 177.655C200.212 177.655 203.872 178.967 205.454 174.686Z" fill="white"/>
<path fill-rule="evenodd" clip-rule="evenodd" d="M379.569 219.75C380.083 219.75 380.5 220.169 380.5 220.687C380.5 221.186 380.112 221.594 379.624 221.623L379.569 221.625H1.40423C0.890277 221.625 0.473633 221.205 0.473633 220.687C0.473633 220.188 0.861048 219.78 1.34955 219.751L1.40423 219.75H379.569Z" fill="#000091"/>
</svg>
