
<svg width="304" height="169" viewBox="0 0 304 169" fill="none" xmlns="http://www.w3.org/2000/svg">
<path fill-rule="evenodd" clip-rule="evenodd" d="M120.8 111.641C118.512 110.426 116.558 110.998 114.413 113.285C115.39 107.757 115.367 101.06 110.982 99.9404C106.478 98.7727 103.928 101.585 101.283 108.376C101.378 102.562 100.234 95.0552 95.4207 94.7454C90.0113 94.4118 88.2002 98.868 86.8657 108.758C85.1738 103.229 80.5269 93.5301 75.046 95.4603C69.6842 97.3429 70.0417 102.514 73.0204 113.047C70.0893 108.495 64.2033 101.728 60.2713 104.301C56.53 106.732 57.5547 110.712 61.7011 118.099C58.9607 116.907 56.1249 116.788 53.8372 119.028C48.7137 124.08 51.192 128.87 58.2696 137.759C65.3709 146.647 116.344 130.92 118.75 126.916C121.181 122.889 124.97 113.881 120.8 111.641Z" fill="white"/>
<path fill-rule="evenodd" clip-rule="evenodd" d="M88.9459 97.6502C87.9616 99.4396 87.2445 101.918 86.6282 105.539L86.5854 105.793L86.5799 105.78C85.5975 103.282 84.3331 100.816 82.9579 98.8957C80.4548 95.4001 77.685 93.773 74.8084 94.786C71.9236 95.7989 70.46 97.7488 70.2014 100.842L70.186 101.049C70.0512 103.101 70.3989 105.657 71.2789 109.272L71.327 109.469L71.2656 109.393C70.0523 107.885 68.7515 106.512 67.4785 105.453C64.6397 103.09 62.015 102.306 59.8797 103.703C57.7933 105.059 56.9728 106.924 57.32 109.439L57.3336 109.534C57.6063 111.372 58.4798 113.592 60.081 116.623L60.1847 116.819L60.1247 116.803C57.5518 116.165 55.2263 116.667 53.3369 118.518C50.6294 121.187 49.8379 123.909 50.792 127.156L50.8444 127.33C51.6987 130.086 53.719 133.192 57.7102 138.204C61.148 142.507 73.5407 141.895 90.4361 137.867C104.294 134.564 117.973 129.596 119.363 127.284C120.85 124.82 122.277 121.556 122.945 118.775C123.848 115.021 123.407 112.23 121.138 111.011L121.05 110.965C119.102 109.962 117.31 110.099 115.516 111.357L115.416 111.428L115.43 111.31C115.719 108.908 115.732 106.691 115.413 104.838C114.896 101.842 113.517 99.8501 111.159 99.2477L111.017 99.2119C107.093 98.2514 104.451 99.9813 102.002 104.933L101.916 105.108L101.914 105.066C101.763 102.918 101.421 100.93 100.871 99.2716C99.8213 96.1042 98.0411 94.1977 95.4666 94.032C92.512 93.8498 90.4346 94.997 88.9916 97.5679L88.9459 97.6502ZM95.377 95.459C98.9336 95.6879 100.689 100.985 100.568 108.365C100.555 109.162 101.66 109.379 101.949 108.636C104.622 101.774 106.952 99.6341 110.803 100.632C114.067 101.466 114.911 106.361 113.71 113.161C113.586 113.861 114.449 114.293 114.935 113.774L115.092 113.609C116.995 111.648 118.574 111.268 120.465 112.272C121.982 113.087 122.323 115.249 121.556 118.441C120.924 121.067 119.555 124.199 118.139 126.547C117.679 127.312 114.189 129.007 109.04 130.877C103.575 132.862 96.7529 134.892 90.1049 136.477C73.8837 140.344 61.7295 140.944 58.8284 137.313L58.3485 136.707C54.7082 132.089 52.8864 129.211 52.1642 126.753C51.3634 124.028 51.9977 121.846 54.3394 119.537C56.2079 117.708 58.5933 117.527 61.4163 118.755C62.0445 119.028 62.6601 118.346 62.3248 117.749C58.0323 110.101 57.5897 106.896 60.6611 104.901C63.4461 103.078 68.4137 107.213 72.4196 113.434C72.8644 114.125 73.9322 113.643 73.7086 112.852C70.5344 101.628 70.8222 97.7012 75.2831 96.1349C77.4041 95.3879 79.62 96.6897 81.7957 99.7281C83.5819 102.223 85.1967 105.746 86.1824 108.967C86.4069 109.7 87.4719 109.613 87.5745 108.853C88.9724 98.4932 90.8328 95.1788 95.377 95.459Z" fill="#F95C5E"/>
<path fill-rule="evenodd" clip-rule="evenodd" d="M121.205 126.725L121.252 126.582L52.6931 126.797L52.7407 126.94C49.0947 127.655 46.4972 131.134 47.093 134.971L52.2165 168.047L121.705 167.832L126.829 134.756C127.448 130.943 124.851 127.44 121.205 126.725Z" fill="#FCBFB7"/>
<path fill-rule="evenodd" clip-rule="evenodd" d="M233.49 114.81C232.418 114.81 231.346 114.882 230.297 115.001C224.602 107.137 218.072 100.464 211.209 96.2227C193.336 85.2132 168.791 88.3588 145.891 96.8423C130.139 102.657 110.193 121.435 97.3964 134.732C80.7154 135.995 67.8948 147.338 68.6573 160.326C68.8241 163.161 69.6344 165.83 70.945 168.285L126.922 168.666C127.017 168.523 127.113 168.356 127.208 168.213L210.232 167.928C210.327 168.047 210.423 168.166 210.518 168.309L256.486 168.237C260.752 162.59 263.302 155.369 263.302 147.481C263.302 129.418 249.957 114.81 233.49 114.81Z" fill="#6A6AF4"/>
<path fill-rule="evenodd" clip-rule="evenodd" d="M212.857 97.295C191.719 110.402 172.751 110.688 160.454 108.567C149.064 106.613 140.842 102.228 138.173 100.512C137.72 100.774 137.268 101.036 136.791 101.299C138.983 102.8 147.562 107.756 159.954 109.925C164.005 110.64 168.08 110.997 172.179 110.997C176.349 110.997 180.519 110.64 184.666 109.901C194.698 108.114 204.588 104.182 214.12 98.2006C213.691 97.867 213.286 97.581 212.857 97.295Z" fill="white"/>
<path fill-rule="evenodd" clip-rule="evenodd" d="M210.663 119.814C214.023 115.096 218.169 112.451 223.007 111.927C225.247 111.688 227.129 111.998 228.249 112.26C227.797 111.688 227.344 111.116 226.891 110.568C225.795 110.425 224.436 110.354 222.935 110.521C219.289 110.902 213.999 112.665 209.495 119.004C209.257 119.314 209.352 119.767 209.662 120.005C209.781 120.1 209.924 120.148 210.067 120.148C210.305 120.124 210.52 120.029 210.663 119.814Z" fill="white"/>
<path fill-rule="evenodd" clip-rule="evenodd" d="M210.924 136.567C211.329 136.567 211.639 136.257 211.663 135.876C211.71 133.779 212.544 129.013 215.475 124.533C218.859 119.314 223.864 116.121 230.298 114.977C229.988 114.548 229.678 114.119 229.345 113.69C222.91 115.001 217.715 118.456 214.26 123.746C211.377 128.179 210.28 133.04 210.209 135.828C210.209 136.233 210.519 136.567 210.924 136.567Z" fill="white"/>
<path fill-rule="evenodd" clip-rule="evenodd" d="M109.957 129.537C106.931 129.418 104.023 129.704 101.879 130.157C101.164 130.872 100.449 131.587 99.7578 132.302C102.403 130.848 117.464 129.037 123.683 136.114C123.826 136.281 124.017 136.353 124.231 136.353C124.398 136.353 124.565 136.305 124.708 136.186C124.994 135.924 125.042 135.471 124.779 135.185C120.752 130.586 113.77 129.68 109.957 129.537Z" fill="white"/>
<path fill-rule="evenodd" clip-rule="evenodd" d="M96.9229 134.78C96.9229 134.78 96.9467 134.78 96.9705 134.78C96.9467 134.756 96.9229 134.78 96.9229 134.78C96.9229 134.78 96.8991 134.78 96.9229 134.78Z" fill="white"/>
<path fill-rule="evenodd" clip-rule="evenodd" d="M122.208 139.76C113.796 133.398 103.31 133.016 98.8779 133.207C98.3774 133.731 97.877 134.232 97.4004 134.732C99.9502 134.518 112.127 133.946 121.35 140.904C121.469 140.999 121.636 141.047 121.779 141.047C121.993 141.047 122.208 140.952 122.351 140.761C122.589 140.451 122.517 139.999 122.208 139.76Z" fill="white"/>
<path fill-rule="evenodd" clip-rule="evenodd" d="M85.8613 168.07C85.8613 168.07 93.6776 144.955 115.673 149.149C137.668 153.343 167.765 162.351 167.765 162.351V168.142L85.8613 168.07Z" fill="white"/>
<path fill-rule="evenodd" clip-rule="evenodd" d="M100.495 150.101C96.7566 151.846 93.552 154.535 90.8449 157.908C89.1045 160.077 87.6733 162.398 86.5292 164.719C86.1284 165.532 85.7918 166.288 85.5168 166.968L85.4002 167.261C85.364 167.354 85.3305 167.441 85.2995 167.524L85.2071 167.777C85.1978 167.804 85.1903 167.825 85.1847 167.842C85.0281 168.305 85.3723 168.785 85.8613 168.785L167.765 168.857C168.16 168.857 168.481 168.537 168.481 168.142V162.351C168.481 162.035 168.274 161.757 167.971 161.666L167.02 161.385L165.735 161.008C163.942 160.484 161.915 159.9 159.695 159.272C153.352 157.477 146.732 155.682 140.166 154.007C136.866 153.164 133.657 152.373 130.563 151.64L129.695 151.436C124.652 150.252 119.997 149.246 115.807 148.447C110.107 147.36 105.006 147.996 100.495 150.101ZM115.54 149.852C119.946 150.692 124.875 151.763 130.234 153.032C133.319 153.762 136.52 154.552 139.813 155.392C146.021 156.976 152.278 158.668 158.303 160.365L159.305 160.648C161.32 161.218 163.175 161.751 164.84 162.236L167.051 162.884V167.426L86.9025 167.357L86.9677 167.199C87.2052 166.631 87.4862 166.011 87.8118 165.351C88.9124 163.118 90.2898 160.885 91.9601 158.803C94.5384 155.59 97.5762 153.041 101.1 151.397C105.339 149.419 110.134 148.821 115.54 149.852Z" fill="#000091"/>
<path fill-rule="evenodd" clip-rule="evenodd" d="M259.533 82.6871C259.533 82.6871 257.77 81.8054 257.555 79.7798C257.341 77.7542 258.699 68.9371 260.892 67.6979C263.108 66.4588 273.188 61.0017 275.047 61.1208C276.905 61.24 277.668 77.4206 259.533 82.6871Z" fill="white"/>
<path fill-rule="evenodd" clip-rule="evenodd" d="M260.605 68.675C264.371 55.497 267.445 52.5421 269.232 53.8289C270.852 54.9966 267.564 63.3848 266.611 67.7457" fill="white"/>
<path fill-rule="evenodd" clip-rule="evenodd" d="M265.063 55.4349L265.179 55.262C266.703 53.0235 268.285 52.2661 269.65 53.2488C270.455 53.8287 270.542 55.027 270.22 56.932L270.173 57.2007C269.957 58.3791 269.603 59.7553 269.024 61.7563L268.078 64.9853C267.635 66.5106 267.488 67.0826 267.309 67.8983C267.225 68.284 266.844 68.5283 266.458 68.444C266.073 68.3597 265.828 67.9787 265.912 67.593L265.98 67.289C266.134 66.6116 266.291 66.0174 266.652 64.7704L267.605 61.5171C268.242 59.3239 268.607 57.8936 268.81 56.6939L268.839 56.5128C269.033 55.269 268.972 54.5225 268.814 54.409C268.266 54.0142 267.431 54.4357 266.258 56.2203L266.152 56.3842C264.646 58.749 263.001 62.8932 261.293 68.8714C261.185 69.251 260.789 69.4709 260.409 69.3624C260.03 69.2539 259.81 68.8582 259.918 68.4786L260.041 68.0509C261.782 62.035 263.471 57.858 265.063 55.4349Z" fill="#000091"/>
<path fill-rule="evenodd" clip-rule="evenodd" d="M277.216 65.8154C279.099 62.7413 282.221 62.9081 280.6 68.1269C279.004 73.2266 277.836 79.8514 274.857 82.8539C271.879 85.8565 270.806 87.191 270.806 87.191C270.806 87.191 264.849 109.425 261.465 127.917C256.58 154.654 247.334 159.801 238.707 156.727C230.081 153.677 228.484 141.571 240.256 118.099C252.028 94.6022 258.248 80.9237 258.248 80.9237" fill="white"/>
<path fill-rule="evenodd" clip-rule="evenodd" d="M276.607 65.4421C277.676 63.6971 279.23 62.7183 280.477 63.1933C281.85 63.7163 282.117 65.5811 281.315 68.2341L281.142 68.7962C280.936 69.4758 280.724 70.2209 280.443 71.2378L279.925 73.1188C278.41 78.5831 277.289 81.3824 275.426 83.2954L274.958 83.7697C273.984 84.759 273.172 85.6135 272.508 86.3384L272.245 86.6277C271.969 86.9331 271.743 87.1902 271.564 87.4002L271.457 87.5261L271.08 88.955L270.742 90.2524C270.414 91.5175 270.06 92.9031 269.684 94.3921C268.323 99.7811 266.963 105.419 265.693 111.03L265.419 112.249C264.83 114.878 264.276 117.44 263.762 119.916L263.555 120.917C263.114 123.073 262.706 125.148 262.336 127.135L262.168 128.045C259.838 140.801 256.405 149.328 252.009 153.992C248.077 158.164 243.436 159.171 238.469 157.401C233.696 155.714 231.123 151.501 231.117 145.072C231.111 138.38 233.855 129.339 239.447 118.119L240.546 115.922C244.998 107.011 248.929 98.9595 252.326 91.8502L253.647 89.0756C254.463 87.3561 255.203 85.7842 255.867 84.3639L256.911 82.119L257.597 80.6278C257.761 80.2684 258.184 80.1095 258.544 80.273C258.89 80.4306 259.05 80.8303 258.915 81.1809L258.825 81.3804L258.082 82.9928L257.062 85.1836C256.289 86.8373 255.414 88.6912 254.44 90.7391L253.44 92.8353C249.844 100.354 245.657 108.914 240.895 118.419C230.082 139.98 230.094 152.924 238.947 156.054C243.393 157.638 247.435 156.761 250.969 153.011C255.098 148.63 258.409 140.463 260.693 128.162L260.762 127.788C261.233 125.215 261.768 122.487 262.362 119.626C262.956 116.759 263.605 113.781 264.299 110.715C265.5 105.404 266.783 100.069 268.07 94.9443L268.594 92.8709C268.837 91.9138 269.071 91.0047 269.292 90.1488L269.736 88.4424L270.116 87.006C270.141 86.9101 270.187 86.8207 270.249 86.7433L270.347 86.6243L270.477 86.4711C270.665 86.251 270.9 85.9842 271.184 85.6693L271.545 85.2731C272.297 84.4551 273.226 83.4831 274.35 82.3505L274.459 82.2387C275.985 80.6346 277.021 78.1319 278.356 73.4172L279.213 70.3212C279.451 69.4702 279.641 68.813 279.832 68.1923L279.918 67.915C280.562 65.8414 280.408 64.6972 279.968 64.5295C279.528 64.3619 278.579 64.9593 277.826 66.1888C277.62 66.5255 277.18 66.6313 276.843 66.4251C276.507 66.2189 276.401 65.7788 276.607 65.4421Z" fill="#000091"/>
<path fill-rule="evenodd" clip-rule="evenodd" d="M258.463 81.3289C256.747 80.1612 256.961 73.4411 255.031 70.51C252.648 66.864 250.313 63.075 254.721 63.6469C258.51 64.1236 259.702 67.4598 260.584 68.6513" fill="white"/>
<path fill-rule="evenodd" clip-rule="evenodd" d="M251.636 65.6689C251.14 63.6733 252.303 62.6123 254.811 62.9375C256.915 63.2022 258.439 64.2434 259.673 65.9051L259.731 65.9842C260.181 66.6149 261.039 68.0522 261.152 68.2168L261.158 68.2259C261.393 68.5433 261.326 68.9909 261.009 69.2258C260.691 69.4607 260.244 69.3938 260.009 69.0764L259.985 69.0417C259.781 68.7407 258.89 67.2484 258.525 66.7576C257.506 65.3853 256.308 64.567 254.629 64.3558C253.753 64.2421 253.243 64.3228 253.056 64.4934C252.946 64.5942 252.909 64.8284 253.009 65.2637L253.023 65.3243C253.271 66.3227 253.987 67.6004 255.548 69.994L255.628 70.1167C256.358 71.2252 256.807 72.6918 257.266 75.0371L257.359 75.5211L257.638 77.0336C258.074 79.3405 258.414 80.4034 258.843 80.7222L258.865 80.7377C259.191 80.9599 259.276 81.4046 259.054 81.731C258.832 82.0574 258.387 82.1419 258.06 81.9198C257.166 81.3113 256.782 80.1864 256.26 77.4396L255.938 75.7015L255.891 75.4585C255.466 73.2526 255.061 71.8869 254.471 70.9608L254.028 70.2787C252.589 68.0461 251.918 66.8051 251.636 65.6689Z" fill="#000091"/>
<path fill-rule="evenodd" clip-rule="evenodd" d="M275.023 71.3917C275.023 71.3917 278.384 63.2418 279.504 59.4528C280.743 55.3302 276.406 54.7344 274.309 60.6681" fill="white"/>
<path fill-rule="evenodd" clip-rule="evenodd" d="M278.111 55.576C279.97 55.4552 280.875 57.2652 280.212 59.5774L280.189 59.6555C279.847 60.8137 279.286 62.4229 278.553 64.3783L278.422 64.7269C278.321 64.9956 278.217 65.2692 278.111 65.5474C277.646 66.7629 277.153 68.0204 276.656 69.2637L276.249 70.2774L275.827 71.3168L275.685 71.6642C275.534 72.0293 275.116 72.2032 274.751 72.0527C274.399 71.9076 274.225 71.5138 274.348 71.1586L274.923 69.7421C274.986 69.5868 275.05 69.4269 275.116 69.2626C275.611 68.0306 276.106 66.7765 276.576 65.5573L276.88 64.7624L277.084 64.2226C277.848 62.1974 278.435 60.5301 278.789 59.3473L278.819 59.2471C279.276 57.7285 278.899 56.9576 278.204 57.0028C277.174 57.0697 275.848 58.458 274.983 60.9064C274.851 61.2787 274.443 61.4738 274.071 61.3423C273.698 61.2107 273.503 60.8023 273.635 60.43C274.67 57.4996 276.402 55.6871 278.111 55.576Z" fill="#000091"/>
<path fill-rule="evenodd" clip-rule="evenodd" d="M271.068 69.2469C271.068 69.2469 277.669 54.3054 274.714 52.971C272.021 51.7556 269.972 57.2127 266.588 67.7456" fill="white"/>
<path fill-rule="evenodd" clip-rule="evenodd" d="M270.375 55.4332C271.809 52.6612 273.265 51.5318 275.01 52.3195C276.805 53.1301 276.465 56.2245 274.86 61.2779C274.587 62.1362 274.28 63.0322 273.946 63.9554C273.514 65.1474 273.055 66.3324 272.593 67.4684L272.42 67.892C272.258 68.2852 272.106 68.6467 271.968 68.9713L271.724 69.5359C271.565 69.8971 271.142 70.0605 270.781 69.9009C270.42 69.7414 270.257 69.3193 270.416 68.9581L270.602 68.5283L270.757 68.1641C270.864 67.9112 270.978 67.6383 271.098 67.3477C271.611 66.1021 272.123 64.7885 272.602 63.4684C272.93 62.5622 273.23 61.6841 273.497 60.8451L273.614 60.4724C274.817 56.577 275.087 53.9231 274.422 53.6227C273.595 53.2492 272.713 53.9635 271.551 56.274L271.418 56.5436C270.348 58.7414 269.203 61.9497 267.271 67.9644C267.15 68.3403 266.747 68.5471 266.371 68.4264C265.996 68.3056 265.789 67.903 265.909 67.5271L266.325 66.2401C268.091 60.7942 269.176 57.831 270.239 55.7007L270.375 55.4332Z" fill="#000091"/>
<path fill-rule="evenodd" clip-rule="evenodd" d="M163.191 80.1136L164.121 96.9615C164.121 96.9615 162.548 106.065 175.178 104.373C187.76 102.705 186.211 95.2457 186.211 95.2457L182.327 74.3229L163.191 80.1136Z" fill="white"/>
<path fill-rule="evenodd" clip-rule="evenodd" d="M182.12 73.6386L162.984 79.4293C162.669 79.5248 162.459 79.8237 162.478 80.1529L163.403 96.9267L163.393 97.0031C163.388 97.0449 163.383 97.092 163.378 97.1442C163.261 98.3547 163.397 99.7348 163.991 101.064C165.443 104.309 169.059 105.914 175.273 105.081C180.345 104.409 183.644 102.764 185.454 100.409C186.768 98.6968 187.126 96.8969 186.952 95.3704L186.94 95.2736C186.932 95.2142 186.924 95.1651 186.917 95.1269L183.03 74.1924C182.952 73.7735 182.528 73.5152 182.12 73.6386ZM163.937 80.635L181.77 75.2382L185.516 95.413C185.52 95.442 185.526 95.4806 185.532 95.5321C185.667 96.7197 185.382 98.1552 184.32 99.5378C182.763 101.565 179.808 103.038 175.084 103.664C169.452 104.418 166.466 103.093 165.297 100.48C164.819 99.4116 164.706 98.2673 164.802 97.2822L164.812 97.1815C164.818 97.1341 164.823 97.1009 164.826 97.0832L164.833 97.0298C164.836 96.994 164.837 96.958 164.835 96.9221L163.937 80.635Z" fill="#000091"/>
<path fill-rule="evenodd" clip-rule="evenodd" d="M187.164 53.0665C187.164 53.0665 196.934 49.3967 197.316 59.5722C197.697 69.7476 187.164 67.1025 187.164 67.1025" fill="white"/>
<path fill-rule="evenodd" clip-rule="evenodd" d="M188.11 52.0486C189.522 51.7149 190.978 51.5953 192.361 51.8206C195.728 52.3694 197.854 54.8331 198.03 59.5454C198.213 64.4179 196.044 67.085 192.398 67.8828C190.914 68.2076 189.351 68.1886 187.874 67.964L187.643 67.927C187.352 67.8781 187.13 67.831 186.99 67.7958C186.607 67.6997 186.375 67.3113 186.471 66.9283C186.564 66.5591 186.928 66.3297 187.297 66.4L187.453 66.4351L187.526 66.4507C187.69 66.4845 187.879 66.5185 188.089 66.5504C189.408 66.7509 190.804 66.7679 192.092 66.4861C195.075 65.8332 196.758 63.7651 196.602 59.5989L196.591 59.3568C196.384 55.4843 194.765 53.6611 192.131 53.2318C190.961 53.0411 189.683 53.1461 188.439 53.44C188.199 53.4969 187.976 53.5572 187.776 53.6177L187.678 53.6479C187.605 53.6708 187.545 53.6906 187.499 53.7063L187.416 53.7358C187.046 53.8746 186.634 53.6875 186.495 53.3179C186.356 52.9483 186.543 52.5361 186.913 52.3973L187.005 52.3637C187.253 52.2761 187.631 52.1618 188.11 52.0486Z" fill="#000091"/>
<path fill-rule="evenodd" clip-rule="evenodd" d="M168.839 85.2371C158.259 85.2371 149.68 76.6582 149.68 66.0777V49.3489C149.68 42.5812 155.184 37.0764 161.952 37.0764H178.729C183.852 37.0764 188.022 41.2467 188.022 46.3702V66.0538C188.022 76.6344 179.443 85.2371 168.839 85.2371Z" fill="white"/>
<path fill-rule="evenodd" clip-rule="evenodd" d="M178.727 36.3616H161.95C154.788 36.3616 148.963 42.1864 148.963 49.349V66.0777C148.963 77.0531 157.862 85.952 168.837 85.952L169.161 85.9494C180.018 85.7733 188.735 76.9147 188.735 66.0539V46.3702C188.735 40.8519 184.245 36.3616 178.727 36.3616ZM161.951 37.7914H178.727C183.456 37.7914 187.306 41.6416 187.306 46.3702V66.0539C187.306 76.1341 179.215 84.3564 169.144 84.5198L168.832 84.5223C158.652 84.5222 150.393 76.2635 150.393 66.0777V49.349C150.393 42.9761 155.578 37.7914 161.951 37.7914Z" fill="#000091"/>
<path fill-rule="evenodd" clip-rule="evenodd" d="M192.479 75.1331C192.455 68.6275 191.55 63.8853 191.311 62.6938C191.311 62.6223 191.335 62.527 191.335 62.4555C191.335 60.9542 190.12 59.7389 188.619 59.7389V62.4555L188.69 65.1722C189.262 65.1483 189.786 64.9577 190.215 64.6479C191.097 70.1288 192.837 86.4763 185.497 100.369C184.162 102.919 182.899 105.278 181.66 107.542C174.75 120.434 170.174 128.965 170.293 136.567C170.293 136.948 170.627 137.282 171.008 137.282C171.413 137.282 171.723 136.948 171.723 136.567C171.628 129.323 176.132 120.935 182.923 108.233C184.139 105.945 185.402 103.61 186.76 101.036C191.55 91.9572 192.527 81.9486 192.479 75.1331Z" fill="#F95C5E"/>
<path fill-rule="evenodd" clip-rule="evenodd" d="M147.821 65.4821C148.154 65.6727 148.512 65.7919 148.917 65.8157V60.4062C147.654 60.5254 146.653 61.4786 146.486 62.7178C146.415 62.8369 146.367 62.9799 146.367 63.1229C146.367 64.2191 146.367 89.8841 153.993 101.466C161.785 113.333 164.192 120.101 164.74 131.587C164.764 131.968 165.074 132.278 165.455 132.278H165.479C165.884 132.254 166.17 131.92 166.17 131.539C165.622 119.719 163.167 112.809 155.184 100.679C149.084 91.4331 148.011 72.1783 147.821 65.4821Z" fill="#F95C5E"/>
<path fill-rule="evenodd" clip-rule="evenodd" d="M162.964 53.8529C163.345 53.8464 163.661 54.1387 163.689 54.5136L163.691 54.5556L163.948 69.6838L163.959 69.6882C164.011 69.7049 164.069 69.7013 164.147 69.6722L164.182 69.6582C164.55 69.5009 165.034 68.9691 165.59 67.9512C165.779 67.6047 166.214 67.4772 166.56 67.6664C166.907 67.8556 167.034 68.29 166.845 68.6365C165.539 71.0283 164.133 71.6295 163.011 70.7811C162.844 70.6551 162.727 70.5255 162.652 70.4179C162.581 70.316 162.538 70.1977 162.527 70.0747L162.524 70.0217L162.262 54.5798C162.255 54.185 162.57 53.8596 162.964 53.8529Z" fill="#000091"/>
<path fill-rule="evenodd" clip-rule="evenodd" d="M170.497 71.9375C170.896 71.6765 171.433 71.8715 171.572 72.3274L171.589 72.3864C171.606 72.4525 171.626 72.5393 171.644 72.6448C171.791 73.4826 171.712 74.4094 171.232 75.2969C170.434 76.7756 168.709 77.7395 165.93 78.0132C165.537 78.0519 165.187 77.7647 165.149 77.3718C165.11 76.9789 165.397 76.629 165.79 76.5903C168.13 76.3598 169.424 75.6367 169.974 74.6176C170.11 74.3664 170.196 74.1059 170.241 73.8458L170.256 73.7449L170.234 73.7568C167.127 75.4304 164.022 75.542 162.484 73.8209L162.433 73.7622C162.176 73.4618 162.212 73.0106 162.513 72.7544C162.813 72.4981 163.264 72.534 163.521 72.8344C164.627 74.1311 167.554 73.8633 170.497 71.9375Z" fill="#000091"/>
<path fill-rule="evenodd" clip-rule="evenodd" d="M169.474 48.2755C171.034 47.089 172.886 46.9623 174.883 48.5512C175.192 48.797 175.243 49.2467 174.998 49.5557C174.752 49.8647 174.302 49.9159 173.993 49.6701C172.548 48.5204 171.411 48.5982 170.339 49.4135C170.194 49.5237 170.065 49.6366 169.925 49.7707L169.663 50.0301C169.626 50.0656 169.595 50.094 169.561 50.1212C169.469 50.1959 169.389 50.2461 169.25 50.2808C168.867 50.3766 168.479 50.1437 168.383 49.7607C168.311 49.4734 168.424 49.1832 168.647 49.0157L168.678 48.9934L168.834 48.8379C169.048 48.6258 169.243 48.4511 169.474 48.2755Z" fill="#000091"/>
<path fill-rule="evenodd" clip-rule="evenodd" d="M174.44 60.9541C175.098 60.9541 175.631 60.1326 175.631 59.1192C175.631 58.1058 175.098 57.2843 174.44 57.2843C173.782 57.2843 173.248 58.1058 173.248 59.1192C173.248 60.1326 173.782 60.9541 174.44 60.9541Z" fill="#000091"/>
<path fill-rule="evenodd" clip-rule="evenodd" d="M157.115 61.407C157.773 61.407 158.307 60.5855 158.307 59.5721C158.307 58.5587 157.773 57.7372 157.115 57.7372C156.457 57.7372 155.924 58.5587 155.924 59.5721C155.924 60.5855 156.457 61.407 157.115 61.407Z" fill="#000091"/>
<path fill-rule="evenodd" clip-rule="evenodd" d="M153.792 48.0499C155.577 46.6264 157.534 46.5594 159.252 48.7668C159.495 49.0784 159.439 49.5276 159.127 49.7701C158.816 50.0127 158.367 49.9568 158.124 49.6452C156.964 48.1551 155.908 48.1912 154.684 49.1676C154.518 49.2997 154.369 49.4346 154.203 49.5965L153.922 49.8768C153.885 49.9137 153.853 49.9429 153.82 49.9701C153.723 50.0514 153.646 50.1013 153.5 50.1379C153.117 50.2337 152.729 50.0008 152.633 49.6177C152.561 49.3304 152.674 49.0403 152.897 48.8728L152.924 48.8531L153.108 48.6687C153.343 48.434 153.55 48.2427 153.792 48.0499Z" fill="#000091"/>
<path fill-rule="evenodd" clip-rule="evenodd" d="M173.631 32.9064C168.984 32.9779 165.457 33.1923 163.36 33.5974C146.298 37.4817 149.062 50.1117 149.062 50.1117C149.062 50.1117 157.403 51.7083 164.194 41.652C164.194 41.652 173.512 49.2538 187.309 52.3279C187.524 52.2802 187.786 52.2088 188.024 52.1373V52.8283C188.834 52.6139 190.145 52.3756 191.503 52.4709C191.36 47.4904 190.455 41.1992 186.356 37.1481C183.449 34.2647 179.159 32.8349 173.631 32.9064Z" fill="#000091"/>
<path fill-rule="evenodd" clip-rule="evenodd" d="M163.738 32.0553C166.456 31.6777 170.736 31.4296 174.424 31.4528C181.79 31.5308 186.712 34.2446 189.629 39.031C190.777 40.9153 191.578 43.06 192.118 45.4659C192.516 47.2421 192.73 48.8697 192.93 51.1697C192.964 51.563 192.673 51.9097 192.28 51.944C191.886 51.9782 191.54 51.6871 191.506 51.2938L191.467 50.8661C191.023 46.0649 190.26 42.8144 188.408 39.7751C185.751 35.4162 181.288 32.9554 174.412 32.8825L173.992 32.8811C170.471 32.8787 166.479 33.1181 163.934 33.4715C163.543 33.5258 163.182 33.2528 163.128 32.8618C163.074 32.4707 163.347 32.1096 163.738 32.0553Z" fill="white"/>
<path fill-rule="evenodd" clip-rule="evenodd" d="M218.408 22.5402C212.522 5.71614 195.841 -3.74442 181.138 1.40289C169.056 5.62082 162.074 18.4176 163.218 32.1676C165.434 31.7863 168.913 31.548 173.631 31.4765C179.565 31.405 184.188 32.954 187.381 36.1234C191.909 40.6034 192.838 47.395 192.958 52.6853C195.15 53.281 197.175 55.0683 197.342 59.5722C197.366 60.025 196.961 63.528 197.056 63.5042C197.056 64.6242 197.295 66.0302 198.129 67.4123C199.773 70.0574 203.109 71.7017 208.066 72.2736C208.09 72.2736 208.113 72.2736 208.161 72.2736C208.519 72.2736 208.828 72.0115 208.876 71.6541C208.924 71.2728 208.638 70.9153 208.256 70.8677C203.776 70.3434 200.774 68.9374 199.368 66.6736C198.796 65.768 198.581 64.8386 198.51 64.0284C199.725 65.4582 201.846 67.0072 205.206 67.0072C206.016 67.0072 206.898 66.9119 207.851 66.7212C208.233 66.6497 208.495 66.2684 208.399 65.8872C208.328 65.5059 207.947 65.2438 207.565 65.3391C203.228 66.2446 200.821 64.6003 199.558 63.1229C200.535 62.9084 201.489 62.6463 202.442 62.3126C217.121 57.1415 224.27 39.3404 218.408 22.5402Z" fill="#000091"/>
<path fill-rule="evenodd" clip-rule="evenodd" d="M175.464 50.1354C170.252 50.1354 166.027 54.3603 166.027 59.5721C166.027 64.7839 170.252 69.0088 175.464 69.0088C180.676 69.0088 184.901 64.7839 184.901 59.5721C184.901 54.3603 180.676 50.1354 175.464 50.1354ZM175.465 51.5652C179.887 51.5652 183.472 55.15 183.472 59.5721C183.472 63.9942 179.887 67.579 175.465 67.579C171.043 67.579 167.458 63.9942 167.458 59.5721C167.458 55.15 171.043 51.5652 175.465 51.5652Z" fill="#000091"/>
<path fill-rule="evenodd" clip-rule="evenodd" d="M166.551 58.6428C166.945 58.6428 167.265 58.9629 167.265 59.3577C167.265 59.7385 166.968 60.0497 166.593 60.0714L166.551 60.0726H160.879C160.484 60.0726 160.164 59.7526 160.164 59.3577C160.164 58.977 160.462 58.6658 160.837 58.644L160.879 58.6428H166.551Z" fill="#000091"/>
<path fill-rule="evenodd" clip-rule="evenodd" d="M187.671 51.9436C188.015 51.7493 188.451 51.8705 188.645 52.2142C188.832 52.5452 188.727 52.9619 188.412 53.1658L188.375 53.1883L183.442 55.9765C183.098 56.1708 182.662 56.0496 182.468 55.7059C182.281 55.3749 182.386 54.9582 182.701 54.7543L182.738 54.7317L187.671 51.9436Z" fill="#000091"/>
<path fill-rule="evenodd" clip-rule="evenodd" d="M151.87 50.1354C146.659 50.1354 142.434 54.3603 142.434 59.5721C142.434 64.7839 146.659 69.0088 151.87 69.0088C157.082 69.0088 161.307 64.7839 161.307 59.5721C161.307 54.3603 157.082 50.1354 151.87 50.1354ZM151.871 51.5652C156.293 51.5652 159.878 55.15 159.878 59.5721C159.878 63.9942 156.293 67.5791 151.871 67.5791C147.449 67.5791 143.864 63.9942 143.864 59.5721C143.864 55.15 147.449 51.5652 151.871 51.5652Z" fill="#000091"/>
<path fill-rule="evenodd" clip-rule="evenodd" d="M211.853 159.134H206.897L204.466 123.079C204.299 120.553 202.107 118.504 199.581 118.504H130.497C127.971 118.504 126.041 120.553 126.232 123.079L128.925 162.995C129.091 165.521 131.284 167.57 133.81 167.57L211.829 167.475C213.259 167.475 214.403 166.307 214.403 164.901V161.732C214.427 160.302 213.283 159.134 211.853 159.134Z" fill="#F95C5E"/>
<path fill-rule="evenodd" clip-rule="evenodd" d="M169.91 142.358C168.933 141.309 167.623 140.642 166.24 140.38C166.455 140.07 166.598 139.689 166.645 139.284C166.765 137.997 165.835 136.805 164.596 136.615C164.572 136.615 164.548 136.615 164.525 136.615C164.262 135.638 163.762 134.017 163.19 133.326C162.976 133.064 162.571 132.969 162.285 133.135C162.022 133.302 161.975 133.636 162.189 133.898C162.571 134.351 163.023 135.757 163.309 136.829C162.666 137.163 162.213 137.806 162.142 138.616C162.07 139.355 162.356 140.046 162.809 140.547C162.38 140.69 161.975 140.856 161.594 141.095C159.115 142.644 158.805 145.694 160.902 147.958C162.999 150.198 166.741 150.77 169.219 149.221C171.721 147.672 172.031 144.598 169.91 142.358Z" fill="white"/>
<path fill-rule="evenodd" clip-rule="evenodd" d="M168.864 133.207C168.864 133.207 165.289 132.492 164.812 135.471C164.836 135.471 167.648 136.472 168.864 133.207Z" fill="white"/>
<path fill-rule="evenodd" clip-rule="evenodd" d="M302.622 167.57C303.017 167.57 303.337 167.89 303.337 168.285C303.337 168.666 303.04 168.977 302.664 168.999L302.622 169H12.1094C11.7146 169 11.3945 168.68 11.3945 168.285C11.3945 167.904 11.6922 167.593 12.0674 167.571L12.1094 167.57H302.622Z" fill="#000091"/>
<path d="M0.660156 48.4763L4.77725 44.7513C6.29665 46.6629 8.11014 48.0352 10.4628 48.0352C12.4723 48.0352 13.5016 46.8589 13.5016 45.3885C13.5016 41.0754 1.68943 42.6928 1.68943 34.0175C1.68943 29.6553 5.36541 26.3715 10.5118 26.3715C14.2858 26.3715 17.7167 28.1849 19.4812 30.5866L15.3641 34.2135C14.0897 32.6451 12.4723 31.3708 10.5608 31.3708C8.60027 31.3708 7.66902 32.4491 7.66902 33.7234C7.66902 37.9385 19.4812 36.4681 19.4812 44.9964C19.3831 50.1918 15.217 53.0345 10.5608 53.0345C6.14961 53.0345 3.01278 51.2701 0.660156 48.4763Z" fill="#000091"/>
<path d="M93.2188 48.4765L97.3358 44.7515C98.8553 46.663 100.669 48.0353 103.021 48.0353C105.031 48.0353 106.06 46.859 106.06 45.3886C106.06 41.0755 94.248 42.6929 94.248 34.0176C94.248 29.6555 97.924 26.3716 103.07 26.3716C106.844 26.3716 110.275 28.1851 112.04 30.5867L107.923 34.2137C106.648 32.6453 105.031 31.3709 103.119 31.3709C101.159 31.3709 100.228 32.4492 100.228 33.7235C100.228 37.9387 112.04 36.4683 112.04 44.9965C111.942 50.1919 107.776 53.0347 103.119 53.0347C98.7082 53.0347 95.5714 51.2702 93.2188 48.4765Z" fill="#000091"/>
<path d="M83.0576 41.3692V27.3514H89.3312V41.0751C89.3312 48.476 85.0181 53.0343 77.7642 53.0343C70.5102 53.0343 66.2461 48.476 66.2461 41.0751V27.3514H72.5198V41.3692C72.5198 44.9471 74.3823 47.1527 77.8132 47.1527C81.1951 47.1527 83.0576 44.9471 83.0576 41.3692Z" fill="#000091"/>
<path d="M55.0605 52.0544V27.3518H61.2852V52.0544H55.0605Z" fill="#000091"/>
<path d="M54.1289 18.969C54.1289 21.1745 55.9914 23.037 58.197 23.037C60.4026 23.037 62.2161 21.1745 62.2161 18.969C62.2161 16.7634 60.4026 14.9009 58.197 14.9009C55.9914 14.9009 54.1289 16.7634 54.1289 18.969Z" fill="#F95C5E"/>
<path d="M35.1504 52.0539V27.3513H41.375V29.802C42.9925 28.1355 45.1 26.8612 47.8938 26.8612C48.727 26.8612 49.4622 27.0082 50.0504 27.2043V33.3309C49.2661 33.1349 48.4329 32.9878 47.3056 32.9878C44.2668 32.9878 42.3063 34.6543 41.375 36.2227V52.0539H35.1504Z" fill="#000091"/>
<path d="M24.0801 52.0545V27.3519H30.3047V52.0545H24.0801Z" fill="#000091"/>
<path d="M23.1309 18.969C23.1309 21.1745 24.9934 23.037 27.1989 23.037C29.4045 23.037 31.218 21.1745 31.218 18.969C31.218 16.7634 29.4045 14.9009 27.1989 14.9009C24.9934 14.9009 23.1309 16.7634 23.1309 18.969Z" fill="#F95C5E"/>
<path d="M50.9362 17.8727C51.2945 15.5474 52.7705 13.5596 54.787 12.4864C47.2849 8.55123 38.2447 8.58307 30.7676 12.5819C32.7398 13.71 34.1334 15.7349 34.4292 18.0493C39.613 15.5022 45.7101 15.4433 50.9362 17.8727Z" fill="#000091"/>
</svg>
