<svg xmlns="http://www.w3.org/2000/svg" fill="none" viewBox="570.98 0.59 297.98 133.39">
   <path fill-rule="evenodd" clip-rule="evenodd" d="M613.463 133.32H607.045V43.1018C607.045 41.974 607.954 41.0432 609.095 41.0432H611.43C612.554 41.0432 613.481 41.9561 613.481 43.1018V133.32H613.463Z" fill="#6A6AF4"></path>
   <path fill-rule="evenodd" clip-rule="evenodd" d="M730.16 117.675V133.32H723.742V117.729" fill="#6A6AF4"></path>
   <rect x="595.797" y="50.8347" width="42.072" height="15.7166" fill="#F95C5E"></rect>
   <path fill-rule="evenodd" clip-rule="evenodd" d="M617.528 50.8347H606.119L595.797 66.0859V66.5692H606.885L617.528 50.8347Z" fill="white"></path>
   <path fill-rule="evenodd" clip-rule="evenodd" d="M630.453 66.5692L637.655 55.9184L637.619 50.8347H629.686L619.025 66.5692H630.453Z" fill="white"></path>
   <rect x="595.797" y="78.7057" width="42.0185" height="15.7166" fill="#F95C5E"></rect>
   <path fill-rule="evenodd" clip-rule="evenodd" d="M617.528 78.7057H606.119L595.797 93.9568V94.4222H606.885L617.528 78.7057Z" fill="white"></path>
   <path fill-rule="evenodd" clip-rule="evenodd" d="M630.453 94.4222L637.726 83.6641L637.637 78.7057H629.686L619.025 94.4222H630.453Z" fill="white"></path>
   <path fill-rule="evenodd" clip-rule="evenodd" d="M830.456 0.588257H646.73C641.431 0.588257 637.139 4.90395 637.139 10.2187V108.51C637.139 113.83 641.437 118.14 646.73 118.14H830.438C835.387 118.14 839.388 114.123 839.388 109.154V9.57426C839.406 4.61537 835.396 0.588257 830.456 0.588257ZM646.73 1.66228H830.456C834.804 1.66228 838.334 5.20695 838.318 9.57221V109.154C838.318 113.53 834.796 117.066 830.438 117.066H646.73C642.027 117.066 638.208 113.237 638.208 108.51V10.2187C638.208 5.4968 642.022 1.66228 646.73 1.66228Z" fill="#6A6AF4"></path>
   <path fill-rule="evenodd" clip-rule="evenodd" d="M830.812 108.51V9.66378C830.812 4.61587 826.747 1.14319 821.756 1.14319H829.76C834.77 1.14319 838.816 4.61587 838.816 9.66378V108.51L838.282 112.913L830.812 108.51Z" fill="#6A6AF4"></path>
   <path fill-rule="evenodd" clip-rule="evenodd" d="M648.851 9.59212C650.278 9.59212 651.435 8.43005 651.435 6.99656C651.435 5.56307 650.278 4.401 648.851 4.401C647.423 4.401 646.266 5.56307 646.266 6.99656C646.266 8.43005 647.423 9.59212 648.851 9.59212Z" fill="#F95C5E"></path>
   <path fill-rule="evenodd" clip-rule="evenodd" d="M658.923 9.59212C660.35 9.59212 661.508 8.43005 661.508 6.99656C661.508 5.56307 660.35 4.401 658.923 4.401C657.495 4.401 656.338 5.56307 656.338 6.99656C656.338 8.43005 657.495 9.59212 658.923 9.59212Z" fill="#F95C5E"></path>
   <path fill-rule="evenodd" clip-rule="evenodd" d="M669.013 9.59212C670.44 9.59212 671.598 8.43005 671.598 6.99656C671.598 5.56307 670.44 4.401 669.013 4.401C667.585 4.401 666.428 5.56307 666.428 6.99656C666.428 8.43005 667.585 9.59212 669.013 9.59212Z" fill="#F95C5E"></path>
   <path fill-rule="evenodd" clip-rule="evenodd" d="M769.79 12.3846C770.075 12.3848 770.308 12.6086 770.324 12.8905L770.325 12.922L770.253 117.836C770.253 118.133 770.013 118.373 769.718 118.373C769.433 118.373 769.201 118.149 769.184 117.867L769.184 117.836L769.255 12.9213C769.255 12.6247 769.495 12.3844 769.79 12.3846Z" fill="#6A6AF4"></path>
   <path fill-rule="evenodd" clip-rule="evenodd" d="M830.812 12.4563C831.108 12.4563 831.347 12.6967 831.347 12.9933C831.347 13.2793 831.124 13.5131 830.844 13.5294L830.812 13.5303H637.709C637.413 13.5303 637.174 13.2899 637.174 12.9933C637.174 12.7073 637.396 12.4735 637.677 12.4572L637.709 12.4563H830.812Z" fill="#6A6AF4"></path>
   <path fill-rule="evenodd" clip-rule="evenodd" d="M791.771 40.5242H791.361C790.915 40.5242 790.576 40.1662 790.576 39.7365V38.573C790.576 38.1255 790.933 37.7854 791.361 37.7854H791.771C792.216 37.7854 792.555 38.1434 792.555 38.573V39.7365C792.555 40.1662 792.216 40.5242 791.771 40.5242Z" fill="#F95C5E"></path>
   <path fill-rule="evenodd" clip-rule="evenodd" d="M788.9 40.5241H776.938C776.439 40.5241 776.047 40.1303 776.047 39.6291V38.6625C776.047 38.1613 776.439 37.7675 776.938 37.7675H788.9C789.399 37.7675 789.792 38.1613 789.792 38.6625V39.6291C789.792 40.1124 789.399 40.5241 788.9 40.5241Z" fill="#6A6AF4"></path>
   <path fill-rule="evenodd" clip-rule="evenodd" d="M790.148 53.2871H776.938C776.439 53.2871 776.047 52.8932 776.047 52.392V51.4254C776.047 50.9242 776.439 50.5304 776.938 50.5304H790.148C790.647 50.5304 791.039 50.9242 791.039 51.4254V52.392C791.039 52.8932 790.647 53.2871 790.148 53.2871Z" fill="#6A6AF4"></path>
   <path fill-rule="evenodd" clip-rule="evenodd" d="M802.199 49.0448H780.718C780.218 49.0448 779.826 48.6509 779.826 48.1497V47.1831C779.826 46.6819 780.218 46.2881 780.718 46.2881H802.199C802.698 46.2881 803.091 46.6819 803.091 47.1831V48.1497C803.091 48.633 802.698 49.0448 802.199 49.0448Z" fill="#F95C5E"></path>
   <path fill-rule="evenodd" clip-rule="evenodd" d="M798.455 34.1516H776.973C776.474 34.1516 776.082 33.7578 776.082 33.2565V32.2899C776.082 31.7887 776.474 31.3949 776.973 31.3949H798.455C798.954 31.3949 799.346 31.7887 799.346 32.2899V33.2565C799.346 33.7399 798.936 34.1516 798.455 34.1516Z" fill="#F95C5E"></path>
   <path fill-rule="evenodd" clip-rule="evenodd" d="M798.455 66.9092H776.973C776.474 66.9092 776.082 66.5154 776.082 66.0142V65.0476C776.082 64.5464 776.474 64.1526 776.973 64.1526H798.455C798.954 64.1526 799.346 64.5464 799.346 65.0476V66.0142C799.346 66.5154 798.936 66.9092 798.455 66.9092Z" fill="#F95C5E"></path>
   <path fill-rule="evenodd" clip-rule="evenodd" d="M816.069 49.0448H805.284C804.785 49.0448 804.393 48.6509 804.393 48.1497V47.1831C804.393 46.6819 804.785 46.2881 805.284 46.2881H816.069C816.569 46.2881 816.961 46.6819 816.961 47.1831V48.1497C816.961 48.633 816.551 49.0448 816.069 49.0448Z" fill="#F95C5E"></path>
   <path fill-rule="evenodd" clip-rule="evenodd" d="M820.419 44.7844H820.009C819.563 44.7844 819.225 44.4264 819.225 43.9968V42.8333C819.225 42.3858 819.581 42.0457 820.009 42.0457H820.419C820.865 42.0457 821.203 42.4037 821.203 42.8333V43.9968C821.203 44.4264 820.847 44.7844 820.419 44.7844Z" fill="#6A6AF4"></path>
   <path fill-rule="evenodd" clip-rule="evenodd" d="M799.204 44.7844H776.938C776.439 44.7844 776.047 44.3906 776.047 43.8894V42.9227C776.047 42.4215 776.439 42.0277 776.938 42.0277H799.204C799.703 42.0277 800.096 42.4215 800.096 42.9227V43.8894C800.096 44.3727 799.703 44.7844 799.204 44.7844Z" fill="#6A6AF4"></path>
   <path fill-rule="evenodd" clip-rule="evenodd" d="M806.299 40.5241H794.337C793.838 40.5241 793.445 40.1303 793.445 39.6291V38.6625C793.445 38.1613 793.838 37.7675 794.337 37.7675H806.299C806.798 37.7675 807.19 38.1613 807.19 38.6625V39.6291C807.19 40.1124 806.798 40.5241 806.299 40.5241Z" fill="#6A6AF4"></path>
   <path fill-rule="evenodd" clip-rule="evenodd" d="M817.246 44.7845H802.057C801.558 44.7845 801.166 44.3906 801.166 43.8894V42.9049C801.166 42.4037 801.558 42.0099 802.057 42.0099H817.246C817.745 42.0099 818.137 42.4037 818.137 42.9049V43.8894C818.137 44.3906 817.727 44.7845 817.246 44.7845Z" fill="#F95C5E"></path>
   <path fill-rule="evenodd" clip-rule="evenodd" d="M788.9 77.7211H776.938C776.439 77.7211 776.047 77.3273 776.047 76.8261V75.8595C776.047 75.3583 776.439 74.9645 776.938 74.9645H788.9C789.399 74.9645 789.792 75.3583 789.792 75.8595V76.8261C789.792 77.3273 789.399 77.7211 788.9 77.7211Z" fill="#6A6AF4"></path>
   <path fill-rule="evenodd" clip-rule="evenodd" d="M790.148 90.502H776.938C776.439 90.502 776.047 90.1082 776.047 89.607V88.6404C776.047 88.1392 776.439 87.7454 776.938 87.7454H790.148C790.647 87.7454 791.039 88.1392 791.039 88.6404V89.607C791.039 90.0903 790.647 90.502 790.148 90.502Z" fill="#6A6AF4"></path>
   <path fill-rule="evenodd" clip-rule="evenodd" d="M802.199 86.2418H780.718C780.218 86.2418 779.826 85.848 779.826 85.3467V84.3801C779.826 83.8789 780.218 83.4851 780.718 83.4851H802.199C802.698 83.4851 803.091 83.8789 803.091 84.3801V85.3467C803.091 85.848 802.698 86.2418 802.199 86.2418Z" fill="#F95C5E"></path>
   <path fill-rule="evenodd" clip-rule="evenodd" d="M816.069 86.2418H805.284C804.785 86.2418 804.393 85.848 804.393 85.3467V84.3801C804.393 83.8789 804.785 83.4851 805.284 83.4851H816.069C816.569 83.4851 816.961 83.8789 816.961 84.3801V85.3467C816.961 85.848 816.551 86.2418 816.069 86.2418Z" fill="#F95C5E"></path>
   <path fill-rule="evenodd" clip-rule="evenodd" d="M820.419 81.9994H820.009C819.563 81.9994 819.225 81.6414 819.225 81.2118V80.0482C819.225 79.6007 819.581 79.2606 820.009 79.2606H820.419C820.865 79.2606 821.203 79.6186 821.203 80.0482V81.2118C821.203 81.6414 820.847 81.9994 820.419 81.9994Z" fill="#6A6AF4"></path>
   <path fill-rule="evenodd" clip-rule="evenodd" d="M823.913 77.7212H823.503C823.057 77.7212 822.719 77.3632 822.719 76.9336V75.77C822.719 75.3225 823.075 74.9824 823.503 74.9824H823.913C824.359 74.9824 824.698 75.3404 824.698 75.77V76.9336C824.698 77.3632 824.341 77.7212 823.913 77.7212Z" fill="#6A6AF4"></path>
   <path fill-rule="evenodd" clip-rule="evenodd" d="M799.204 81.9814H776.938C776.439 81.9814 776.047 81.5876 776.047 81.0864V80.1198C776.047 79.6185 776.439 79.2247 776.938 79.2247H799.204C799.703 79.2247 800.096 79.6185 800.096 80.1198V81.0864C800.096 81.5876 799.703 81.9814 799.204 81.9814Z" fill="#6A6AF4"></path>
   <path fill-rule="evenodd" clip-rule="evenodd" d="M806.3 77.7211H791.45C790.951 77.7211 790.559 77.3273 790.559 76.8261V75.8595C790.559 75.3583 790.951 74.9645 791.45 74.9645H806.3C806.799 74.9645 807.191 75.3583 807.191 75.8595V76.8261C807.191 77.3273 806.799 77.7211 806.3 77.7211Z" fill="#F95C5E"></path>
   <path fill-rule="evenodd" clip-rule="evenodd" d="M821.113 77.7211H809.151C808.652 77.7211 808.26 77.3273 808.26 76.8261V75.8595C808.26 75.3583 808.652 74.9645 809.151 74.9645H821.113C821.612 74.9645 822.004 75.3583 822.004 75.8595V76.8261C822.004 77.3273 821.612 77.7211 821.113 77.7211Z" fill="#F95C5E"></path>
   <path fill-rule="evenodd" clip-rule="evenodd" d="M791.771 73.604H791.361C790.915 73.604 790.576 73.246 790.576 72.8164V71.6529C790.576 71.2053 790.933 70.8652 791.361 70.8652H791.771C792.216 70.8652 792.555 71.2232 792.555 71.6529V72.8164C792.555 73.246 792.216 73.604 791.771 73.604Z" fill="#F95C5E"></path>
   <path fill-rule="evenodd" clip-rule="evenodd" d="M788.9 73.6041H776.938C776.439 73.6041 776.047 73.2103 776.047 72.7091V71.7424C776.047 71.2412 776.439 70.8474 776.938 70.8474H788.9C789.399 70.8474 789.792 71.2412 789.792 71.7424V72.7091C789.792 73.1924 789.399 73.6041 788.9 73.6041Z" fill="#6A6AF4"></path>
   <path fill-rule="evenodd" clip-rule="evenodd" d="M806.299 73.6041H794.337C793.838 73.6041 793.445 73.2103 793.445 72.7091V71.7424C793.445 71.2412 793.838 70.8474 794.337 70.8474H806.299C806.798 70.8474 807.19 71.2412 807.19 71.7424V72.7091C807.19 73.1924 806.798 73.6041 806.299 73.6041Z" fill="#6A6AF4"></path>
   <path fill-rule="evenodd" clip-rule="evenodd" d="M817.246 81.9993H802.057C801.558 81.9993 801.166 81.6055 801.166 81.1043V80.1198C801.166 79.6185 801.558 79.2247 802.057 79.2247H817.246C817.745 79.2247 818.137 79.6185 818.137 80.1198V81.1043C818.137 81.5876 817.727 81.9993 817.246 81.9993Z" fill="#F95C5E"></path>
   <path fill-rule="evenodd" clip-rule="evenodd" d="M742.711 82.429H721.853C720.333 82.429 719.107 83.6663 719.107 85.1856V106.648C719.107 108.168 720.333 109.405 721.853 109.405H742.711C744.231 109.405 745.456 108.168 745.456 106.648V85.1856C745.456 83.6594 744.224 82.429 742.711 82.429ZM721.853 83.503H742.711C743.634 83.503 744.386 84.2539 744.386 85.1856V106.648C744.386 107.576 743.638 108.331 742.711 108.331H721.853C720.925 108.331 720.177 107.576 720.177 106.648V85.1856C720.177 84.2581 720.925 83.503 721.853 83.503Z" fill="#6A6AF4"></path>
   <path fill-rule="evenodd" clip-rule="evenodd" d="M713.794 85.9733C714.09 85.9733 714.329 86.2137 714.329 86.5103C714.329 86.7963 714.107 87.03 713.826 87.0464L713.794 87.0473H697.447C697.152 87.0473 696.912 86.8069 696.912 86.5103C696.912 86.2243 697.135 85.9905 697.415 85.9742L697.447 85.9733H713.794Z" fill="#6A6AF4"></path>
   <path fill-rule="evenodd" clip-rule="evenodd" d="M713.902 93.1871C714.197 93.1871 714.437 93.4276 714.437 93.7241C714.437 94.0101 714.214 94.2439 713.934 94.2602L713.902 94.2612H666.215C665.919 94.2612 665.68 94.0207 665.68 93.7241C665.68 93.4382 665.902 93.2044 666.183 93.188L666.215 93.1871H713.902Z" fill="#6A6AF4"></path>
   <path fill-rule="evenodd" clip-rule="evenodd" d="M713.902 97.4832C714.197 97.4832 714.437 97.7236 714.437 98.0202C714.437 98.3062 714.214 98.5399 713.934 98.5563L713.902 98.5572H666.215C665.919 98.5572 665.68 98.3167 665.68 98.0202C665.68 97.7342 665.902 97.5004 666.183 97.4841L666.215 97.4832H713.902Z" fill="#6A6AF4"></path>
   <path fill-rule="evenodd" clip-rule="evenodd" d="M713.902 101.779C714.197 101.779 714.437 102.02 714.437 102.316C714.437 102.602 714.214 102.836 713.934 102.852L713.902 102.853H666.215C665.919 102.853 665.68 102.613 665.68 102.316C665.68 102.03 665.902 101.797 666.183 101.78L666.215 101.779H713.902Z" fill="#6A6AF4"></path>
   <path fill-rule="evenodd" clip-rule="evenodd" d="M713.902 106.183C714.197 106.183 714.437 106.423 714.437 106.72C714.437 107.006 714.214 107.24 713.934 107.256L713.902 107.257H666.215C665.919 107.257 665.68 107.016 665.68 106.72C665.68 106.434 665.902 106.2 666.183 106.184L666.215 106.183H713.902Z" fill="#6A6AF4"></path>
   <path fill-rule="evenodd" clip-rule="evenodd" d="M743.988 83.143C744.196 82.9323 744.534 82.9307 744.744 83.1394C744.946 83.3397 744.955 83.6611 744.772 83.8729L744.748 83.8988L720.628 108.351C720.42 108.561 720.081 108.563 719.871 108.354C719.67 108.154 719.66 107.833 719.844 107.621L719.868 107.595L743.988 83.143Z" fill="#6A6AF4"></path>
   <path fill-rule="evenodd" clip-rule="evenodd" d="M760.331 21H645.669C644.19 21 643 23.8705 643 27.4383V70.5617C643 74.1295 644.19 77 645.669 77H760.331C761.81 77 763 74.1295 763 70.5617V27.4383C763 23.8705 761.81 21 760.331 21ZM645.597 22H760.403C761.29 22 762 23.8169 762 26.0867V71.9133C762 74.1831 761.29 76 760.403 76H645.597C644.71 76 644 74.1831 644 71.9133V26.0867C644 23.8169 644.71 22 645.597 22Z" fill="#6A6AF4"></path>
   <path fill-rule="evenodd" clip-rule="evenodd" d="M780.185 124.441C780.933 124.513 781.789 124.584 782.698 124.674C782.752 124.477 782.805 124.28 782.859 124.083L782.948 108.17C782.948 107.06 783.857 106.165 784.962 106.165L795.694 106.218C801.025 102.513 807.46 100.329 814.377 100.365C832.24 100.472 846.858 115.276 846.822 133.212L779.81 133.159C777.742 133.159 776.049 131.458 776.067 129.382V128.164C776.102 125.963 777.992 124.244 780.185 124.441Z" fill="#F95C5E"></path>
   <path fill-rule="evenodd" clip-rule="evenodd" d="M789.505 111.656C789.705 111.437 790.043 111.422 790.261 111.622C790.479 111.823 790.493 112.162 790.294 112.381C787.54 115.4 785.801 118.264 784.873 120.895C784.538 121.847 784.33 122.712 784.225 123.48C784.184 123.789 784.161 124.054 784.153 124.276L784.15 124.369L784.171 124.377C789.332 126.29 795.913 127.721 803.584 128.726L803.852 128.761C809.84 129.534 816.231 130.019 822.731 130.266L823.244 130.285C827.57 130.442 831.426 130.478 834.541 130.444L835.32 130.433L835.54 130.429L835.598 129.949C835.614 129.815 835.631 129.682 835.647 129.55L835.697 129.162L835.755 128.728L835.798 128.422C835.859 128.006 835.912 127.702 835.957 127.521L835.964 127.493C836.596 125.031 837.852 123.389 839.545 122.459C840.884 121.723 842.272 121.524 843.444 121.616L843.544 121.625C843.582 121.629 843.613 121.633 843.635 121.636C843.927 121.678 844.13 121.95 844.089 122.244C844.048 122.527 843.795 122.727 843.515 122.703L843.431 122.693C843.412 122.691 843.388 122.689 843.36 122.687C842.378 122.61 841.188 122.78 840.059 123.401C838.651 124.175 837.594 125.538 837.027 127.656L836.999 127.765C836.961 127.909 836.904 128.245 836.837 128.713L836.8 128.978C836.786 129.082 836.772 129.19 836.757 129.302L836.708 129.685C836.684 129.88 836.659 130.079 836.635 130.28L836.55 131.017C836.521 131.272 836.317 131.47 836.064 131.492L836.024 131.494L835.573 131.503C835.424 131.506 835.258 131.509 835.078 131.511L834.375 131.52C831.276 131.551 827.468 131.513 823.205 131.359C816.498 131.116 809.896 130.625 803.715 129.826C795.675 128.787 788.798 127.284 783.435 125.248C783.245 125.175 783.112 125.001 783.092 124.798L783.087 124.728L783.086 124.704C783.069 124.37 783.087 123.911 783.166 123.335C783.28 122.494 783.505 121.558 783.865 120.537C784.841 117.767 786.656 114.779 789.505 111.656Z" fill="#6A6AF4"></path>
   <path fill-rule="evenodd" clip-rule="evenodd" d="M681.26 126.786H676.483L659.351 81.516C658.406 79.0278 655.5 79.0636 654.609 81.5876L638.547 126.786H633.894C632.931 126.786 632.129 127.753 632.129 128.952V131.816C632.129 133.015 632.913 133.982 633.894 133.982H681.26C682.223 133.982 683.025 133.015 683.025 131.816V128.952C683.008 127.753 682.223 126.786 681.26 126.786Z" fill="#F95C5E"></path>
   <path fill-rule="evenodd" clip-rule="evenodd" d="M675.68 126.249C675.976 126.249 676.215 126.489 676.215 126.786C676.215 127.072 675.992 127.306 675.712 127.322L675.68 127.323H639.259C638.964 127.323 638.725 127.083 638.725 126.786C638.725 126.5 638.947 126.266 639.228 126.25L639.259 126.249H675.68Z" fill="#6A6AF4"></path>
   <path fill-rule="evenodd" clip-rule="evenodd" d="M674.023 120.145H640.918L643.592 112.573H671.171L674.023 120.145Z" fill="white"></path>
   <path fill-rule="evenodd" clip-rule="evenodd" d="M646.73 103.784H667.784L664.914 96.2122H649.422L646.73 103.784Z" fill="white"></path>
   <path fill-rule="evenodd" clip-rule="evenodd" d="M714.776 129.972H712.12L702.6 104.822C702.083 103.444 700.461 103.462 699.961 104.858L691.048 129.972H688.463C687.928 129.972 687.482 130.509 687.482 131.172V132.765C687.482 133.427 687.928 133.964 688.463 133.964H714.776C715.311 133.964 715.756 133.427 715.756 132.765V131.172C715.756 130.509 715.328 129.972 714.776 129.972Z" fill="#F95C5E"></path>
   <path fill-rule="evenodd" clip-rule="evenodd" d="M711.692 129.435C711.988 129.435 712.227 129.676 712.227 129.972C712.227 130.258 712.005 130.492 711.724 130.509L711.692 130.509H691.459C691.163 130.509 690.924 130.269 690.924 129.972C690.924 129.686 691.146 129.453 691.427 129.436L691.459 129.435H711.692Z" fill="#6A6AF4"></path>
   <path fill-rule="evenodd" clip-rule="evenodd" d="M710.765 126.285H692.385L693.864 122.078H709.178L710.765 126.285Z" fill="white"></path>
   <path fill-rule="evenodd" clip-rule="evenodd" d="M695.611 117.209H707.306L705.701 113.003H697.091L695.611 117.209Z" fill="white"></path>
   <path fill-rule="evenodd" clip-rule="evenodd" d="M868.428 132.854C868.723 132.854 868.963 133.095 868.963 133.391C868.963 133.677 868.74 133.911 868.46 133.927L868.428 133.928H571.517C571.222 133.928 570.982 133.688 570.982 133.391C570.982 133.105 571.205 132.872 571.486 132.855L571.517 132.854H868.428Z" fill="#6A6AF4"></path>
   <path d="M659 62.8202L662.26 59.8702C663.464 61.384 664.9 62.4708 666.763 62.4708C668.354 62.4708 669.17 61.5393 669.17 60.3748C669.17 56.9591 659.815 58.24 659.815 51.3697C659.815 47.9152 662.726 45.3146 666.802 45.3146C669.791 45.3146 672.508 46.7507 673.905 48.6527L670.645 51.525C669.635 50.2829 668.354 49.2737 666.841 49.2737C665.288 49.2737 664.551 50.1276 664.551 51.1368C664.551 54.4749 673.905 53.3105 673.905 60.0643C673.827 64.1787 670.528 66.43 666.841 66.43C663.347 66.43 660.863 65.0326 659 62.8202Z" fill="#000091"></path>
   <path d="M732.301 62.8203L735.561 59.8703C736.765 61.3841 738.201 62.471 740.064 62.471C741.655 62.471 742.47 61.5394 742.47 60.3749C742.47 56.9592 733.116 58.2401 733.116 51.3698C733.116 47.9153 736.027 45.3147 740.103 45.3147C743.091 45.3147 745.808 46.7509 747.206 48.6528L743.945 51.5251C742.936 50.283 741.655 49.2738 740.141 49.2738C738.589 49.2738 737.851 50.1278 737.851 51.137C737.851 54.4751 747.206 53.3106 747.206 60.0644C747.128 64.1788 743.829 66.4301 740.141 66.4301C736.648 66.4301 734.164 65.0328 732.301 62.8203Z" fill="#000091"></path>
   <path d="M724.253 57.1918V46.0907H729.221V56.9589C729.221 62.82 725.806 66.4298 720.061 66.4298C714.316 66.4298 710.939 62.82 710.939 56.9589V46.0907H715.908V57.1918C715.908 60.0253 717.383 61.772 720.1 61.772C722.778 61.772 724.253 60.0253 724.253 57.1918Z" fill="#000091"></path>
   <path d="M702.082 65.6537V46.0909H707.012V65.6537H702.082Z" fill="#000091"></path>
   <path d="M701.344 39.4522C701.344 41.1989 702.819 42.6739 704.565 42.6739C706.312 42.6739 707.748 41.1989 707.748 39.4522C707.748 37.7056 706.312 36.2306 704.565 36.2306C702.819 36.2306 701.344 37.7056 701.344 39.4522Z" fill="#F95C5E"></path>
   <path d="M686.314 65.6533V46.0905H691.244V48.0313C692.525 46.7116 694.194 45.7024 696.406 45.7024C697.066 45.7024 697.648 45.8188 698.114 45.9741V50.826C697.493 50.6707 696.833 50.5543 695.941 50.5543C693.534 50.5543 691.981 51.874 691.244 53.1161V65.6533H686.314Z" fill="#000091"></path>
   <path d="M677.547 65.6539V46.0911H682.476V65.6539H677.547Z" fill="#000091"></path>
   <path d="M676.795 39.4522C676.795 41.1989 678.27 42.6739 680.017 42.6739C681.763 42.6739 683.199 41.1989 683.199 39.4522C683.199 37.7056 681.763 36.2306 680.017 36.2306C678.27 36.2306 676.795 37.7056 676.795 39.4522Z" fill="#F95C5E"></path>
   <path d="M698.816 38.5841C699.1 36.7427 700.269 35.1685 701.865 34.3185C695.924 31.2021 688.765 31.2274 682.844 34.3942C684.406 35.2875 685.509 36.8911 685.743 38.724C689.849 36.7069 694.677 36.6602 698.816 38.5841Z" fill="#000091"></path>
</svg>