<svg width="352" height="171" viewBox="0 0 352 171" fill="none" xmlns="http://www.w3.org/2000/svg">
<path fill-rule="evenodd" clip-rule="evenodd" d="M83.2433 109.594C83.8145 109.102 84.11 108.373 84.0115 107.624C82.416 93.2824 75.8763 78.5072 65.6729 73.0896C55.1936 67.5144 48.0236 82.9792 62.5606 97.3407C73.4929 108.156 79.3431 109.909 81.569 110.106C82.1993 110.185 82.7903 109.988 83.2433 109.594Z" fill="#6A6AF4"/>
<path fill-rule="evenodd" clip-rule="evenodd" d="M56.7634 73.9739C56.9837 73.7512 57.3373 73.7404 57.5706 73.943L57.6183 73.9885L57.9253 74.2966C58.1652 74.5391 58.4399 74.8195 58.7466 75.1362L59.1235 75.5269C60.032 76.4721 61.0301 77.5356 62.0969 78.7034C65.4656 82.3909 68.8343 86.362 71.9796 90.4669C75.748 95.3851 78.9379 100.165 81.3654 104.685C82.1279 106.105 82.8107 107.491 83.4096 108.842C83.5419 109.141 83.4073 109.49 83.1089 109.622C82.8106 109.754 82.4615 109.62 82.3292 109.321C81.7428 107.999 81.0731 106.639 80.3242 105.244C77.93 100.786 74.7741 96.0574 71.0415 91.1859C68.0302 87.2558 64.8104 83.4466 61.583 79.8943L61.2244 79.5007C60.1088 78.2795 59.0693 77.1735 58.13 76.1991L57.7194 75.7749C57.603 75.6553 57.4919 75.5415 57.3862 75.4337L56.919 74.9607L56.7679 74.8097C56.5359 74.5802 56.5338 74.206 56.7634 73.9739Z" fill="#000091"/>
<path fill-rule="evenodd" clip-rule="evenodd" d="M60.4139 93.5189L60.6558 93.5148C61.0493 93.5115 61.5592 93.5211 62.1723 93.5515L62.2885 93.5574C63.3912 93.6154 64.5936 93.7292 65.8736 93.9118C69.3826 94.4125 72.9331 95.3457 76.3473 96.8174C76.647 96.9466 76.7853 97.2943 76.6561 97.594C76.5269 97.8938 76.1792 98.0321 75.8795 97.9029C72.5684 96.4756 69.1178 95.5687 65.7067 95.082C64.4626 94.9045 63.2951 94.794 62.2264 94.7378L62.0054 94.7268C61.4651 94.7018 61.0156 94.6939 60.668 94.6967L60.454 94.7002C60.1278 94.7113 59.8544 94.4558 59.8434 94.1296C59.8323 93.8034 60.0877 93.53 60.4139 93.5189Z" fill="#000091"/>
<path fill-rule="evenodd" clip-rule="evenodd" d="M68.9479 75.6677C69.2321 75.5073 69.5926 75.6077 69.7529 75.892L69.9216 76.1952C69.983 76.3065 70.0507 76.4298 70.1242 76.5647L70.3328 76.9493C70.5702 77.3893 70.8263 77.8714 71.0972 78.3905C72.1032 80.318 73.1091 82.3609 74.0485 84.43C74.7918 86.0673 75.4628 87.6551 76.0439 89.1705L76.1683 89.4974C77.7652 93.7263 78.5625 97.1393 78.336 99.5048C78.3048 99.8297 78.0163 100.068 77.6914 100.037C77.3665 100.006 77.1284 99.7171 77.1595 99.3921C77.3694 97.2001 76.5585 93.8132 74.9404 89.5937C74.3683 88.1019 73.7064 86.5356 72.9724 84.9187C72.0427 82.8709 71.0461 80.847 70.0495 78.9374L69.8121 78.4849C69.6308 78.1409 69.4573 77.8156 69.2928 77.5109L69.0438 77.0522L68.7592 76.5364C68.7435 76.5083 68.7316 76.487 68.7236 76.4728C68.5632 76.1885 68.6636 75.8281 68.9479 75.6677Z" fill="#000091"/>
<path fill-rule="evenodd" clip-rule="evenodd" d="M69.6441 102.403L69.9467 102.398C70.6394 102.391 71.5238 102.418 72.5354 102.502C74.2006 102.641 75.8469 102.91 77.3919 103.341C78.8697 103.752 80.1943 104.297 81.3271 104.993C81.6052 105.164 81.6922 105.528 81.5214 105.806C81.3507 106.084 80.9868 106.171 80.7086 106C79.6778 105.367 78.453 104.863 77.0746 104.479C75.608 104.07 74.0332 103.813 72.4372 103.68C71.4212 103.595 70.5409 103.571 69.8719 103.581L69.6742 103.585C69.3481 103.597 69.0738 103.343 69.0617 103.017C69.05 102.702 69.2862 102.436 69.5956 102.406L69.6441 102.403Z" fill="#000091"/>
<path fill-rule="evenodd" clip-rule="evenodd" d="M96.2053 96.4735C96.9932 97.0054 97.8797 97.1039 98.5888 96.7099C112.279 89.2632 123.822 75.3744 123.999 60.3825C124.196 44.9572 104.833 41.7263 97.86 65.6228C92.6006 83.5895 93.8613 91.6863 94.8068 94.5822C95.0629 95.3506 95.575 96.0401 96.2053 96.4735Z" fill="#6A6AF4"/>
<path fill-rule="evenodd" clip-rule="evenodd" d="M118.423 50.2871C118.711 50.1336 119.069 50.2426 119.222 50.5306C119.376 50.8186 119.267 51.1766 118.979 51.3302C112.914 54.5642 107.881 62.3178 103.847 73.2144C101.921 78.4187 100.351 83.9996 99.1099 89.581L98.9932 90.1104C98.6486 91.6879 98.3521 93.169 98.1021 94.528L98.0205 94.9764C97.9436 95.4031 97.8758 95.7938 97.8167 96.1459L97.7064 96.8231L97.677 97.0138C97.6291 97.3367 97.3286 97.5596 97.0057 97.5117C96.6944 97.4655 96.4761 97.1843 96.5038 96.8748L96.512 96.8136L96.5818 96.3704L96.6314 96.0683C96.6829 95.7588 96.7413 95.4185 96.8068 95.0493L96.8573 94.7669C97.1531 93.1243 97.5182 91.2946 97.9562 89.3245C99.2077 83.6945 100.792 78.0638 102.739 72.8041C106.864 61.6587 112.035 53.6933 118.423 50.2871Z" fill="#000091"/>
<path fill-rule="evenodd" clip-rule="evenodd" d="M122.991 62.1672C123.289 62.0348 123.639 62.1693 123.771 62.4676C123.903 62.766 123.769 63.1152 123.471 63.2476C120.449 64.5886 116.973 66.2705 113.608 68.1208L113.265 68.31C108.552 70.9244 104.929 73.4163 102.904 75.6172C102.683 75.8574 102.309 75.873 102.069 75.652C101.829 75.431 101.814 75.0571 102.035 74.8169C104.192 72.4719 107.962 69.8882 112.861 67.1828L113.038 67.085C116.437 65.2164 119.942 63.5207 122.991 62.1672Z" fill="#000091"/>
<path fill-rule="evenodd" clip-rule="evenodd" d="M98.0794 65.3908C98.1096 65.0658 98.3975 64.8269 98.7225 64.8571C99.0475 64.8873 99.2864 65.1752 99.2562 65.5002L99.2116 65.9903C98.5021 73.9616 98.7083 80.3355 100.359 82.5024C100.557 82.7621 100.507 83.1329 100.247 83.3307C99.9876 83.5285 99.6168 83.4784 99.419 83.2188C98.312 81.7656 97.7824 78.968 97.6758 75.0705C97.5962 72.1638 97.7587 68.8423 98.0794 65.3908Z" fill="#000091"/>
<path fill-rule="evenodd" clip-rule="evenodd" d="M116.636 79.5232C116.891 79.3192 117.263 79.3604 117.467 79.6152C117.671 79.87 117.63 80.2419 117.375 80.4459C115.54 81.9155 112.894 83.4346 109.643 84.9709C107.385 86.0372 104.97 87.0492 102.555 87.9749L102.169 88.122C101.533 88.3631 100.935 88.5837 100.384 88.7822L99.8704 88.9652L99.3295 89.1534C99.0204 89.2581 98.6849 89.0924 98.5802 88.7832C98.4793 88.4851 98.6298 88.1625 98.9178 88.0459L99.5595 87.8215L99.8217 87.7281C100.518 87.4788 101.295 87.1918 102.132 86.8712C104.521 85.9553 106.91 84.9544 109.138 83.9021C112.313 82.4018 114.888 80.9237 116.636 79.5232Z" fill="#000091"/>
<path fill-rule="evenodd" clip-rule="evenodd" d="M106.24 106.405C106.566 106.378 106.851 106.619 106.879 106.944C106.906 107.269 106.665 107.555 106.34 107.583C102.48 107.908 99.4137 110.016 97.0458 113.351C96.1314 114.639 95.3874 116.023 94.8021 117.406C94.6179 117.842 94.4618 118.249 94.3326 118.618L94.2905 118.74C94.2588 118.833 94.2305 118.919 94.2055 118.997L94.1705 119.108C94.1515 119.17 94.1395 119.211 94.1343 119.229C94.0464 119.544 93.7203 119.727 93.406 119.639C93.0917 119.551 92.9082 119.225 92.9961 118.911L93.0386 118.767C93.0672 118.674 93.1054 118.555 93.1535 118.413L93.172 118.358C93.3177 117.931 93.4977 117.456 93.7137 116.946C94.3303 115.488 95.1142 114.031 96.0821 112.667C98.6351 109.071 101.992 106.763 106.24 106.405Z" fill="#000091"/>
<path fill-rule="evenodd" clip-rule="evenodd" d="M106.513 106.747C107.203 106.652 107.53 104.888 107.243 102.808C106.957 100.728 106.166 99.1183 105.476 99.2133C104.786 99.3083 104.459 101.072 104.745 103.152C105.032 105.232 105.823 106.842 106.513 106.747Z" fill="#F95C5E"/>
<path fill-rule="evenodd" clip-rule="evenodd" d="M109.94 105.43C111.434 104.215 112.323 102.833 111.925 102.344C111.527 101.854 109.993 102.442 108.499 103.657C107.004 104.871 106.116 106.253 106.514 106.743C106.912 107.233 108.446 106.645 109.94 105.43Z" fill="#F95C5E"/>
<path fill-rule="evenodd" clip-rule="evenodd" d="M106.521 106.664C106.84 106.045 105.587 104.763 103.721 103.799C101.856 102.835 100.085 102.556 99.765 103.174C99.4455 103.793 100.699 105.076 102.564 106.039C104.43 107.003 106.201 107.283 106.521 106.664Z" fill="#F95C5E"/>
<path fill-rule="evenodd" clip-rule="evenodd" d="M112.659 110.058C112.959 109.502 111.829 108.31 110.135 107.395C108.441 106.479 106.824 106.187 106.524 106.742C106.224 107.297 107.354 108.49 109.048 109.405C110.742 110.321 112.359 110.613 112.659 110.058Z" fill="#F95C5E"/>
<path fill-rule="evenodd" clip-rule="evenodd" d="M106.077 110.417C106.886 108.67 107.077 107.038 106.505 106.773C105.932 106.508 104.812 107.71 104.003 109.457C103.194 111.205 103.003 112.836 103.575 113.102C104.148 113.367 105.268 112.165 106.077 110.417Z" fill="#F95C5E"/>
<path fill-rule="evenodd" clip-rule="evenodd" d="M74.6046 61.8286C74.807 61.5725 75.1786 61.529 75.4346 61.7313L75.5304 61.8094C75.5557 61.8305 75.5847 61.8549 75.6173 61.8825L75.7274 61.977C75.8415 62.0759 75.9675 62.1882 76.1048 62.3139C76.6238 62.7892 77.2005 63.3619 77.8203 64.0333C79.5854 65.9453 81.3483 68.268 82.9924 71.012C86.1921 76.3524 88.5479 82.6243 89.7072 89.8561C91.1356 98.7669 90.6668 108.694 87.953 119.665C87.8746 119.982 87.5543 120.175 87.2375 120.097C86.9207 120.018 86.7274 119.698 86.8057 119.381C89.4819 108.563 89.9431 98.7951 88.5402 90.0432C87.4054 82.9642 85.1029 76.8341 81.9786 71.6195C80.3776 68.9475 78.6637 66.6893 76.952 64.8352C76.3922 64.2289 75.871 63.7081 75.4001 63.2717L75.3066 63.1856C75.1561 63.0478 75.021 62.928 74.9023 62.8262L74.7776 62.7206C74.742 62.691 74.7166 62.6704 74.7019 62.6587C74.4458 62.4564 74.4023 62.0847 74.6046 61.8286Z" fill="#000091"/>
<path fill-rule="evenodd" clip-rule="evenodd" d="M76.7975 63.396C77.9812 62.7048 77.8026 60.1945 76.3984 57.7891C74.9942 55.3836 72.8962 53.994 71.7125 54.6852C70.5287 55.3764 70.7074 57.8867 72.1116 60.2921C73.5158 62.6975 75.6137 64.0872 76.7975 63.396Z" fill="#F95C5E"/>
<path fill-rule="evenodd" clip-rule="evenodd" d="M77.1114 63.3783C77.1387 62.0077 74.9036 60.8516 72.1192 60.7961C69.3348 60.7407 67.0555 61.8068 67.0282 63.1774C67.0009 64.5481 69.236 65.7041 72.0204 65.7596C74.8048 65.8151 77.0842 64.7489 77.1114 63.3783Z" fill="#F95C5E"/>
<path fill-rule="evenodd" clip-rule="evenodd" d="M81.6101 61.2325C83.1143 59.2465 83.5464 57.0401 82.5752 56.3043C81.6039 55.5685 79.5972 56.582 78.093 58.568C76.5888 60.5541 76.1567 62.7605 77.1279 63.4963C78.0991 64.2321 80.1058 63.2186 81.6101 61.2325Z" fill="#F95C5E"/>
<path fill-rule="evenodd" clip-rule="evenodd" d="M79.2125 70.6407C80.3217 70.1364 80.3849 67.8889 79.3538 65.6208C78.3226 63.3527 76.5876 61.923 75.4785 62.4273C74.3693 62.9317 74.3061 65.1792 75.3372 67.4473C76.3684 69.7153 78.1034 71.1451 79.2125 70.6407Z" fill="#F95C5E"/>
<path fill-rule="evenodd" clip-rule="evenodd" d="M83.1118 63.7838C83.2274 62.6909 81.5056 61.6129 79.2661 61.376C77.0266 61.139 75.1174 61.8329 75.0018 62.9258C74.8862 64.0186 76.608 65.0966 78.8475 65.3335C81.087 65.5705 82.9962 64.8766 83.1118 63.7838Z" fill="#F95C5E"/>
<path fill-rule="evenodd" clip-rule="evenodd" d="M66.874 121.552L76.132 163.002H105.541L114.799 121.552C115.331 119.188 113.834 116.864 111.785 116.864H69.8878C67.8392 116.844 66.3422 119.169 66.874 121.552Z" fill="white"/>
<path fill-rule="evenodd" clip-rule="evenodd" d="M111.786 116.273L69.8942 116.273C67.4296 116.249 65.6896 118.954 66.298 121.681L75.556 163.131C75.6164 163.401 75.856 163.593 76.1328 163.593H105.542C105.818 163.593 106.058 163.401 106.118 163.131L115.376 121.681C115.985 118.976 114.246 116.273 111.786 116.273ZM111.787 117.454L111.838 117.455C113.451 117.496 114.673 119.424 114.224 121.423L105.069 162.411H76.6068L67.4522 121.423C67.0022 119.407 68.223 117.48 69.8321 117.455L111.787 117.454Z" fill="#000091"/>
<path fill-rule="evenodd" clip-rule="evenodd" d="M314.417 58.2161L173.617 59.2405C171.371 59.2602 169.342 60.5604 168.377 62.5698L122.974 155.693L33.8608 155.772C33.8608 155.772 31.8713 168.814 48.4963 169.621L116.276 169.405L116.08 169.799L271.121 169.247L319.735 66.5099C321.567 62.6486 318.711 58.1767 314.417 58.2161Z" fill="#6A6AF4"/>
<path fill-rule="evenodd" clip-rule="evenodd" d="M303.58 57.6246C308.262 57.6032 311.39 62.4294 309.494 66.673L309.435 66.8014L261.55 168.14C261.41 168.435 261.058 168.561 260.763 168.422C260.479 168.287 260.351 167.956 260.467 167.668L260.481 167.635L308.367 66.2966C310.013 62.8096 307.446 58.7889 303.585 58.8066C303.259 58.8081 302.993 58.5447 302.992 58.2183C302.99 57.8919 303.254 57.6261 303.58 57.6246Z" fill="white"/>
<path fill-rule="evenodd" clip-rule="evenodd" d="M137.786 151.28L254.24 150.689C258.317 150.669 262.04 148.325 263.833 144.661L298.914 70.3512C300.411 67.2977 298.087 63.791 294.561 63.8304L179.152 64.6775C177.32 64.6972 175.645 65.7019 174.857 67.2977L134.26 145.665C132.98 148.266 134.891 151.3 137.786 151.28Z" fill="white"/>
<path fill-rule="evenodd" clip-rule="evenodd" d="M254.337 104.886H233.478C232.118 104.886 231.567 103.783 232.237 102.423L237.713 91.3715C238.382 90.0122 240.037 88.9089 241.416 88.9089H262.276C263.635 88.9089 264.186 90.0122 263.517 91.3715L258.041 102.423C257.371 103.783 255.716 104.886 254.337 104.886Z" fill="#6A6AF4"/>
<path fill-rule="evenodd" clip-rule="evenodd" d="M256.445 88.2981C257.702 88.2981 258.309 89.3634 257.785 90.5027L257.762 90.5509L251.219 103.717C250.723 104.685 249.555 105.437 248.507 105.437C248.181 105.437 247.916 105.173 247.916 104.846C247.916 104.532 248.162 104.274 248.472 104.256L248.507 104.255C249.084 104.255 249.826 103.787 250.139 103.232L250.164 103.185L256.702 90.029C256.895 89.632 256.811 89.4801 256.445 89.4801C256.119 89.4801 255.854 89.2155 255.854 88.8891C255.854 88.5627 256.119 88.2981 256.445 88.2981Z" fill="white"/>
<path fill-rule="evenodd" clip-rule="evenodd" d="M252.742 104.709L247.502 98.9364C247.049 98.4439 246.241 98.5818 245.985 99.1925L242.44 107.191C242.125 107.9 242.755 108.649 243.503 108.452L246.498 107.703L246.832 113.219C246.872 114.007 247.62 114.559 248.389 114.401L250.575 113.928C251.324 113.771 251.777 112.983 251.52 112.254L249.669 106.895L252.308 106.226C252.958 106.048 253.215 105.221 252.742 104.709Z" fill="#6A6AF4"/>
<path fill-rule="evenodd" clip-rule="evenodd" d="M245.297 127.462H221.935C221.246 127.462 220.97 126.911 221.305 126.221L224.082 120.646C224.417 119.957 225.264 119.405 225.953 119.405H249.315C250.004 119.405 250.28 119.957 249.945 120.646L247.168 126.221C246.813 126.911 245.986 127.462 245.297 127.462Z" fill="#6A6AF4"/>
<path fill-rule="evenodd" clip-rule="evenodd" d="M298.954 69.8391C299.28 69.8391 299.545 70.1037 299.545 70.4301C299.545 70.7449 299.299 71.0022 298.989 71.0201L298.954 71.0211H173.538C173.212 71.0211 172.947 70.7565 172.947 70.4301C172.947 70.1154 173.193 69.8581 173.503 69.8401L173.538 69.8391H298.954Z" fill="#000091"/>
<path fill-rule="evenodd" clip-rule="evenodd" d="M275.957 64.2021C276.089 63.9035 276.438 63.7683 276.737 63.9001C277.025 64.0272 277.161 64.3562 277.052 64.6473L277.039 64.6795L274.439 70.5698C274.307 70.8684 273.958 71.0036 273.659 70.8718C273.371 70.7447 273.235 70.4157 273.344 70.1246L273.357 70.0925L275.957 64.2021Z" fill="#000091"/>
<path fill-rule="evenodd" clip-rule="evenodd" d="M256.865 64.2906C257.013 63.9999 257.369 63.8844 257.66 64.0327C257.94 64.1755 258.057 64.5108 257.933 64.7951L257.918 64.8277L254.904 70.7378C254.756 71.0285 254.4 71.144 254.109 70.9957C253.829 70.8529 253.712 70.5176 253.836 70.2333L253.851 70.2007L256.865 64.2906Z" fill="#000091"/>
<path fill-rule="evenodd" clip-rule="evenodd" d="M282.305 76.1823L181.626 76.8128C180.02 76.8358 178.58 77.7151 177.893 79.113L145.557 140.603C144.387 142.918 146.114 145.646 148.719 145.646L250.204 145.311C253.484 145.29 256.485 143.407 257.923 140.468L286.112 81.9154C287.431 79.2314 285.375 76.1595 282.305 76.1823ZM181.638 77.9949L282.313 77.3644C284.501 77.3482 285.945 79.473 285.076 81.342L256.86 139.952C255.621 142.485 253.029 144.111 250.198 144.129L148.717 144.464C146.987 144.464 145.843 142.657 146.607 141.145L178.946 79.6491C179.432 78.663 180.433 78.0375 181.571 77.9967L181.638 77.9949Z" fill="#000091"/>
<path fill-rule="evenodd" clip-rule="evenodd" d="M299.21 169.562H233.005V159.732C233.005 157.289 234.975 155.319 237.418 155.319H294.778C297.22 155.319 299.19 157.289 299.19 159.732V169.562H299.21Z" fill="#F95C5E"/>
<path fill-rule="evenodd" clip-rule="evenodd" d="M161.306 132.407H197.334C200.013 132.407 203.42 130.22 204.937 127.541L224.852 92.179C226.368 89.4997 225.403 87.313 222.724 87.313H185.2C182.521 87.313 179.113 89.4997 177.596 92.179L159.179 127.541C157.662 130.22 158.627 132.407 161.306 132.407Z" fill="#000091"/>
<path fill-rule="evenodd" clip-rule="evenodd" d="M225.048 30.0639C220.281 16.0373 215.061 13.1414 211.377 14.1658C207.694 15.1902 197.707 20.1547 201.174 24.6858C204.641 29.2168 209.644 44.918 209.644 44.918C194.024 47.5972 180.117 53.4876 180.117 53.4876L163.197 60.2054C163.197 60.2054 156.027 62.6877 148.876 69.0706C141.726 75.4535 127.189 89.9135 123.289 95.4887C120.058 100.118 121.989 105.398 123.722 106.836C125.456 108.274 128.272 112.195 141.076 107.86C149.31 105.063 156.027 103.999 159.749 103.585L179.25 122.517C179.25 122.517 184.293 126.792 186.598 128.881C186.735 129.255 186.932 129.55 187.189 129.748C190.478 132.328 194.733 132.387 199.874 130.772C202.376 129.984 204.483 128.25 205.724 125.926L224.654 90.3863C225.304 89.1649 224.654 87.6676 223.314 87.2933L217.366 85.6779C208.974 82.4077 202.257 69.2479 202.257 69.2479C217.228 64.0864 228.948 50.2568 228.948 50.2568C228.948 50.2568 229.834 44.1103 225.048 30.0639Z" fill="#F95C5E"/>
<path fill-rule="evenodd" clip-rule="evenodd" d="M200.624 107.23H150.315C148.838 107.23 147.617 106.029 147.617 104.531V75.434C147.617 73.9565 148.818 72.7351 150.315 72.7351H200.604C202.081 72.7351 203.302 73.9368 203.302 75.434V104.531C203.302 106.029 202.101 107.23 200.624 107.23Z" fill="white"/>
<path fill-rule="evenodd" clip-rule="evenodd" d="M200.604 72.1443H150.315C148.498 72.1443 147.026 73.6242 147.026 75.4342V104.532C147.026 106.349 148.505 107.822 150.315 107.822H200.623C202.431 107.822 203.893 106.352 203.893 104.532V75.4342C203.893 73.6167 202.414 72.1443 200.604 72.1443ZM150.316 73.326H200.604C201.763 73.326 202.712 74.2705 202.712 75.4339V104.531C202.712 105.7 201.777 106.639 200.624 106.639H150.316C149.157 106.639 148.208 105.695 148.208 104.531V75.4339C148.208 74.2753 149.152 73.326 150.316 73.326Z" fill="#000091"/>
<path fill-rule="evenodd" clip-rule="evenodd" d="M182.187 83.2354H172.416C171.589 83.2354 170.919 82.5656 170.919 81.7381V78.0739C170.919 77.2465 171.589 76.5767 172.416 76.5767H182.187C183.014 76.5767 183.684 77.2465 183.684 78.0739V81.7381C183.703 82.5459 183.014 83.2354 182.187 83.2354Z" fill="#6A6AF4"/>
<path fill-rule="evenodd" clip-rule="evenodd" d="M185.377 72.7549C187.15 72.7549 188.568 74.1142 188.568 75.7887V104.197C188.568 105.871 187.131 107.23 185.377 107.23" fill="white"/>
<path fill-rule="evenodd" clip-rule="evenodd" d="M185.377 72.1638C187.443 72.1638 189.122 73.7425 189.158 75.7232L189.159 75.7887V104.197C189.159 106.202 187.452 107.821 185.377 107.821C185.05 107.821 184.786 107.557 184.786 107.23C184.786 106.904 185.05 106.639 185.377 106.639C186.792 106.639 187.943 105.567 187.976 104.255L187.977 104.197V75.7887C187.977 74.4433 186.825 73.3458 185.377 73.3458C185.05 73.3458 184.786 73.0812 184.786 72.7548C184.786 72.4284 185.05 72.1638 185.377 72.1638Z" fill="#000091"/>
<path fill-rule="evenodd" clip-rule="evenodd" d="M150.204 49.7234C150.389 49.455 150.757 49.3881 151.026 49.5739C151.294 49.7597 151.361 50.1279 151.175 50.3962C150.512 51.3539 150.118 52.7289 150.118 54.2166C150.118 56.9841 151.448 59.154 152.953 59.201C153.28 59.2112 153.536 59.484 153.526 59.8102C153.515 60.1365 153.243 60.3927 152.916 60.3825C150.632 60.3111 148.936 57.5431 148.936 54.2166C148.936 52.4974 149.398 50.8873 150.204 49.7234Z" fill="#F95C5E"/>
<path fill-rule="evenodd" clip-rule="evenodd" d="M179.494 38.4761C179.809 38.3926 180.133 38.5807 180.216 38.8962C180.411 39.6314 180.511 40.4119 180.511 41.2145C180.511 44.5725 178.765 47.3807 176.454 47.3807C176.285 47.3807 176.129 47.3656 175.917 47.3353C175.594 47.2892 175.37 46.9898 175.416 46.6667C175.462 46.3436 175.761 46.119 176.084 46.1652L176.184 46.1787C176.293 46.1923 176.376 46.1987 176.454 46.1987C177.964 46.1987 179.33 44.0026 179.33 41.2145C179.33 40.5136 179.242 39.8348 179.074 39.1987C178.99 38.8832 179.178 38.5596 179.494 38.4761Z" fill="#F95C5E"/>
<path fill-rule="evenodd" clip-rule="evenodd" d="M173.184 50.0798L175.489 55.9702L180.354 53.3698C180.847 53.9411 188.745 64.0474 178.089 68.0465C171.096 70.6667 163.335 67.2191 158.706 62.8259L163.119 60.1467L158.43 50.2965L173.184 50.0798Z" fill="white"/>
<path fill-rule="evenodd" clip-rule="evenodd" d="M158.421 49.7055L158.387 49.707C157.976 49.7361 157.716 50.1722 157.896 50.5505L162.355 59.9185L158.399 62.3207C158.066 62.5229 158.016 62.9864 158.299 63.2546C160.802 65.6302 164.002 67.5662 167.331 68.6292C171.102 69.8336 174.871 69.883 178.296 68.5999C183.263 66.7356 184.912 63.3992 183.978 59.2916C183.652 57.8573 183.028 56.4201 182.215 55.0413L182.116 54.8756C181.619 54.0531 181.097 53.3271 180.801 52.9838L180.776 52.9562C180.593 52.7696 180.308 52.7241 180.075 52.8485L175.796 55.1355L173.734 49.8644C173.644 49.6349 173.421 49.4852 173.175 49.4888L158.421 49.7055ZM172.782 50.6765L174.938 56.1854L174.952 56.2188C175.093 56.5245 175.465 56.6523 175.767 56.4912L180.194 54.1247L180.306 54.278C180.322 54.2997 180.338 54.3217 180.354 54.344C180.632 54.7334 180.919 55.1708 181.197 55.6418C181.953 56.9234 182.53 58.2525 182.825 59.5535C183.632 63.1012 182.277 65.843 177.881 67.493L177.698 67.5596C171.919 69.627 164.902 67.5139 159.753 62.9822L159.685 62.9222L163.425 60.6516L163.455 60.632C163.691 60.4681 163.776 60.1553 163.651 59.8925L159.359 50.8735L172.782 50.6765Z" fill="#000091"/>
<path fill-rule="evenodd" clip-rule="evenodd" d="M165.462 92.3368C166.487 91.6867 172.061 89.4015 173.42 89.2439C174.779 89.0862 175.469 90.0516 174.386 90.8987C173.322 91.7458 170.938 93.5976 170.938 93.5976" fill="white"/>
<path fill-rule="evenodd" clip-rule="evenodd" d="M173.353 88.6568C175.258 88.4358 176.321 90.0859 174.801 91.3236L174.231 91.7752L173.278 92.5234L172.117 93.4292L171.301 94.0644C171.044 94.2646 170.672 94.218 170.472 93.9602C170.28 93.7124 170.315 93.3595 170.547 93.1548L170.585 93.1238L171.98 92.0375L173.565 90.7951C173.738 90.6586 173.891 90.5374 174.022 90.4331C174.196 90.2973 174.291 90.1733 174.321 90.08C174.333 90.0422 174.331 90.0282 174.32 90.0101C174.292 89.9666 174.222 89.9157 174.106 89.8761C173.946 89.8213 173.734 89.8025 173.489 89.8309C172.351 89.9629 166.881 92.1368 165.779 92.8358C165.504 93.0107 165.139 92.9291 164.964 92.6535C164.789 92.3779 164.871 92.0127 165.146 91.8378C166.388 91.05 172.02 88.8113 173.353 88.6568Z" fill="#000091"/>
<path fill-rule="evenodd" clip-rule="evenodd" d="M161.916 92.6126C169.52 90.7608 177.005 93.5779 177.734 93.8931C178.463 94.2083 178.719 95.6268 177.084 95.7253C175.449 95.8041 169.835 94.9963 169.835 94.9963C172.297 95.6465 177.773 97.1437 178.167 97.5574C178.778 98.1878 177.852 99.4289 176.178 98.9955L169.146 97.2619C169.146 97.2619 175.863 100.217 176.434 100.65C177.005 101.084 174.425 102.423 171.273 101.064C168.121 99.7047 167.846 99.882 167.846 99.882C167.846 99.882 172.947 101.773 173.597 102.305C174.267 102.837 170.8 104.709 167.412 102.423C167.412 102.423 163.532 103.98 160.36 102.916" fill="white"/>
<path fill-rule="evenodd" clip-rule="evenodd" d="M161.777 92.0384C165.217 91.2005 168.866 91.2181 172.506 91.8581C174.829 92.2667 176.941 92.906 177.969 93.3506C178.576 93.6133 178.963 94.2981 178.882 94.9615C178.788 95.7375 178.125 96.2546 177.113 96.3156C177.012 96.3204 176.897 96.3223 176.77 96.3214L176.657 96.3198L176.93 96.4111C177.821 96.7131 178.394 96.9573 178.578 97.132L178.592 97.1461C179.144 97.7162 179.029 98.5597 178.429 99.1105C177.879 99.6166 177.029 99.8043 176.111 99.5878L175.247 99.3747L175.703 99.5937C176.242 99.8558 176.595 100.043 176.757 100.155L176.791 100.179C177.326 100.585 177.151 101.182 176.676 101.554C176.375 101.79 175.918 101.984 175.38 102.106C175.045 102.182 174.692 102.229 174.326 102.245L174.241 102.247L174.251 102.284C174.285 102.427 174.278 102.579 174.229 102.727L174.215 102.768C174.132 102.986 173.968 103.173 173.746 103.341C173.365 103.629 172.795 103.866 172.146 104C170.655 104.307 168.992 104.061 167.457 103.151L167.34 103.08L167.227 103.118C166.914 103.224 166.563 103.33 166.181 103.428C164.713 103.805 163.216 103.977 161.801 103.824C161.23 103.763 160.686 103.648 160.173 103.476C159.863 103.372 159.697 103.037 159.8 102.728C159.904 102.418 160.239 102.252 160.549 102.356C160.978 102.499 161.439 102.596 161.928 102.649C163.182 102.784 164.545 102.628 165.886 102.283C166.195 102.204 166.481 102.119 166.74 102.035L166.849 101.999C166.908 101.978 166.964 101.959 167.014 101.941L167.192 101.875C167.374 101.802 167.58 101.824 167.743 101.933C169.106 102.853 170.596 103.112 171.907 102.842C172.241 102.773 172.538 102.672 172.766 102.559L172.816 102.534L172.657 102.457C172.336 102.306 171.902 102.116 171.382 101.899L170.922 101.71L170.536 101.554L170.053 101.361C169.563 101.168 169.054 100.971 168.545 100.777L167.64 100.436C167.184 100.267 167.116 99.6484 167.526 99.3849C167.591 99.3429 167.661 99.3161 167.733 99.3005L167.77 99.2938C168.208 99.229 169.249 99.5474 171.507 100.521C172.793 101.076 174.082 101.188 175.119 100.953C175.253 100.923 175.378 100.887 175.489 100.849L175.54 100.83L175.338 100.731C174.824 100.479 174.072 100.126 173.158 99.708L172.565 99.4376L172.024 99.1926C171.476 98.945 170.907 98.6903 170.336 98.4359L168.908 97.8028C168.257 97.5167 168.575 96.5481 169.253 96.6803L169.287 96.688L176.326 98.4233C176.906 98.5735 177.373 98.476 177.63 98.2402C177.749 98.1308 177.779 98.0509 177.76 97.9976L177.756 97.9878L177.754 97.987C177.718 97.9675 177.668 97.9435 177.605 97.916L177.566 97.899C177.408 97.8319 177.194 97.7511 176.927 97.6585L176.695 97.5793C176.207 97.4149 175.587 97.2219 174.858 97.0055L174.61 96.9325C173.138 96.4999 171.327 96.0015 169.684 95.5677C168.977 95.381 169.176 94.3409 169.883 94.407L169.976 94.4194L170.527 94.4961L170.742 94.5254C171.269 94.5968 171.816 94.6682 172.365 94.7363L172.695 94.7768C173.057 94.8207 173.408 94.8617 173.746 94.8992L174.062 94.9337C175.474 95.0854 176.529 95.1603 177.049 95.1353C177.525 95.1066 177.69 94.9778 177.709 94.8193C177.727 94.6724 177.623 94.489 177.5 94.4356L177.396 94.3925C177.078 94.2638 176.508 94.0635 175.853 93.8653C174.769 93.5371 173.572 93.2459 172.301 93.0223C168.811 92.4085 165.321 92.3916 162.057 93.1868C161.739 93.264 161.42 93.0696 161.343 92.7524C161.265 92.4353 161.46 92.1156 161.777 92.0384Z" fill="#000091"/>
<path fill-rule="evenodd" clip-rule="evenodd" d="M152.363 50.2965C154.398 50.2965 156.047 48.7265 156.047 46.7899C156.047 44.8532 154.398 43.2832 152.363 43.2832C150.329 43.2832 148.68 44.8532 148.68 46.7899C148.68 48.7265 150.329 50.2965 152.363 50.2965Z" fill="white"/>
<path fill-rule="evenodd" clip-rule="evenodd" d="M152.364 42.6919C150.009 42.6919 148.089 44.5198 148.089 46.7896C148.089 49.0593 150.009 50.8872 152.364 50.8872C154.718 50.8872 156.638 49.0593 156.638 46.7896C156.638 44.5198 154.718 42.6919 152.364 42.6919ZM152.363 43.8741C154.077 43.8741 155.456 45.1862 155.456 46.7898C155.456 48.3933 154.077 49.7054 152.363 49.7054C150.649 49.7054 149.271 48.3933 149.271 46.7898C149.271 45.1862 150.649 43.8741 152.363 43.8741Z" fill="#000091"/>
<path fill-rule="evenodd" clip-rule="evenodd" d="M174.721 38.3185C176.755 38.3185 178.404 36.7485 178.404 34.8118C178.404 32.8752 176.755 31.3052 174.721 31.3052C172.686 31.3052 171.037 32.8752 171.037 34.8118C171.037 36.7485 172.686 38.3185 174.721 38.3185Z" fill="white"/>
<path fill-rule="evenodd" clip-rule="evenodd" d="M174.721 30.7144C172.366 30.7144 170.446 32.5422 170.446 34.812C170.446 37.0818 172.366 38.9097 174.721 38.9097C177.075 38.9097 178.995 37.0818 178.995 34.812C178.995 32.5422 177.075 30.7144 174.721 30.7144ZM174.72 31.896C176.435 31.896 177.813 33.2081 177.813 34.8116C177.813 36.4152 176.435 37.7273 174.72 37.7273C173.006 37.7273 171.628 36.4152 171.628 34.8116C171.628 33.2081 173.006 31.896 174.72 31.896Z" fill="#000091"/>
<path fill-rule="evenodd" clip-rule="evenodd" d="M172.12 52.1513C177.337 48.3742 177.636 39.882 172.788 33.1833C167.94 26.4846 159.78 24.1162 154.563 27.8932C149.345 31.6703 149.046 40.1625 153.895 46.8612C158.743 53.5598 166.903 55.9283 172.12 52.1513Z" fill="white"/>
<path fill-rule="evenodd" clip-rule="evenodd" d="M154.216 27.4141C148.705 31.4042 148.393 40.2668 153.416 47.2074C158.44 54.148 166.955 56.6197 172.467 52.6297C177.978 48.6396 178.29 39.777 173.267 32.8364C168.244 25.8958 159.728 23.424 154.216 27.4141ZM154.91 28.3716C159.833 24.8076 167.637 27.0727 172.31 33.5295C176.983 39.9862 176.697 48.108 171.774 51.6721C166.851 55.2361 159.047 52.9709 154.374 46.5142C149.701 40.0575 149.987 31.9356 154.91 28.3716Z" fill="#000091"/>
<path fill-rule="evenodd" clip-rule="evenodd" d="M169.376 42.7139L169.366 42.7267C168.356 44.0481 166.738 44.9993 164.327 45.2157C163.289 45.3268 162.787 46.5485 163.488 47.3238C164.2 48.1283 165.029 48.7834 165.957 49.1697C167.181 49.6789 168.476 49.6711 169.78 49.0344C171.123 48.3781 171.852 47.3374 172.022 46.0465C172.148 45.0855 171.962 44.0605 171.57 43.0326C171.192 42.1248 169.989 41.9567 169.376 42.7139ZM170.472 43.4707C171.241 45.4857 171.027 47.1099 169.261 47.9723C167.467 48.8484 165.804 48.1562 164.369 46.5356C164.324 46.4852 164.358 46.4011 164.443 46.392L164.569 46.3801C167.203 46.1154 169.06 45.0308 170.249 43.5172L170.295 43.4576C170.347 43.3942 170.446 43.4082 170.472 43.4707Z" fill="#000091"/>
<path fill-rule="evenodd" clip-rule="evenodd" d="M163.485 36.0156C163.725 35.8129 164.079 35.8338 164.293 36.0572L164.318 36.085L168.652 41.2071C168.889 41.4876 168.814 41.9112 168.504 42.0962L168.472 42.1139L166.108 43.3353C165.818 43.4851 165.462 43.3715 165.312 43.0815C165.168 42.8023 165.268 42.4613 165.534 42.3027L165.566 42.2852L167.27 41.404L163.416 36.8485C163.213 36.6089 163.234 36.2549 163.458 36.0406L163.485 36.0156Z" fill="#000091"/>
<path fill-rule="evenodd" clip-rule="evenodd" d="M156.322 35.52C157.133 34.5654 158.199 34.1033 159.466 34.4822C159.779 34.5757 159.956 34.905 159.863 35.2177C159.769 35.5305 159.44 35.7081 159.127 35.6146C158.372 35.3889 157.758 35.6553 157.223 36.2852C157.071 36.4639 156.94 36.6577 156.831 36.8512C156.788 36.927 156.756 36.9898 156.734 37.0351L156.71 37.0894C156.583 37.3904 156.237 37.5321 155.936 37.4058C155.635 37.2796 155.493 36.9333 155.62 36.6323L155.646 36.5725C155.681 36.4953 155.733 36.3928 155.801 36.2716C155.945 36.0159 156.118 35.7606 156.322 35.52Z" fill="#000091"/>
<path fill-rule="evenodd" clip-rule="evenodd" d="M164.384 31.4701C165.398 30.8157 166.488 30.5949 167.538 31.1253C167.691 31.2027 167.839 31.2954 167.984 31.4037C168.245 31.5996 168.298 31.97 168.102 32.2311C167.906 32.4922 167.536 32.5452 167.275 32.3493C167.185 32.2822 167.095 32.2261 167.004 32.1803C166.402 31.8755 165.723 32.013 165.025 32.4633C164.866 32.5659 164.721 32.6763 164.593 32.7862L164.542 32.8307C164.504 32.8649 164.475 32.8917 164.458 32.9091L164.449 32.9183C164.222 33.1527 163.848 33.1585 163.613 32.9313C163.379 32.7041 163.373 32.3299 163.6 32.0956L163.639 32.0564C163.684 32.0128 163.745 31.9562 163.822 31.89C163.989 31.7466 164.177 31.6038 164.384 31.4701Z" fill="#000091"/>
<path fill-rule="evenodd" clip-rule="evenodd" d="M160.435 41.0114C160.883 40.8152 161.01 40.1147 160.718 39.4469C160.426 38.779 159.826 38.3966 159.377 38.5928C158.929 38.789 158.802 39.4894 159.094 40.1573C159.386 40.8252 159.986 41.2076 160.435 41.0114Z" fill="#000091"/>
<path fill-rule="evenodd" clip-rule="evenodd" d="M168.832 37.5834C169.257 37.3413 169.306 36.6238 168.94 35.9807C168.574 35.3376 167.933 35.0125 167.507 35.2546C167.082 35.4966 167.033 36.2142 167.399 36.8573C167.765 37.5003 168.406 37.8254 168.832 37.5834Z" fill="#000091"/>
<path fill-rule="evenodd" clip-rule="evenodd" d="M144.878 27.9757C147.773 23.9569 145.607 8.43303 132.133 1.87282C118.502 -4.78588 113.085 8.19662 112.002 11.5063C110.938 14.8159 111.845 22.6764 123.092 26.774C134.339 30.8717 141.549 32.5659 144.878 27.9757Z" fill="#000091"/>
<path fill-rule="evenodd" clip-rule="evenodd" d="M147.971 33.3343L143.775 30.596C142.278 29.6109 141.884 27.6606 142.909 26.2422L143.086 26.0058C144.11 24.5677 146.159 24.2131 147.675 25.1784L151.871 27.9167L147.971 33.3343Z" fill="#F95C5E"/>
<path fill-rule="evenodd" clip-rule="evenodd" d="M174.72 26.1436C174.72 26.1436 172.238 12.2746 153.624 24.3706C150.551 26.0845 147.478 29.5912 146.296 33.3737C144.465 39.2246 148.463 48.0307 152.58 46.7896C152.915 46.6911 153.25 46.5729 153.585 46.435C153.447 46.238 153.309 46.0213 153.171 45.8046C152.698 45.0362 152.285 44.2679 151.93 43.4799C156.224 39.0473 152.974 31.4627 152.639 30.7732C154.176 31.1278 155.87 31.7188 156.283 33.551L168.2 28.7638C170.229 30.1428 172.061 32.0143 173.499 34.3193C173.519 34.339 173.539 34.3784 173.558 34.3981C173.913 32.3295 172.81 29.8867 170.682 27.7591L174.72 26.1436Z" fill="#000091"/>
<path fill-rule="evenodd" clip-rule="evenodd" d="M123.289 95.4887C119.389 99.6258 121.989 105.398 123.722 106.836C125.456 108.274 128.272 112.195 141.076 107.861C149.31 105.063 156.027 103.999 159.749 103.586C159.749 103.586 163.197 94.8583 160.813 88.0617C160.813 88.0617 148.01 87.8647 138.456 91.7851" fill="#F95C5E"/>
<path fill-rule="evenodd" clip-rule="evenodd" d="M207.339 10.3833C206.807 9.29981 205.507 6.48267 205.645 5.12335C205.822 3.37002 204.443 2.0895 203.478 4.29593C202.533 6.50237 203.399 9.06341 203.399 9.06341" fill="white"/>
<path fill-rule="evenodd" clip-rule="evenodd" d="M202.937 4.05914C203.503 2.76462 204.417 2.19686 205.292 2.7168C205.964 3.1161 206.324 4.0855 206.239 5.11442L206.233 5.18309C206.139 6.11117 206.875 8.09589 207.869 10.123C208.013 10.416 207.892 10.7701 207.599 10.914C207.306 11.0578 206.952 10.9369 206.809 10.6439L206.698 10.4177C205.663 8.27623 204.959 6.33888 205.051 5.12709L205.057 5.06398C205.122 4.4248 204.923 3.8726 204.688 3.73285C204.647 3.70868 204.627 3.709 204.561 3.75001C204.399 3.8504 204.206 4.10794 204.021 4.52884C203.923 4.75795 203.844 4.99888 203.783 5.25058C203.552 6.20425 203.591 7.2446 203.797 8.238C203.827 8.38616 203.86 8.52217 203.892 8.64416L203.912 8.71566C203.926 8.76614 203.938 8.80611 203.947 8.83478L203.959 8.87403C204.064 9.1832 203.898 9.51867 203.589 9.62332C203.28 9.72796 202.944 9.56216 202.84 9.25298L202.818 9.18489C202.767 9.02484 202.703 8.78409 202.639 8.47808C202.401 7.32798 202.357 6.12101 202.635 4.97256C202.711 4.65812 202.81 4.35449 202.937 4.05914Z" fill="#000091"/>
<path fill-rule="evenodd" clip-rule="evenodd" d="M203.794 16.7858L207.32 22.6762C209.92 22.0261 212.579 20.4501 214.115 17.5344C211.417 14.1066 206.886 8.47231 205.961 8.1768C203.36 7.34939 199.381 7.60549 198.594 7.8419C196.919 8.3541 197.806 9.37852 199.559 9.51642C201.233 9.65432 204.247 9.91043 204.247 9.91043C201.647 9.96953 198.397 10.1665 197.904 10.4817C197.156 10.9742 197.786 12.4124 199.559 12.3336L204.601 12.2548C204.601 12.2548 198.948 12.8655 198.259 13.161C197.569 13.4565 197.648 15.4068 201.135 14.8355C204.621 14.2642 204.857 14.5006 204.857 14.5006C204.857 14.5006 200.642 15.3871 199.835 15.7614C199.007 16.1554 199.815 18.224 203.794 16.7858Z" fill="white"/>
<path fill-rule="evenodd" clip-rule="evenodd" d="M198.423 7.27601C197.313 7.61548 196.762 8.36613 197.303 9.1541L197.333 9.19668C197.5 9.41972 197.754 9.60785 198.068 9.75508L198.14 9.7875C197.884 9.84773 197.696 9.91309 197.585 9.98415C196.91 10.4282 196.832 11.2854 197.3 11.9593L197.335 12.0079C197.513 12.2485 197.749 12.4487 198.029 12.6003L198.046 12.6092L198.025 12.618C197.263 12.9445 197.093 13.9875 197.672 14.6969L197.705 14.7368C198.034 15.1171 198.534 15.3663 199.191 15.4722L199.232 15.4781L199.219 15.4914C198.722 16.0357 198.925 16.9609 199.689 17.4567L199.737 17.4869C200.545 17.9813 201.798 18.021 203.4 17.5389L203.531 17.4984L206.812 22.98C206.945 23.2034 207.21 23.3129 207.462 23.2498C210.557 22.476 213.149 20.6341 214.637 17.8102C214.746 17.6037 214.723 17.3525 214.579 17.169L214.173 16.6548C209.852 11.1806 207.063 7.90882 206.139 7.61397C203.881 6.89527 199.787 6.86684 198.423 7.27601ZM201.593 8.20192C203.188 8.213 204.675 8.38854 205.781 8.7405L205.799 8.7471C206.384 8.9864 209.301 12.4105 212.951 17.0148L213.408 17.5923L213.359 17.6748C212.09 19.8121 210.065 21.2644 207.642 21.9767L207.596 21.9898L204.3 16.4828C204.155 16.2401 203.858 16.1344 203.592 16.2305C201.986 16.8111 200.871 16.8149 200.333 16.4654L200.3 16.4433C200.218 16.3844 200.169 16.3269 200.146 16.2809L200.143 16.272L200.216 16.244C200.485 16.1466 201.002 16.001 201.69 15.829L202.131 15.7209C202.223 15.6986 202.318 15.6759 202.415 15.6529C202.895 15.539 203.406 15.4228 203.92 15.3089L204.383 15.2073L204.978 15.0795C205.438 14.9829 205.606 14.4151 205.275 14.0832C205.172 13.9806 205.051 13.928 204.904 13.8979C204.465 13.8079 203.43 13.8747 201.46 14.1851L201.038 14.2528C199.676 14.476 198.872 14.2992 198.588 13.9504C198.521 13.8678 198.499 13.7878 198.509 13.7231L198.514 13.7038L198.517 13.6946C198.796 13.5976 200.013 13.4062 201.672 13.1953C202.21 13.1269 202.772 13.0588 203.336 12.993L204.658 12.8436L204.688 12.8394C205.416 12.7279 205.325 11.6528 204.589 11.6643L199.549 11.7431C198.915 11.7711 198.472 11.5746 198.271 11.2852C198.155 11.1183 198.164 11.0184 198.228 10.976C198.329 10.9117 199.166 10.783 200.332 10.6897L200.645 10.6658C201.712 10.588 203.005 10.5303 204.26 10.5018C204.993 10.4851 205.039 9.42352 204.335 9.32632L203.412 9.2471L199.607 8.92791C199.238 8.89893 198.91 8.82564 198.655 8.72167L198.612 8.70376C198.515 8.66172 198.437 8.61806 198.379 8.57791L198.369 8.57053L198.382 8.56289C198.467 8.51485 198.594 8.45997 198.766 8.40756L198.82 8.39273C199.246 8.28696 200.407 8.19368 201.593 8.20192Z" fill="#000091"/>
<path fill-rule="evenodd" clip-rule="evenodd" d="M153.014 48.0503C155.325 48.0503 157.071 50.8585 157.071 54.2165C157.071 57.5409 155.36 60.3265 153.083 60.3818L153.014 60.3827H152.954C152.628 60.3827 152.364 60.1181 152.364 59.7917C152.364 59.4769 152.61 59.2196 152.92 59.2017L152.954 59.2007H153.014C154.524 59.2007 155.889 57.0046 155.889 54.2165C155.889 51.4284 154.524 49.2323 153.014 49.2323C152.687 49.2323 152.423 48.9677 152.423 48.6413C152.423 48.3149 152.687 48.0503 153.014 48.0503Z" fill="#F95C5E"/>
<path fill-rule="evenodd" clip-rule="evenodd" d="M176.453 35.0483C178.185 35.0483 179.636 36.622 180.217 38.9015C180.298 39.2178 180.107 39.5396 179.79 39.6202C179.474 39.7008 179.153 39.5098 179.072 39.1935C178.61 37.3812 177.549 36.2304 176.453 36.2304C176.127 36.2304 175.863 35.9658 175.863 35.6393C175.863 35.3129 176.127 35.0483 176.453 35.0483Z" fill="#F95C5E"/>
<path fill-rule="evenodd" clip-rule="evenodd" d="M222.724 86.7026C225.868 86.7026 227.063 89.3563 225.417 92.3586L225.366 92.4497L205.451 127.813C203.848 130.644 200.304 132.932 197.421 132.978L197.334 132.979H161.306C158.162 132.979 156.967 130.325 158.614 127.322L158.658 127.242L166.416 112.355C166.561 112.076 166.897 111.962 167.181 112.088L167.213 112.104C167.492 112.249 167.606 112.586 167.48 112.869L167.464 112.901L159.703 127.795L159.693 127.813C158.398 130.101 159.103 131.763 161.241 131.796L161.306 131.797H197.334C199.76 131.797 202.936 129.779 204.376 127.311L204.422 127.232L224.337 91.8684C225.646 89.5568 224.913 87.8847 222.724 87.8847C222.398 87.8847 222.133 87.6201 222.133 87.2936C222.133 86.9672 222.398 86.7026 222.724 86.7026Z" fill="#000091"/>
<path fill-rule="evenodd" clip-rule="evenodd" d="M351.407 168.439C351.733 168.438 351.999 168.701 352 169.028C352.001 169.342 351.756 169.601 351.446 169.62L351.411 169.621L0.593257 171C0.266896 171.001 0.00128739 170.738 4.66293e-06 170.411C-0.00123225 170.097 0.243765 169.838 0.553894 169.819L0.588612 169.818L351.407 168.439Z" fill="#000091"/>
</svg>
