<svg width="646" height="616" viewBox="0 0 646 616" fill="none" xmlns="http://www.w3.org/2000/svg">
<circle cx="292.5" cy="256.5" r="256.5" fill="#5222D0" fill-opacity="0.05"/>
<path d="M35.809 497.837C67.4315 483.732 103.331 485.552 136.501 492.559C171.581 499.975 205.342 512.897 240.741 518.903C260.352 522.225 280.372 523.408 300.119 520.314C300.983 520.177 300.619 518.858 299.755 518.994C263.082 524.682 226.409 515.582 191.328 505.663C157.749 496.153 123.761 485.597 88.4526 485.87C70.1615 486.007 51.916 489.192 35.1265 496.654C34.3075 497.018 34.99 498.201 35.809 497.837Z" fill="#45413C"/>
<path d="M212.895 509.576C255.756 510.44 297.252 498.565 339.157 491.512C351.397 489.465 363.727 487.826 376.149 487.007C377.013 486.962 377.013 485.597 376.149 485.642C333.242 488.463 291.883 501.295 249.295 506.3C237.237 507.71 225.089 508.484 212.94 508.256C211.985 508.211 211.985 509.576 212.895 509.576Z" fill="#45413C"/>
<path d="M413.231 494.288C428.474 491.012 444.262 490.466 459.687 492.832C473.883 495.016 487.487 499.702 500.91 504.707C514.15 509.621 527.3 514.854 541.041 518.357C555.237 521.952 569.66 522.862 584.311 522.862C601.601 522.862 619.028 522.179 636 526.001C636.864 526.183 637.228 524.864 636.363 524.682C606.379 517.948 575.302 524.773 545.318 517.948C517.335 511.578 491.764 497.245 463.463 492.104C446.719 489.055 429.52 489.419 412.913 492.968C412.003 493.15 412.367 494.47 413.231 494.288Z" fill="#45413C"/>
<path d="M164.711 319.34C160.798 318.157 153.108 314.927 155.975 309.467C158.022 305.554 164.119 305.235 167.896 305.372C180.636 305.736 193.376 306.828 206.116 305.781C218.082 304.78 229.503 301.368 241.151 298.638C252.981 295.817 265.493 293.769 277.414 297.227C282.647 298.729 287.515 301.231 292.657 302.96C295.114 303.779 297.662 304.416 300.255 304.689C303.349 305.008 306.443 304.553 309.492 304.416C312.631 304.28 315.862 304.371 318.546 306.236C321.003 307.92 323.051 311.105 321.458 314.062C319.183 318.339 312.54 317.156 308.718 316.337C297.389 313.971 285.968 313.243 274.457 314.79C268.36 315.609 262.399 317.111 256.575 318.976C250.296 320.978 244.199 322.753 237.511 321.843C231.277 320.978 225.317 318.976 218.992 318.749C212.668 318.476 206.389 319.295 200.155 320.114C188.052 321.752 175.13 323.845 163.801 317.975C163.027 317.566 162.345 318.749 163.118 319.158C173.72 324.664 185.686 323.39 197.152 321.888C203.158 321.069 209.21 320.205 215.307 320.068C221.995 319.932 228.229 321.479 234.735 322.753C241.378 324.027 247.384 323.344 253.845 321.342C260.261 319.34 266.585 317.384 273.228 316.383C280.099 315.336 287.06 315.063 293.976 315.564C300.119 315.973 305.988 317.611 312.04 318.294C315.634 318.703 320.23 318.567 322.459 315.2C325.007 311.332 322.277 306.828 318.774 304.689C313.45 301.459 306.853 303.734 301.074 303.37C294.704 302.96 288.835 300.003 282.965 297.728C270.771 292.996 258.304 293.587 245.701 296.272C232.369 299.093 219.402 303.415 205.752 304.507C197.88 305.144 189.918 305.008 182.046 304.689C177.951 304.507 173.811 304.325 169.716 304.143C167.168 304.052 164.665 304.007 162.163 304.507C158.295 305.281 153.882 307.556 154.155 312.151C154.473 317.202 160.297 319.522 164.392 320.751C165.166 320.933 165.53 319.613 164.711 319.34Z" fill="#D3D2D2"/>
<path d="M500.501 151.491C496.588 150.945 490.172 149.534 489.035 145.075C487.397 138.887 496.224 136.931 500.501 136.157C513.013 134.019 525.844 135.975 538.448 135.975C563.427 135.93 588.043 131.198 612.886 129.423C625.307 128.513 637.82 128.377 650.196 129.969C653.017 130.333 655.974 130.606 658.704 131.425C659.842 131.744 661.116 132.29 661.98 133.109C664.073 135.156 662.026 137.022 660.115 138.023C655.201 140.616 649.604 141.663 644.099 141.89C633.088 142.391 622.122 140.116 611.111 140.525C605.97 140.707 600.919 141.572 596.051 143.346C590.363 145.439 585.085 148.397 579.352 150.353C572.709 152.628 565.702 153.766 558.65 153.766C551.506 153.766 544.454 152.674 537.401 151.855C523.114 150.217 508.782 150.262 494.54 152.173C493.676 152.31 493.676 153.675 494.54 153.538C508.463 151.673 522.568 151.536 536.537 153.129C543.453 153.902 550.369 154.994 557.376 155.131C563.837 155.267 570.343 154.448 576.577 152.674C582.947 150.854 588.771 147.714 594.913 145.257C600.874 142.891 607.016 141.845 613.386 141.845C625.125 141.754 636.91 144.393 648.649 142.846C651.515 142.482 654.291 141.845 657.021 140.844C659.114 140.07 661.935 139.115 663.436 137.34C666.257 133.928 662.162 130.925 659.114 130.06C653.108 128.286 646.328 127.967 640.095 127.603C633.315 127.194 626.536 127.239 619.756 127.558C592.32 128.877 565.202 134.61 537.674 134.519C529.848 134.519 522.022 133.791 514.196 133.746C507.553 133.7 499.955 133.837 493.721 136.43C489.808 138.068 485.986 141.89 488.17 146.395C490.218 150.626 495.996 152.082 500.182 152.674C501.001 152.947 501.365 151.627 500.501 151.491Z" fill="#E8E8E8"/>
<path d="M60.47 213.598C98.417 197.127 140.004 212.506 174.994 229.023C192.83 237.44 210.393 246.449 229.002 253.092C247.247 259.599 266.221 264.103 285.468 266.697C324.097 271.929 363.636 269.609 401.629 261.1C441.441 252.182 479.161 235.984 518.655 225.838C559.741 215.282 602.693 213.007 644.599 219.786C649.695 220.605 654.745 221.561 659.796 222.653C660.66 222.835 661.024 221.515 660.16 221.333C619.483 212.688 577.213 212.279 536.445 220.378C495.677 228.477 457.321 245.039 417.326 255.822C378.515 266.287 337.974 270.519 297.889 266.742C277.96 264.877 258.213 261.009 239.103 255.003C219.356 248.815 200.838 239.806 182.228 230.888C148.604 214.736 110.657 198.356 72.6185 207.956C68.205 209.048 63.9735 210.55 59.7875 212.37C59.014 212.779 59.6965 213.962 60.47 213.598Z" fill="#D3D2D2"/>
<path d="M216.171 197.309C260.624 222.107 313.541 223.972 362.863 217.056C418.691 209.23 472.472 190.802 528.392 183.613C559.514 179.609 591.273 179.109 622.076 185.934C622.941 186.116 623.305 184.796 622.44 184.614C567.977 172.602 512.103 183.204 458.777 195.626C406.224 207.865 353.08 222.152 298.617 218.649C270.179 216.829 241.878 210.049 216.853 196.126C216.125 195.671 215.443 196.854 216.171 197.309Z" fill="#E8E8E8"/>
<path d="M83.4472 112.361C121.667 103.261 162.435 106.855 198.471 122.553C216.171 130.242 232.778 140.252 250.159 148.579C267.677 156.951 285.968 162.729 305.26 165.323C327.327 168.28 349.668 167.78 371.781 166.324C372.645 166.278 372.645 164.913 371.781 164.959C351.806 166.278 331.65 166.824 311.721 164.731C291.519 162.593 272.227 157.315 253.799 148.806C236.282 140.662 219.72 130.652 202.111 122.735C184.821 114.818 166.485 109.585 147.602 107.356C126.081 104.762 104.15 106.036 83.0832 111.041C82.2187 111.223 82.5827 112.543 83.4472 112.361Z" fill="#E8E8E8"/>
<path d="M471.108 388.136C467.104 387.317 460.552 385.27 460.233 380.31C460.051 377.262 462.599 375.032 465.284 374.213C468.514 373.167 471.927 374.122 475.066 375.032C480.799 376.716 486.578 378.081 492.584 378.308C498.18 378.536 503.731 377.717 509.146 376.261C514.97 374.714 520.657 372.621 526.436 370.983C532.533 369.254 538.766 368.344 545.136 368.253C557.285 368.071 569.297 370.255 581.4 370.755C587.451 370.983 593.412 370.664 599.372 369.754C605.833 368.753 612.431 367.252 619.028 368.025C623.76 368.571 631.359 371.756 629.812 377.853C628.447 383.177 620.894 386.18 616.253 387.681C592.957 395.234 568.933 382.676 545.318 385.998C531.714 387.909 518.883 393.642 505.142 394.734C498.863 395.234 492.402 394.825 486.441 392.595C480.981 390.502 476.067 385.952 469.834 387.044C468.969 387.181 469.333 388.5 470.198 388.364C473.929 387.727 477.205 389.501 480.344 391.23C482.892 392.595 485.44 393.869 488.216 394.688C493.903 396.417 500 396.645 505.915 396.099C518.928 394.87 531.168 389.729 544.044 387.636C558.24 385.361 572.209 388.637 586.223 390.502C597.643 392.004 609.883 392.368 620.621 387.59C624.716 385.77 630.176 382.858 631.222 378.035C632.178 373.713 628.856 370.255 625.262 368.48C619.938 365.887 613.523 366.387 607.881 367.161C601.01 368.071 594.322 369.527 587.36 369.618C573.801 369.845 560.424 367.07 546.911 367.024C540.45 367.024 534.034 367.752 527.755 369.39C521.522 371.028 515.47 373.303 509.282 374.987C501.638 377.034 493.949 377.671 486.123 376.443C482.21 375.806 478.524 374.714 474.748 373.622C471.927 372.803 468.878 372.12 465.921 372.757C461.507 373.713 457.503 377.899 459.46 382.585C461.234 386.862 466.649 388.728 470.835 389.592C471.563 389.638 471.927 388.318 471.108 388.136Z" fill="#D3D2D2"/>
<path d="M266.949 567.816C283.966 563.721 300.619 558.124 316.681 551.163C325.007 547.523 333.152 543.382 342.024 541.198C350.533 539.06 359.36 538.423 368.141 538.65C378.288 538.878 388.343 540.243 398.353 541.835C399.218 541.972 399.582 540.652 398.717 540.516C381.655 537.831 364.092 535.647 346.938 538.741C338.111 540.334 330.012 543.701 321.913 547.386C313.405 551.254 304.805 554.757 295.978 557.851C286.332 561.218 276.55 564.13 266.585 566.496C265.721 566.678 266.085 567.998 266.949 567.816Z" fill="#161616"/>
<path d="M374.465 539.151C382.109 538.969 389.662 537.877 397.033 535.738C404.541 533.6 411.957 530.597 419.92 531.37C423.969 531.734 427.928 532.872 431.841 533.873C435.936 534.919 439.985 535.966 444.08 537.012C451.952 539.014 459.778 541.016 467.649 543.018C468.514 543.246 468.877 541.926 468.013 541.699C459.869 539.606 451.724 537.558 443.58 535.465C436.118 533.554 428.474 531.006 420.83 530.096C413.322 529.232 406.224 531.552 399.126 533.736C391.073 536.193 382.883 537.604 374.511 537.831C373.601 537.786 373.601 539.151 374.465 539.151Z" fill="#161616"/>
<path d="M454.136 546.203C472.017 542.245 490.809 538.832 508.963 543.018C517.972 545.111 526.435 549.115 534.853 552.801C543.68 556.714 552.552 560.581 561.379 564.494C562.198 564.858 562.881 563.675 562.062 563.311C548.23 557.214 534.534 550.617 520.429 545.202C506.779 539.97 492.583 538.923 478.114 540.561C469.924 541.517 461.78 543.109 453.726 544.929C452.907 545.066 453.271 546.385 454.136 546.203Z" fill="#161616"/>
<path d="M166.803 378.399C169.919 378.399 172.445 375.873 172.445 372.757C172.445 369.641 169.919 367.115 166.803 367.115C163.687 367.115 161.161 369.641 161.161 372.757C161.161 375.873 163.687 378.399 166.803 378.399Z" fill="#EC615B"/>
<path d="M182.045 390.775C183.679 390.775 185.003 389.451 185.003 387.817C185.003 386.184 183.679 384.86 182.045 384.86C180.412 384.86 179.088 386.184 179.088 387.817C179.088 389.451 180.412 390.775 182.045 390.775Z" fill="#EC615B"/>
<path d="M499.363 101.895C503.208 101.895 506.324 98.7787 506.324 94.934C506.324 91.0892 503.208 87.9725 499.363 87.9725C495.518 87.9725 492.401 91.0892 492.401 94.934C492.401 98.7787 495.518 101.895 499.363 101.895Z" fill="#EC615B"/>
<path d="M515.561 109.767C517.747 109.767 519.52 107.995 519.52 105.808C519.52 103.622 517.747 101.85 515.561 101.85C513.375 101.85 511.603 103.622 511.603 105.808C511.603 107.995 513.375 109.767 515.561 109.767Z" fill="#EC615B"/>
<path d="M512.922 108.129C516.565 108.129 519.519 105.175 519.519 101.531C519.519 97.8877 516.565 94.9339 512.922 94.9339C509.278 94.9339 506.324 97.8877 506.324 101.531C506.324 105.175 509.278 108.129 512.922 108.129Z" fill="#5222D0"/>
<path d="M497.133 447.65C502.058 447.65 506.051 443.657 506.051 438.732C506.051 433.807 502.058 429.814 497.133 429.814C492.208 429.814 488.215 433.807 488.215 438.732C488.215 443.657 492.208 447.65 497.133 447.65Z" fill="#5222D0"/>
<path d="M173.354 106.309C176.496 106.309 179.042 103.763 179.042 100.621C179.042 97.4803 176.496 94.9339 173.354 94.9339C170.213 94.9339 167.667 97.4803 167.667 100.621C167.667 103.763 170.213 106.309 173.354 106.309Z" fill="#5222D0"/>
<path d="M263.354 495.243C267.199 495.243 270.316 492.126 270.316 488.281C270.316 484.437 267.199 481.32 263.354 481.32C259.509 481.32 256.393 484.437 256.393 488.281C256.393 492.126 259.509 495.243 263.354 495.243Z" fill="#5222D0"/>
<path d="M313.586 364.294C312.631 363.885 313.723 362.201 314.223 361.974C314.815 361.701 315.998 362.065 316.635 362.247C317.636 362.565 318.5 363.111 319.501 363.384C320.593 363.703 321.913 363.794 322.959 363.293C326.599 361.428 322.277 355.148 327.6 355.148C330.512 355.148 332.969 359.471 335.381 356.24C336.245 355.103 336.609 353.647 337.064 352.282C337.428 351.099 337.747 349.87 338.566 348.915C339.521 347.823 342.433 346.731 342.752 349.097C342.843 349.961 344.253 349.961 344.117 349.097C343.889 347.459 342.706 346.367 341.023 346.276C339.021 346.139 337.565 347.641 336.746 349.279C336.154 350.416 335.881 351.69 335.472 352.919C335.199 353.783 334.835 355.285 334.061 355.831C333.242 356.377 332.605 355.786 331.923 355.376C330.148 354.193 328.01 353.283 325.871 354.056C323.915 354.784 323.141 356.468 323.232 358.47C323.232 359.062 323.414 359.79 323.369 360.381C323.05 362.474 321.64 362.565 320.184 362.247C318.728 361.928 317.499 361.018 315.998 360.745C314.405 360.427 312.813 360.836 312.085 362.429C311.493 363.794 311.857 365.159 313.222 365.705C314.041 365.932 314.405 364.613 313.586 364.294Z" fill="#5222D0"/>
<path d="M337.064 366.478C336.381 365.431 336.381 364.112 337.109 363.065C338.156 361.564 339.612 361.791 341.204 362.019C342.387 362.201 343.843 362.428 344.708 361.382C345.299 360.699 345.208 359.88 345.436 359.107C345.754 357.969 346.482 356.968 347.438 356.286C349.44 354.83 352.261 354.602 354.263 356.149C354.763 356.513 355.355 356.286 355.446 355.649C355.992 351.235 360.36 347.959 364.728 348.733C365.592 348.869 365.956 347.55 365.092 347.413C359.768 346.503 354.718 350.325 354.081 355.649C354.49 355.467 354.854 355.33 355.264 355.148C353.398 353.692 351.032 353.328 348.803 354.102C346.255 354.966 345.072 356.65 344.116 359.016C343.661 360.199 343.115 360.927 341.796 360.745C341.068 360.654 340.385 360.472 339.657 360.426C338.611 360.381 337.701 360.654 336.882 361.336C335.153 362.792 334.698 365.295 335.926 367.206C336.381 367.934 337.564 367.251 337.064 366.478Z" fill="#5222D0"/>
<path d="M360.087 117.456C359.314 116.728 359.541 116.273 360.724 116.046C361.225 115.363 361.771 115.227 362.362 115.682C363.181 115.864 363.727 116.592 364.319 117.138C365.047 117.775 365.684 118.503 366.503 119.003C367.64 119.64 369.051 119.913 370.234 119.322C371.69 118.594 371.735 117.138 372.236 115.773C373.601 112.133 378.242 111.769 380.426 114.863C380.699 115.227 381.381 115.363 381.609 114.863C382.473 112.815 383.565 110.495 385.522 109.266C387.478 108.038 390.754 108.174 391.619 110.722C391.892 111.541 393.211 111.177 392.938 110.358C392.074 107.901 389.571 106.809 387.069 107.219C383.611 107.81 381.7 111.268 380.426 114.18C380.835 114.18 381.199 114.18 381.609 114.18C380.016 111.905 377.286 110.677 374.556 111.678C373.419 112.087 372.372 112.906 371.69 113.953C371.326 114.499 371.098 115.09 370.871 115.727C370.734 116.137 370.734 116.637 370.507 117.001C369.915 118.002 368.277 118.412 367.231 117.82C365.001 116.592 362.817 112.679 359.723 114.271C357.994 115.136 357.767 117.593 359.405 118.639C360.178 119.094 360.861 117.911 360.087 117.456Z" fill="#EC615B"/>
<path d="M389.298 117.092C388.98 112.542 394.804 114.044 397.124 115.181C398.307 115.773 399.763 116.865 401.037 115.864C401.447 115.545 401.629 115.09 401.811 114.635C402.493 113.134 402.948 112.042 404.768 111.496C407.589 110.677 410.319 112.451 412.594 113.907C413.322 114.362 414.005 113.179 413.277 112.724C410.865 111.223 408.135 109.539 405.178 110.04C404.222 110.176 403.267 110.54 402.493 111.132C401.31 111.996 401.083 113.498 399.9 114.226C398.762 114.908 398.307 114.226 397.17 113.68C396.578 113.407 395.987 113.134 395.35 112.906C394.167 112.497 392.893 112.315 391.664 112.588C389.526 113.088 387.797 114.817 387.933 117.092C387.979 117.957 389.344 117.957 389.298 117.092Z" fill="#EC615B"/>
<path d="M520.975 305.553C517.972 298.956 529.347 296.044 530.121 302.96C530.394 305.28 529.12 307.737 526.754 308.374C524.115 309.057 521.294 307.282 520.566 304.734C520.338 303.87 519.019 304.234 519.246 305.098C520.156 308.374 523.751 310.558 527.118 309.694C530.439 308.829 532.077 305.144 531.304 301.959C530.485 298.592 526.981 296.954 523.751 297.818C519.974 298.819 518.2 302.778 519.792 306.327C520.156 307.055 521.339 306.327 520.975 305.553Z" fill="#EC615B"/>
<path d="M529.438 310.786C526.981 310.558 526.071 307.282 527.754 305.644C529.165 304.234 531.576 304.325 533.078 305.508C534.625 306.736 536.126 310.331 534.397 312.06C532.122 314.335 529.347 310.649 528.255 309.011C527.754 308.283 526.571 308.966 527.072 309.694C528.664 312.151 532.304 316.018 535.353 313.015C537.764 310.649 536.035 305.872 533.669 304.188C531.258 302.459 527.299 303.051 525.934 305.872C524.569 308.602 526.571 311.878 529.483 312.151C530.302 312.242 530.302 310.877 529.438 310.786Z" fill="#EC615B"/>
<path d="M116.116 253.592C117.936 253.501 118.892 252.273 120.166 251.135C123.169 248.451 126.627 250.999 128.538 253.638C130.358 256.14 132.997 257.915 135.317 254.912C136.409 253.501 136.955 251.408 138.457 250.407C141.505 248.36 144.099 252.409 146.01 254.184C148.194 256.186 152.698 257.096 153.699 253.365C153.927 252.5 152.607 252.136 152.38 253.001C151.879 254.957 149.513 254.912 148.103 254.093C147.011 253.456 146.237 252.455 145.373 251.59C144.099 250.225 142.688 248.906 140.777 248.542C137.638 247.996 136.227 250.817 134.817 253.092C134.453 253.729 133.998 254.593 133.315 254.957C131.677 255.822 130.494 254.093 129.63 252.955C128.538 251.408 127.309 250.089 125.535 249.27C124.079 248.587 122.35 248.36 120.848 248.997C119.119 249.725 118.027 252.182 116.071 252.273C115.252 252.273 115.252 253.638 116.116 253.592Z" fill="#EC615B"/>
<path d="M147.92 244.219C149.831 246.494 153.244 249.543 156.247 247.04C156.975 246.403 157.384 245.493 158.158 244.856C159.295 243.992 160.797 243.81 162.116 244.219C164.983 244.993 166.666 247.723 168.168 250.043C168.441 250.453 169.123 250.544 169.351 250.043C171.307 245.766 176.54 244.72 180.635 246.358C181.454 246.676 181.818 245.357 180.999 245.038C176.403 243.173 170.352 244.538 168.168 249.315C168.577 249.315 168.941 249.315 169.351 249.315C167.303 246.13 164.71 242.49 160.433 242.627C158.931 242.672 157.566 243.309 156.565 244.401C155.382 245.766 154.381 246.858 152.425 246.267C150.923 245.812 149.831 244.401 148.83 243.218C148.33 242.581 147.374 243.537 147.92 244.219Z" fill="#EC615B"/>
<path d="M229.866 291.813C229.274 290.629 228.592 289.401 228.046 288.172C227.454 286.898 227.727 286.398 228.501 285.306C229.502 283.895 231.049 282.621 232.823 283.577C234.097 284.259 234.916 285.806 235.28 287.126C235.917 289.355 235.371 292.541 232.778 293.269C230.639 293.86 227.864 292.541 227.955 290.083C227.955 289.219 226.59 289.219 226.59 290.083C226.499 293.132 229.547 295.043 232.368 294.725C235.826 294.315 237.282 290.675 236.782 287.581C236.281 284.578 233.506 280.756 230.048 282.166C228.364 282.849 227.09 284.623 226.317 286.216C225.862 287.171 225.953 287.217 226.408 288.172C227.136 289.628 227.864 291.084 228.592 292.495C229.092 293.269 230.275 292.586 229.866 291.813Z" fill="#5222D0"/>
<path d="M234.917 300.73C233.188 298.683 230.23 294.679 232.778 292.131C234.598 290.311 237.874 290.993 239.376 292.813C240.923 294.679 241.241 298.319 238.83 299.684C236.782 300.867 233.825 299.729 233.461 297.363C233.324 296.499 232.005 296.863 232.141 297.727C232.687 300.821 236.464 302.277 239.194 301.049C242.515 299.502 242.652 294.906 240.695 292.222C238.83 289.628 234.735 288.718 232.187 290.857C228.501 293.905 231.686 298.91 234.007 301.64C234.507 302.368 235.463 301.413 234.917 300.73Z" fill="#EC615B"/>
<path d="M503.958 208.638C504.003 204.634 509.509 205.817 511.875 206.09C513.922 206.318 515.788 206.045 517.608 205.044C519.61 203.997 521.248 202.359 523.204 201.222C524.478 200.448 526.025 199.766 527.527 199.766C529.119 199.811 530.12 200.767 531.531 201.358C534.807 202.678 536.9 199.629 538.947 197.627C542.997 193.669 548.775 195.307 553.507 196.945C554.326 197.218 554.69 195.898 553.871 195.625C549.64 194.169 544.271 192.577 540.085 194.988C538.083 196.126 536.9 198.219 535.08 199.538C532.486 201.404 530.302 198.446 527.572 198.401C521.703 198.31 518.609 205.089 512.694 204.771C510.146 204.634 507.689 203.679 505.232 204.816C503.639 205.544 502.638 206.818 502.593 208.593C502.547 209.503 503.912 209.503 503.958 208.638Z" fill="#5222D0"/>
<path d="M537.992 207.091C540.904 202.951 546.364 200.949 551.278 202.359C553.417 202.996 555.419 204.725 557.785 204.589C559.741 204.452 560.788 202.86 562.107 201.631C564.246 199.675 567.021 198.082 570.024 198.173C571.844 198.219 573.255 198.901 574.665 200.084C575.12 200.494 575.484 200.858 576.121 201.04C577.031 201.267 577.85 200.858 578.669 200.494C580.08 199.857 581.536 199.311 583.037 198.901C586.131 198.128 589.271 197.991 592.41 198.401C593.275 198.492 593.275 197.127 592.41 197.036C589.407 196.626 586.404 196.717 583.447 197.4C582.127 197.718 580.808 198.128 579.534 198.628C578.533 199.038 578.032 199.311 576.895 199.311C575.666 199.311 575.757 199.129 574.938 198.492C571.071 195.534 565.884 196.899 562.38 199.675C561.425 200.403 560.651 201.404 559.741 202.132C557.557 203.861 555.828 202.769 553.599 201.768C551.688 200.903 549.686 200.494 547.593 200.585C543.27 200.767 539.357 202.905 536.9 206.409C536.309 207.137 537.492 207.819 537.992 207.091Z" fill="#5222D0"/>
<path d="M439.029 512.26C439.894 517.72 440.758 523.226 441.577 528.686C423.605 534.51 414.778 538.195 415.142 539.742C415.597 541.653 429.975 540.243 458.276 535.647C456.638 527.002 455.045 518.357 453.407 509.712C448.584 510.531 443.807 511.395 439.029 512.26Z" fill="black"/>
<path d="M400.356 329.441C400.038 335.629 399.583 344.456 399.173 355.148C398.764 366.478 398.536 372.393 398.582 379.673C398.582 382.812 398.718 395.598 400.356 412.069C401.721 425.946 403.86 446.694 411.458 472.22C414.461 482.321 419.102 495.88 426.337 511.35C429.658 511.85 433.571 512.123 438.03 511.941C446.402 511.532 453.182 509.484 457.868 507.573C456.503 503.114 454.592 496.79 452.59 489.191C449.906 478.908 442.171 447.923 439.168 406.29C437.666 385.36 437.12 359.243 439.759 329.214C426.655 329.259 413.506 329.35 400.356 329.441Z" fill="white"/>
<path opacity="0.09" d="M438.62 332.944C437.756 336.22 436.618 340.952 435.39 346.685C432.205 361.837 428.929 383.449 429.247 419.986C429.429 442.463 431.022 473.539 436.846 511.077C439.121 510.849 441.441 510.576 443.853 510.212C448.903 509.439 453.59 508.438 457.867 507.3C455.956 501.112 453.317 491.921 450.587 480.728C440.895 440.825 438.165 406.973 437.437 384.632C437.028 371.346 437.028 353.738 438.62 332.944Z" fill="#606060"/>
<path d="M438.756 330.624C434.206 376.67 437.027 423.399 447.082 468.58C449.949 481.411 453.361 494.06 457.365 506.572C457.638 507.391 458.958 507.028 458.685 506.209C444.671 462.21 437.664 416.073 438.028 369.891C438.119 356.787 438.847 343.637 440.121 330.579C440.212 329.76 438.847 329.76 438.756 330.624Z" fill="#161616"/>
<path d="M398.489 371.438C396.805 408.748 402.038 446.285 413.777 481.73C417.053 491.649 420.875 501.386 425.197 510.895C425.561 511.714 426.744 510.986 426.38 510.213C411.138 476.315 402.174 439.688 400.036 402.605C399.444 392.231 399.399 381.857 399.854 371.438C399.899 370.528 398.534 370.573 398.489 371.438Z" fill="#161616"/>
<path d="M425.743 511.305C427.29 513.034 430.839 512.624 432.932 512.67C436.117 512.715 439.348 512.397 442.487 511.942C445.9 511.441 449.312 510.713 452.679 509.894C454.363 509.485 457.866 509.393 458.731 507.528C459.095 506.754 457.912 506.026 457.548 506.845C457.138 507.801 454.863 507.983 453.999 508.165C452.725 508.484 451.496 508.757 450.222 509.075C447.811 509.621 445.445 510.121 443.033 510.486C440.531 510.895 438.028 511.168 435.526 511.259C433.615 511.35 428.155 511.942 426.744 510.349C426.107 509.667 425.152 510.668 425.743 511.305Z" fill="#161616"/>
<path d="M386.932 329.168C385.612 332.035 383.838 337.495 382.564 342.318C380.971 348.46 380.562 352.146 379.652 357.515C377.968 367.434 376.831 369.117 374.374 379.992C371.78 391.64 370.597 400.603 369.687 407.747C368.959 413.298 367.64 424.627 367.048 439.278C366.775 445.603 366.639 449.334 366.775 454.475C367.139 470.628 369.733 483.14 370.87 488.054C373.919 501.568 378.378 513.125 382.837 522.498C384.884 523.544 387.978 524.864 391.891 525.728C396.714 526.775 402.902 528.14 408.817 525.137C410.455 524.318 414.186 522.043 417.007 516.674C414.823 510.713 412.139 502.25 410 491.876C404.722 466.123 406.633 445.739 407.953 432.908C410.41 408.657 416.052 390.457 425.743 359.062C429.019 348.506 431.931 339.952 433.933 334.264C434.616 329.76 436.208 316.246 428.974 310.604C418.372 302.232 393.666 314.654 386.932 329.168Z" fill="white"/>
<path opacity="0.08" d="M427.518 353.374C424.56 358.061 420.465 365.022 416.416 373.804C411.411 384.633 404.04 403.651 400.081 441.553C397.897 462.255 396.441 491.239 399.808 526.228C401.219 526.365 407.225 526.865 412.366 522.725C415.005 520.586 416.37 518.129 417.053 516.582C414.823 510.44 411.957 501.431 409.773 490.283C403.312 457.796 407.361 431.68 410.364 413.48C412.821 398.283 417.599 377.307 427.518 353.374Z" fill="#606060"/>
<path d="M394.075 525.637C395.622 531.188 397.169 536.785 398.716 542.336C374.328 549.752 362.361 554.393 362.771 556.213C363.226 558.306 379.833 556.759 412.593 551.572C411.729 542.654 410.864 533.782 410.045 524.864C404.676 525.091 399.353 525.364 394.075 525.637Z" fill="black"/>
<path d="M386.431 329.714C381.608 341.908 379.151 354.83 376.558 367.661C373.828 381.084 371.189 394.506 369.278 408.065C365.729 433.181 364.637 458.888 369.505 483.913C372.099 497.381 376.467 510.485 382.882 522.588C383.292 523.362 384.475 522.679 384.065 521.906C359.723 475.632 367.094 421.487 377.013 372.393C379.879 358.151 382.427 343.637 387.796 330.078C388.069 329.259 386.75 328.895 386.431 329.714Z" fill="#161616"/>
<path d="M426.926 353.283C411.683 393.915 401.491 437.594 407.406 481.138C409.044 493.15 411.911 504.934 416.097 516.309C416.415 517.128 417.735 516.764 417.416 515.945C402.265 475.041 405.359 430.178 416.734 388.728C420.01 376.852 423.923 365.159 428.245 353.602C428.564 352.783 427.244 352.464 426.926 353.283Z" fill="#161616"/>
<path d="M383.019 522.543C389.434 526.092 396.805 527.593 404.085 526.638C410.045 525.819 416.961 523.089 417.553 516.219C417.644 515.354 416.279 515.354 416.188 516.219C415.551 523.362 406.906 525.273 401.037 525.546C394.985 525.819 389.025 524.317 383.747 521.36C382.928 520.951 382.245 522.133 383.019 522.543Z" fill="#161616"/>
<path d="M396.305 210.595C395.076 212.051 393.347 214.28 391.709 217.238C386.113 227.066 385.749 236.712 385.658 245.175C385.567 257.505 385.476 263.693 386.795 277.116C388.024 289.674 388.342 307.692 383.929 330.669C387.887 333.581 393.666 336.948 401.219 338.723C422.968 343.819 440.986 331.124 444.398 328.667C440.076 303.324 437.71 283.031 436.345 268.789C435.48 259.78 432.295 246.676 425.971 220.423C424.06 212.415 422.103 204.771 416.188 202.587C407.998 199.493 397.943 209.002 396.305 210.595Z" fill="#EC615B"/>
<path opacity="0.1" d="M415.961 203.224C416.689 206.181 417.735 210.64 418.782 216.146C420.147 223.244 421.967 233.982 423.241 249.952C424.56 266.423 426.062 297.318 426.517 337.267C429.611 336.357 433.342 334.992 437.3 332.808C439.939 331.352 442.214 329.805 444.125 328.349C443.807 324.846 443.215 319.522 442.26 313.107C441.031 305.053 439.803 299.457 439.211 296.681C437.755 289.492 436.117 278.754 435.935 263.83C434.07 255.913 432.659 249.543 431.704 245.311C429.065 233.299 428.291 228.886 426.289 221.606C424.287 214.28 422.194 208.456 420.875 204.953C419.237 204.316 417.599 203.77 415.961 203.224Z" fill="#606060"/>
<path d="M396.259 214.963C396.668 215.782 397.351 216.055 398.852 216.783C400.126 217.42 401.355 218.194 402.629 218.74C406.542 220.423 411.137 227.885 411.865 229.068C414.641 233.573 417.871 238.851 419.737 246.495C420.237 248.497 421.375 253.684 420.055 271.201C418.645 289.174 416.825 291.676 418.235 300.64C419.282 307.146 420.601 314.927 427.017 319.158C432.977 323.071 439.848 321.706 441.258 321.433C449.903 319.75 454.817 313.061 459.595 306.555C466.875 296.681 469.65 286.808 470.833 281.075C471.379 278.39 471.288 270.519 471.152 254.821C470.97 238.623 470.697 233.027 466.465 228.295C463.599 225.11 460.095 223.608 457.684 222.835C457.866 221.834 457.911 220.332 457.092 219.058C455.545 216.692 451.86 216.738 449.494 216.783C439.347 217.056 431.794 223.881 431.43 224.2C425.106 230.069 423.24 237.258 422.649 240.261C421.375 234.619 419.282 230.297 417.644 227.521C416.233 225.11 414.14 222.653 409.909 217.648C406.587 213.735 404.995 212.233 402.492 211.414C401.946 211.232 397.806 210.004 396.441 211.869C395.804 212.734 395.804 214.053 396.259 214.963Z" fill="white"/>
<path opacity="0.11" d="M395.941 213.28C396.214 212.779 399.262 213.917 399.581 214.053C404.085 215.782 408.089 219.377 413.231 227.703C415.87 231.98 419.191 238.032 422.012 245.903C424.014 243.856 425.698 242.172 427.017 240.898C427.017 240.898 431.886 236.212 439.757 231.662C440.531 231.207 441.486 230.661 442.169 231.07C443.579 231.844 442.078 235.62 442.487 239.124C442.806 241.763 444.353 245.403 450.222 249.452C450.359 250.226 450.404 251.318 449.767 252.046C448.493 253.456 445.217 252.319 443.534 251.727C440.804 250.772 435.526 248.269 429.292 240.944C428.701 243.31 427.927 246.677 427.336 250.817C426.79 254.412 425.288 266.378 427.791 281.757C428.792 287.854 430.657 295.999 434.479 305.281C436.163 306.009 438.301 306.691 440.849 307.101C446.173 307.92 450.586 306.873 453.134 306.054C451.633 306.782 449.585 308.011 447.811 310.149C445.672 312.743 445.627 314.699 443.852 317.111C442.669 318.749 440.531 320.796 436.572 322.252C435.344 322.116 433.478 321.797 431.431 320.887C425.197 318.112 422.376 312.242 421.102 309.512C419.419 305.827 416.825 298.365 419.282 273.112C420.693 258.689 422.24 254.184 419.874 245.949C418.054 239.624 414.914 234.392 413.822 232.617C411.866 229.432 408.362 223.745 401.992 218.512C398.989 215.964 395.668 213.871 395.941 213.28Z" fill="#606060"/>
<path d="M446.674 223.471C445.855 224.563 444.808 226.156 443.989 228.249C443.534 229.477 442.442 232.344 442.715 235.984C443.216 243.218 448.403 247.632 449.358 248.406C449.995 248.906 450.541 249.316 450.905 249.543C450.359 251.409 449.722 254.184 449.495 257.597C449.131 262.42 448.767 267.834 451.588 269.427C453.408 270.428 456.138 269.745 457.639 268.289C458.003 267.925 459.05 266.788 459.323 261.646C459.641 255.549 458.367 253.001 460.187 251.227C460.961 250.407 462.28 249.907 463.418 249.406C464.692 248.86 465.829 248.588 466.648 248.406C466.148 252.137 465.784 255.458 465.511 258.143C465.192 261.464 465.056 263.148 466.193 264.194C467.24 265.15 468.969 265.332 470.288 264.74C472.017 263.967 472.563 261.828 473.518 257.551C474.292 254.184 474.929 251.363 474.52 247.541C474.292 245.585 473.882 243.992 473.518 242.9C473.427 242.127 473.2 240.989 472.836 239.669C472.062 237.03 471.335 236.257 470.88 234.574C470.197 232.162 470.971 230.979 471.153 228.249C471.335 226.11 471.152 223.062 469.605 219.24C469.014 219.285 467.786 219.376 466.512 220.241C464.965 221.242 464.328 222.698 464.1 223.198C462.917 222.925 460.779 222.652 458.322 223.335C454.09 224.472 451.861 227.612 451.269 228.567C452.452 225.974 451.451 223.426 449.859 222.789C448.494 222.197 446.856 223.38 446.674 223.471Z" fill="black"/>
<path d="M451.815 237.577C452.27 236.712 454.545 234.801 455.318 236.394C455.682 237.167 456.865 236.485 456.501 235.711C456.001 234.665 454.772 234.346 453.68 234.574C452.361 234.801 451.269 235.711 450.632 236.894C450.222 237.668 451.405 238.35 451.815 237.577Z" fill="white"/>
<path d="M465.146 234.073C465.419 233.482 465.692 232.799 466.147 232.344C466.602 231.889 467.967 231.389 468.013 232.435C468.058 233.3 469.423 233.3 469.378 232.435C469.287 231.116 468.149 230.251 466.83 230.433C465.328 230.706 464.555 232.071 463.963 233.345C463.599 234.164 464.782 234.892 465.146 234.073Z" fill="white"/>
<path d="M465.51 238.396C465.51 238.441 465.51 238.487 465.51 238.532C465.419 238.623 465.328 238.714 465.282 238.76C465.055 238.896 464.691 238.76 464.736 238.487C464.736 238.487 464.736 238.35 464.782 238.396L464.645 238.532C464.964 238.532 465.282 238.532 465.601 238.532C465.555 238.487 465.555 238.487 465.51 238.441C465.555 238.487 465.555 238.487 465.555 238.487C465.51 238.441 465.555 238.441 465.555 238.532C465.601 238.805 465.464 238.987 465.1 239.124C464.964 239.078 464.873 239.078 464.736 239.033C464.554 238.942 464.6 238.669 464.645 238.532C464.691 238.487 464.645 238.487 464.6 238.578C464.645 238.532 464.645 238.532 464.6 238.578C464.281 238.805 464.145 239.169 464.372 239.533C464.554 239.806 465.009 239.988 465.328 239.761C465.646 239.533 465.965 239.215 466.01 238.76C466.01 238.259 465.646 237.804 465.146 237.804C464.645 237.804 464.281 238.123 464.236 238.623C464.19 238.987 464.418 239.306 464.645 239.533C464.918 239.806 465.328 239.761 465.601 239.533C466.192 239.078 466.329 238.123 465.646 237.668C465.328 237.486 464.918 237.44 464.6 237.622C464.19 237.85 464.145 238.396 464.236 238.805C464.281 239.169 464.736 239.351 465.055 239.26C465.419 239.124 465.555 238.76 465.51 238.396Z" fill="white"/>
<path d="M458.23 239.806C456.911 240.58 455.136 240.215 454.272 238.941C453.771 238.213 452.588 238.896 453.089 239.624C454.408 241.49 456.911 242.127 458.958 240.989C459.686 240.534 459.004 239.351 458.23 239.806Z" fill="white"/>
<path d="M457.229 242.763C456.228 243.537 455.364 244.538 454.772 245.676C454.363 246.449 455.546 247.132 455.955 246.358C456.501 245.312 457.275 244.447 458.23 243.719C458.503 243.491 458.458 242.991 458.23 242.763C457.912 242.49 457.502 242.536 457.229 242.763Z" fill="white"/>
<path d="M468.286 237.759C469.196 236.712 469.878 235.529 470.333 234.21C470.606 233.391 469.287 233.027 469.014 233.846C468.65 234.938 468.058 235.939 467.33 236.803C466.784 237.486 467.74 238.441 468.286 237.759Z" fill="white"/>
<path d="M468.376 239.488C469.468 239.26 470.742 238.987 471.607 239.897C472.198 240.534 473.154 239.578 472.562 238.941C471.334 237.622 469.559 237.85 467.967 238.214C467.148 238.35 467.512 239.67 468.376 239.488Z" fill="white"/>
<path d="M395.713 213.917C397.806 210.641 402.766 212.597 405.268 214.235C408.271 216.146 410.546 219.013 412.594 221.879C416.734 227.658 420.419 233.937 421.784 240.989C421.966 241.854 423.286 241.49 423.104 240.625C421.512 232.208 416.598 224.109 411.047 217.648C407.816 213.917 398.671 206.864 394.53 213.28C394.075 213.962 395.258 214.69 395.713 213.917Z" fill="#161616"/>
<path d="M398.534 217.011C409.454 223.153 415.596 234.665 418.69 246.404C418.918 247.268 420.237 246.904 420.01 246.04C416.825 233.982 410.409 222.107 399.216 215.828C398.443 215.373 397.76 216.556 398.534 217.011Z" fill="#161616"/>
<path d="M423.104 240.397C424.241 232.344 429.383 225.61 436.435 221.743C440.075 219.741 444.125 218.512 448.265 217.921C450.222 217.648 452.497 217.375 454.408 218.103C456.501 218.876 458.503 222.198 455.864 223.699C455.09 224.109 455.773 225.292 456.546 224.882C459.458 223.244 458.73 219.058 456.182 217.466C452.224 214.963 445.672 216.738 441.622 218.103C431.612 221.333 423.331 229.432 421.83 240.124C421.648 240.898 422.967 241.262 423.104 240.397Z" fill="#161616"/>
<path d="M426.152 242.445C428.382 239.852 431.203 237.668 433.933 235.62C436.572 233.618 439.393 231.98 442.669 231.252C443.533 231.07 443.169 229.751 442.305 229.933C438.938 230.706 435.98 232.39 433.25 234.437C430.429 236.576 427.517 238.805 425.197 241.49C424.605 242.127 425.561 243.128 426.152 242.445Z" fill="#161616"/>
<path d="M442.851 231.389C443.807 229.205 445.035 227.112 446.537 225.246C446.81 224.928 447.128 224.382 447.492 224.154C447.811 223.563 448.22 223.517 448.812 224.063C449.54 224.063 449.858 224.336 449.858 224.973C450.359 225.929 450.404 227.567 450.586 228.659C450.768 229.523 452.088 229.159 451.906 228.295C451.542 226.566 451.087 220.378 447.811 222.061C446.537 222.698 445.581 224.291 444.762 225.383C443.534 227.066 442.533 228.841 441.668 230.706C441.304 231.48 442.487 232.208 442.851 231.389Z" fill="#161616"/>
<path d="M451.633 229.068C453.953 226.065 458.685 221.925 462.735 224.154C463.508 224.564 464.191 223.381 463.417 222.971C458.731 220.469 453.453 224.564 450.632 228.113C450.131 228.795 451.087 229.751 451.633 229.068Z" fill="#161616"/>
<path d="M464.054 223.927C464.691 222.926 467.648 219.331 468.922 220.287C469.605 220.787 469.741 222.562 469.923 223.381C470.196 224.655 470.287 225.929 470.333 227.248C470.378 228.113 471.743 228.113 471.698 227.248C471.652 225.428 471.425 223.654 470.97 221.879C470.697 220.878 470.469 218.967 469.286 218.649C468.194 218.376 466.693 219.422 465.874 220.014C464.645 220.878 463.69 221.97 462.916 223.244C462.416 223.972 463.599 224.655 464.054 223.927Z" fill="#161616"/>
<path d="M427.927 240.216C431.067 243.264 434.388 246.085 437.937 248.633C441.441 251.136 444.854 252.91 449.267 252.683C450.132 252.637 450.132 251.272 449.267 251.318C444.763 251.545 441.441 249.543 437.937 246.995C434.707 244.629 431.704 242.036 428.837 239.26C428.246 238.669 427.29 239.624 427.927 240.216Z" fill="#161616"/>
<path d="M418.736 244.902C423.696 266.924 410.774 290.993 421.466 312.06C423.468 316.018 426.517 319.613 430.703 321.387C434.797 323.116 439.529 322.98 443.761 321.615C453.134 318.612 459.185 309.921 463.826 301.731C466.784 296.59 469.241 291.085 470.697 285.306C471.425 282.44 471.88 279.436 472.016 276.479C472.153 273.066 471.698 269.654 471.834 266.241C471.88 265.377 470.515 265.377 470.469 266.241C470.287 271.792 471.015 277.071 469.923 282.576C468.968 287.49 467.193 292.267 464.964 296.726C460.823 305.098 455.227 314.517 446.627 318.93C442.168 321.205 436.663 322.07 431.886 320.295C427.199 318.566 424.105 314.426 422.103 310.012C417.826 300.412 418.327 289.492 419.464 279.3C420.738 267.743 422.74 256.05 420.147 244.493C419.828 243.719 418.509 244.038 418.736 244.902Z" fill="#161616"/>
<path d="M438.983 290.448C436.435 294.907 434.752 299.73 434.024 304.826C433.887 305.69 435.207 306.054 435.343 305.19C436.071 300.185 437.664 295.498 440.166 291.13C440.621 290.402 439.438 289.72 438.983 290.448Z" fill="#161616"/>
<path d="M439.848 290.948C446.582 290.357 453.68 289.083 460.414 289.811C461.278 289.902 461.278 288.537 460.414 288.446C453.68 287.672 446.582 288.992 439.848 289.583C438.983 289.674 438.983 291.039 439.848 290.948Z" fill="#161616"/>
<path d="M434.707 306.054C438.028 308.011 441.896 307.829 445.627 307.738C449.54 307.601 453.453 307.146 456.865 305.099C457.639 304.644 456.911 303.461 456.183 303.916C452.952 305.872 449.312 306.236 445.627 306.373C442.169 306.509 438.529 306.737 435.389 304.917C434.661 304.462 433.979 305.645 434.707 306.054Z" fill="#161616"/>
<path d="M459.777 289.492C458.913 294.497 457.593 299.32 455.819 304.052C455.5 304.871 456.82 305.235 457.138 304.416C458.958 299.684 460.278 294.816 461.097 289.856C461.233 288.992 459.914 288.628 459.777 289.492Z" fill="#161616"/>
<path d="M438.62 292.814C440.849 297.727 447.173 298.956 452.042 299.001C452.906 299.001 452.906 297.636 452.042 297.636C447.674 297.545 441.804 296.544 439.802 292.086C439.438 291.312 438.256 292.04 438.62 292.814Z" fill="#161616"/>
<path d="M448.448 297.227C448.312 298.365 448.175 299.502 448.039 300.594C447.948 301.459 449.312 301.459 449.403 300.594C449.54 299.457 449.676 298.319 449.813 297.227C449.904 296.363 448.539 296.363 448.448 297.227Z" fill="#161616"/>
<path d="M451.041 297.227C450.905 298.365 450.768 299.502 450.677 300.64C450.586 301.504 451.951 301.504 452.042 300.64C452.179 299.502 452.315 298.365 452.406 297.227C452.497 296.363 451.132 296.363 451.041 297.227Z" fill="#161616"/>
<path d="M452.225 299.138C455.455 298.41 458.14 296.408 459.823 293.587C460.278 292.814 459.095 292.131 458.64 292.905C457.093 295.453 454.727 297.136 451.861 297.819C450.996 298.046 451.36 299.366 452.225 299.138Z" fill="#161616"/>
<path d="M442.259 228.932C440.894 236.985 442.396 246.586 450.631 250.271C451.405 250.635 452.133 249.452 451.314 249.088C443.624 245.63 442.305 236.758 443.579 229.296C443.715 228.431 442.396 228.067 442.259 228.932Z" fill="#161616"/>
<path d="M470.242 226.748C470.333 229.341 470.288 231.98 470.652 234.528C471.016 237.304 473.518 240.398 472.199 243.173C471.835 243.947 473.018 244.675 473.382 243.856C474.565 241.353 473.518 239.26 472.654 236.803C471.516 233.664 471.789 230.024 471.653 226.702C471.562 225.838 470.197 225.838 470.242 226.748Z" fill="#161616"/>
<path d="M454.363 249.316C456.365 248.269 458.64 249.361 459.095 251.545C459.14 251.773 459.459 251.682 459.413 251.454C458.867 249.043 456.365 247.86 454.181 248.997C453.999 249.134 454.181 249.452 454.363 249.316Z" fill="white"/>
<path d="M457.82 251.636C458.139 252 458.366 252.41 458.503 252.865C458.594 253.092 458.912 253.001 458.821 252.774C458.639 252.273 458.366 251.818 458.048 251.409C457.911 251.227 457.638 251.5 457.82 251.636Z" fill="white"/>
<path d="M466.967 248.451C467.376 246.586 468.559 245.039 470.288 244.174C470.47 244.083 470.334 243.765 470.106 243.901C468.286 244.766 467.058 246.404 466.648 248.36C466.602 248.588 466.921 248.679 466.967 248.451Z" fill="white"/>
<path d="M386.841 151.991C383.702 153.584 381.063 156.587 379.88 157.906C376.968 161.228 375.466 164.322 373.828 167.78C372.463 170.601 370.871 174.605 369.597 179.61C371.371 179.928 373.146 180.201 374.92 180.52C374.829 182.249 374.829 184.797 375.512 187.8C376.149 190.53 377.195 194.898 380.835 197.946C385.84 202.223 392.483 201.177 393.712 200.995C393.803 203.133 394.258 206.182 395.987 209.321C396.442 210.095 396.897 210.823 397.352 211.46C399.854 210.732 403.722 209.23 407.498 206.136C417.144 198.356 418.464 186.753 418.873 183.386C419.465 178.199 420.602 168.417 414.187 160.318C407.498 151.946 394.804 147.987 386.841 151.991Z" fill="white"/>
<path d="M377.513 161.455C378.787 159.544 381.244 156.723 384.02 154.767C388.479 151.627 390.481 152.947 392.756 150.171C394.394 148.169 395.441 144.893 394.212 143.346C392.256 140.889 385.294 143.847 384.384 144.256C382.382 145.121 375.784 147.896 373.145 154.903C370.961 160.773 372.417 167.188 373.418 167.325C373.691 167.37 373.873 166.915 375.329 164.686C376.012 163.548 376.785 162.502 377.513 161.455Z" fill="#5222D0"/>
<path d="M387.432 147.76C387.068 148.943 386.522 151.309 388.342 155.95C391.573 164.276 399.126 171.738 402.902 170.373C403.721 170.055 404.586 169.236 406.224 169.145C406.633 169.145 408.271 169.054 409.545 170.055C411.547 171.647 411.638 175.105 410.319 177.335C410.091 177.744 408.863 179.61 406.997 179.746C405.359 179.883 404.813 178.609 403.494 178.518C400.263 178.336 397.488 185.434 397.124 186.389C396.396 188.209 394.621 192.941 395.895 198.993C396.168 200.312 396.805 203.088 398.762 205.954C402.993 212.097 410.091 213.598 412.73 214.144C415.324 214.69 425.197 216.738 432.887 210.368C434.115 209.367 438.165 205.909 439.257 200.039C441.122 190.12 432.796 182.704 432.295 182.294C431.931 177.153 430.703 168.963 426.38 159.999C423.65 154.312 421.102 149.079 415.324 145.121C407.725 139.979 396.669 138.523 390.89 142.982C390.299 143.528 388.342 145.075 387.432 147.76Z" fill="#5222D0"/>
<path d="M378.787 196.581C378.105 197.264 376.103 199.357 375.739 202.633C375.238 207.183 378.287 210.322 378.924 210.959C382.245 214.372 387.796 215.737 391.8 213.689C392.119 213.553 395.622 211.687 395.759 209.003C395.804 207.82 395.167 207.228 394.257 204.589C393.666 202.86 393.302 201.45 393.029 200.494C391.8 200.904 389.707 201.45 387.114 201.086C382.473 200.494 379.606 197.491 378.787 196.581Z" fill="#5222D0"/>
<path opacity="0.12" d="M387.888 151.764C387.933 153.174 388.115 155.267 389.071 157.497C389.708 158.998 390.345 159.908 390.845 160.636C392.756 163.548 393.393 166.278 394.394 169.327C395.987 174.059 395.714 178.017 395.395 182.931C395.122 187.026 394.212 193.26 391.255 200.494C392.483 200.858 394.258 201.586 396.169 202.86C399.672 205.226 401.265 208.047 402.266 209.367C404.313 212.051 408.863 214.872 419.829 214.69C418.737 213.598 417.19 211.96 415.506 209.958C411.548 205.317 408.09 201.268 406.042 196.354C404.859 193.533 403.039 187.754 404.45 179.382C405.724 180.019 407.225 179.974 408.408 179.2C409.637 178.381 410.41 176.743 410.001 175.242C409.5 173.513 407.407 172.33 405.269 172.876C404.814 171.738 404.086 170.1 402.903 168.326C401.037 165.55 399.081 163.821 398.353 163.184C396.032 161.182 392.665 157.77 387.888 151.764Z" fill="#606060"/>
<path opacity="0.14" d="M370.097 178.791C370.142 178.063 372.463 177.471 374.419 177.608C376.148 177.744 378.196 178.518 378.15 179.2C378.105 179.837 376.194 180.338 374.783 180.383C372.599 180.474 370.097 179.519 370.097 178.791Z" fill="#606060"/>
<path d="M375.739 161.865C373.146 167.552 370.825 173.331 368.823 179.246C368.687 179.61 368.96 179.974 369.278 180.065C371.053 180.747 372.827 181.066 374.693 181.02C375.557 181.02 375.557 179.655 374.693 179.655C372.918 179.655 371.28 179.337 369.642 178.745C369.779 179.018 369.961 179.291 370.097 179.564C372.054 173.74 374.283 168.053 376.877 162.502C377.286 161.774 376.103 161.046 375.739 161.865Z" fill="#161616"/>
<path d="M374.511 181.293C374.875 187.162 375.421 193.669 379.789 198.082C383.975 202.359 390.026 201.995 395.532 201.358C396.396 201.267 396.396 199.902 395.532 199.993C390.436 200.585 384.657 201.085 380.744 197.127C376.649 192.986 376.24 186.798 375.876 181.293C375.83 180.428 374.465 180.428 374.511 181.293Z" fill="#161616"/>
<path d="M392.848 201.495C393.439 204.68 394.531 207.729 396.078 210.55C396.488 211.323 397.671 210.641 397.261 209.867C395.76 207.092 394.759 204.225 394.167 201.131C394.031 200.267 392.711 200.63 392.848 201.495Z" fill="#161616"/>
<path d="M375.42 188.255C377.65 190.211 380.971 189.301 381.836 186.435C382.109 185.57 380.789 185.252 380.516 186.071C379.97 187.891 377.832 188.573 376.421 187.254C375.739 186.708 374.783 187.663 375.42 188.255Z" fill="#161616"/>
<path d="M379.606 186.389C380.334 186.571 380.88 186.981 381.335 187.527C381.563 187.8 382.063 187.754 382.291 187.527C382.564 187.254 382.518 186.844 382.291 186.571C381.699 185.843 380.88 185.297 379.97 185.07C379.151 184.842 378.787 186.162 379.606 186.389Z" fill="#161616"/>
<path d="M381.654 169.372C382.018 167.461 384.384 167.825 385.659 168.507C386.751 169.099 387.524 170.054 387.979 171.192C388.298 172.011 389.617 171.647 389.299 170.828C388.571 168.871 387.069 167.324 384.976 166.778C383.065 166.278 380.79 166.869 380.38 169.008C380.198 169.872 381.518 170.236 381.654 169.372Z" fill="#161616"/>
<path d="M381.609 161.319C383.656 157.906 387.66 160.545 388.479 163.412C388.707 164.276 390.026 163.912 389.799 163.048C389.207 160.955 387.751 158.998 385.522 158.452C383.52 157.997 381.472 158.862 380.426 160.591C379.971 161.41 381.154 162.092 381.609 161.319Z" fill="#161616"/>
<path d="M382.973 177.107C383.838 177.107 383.838 175.742 382.973 175.742C382.109 175.742 382.063 177.107 382.973 177.107Z" fill="#161616"/>
<path d="M385.567 175.059C385.613 175.059 385.704 175.059 385.749 175.059C386.113 175.059 386.432 174.741 386.432 174.377C386.432 174.013 386.113 173.694 385.749 173.694C385.704 173.694 385.613 173.694 385.567 173.694C385.203 173.694 384.885 174.013 384.885 174.377C384.885 174.786 385.203 175.059 385.567 175.059Z" fill="#161616"/>
<path d="M385.612 177.38C385.612 177.426 385.612 177.471 385.612 177.517C385.612 178.381 386.977 178.381 386.977 177.517C386.977 177.471 386.977 177.426 386.977 177.38C386.977 176.516 385.612 176.516 385.612 177.38C385.612 177.426 385.612 177.471 385.612 177.517C385.612 178.381 386.977 178.381 386.977 177.517C386.977 177.471 386.977 177.426 386.977 177.38C386.977 176.516 385.612 176.516 385.612 177.38Z" fill="#161616"/>
<path d="M405.451 170.419C406.68 168.644 408.773 169.782 409.501 171.238C410.092 172.375 410.092 173.74 410.047 174.969C409.865 178.063 407.271 180.247 404.268 178.336C403.54 177.835 402.858 179.018 403.586 179.519C405.36 180.702 407.635 180.838 409.41 179.473C411.23 178.063 411.548 175.742 411.412 173.558C411.275 171.465 410.456 169.145 408.272 168.371C406.725 167.825 405.178 168.417 404.268 169.736C403.813 170.419 404.996 171.101 405.451 170.419Z" fill="#161616"/>
<path d="M283.059 144.44C282.103 144.44 281.148 144.486 280.238 144.486C278.691 147.489 277.826 150.219 277.326 152.221C275.87 158.09 276.234 162.959 276.507 165.325C276.689 166.917 276.962 168.237 277.189 169.147C278.008 169.147 278.827 169.147 279.646 169.147C279.965 170.239 280.283 171.331 280.602 172.423C288.291 172.377 294.616 172.377 299.029 172.423C325.783 172.65 344.438 173.697 348.761 173.924C354.175 174.243 358.589 174.561 361.319 174.743C361.41 173.06 361.865 172.468 362.274 172.286C363.002 171.968 363.639 172.741 364.595 172.559C365.596 172.377 366.233 171.331 366.642 170.375C367.461 170.785 368.963 171.331 370.737 171.058C371.147 171.012 371.511 170.876 371.829 170.785C372.603 169.238 373.376 167.691 374.15 166.144C373.058 165.78 371.511 165.461 369.645 165.461C368.599 165.461 367.689 165.598 366.915 165.734C366.824 165.507 366.096 163.459 364.185 163.004C363.594 162.868 363.093 162.913 362.684 163.004C362.411 162.504 362.138 162.003 361.865 161.503C360.773 161.321 359.089 161.048 357.087 160.684C340.844 157.726 329.514 154.132 320.869 151.538C312.588 149.036 300.531 145.623 285.061 141.847C284.424 142.711 283.741 143.576 283.059 144.44Z" fill="white"/>
<path opacity="0.07" d="M276.64 162.092C277.049 162.001 277.504 163.048 278.005 162.911C278.824 162.729 278.642 159.863 278.824 157.724C278.96 155.677 279.552 152.719 281.554 149.125C282.873 149.671 284.875 150.535 287.287 151.582C295.977 155.358 301.983 158.27 303.803 159.089C315.815 164.686 329.01 167.188 332.332 167.825C339.885 169.281 350.35 170.555 362.908 170.009C362.362 171.511 361.816 173.012 361.27 174.514C359.177 174.468 356.128 174.468 352.397 174.377C336.381 174.059 325.188 173.558 318.773 173.285C309.718 172.921 296.751 172.557 280.371 172.603C280.189 171.374 280.007 170.146 279.825 168.917C278.778 169.099 277.732 169.281 276.685 169.463C276.003 163.776 276.185 162.183 276.64 162.092Z" fill="#606060"/>
<path d="M284.011 141.89C278.323 150.672 276.731 161.592 279.643 171.647C279.87 172.512 281.19 172.148 280.962 171.283C278.141 161.546 279.688 151.081 285.194 142.573C285.694 141.799 284.511 141.117 284.011 141.89Z" fill="#161616"/>
<path d="M285.194 143.21C310.811 149.671 336.382 156.132 361.998 162.547C362.863 162.775 363.227 161.455 362.362 161.228C336.746 154.767 311.175 148.306 285.558 141.89C284.739 141.663 284.375 142.982 285.194 143.21Z" fill="#161616"/>
<path d="M280.599 173.149C307.307 172.921 334.016 173.558 360.679 175.014C361.543 175.06 361.543 173.695 360.679 173.649C334.016 172.193 307.307 171.556 280.599 171.784C279.734 171.784 279.734 173.149 280.599 173.149Z" fill="#161616"/>
<path d="M361.588 162.047C363.408 166.096 362.998 170.692 360.496 174.377C359.995 175.105 361.178 175.788 361.679 175.06C364.454 170.965 364.818 165.869 362.771 161.364C362.407 160.591 361.224 161.273 361.588 162.047Z" fill="#161616"/>
<path d="M362.953 163.821C363.454 164.185 363.818 164.048 364.409 164.185C365.547 164.503 366.002 165.55 366.229 166.642C366.593 168.644 366.093 172.876 363.135 171.693C362.316 171.374 361.952 172.694 362.771 173.012C365.774 174.195 367.731 171.056 367.731 168.417C367.731 166.961 367.549 165.322 366.73 164.094C366.457 163.684 366.093 163.275 365.638 163.047C365.046 162.774 364.227 162.956 363.727 162.592C362.908 162.137 362.225 163.32 362.953 163.821Z" fill="#161616"/>
<path d="M366.957 166.324C369.277 166.187 371.598 166.233 373.873 166.551C374.737 166.642 374.737 165.277 373.873 165.186C371.552 164.913 369.277 164.822 366.957 164.959C366.092 165.05 366.092 166.415 366.957 166.324Z" fill="#161616"/>
<path d="M366.776 171.328C368.641 171.647 370.507 171.783 372.372 171.601C373.237 171.51 373.237 170.145 372.372 170.236C370.598 170.373 368.869 170.327 367.14 170.009C366.275 169.872 365.911 171.146 366.776 171.328Z" fill="#161616"/>
<path d="M283.237 144.074C278.824 141.526 277.595 149.489 277.004 151.991C275.639 157.77 275.002 163.73 276.685 169.509C276.776 169.782 277.049 170.009 277.322 170.009C277.914 170.009 278.551 170.009 279.142 170.009C280.007 170.009 280.007 168.644 279.142 168.644C278.551 168.644 277.914 168.644 277.322 168.644C277.55 168.826 277.777 168.963 277.959 169.145C276.776 164.959 276.776 160.727 277.459 156.45C277.777 154.539 278.187 152.628 278.687 150.763C279.006 149.534 280.007 143.756 282.509 145.257C283.328 145.712 284.011 144.529 283.237 144.074Z" fill="#161616"/>
<path d="M332.423 153.856C331.604 152.855 330.239 152.992 330.057 152.992C328.556 153.083 327.1 154.448 325.507 157.769C322.413 164.094 322.277 170.418 322.277 171.419C322.231 175.787 322.641 182.885 325.735 191.348C326.008 194.897 326.599 199.857 327.919 205.635C330.239 216.009 332.696 226.929 341.159 236.621C344.344 240.306 350.623 247.45 361.543 250.043C372.964 252.773 382.246 248.724 384.521 247.677C386.523 246.722 392.119 243.901 396.851 237.94C399.718 234.346 403.039 230.433 402.493 225.61C402.266 223.517 401.356 221.742 399.991 218.921C398.626 216.1 397.898 214.69 396.442 214.144C394.44 213.37 392.301 214.735 389.935 216.1C385.931 218.375 385.567 220.559 381.245 222.834C380.107 223.426 378.97 223.835 376.695 224.563C373.1 225.746 369.551 226.929 366.275 227.157C359.132 227.657 353.399 223.562 351.761 222.379C345.709 218.057 343.343 212.278 341.796 208.502C338.338 200.039 338.611 192.258 339.203 187.708C341.341 187.344 342.661 186.48 343.298 185.979C345.709 184.114 346.301 181.52 347.211 177.516C347.802 175.014 348.075 173.694 347.438 173.194C346.119 172.193 342.069 175.469 341.159 176.242C341.341 173.148 341.796 170.646 342.251 168.871C342.843 166.505 343.161 165.277 343.98 164.321C345.573 162.456 347.438 162.638 348.075 160.863C348.439 159.908 348.394 158.588 347.62 157.815C346.71 156.905 344.754 156.95 343.07 158.27C342.524 157.087 341.432 156.359 340.249 156.313C339.066 156.268 338.293 156.996 338.065 157.178C338.202 155.949 337.656 154.812 336.746 154.357C335.517 153.72 333.561 154.448 332.833 156.313C332.878 156.086 333.197 154.812 332.423 153.856Z" fill="white"/>
<path opacity="0.12" d="M330.057 152.992C328.965 154.903 327.6 157.724 326.69 161.41C324.688 169.418 326.326 176.106 327.054 179.337C334.88 212.688 331.467 213.507 336.927 221.333C338.929 224.154 352.67 243.082 373.145 240.58C390.299 238.487 399.399 222.88 400.582 220.787C401.264 222.607 402.083 225.701 401.537 229.387C400.718 234.801 397.351 238.214 396.123 239.488C394.94 240.671 393.484 241.717 390.526 243.765C387.887 245.63 385.294 247.268 384.156 247.86C378.742 250.908 370.37 251.636 364.546 250.863C348.712 248.77 339.202 233.755 335.244 227.521C326.189 213.28 325.279 198.856 325.37 191.667C324.506 188.755 323.641 185.798 322.777 182.886C322.185 178.381 322.14 174.65 322.231 172.057C322.458 165.55 322.64 160.682 325.962 156.541C327.418 154.721 329.01 153.629 330.057 152.992Z" fill="#606060"/>
<path d="M391.664 243.082C398.853 239.669 403.676 232.526 402.493 224.427C401.81 219.513 397.852 211.05 391.527 214.053C388.706 215.418 386.386 217.92 383.792 219.695C380.198 222.152 376.057 224.063 371.917 225.382C366.639 227.066 360.769 227.43 355.673 224.882C351.942 223.016 349.03 219.968 346.801 216.51C341.887 208.911 339.339 199.948 339.93 190.893C339.976 190.029 338.611 190.029 338.565 190.893C338.065 198.537 339.748 205.817 343.115 212.642C346.073 218.739 350.395 224.472 356.947 226.929C364.91 229.887 373.6 226.884 380.789 223.107C384.02 221.378 386.795 219.149 389.707 216.919C392.346 214.872 394.985 213.871 397.67 216.601C400.991 219.968 401.992 225.837 400.991 230.296C399.763 235.62 395.804 239.624 390.981 241.899C390.208 242.263 390.89 243.446 391.664 243.082Z" fill="#161616"/>
<path d="M339.839 191.485C339.248 188.983 341.022 188.346 342.66 187.162C343.616 186.48 344.344 185.524 345.026 184.569C346.755 182.066 348.12 179.154 348.484 176.106C348.666 174.604 348.985 172.238 346.937 172.147C344.526 172.056 343.525 175.105 341.25 175.332C340.385 175.423 340.385 176.788 341.25 176.697C342.979 176.515 343.843 175.423 345.163 174.422C345.936 173.831 346.801 173.148 347.21 174.468C347.438 175.196 347.074 176.561 346.892 177.289C346.573 178.836 345.891 180.337 345.163 181.748C344.48 183.022 343.707 184.341 342.66 185.388C341.705 186.389 340.385 186.617 339.339 187.436C337.928 188.528 338.156 190.393 338.52 191.895C338.747 192.714 340.067 192.35 339.839 191.485Z" fill="#161616"/>
<path d="M323.96 184.296C323.05 178.427 322.959 172.421 323.869 166.551C324.233 164.185 324.688 161.774 325.507 159.499C326.007 158.088 326.689 156.45 327.69 155.313C329.055 153.811 331.74 153.038 332.468 155.586C332.695 156.45 334.015 156.086 333.787 155.222C333.15 153.038 331.057 151.855 328.873 152.719C326.098 153.857 324.779 157.269 323.914 159.863C321.366 167.734 321.366 176.561 322.595 184.66C322.777 185.525 324.096 185.161 323.96 184.296Z" fill="#161616"/>
<path d="M330.557 160.818C331.649 158.134 334.743 152.719 338.11 156.405C338.702 157.042 339.657 156.086 339.066 155.449C337.519 153.766 335.289 153.493 333.333 154.63C331.149 155.859 330.148 158.27 329.238 160.5C328.919 161.273 330.239 161.637 330.557 160.818Z" fill="#161616"/>
<path d="M336.29 161.955C336.335 160.226 337.018 158.315 338.701 157.496C340.112 156.814 341.795 157.132 342.751 158.361C343.297 159.043 344.252 158.088 343.706 157.405C342.387 155.767 340.021 155.358 338.155 156.222C335.971 157.269 334.97 159.635 334.925 161.955C334.879 162.82 336.244 162.82 336.29 161.955Z" fill="#161616"/>
<path d="M340.248 162.411C341.067 159.362 344.48 156.586 347.437 159.044C348.12 159.59 349.075 158.634 348.393 158.088C344.616 154.994 340.066 157.906 338.929 162.047C338.701 162.911 340.021 163.275 340.248 162.411Z" fill="#161616"/>
<path d="M347.164 158.816C348.62 160.864 345.39 162.138 344.252 163.093C343.297 163.867 342.751 164.868 342.342 166.005C341.25 169.145 340.749 172.557 340.476 175.833C340.385 176.698 341.75 176.698 341.841 175.833C342.069 173.422 342.433 171.01 343.024 168.644C343.206 167.871 343.388 167.097 343.661 166.324C344.252 164.731 345.117 164.14 346.436 163.184C348.074 162.001 349.803 160.09 348.347 158.043C347.847 157.406 346.664 158.088 347.164 158.816Z" fill="#161616"/>
<path d="M322.276 182.931C323.004 186.025 323.914 189.074 325.051 192.077C325.37 192.896 326.689 192.532 326.371 191.713C325.233 188.71 324.323 185.661 323.595 182.567C323.413 181.703 322.094 182.067 322.276 182.931Z" fill="#161616"/>
<path d="M324.824 192.941C326.553 208.593 330.42 224.654 340.931 236.848C349.303 246.54 362.589 253.911 375.693 251.499C381.881 250.362 387.523 247.268 392.027 242.945C392.664 242.354 391.709 241.353 391.072 241.99C382.063 250.635 369.232 252.91 357.811 247.768C345.526 242.172 336.927 231.661 332.058 219.24C328.782 210.822 327.144 201.904 326.143 192.986C326.098 192.076 324.733 192.077 324.824 192.941Z" fill="#161616"/>
</svg>
