<svg width="43" height="12" viewBox="0 0 43 12" fill="none" xmlns="http://www.w3.org/2000/svg">
<path d="M4.8125 4.75C5.61979 4.83854 6.30469 4.98698 6.86719 5.19531C7.42969 5.40365 7.88542 5.65365 8.23438 5.94531C8.58854 6.23177 8.84375 6.55208 9 6.90625C9.16146 7.25521 9.24219 7.61979 9.24219 8C9.24219 8.4375 9.17188 8.82292 9.03125 9.15625C8.89062 9.48958 8.70312 9.78385 8.46875 10.0391C8.23958 10.2891 7.97396 10.5 7.67188 10.6719C7.375 10.8438 7.06771 10.9818 6.75 11.0859C6.4375 11.1953 6.1276 11.2734 5.82031 11.3203C5.51302 11.3724 5.23698 11.401 4.99219 11.4062H4.79688C4.53646 11.401 4.23698 11.3776 3.89844 11.3359C3.5651 11.2995 3.22135 11.2396 2.86719 11.1562C2.51823 11.0729 2.17448 10.9661 1.83594 10.8359C1.4974 10.7005 1.19531 10.5339 0.929688 10.3359C0.664062 10.138 0.450521 9.90365 0.289062 9.63281C0.127604 9.36198 0.046875 9.04688 0.046875 8.6875C0.046875 8.49479 0.078125 8.32552 0.140625 8.17969C0.203125 8.03385 0.289062 7.91146 0.398438 7.8125C0.507812 7.70833 0.632812 7.6276 0.773438 7.57031C0.919271 7.51302 1.07552 7.47917 1.24219 7.46875C1.44531 7.46875 1.63281 7.51302 1.80469 7.60156C1.98177 7.6849 2.13542 7.80469 2.26562 7.96094C2.39583 8.11198 2.5 8.29688 2.57812 8.51562C2.66146 8.72917 2.70833 8.96875 2.71875 9.23438C2.72917 9.44792 2.77865 9.66667 2.86719 9.89062C2.95573 10.1146 3.08594 10.3177 3.25781 10.5C3.42969 10.6823 3.64323 10.8307 3.89844 10.9453C4.15365 11.0599 4.45312 11.1172 4.79688 11.1172C5.06771 11.1172 5.3125 11.0625 5.53125 10.9531C5.75521 10.8438 5.94531 10.6979 6.10156 10.5156C6.25781 10.3333 6.3776 10.1224 6.46094 9.88281C6.54427 9.63802 6.58594 9.38281 6.58594 9.11719C6.58594 8.8776 6.54427 8.64062 6.46094 8.40625C6.3776 8.17188 6.2474 7.96354 6.07031 7.78125C5.89323 7.59375 5.66667 7.4401 5.39062 7.32031C5.11458 7.20052 4.78385 7.13281 4.39844 7.11719C3.61198 7.08073 2.9401 6.96354 2.38281 6.76562C1.83073 6.56771 1.3776 6.3125 1.02344 6C0.669271 5.68229 0.408854 5.32031 0.242188 4.91406C0.0807292 4.50781 0 4.08073 0 3.63281C0 3.14844 0.0729167 2.72396 0.21875 2.35938C0.364583 1.98958 0.557292 1.67188 0.796875 1.40625C1.04167 1.13542 1.32031 0.911458 1.63281 0.734375C1.94531 0.552083 2.26823 0.40625 2.60156 0.296875C2.9401 0.1875 3.27344 0.111979 3.60156 0.0703125C3.9349 0.0234375 4.24219 0 4.52344 0H4.61719C4.8776 0.00520833 5.16667 0.0286458 5.48438 0.0703125C5.80729 0.106771 6.13281 0.166667 6.46094 0.25C6.79427 0.333333 7.11458 0.442708 7.42188 0.578125C7.73438 0.713542 8.01042 0.880208 8.25 1.07812C8.49479 1.27604 8.6901 1.51042 8.83594 1.78125C8.98177 2.04688 9.05469 2.35417 9.05469 2.70312C9.05469 2.90625 9.02083 3.08333 8.95312 3.23438C8.88542 3.38542 8.79427 3.51302 8.67969 3.61719C8.57031 3.71615 8.4401 3.79167 8.28906 3.84375C8.13802 3.89583 7.98177 3.92188 7.82031 3.92188C7.6224 3.92188 7.4375 3.8776 7.26562 3.78906C7.09375 3.70052 6.94271 3.57812 6.8125 3.42188C6.6875 3.26562 6.58594 3.08073 6.50781 2.86719C6.4349 2.64844 6.39844 2.40885 6.39844 2.14844C6.39844 1.92448 6.36979 1.70312 6.3125 1.48438C6.25521 1.26562 6.15625 1.07031 6.01562 0.898438C5.88021 0.721354 5.69792 0.578125 5.46875 0.46875C5.23958 0.359375 4.95573 0.299479 4.61719 0.289062H4.53906C4.28385 0.299479 4.04688 0.375 3.82812 0.515625C3.61458 0.651042 3.42969 0.830729 3.27344 1.05469C3.11719 1.27865 2.99479 1.53125 2.90625 1.8125C2.82292 2.08854 2.78125 2.36979 2.78125 2.65625C2.78125 2.90625 2.81771 3.14844 2.89062 3.38281C2.96875 3.61719 3.08854 3.83073 3.25 4.02344C3.41667 4.21094 3.6276 4.36979 3.88281 4.5C4.13802 4.63021 4.44792 4.71354 4.8125 4.75Z" fill="#5222D0"/>
<path d="M10.4062 4.88281L13.8828 4.78125L13.7656 10.7031H15.0781V10.9922H10.2188V10.7031H11.5156L11.5625 5.13281L10.4062 5.17188V4.88281Z" fill="#5222D0"/>
<path d="M18.8125 6.01562C18.9688 5.70833 19.1354 5.46615 19.3125 5.28906C19.4896 5.11198 19.6536 4.97396 19.8047 4.875C19.9766 4.76562 20.151 4.6875 20.3281 4.64062C20.5469 4.61979 20.7344 4.64062 20.8906 4.70312C21.0521 4.76042 21.1823 4.84635 21.2812 4.96094C21.3854 5.07552 21.4609 5.21094 21.5078 5.36719C21.5547 5.52344 21.5781 5.6875 21.5781 5.85938C21.5781 6.02604 21.5599 6.19531 21.5234 6.36719C21.4922 6.53906 21.4479 6.70312 21.3906 6.85938C21.3385 7.01562 21.2734 7.15885 21.1953 7.28906C21.1224 7.41927 21.0469 7.52344 20.9688 7.60156H20.9844C20.8333 7.76302 20.6901 7.875 20.5547 7.9375C20.4193 8 20.2865 8.03125 20.1562 8.03125C19.9219 8.03125 19.7318 7.95833 19.5859 7.8125C19.4401 7.66667 19.3672 7.46875 19.3672 7.21875C19.3672 7.02604 19.4115 6.8151 19.5 6.58594C19.5885 6.35677 19.737 6.14583 19.9453 5.95312C20.0807 5.83854 20.2214 5.74479 20.3672 5.67188C20.4922 5.60938 20.6328 5.5599 20.7891 5.52344C20.9453 5.48698 21.1016 5.4974 21.2578 5.55469C21.2161 5.35677 21.125 5.19531 20.9844 5.07031C20.8438 4.94531 20.6354 4.89844 20.3594 4.92969C20.1615 4.97135 19.9688 5.0625 19.7812 5.20312C19.6198 5.32292 19.4505 5.5026 19.2734 5.74219C19.1016 5.97656 18.9531 6.29688 18.8281 6.70312L18.9062 10.8359L20.25 10.7969V11.0859L15.4375 11.1875V10.8984L16.4766 10.8828L16.5391 5.11719L15.6875 5.07031V4.78125L18.7969 4.91406L18.8125 6.01562Z" fill="#5222D0"/>
<path d="M22.3438 4.88281L25.8203 4.78125L25.7031 10.7031H27.0156V10.9922H22.1562V10.7031H23.4531L23.5 5.13281L22.3438 5.17188V4.88281Z" fill="#5222D0"/>
<path d="M34.9922 4.78125L34.7969 10.75L35.6094 10.6719L35.6406 10.9609L32.6016 11.2344L32.6172 9.95312C32.5286 10.1458 32.4375 10.3151 32.3438 10.4609C32.25 10.6068 32.1536 10.7344 32.0547 10.8438C31.9609 10.9479 31.8672 11.0365 31.7734 11.1094C31.6797 11.1875 31.5911 11.25 31.5078 11.2969C31.3099 11.4115 31.1146 11.4766 30.9219 11.4922C30.4688 11.4922 30.0729 11.401 29.7344 11.2188C29.3958 11.0417 29.1146 10.8047 28.8906 10.5078C28.6667 10.2109 28.4974 9.875 28.3828 9.5C28.2734 9.11979 28.2188 8.73177 28.2188 8.33594L28.3828 5.00781L27.4531 4.99219V4.70312L30.8594 4.75C30.7448 5.70312 30.6562 6.50781 30.5938 7.16406C30.5365 7.8151 30.4948 8.34375 30.4688 8.75C30.4375 9.22917 30.4193 9.61458 30.4141 9.90625C30.4141 10.1771 30.4349 10.3958 30.4766 10.5625C30.5182 10.7292 30.5729 10.8594 30.6406 10.9531C30.7083 11.0469 30.7812 11.1094 30.8594 11.1406C30.9375 11.1771 31.013 11.1979 31.0859 11.2031C31.1953 11.1771 31.3151 11.125 31.4453 11.0469C31.5807 10.9688 31.7161 10.849 31.8516 10.6875C31.9922 10.5208 32.1276 10.3047 32.2578 10.0391C32.388 9.77344 32.5078 9.44531 32.6172 9.05469L32.6719 5.05469L31.5156 5.03906V4.75L34.9922 4.78125Z" fill="#5222D0"/>
<path d="M39.3672 11.2656C39.0495 11.2656 38.7422 11.224 38.4453 11.1406C38.1484 11.0625 37.8776 10.9505 37.6328 10.8047C37.3932 10.6536 37.1875 10.4766 37.0156 10.2734C36.849 10.0651 36.737 9.83594 36.6797 9.58594C36.6797 9.4401 36.7005 9.30469 36.7422 9.17969C36.7891 9.05469 36.8516 8.94531 36.9297 8.85156C37.013 8.75781 37.1094 8.6849 37.2188 8.63281C37.3281 8.57552 37.4453 8.54688 37.5703 8.54688C37.7214 8.54688 37.8698 8.59115 38.0156 8.67969C38.1615 8.76823 38.2865 8.90365 38.3906 9.08594C38.474 9.23698 38.5339 9.38802 38.5703 9.53906C38.612 9.6901 38.6432 9.83594 38.6641 9.97656C38.6901 10.1172 38.7109 10.25 38.7266 10.375C38.7474 10.4948 38.7786 10.599 38.8203 10.6875C38.8672 10.776 38.9323 10.8464 39.0156 10.8984C39.099 10.9505 39.2161 10.9766 39.3672 10.9766C39.612 10.9766 39.8229 10.9531 40 10.9062C40.1771 10.8594 40.3229 10.7943 40.4375 10.7109C40.5521 10.6276 40.6354 10.5339 40.6875 10.4297C40.7448 10.3255 40.7734 10.2135 40.7734 10.0938C40.7734 9.95833 40.737 9.82031 40.6641 9.67969C40.5911 9.53906 40.4844 9.40885 40.3438 9.28906C40.2031 9.16406 40.026 9.05208 39.8125 8.95312C39.6042 8.85417 39.3594 8.78125 39.0781 8.73438C38.7604 8.68229 38.4661 8.60417 38.1953 8.5C37.9297 8.39583 37.6979 8.25781 37.5 8.08594C37.3021 7.90885 37.1458 7.69531 37.0312 7.44531C36.9219 7.1901 36.8672 6.88542 36.8672 6.53125C36.8672 6.17708 36.9453 5.86458 37.1016 5.59375C37.263 5.31771 37.4688 5.08594 37.7188 4.89844C37.9688 4.71094 38.25 4.56771 38.5625 4.46875C38.875 4.36979 39.1849 4.32031 39.4922 4.32031C39.6224 4.32031 39.7734 4.33073 39.9453 4.35156C40.1172 4.36719 40.2917 4.39844 40.4688 4.44531C40.651 4.49219 40.8307 4.55469 41.0078 4.63281C41.1849 4.71094 41.3411 4.8099 41.4766 4.92969C41.6172 5.04948 41.7292 5.19271 41.8125 5.35938C41.8958 5.52604 41.9375 5.71875 41.9375 5.9375C41.9375 6.0625 41.9141 6.17969 41.8672 6.28906C41.8255 6.39844 41.7656 6.49479 41.6875 6.57812C41.6146 6.65625 41.526 6.71875 41.4219 6.76562C41.3229 6.8125 41.2188 6.83594 41.1094 6.83594C40.8594 6.83594 40.6693 6.78125 40.5391 6.67188C40.4141 6.5625 40.3229 6.42448 40.2656 6.25781C40.2083 6.09115 40.1693 5.91406 40.1484 5.72656C40.1328 5.53385 40.1068 5.35417 40.0703 5.1875C40.0339 5.02083 39.974 4.88281 39.8906 4.77344C39.8125 4.66406 39.6797 4.60938 39.4922 4.60938C39.138 4.63542 38.8594 4.72135 38.6562 4.86719C38.4583 5.00781 38.3594 5.19792 38.3594 5.4375C38.3594 5.59375 38.3932 5.7474 38.4609 5.89844C38.5286 6.04427 38.625 6.17969 38.75 6.30469C38.8802 6.42969 39.0365 6.53906 39.2188 6.63281C39.401 6.72135 39.6042 6.78385 39.8281 6.82031C40.1354 6.8724 40.4297 6.95573 40.7109 7.07031C40.9922 7.1849 41.2396 7.33073 41.4531 7.50781C41.6719 7.6849 41.8438 7.89323 41.9688 8.13281C42.099 8.36719 42.1641 8.6276 42.1641 8.91406C42.1641 9.20052 42.0885 9.48438 41.9375 9.76562C41.7917 10.0469 41.5911 10.2995 41.3359 10.5234C41.0807 10.7422 40.7839 10.9193 40.4453 11.0547C40.1068 11.1953 39.7474 11.2656 39.3672 11.2656Z" fill="#5222D0"/>
<circle cx="12.4297" cy="2.47656" r="1.5" fill="#EC615B"/>
<circle cx="24.4297" cy="2.47656" r="1.5" fill="#EC615B"/>
</svg>
