<svg width="98" height="27" viewBox="0 0 98 27" fill="none" xmlns="http://www.w3.org/2000/svg">
    <path d="M11.1855 11.047C13.0618 11.253 14.6537 11.5982 15.9611 12.0827C17.2685 12.5672 18.3277 13.1486 19.1388 13.827C19.962 14.4932 20.5551 15.2381 20.9183 16.0618C21.2936 16.8734 21.4812 17.7213 21.4812 18.6055C21.4812 19.623 21.3178 20.5194 20.9909 21.2946C20.6641 22.0698 20.2283 22.7542 19.6835 23.3478C19.1509 23.9292 18.5335 24.4198 17.8314 24.8195C17.1414 25.2192 16.4272 25.5402 15.6887 25.7825C14.9624 26.0368 14.2421 26.2185 13.5279 26.3275C12.8137 26.4487 12.1721 26.5153 11.6031 26.5274H11.1492C10.5439 26.5153 9.84782 26.4608 9.06096 26.3639C8.28621 26.2791 7.48725 26.1398 6.66407 25.946C5.853 25.7522 5.05404 25.5039 4.26719 25.201C3.48033 24.8861 2.77821 24.4985 2.16083 24.0382C1.54345 23.5779 1.04712 23.0328 0.671855 22.4029C0.296585 21.7731 0.108949 21.0402 0.108949 20.2044C0.108949 19.7563 0.181582 19.3626 0.326848 19.0234C0.472114 18.6843 0.671855 18.3996 0.92607 18.1695C1.18029 17.9272 1.47082 17.7394 1.79767 17.6062C2.13662 17.473 2.49978 17.3942 2.88716 17.37C3.35927 17.37 3.79507 17.473 4.19455 17.6789C4.60614 17.8727 4.96325 18.1513 5.26589 18.5147C5.56853 18.866 5.81064 19.296 5.99222 19.8047C6.18591 20.3013 6.29486 20.8585 6.31907 21.4763C6.34328 21.9729 6.45828 22.4817 6.66407 23.0025C6.86987 23.5234 7.1725 23.9958 7.57198 24.4198C7.97147 24.8437 8.46779 25.1889 9.06096 25.4554C9.65413 25.7219 10.3502 25.8551 11.1492 25.8551C11.7786 25.8551 12.3476 25.728 12.856 25.4736C13.3766 25.2192 13.8184 24.88 14.1816 24.4561C14.5447 24.0321 14.8232 23.5416 15.0169 22.9844C15.2105 22.4151 15.3074 21.8215 15.3074 21.2038C15.3074 20.6466 15.2105 20.0954 15.0169 19.5503C14.8232 19.0053 14.5205 18.5207 14.1089 18.0968C13.6974 17.6607 13.1708 17.3034 12.5292 17.0248C11.8876 16.7462 11.1189 16.5887 10.2231 16.5524C8.39516 16.4676 6.83355 16.195 5.53826 15.7347C4.25508 15.2745 3.2019 14.6809 2.37873 13.9541C1.55556 13.2153 0.950281 12.3734 0.562905 11.4286C0.187635 10.4838 0 9.49051 0 8.4488C0 7.32229 0.169477 6.33508 0.508431 5.48718C0.847384 4.62716 1.29529 3.88826 1.85214 3.2705C2.4211 2.64063 3.06874 2.11977 3.79507 1.70793C4.5214 1.28398 5.27194 0.944812 6.04669 0.690439C6.83355 0.436067 7.6083 0.260429 8.37095 0.163525C9.1457 0.0545084 9.85992 0 10.5136 0H10.7315C11.3368 0.012113 12.0086 0.0666213 12.7471 0.163525C13.4976 0.248316 14.2542 0.387615 15.0169 0.581423C15.7916 0.77523 16.5361 1.0296 17.2503 1.34454C17.9767 1.65948 18.6182 2.04709 19.1751 2.50739C19.7441 2.96768 20.198 3.51276 20.537 4.14264C20.8759 4.7604 21.0454 5.47506 21.0454 6.28663C21.0454 6.75904 20.9667 7.17088 20.8093 7.52216C20.652 7.87343 20.4401 8.1702 20.1738 8.41246C19.9196 8.6426 19.6169 8.81824 19.2659 8.93937C18.9148 9.0605 18.5517 9.12107 18.1764 9.12107C17.7164 9.12107 17.2866 9.01811 16.8872 8.81219C16.4877 8.60627 16.1366 8.32161 15.834 7.95822C15.5435 7.59483 15.3074 7.16482 15.1258 6.66819C14.9563 6.15945 14.8716 5.60225 14.8716 4.9966C14.8716 4.47574 14.805 3.96094 14.6719 3.4522C14.5387 2.94345 14.3087 2.48922 13.9818 2.08949C13.6671 1.67765 13.2434 1.34454 12.7108 1.09017C12.1781 0.835795 11.5184 0.696496 10.7315 0.67227H10.5499C9.95677 0.696496 9.40597 0.872134 8.89754 1.19918C8.40121 1.51412 7.97147 1.93202 7.6083 2.45288C7.24514 2.97373 6.96066 3.56121 6.75486 4.21531C6.56118 4.8573 6.46433 5.5114 6.46433 6.17762C6.46433 6.75904 6.54907 7.32229 6.71855 7.86737C6.90013 8.41246 7.17856 8.90909 7.55383 9.35727C7.9412 9.79334 8.43147 10.1628 9.02464 10.4656C9.61781 10.7684 10.3381 10.9622 11.1855 11.047Z" fill="#5222D0"/>
    <path d="M24.1868 11.3559L32.2672 11.1197L31.9948 24.8922H35.0454V25.5644H23.751V24.8922H26.7652L26.8742 11.9373L24.1868 12.0282V11.3559Z" fill="#5222D0"/>
    <path d="M43.725 13.9905C44.0882 13.2758 44.4756 12.7126 44.8872 12.3007C45.2987 11.8889 45.6801 11.5679 46.0311 11.3377C46.4306 11.0834 46.8361 10.9017 47.2477 10.7927C47.7562 10.7442 48.192 10.7927 48.5551 10.938C48.9304 11.0713 49.233 11.2711 49.463 11.5376C49.7051 11.8041 49.8807 12.119 49.9896 12.4824C50.0986 12.8458 50.153 13.2274 50.153 13.6271C50.153 14.0147 50.1107 14.4084 50.0259 14.8081C49.9533 15.2078 49.8504 15.5894 49.7173 15.9528C49.5962 16.3162 49.4449 16.6493 49.2633 16.9521C49.0938 17.2549 48.9183 17.4972 48.7367 17.6789H48.773C48.422 18.0544 48.0891 18.3148 47.7743 18.4602C47.4596 18.6055 47.1509 18.6782 46.8483 18.6782C46.3035 18.6782 45.8617 18.5086 45.5227 18.1695C45.1837 17.8303 45.0143 17.37 45.0143 16.7886C45.0143 16.3404 45.1172 15.8498 45.323 15.3169C45.5288 14.7839 45.8738 14.2933 46.358 13.8451C46.6727 13.5786 46.9996 13.3606 47.3385 13.191C47.6291 13.0457 47.9559 12.9306 48.3191 12.8458C48.6822 12.761 49.0454 12.7852 49.4086 12.9185C49.3117 12.4582 49.0999 12.0827 48.773 11.792C48.4462 11.5013 47.962 11.3923 47.3204 11.4649C46.8604 11.5618 46.4125 11.7738 45.9767 12.1009C45.6014 12.3795 45.208 12.7974 44.7964 13.3546C44.3969 13.8996 44.0519 14.6446 43.7613 15.5894L43.9429 25.201L47.0662 25.1102V25.7825L35.8807 26.0187V25.3464L38.2957 25.3101L38.441 11.901L36.4617 11.792V11.1197L43.6887 11.4286L43.725 13.9905Z" fill="#5222D0"/>
    <path d="M51.9326 11.3559L60.013 11.1197L59.7406 24.8922H62.7912V25.5644H51.4968V24.8922H54.511L54.62 11.9373L51.9326 12.0282V11.3559Z" fill="#5222D0"/>
    <path d="M81.3307 11.1197L80.8768 25.0012L82.7652 24.8195L82.8379 25.4917L75.7743 26.1277L75.8106 23.1479C75.6048 23.5961 75.393 23.9897 75.1751 24.3289C74.9572 24.6681 74.7332 24.9648 74.5032 25.2192C74.2853 25.4615 74.0674 25.6674 73.8495 25.837C73.6317 26.0187 73.4259 26.164 73.2322 26.273C72.7722 26.5395 72.3182 26.6909 71.8703 26.7273C70.8171 26.7273 69.8971 26.5153 69.1102 26.0913C68.3234 25.6795 67.6697 25.1284 67.1492 24.4379C66.6286 23.7475 66.2352 22.9662 65.9689 22.0941C65.7147 21.2098 65.5875 20.3074 65.5875 19.3868L65.9689 11.6466L63.808 11.6103V10.938L71.725 11.047C71.4587 13.2637 71.2529 15.1352 71.1077 16.6614C70.9745 18.1755 70.8776 19.405 70.8171 20.3498C70.7445 21.4642 70.7021 22.3605 70.69 23.0389C70.69 23.6687 70.7384 24.1775 70.8353 24.5651C70.9321 24.9527 71.0592 25.2555 71.2166 25.4736C71.374 25.6916 71.5434 25.837 71.725 25.9096C71.9066 25.9944 72.0821 26.0429 72.2516 26.055C72.5058 25.9944 72.7843 25.8733 73.0869 25.6916C73.4016 25.5099 73.7164 25.2313 74.0311 24.8558C74.358 24.4682 74.6727 23.9655 74.9754 23.3478C75.278 22.73 75.5564 21.9669 75.8106 21.0584L75.9377 11.7556L73.2503 11.7193V11.047L81.3307 11.1197Z" fill="#5222D0"/>
    <path d="M91.4994 26.2004C90.7609 26.2004 90.0467 26.1035 89.3567 25.9096C88.6667 25.728 88.0372 25.4675 87.4682 25.1284C86.9114 24.7771 86.4332 24.3652 86.0337 23.8928C85.6463 23.4083 85.3861 22.8753 85.2529 22.2939C85.2529 21.9548 85.3013 21.6398 85.3982 21.3491C85.5071 21.0584 85.6524 20.804 85.834 20.586C86.0277 20.368 86.2516 20.1984 86.5058 20.0772C86.7601 19.944 87.0324 19.8774 87.323 19.8774C87.674 19.8774 88.019 19.9803 88.358 20.1863C88.6969 20.3922 88.9875 20.7071 89.2296 21.1311C89.4233 21.4824 89.5625 21.8336 89.6472 22.1849C89.7441 22.5362 89.8167 22.8753 89.8651 23.2024C89.9256 23.5294 89.9741 23.8383 90.0104 24.129C90.0588 24.4076 90.1314 24.6499 90.2283 24.8558C90.3372 25.0617 90.4885 25.2253 90.6822 25.3464C90.8759 25.4675 91.1483 25.5281 91.4994 25.5281C92.0683 25.5281 92.5586 25.4736 92.9702 25.3646C93.3818 25.2555 93.7207 25.1041 93.987 24.9103C94.2533 24.7165 94.447 24.4985 94.5681 24.2562C94.7013 24.014 94.7678 23.7535 94.7678 23.4749C94.7678 23.16 94.6831 22.839 94.5136 22.512C94.3441 22.1849 94.096 21.8821 93.7691 21.6035C93.4423 21.3128 93.0307 21.0523 92.5344 20.8222C92.0502 20.5921 91.4812 20.4225 90.8275 20.3135C90.0891 20.1923 89.4051 20.0106 88.7756 19.7684C88.1582 19.5261 87.6195 19.2051 87.1595 18.8054C86.6995 18.3935 86.3364 17.8969 86.07 17.3155C85.8158 16.722 85.6887 16.0133 85.6887 15.1897C85.6887 14.366 85.8703 13.6392 86.2335 13.0093C86.6087 12.3673 87.0869 11.8283 87.668 11.3923C88.249 10.9562 88.9027 10.6231 89.6291 10.3929C90.3554 10.1628 91.0757 10.0477 91.7899 10.0477C92.0925 10.0477 92.4436 10.0719 92.8431 10.1204C93.2425 10.1567 93.6481 10.2294 94.0597 10.3384C94.4834 10.4474 94.901 10.5928 95.3126 10.7745C95.7242 10.9562 96.0873 11.1863 96.4021 11.4649C96.7289 11.7435 96.9892 12.0766 97.1829 12.4642C97.3766 12.8519 97.4734 13.3 97.4734 13.8088C97.4734 14.0995 97.4189 14.372 97.31 14.6264C97.2131 14.8808 97.0739 15.1049 96.8923 15.2987C96.7229 15.4804 96.5171 15.6257 96.275 15.7347C96.045 15.8438 95.8029 15.8983 95.5486 15.8983C94.9676 15.8983 94.5257 15.7711 94.2231 15.5167C93.9326 15.2623 93.7207 14.9413 93.5875 14.5537C93.4544 14.1661 93.3636 13.7543 93.3152 13.3182C93.2789 12.87 93.2183 12.4521 93.1336 12.0645C93.0489 11.6769 92.9096 11.3559 92.716 11.1015C92.5344 10.8472 92.2257 10.72 91.7899 10.72C90.9667 10.7805 90.3191 10.9804 89.847 11.3196C89.3869 11.6466 89.1569 12.0887 89.1569 12.6459C89.1569 13.0093 89.2356 13.3667 89.393 13.7179C89.5504 14.0571 89.7743 14.372 90.0648 14.6628C90.3675 14.9535 90.7307 15.2078 91.1544 15.4259C91.578 15.6318 92.0502 15.7771 92.5707 15.8619C93.2849 15.9831 93.9689 16.1769 94.6226 16.4434C95.2763 16.7098 95.8513 17.049 96.3476 17.4608C96.856 17.8727 97.2555 18.3572 97.546 18.9144C97.8487 19.4595 98 20.0651 98 20.7313C98 21.3976 97.8245 22.0577 97.4734 22.7118C97.1345 23.3659 96.6684 23.9534 96.0752 24.4743C95.4821 24.983 94.792 25.3948 94.0052 25.7098C93.2183 26.0368 92.3831 26.2004 91.4994 26.2004Z" fill="#5222D0"/>
    <circle cx="28.9547" cy="5.56817" r="3.34091" fill="#EC615B"/>
    <circle cx="56.7955" cy="5.56817" r="3.34091" fill="#EC615B"/>
</svg>
