<svg width="30" height="26" viewBox="0 0 30 26" fill="none" xmlns="http://www.w3.org/2000/svg">
<path d="M21.6665 25.9182H8.33317C6.44414 25.9194 4.61563 25.2521 3.17142 24.0345C1.7272 22.8168 0.76046 21.1274 0.442373 19.2653C0.124287 17.4033 0.475377 15.4887 1.43348 13.8607C2.39157 12.2327 3.89487 10.9962 5.67717 10.3702C5.61679 9.10846 5.81318 7.84755 6.25445 6.66389C6.69571 5.48024 7.37266 4.39848 8.24429 3.48414C9.11593 2.5698 10.1641 1.84192 11.3253 1.34459C12.4865 0.847254 13.7366 0.59082 14.9998 0.59082C16.2631 0.59082 17.5131 0.847254 18.6744 1.34459C19.8356 1.84192 20.8837 2.5698 21.7554 3.48414C22.627 4.39848 23.304 5.48024 23.7452 6.66389C24.1865 7.84755 24.3829 9.10846 24.3225 10.3702C26.1048 10.9962 27.6081 12.2327 28.5662 13.8607C29.5243 15.4887 29.8754 17.4033 29.5573 19.2653C29.2392 21.1274 28.2725 22.8168 26.8283 24.0345C25.384 25.2521 23.5555 25.9194 21.6665 25.9182Z" fill="#0063CB"/>
</svg>