
<svg width="30" height="26" viewBox="0 0 30 26" fill="none" xmlns="http://www.w3.org/2000/svg">
<path d="M21.6665 26.0003H8.33317C6.44414 26.0015 4.61563 25.3342 3.17142 24.1165C1.7272 22.8989 0.76046 21.2094 0.442373 19.3474C0.124287 17.4853 0.475377 15.5708 1.43348 13.9427C2.39157 12.3147 3.89487 11.0782 5.67717 10.4523C5.61679 9.19049 5.81318 7.92958 6.25445 6.74592C6.69571 5.56227 7.37266 4.48051 8.24429 3.56617C9.11593 2.65183 10.1641 1.92395 11.3253 1.42662C12.4865 0.929285 13.7366 0.672852 14.9998 0.672852C16.2631 0.672852 17.5131 0.929285 18.6744 1.42662C19.8356 1.92395 20.8837 2.65183 21.7554 3.56617C22.627 4.48051 23.304 5.56227 23.7452 6.74592C24.1865 7.92958 24.3829 9.19049 24.3225 10.4523C26.1048 11.0782 27.6081 12.3147 28.5662 13.9427C29.5243 15.5708 29.8754 17.4853 29.5573 19.3474C29.2392 21.2094 28.2725 22.8989 26.8283 24.1165C25.384 25.3342 23.5555 26.0015 21.6665 26.0003ZM21.6665 10.0003C21.6668 9.11095 21.4892 8.23054 21.1441 7.4109C20.799 6.59125 20.2935 5.84894 19.6571 5.22766C19.0208 4.60638 18.2666 4.1187 17.4389 3.79333C16.6113 3.46796 15.7268 3.31147 14.8378 3.33309C13.9487 3.35471 13.073 3.55399 12.2621 3.9192C11.4512 4.28441 10.7216 4.80817 10.1162 5.45964C9.51083 6.11111 9.04191 6.87712 8.73707 7.71257C8.43222 8.54802 8.29761 9.43602 8.34117 10.3243L8.4345 12.3083L6.5625 12.9669C5.37651 13.3864 4.37683 14.2113 3.73996 15.2962C3.10309 16.381 2.86998 17.656 3.08178 18.896C3.29358 20.136 3.93667 21.2613 4.89752 22.0733C5.85837 22.8852 7.07519 23.3316 8.33317 23.3336H21.6665C22.6483 23.3333 23.6109 23.062 24.4484 22.5496C25.2858 22.0371 25.9656 21.3035 26.4128 20.4294C26.86 19.5554 27.0572 18.5749 26.9828 17.5959C26.9083 16.617 26.5651 15.6776 25.9909 14.8812C25.4167 14.0848 24.6339 13.4624 23.7286 13.0824C22.8233 12.7025 21.8307 12.5799 20.8601 12.728C19.8896 12.8761 18.9787 13.2893 18.228 13.9219C17.4772 14.5546 16.9157 15.3822 16.6052 16.3136L14.0745 15.4696C14.6063 13.8768 15.6255 12.4916 16.988 11.51C18.3505 10.5285 19.9873 10.0003 21.6665 10.0003Z" fill="#0063CB"/>
</svg>
