<svg xmlns="http://www.w3.org/2000/svg" width="13" height="12" viewBox="0 0 13 12" fill="none">
<path fill-rule="evenodd" clip-rule="evenodd" d="M6 10C6 9.72386 6.22386 9.5 6.5 9.5H11C11.2761 9.5 11.5 9.72386 11.5 10C11.5 10.2761 11.2761 10.5 11 10.5H6.5C6.22386 10.5 6 10.2761 6 10Z" fill="black"/>
<path fill-rule="evenodd" clip-rule="evenodd" d="M9.50001 1.93945C9.35131 1.93945 9.20871 1.99852 9.10356 2.10367L2.95149 8.25574L2.68719 9.31293L3.74439 9.04863L9.89646 2.89656C9.94852 2.8445 9.98982 2.78269 10.018 2.71467C10.0462 2.64665 10.0607 2.57374 10.0607 2.50011C10.0607 2.42649 10.0462 2.35358 10.018 2.28556C9.98982 2.21754 9.94852 2.15573 9.89646 2.10367C9.8444 2.0516 9.78259 2.01031 9.71457 1.98213C9.64654 1.95395 9.57364 1.93945 9.50001 1.93945ZM8.39646 1.39656C8.68914 1.10388 9.0861 0.939453 9.50001 0.939453C9.70496 0.939453 9.9079 0.979821 10.0972 1.05825C10.2866 1.13668 10.4586 1.25164 10.6036 1.39656C10.7485 1.54148 10.8634 1.71353 10.9419 1.90287C11.0203 2.09222 11.0607 2.29516 11.0607 2.50011C11.0607 2.70506 11.0203 2.908 10.9419 3.09735C10.8634 3.2867 10.7485 3.45875 10.6036 3.60367L4.35356 9.85367C4.28948 9.91775 4.20919 9.96321 4.12128 9.98518L2.12128 10.4852C1.95089 10.5278 1.77065 10.4779 1.64646 10.3537C1.52227 10.2295 1.47234 10.0492 1.51494 9.87885L2.01494 7.87885C2.03692 7.79093 2.08238 7.71064 2.14646 7.64656L8.39646 1.39656Z" fill="black"/>
</svg>