
<svg width="20" height="21" viewBox="0 0 20 21" fill="none" xmlns="http://www.w3.org/2000/svg">
<path fill-rule="evenodd" clip-rule="evenodd" d="M18.5275 2.5449C18.6449 2.42771 18.7109 2.26869 18.711 2.10284C18.7111 1.93699 18.6453 1.77788 18.5281 1.66052C18.4109 1.54317 18.2519 1.47717 18.0861 1.47705C17.9202 1.47693 17.7611 1.54271 17.6437 1.6599L15.0063 4.2974C13.6125 3.33115 11.9563 2.6349 10.075 2.6349C3.75 2.6349 0 10.1349 0 10.1349C0 10.1349 1.4525 13.0386 4.0725 15.2324L1.4925 17.8136C1.43281 17.8713 1.38519 17.9403 1.35244 18.0165C1.31968 18.0928 1.30244 18.1748 1.30172 18.2578C1.301 18.3408 1.31681 18.4231 1.34824 18.4999C1.37966 18.5767 1.42607 18.6465 1.48475 18.7051C1.54344 18.7638 1.61322 18.8102 1.69003 18.8417C1.76684 18.8731 1.84914 18.8889 1.93213 18.8882C2.01511 18.8875 2.09713 18.8702 2.17338 18.8375C2.24963 18.8047 2.3186 18.7571 2.37625 18.6974L18.5275 2.5449ZM6.075 13.2311L7.865 11.4399C7.62523 11.0465 7.49891 10.5944 7.5 10.1336C7.5 8.74615 8.6125 7.63365 10 7.63365C10.48 7.63365 10.9263 7.76615 11.3062 7.99865L13.0975 6.2074C12.216 5.5098 11.1242 5.13133 10 5.13365C7.25 5.13365 5 7.38365 5 10.1336C5 11.3061 5.40125 12.3811 6.07375 13.2311H6.075ZM14.8312 8.83865L17.3225 6.34865C18.3694 7.49365 19.2689 8.7652 20 10.1336C20 10.1336 16.25 17.6336 10.075 17.6336C8.92883 17.6295 7.79607 17.3868 6.74875 16.9211L8.705 14.9636C9.1175 15.0749 9.5525 15.1336 10 15.1336C12.775 15.1336 15 12.9086 15 10.1336C15 9.68615 14.9413 9.2524 14.83 8.83865H14.8312ZM11.6725 11.9961L11.8625 11.8074C11.8026 11.8737 11.7392 11.9367 11.6725 11.9961Z" fill="#161616"/>
</svg>
