
<svg width="16" height="17" viewBox="0 0 16 17" fill="none" xmlns="http://www.w3.org/2000/svg">
<path fill-rule="evenodd" clip-rule="evenodd" d="M8.06 2.22729C3 2.22729 0 8.22729 0 8.22729C0 8.22729 3 14.2273 8.06 14.2273C13 14.2273 16 8.22729 16 8.22729C16 8.22729 13 2.22729 8.06 2.22729ZM8 12.2273C5.8 12.2273 4 10.4473 4 8.22729C4 6.02729 5.8 4.22729 8 4.22729C10.22 4.22729 12 6.02729 12 8.22729C12 10.4473 10.22 12.2273 8 12.2273ZM10 8.22729C10 9.3373 9.11 10.2273 8 10.2273C6.89 10.2273 6 9.3373 6 8.22729C6 7.11729 6.89 6.22729 8 6.22729C9.11 6.22729 10 7.11729 10 8.22729Z" fill="#000091"/>
</svg>
