
<svg width="27" height="28" viewBox="0 0 27 28" fill="none" xmlns="http://www.w3.org/2000/svg">
<path d="M13.5013 27.3332C6.1373 27.3332 0.167969 21.3638 0.167969 13.9998C0.167969 6.63584 6.1373 0.666504 13.5013 0.666504C20.8653 0.666504 26.8346 6.63584 26.8346 13.9998C26.8346 21.3638 20.8653 27.3332 13.5013 27.3332ZM6.83464 15.3332C6.83464 17.1013 7.53701 18.797 8.78726 20.0472C10.0375 21.2975 11.7332 21.9998 13.5013 21.9998C15.2694 21.9998 16.9651 21.2975 18.2153 20.0472C19.4656 18.797 20.168 17.1013 20.168 15.3332H17.5013C17.5013 16.394 17.0799 17.4115 16.3297 18.1616C15.5796 18.9117 14.5622 19.3332 13.5013 19.3332C12.4404 19.3332 11.423 18.9117 10.6729 18.1616C9.92273 17.4115 9.5013 16.394 9.5013 15.3332H6.83464ZM8.16797 12.6665C8.6984 12.6665 9.20711 12.4558 9.58218 12.0807C9.95725 11.7056 10.168 11.1969 10.168 10.6665C10.168 10.1361 9.95725 9.62736 9.58218 9.25229C9.20711 8.87722 8.6984 8.6665 8.16797 8.6665C7.63754 8.6665 7.12883 8.87722 6.75375 9.25229C6.37868 9.62736 6.16797 10.1361 6.16797 10.6665C6.16797 11.1969 6.37868 11.7056 6.75375 12.0807C7.12883 12.4558 7.63754 12.6665 8.16797 12.6665V12.6665ZM18.8346 12.6665C19.3651 12.6665 19.8738 12.4558 20.2488 12.0807C20.6239 11.7056 20.8346 11.1969 20.8346 10.6665C20.8346 10.1361 20.6239 9.62736 20.2488 9.25229C19.8738 8.87722 19.3651 8.6665 18.8346 8.6665C18.3042 8.6665 17.7955 8.87722 17.4204 9.25229C17.0453 9.62736 16.8346 10.1361 16.8346 10.6665C16.8346 11.1969 17.0453 11.7056 17.4204 12.0807C17.7955 12.4558 18.3042 12.6665 18.8346 12.6665Z" fill="#18753C"/>
</svg>
