
<svg width="24" height="24" viewBox="0 0 24 24" fill="none" xmlns="http://www.w3.org/2000/svg">
<path fill-rule="evenodd" clip-rule="evenodd" d="M12 10.2034C11.4696 10.2034 10.9609 10.4141 10.5858 10.7892C10.2107 11.1642 10 11.6729 10 12.2034C10 12.7338 10.2107 13.2425 10.5858 13.6176C10.9609 13.9927 11.4696 14.2034 12 14.2034C12.5304 14.2034 13.0391 13.9927 13.4142 13.6176C13.7893 13.2425 14 12.7338 14 12.2034C14 11.6729 13.7893 11.1642 13.4142 10.7892C13.0391 10.4141 12.5304 10.2034 12 10.2034ZM9.17157 9.37494C9.92172 8.6248 10.9391 8.20337 12 8.20337C13.0609 8.20337 14.0783 8.6248 14.8284 9.37494C15.5786 10.1251 16 11.1425 16 12.2034C16 13.2642 15.5786 14.2817 14.8284 15.0318C14.0783 15.7819 13.0609 16.2034 12 16.2034C10.9391 16.2034 9.92172 15.7819 9.17157 15.0318C8.42143 14.2817 8 13.2642 8 12.2034C8 11.1425 8.42143 10.1251 9.17157 9.37494Z" fill="#CACAFB"/>
<path fill-rule="evenodd" clip-rule="evenodd" d="M2.45797 12.2034L1.50391 12.503C2.90505 16.9649 7.07374 20.2034 12 20.2034C16.9273 20.2034 21.0949 16.9648 22.496 12.503C22.5573 12.3079 22.5573 12.0988 22.496 11.9038C21.0949 7.44193 16.9273 4.20337 12 4.20337C7.07374 4.20337 2.90505 7.44188 1.50391 11.9038L2.45797 12.2034ZM3.51198 12.2034C4.74748 15.6998 8.08319 18.2034 12 18.2034C15.9177 18.2034 19.2525 15.6998 20.488 12.2034C19.2525 8.70691 15.9177 6.20337 12 6.20337C8.08319 6.20337 4.74748 8.70696 3.51198 12.2034Z" fill="#CACAFB"/>
</svg>
