
<svg width="24" height="25" viewBox="0 0 24 25" fill="none" xmlns="http://www.w3.org/2000/svg">
<path fill-rule="evenodd" clip-rule="evenodd" d="M11.9996 11.0274C12.9544 11.0274 13.8701 10.6481 14.5452 9.97298C15.2203 9.29785 15.5996 8.38217 15.5996 7.42739C15.5996 6.47261 15.2203 5.55694 14.5452 4.88181C13.8701 4.20668 12.9544 3.82739 11.9996 3.82739C11.0448 3.82739 10.1292 4.20668 9.45403 4.88181C8.77889 5.55694 8.39961 6.47261 8.39961 7.42739C8.39961 8.38217 8.77889 9.29785 9.45403 9.97298C10.1292 10.6481 11.0448 11.0274 11.9996 11.0274ZM3.59961 21.8274C3.59961 20.7243 3.81688 19.632 4.23902 18.6129C4.66116 17.5937 5.2799 16.6677 6.05991 15.8877C6.83992 15.1077 7.76593 14.4889 8.78507 14.0668C9.8042 13.6447 10.8965 13.4274 11.9996 13.4274C13.1027 13.4274 14.195 13.6447 15.2142 14.0668C16.2333 14.4889 17.1593 15.1077 17.9393 15.8877C18.7193 16.6677 19.3381 17.5937 19.7602 18.6129C20.1823 19.632 20.3996 20.7243 20.3996 21.8274H3.59961Z" fill="#000091"/>
</svg>
