<svg xmlns="http://www.w3.org/2000/svg" width="12" height="12" viewBox="0 0 12 12" fill="none">
<path fill-rule="evenodd" clip-rule="evenodd" d="M1.125 6C1.125 3.30852 3.30852 1.125 6 1.125C8.69148 1.125 10.875 3.30852 10.875 6C10.875 8.69148 8.69148 10.875 6 10.875C3.30852 10.875 1.125 8.69148 1.125 6ZM6 1.875C3.72273 1.875 1.875 3.72273 1.875 6C1.875 8.27727 3.72273 10.125 6 10.125C8.27727 10.125 10.125 8.27727 10.125 6C10.125 3.72273 8.27727 1.875 6 1.875Z" fill="#48BB78"/>
<path fill-rule="evenodd" clip-rule="evenodd" d="M8.4912 3.83787C8.64978 3.97108 8.67035 4.20762 8.53714 4.36621L5.38714 8.11621C5.31733 8.19932 5.21493 8.2481 5.10641 8.24995C4.99788 8.25181 4.89388 8.20655 4.82127 8.12587L3.47127 6.62587C3.33272 6.47193 3.3452 6.23482 3.49914 6.09627C3.65308 5.95773 3.89019 5.97021 4.02874 6.12415L5.09024 7.3036L7.96286 3.88381C8.09607 3.72523 8.33262 3.70466 8.4912 3.83787Z" fill="#48BB78"/>
</svg>