<svg xmlns="http://www.w3.org/2000/svg" width="17" height="17" viewBox="0 0 17 17" fill="none">
<path fill-rule="evenodd" clip-rule="evenodd" d="M2 8.25C2 4.79855 4.79855 2 8.25 2C11.7015 2 14.5 4.79855 14.5 8.25C14.5 11.7015 11.7015 14.5 8.25 14.5C4.79855 14.5 2 11.7015 2 8.25ZM8.25 3C5.35083 3 3 5.35083 3 8.25C3 11.1492 5.35083 13.5 8.25 13.5C11.1492 13.5 13.5 11.1492 13.5 8.25C13.5 5.35083 11.1492 3 8.25 3Z" fill="#000091"/>
<path fill-rule="evenodd" clip-rule="evenodd" d="M6.875 7.375C6.875 7.09886 7.09886 6.875 7.375 6.875H8.375C8.65114 6.875 8.875 7.09886 8.875 7.375V11C8.875 11.2761 8.65114 11.5 8.375 11.5C8.09886 11.5 7.875 11.2761 7.875 11V7.875H7.375C7.09886 7.875 6.875 7.65114 6.875 7.375Z" fill="#000091"/>
<path fill-rule="evenodd" clip-rule="evenodd" d="M6.5 11.125C6.5 10.8489 6.72386 10.625 7 10.625H9.75C10.0261 10.625 10.25 10.8489 10.25 11.125C10.25 11.4011 10.0261 11.625 9.75 11.625H7C6.72386 11.625 6.5 11.4011 6.5 11.125Z" fill="#000091"/>
<path d="M8.25 4.5625C8.0893 4.5625 7.93221 4.61015 7.7986 4.69943C7.66498 4.78871 7.56084 4.9156 7.49935 5.06407C7.43785 5.21253 7.42176 5.3759 7.45311 5.53351C7.48446 5.69112 7.56185 5.83589 7.67548 5.94952C7.78911 6.06315 7.93388 6.14054 8.09149 6.17189C8.2491 6.20324 8.41247 6.18715 8.56093 6.12565C8.7094 6.06416 8.83629 5.96002 8.92557 5.8264C9.01485 5.69279 9.0625 5.5357 9.0625 5.375C9.0625 5.15951 8.9769 4.95285 8.82452 4.80048C8.67215 4.6481 8.46549 4.5625 8.25 4.5625V4.5625Z" fill="#000091"/>
</svg>