<svg xmlns="http://www.w3.org/2000/svg" width="25" height="25" viewBox="0 0 25 25" fill="none">
<path d="M15.5 1.62842H9.5V3.62842H15.5V1.62842ZM11.5 14.6284H13.5V8.62842H11.5V14.6284ZM19.53 8.01842L20.95 6.59842C20.52 6.08842 20.05 5.60842 19.54 5.18842L18.12 6.60842C16.5273 5.32674 14.5443 4.62811 12.5 4.62842C7.53 4.62842 3.5 8.65842 3.5 13.6284C3.5 18.5984 7.52 22.6284 12.5 22.6284C14.1943 22.6293 15.8544 22.1516 17.2891 21.2504C18.7238 20.3491 19.8748 19.0609 20.6094 17.5342C21.3441 16.0074 21.6325 14.3042 21.4415 12.6207C21.2506 10.9372 20.588 9.34183 19.53 8.01842ZM12.5 20.6284C8.63 20.6284 5.5 17.4984 5.5 13.6284C5.5 9.75842 8.63 6.62842 12.5 6.62842C16.37 6.62842 19.5 9.75842 19.5 13.6284C19.5 17.4984 16.37 20.6284 12.5 20.6284Z" fill="#000091"/>
</svg>