<svg width="27" height="28" viewBox="0 0 27 28" fill="none" xmlns="http://www.w3.org/2000/svg">
<path d="M13.5013 27.3337C6.1373 27.3337 0.167969 21.3643 0.167969 14.0003C0.167969 6.63633 6.1373 0.666992 13.5013 0.666992C20.8653 0.666992 26.8346 6.63633 26.8346 14.0003C26.8346 21.3643 20.8653 27.3337 13.5013 27.3337ZM8.16797 16.667V19.3337H18.8346V16.667H8.16797ZM8.16797 12.667C8.6984 12.667 9.20711 12.4563 9.58218 12.0812C9.95725 11.7061 10.168 11.1974 10.168 10.667C10.168 10.1366 9.95725 9.62785 9.58218 9.25278C9.20711 8.87771 8.6984 8.66699 8.16797 8.66699C7.63754 8.66699 7.12883 8.87771 6.75375 9.25278C6.37868 9.62785 6.16797 10.1366 6.16797 10.667C6.16797 11.1974 6.37868 11.7061 6.75375 12.0812C7.12883 12.4563 7.63754 12.667 8.16797 12.667ZM18.8346 12.667C19.3651 12.667 19.8738 12.4563 20.2488 12.0812C20.6239 11.7061 20.8346 11.1974 20.8346 10.667C20.8346 10.1366 20.6239 9.62785 20.2488 9.25278C19.8738 8.87771 19.3651 8.66699 18.8346 8.66699C18.3042 8.66699 17.7955 8.87771 17.4204 9.25278C17.0453 9.62785 16.8346 10.1366 16.8346 10.667C16.8346 11.1974 17.0453 11.7061 17.4204 12.0812C17.7955 12.4563 18.3042 12.667 18.8346 12.667Z" fill="#0063CB"/>
</svg>
