<svg width="28" height="26" viewBox="0 0 28 26" fill="none" xmlns="http://www.w3.org/2000/svg">
<path d="M11.3333 0.00390625H16.6666C19.4956 0.00390625 22.2087 1.12771 24.2091 3.1281C26.2095 5.12849 27.3333 7.8416 27.3333 10.6706C27.3333 13.4995 26.2095 16.2127 24.2091 18.213C22.2087 20.2134 19.4956 21.3372 16.6666 21.3372V26.0039C9.99996 23.3372 0.666626 19.3372 0.666626 10.6706C0.666626 7.8416 1.79043 5.12849 3.79082 3.1281C5.79121 1.12771 8.50432 0.00390625 11.3333 0.00390625ZM14 18.6706H16.6666C17.7172 18.6706 18.7575 18.4636 19.7281 18.0616C20.6987 17.6596 21.5806 17.0703 22.3235 16.3274C23.0664 15.5846 23.6556 14.7026 24.0577 13.732C24.4597 12.7614 24.6666 11.7211 24.6666 10.6706C24.6666 9.62 24.4597 8.57971 24.0577 7.60911C23.6556 6.6385 23.0664 5.75659 22.3235 5.01372C21.5806 4.27085 20.6987 3.68157 19.7281 3.27954C18.7575 2.8775 17.7172 2.67057 16.6666 2.67057H11.3333C9.21156 2.67057 7.17673 3.51343 5.67644 5.01372C4.17615 6.51401 3.33329 8.54884 3.33329 10.6706C3.33329 15.4839 6.61596 18.6252 14 21.9772V18.6706Z" fill="#6A6AF4"/>
<path d="M13.6 15.3372L10.7363 10.6706L13.6 6.00391H10.5091L7.59996 10.6706L10.5091 15.3372H13.6ZM19.6 15.3372L16.7363 10.6706L19.6 6.00391H16.5091L13.6 10.6706L16.5091 15.3372H19.6Z" fill="#6A6AF4"/>
</svg>
