<svg width="27" height="28" viewBox="0 0 27 28" fill="none" xmlns="http://www.w3.org/2000/svg">
<path d="M13.5013 27.3332C6.1373 27.3332 0.167969 21.3638 0.167969 13.9998C0.167969 6.63584 6.1373 0.666504 13.5013 0.666504C20.8653 0.666504 26.8346 6.63584 26.8346 13.9998C26.8346 21.3638 20.8653 27.3332 13.5013 27.3332ZM6.83464 20.6665H9.5013C9.5013 19.6056 9.92273 18.5882 10.6729 17.8381C11.423 17.0879 12.4404 16.6665 13.5013 16.6665C14.5622 16.6665 15.5796 17.0879 16.3297 17.8381C17.0799 18.5882 17.5013 19.6056 17.5013 20.6665H20.168C20.168 18.8984 19.4656 17.2027 18.2153 15.9525C16.9651 14.7022 15.2694 13.9998 13.5013 13.9998C11.7332 13.9998 10.0375 14.7022 8.78726 15.9525C7.53701 17.2027 6.83464 18.8984 6.83464 20.6665V20.6665ZM8.16797 12.6665C8.6984 12.6665 9.20711 12.4558 9.58218 12.0807C9.95725 11.7056 10.168 11.1969 10.168 10.6665C10.168 10.1361 9.95725 9.62736 9.58218 9.25229C9.20711 8.87722 8.6984 8.6665 8.16797 8.6665C7.63754 8.6665 7.12883 8.87722 6.75375 9.25229C6.37868 9.62736 6.16797 10.1361 6.16797 10.6665C6.16797 11.1969 6.37868 11.7056 6.75375 12.0807C7.12883 12.4558 7.63754 12.6665 8.16797 12.6665V12.6665ZM18.8346 12.6665C19.3651 12.6665 19.8738 12.4558 20.2488 12.0807C20.6239 11.7056 20.8346 11.1969 20.8346 10.6665C20.8346 10.1361 20.6239 9.62736 20.2488 9.25229C19.8738 8.87722 19.3651 8.6665 18.8346 8.6665C18.3042 8.6665 17.7955 8.87722 17.4204 9.25229C17.0453 9.62736 16.8346 10.1361 16.8346 10.6665C16.8346 11.1969 17.0453 11.7056 17.4204 12.0807C17.7955 12.4558 18.3042 12.6665 18.8346 12.6665Z" fill="#FA7A35"/>
</svg>
