
<svg width="30" height="28" viewBox="0 0 30 28" fill="none" xmlns="http://www.w3.org/2000/svg">
<path d="M21.6638 22.0001V19.3334H22.3305C23.0998 19.3333 23.8573 19.143 24.5353 18.7794C25.2133 18.4158 25.7909 17.8901 26.2167 17.2493C26.6425 16.6085 26.9032 15.8723 26.9757 15.1064C27.0482 14.3404 26.9301 13.5684 26.6321 12.8591C26.3341 12.1498 25.8653 11.5251 25.2675 11.0408C24.6697 10.5565 23.9614 10.2275 23.2057 10.083C22.45 9.93863 21.6703 9.98331 20.936 10.2131C20.2018 10.4429 19.5357 10.8507 18.9971 11.4001V11.3334C18.9966 9.8669 18.593 8.42873 17.8303 7.17609C17.0677 5.92345 15.9754 4.90454 14.6728 4.23072C13.3702 3.5569 11.9075 3.2541 10.4445 3.35541C8.98146 3.45672 7.57442 3.95823 6.37715 4.80515C5.17988 5.65207 4.23845 6.8118 3.65574 8.1576C3.07303 9.5034 2.87147 10.9835 3.07308 12.4361C3.27469 13.8887 3.87171 15.2579 4.79891 16.3942C5.7261 17.5304 6.94779 18.3899 8.33045 18.8788V21.6641C6.56207 21.2065 4.94082 20.3025 3.62205 19.0386C2.30328 17.7747 1.33118 16.1933 0.798884 14.4459C0.266589 12.6986 0.191936 10.8438 0.58208 9.05931C0.972223 7.27483 1.81409 5.62044 3.02702 4.25465C4.23994 2.88885 5.78329 1.85742 7.50918 1.25919C9.23507 0.660948 11.0857 0.515947 12.8837 0.838074C14.6817 1.1602 16.3668 1.93866 17.7777 3.09887C19.1885 4.25908 20.2778 5.76217 20.9411 7.4641C21.9438 7.27225 22.9756 7.29187 23.9703 7.52172C24.965 7.75157 25.9007 8.18658 26.7176 8.79891C27.5345 9.41124 28.2146 10.1874 28.7143 11.0777C29.2139 11.968 29.5222 12.9528 29.6193 13.969C29.7165 14.9853 29.6003 16.0107 29.2783 16.9795C28.9564 17.9483 28.4357 18.8393 27.7496 19.5952C27.0634 20.3512 26.227 20.9556 25.2939 21.3697C24.3607 21.7838 23.3514 21.9985 22.3305 22.0001L21.6638 22.0014V22.0001ZM16.3305 19.3401H20.3305L13.6638 28.0068V22.0068H9.66379L16.3305 13.3334V19.3401Z" fill="#FF742E"/>
</svg>
