
<svg width="30" height="28" viewBox="0 0 30 28" fill="none" xmlns="http://www.w3.org/2000/svg">
<path d="M21.6499 21.9173L23.2712 19.8107C23.4991 19.5146 23.6396 19.1606 23.6766 18.7889C23.7136 18.4171 23.6458 18.0424 23.4808 17.7072C23.3157 17.3721 23.0601 17.0898 22.7429 16.8924C22.4257 16.6951 22.0595 16.5906 21.6859 16.5907H18.9992V11.2893C18.9995 10.8713 18.8687 10.4638 18.6254 10.1239C18.3821 9.7841 18.0384 9.52902 17.6427 9.39455C17.2469 9.26008 16.819 9.25298 16.419 9.37425C16.019 9.49552 15.667 9.73906 15.4126 10.0707L6.92591 21.112C4.64523 20.1683 2.76228 18.463 1.59787 16.2867C0.43345 14.1104 0.0595957 11.5977 0.539994 9.17671C1.02039 6.75569 2.32532 4.57611 4.23248 3.00931C6.13963 1.4425 8.53102 0.585383 10.9992 0.583984C13.1486 0.583859 15.248 1.23285 17.0223 2.44596C18.7967 3.65907 20.1633 5.37975 20.9432 7.38265C21.9464 7.18971 22.9787 7.20847 23.9742 7.43772C24.9696 7.66698 25.9062 8.10168 26.7239 8.71397C27.5416 9.32625 28.2223 10.1026 28.7225 10.9933C29.2226 11.884 29.5312 12.8693 29.6284 13.8862C29.7256 14.9031 29.6093 15.929 29.2869 16.8983C28.9645 17.8676 28.4432 18.7589 27.7563 19.515C27.0695 20.2711 26.2322 20.8754 25.2982 21.289C24.3642 21.7027 23.3541 21.9167 22.3326 21.9173H21.6499ZM16.3326 19.2573H20.3326L13.6659 27.924V21.924H9.66591L16.3326 13.2507V19.2573Z" fill="#FF742E"/>
</svg>
