<svg width="30" height="31" viewBox="0 0 30 31" fill="none" xmlns="http://www.w3.org/2000/svg">
<path d="M14.9948 23.5524C12.8731 23.5524 10.8382 22.7096 9.33794 21.2093C7.83765 19.709 6.99479 17.6741 6.99479 15.5524C6.99479 13.4307 7.83765 11.3958 9.33794 9.89556C10.8382 8.39526 12.8731 7.55241 14.9948 7.55241C17.1165 7.55241 19.1514 8.39526 20.6516 9.89556C22.1519 11.3958 22.9948 13.4307 22.9948 15.5524C22.9948 17.6741 22.1519 19.709 20.6516 21.2093C19.1514 22.7096 17.1165 23.5524 14.9948 23.5524ZM13.6615 0.885742H16.3281V4.88574H13.6615V0.885742ZM13.6615 26.2191H16.3281V30.2191H13.6615V26.2191ZM3.68146 6.12441L5.56679 4.23908L8.39479 7.06708L6.50946 8.95241L3.68146 6.12574V6.12441ZM21.5948 24.0377L23.4801 22.1524L26.3081 24.9804L24.4228 26.8657L21.5948 24.0377ZM24.4228 4.23774L26.3081 6.12441L23.4801 8.95241L21.5948 7.06708L24.4228 4.23908V4.23774ZM6.50946 22.1524L8.39479 24.0377L5.56679 26.8657L3.68146 24.9804L6.50946 22.1524ZM29.6615 14.2191V16.8857H25.6615V14.2191H29.6615ZM4.32812 14.2191V16.8857H0.328125V14.2191H4.32812Z" fill="#18753C"/>
</svg>
