<svg width="16" height="16" viewBox="0 0 16 16" fill="none" xmlns="http://www.w3.org/2000/svg">
<path fill-rule="evenodd" clip-rule="evenodd" d="M8.2534 0.460471L9.46273 1.06514C10.164 1.41563 10.5261 2.20743 10.3327 2.96714L9.73073 5.33314H13.9974C14.7338 5.33314 15.3307 5.93009 15.3307 6.66647V8.06914C15.3309 8.24338 15.2969 8.41597 15.2307 8.57714L13.1674 13.5871C13.0645 13.8369 12.8209 13.9998 12.5507 13.9998H1.33073C0.962539 13.9998 0.664062 13.7013 0.664062 13.3331V6.66647C0.664062 6.29828 0.962539 5.9998 1.33073 5.9998H3.65206C3.86865 5.99986 4.07176 5.8947 4.19673 5.7178L7.83206 0.566471C7.92703 0.431893 8.10605 0.386854 8.2534 0.460471ZM8.42606 2.03847L5.28606 6.48647C5.1194 6.72247 4.90606 6.91581 4.66406 7.05847V12.6665H12.1041L13.9974 8.06914V6.66647H9.73073C9.31923 6.66641 8.9308 6.47635 8.67825 6.15146C8.42569 5.82658 8.33729 5.40328 8.43873 5.00447L9.04073 2.63914C9.07955 2.48711 9.00709 2.32859 8.86673 2.25847L8.42606 2.03847Z" fill="#000091"/>
</svg>
