<svg width="16" height="16" viewBox="0 0 16 16" fill="none" xmlns="http://www.w3.org/2000/svg">
<path fill-rule="evenodd" clip-rule="evenodd" d="M1.33073 6.00008H3.33073V14.0001H1.33073C0.962539 14.0001 0.664062 13.7016 0.664062 13.3334V6.66674C0.664062 6.29855 0.962539 6.00008 1.33073 6.00008ZM4.8594 5.13808L9.12606 0.871411C9.24331 0.75383 9.42921 0.74047 9.56206 0.840077L10.1307 1.26674C10.4537 1.50919 10.5991 1.92209 10.4994 2.31341L9.73073 5.33341H13.9974C14.7338 5.33341 15.3307 5.93036 15.3307 6.66674V8.06941C15.3309 8.24365 15.2969 8.41624 15.2307 8.57741L13.1674 13.5874C13.0645 13.8372 12.8209 14.0001 12.5507 14.0001H5.33073C4.96254 14.0001 4.66406 13.7016 4.66406 13.3334V5.60941C4.66406 5.43261 4.73436 5.26307 4.8594 5.13808Z" fill="#000091"/>
</svg>
